<?xml version="1.0" encoding="utf-8"?>
<!-- Generator: Adobe Illustrator 23.0.0, SVG Export Plug-In . SVG Version: 6.00 Build 0)  -->
<svg version="1.1" id="Layer_1" xmlns="http://www.w3.org/2000/svg" xmlns:xlink="http://www.w3.org/1999/xlink" x="0px" y="0px"
	 width="32px" height="32px" viewBox="0 0 32 32" style="enable-background:new 0 0 32 32;" xml:space="preserve">
<style type="text/css">
	.st0{fill:#3468D1;}
	.st1{fill:url(#SVGID_1_);}
	.st2{fill-rule:evenodd;clip-rule:evenodd;fill:#FFFFFF;}
</style>
<path class="st0" d="M20,32h-8C5.4,32,0,26.6,0,20v-8C0,5.4,5.4,0,12,0h8c6.6,0,12,5.4,12,12v8C32,26.6,26.6,32,20,32z"/>
<linearGradient id="SVGID_1_" gradientUnits="userSpaceOnUse" x1="7.2681" y1="0.8759" x2="24.7319" y2="31.1241">
	<stop  offset="0" style="stop-color:#FFFFFF;stop-opacity:0.5"/>
	<stop  offset="1" style="stop-color:#FFFFFF;stop-opacity:0"/>
</linearGradient>
<path class="st1" d="M20,32h-8C5.4,32,0,26.6,0,20v-8C0,5.4,5.4,0,12,0h8c6.6,0,12,5.4,12,12v8C32,26.6,26.6,32,20,32z"/>
<path id="ada" class="st2" d="M14.1,11.1c0.9,0,1.6,0.7,1.6,1.6c0,0.9-0.7,1.6-1.6,1.6c-0.9,0-1.6-0.7-1.6-1.6
	C12.5,11.8,13.2,11.1,14.1,11.1z M17.9,11.1c0.9,0,1.6,0.7,1.6,1.6c0,0.9-0.7,1.6-1.6,1.6c-0.9,0-1.6-0.7-1.6-1.6
	C16.3,11.8,17,11.1,17.9,11.1L17.9,11.1z M17.9,17.7c0.9,0,1.6,0.7,1.6,1.6c0,0.9-0.7,1.6-1.6,1.6c-0.9,0-1.6-0.7-1.6-1.6
	C16.3,18.5,17,17.7,17.9,17.7C17.9,17.7,17.9,17.7,17.9,17.7L17.9,17.7z M14.1,17.7c0.9,0,1.6,0.7,1.6,1.6c0,0.9-0.7,1.6-1.6,1.6
	c-0.9,0-1.6-0.7-1.6-1.6C12.5,18.5,13.2,17.7,14.1,17.7z M12.1,14.5c0.9,0,1.6,0.7,1.6,1.6c0,0.9-0.7,1.6-1.6,1.6
	c-0.9,0-1.6-0.7-1.6-1.6C10.5,15.2,11.3,14.5,12.1,14.5L12.1,14.5z M19.9,14.5c0.9,0,1.6,0.7,1.6,1.6c0,0.9-0.7,1.6-1.6,1.6
	c-0.9,0-1.6-0.7-1.6-1.6C18.3,15.2,19,14.5,19.9,14.5C19.9,14.5,19.9,14.5,19.9,14.5z M21.7,11.7c0.5,0,1,0.4,1,1c0,0.5-0.4,1-1,1
	c-0.5,0-1-0.4-1-1C20.7,12.2,21.1,11.7,21.7,11.7C21.7,11.7,21.7,11.7,21.7,11.7z M21.7,18.3c0.5,0,1,0.4,1,1c0,0.5-0.4,1-1,1
	c-0.5,0-1-0.4-1-1C20.7,18.7,21.1,18.3,21.7,18.3C21.7,18.3,21.7,18.3,21.7,18.3z M10.3,18.3c0.5,0,1,0.4,1,1c0,0.5-0.4,1-1,1
	c-0.5,0-1-0.4-1-1C9.3,18.7,9.8,18.3,10.3,18.3L10.3,18.3z M10.3,11.7c0.5,0,1,0.4,1,1c0,0.5-0.4,1-1,1c-0.5,0-1-0.4-1-1
	C9.3,12.2,9.8,11.7,10.3,11.7L10.3,11.7z M16,8.5c0.5,0,1,0.4,1,1c0,0.5-0.4,1-1,1c-0.5,0-1-0.4-1-1C15,8.9,15.5,8.5,16,8.5
	C16,8.5,16,8.5,16,8.5z M16,21.6c0.5,0,1,0.4,1,1c0,0.5-0.4,1-1,1c-0.5,0-1-0.4-1-1C15,22,15.5,21.6,16,21.6
	C16,21.6,16,21.6,16,21.6z M20.2,22.5c0.5,0,0.8,0.4,0.8,0.8c0,0.5-0.4,0.8-0.8,0.8c-0.5,0-0.8-0.4-0.8-0.8
	C19.4,22.9,19.7,22.5,20.2,22.5C20.2,22.5,20.2,22.5,20.2,22.5z M11.8,22.5c0.5,0,0.8,0.4,0.8,0.8c0,0.5-0.4,0.8-0.8,0.8
	c-0.5,0-0.8-0.4-0.8-0.8C11,22.9,11.3,22.5,11.8,22.5C11.8,22.5,11.8,22.5,11.8,22.5L11.8,22.5z M11.8,7.8c0.5,0,0.8,0.4,0.8,0.8
	c0,0.5-0.4,0.8-0.8,0.8c-0.5,0-0.8-0.4-0.8-0.8C11,8.2,11.3,7.8,11.8,7.8C11.8,7.8,11.8,7.8,11.8,7.8L11.8,7.8z M20.2,7.8
	c0.5,0,0.8,0.4,0.8,0.8c0,0.5-0.4,0.8-0.8,0.8c-0.5,0-0.8-0.4-0.8-0.8C19.4,8.2,19.7,7.8,20.2,7.8C20.2,7.8,20.2,7.8,20.2,7.8z
	 M24.5,15.1c0.5,0,0.8,0.4,0.8,0.8c0,0.5-0.4,0.8-0.8,0.8c-0.5,0-0.8-0.4-0.8-0.8C23.6,15.5,24,15.1,24.5,15.1L24.5,15.1z M7.5,15.1
	c0.5,0,0.8,0.4,0.8,0.8c0,0.5-0.4,0.8-0.8,0.8c-0.5,0-0.8-0.4-0.8-0.8C6.7,15.5,7.1,15.1,7.5,15.1C7.5,15.1,7.5,15.1,7.5,15.1
	L7.5,15.1z M6.9,10.1c0.4,0,0.7,0.3,0.7,0.7c0,0.4-0.3,0.7-0.7,0.7c-0.4,0-0.7-0.3-0.7-0.7c0,0,0,0,0,0C6.3,10.4,6.6,10.1,6.9,10.1
	L6.9,10.1z M6.9,20.6c0.4,0,0.7,0.3,0.7,0.7c0,0.4-0.3,0.7-0.7,0.7c-0.4,0-0.7-0.3-0.7-0.7c0,0,0,0,0,0C6.3,20.9,6.6,20.6,6.9,20.6
	L6.9,20.6z M25.1,20.6c0.4,0,0.7,0.3,0.7,0.7c0,0.4-0.3,0.7-0.7,0.7c-0.4,0-0.7-0.3-0.7-0.7c0,0,0,0,0,0
	C24.4,20.9,24.7,20.6,25.1,20.6L25.1,20.6z M25.1,10.1c0.4,0,0.7,0.3,0.7,0.7c0,0.4-0.3,0.7-0.7,0.7c-0.4,0-0.7-0.3-0.7-0.7
	c0,0,0,0,0,0C24.4,10.4,24.7,10.1,25.1,10.1L25.1,10.1z M16,4.9c0.4,0,0.7,0.3,0.7,0.7c0,0.4-0.3,0.7-0.7,0.7
	c-0.4,0-0.7-0.3-0.7-0.7l0,0C15.3,5.2,15.6,4.9,16,4.9C16,4.9,16,4.9,16,4.9z M16,25.8c0.4,0,0.7,0.3,0.7,0.7c0,0.4-0.3,0.7-0.7,0.7
	c-0.4,0-0.7-0.3-0.7-0.7C15.3,26.1,15.6,25.8,16,25.8C16,25.8,16,25.8,16,25.8z M21.8,25.4c0.3,0,0.5,0.2,0.5,0.5
	c0,0.3-0.2,0.5-0.5,0.5c-0.3,0-0.5-0.2-0.5-0.5l0,0C21.2,25.6,21.5,25.4,21.8,25.4z M10.2,25.4c0.3,0,0.5,0.2,0.5,0.5
	c0,0.3-0.2,0.5-0.5,0.5c-0.3,0-0.5-0.2-0.5-0.5l0,0C9.7,25.6,9.9,25.4,10.2,25.4z M10.2,5.5c0.3,0,0.5,0.2,0.5,0.5
	c0,0.3-0.2,0.5-0.5,0.5c-0.3,0-0.5-0.2-0.5-0.5l0,0C9.7,5.8,9.9,5.5,10.2,5.5C10.2,5.5,10.2,5.5,10.2,5.5L10.2,5.5z M21.8,5.5
	c0.3,0,0.5,0.2,0.5,0.5c0,0.3-0.2,0.5-0.5,0.5c-0.3,0-0.5-0.2-0.5-0.5l0,0C21.2,5.8,21.5,5.5,21.8,5.5C21.8,5.5,21.8,5.5,21.8,5.5
	L21.8,5.5z M27.5,15.5c0.3,0,0.5,0.2,0.5,0.5c0,0.3-0.2,0.5-0.5,0.5c-0.3,0-0.5-0.2-0.5-0.5c0,0,0,0,0,0
	C26.9,15.7,27.2,15.5,27.5,15.5L27.5,15.5z M4.5,15.5c0.3,0,0.5,0.2,0.5,0.5s-0.2,0.5-0.5,0.5S4,16.3,4,16c0,0,0,0,0,0
	C4,15.7,4.2,15.5,4.5,15.5L4.5,15.5z"/>
</svg>
