<?xml version="1.0" encoding="utf-8"?>
<!-- Generator: Adobe Illustrator 23.0.0, SVG Export Plug-In . SVG Version: 6.00 Build 0)  -->
<svg version="1.1" id="Layer_1" xmlns="http://www.w3.org/2000/svg" xmlns:xlink="http://www.w3.org/1999/xlink" x="0px" y="0px"
	 width="32px" height="32px" viewBox="0 0 32 32" style="enable-background:new 0 0 32 32;" xml:space="preserve">
<style type="text/css">
	.st0{fill:#1B1E36;}
	.st1{fill:url(#SVGID_1_);}
	.st2{fill:#FFFFFF;}
</style>
<path class="st0" d="M20,32h-8C5.4,32,0,26.6,0,20v-8C0,5.4,5.4,0,12,0h8c6.6,0,12,5.4,12,12v8C32,26.6,26.6,32,20,32z"/>
<linearGradient id="SVGID_1_" gradientUnits="userSpaceOnUse" x1="7.2681" y1="0.8759" x2="24.7319" y2="31.1241">
	<stop  offset="0" style="stop-color:#FFFFFF;stop-opacity:0.5"/>
	<stop  offset="1" style="stop-color:#FFFFFF;stop-opacity:0"/>
</linearGradient>
<path class="st1" d="M20,32h-8C5.4,32,0,26.6,0,20v-8C0,5.4,5.4,0,12,0h8c6.6,0,12,5.4,12,12v8C32,26.6,26.6,32,20,32z"/>
<path class="st2" d="M16,4c-1.5,0-2.7,5.4-2.7,12s1.2,12,2.7,12s2.7-5.4,2.7-12S17.5,4,16,4z M16.2,27.3c-0.2,0.2-0.3,0.1-0.3,0.1
	c-0.7-0.8-1-2.3-1-2.3C13.6,21.3,13.9,13,13.9,13c0.6-6.5,1.6-8.1,1.9-8.4c0.1-0.1,0.2-0.1,0.3,0C16.6,4.9,17,6.4,17,6.4
	c1.2,4.6,1.1,9,1.1,9c0.1,3.8-0.6,8-0.6,8C17,26.6,16.2,27.3,16.2,27.3z"/>
<path class="st2" d="M26.4,10c-0.7-1.3-6,0.3-11.7,3.6s-9.8,7-9.1,8.3s6-0.3,11.7-3.6S27.1,11.3,26.4,10L26.4,10z M6.3,21.8
	c-0.3,0-0.2-0.3-0.2-0.3c0.3-1,1.4-2,1.4-2c2.7-2.9,10-6.8,10-6.8c6-2.8,7.8-2.7,8.3-2.5c0.1,0,0.2,0.1,0.2,0.2
	c-0.1,0.6-1.1,1.7-1.1,1.7c-3.4,3.4-7.2,5.5-7.2,5.5c-3.2,2-7.3,3.4-7.3,3.4C7.3,22.1,6.3,21.8,6.3,21.8L6.3,21.8L6.3,21.8z"/>
<path class="st2" d="M26.4,22c0.7-1.3-3.3-5-9-8.3s-11-5-11.7-3.7s3.3,5,9,8.3S25.6,23.3,26.4,22z M6.1,10.5
	c-0.1-0.3,0.1-0.3,0.1-0.3c1-0.2,2.5,0.2,2.5,0.2c3.9,0.9,10.9,5.3,10.9,5.3c5.4,3.8,6.2,5.4,6.3,5.9c0,0.1,0,0.2-0.1,0.2
	c-0.6,0.3-2.1-0.1-2.1-0.1c-4.6-1.2-8.3-3.5-8.3-3.5c-3.3-1.8-6.6-4.6-6.6-4.6C6.3,11.5,6.1,10.5,6.1,10.5L6.1,10.5z"/>
<circle class="st2" cx="16" cy="16" r="1.4"/>
<ellipse class="st2" cx="21.8" cy="10.6" rx="0.8" ry="0.8"/>
<ellipse class="st2" cx="8.3" cy="13.4" rx="0.8" ry="0.8"/>
<ellipse class="st2" cx="14.3" cy="23.8" rx="0.8" ry="0.8"/>
</svg>
