<?xml version="1.0" encoding="utf-8"?>
<!-- Generator: Adobe Illustrator 23.0.0, SVG Export Plug-In . SVG Version: 6.00 Build 0)  -->
<svg version="1.1" id="Layer_1" xmlns="http://www.w3.org/2000/svg" xmlns:xlink="http://www.w3.org/1999/xlink" x="0px" y="0px"
	 width="32px" height="32px" viewBox="0 0 32 32" style="enable-background:new 0 0 32 32;" xml:space="preserve">
<style type="text/css">
	.st0{fill:#F5BC00;}
	.st1{fill:url(#SVGID_1_);}
	.st2{fill:#FFFFFF;}
</style>
<path class="st0" d="M20,32h-8C5.4,32,0,26.6,0,20v-8C0,5.4,5.4,0,12,0h8c6.6,0,12,5.4,12,12v8C32,26.6,26.6,32,20,32z"/>
<linearGradient id="SVGID_1_" gradientUnits="userSpaceOnUse" x1="7.2681" y1="0.8759" x2="24.7319" y2="31.1241">
	<stop  offset="0" style="stop-color:#FFFFFF;stop-opacity:0.5"/>
	<stop  offset="1" style="stop-color:#FFFFFF;stop-opacity:0"/>
</linearGradient>
<path class="st1" d="M20,32h-8C5.4,32,0,26.6,0,20v-8C0,5.4,5.4,0,12,0h8c6.6,0,12,5.4,12,12v8C32,26.6,26.6,32,20,32z"/>
<polygon class="st2" points="11.7,14.2 16,10 20.3,14.2 22.8,11.8 16,5 9.2,11.8 "/>
<rect x="5.7" y="14.2" transform="matrix(0.7071 -0.7071 0.7071 0.7071 -9.1206 9.9802)" class="st2" width="3.5" height="3.5"/>
<polygon class="st2" points="11.7,17.8 16,22 20.3,17.8 22.8,20.2 22.8,20.2 16,27 9.2,20.2 9.2,20.2 "/>
<rect x="22.8" y="14.2" transform="matrix(0.7071 -0.7071 0.7071 0.7071 -4.134 22.0214)" class="st2" width="3.5" height="3.5"/>
<polygon class="st2" points="18.5,16 18.5,16 16,13.5 14.1,15.3 14.1,15.3 13.9,15.6 13.5,16 13.5,16 13.5,16 13.5,16 16,18.5 
	18.5,16 18.5,16 "/>
</svg>
