<?xml version="1.0" encoding="utf-8"?>
<!-- Generator: Adobe Illustrator 23.0.0, SVG Export Plug-In . SVG Version: 6.00 Build 0)  -->
<svg version="1.1" id="Layer_1" xmlns="http://www.w3.org/2000/svg" xmlns:xlink="http://www.w3.org/1999/xlink" x="0px" y="0px"
	 width="32px" height="32px" viewBox="0 0 32 32" style="enable-background:new 0 0 32 32;" xml:space="preserve">
<style type="text/css">
	.st0{fill:#0187FA;}
	.st1{fill:url(#SVGID_1_);}
	.st2{fill:#FFFDFC;}
</style>
<path class="st0" d="M20,32h-8C5.4,32,0,26.6,0,20v-8C0,5.4,5.4,0,12,0h8c6.6,0,12,5.4,12,12v8C32,26.6,26.6,32,20,32z"/>
<linearGradient id="SVGID_1_" gradientUnits="userSpaceOnUse" x1="7.2726" y1="33.1163" x2="24.7274" y2="2.8837" gradientTransform="matrix(1 0 0 -1 0 34)">
	<stop  offset="0" style="stop-color:#FFFFFF;stop-opacity:0.5"/>
	<stop  offset="1" style="stop-color:#FFFFFF;stop-opacity:0"/>
</linearGradient>
<path class="st1" d="M20,32h-8C5.4,32,0,26.6,0,20v-8C0,5.4,5.4,0,12,0h8c6.6,0,12,5.4,12,12v8C32,26.6,26.6,32,20,32z"/>
<path class="st2" d="M24.7,16.5c0-0.2-0.1-0.4-0.1-0.4c-0.2-0.4-0.7-0.5-1.1-0.4c-0.1,0-0.2,0.1-0.2,0.2L19.8,19v3.6
	c0,0-3.5-0.5-4.3-0.7c-1-0.3-1.7-0.5-2.4-1.1c-0.2-0.2-0.9-0.8-0.9-1.7c0-0.1,0-0.1,0-0.2v-0.2l0-9.3l4.6,0.7c0.4,0.1,1.3,0.3,2,0.9
	c0.3,0.3,0.5,0.6,0.6,0.7c0.3,0.4,0.3,0.7,0.3,0.9v0.2v2.8c0,0.1,0,0.3,0.2,0.5c0,0.1,0.2,0.2,0.5,0.3c0.2,0,0.3-0.1,0.5-0.1
	c0.1-0.1,0.2-0.1,0.2-0.2l3.6-3v-2.9c0-0.1,0-0.1,0-0.2c0-0.9-0.5-1.6-0.8-2c-0.2-0.2-1.1-1.4-2.7-2c-0.1,0-0.3-0.1-0.3-0.1l-4-0.7
	C16.7,5.1,16.4,5,16,5c-0.2,0-0.9-0.1-1.6,0.1C13,5.3,11.2,6.3,11,7.7c0,0.1,0,0.2,0,0.3h-0.4c-0.3,0.1-0.7,0.3-1.2,0.6
	C9,8.8,8.3,9.3,7.8,10.3c-0.5,0.9-0.5,1.8-0.5,2.1v0.3v8.6c0,0.1,0,0.3,0,0.5c0,0,0.1,0.7,0.3,1.4c0.2,0.7,0.9,1.9,2.2,2.6
	c0.4,0.2,1.2,0.4,2.8,0.8c0.7,0.2,1.8,0.4,3,0.5c0.6,0.1,1,0.1,1.2,0c0.5,0,1.2-0.1,2-0.5c1.4-0.7,2-1.9,2.2-2.2
	c0-0.1,0.1-0.2,0.1-0.2h0.2c0.5-0.1,1.5-0.5,2.3-1.5c0.2-0.3,1-1.3,1.1-2.7c0-0.2,0-0.3,0-0.5C24.7,18.5,24.7,17.5,24.7,16.5
	L24.7,16.5z M13.1,7.6C13.5,7.3,13.8,7.1,14,7c0.3-0.1,1.1-0.5,2-0.3c0.1,0,0.2,0.1,0.3,0.1l4.1,0.8c0.3,0,1.2,0.2,1.9,1
	c0.2,0.2,0.8,0.8,0.8,1.8c0,0.1,0,0.3,0,0.4v1.6l-1.7,1.3v-0.8c0-0.1,0-0.3-0.1-0.5c-0.2-0.9-0.6-1.5-0.8-1.8
	c-0.1-0.2-1-1.4-2.5-1.9c-0.1,0-0.1,0-0.2-0.1L13,7.8L13.1,7.6z M18.8,24.5c-0.4,0.6-1.4,0.7-1.8,0.8c-0.2,0-0.4,0-0.7,0l-5-0.9
	l-0.1-0.1c-0.2,0-0.6-0.2-1-0.4c-0.4-0.3-0.7-0.6-0.8-0.8C9.1,22.7,9,22.4,9,22.2c-0.1-0.3-0.1-0.6-0.1-0.8l0-9.1c0,0,0-0.1,0-0.1
	c0-0.9,0.7-1.7,1.3-2.1l0.2-0.1c0,2.9,0,5.9,0,8.8c0,0.1,0,0.2,0,0.3c0.1,1.4,0.9,2.3,1.1,2.6c1,1.2,2.3,1.5,3.2,1.8
	c0.5,0.1,4.1,0.7,4.1,0.7C18.9,24.3,18.8,24.4,18.8,24.5L18.8,24.5z M23.1,19.7c0,0.3-0.1,1-0.6,1.6c-0.3,0.4-0.7,0.6-0.9,0.7v-2.5
	c0.5-0.4,1.1-0.9,1.6-1.3C23.1,18.8,23.1,19.3,23.1,19.7L23.1,19.7z"/>
</svg>
