<?xml version="1.0" encoding="utf-8"?>
<!-- Generator: Adobe Illustrator 23.0.0, SVG Export Plug-In . SVG Version: 6.00 Build 0)  -->
<svg version="1.1" id="Layer_1" xmlns="http://www.w3.org/2000/svg" xmlns:xlink="http://www.w3.org/1999/xlink" x="0px" y="0px"
	 width="32px" height="32px" viewBox="0 0 32 32" style="enable-background:new 0 0 32 32;" xml:space="preserve">
<style type="text/css">
	.st0{fill:#008DE4;}
	.st1{fill:url(#SVGID_1_);}
	.st2{fill:#FFFFFF;}
</style>
<path class="st0" d="M20,32h-8C5.4,32,0,26.6,0,20v-8C0,5.4,5.4,0,12,0h8c6.6,0,12,5.4,12,12v8C32,26.6,26.6,32,20,32z"/>
<linearGradient id="SVGID_1_" gradientUnits="userSpaceOnUse" x1="7.2681" y1="0.8759" x2="24.7319" y2="31.1241">
	<stop  offset="0" style="stop-color:#FFFFFF;stop-opacity:0.5"/>
	<stop  offset="1" style="stop-color:#FFFFFF;stop-opacity:0"/>
</linearGradient>
<path class="st1" d="M20,32h-8C5.4,32,0,26.6,0,20v-8C0,5.4,5.4,0,12,0h8c6.6,0,12,5.4,12,12v8C32,26.6,26.6,32,20,32z"/>
<path class="st2" d="M19.7,6.3H11l-0.7,4l7.9,0c3.9,0,5,1.4,5,3.8c0,1.2-0.5,3.2-0.8,3.9c-0.6,1.8-1.8,3.8-6.4,3.7l-7.7,0l-0.7,4
	h8.7c3.1,0,4.4-0.4,5.8-1c3.1-1.4,4.9-4.4,5.6-8.4C28.8,10.4,27.4,6.3,19.7,6.3z"/>
<path class="st2" d="M7.2,14c-2.3,0-2.6,1.5-2.8,2.4C4.1,17.5,4,18,4,18h8.9c2.3,0,2.6-1.5,2.8-2.4c0.3-1.2,0.4-1.7,0.4-1.7H7.2z"/>
</svg>
