<?xml version="1.0" encoding="utf-8"?>
<!-- Generator: Adobe Illustrator 23.0.0, SVG Export Plug-In . SVG Version: 6.00 Build 0)  -->
<svg version="1.1" id="Layer_1" xmlns="http://www.w3.org/2000/svg" xmlns:xlink="http://www.w3.org/1999/xlink" x="0px" y="0px"
	 width="32px" height="32px" viewBox="0 0 32 32" style="enable-background:new 0 0 32 32;" xml:space="preserve">
<style type="text/css">
	.st0{fill:#1EB1BC;}
	.st1{fill:url(#SVGID_1_);}
	.st2{fill-rule:evenodd;clip-rule:evenodd;fill:#FFFFFF;}
</style>
<path class="st0" d="M20,32h-8C5.4,32,0,26.6,0,20v-8C0,5.4,5.4,0,12,0h8c6.6,0,12,5.4,12,12v8C32,26.6,26.6,32,20,32z"/>
<linearGradient id="SVGID_1_" gradientUnits="userSpaceOnUse" x1="7.2681" y1="0.8759" x2="24.7319" y2="31.1241">
	<stop  offset="0" style="stop-color:#FFFFFF;stop-opacity:0.5"/>
	<stop  offset="1" style="stop-color:#FFFFFF;stop-opacity:0"/>
</linearGradient>
<path class="st1" d="M20,32h-8C5.4,32,0,26.6,0,20v-8C0,5.4,5.4,0,12,0h8c6.6,0,12,5.4,12,12v8C32,26.6,26.6,32,20,32z"/>
<path class="st2" d="M13.6,17l-1.8,1.9c-0.3,0.3-0.6,0.7-1,1c-0.1,0.1-0.1,0.1-0.2,0.1c-0.1,0-0.3-0.1-0.3-0.2
	c0-0.2-0.1-0.4-0.1-0.6c0-0.3-0.1-0.3-0.4-0.4c-0.5-0.1-1.1-0.1-1.6-0.2L7,18.5c-0.2,0-0.3-0.2-0.2-0.4c0.3-0.5,0.6-1,0.9-1.4
	l1.8-2.9c0.1-0.1,0.2-0.2,0.3-0.2c0.1,0,0.2,0,0.3,0c0.1,0,0.2,0,0.3,0.1c0.1,0.1,0.3,0.3,0.4,0.4l1.7,1.6c0.4,0.3,0.7,0.7,1.1,1
	C13.7,16.7,13.7,16.8,13.6,17z M25.8,19.6c0.1,0.1,0.2,0.2,0.2,0.3c0,0.2,0,0.3-0.2,0.4c-0.9,0.6-1.9,1.2-2.8,1.8l-1.8,1.2
	c-0.1,0-0.1,0.1-0.2,0.1c-0.1,0.1-0.1,0.2-0.1,0.3c0,0.2,0,0.5,0,0.7c0,0.3-0.2,0.4-0.4,0.4c-0.1,0-0.2-0.1-0.2-0.1
	c-0.2-0.3-0.4-0.5-0.7-0.8c-0.3-0.3-0.5-0.6-0.8-0.9c-0.1-0.1-0.2-0.3-0.1-0.4l0-1.3c0-0.2,0.1-0.3,0.2-0.3l1.5-1
	c0.8-0.5,1.7-1.1,2.5-1.6c0.2-0.1,0.3-0.1,0.5,0c0.1,0.1,0.3,0.1,0.5,0c0.2-0.1,0.4,0,0.6,0.1C24.9,18.8,25.3,19.2,25.8,19.6
	L25.8,19.6z M17.7,20.7c0.1,0.1,0.1,0.2,0.1,0.2c0,0.2,0,0.3-0.2,0.4c-0.6,0.3-1.3,0.6-1.9,0.9c-0.1,0.1-0.3,0.1-0.4,0.1
	c-0.5,0-1.1,0-1.6,0.1c-0.3,0-0.6,0-0.9,0h-0.2c-0.1,0-0.2,0-0.3-0.1c-0.1-0.1-0.1-0.1-0.2-0.2c-0.4-0.4-0.8-0.7-1.1-1.1
	c-0.2-0.2-0.2-0.5,0-0.7c0.5-0.5,0.9-1,1.4-1.4c0.5-0.5,1-1,1.5-1.6c0.2-0.2,0.4-0.2,0.6,0c0,0,0,0,0,0l2,2
	C16.8,19.8,17.3,20.2,17.7,20.7z M20.5,11.8c-0.2-0.3,0-0.8,0.4-0.8c0.9-0.2,1.9-0.3,2.8-0.5c0.2,0,0.4,0.1,0.5,0.2
	c0.2,0.3,0.4,0.6,0.6,0.9c0.4,0.6,0.8,1.3,1.2,1.9c0.1,0.1,0.1,0.2,0.1,0.3l0,0c0,0.2-0.1,0.3-0.2,0.4c-0.6,0.8-1.2,1.5-1.7,2.3
	c-0.2,0.2-0.5,0.3-0.8,0.1c-0.1,0-0.1-0.1-0.1-0.1c-0.8-1.4-1.7-2.8-2.5-4.2C20.7,12.1,20.6,12,20.5,11.8z M18.8,15.7l-0.2,1.5
	c0,0.4-0.1,0.8-0.1,1.2l-0.2,1.4c0,0.1,0,0.2,0,0.3c0,0,0,0.1-0.1,0.1s-0.1,0-0.1,0c-0.2-0.1-0.3-0.3-0.5-0.4
	c-0.5-0.5-1.1-1-1.6-1.5c-0.5-0.4-0.9-0.9-1.4-1.3c-0.2-0.1-0.2-0.2,0-0.3l2.2-2.3l1.5-1.5l0.7-0.8c0,0,0-0.1,0.1-0.1
	c0.1,0,0.1,0,0.2,0c0,0,0.1,0.1,0.1,0.1l-0.1,1L19,14.2C19,14.2,18.8,15.7,18.8,15.7z M23,16.8c0.1,0.1,0.1,0.2,0,0.3
	c-0.1,0.1-0.1,0.3-0.1,0.4c0,0.1,0,0.2-0.2,0.3c-0.9,0.6-1.8,1.2-2.8,1.8c-0.3,0.2-0.6,0.4-0.9,0.6c-0.1,0.1-0.2,0.1-0.3,0
	c0-0.1,0-0.1,0-0.2l0.1-0.9l0.3-2l0.3-2.1l0.3-2.1l0.1-0.8c0,0,0,0,0-0.1c0,0,0.1-0.1,0.1-0.1c0,0,0.1,0,0.1,0.1
	c0.1,0.1,0.1,0.2,0.2,0.3l2.2,3.5C22.6,16.2,22.8,16.5,23,16.8L23,16.8z M18.5,11.4c0,0,0.1,0,0.1,0.1c0.1,0.1,0,0.1,0,0.2l-0.7,0.8
	l-2.2,2.3c-0.5,0.5-0.9,1-1.4,1.4c-0.2,0.2-0.3,0.2-0.5,0c-0.5-0.5-1.1-1-1.6-1.5c-0.5-0.5-1-1-1.6-1.5c-0.1-0.1-0.1-0.1-0.1-0.2
	c0-0.1,0.1-0.2,0.2-0.2c0.3-0.1,0.6-0.1,0.9-0.2l2.8-0.5l3.3-0.6C17.7,11.6,18.5,11.4,18.5,11.4z M11.1,12.1c0.5-0.4,1-0.7,1.5-1
	l5-3.4c0.2-0.1,0.3-0.1,0.4,0.1c0.3,0.7,0.7,1.5,1,2.2c0,0.1,0.1,0.2,0.1,0.3c0,0.1,0,0.1,0,0.2c-0.1,0.1-0.1,0.2-0.2,0.3
	c0,0.1-0.1,0.1-0.2,0.2c-0.7,0.1-1.5,0.3-2.2,0.4L14,11.8l-2.8,0.5c0,0-0.1,0-0.1,0l0,0C11,12.2,11.1,12.1,11.1,12.1z M6,13.8
	c-0.3,0-0.5-0.3-0.4-0.6c0.1-0.2,0.3-0.5,0.4-0.7c0.4-0.7,0.8-1.4,1.2-2.1c0.1-0.1,0.2-0.2,0.3-0.3c1.1-0.6,2.1-1.2,3.2-1.9
	c0.1,0,0.1-0.1,0.2-0.1c0.1,0,0.3,0,0.4,0.2c0.1,0.1,0.1,0.3,0,0.4c-0.2,0.3-0.3,0.7-0.5,1c-0.3,0.6-0.6,1.3-0.9,1.9
	c-0.1,0.1-0.2,0.2-0.3,0.3c-0.3,0.1-0.5,0.3-0.6,0.6c0,0.1-0.1,0.2-0.3,0.3c-0.9,0.3-1.8,0.6-2.6,0.9C6.1,13.8,6,13.8,6,13.8L6,13.8
	z M10.5,11.8c0,0,0-0.1,0-0.1l1.2-2.5c0.2-0.5,0.5-1.1,0.7-1.6c0.1-0.1,0.1-0.2,0.3-0.2c0.4,0,0.7,0,1.1,0l2.1-0.1
	c0.2,0,0.5,0,0.7,0c0.2,0,0.3,0.1,0.3,0.3c0,0.1-0.1,0.2-0.1,0.2l-0.7,0.5l-4.1,2.8l-1.3,0.9c0,0-0.1,0-0.1,0.1
	C10.6,11.9,10.5,11.9,10.5,11.8z M9,13.6c-0.2,0.3-0.4,0.6-0.5,0.9c-0.7,1.1-1.3,2.2-2,3.2c0,0.1-0.1,0.1-0.1,0.1
	c-0.1,0.1-0.3,0-0.3-0.1c-0.1-0.2-0.2-0.5-0.3-0.7L5,14.9c0-0.1,0-0.1,0-0.1c0-0.1,0-0.2,0.2-0.2c0.4-0.1,0.8-0.3,1.2-0.4l2.2-0.7
	l0.3-0.1c0.1,0,0.1-0.1,0.2,0C9.1,13.5,9.1,13.5,9,13.6z M26.8,16.5l0.2,1.3c0,0,0,0.1,0,0.1c0,0.1,0,0.1,0,0.2l-0.3,1.1
	c-0.1,0.3-0.3,0.4-0.6,0.2c-0.5-0.4-1-0.8-1.5-1.3c-0.1-0.1-0.2-0.2-0.1-0.4c0-0.1,0-0.3-0.1-0.4c-0.1-0.1,0-0.3,0-0.4
	c0.4-0.5,0.8-1.1,1.2-1.6l0.2-0.3c0.1-0.1,0.2-0.2,0.3-0.1c0.1,0,0.2,0.1,0.2,0.3L26.8,16.5L26.8,16.5z M18.4,7.7L18.4,7.7
	c-0.1-0.1-0.1-0.2,0-0.2c0.1,0,0.1,0,0.2,0c0.1,0,0.2,0.1,0.3,0.1l3.7,1.8l0.7,0.3c0.1,0,0.1,0.1,0.1,0.2c0,0.1-0.1,0.1-0.2,0.1
	c-0.9,0.2-1.8,0.3-2.7,0.5l-0.1,0c0,0-0.1,0-0.1-0.1c-0.2-0.2-0.4-0.3-0.7-0.3c-0.1,0-0.1-0.1-0.2-0.1c-0.2-0.3-0.3-0.7-0.5-1
	C19,9,18.4,7.7,18.4,7.7z"/>
</svg>
