<?xml version="1.0" encoding="utf-8"?>
<!-- Generator: Adobe Illustrator 23.0.0, SVG Export Plug-In . SVG Version: 6.00 Build 0)  -->
<svg version="1.1" id="Layer_1" xmlns="http://www.w3.org/2000/svg" xmlns:xlink="http://www.w3.org/1999/xlink" x="0px" y="0px"
	 width="32px" height="32px" viewBox="0 0 32 32" style="enable-background:new 0 0 32 32;" xml:space="preserve">
<style type="text/css">
	.st0{fill:#0A0A0A;}
	.st1{fill:url(#SVGID_1_);}
	.st2{fill:#9E9E9E;}
	.st3{fill:#FFFFFF;}
</style>
<path class="st0" d="M20,32h-8C5.4,32,0,26.6,0,20v-8C0,5.4,5.4,0,12,0h8c6.6,0,12,5.4,12,12v8C32,26.6,26.6,32,20,32z"/>
<linearGradient id="SVGID_1_" gradientUnits="userSpaceOnUse" x1="7.2726" y1="1046.8837" x2="24.7274" y2="1077.1163" gradientTransform="matrix(1 0 0 1 0 -1046)">
	<stop  offset="0" style="stop-color:#FFFFFF;stop-opacity:0.45"/>
	<stop  offset="1" style="stop-color:#FFFFFF;stop-opacity:0"/>
</linearGradient>
<path class="st1" d="M20,32h-8C5.4,32,0,26.6,0,20v-8C0,5.4,5.4,0,12,0h8c6.6,0,12,5.4,12,12v8C32,26.6,26.6,32,20,32z"/>
<g id="layer102">
	<path class="st2" d="M14.6,27.4c-1.8-0.3-2.8-0.6-3.9-1.2c-3.1-1.6-5.5-4.9-6-8.4c-0.3-1.6-0.1-3.7,0.5-5.5c0.7-2.1,2-3.9,3.8-5.4
		c2.2-1.7,4.3-2.5,7-2.5c3.5,0,6.5,1.3,8.7,3.9c1.5,1.7,2.4,3.5,2.8,5.7c0.3,1.7,0.1,4.1-0.6,5.9c-1,2.9-3.4,5.4-6.4,6.7
		c-1.4,0.6-2.3,0.8-4,0.8C15.5,27.5,14.7,27.5,14.6,27.4z"/>
</g>
<g id="layer110">
	<path class="st3" d="M14.8,27.4c-1.6-0.2-3.4-0.8-4.7-1.5c-2.5-1.5-4.5-4.1-5.3-7.1c-0.2-0.9-0.2-1.1-0.2-2.6
		c0-1.7,0.1-2.5,0.6-3.9c0.9-2.8,3-5.2,5.8-6.6c1.7-0.8,2.8-1.1,4.9-1.1c1.7,0,2.6,0.1,4,0.6c3.7,1.3,6.6,4.6,7.4,8.5
		c0.2,1,0.2,3.2,0,4.3c-0.8,4.2-3.8,7.6-7.9,8.9C18.1,27.4,16.2,27.6,14.8,27.4z M16.5,25.9c0.2,0.1,0.2,0.1,0.2,0
		c0-0.1,0-0.2,0.1-0.2c0.1,0,0.1,0,0,0.1c0,0.1,0,0.1,0,0.1c0.2,0,0.2-0.4,0.1-0.6c-0.1-0.2-0.2-0.2-0.6-0.2c-0.3,0-0.7,0-1-0.1
		c-0.5-0.1-0.5,0-0.5,0.3c0,0.1,0,0.1-0.1,0.1c-0.2,0-0.2,0,0-0.3c0.1-0.2,0.1-0.2-0.2-0.2c-0.2,0-0.3,0-0.3,0.1
		c0,0.1,0,0.2-0.1,0.2c-0.1,0-0.1-0.1-0.1-0.2c0-0.2-0.1-0.3-0.7-0.5c-0.2-0.1-0.6-0.2-0.8-0.3c-0.2-0.1-0.4-0.1-0.5-0.1
		c-0.1,0-0.1,0,0-0.1c0.1-0.1,0.1-0.2,0-0.3c-0.2-0.2-0.5-0.1-0.7,0.2c-0.2,0.3-0.3,0.6-0.1,0.3c0.1-0.2,0.1-0.2,0.1,0.1
		c0,0.3,0.1,0.3,0.3,0.1c0.1-0.2,0.1-0.3-0.1-0.3c-0.1,0-0.2,0-0.2-0.1c0-0.2,0.1-0.2,0.3-0.1c0.1,0.1,0.2,0.2,0.1,0.5
		c0,0.2,0,0.3,0,0.3c0,0,0.1,0,0.1-0.1c0-0.1,0-0.1,0.1,0c0.1,0.1,0.4,0,0.4-0.1c0-0.1,0-0.1-0.1,0c-0.1,0.1-0.1,0.1-0.2,0
		c-0.2-0.1-0.2-0.1,0-0.1c0.3-0.1,0.4,0,0.4,0.3c0,0.1,0,0.3,0.1,0.3c0.1,0.1,0.2,0,0.1-0.3c0-0.1,0.1-0.1,0.2,0
		c0.1,0.1,0.1,0.1,0,0.1c-0.1,0-0.1,0.1-0.1,0.2c0,0.1,0,0.1-0.1,0c-0.1-0.1-0.1-0.1-0.1,0c0,0.1,0.1,0.1,0.2,0.1
		c0.1,0,0.2,0.1,0.2,0.2c0.1,0.2,0.3,0.2,0.2,0c0-0.1,0-0.1,0.1,0c0.2,0.1,0.3,0.1,0.3,0c0-0.1-0.1-0.1-0.1-0.1
		c-0.1,0-0.1,0-0.1-0.1c0,0,0.1-0.1,0.1-0.1c0.2,0,0.4,0.2,0.3,0.3c0,0.4,0,0.4,0.2,0.3c0.2-0.1,0.2-0.2,0.2-0.3
		c0-0.1,0-0.2,0.1-0.2c0.1,0,0.1,0.1,0.1,0.2c-0.1,0.2,0.1,0.6,0.2,0.4c0-0.1,0.1-0.1,0.2-0.1c0.1,0,0.1-0.1,0.1-0.2
		c0-0.1,0-0.2,0-0.2s0.1,0.1,0.1,0.3c0,0.4,0.2,0.5,0.3,0.2l0.1-0.2l0.1,0.2c0.1,0.3,0.2,0.3,0.3,0c0.1-0.2,0.1-0.2,0.1,0
		c0,0.1,0,0.2,0,0.2c-0.1,0,0,0.1,0.1,0.1c0.1,0.1,0.2,0.1,0.2,0C16.3,25.8,16.3,25.8,16.5,25.9z M17.6,25.8c-0.1-0.1,0.1-0.1,0.2,0
		c0.1,0.1,0.1,0.1,0.1,0c0-0.1,0-0.2-0.1-0.2c0,0-0.1,0,0-0.1c0,0,0.1-0.1,0.2,0c0.3,0.1,0.7-0.1,0.6-0.3c0-0.1-0.1-0.2-0.2-0.1
		c-0.2,0-0.2,0-0.1-0.1c0.2-0.2,0.4-0.1,0.4,0.2c0,0.1,0,0.2,0,0.2c0.1,0,0.3-0.1,0.3-0.3c0.1-0.1,0.1-0.1,0.2-0.1
		c0.1,0.1,0.1,0.1,0.1,0c0,0,0.1,0,0.2,0.1c0.1,0.1,0.2,0.1,0.2,0.1s0-0.1,0.1,0c0.1,0,0.1,0,0.1,0s0.1-0.1,0.1,0
		c0.1,0,0.1,0,0.1-0.1c0-0.1,0-0.1,0.1-0.1c0.1,0,0.1-0.1,0-0.2c-0.1-0.1,0-0.2,0.3-0.1c0.1,0,0.1,0,0.1-0.1s0-0.1,0.1,0
		c0.1,0.1,0.5-0.2,0.5-0.4c0-0.1,0-0.1-0.1-0.2c-0.1,0,0-0.1,0,0c0.1,0,0.1,0.1,0.1,0.1c0,0.1,0.1,0.1,0.2,0c0-0.1,0.1-0.1,0.2,0
		c0.1,0.1,0.3-0.1,0.3-0.3c0-0.1,0-0.2,0.1-0.1c0,0,0.2-0.1,0.4-0.3c0.2-0.2,0.3-0.3,0.2-0.3c-0.1,0-0.2,0-0.2-0.1
		c0-0.1,0.1-0.1,0.2-0.1c0.2,0,0.4-0.3,0.3-0.4c0,0,0-0.1,0.2-0.2c0.2-0.1,0.2-0.1,0.1,0c-0.1,0.1-0.1,0.1,0,0.1
		c0.1,0,0.1-0.1,0.1-0.3c0-0.3,0-0.3,0.3-0.2c0.1,0.1,0.2,0.1,0.1,0c0-0.1,0-0.2,0-0.3c0.1-0.1,0.1-0.2,0-0.3
		c-0.1-0.1-0.1-0.2-0.1-0.4c0-0.2,0-0.2,0.1-0.1c0.1,0.1,0.2,0.2,0.3,0.3c0.2,0.1,0.2,0.1,0.4,0c0.1-0.1,0.1-0.2,0.1-0.2
		c0,0-0.1,0.1-0.2,0.2c-0.1,0.1-0.1,0.1-0.1,0c0-0.1-0.1-0.2-0.2-0.2c-0.3-0.1-0.3-0.2-0.2-0.4c0.1-0.1,0.1-0.1,0.3,0.1
		c0.2,0.2,0.6,0.3,0.6,0.2c0,0-0.2-0.2-0.4-0.3l-0.4-0.2L24,20.5c-0.1,0.2-0.2,0.4-0.2,0.5c0,0-0.1,0.1-0.2,0.2
		c-0.1,0.1-0.2,0.2-0.3,0.3c0,0.1-0.1,0.2-0.2,0.2c-0.1,0-0.1,0-0.1,0.1s-0.2,0.3-0.6,0.6c-0.3,0.3-0.5,0.6-0.5,0.6
		c0,0,0.1,0,0.2-0.1c0.1-0.1,0.2-0.1,0.2-0.1c0,0.1-0.3,0.3-0.5,0.2c-0.1,0-0.1,0-0.1,0s-0.1,0.1-0.1,0.1c-0.2,0-0.7,0.5-0.6,0.6
		c0.1,0,0.1,0,0.1,0c0-0.1,0-0.1,0.1-0.1s0.1,0,0,0.1c0,0.1-0.1,0.1-0.1,0.2c0,0,0,0.1,0,0.1c0,0-0.1,0-0.2-0.1l-0.2-0.2l-0.5,0.3
		c-0.3,0.1-0.7,0.4-0.9,0.4c-0.2,0.1-0.5,0.2-0.6,0.3c-0.1,0-0.2,0.1-0.3,0c-0.1,0-0.2,0-0.2,0c0,0-0.2,0.1-0.5,0.1
		c-0.2,0-0.4,0.1-0.5,0.1c0,0.1,0.1,0.1,0.2,0c0.3-0.1,0.3,0,0.2,0.1c-0.1,0.1-0.2,0.1-0.3,0.1c-0.1,0-0.1,0-0.1,0.1
		c0,0.1,0.1,0.2,0.1,0.3C17.4,25.8,17.5,25.9,17.6,25.8C17.6,25.9,17.6,25.9,17.6,25.8z M20.8,25.4c-0.1,0-0.3,0-0.4,0
		c-0.1,0,0,0,0.2,0C20.8,25.5,20.9,25.4,20.8,25.4z M19.2,25.1C19.1,25.1,19.1,25.1,19.2,25.1c-0.1,0.1,0,0.2,0,0.1
		C19.2,25.2,19.2,25.2,19.2,25.1z M22.1,24.6c0,0-0.1-0.1-0.2-0.1c-0.1,0-0.1,0,0,0.1C22,24.7,22.1,24.7,22.1,24.6z M18.5,24.1
		c1.6-0.5,2.8-1.4,4.1-2.8c0.1-0.2,0.2-0.3,0.2-0.3c0,0,0-0.1,0.1-0.2c0.2-0.3,0.7-1.2,0.9-1.8c0.3-0.7,0.6-2.5,0.5-2.6
		c-0.1-0.1-0.1,0.2-0.1,0.6c0,0.1-0.1,0.1-0.1,0c-0.1,0-0.1,0,0,0.1c0.1,0.2,0.1,0.7-0.1,0.7c0,0-0.1,0.1,0,0.2
		c0.1,0.2-0.1,0.6-0.3,0.6c-0.1,0,0-0.1,0.1-0.2c0.1-0.1,0.1-0.2,0.1-0.4c-0.1-0.1-0.1-0.1-0.1,0c0,0.1,0,0.1-0.1,0.1
		c-0.1,0-0.1,0-0.1,0.1c0,0.1,0,0.1-0.1,0.1c-0.1,0-0.1-0.1-0.1-0.3c0-0.6-0.1-0.9-0.3-0.8c-0.1,0-0.2-0.1-0.4-0.4
		c-0.1-0.2-0.2-0.5-0.1-0.5c0,0,0.4,0,0.7,0c0.5,0,0.7,0.1,0.7,0.2c0,0.1,0,0.1,0.1,0.1c0.1,0,0.1-0.1,0.1-0.2
		c0-0.2-0.1-0.2-0.2-0.2c-0.1,0-0.5,0-0.9,0c-0.4,0-0.8,0-0.8,0c0,0,0.1,0.3,0.2,0.7c0.2,0.6,0.2,0.6,0.4,0.6c0.2,0,0.2,0,0.2,0.3
		V18H22c-1,0-1.1,0-1.1-0.2c0-0.1-0.1-0.2-0.1-0.3c-0.1-0.1-0.1-0.1,0.3-0.1c0.4,0.1,0.4,0,0.3-0.4c-0.1-0.3-0.3-0.4-1.1-0.4
		c-0.4,0-0.5,0-0.6,0.2c-0.1,0.3,0,0.5,0.2,0.5c0.2,0,0.2,0,0.2,0.3c0,0.3,0,0.3-0.5,0.3c-0.3,0-0.4,0-0.2-0.1
		c0.4-0.1,0.5-0.2,0.2-0.2c-0.2,0-0.3,0-0.2-0.2c0-0.3,0-0.3-0.2-0.1c-0.1,0.1-0.1,0.1,0,0.1c0.1-0.1,0.1,0.1,0,0.2
		c-0.2,0.2-0.2,0.1-0.2-0.2c0-0.2,0-0.2,0-0.1c0,0.1-0.1,0.2-0.1,0.3c-0.1,0.1-0.1,0.2,0.1,0.3c0.1,0,0,0-0.2,0.1
		c-0.4,0-0.4,0-0.4-0.3c0-0.2,0-0.3,0.1-0.3c0.1,0,0.2,0,0.3,0.1c0.1,0.1,0.1,0.1,0.1-0.1c0-0.1,0-0.2,0.1-0.3c0,0,0.1-0.1,0.1-0.2
		c0-0.2,0.3-1.7,0.4-2c0-0.1,0-0.3,0-0.5c-0.1-0.2-0.1-0.3-0.1-0.5c0-0.1-0.1-0.1-0.1-0.1c-0.1,0-0.1,0.5,0,0.8
		c0.1,0.2,0.1,0.3-0.1,0.8c-0.1,0.3-0.2,0.6-0.3,0.6s-0.1,0.1-0.1,0.2c0,0.2-0.2,0.2-0.2,0c0-0.1-0.4-0.1-1.2-0.1
		c-1.1,0-1.2,0-1.3,0.2c-0.1,0.1-0.1,0.2,0,0.1c0.1,0,0.1,0.1,0.1,0.3c0,0.3,0,0.3-0.2,0.3c-0.1,0-0.3-0.1-0.4-0.1
		c-0.1-0.1-0.1-0.1,0,0.1c0.1,0.2,0.5,0.4,0.7,0.4c0.2,0,0.7-0.2,0.8-0.4c0.1-0.1,0.1-0.1,0.4,0.1c0.4,0.4,0.4,0.6,0.2,0.5
		c-0.1,0-0.3,0.1-0.4,0.2c-0.4,0.3-0.9,0.4-1.5,0.4c-0.7-0.1-1.2-0.4-1.5-1C14,16.8,13.9,16.6,14,16c0.1-0.6,0.2-0.9,0.4-0.7
		c0,0.1,0.1,0.1,0.2,0c0.1,0,0.1,0,0.1,0.1c0,0.1,0,0.1,0.1,0.1c0.1-0.2,0.2-0.1,0.2,0c0,0.1,0.1,0,0.1-0.2c0.1-0.2,0.1-0.3,0.1-0.3
		c0,0-0.1,0-0.2-0.1c-0.1-0.1-0.1-0.1,0,0c0.1,0.2,0.1,0.2-0.1,0.1c-0.1,0-0.1-0.1-0.1-0.3c0-0.2-0.1-0.4-0.2-0.2c0,0.1,0,0.1,0.1,0
		c0.1-0.1,0.1,0,0,0c0,0.1-0.1,0.1-0.2,0c-0.1-0.1,0.1-0.6,0.5-0.8c0.4-0.2,1.1-0.2,1.4,0c0.2,0.2,0.2,0.2,0.3,0
		c0.1-0.1,0.2-0.2,0.5-0.2c0.2,0,0.1,0-0.2,0c-0.3,0-0.6,0-0.6-0.1s0-0.1,0.1,0c0.1,0,0.1,0,0.1,0c0-0.1-0.2-0.1-0.3-0.1
		c-0.2,0-0.2,0-0.2-0.2v-0.3l-1,0c-0.9-0.1-1.3-0.1-1-0.2c0.1,0,0.5-0.1,0.9-0.1c0.4,0,0.8-0.1,0.9-0.1c0.1-0.1,0.1-0.6,0.1-1.3
		l0-1.2L15.7,10c-0.1,0-0.4-0.1-0.7-0.1c-0.7,0-0.5-0.3,0.2-0.3c0.3,0,0.4,0,0.3-0.2c0-0.1-0.1-0.2-0.2-0.2c-0.1,0-0.1-0.1-0.1-0.1
		c0,0,0.1-0.1,0.2,0c0.1,0,0.1,0,0.1-0.1s-0.1-0.1-0.1-0.1c-0.2,0-0.2-0.1,0-0.3l0.2-0.2v0.4c0,0.2,0,0.5,0.1,0.6
		c0,0.1,0.1,0.1,0.1,0c0,0,0-0.4,0-0.7c0-0.6,0-0.6-0.2-0.7C15.5,8,15.4,8,15.5,8c0,0,0,0.2-0.2,0.3c-0.3,0.3-0.7,1.1-0.6,1.2
		c0,0,0,0.1,0,0.1s-0.1,0.1-0.1,0.2c0,0.2-0.1,0.2-0.8,0.2c-0.5,0-0.7,0-0.7-0.1c0-0.1,0.3-0.1,0.7-0.1l0.6,0l0.2-0.4
		c0.1-0.2,0.3-0.5,0.4-0.7c0.2-0.2,0.2-0.3,0.2-0.4C15,8.1,15,8,15,8.1c0,0.1-0.1,0.1-0.4,0.1C13.8,8.1,11.7,9,11,9.7
		c-0.3,0.2-0.5,0.2-0.3,0c0.1-0.1,0.1-0.1,0-0.1c0,0-0.1,0.1-0.2,0.2c-0.1,0.1-0.1,0.2,0,0.2c0.1,0-0.2,0.3-0.5,0.6
		c-0.8,0.9-1.7,2.2-1.7,2.6c0,0.1,0,0.2-0.1,0.2c-0.1,0-0.1,0,0.1-0.6c0.3-0.7,1-1.8,1.5-2.3c0.3-0.3,0.4-0.5,0.3-0.6
		s-0.1-0.1-0.1,0c0,0.1-0.1,0.3-0.3,0.4c-0.4,0.4-0.9,1.1-1.2,1.6c-0.3,0.5-0.8,1.9-0.9,2.4c0,0.2-0.1,0.5-0.1,0.7
		c-0.1,0.7,0,2.3,0.2,3.2c0.6,2.2,2.1,4.2,4.1,5.3c0.6,0.3,1.7,0.7,2,0.7c0.1,0,0.2,0,0.3,0.1c0.1,0.1,0.8,0.2,2.2,0.1
		C17.4,24.4,17.7,24.3,18.5,24.1z M10.7,24C10.8,23.9,10.8,23.9,10.7,24c-0.1,0-0.2,0.1-0.2,0.1C10.5,24.2,10.6,24.2,10.7,24z
		 M10.5,23.8C10.5,23.8,10.5,23.7,10.5,23.8c0.1,0,0.2-0.1,0.2-0.1c0.1-0.1,0.1-0.1,0.2,0c0.2,0.1-0.2-0.2-0.6-0.5
		c-0.2-0.1-0.4-0.4-0.5-0.5c-0.3-0.3-0.5-0.4-0.7-0.1c-0.2,0.2-0.1,0.3,0.1,0.4c0.1,0,0.1,0,0.1-0.2c-0.1-0.2,0-0.2,0.1-0.2
		c0.1,0,0.2,0.1,0.3,0.1c0,0.1,0,0.1-0.1,0.1c-0.1-0.1-0.2,0.5,0,0.7c0,0,0.1,0,0-0.1c-0.1-0.1-0.1-0.1,0.1,0c0.1,0.1,0.2,0.1,0.2,0
		c0-0.1,0-0.1,0.1-0.1c0.1,0,0.1,0.1,0.1,0.2c0,0.1,0,0.2,0.1,0.1c0.2-0.1,0.2,0,0,0.2c-0.1,0.1-0.1,0.2,0,0.2c0,0,0.1-0.1,0.2-0.3
		c0.1-0.2,0.1-0.3,0.2-0.2c0.1,0,0.1,0.1,0.1,0.1c0,0.1,0,0.1-0.1,0.1s-0.1,0.1-0.1,0.2c0,0.1,0,0.2,0.1,0.2S10.5,23.9,10.5,23.8z
		 M23.9,23C24,22.9,24,22.9,23.9,23C23.9,22.9,23.9,22.9,23.9,23c-0.1,0.1-0.1,0.1-0.1,0.1C23.9,23.1,23.9,23,23.9,23z M24.1,22.5
		c0-0.1,0,0,0,0.1s0,0.2,0,0.1C24.1,22.7,24.1,22.6,24.1,22.5z M9,22.3c0-0.1,0-0.2,0-0.2C8.9,22,8.9,22,8.9,22
		C9,22,9.1,22,9.1,22.1c0.1,0.1,0.1,0.1,0.1,0.1c0-0.1-0.2-0.3-0.4-0.3c-0.1,0-0.2,0.1-0.3,0.2s-0.1,0.2-0.1,0.2s0.1,0,0.2-0.1
		c0.1-0.1,0.2,0,0.2,0.1C8.8,22.4,8.9,22.5,9,22.3z M24.5,22.1C24.5,22.1,24.5,22.1,24.5,22.1c-0.1,0.1,0,0.2,0,0.1
		C24.5,22.2,24.5,22.1,24.5,22.1z M8.2,21.9C8.2,21.9,8.1,21.9,8.2,21.9c-0.1,0.1,0,0.2,0,0.1C8.2,22,8.2,21.9,8.2,21.9z M8.5,21.8
		C8.5,21.7,8.5,21.7,8.5,21.8c-0.1,0-0.1,0-0.1-0.1c0-0.1,0-0.1-0.1-0.1c-0.1,0,0,0.2,0.1,0.2C8.4,21.9,8.4,21.8,8.5,21.8z
		 M8.7,21.5c0,0-0.2-0.1-0.3-0.1c-0.2,0-0.2,0-0.1,0.1c0.1,0.1,0.2,0.1,0.3,0.1C8.7,21.6,8.7,21.5,8.7,21.5z M8,21.3
		C8,21.2,7.9,21.3,8,21.3c-0.1,0.1,0,0.2,0,0.1C8,21.3,8,21.3,8,21.3z M25.3,21c0,0-0.1,0-0.1,0C25.1,21,25.1,21,25.3,21
		C25.3,21,25.3,21,25.3,21z M25.3,20.6C25.3,20.5,25.3,20.5,25.3,20.6c-0.1,0.2,0,0.2,0,0.2C25.4,20.7,25.4,20.6,25.3,20.6z
		 M18.6,17.8c0,0-0.1,0-0.1,0C18.5,17.8,18.5,17.8,18.6,17.8C18.6,17.8,18.6,17.8,18.6,17.8z M23.5,17.5
		C23.5,17.4,23.4,17.5,23.5,17.5c-0.1,0.1,0,0.2,0,0.1C23.5,17.6,23.5,17.5,23.5,17.5z M23.9,17.3C23.8,17.3,23.8,17.3,23.9,17.3
		c-0.1,0.1,0,0.2,0,0.1C23.9,17.4,23.9,17.3,23.9,17.3z M24,16.8C24.1,16.8,24,16.7,24,16.8c-0.1-0.1-0.1,0-0.1,0c0,0.1,0,0.1,0,0.1
		C24,16.9,24,16.9,24,16.8z M25.7,16.7c0.3-0.1,0.5-0.5,0.5-0.8c0-0.2,0-0.1-0.1,0.1c0,0.3-0.3,0.7-0.6,0.6c-0.1,0-0.2-0.1-0.3-0.1
		c-0.1,0-0.5-0.5-0.5-0.8c0-0.1,0.1-0.2,0.3-0.4l0.3-0.2l-0.3,0.2c-0.5,0.3-0.6,1-0.2,1.3C25.2,16.8,25.3,16.8,25.7,16.7z M6.9,16.6
		c0.2-0.1,0.4-0.5,0.3-0.6c0,0,0,0,0,0.1c0,0.2-0.3,0.5-0.5,0.4c-0.1,0-0.1,0,0,0c0.1,0.1-0.5-0.1-0.6-0.3c-0.1-0.1-0.2-0.6,0-0.7
		c0,0,0.1-0.1,0.1-0.2s-0.1,0-0.2,0.1c-0.1,0.1-0.2,0.2-0.1,0.2c0,0,0,0.1,0,0.2c0,0.1,0,0.2,0.1,0.2c0.1,0.1,0.2,0.3,0,0.3
		c0,0-0.1,0-0.1,0c0,0.1,0.6,0.3,0.8,0.3C6.6,16.7,6.7,16.7,6.9,16.6z M15.5,16.1c-0.1,0-0.2-0.1-0.2-0.2c0-0.1,0.1-0.1,0.3-0.1
		c0.3,0,0.3,0,0.3-0.3c0-0.2,0-0.4,0.1-0.4c0.1-0.1,0.4,0.2,0.5,0.3c0,0.1,0.2,0.2,0.5,0.2c0.6,0.1,0.8,0,0.8-0.4l0-0.3l0,0.3
		c0,0.3-0.1,0.3-0.2,0.2c-0.3-0.1-0.5-0.1-0.6-0.1c-0.1,0-0.2-0.1-0.2-0.1c0-0.3-0.4-0.6-0.8-0.6s-0.7,0.2-0.6,0.4
		c0,0.1,0,0.1,0,0.1c0,0-0.1,0.2-0.1,0.5c0,0.7,0,0.7,0.3,0.6C15.7,16.2,15.7,16.2,15.5,16.1z M21,16.1c0-0.2-0.3-1-0.4-1.1
		c-0.2-0.1-0.2-0.1-0.3,0.3c-0.1,0.5-0.1,0.7,0,0.4c0.1-0.1,0.1-0.1,0.2-0.1c0.2,0.2,0.2,0.4-0.1,0.3c-0.2,0-0.3,0-0.3,0.1
		c0,0.1,0.1,0.1,0.5,0.1C20.8,16.2,21,16.2,21,16.1z M24.3,16.2c0,0-0.1,0-0.1,0C24.2,16.2,24.2,16.2,24.3,16.2
		C24.3,16.2,24.4,16.2,24.3,16.2z M24.3,15.9c0-0.1-0.1-0.1-0.1-0.1c0,0,0,0.1,0,0.1c0,0.1,0,0.1,0.1,0.1
		C24.3,16.1,24.3,16,24.3,15.9z M22,15.2c-0.1-0.3-0.2-0.6-0.2-0.6C21.8,14.6,21.9,14.9,22,15.2c0,0.4,0.1,0.7,0.2,0.7
		C22.2,15.8,22.2,15.5,22,15.2z M7.2,15.6C7.1,15.6,7.1,15.6,7.2,15.6c-0.1,0.1,0,0.2,0,0.1C7.2,15.7,7.2,15.7,7.2,15.6z M24.4,15.6
		c0,0,0-0.1-0.1-0.1c0,0-0.1,0-0.1,0C24.2,15.6,24.2,15.6,24.4,15.6C24.3,15.6,24.4,15.6,24.4,15.6z M25.9,15.3c0,0-0.1-0.1-0.2-0.1
		c-0.1,0-0.1,0,0,0.1C25.9,15.4,26,15.4,25.9,15.3z M6.5,15.2c-0.1,0-0.2,0-0.3,0C6.1,15.3,6.2,15.3,6.5,15.2
		C6.7,15.2,6.7,15.2,6.5,15.2z M24.2,15c0-0.1,0,0,0,0.1c0,0.2,0,0.2,0,0.2C24.3,15.2,24.3,15.1,24.2,15z M5.6,15.2
		c0,0,0-0.1-0.1-0.1c-0.1,0-0.1,0,0,0C5.6,15.2,5.6,15.3,5.6,15.2z M24,14.8C23.9,14.8,23.9,14.8,24,14.8c-0.1,0.2,0,0.2,0,0.2
		C24,15,24,14.9,24,14.8z M23.9,14.4C23.8,14.3,23.8,14.3,23.9,14.4c-0.1,0.2,0,0.2,0,0.2C23.9,14.5,23.9,14.4,23.9,14.4z
		 M21.8,14.3C21.7,14.3,21.7,14.3,21.8,14.3c-0.1,0.1,0,0.2,0,0.1C21.8,14.4,21.8,14.4,21.8,14.3z M21.7,14.1
		C21.6,14,21.6,14.1,21.7,14.1c-0.1,0.1,0,0.2,0,0.1C21.7,14.2,21.7,14.1,21.7,14.1z M23.8,14.1C23.7,14,23.7,14.1,23.8,14.1
		c-0.1,0.1,0,0.2,0,0.1C23.8,14.2,23.8,14.1,23.8,14.1z M21.6,13.8c0-0.1-0.5-0.1-1.1-0.1l-1,0l1.1,0.1
		C21.1,13.9,21.6,13.9,21.6,13.8C21.6,13.9,21.6,13.9,21.6,13.8z M16.3,13.4c0-0.1,0.1-0.1,0.3-0.1c0.5-0.1,0.6-0.1,0.2-0.2
		c-0.4-0.1-0.6,0-0.7,0.2C16.1,13.4,16.1,13.5,16.3,13.4C16.3,13.5,16.3,13.4,16.3,13.4z M23.5,13.1c0,0-0.1,0-0.1,0
		C23.3,13.2,23.4,13.2,23.5,13.1C23.5,13.2,23.5,13.2,23.5,13.1z M16.2,12.1c0-0.1,0,0,0,0.1c0,0.2,0,0.2,0,0.2
		C16.2,12.3,16.2,12.2,16.2,12.1z M16.2,10.9c0-0.2,0,0,0,0.3c0,0.4,0,0.5,0,0.4C16.2,11.4,16.2,11.1,16.2,10.9z M8.2,11.1
		c0-0.1,0.1-0.2,0.1-0.2c0.1,0,0.2-0.1,0.3-0.2c0.3-0.4,1.3-1.4,2-1.9c0.5-0.4,0.6-0.5,0.3-0.6C11,8.1,10.9,8.1,11,8
		c0.1-0.1,0.2-0.1,0.2,0c0,0.1,0,0.1,0.1,0.2c0.2,0.1,0.5-0.1,0.5-0.3c0-0.1,0-0.1,0-0.1c0.1,0,1.2-0.3,1.5-0.5
		c0.1-0.1,0.3-0.1,1-0.2c0.3,0,0.5-0.1,0.5-0.1s-0.1-0.1-0.1,0c-0.1,0-0.1,0-0.1,0c0-0.1,0.1-0.1,0.1-0.1c0.1,0,0.1-0.1,0.1-0.3
		c0-0.3-0.2-0.5-0.2-0.2c0,0.1-0.1,0-0.1-0.1c-0.1-0.2-0.1-0.1-0.2,0c0,0.1,0,0.2,0.1,0.2c0.1,0,0.1,0,0,0.1c-0.2,0-0.2,0.4-0.1,0.4
		c0.1,0,0,0,0,0c-0.1,0-0.1-0.1-0.2-0.3c0-0.2-0.1-0.2-0.2-0.1c-0.1,0.1-0.2,0.1-0.3,0c-0.1-0.1-0.1-0.1-0.1,0
		c0,0.1-0.1,0.1-0.1,0.1c-0.1,0-0.2,0-0.2,0.1C13,7.1,13,7.1,12.9,7c-0.1-0.1-0.1-0.1-0.1-0.1c0,0.1-0.3,0.1-0.4-0.1
		c0-0.1-0.1-0.1-0.1,0c0,0.1,0,0.1-0.1,0.1c-0.1-0.1-0.4,0-0.3,0.1c0,0,0,0.1,0,0.1c0,0-0.1,0-0.1,0s0-0.1-0.1,0
		c-0.1,0-0.1,0.1,0,0.2c0.1,0.2,0,0.3-0.2,0.3c-0.1,0-0.2,0-0.2,0.1c0,0.1-0.1,0.1-0.2,0.1c-0.1,0-0.2,0-0.4,0.1
		c-0.1,0.1-0.4,0.2-0.6,0.2c-0.3,0-0.3,0-0.2,0.3c0.1,0.4,0.1,0.5,0,0.3C9.8,8.5,9.8,8.5,9.5,8.7C9.3,8.9,9.3,9,9.4,9.1
		c0.1,0.1,0.1,0.1-0.1,0.1c-0.2,0-0.3,0-0.3,0.1c0,0.1-0.1,0.2,0,0.3c0,0,0,0.1-0.1,0.1c-0.1,0-0.1,0-0.1,0s0-0.1-0.1,0
		c-0.1,0-0.1,0.1-0.1,0.3c0,0.1,0,0.3-0.1,0.3c-0.2,0.1,0,0.3,0.1,0.2c0.1,0,0.1,0,0.1,0.1s0,0.1,0,0.1c0,0-0.1,0-0.2,0.1
		c-0.2,0.1-0.4-0.3-0.2-0.5c0.1-0.1,0.1-0.1,0,0c-0.2,0.2-0.3,0.5-0.1,0.5c0.2,0.1,0.2,0.5,0,0.7c-0.1,0.2-0.1,0.2-0.4,0
		c-0.1-0.1-0.3-0.2-0.3-0.1c-0.1,0.1-0.1-0.2,0.1-0.4c0.1-0.2,0.1-0.2,0.1,0c0,0.1,0,0.1,0.1,0.1c0.2,0,0.3,0,0.2,0.1
		c0,0.1,0,0.1,0.1,0.1c0.2,0,0.2-0.1-0.2-0.4l-0.3-0.2L7.2,11L7,11.3l0.3,0.1c0.2,0.1,0.4,0.2,0.4,0.3c0.1,0.1,0.2,0.1,0.3-0.1
		C8.2,11.4,8.2,11.2,8.2,11.1z M6.4,11.6C6.4,11.5,6.4,11.6,6.4,11.6c-0.1,0.1,0,0.2,0,0.1C6.5,11.7,6.5,11.6,6.4,11.6z M6.6,11.1
		C6.6,11,6.6,11,6.6,11.1c-0.1,0.2,0,0.2,0,0.2C6.6,11.2,6.7,11.1,6.6,11.1z M24.2,11.1c0,0,0-0.1-0.1-0.1c-0.1,0-0.1,0,0,0
		C24.1,11.2,24.2,11.2,24.2,11.1z M23.7,10.9c-0.1-0.2-0.4-0.2-0.3,0c0,0.1,0.1,0.1,0.1,0S23.6,10.9,23.7,10.9c0,0.1,0,0.1,0.1,0.1
		C23.8,11.1,23.8,11,23.7,10.9z M23.8,10.7C23.9,10.6,23.9,10.5,23.8,10.7c-0.1-0.1-0.1,0-0.1,0.1C23.7,10.9,23.8,10.8,23.8,10.7z
		 M23.6,10.6C23.6,10.6,23.6,10.5,23.6,10.6C23.6,10.5,23.5,10.6,23.6,10.6c-0.1,0.1-0.1,0.1-0.1,0.1C23.5,10.7,23.6,10.7,23.6,10.6
		z M23.2,10.6c0,0,0-0.1,0.1-0.2c0.2-0.1,0.2-0.4,0.1-0.4c0,0-0.1,0-0.1,0.1c0,0.1,0,0.1-0.1,0.1c0,0-0.1,0-0.1-0.1
		c0-0.1,0-0.1-0.1-0.1c-0.2,0.1-0.2,0.1,0,0.3c0.1,0.1,0,0.1-0.2,0c-0.1-0.1,0,0,0.1,0.1C23.1,10.5,23.2,10.6,23.2,10.6
		C23.3,10.6,23.3,10.6,23.2,10.6z M16.4,10.3c0.2-0.2,1-0.2,1.1,0c0.1,0.1,0.1,0.1,0.1-0.1c0-0.2-0.1-0.2-0.7-0.2
		c-0.7,0-0.7,0-0.7,0.2C16.2,10.5,16.2,10.5,16.4,10.3z M23.9,10.4c0,0,0-0.1,0-0.1c0,0-0.1,0-0.1,0.1
		C23.8,10.5,23.9,10.5,23.9,10.4z M18.2,10.1c0.1-0.1,0.1-0.1,0-0.1C18.1,10,18,10,18,10.1c0,0.1,0,0.1,0,0.1S18.1,10.2,18.2,10.1z
		 M18.6,10c0,0-0.1,0-0.2,0c-0.1,0,0,0.1,0.1,0.1C18.6,10.1,18.7,10,18.6,10z M22.9,9.8C23,9.7,23,9.6,23,9.6c0-0.1,0-0.1-0.1-0.1
		c-0.1,0-0.2,0-0.1,0.2c0,0.1,0,0.2-0.1,0.2c-0.1,0-0.2,0-0.2-0.1c0,0,0-0.1,0.1-0.1c0.1,0,0.1-0.6-0.1-0.8c-0.1-0.1-0.1-0.1-0.1,0
		c0,0.1,0,0.1,0,0.1c-0.1,0-0.1,0.1,0,0.2c0.1,0.2-0.1,0.3-0.3,0.1c-0.2-0.1-0.2-0.1,0-0.1c0.1,0.1,0.2,0,0.1-0.2
		C22,8.9,22,8.7,22,8.6l0-0.3l-0.1,0.2c-0.1,0.1-0.1,0.3-0.1,0.4c0,0.2,0,0.2-0.1,0c-0.1-0.1-0.1-0.5,0.1-0.5c0,0,0.1,0,0.1-0.1
		c0,0-0.1-0.1-0.1-0.1c-0.1,0-0.1,0-0.1-0.1c0.1-0.1-0.1-0.1-0.2,0c-0.1,0.1-0.1,0.1,0,0.1c0.2-0.1,0.2,0,0,0.2
		c-0.1,0.1-0.1,0.1-0.2,0C21.1,8.5,21,8.5,21,8.5c0,0,0.3,0.3,0.6,0.6c0.4,0.3,0.7,0.6,0.7,0.6c0,0.1,0.3,0.2,0.5,0.3
		C22.8,10,22.9,9.9,22.9,9.8z M17.4,9.5c0-0.1-0.5-1-0.7-1.2c-0.4-0.4-0.5-0.2-0.5,0.5c0,0.4,0,0.6,0.1,0.6c0,0,0.1-0.2,0.1-0.5
		s0-0.4,0-0.5c0.1-0.1,0.6,0.5,0.7,0.8C17.2,9.5,17.4,9.6,17.4,9.5z M11.3,9.2c0,0-0.1,0-0.2,0.1c-0.1,0.1-0.1,0.1,0.1,0
		C11.3,9.2,11.3,9.2,11.3,9.2z M11.1,9.1c0,0-0.1,0-0.1,0C10.9,9.1,10.9,9.1,11.1,9.1C11.1,9.1,11.1,9.1,11.1,9.1z M18.6,9
		c-0.1,0-0.2-0.1-0.3-0.2c-0.3-0.2-0.8-0.5-1-0.5c-0.2,0-0.1,0.2,0.1,0.2c0.1,0,0.5,0.2,0.7,0.3C18.4,9,18.6,9.1,18.6,9
		C18.7,9,18.6,9,18.6,9z M19.1,8.7c0,0-0.1-0.1-0.2-0.1c-0.2,0-0.2,0,0,0.1C19,8.7,19.1,8.8,19.1,8.7C19.1,8.8,19.1,8.7,19.1,8.7z
		 M19.4,8.7c0,0-0.1,0-0.1,0C19.2,8.7,19.2,8.8,19.4,8.7C19.4,8.8,19.4,8.7,19.4,8.7z M20.8,8.2C20.9,8,21,7.8,21,7.8
		c0,0-0.1,0-0.1,0.1c-0.1,0.2-0.5,0.6-0.6,0.5c-0.2-0.1-0.2-0.2,0.1-0.1c0.2,0,0.2,0,0.2-0.1c0-0.1-0.1-0.1-0.2-0.1
		c-0.1,0-0.1-0.1-0.1-0.2c0-0.1,0.1-0.2,0.1-0.3c0-0.1-0.1-0.1-0.3-0.2c-0.2,0-0.4-0.1-0.4-0.2c-0.1-0.1-0.1-0.1-0.1-0.1
		c0,0,0,0.1,0,0.2c0,0.2-0.2,0.3-0.3,0.2C19,7.4,19,7.4,19.2,7.4c0.2,0,0.2,0,0.1-0.2L19.2,7L19,7.2c-0.1,0.1-0.2,0.2-0.2,0.2
		c-0.1,0-0.1,0,0-0.1c0.2-0.2,0.1-0.4,0-0.4c-0.1,0-0.1,0-0.1,0.1c0,0.1,0,0.1,0,0.1c0,0-0.1,0-0.1-0.1c0-0.1-0.3,0-0.3,0.2
		c0,0.1,0.1,0.1,0.2,0.2c0.2,0,0.2,0,0,0c-0.2,0-0.2-0.1-0.3-0.3c0-0.3-0.1-0.3-0.2-0.2C17.7,6.8,17.6,7,17.8,7
		c0.1,0,0.1,0.1-0.1,0.1c-0.1,0-0.1,0-0.1-0.2c0-0.2,0-0.2-0.1-0.3c-0.2-0.1-0.5,0.1-0.4,0.3C17.1,7,17.1,7,17,7
		C16.9,7,16.9,7,17,6.8c0.1-0.1,0-0.2,0-0.3c-0.1-0.1-0.1-0.1-0.2,0c-0.1,0.1-0.1,0.1-0.2,0c-0.2-0.2-0.3-0.1-0.3,0.2
		c0,0.2,0,0.2,0.2,0.1c0.1-0.1,0.2-0.1,0.1,0c0,0.1,0,0.1,0.1,0.1c0.1,0,0,0-0.2,0c-0.2,0-0.3-0.1-0.4-0.4C16,6.3,16,6.2,15.6,6.2
		c-0.5,0-0.7,0.2-0.5,0.6c0.1,0.2,0.2,0.2,1,0.3c0.5,0,0.9,0,1,0.1c0.1,0,0.1,0,0.1-0.2c0-0.2,0-0.2,0.1-0.2s0.1,0.1,0.1,0.2
		c0,0.2,0,0.2,0.1,0.2c0.3,0,0.3,0,0.3-0.2c0-0.1,0-0.2,0.1-0.2c0.1,0,0.1,0.1,0.1,0.2c0,0.1,0.1,0.2,0.1,0.3c0.1,0,0.5,0.2,1,0.3
		C19.8,7.9,20,8,20,8.1c-0.1,0.2,0.2,0.4,0.4,0.4C20.5,8.5,20.7,8.3,20.8,8.2z M9.3,8.1c0,0-0.1,0-0.1,0C9.1,8.1,9.2,8.1,9.3,8.1
		C9.3,8.1,9.3,8.1,9.3,8.1z M21.9,8.1c0,0,0-0.1-0.1-0.1c-0.1,0-0.1,0,0,0C21.8,8.1,21.9,8.2,21.9,8.1z M20.6,7.6c0,0-0.1,0-0.1,0.1
		c-0.1,0.2-0.1,0.3,0,0.2c0.1,0,0.1,0,0.1,0.1c0,0.1,0,0,0.1-0.1C20.7,7.8,20.7,7.6,20.6,7.6z"/>
	<path class="st3" d="M16.3,25.7c-0.1,0-0.1-0.1-0.1-0.1c0,0,0.1-0.1,0.1,0c0,0,0.1,0,0.1-0.1c0-0.1,0-0.1-0.1-0.1c-0.1,0-0.1,0,0,0
		c0.1-0.2,0.4-0.1,0.5,0.1c0.1,0.1,0.1,0.2,0,0.1c-0.2-0.2-0.3-0.1-0.2,0.1c0,0.1,0,0.2,0,0.2C16.5,25.7,16.4,25.7,16.3,25.7z"/>
	<path class="st3" d="M15.5,25.3c-0.1-0.1-0.1-0.1,0.1-0.1c0.3,0,0.4,0.1,0.2,0.1C15.7,25.4,15.6,25.3,15.5,25.3z"/>
	<path class="st3" d="M13.1,24.9c0,0,0-0.1,0.1-0.1c0,0,0.1,0,0,0.1C13.2,25,13.2,25,13.1,24.9C13.1,25,13.1,25,13.1,24.9z"/>
	<path class="st3" d="M11.7,24c-0.2-0.1-0.2-0.1,0-0.1c0.2,0,0.4,0.1,0.2,0.2C11.9,24.2,11.8,24.1,11.7,24z"/>
	<path class="st3" d="M18.8,25C18.8,24.9,18.9,24.9,18.8,25C18.9,25,18.9,25,18.8,25C18.9,25.1,18.8,25.1,18.8,25z"/>
	<path class="st3" d="M19.8,25C19.8,24.9,19.8,24.9,19.8,25C19.8,25,19.8,25,19.8,25C19.8,25.1,19.8,25.1,19.8,25z"/>
	<path class="st3" d="M20.1,24.8C20.1,24.8,20.1,24.7,20.1,24.8C20.2,24.8,20.2,24.9,20.1,24.8C20.1,24.9,20.1,24.9,20.1,24.8z"/>
	<path class="st3" d="M19,24.8c0,0,0.1-0.1,0.1-0.1c0.1,0,0.1,0,0.1,0C19.2,24.8,19,24.9,19,24.8z"/>
	<path class="st3" d="M19.9,24.5c0,0,0.1-0.1,0.1-0.1C20,24.4,20,24.4,19.9,24.5C20,24.5,19.9,24.5,19.9,24.5
		C19.9,24.5,19.9,24.5,19.9,24.5z"/>
	<path class="st3" d="M20.6,24.1c0,0,0.1-0.1,0.1-0.1C20.8,24,20.7,24,20.6,24.1C20.7,24.1,20.6,24.2,20.6,24.1
		C20.6,24.2,20.6,24.1,20.6,24.1z"/>
	<path class="st3" d="M21.7,23.8c0,0,0.1-0.1,0.1-0.1c0.1-0.1,0.1-0.1,0.2,0c0,0.1,0,0.1-0.1,0.1S21.7,23.9,21.7,23.8z"/>
	<path class="st3" d="M21.4,23.6c0-0.1,0.1-0.2,0.1-0.2c0.1,0,0.1,0,0.1,0.2C21.6,23.9,21.4,23.9,21.4,23.6z"/>
	<path class="st3" d="M22.1,23.4C22,23.4,22,23.3,22.1,23.4c0.1-0.1,0.2-0.2,0.3-0.2l0.2-0.2l-0.2,0.2c-0.1,0.1-0.2,0.2-0.2,0.2
		S22.2,23.5,22.1,23.4z"/>
	<path class="st3" d="M21.8,23.3c0,0,0.1,0,0.1,0C22,23.3,21.9,23.3,21.8,23.3C21.8,23.3,21.8,23.3,21.8,23.3z"/>
	<path class="st3" d="M22.9,22.7c0-0.1,0-0.1-0.2-0.1c-0.2,0-0.2,0-0.1-0.1c0.1-0.1,0.2-0.1,0.3,0c0.1,0.1,0.2,0.4,0,0.4
		C22.9,22.8,22.9,22.7,22.9,22.7z"/>
	<path class="st3" d="M23,22.1c-0.2-0.1,0.2-0.3,0.4-0.2c0.1,0.1,0.1,0.1-0.1,0.2C23.2,22.2,23,22.2,23,22.1z M23.2,22.1
		C23.2,22,23.2,22,23.2,22.1C23.2,22,23.1,22,23.2,22.1c-0.1,0.1-0.1,0.1-0.1,0.1C23.1,22.1,23.2,22.1,23.2,22.1z"/>
	<path class="st3" d="M23.8,21.6c-0.1-0.1-0.1-0.1-0.3,0c-0.2,0.1-0.2,0.1-0.1-0.1c0.1-0.2,0.2-0.3,0.5-0.1c0.1,0.1,0.1,0.1,0,0.2
		C23.9,21.8,23.8,21.8,23.8,21.6z"/>
	<path class="st3" d="M14.8,24.2c-0.7-0.1-1.8-0.4-2.2-0.6c-0.1-0.1-0.3-0.1-0.3-0.1s-0.4-0.2-0.7-0.4c-1.8-1.2-3.1-2.9-3.6-5
		c-0.2-0.9-0.2-3,0-4c0.1-0.4,0.2-0.7,0.2-0.7c0,0,0,0.2,0,0.4C8.1,14,8.1,14.2,8,14.9c0,0.2-0.1,0.4-0.1,0.4c0,0.1,0,0.1,0,0.1
		s0.1,0.1,0,0.2c0,0.1,0,0.1,0,0.1c0.1,0,0.2-0.4,0.3-0.8c0.2-0.8,0.4-1.4,0.5-1.3c0,0.1,0,0.2-0.1,0.3c-0.1,0.1-0.1,0.1,0.1,0
		c0.2-0.2,0.2-0.2,0.2,0.3c0,0.4,0,0.5,0.2,0.7c0.1,0.1,0.2,0.3,0.3,0.7c0,0.3,0.1,0.5,0,0.6c0,0-0.4,0-0.8,0.1
		c-0.4,0-0.7,0.1-0.8,0.1c0,0,0,0.1,0.1,0.2c0.1,0.1,0.1,0.1,0.1,0c0-0.1,0.2-0.1,0.7-0.1l0.7,0l0,0.4c0,0.2,0,0.4-0.1,0.5
		c-0.1,0.1-0.1,0.2,0,0.2c0.3,0,0.3-0.2,0.3-1.6c0-1.1-0.1-1.4-0.2-1.4c-0.1,0-0.3-0.5-0.2-0.5c0.1-0.1,1.6-0.1,2.2,0
		c1.4,0.2,2.2,1.5,1.8,2.8c-0.2,0.6-0.4,0.9-0.9,1.1C12.2,18,11.9,18,10.7,18c-1.4,0-1.4,0-1.3-0.2c0-0.1,0-0.2,0-0.2
		s-0.1-0.1-0.1-0.2c0-0.1,0,0-0.1,0.3c0,0.6,0,0.6,1.4,0.5c1.4,0,1.8-0.2,2.4-0.8c0.3-0.3,0.5-0.5,0.5-0.6c0-0.2,0.2-0.1,0.4,0.3
		c0.1,0.2,0.4,0.5,0.6,0.7c0.4,0.3,1.4,0.8,1.5,0.7c0,0,0.1,0,0.2,0.1c0.1,0.1,0.3,0.1,1.1,0.1c0.6,0,1,0,1,0.1
		c0,0.1,0.1,0.1-1.1,0.1c-0.5,0-1,0.1-1,0.1c-0.1,0-0.1,2.2,0,2.5c0.1,0.2,0.1,0.2,0.7,0.2c0.5,0,0.7,0,0.8-0.1
		c0.1-0.2,0.1-0.1,0.1,0c-0.1,0.4-0.1,0.4-0.8,0.4c-0.8,0-0.9,0.1-0.8,0.8c0.1,0.7,0.1,0.9,0.3,0.8c0.1,0,0.1-0.1,0-0.2
		c-0.1-0.1-0.1-0.2,0-0.3c0.1-0.1,0.1-0.2,0-0.2c-0.1-0.1,0-0.1,0.1,0c0.1,0.1,0.1,0.2,0.1,0.3c-0.1,0.1-0.1,0.1-0.1,0.2
		c0.1,0.1,0.4-0.2,0.6-0.6c0.1-0.2,0.3-0.3,0.3-0.2c0,0-0.1,0.3-0.2,0.5c-0.2,0.4-0.2,0.5-0.1,0.5c0.2,0.1,1.1-0.4,1.5-0.8
		c0.4-0.4,0.7-0.4,0.4,0c-0.1,0.1-0.4,0.4-0.7,0.6c-0.2,0.2-0.4,0.4-0.4,0.4c0,0,0,0.1-0.1,0c-0.1,0-0.1,0-0.1,0c0,0.1,0,0.1-0.1,0
		c-0.1,0-0.2,0-0.1,0C17.6,24.2,16,24.3,14.8,24.2z M16.9,24c0,0,0-0.1-0.1-0.1c-0.1,0-0.1,0,0,0C16.8,24.1,16.9,24.1,16.9,24z
		 M17,23.9c0,0,0-0.1-0.1-0.1c-0.1,0-0.1,0,0,0C16.9,23.9,17,23.9,17,23.9z M14.6,22.9c-0.3-0.6-0.3-0.6-0.7-0.6l-0.4,0l0.3,0.1
		c0.3,0,0.4,0.1,0.6,0.7c0.2,0.4,0.3,0.6,0.4,0.6C14.9,23.6,14.8,23.2,14.6,22.9z M15.9,23c0.1-0.7,0-0.8-0.7-0.7
		c-0.3,0-0.5,0.1-0.5,0.2s0.1,0.1,0.4,0.1c0.6-0.1,0.7,0.1,0.7,0.6c0,0.5,0,0.6,0,0.6C15.9,23.6,15.9,23.3,15.9,23z M13.2,23.2
		c0,0-0.1,0-0.1,0C13,23.2,13,23.3,13.2,23.2C13.2,23.3,13.2,23.2,13.2,23.2z M13.4,22.3c0,0-0.1,0-0.1,0
		C13.2,22.3,13.2,22.3,13.4,22.3C13.4,22.3,13.4,22.3,13.4,22.3z M15.9,20.5c0-0.7,0-1.3-0.1-1.3c0,0-0.4,0-0.7,0l-0.7,0.1l0.6,0.1
		c0.3,0,0.6,0.1,0.7,0.2c0,0.1,0.1,0.6,0.1,1.2c0,0.7,0,1.1,0.1,1C15.9,21.7,15.9,21.2,15.9,20.5z M11.8,17c0.2-0.2,0.4-0.5,0.4-0.7
		c0.1-0.5,0-1.1-0.2-1.3c-0.1-0.1-0.1-0.2-0.1-0.2c0,0-0.1-0.1-0.4-0.2c-0.5-0.2-0.7-0.3-0.4-0.1c0.1,0.1,0.1,0.1-0.1,0.1
		c-0.1,0-0.2-0.1-0.2-0.1c0-0.1,0-0.1-0.1,0c0,0.1,0,0.2,0,0.4c0,0.2,0.1,0.8,0.1,1.4v1.1h0.3C11.4,17.4,11.6,17.3,11.8,17z
		 M12.4,14.7c0-0.1-0.1-0.2-0.1-0.1c0,0,0,0.1,0,0.2C12.4,14.9,12.5,14.9,12.4,14.7z M11.9,14.5c0-0.1,0-0.1,0.2,0
		c0.2,0.1,0.2,0.1,0-0.1c-0.1-0.1-0.4-0.2-0.6-0.2l-0.4,0l0.5,0.1c0.3,0.1,0.4,0.1,0.3,0.1c-0.1,0-0.1,0,0,0.1
		C11.9,14.6,11.9,14.6,11.9,14.5z M10.7,14.2C10.6,14.1,10.6,14.2,10.7,14.2c-0.1,0.1,0,0.2,0,0.1C10.7,14.2,10.7,14.2,10.7,14.2z"
		/>
	<path class="st3" d="M11,17c0-0.1,0-0.4,0-0.5c0.1-0.2,0.1-0.2,0.6-0.2c0.2,0,0.2,0.5-0.1,0.7C11.3,17.3,11.1,17.3,11,17z"/>
	<path class="st3" d="M11.1,16.1c-0.1,0-0.1-0.2,0-0.5c0.1-0.4,0.1-0.5,0.3-0.5c0.1,0,0.2,0,0.1,0.1c0,0.1,0,0.1,0.1,0.2
		C11.7,15.4,12,16,12,16C11.9,16.1,11.2,16.1,11.1,16.1z"/>
	<path class="st3" d="M18.1,23.8C18.1,23.7,18.1,23.7,18.1,23.8c0.1,0,0.2,0.1,0.1,0.1C18.2,23.9,18.2,23.9,18.1,23.8z"/>
	<path class="st3" d="M18.7,23.6c0.1-0.1,1.9-1,2-0.9c0.1,0.1,0.1,0-0.5,0.4c-0.6,0.4-1.1,0.6-1.3,0.6
		C18.7,23.6,18.6,23.6,18.7,23.6z"/>
	<path class="st3" d="M16.6,22.9C16.6,22.8,16.6,22.8,16.6,22.9C16.7,22.9,16.7,22.9,16.6,22.9C16.6,23,16.6,23,16.6,22.9z"/>
	<path class="st3" d="M16.3,22.7c0-0.1,0-0.2,0.1-0.2c0.1,0,0.1,0.1,0.1,0.1c0,0.1,0,0.2-0.1,0.2C16.4,22.9,16.3,22.8,16.3,22.7z"/>
	<path class="st3" d="M17.9,22c0.1-0.1,0.4-0.1,1-0.2c0.5,0,0.9,0,0.9,0c0,0.2-0.3,0.3-1.1,0.3C17.9,22.1,17.8,22.1,17.9,22z"/>
	<path class="st3" d="M20.1,22.1c-0.1-0.1,0.1-0.2,0.7-0.2h0.7l0.5-0.6c0.8-1,1-1.1,1-1.4c0-0.1,0.1-0.2,0.2-0.2
		c0.2-0.1,0.2-0.1-0.4,0.8c-0.2,0.3-0.6,0.9-0.9,1.2l-0.5,0.6h-0.6C20.4,22.1,20.1,22.1,20.1,22.1z"/>
	<path class="st3" d="M16.3,21.6C16.3,21.5,16.4,21.5,16.3,21.6c0.1-0.1,0.2,0,0.2,0C16.5,21.7,16.5,21.7,16.3,21.6
		C16.4,21.7,16.3,21.7,16.3,21.6z"/>
	<path class="st3" d="M19.9,21.5c0-0.1,0.1-0.1,0.1-0.1C20,21.4,20,21.5,19.9,21.5C19.9,21.6,19.8,21.6,19.9,21.5z"/>
	<path class="st3" d="M17.8,21.2C17.8,21.2,17.8,21.1,17.8,21.2C17.9,21.2,17.9,21.3,17.8,21.2C17.8,21.3,17.8,21.3,17.8,21.2z"/>
	<path class="st3" d="M19.7,19c-0.6,0-1-0.1-1-0.1c0-0.1,2.1-0.2,2.3-0.1C21.2,19,20.7,19.1,19.7,19z"/>
	<path class="st3" d="M21.6,19c-0.2,0-0.3-0.1-0.3-0.1c0-0.1,0-0.1,0.9-0.1c0.4,0,0.7,0,0.7-0.1c0,0,0.1,0,0.3,0c0.1,0,0.2,0,0.1,0
		c-0.1,0-0.1-0.1-0.1-0.1s0.1,0,0.2,0c0.2,0.1,0.3,0.3,0.1,0.4C23.5,19.1,22.2,19.1,21.6,19z"/>
	<path class="st3" d="M18.1,16.8c0-0.1-0.2-0.1-0.3-0.1c-0.3,0-0.6-0.1-0.5-0.2c0,0,0.1-0.1,0.1-0.1c0.1,0,0.1,0,0,0.1
		c0,0,0,0.1,0,0.1c0.1,0,0.1,0,0.1-0.1c0-0.2,0.5-0.2,0.6-0.1c0,0.1,0,0.2,0,0.3C18.1,16.9,18.1,16.9,18.1,16.8z"/>
	<path class="st3" d="M8.9,12.9c-0.1-0.1-0.1-0.1,0-0.2c0.1-0.1,0.5-0.1,1.1-0.1c0.9,0,1,0.1,0.8,0.2C10.7,13,9.2,13.1,8.9,12.9z"/>
	<path class="st3" d="M11.4,13c-0.3-0.1,0-0.2,1-0.2c0.7,0,1.2,0,1.2,0.1s-0.3,0.1-0.8,0.1c-0.4,0-0.9,0-1,0
		C11.6,13,11.4,13,11.4,13z"/>
	<path class="st3" d="M15.6,12.2c0-0.1,0-0.3,0-0.3c0,0,0.1,0.1,0.1,0.3c0,0.2,0,0.3,0,0.3C15.6,12.5,15.6,12.3,15.6,12.2z"/>
	<path class="st3" d="M15.5,10.6c0-0.1-0.1-0.2-0.1-0.2c-0.1,0,0,0,0.1,0c0.1,0,0.2,0,0.2,0.1c0,0,0,0.1-0.1,0
		C15.7,10.5,15.6,10.5,15.5,10.6C15.5,10.8,15.5,10.8,15.5,10.6z"/>
	<path class="st3" d="M11.5,9.8c-0.1-0.1,0.2-0.2,0.6-0.2c0.3,0,0.4-0.1,0.7-0.4c0.3-0.3,0.5-0.5,0.5-0.3c0,0-0.2,0.3-0.4,0.5
		c-0.4,0.4-0.5,0.5-0.9,0.5C11.7,9.9,11.5,9.8,11.5,9.8z"/>
	<path class="st3" d="M15.2,9.5c0,0,0.1,0,0.1,0C15.3,9.5,15.3,9.5,15.2,9.5C15.2,9.5,15.1,9.5,15.2,9.5z"/>
	<path class="st3" d="M15.1,9.3c0,0,0.1,0,0.1,0C15.2,9.3,15.2,9.3,15.1,9.3C15.1,9.3,15,9.3,15.1,9.3z"/>
	<path class="st3" d="M15.4,9.3c0,0,0.1,0,0.1,0C15.5,9.3,15.5,9.3,15.4,9.3C15.4,9.3,15.3,9.3,15.4,9.3z"/>
	<path class="st3" d="M13.5,8.6C13.5,8.5,13.5,8.5,13.5,8.6C13.6,8.6,13.6,8.6,13.5,8.6C13.5,8.7,13.5,8.7,13.5,8.6z"/>
	<path class="st3" d="M14.2,8.3c0,0,0.1,0,0.1,0C14.4,8.3,14.4,8.3,14.2,8.3C14.2,8.3,14.2,8.3,14.2,8.3z"/>
	<path class="st3" d="M9.8,23.1c0-0.1,0.2-0.1,0.3,0c0,0,0,0.1-0.1,0.1C9.9,23.1,9.8,23.1,9.8,23.1z"/>
	<path class="st3" d="M8.6,10.4C8.6,10.4,8.6,10.3,8.6,10.4C8.7,10.4,8.7,10.5,8.6,10.4C8.6,10.5,8.6,10.5,8.6,10.4z"/>
	<path class="st3" d="M8.6,10.1C8.6,10,8.5,9.9,8.5,9.9c0,0,0,0,0.1,0C8.7,10.1,9,10,8.9,9.9c0,0,0-0.1,0.1,0c0.1,0.1,0.1,0.1,0,0.2
		C8.8,10.3,8.8,10.3,8.6,10.1z"/>
	<path class="st3" d="M9.2,9.6c-0.1-0.1,0-0.1,0.2-0.1c0.2,0,0.2,0,0.2,0.1C9.4,9.7,9.3,9.7,9.2,9.6z"/>
	<path class="st3" d="M9.7,9.2c0-0.1,0.1-0.1,0.1-0.1c0.1,0,0.1,0,0,0.1C9.8,9.3,9.8,9.3,9.7,9.3S9.7,9.3,9.7,9.2z"/>
	<path class="st3" d="M10.1,8.9c0,0,0.1-0.1,0.1-0.1S10.2,8.8,10.1,8.9C10.2,8.9,10.1,9,10.1,8.9C10.1,9,10.1,8.9,10.1,8.9z"/>
	<path class="st3" d="M10.4,8.7c0-0.1,0-0.1,0-0.2c0.1-0.1,0.2,0,0.1,0.1C10.5,8.8,10.4,8.8,10.4,8.7z"/>
	<path class="st3" d="M10.1,8.4c-0.1-0.1,0-0.3,0.2-0.3c0.1,0,0.1,0,0,0.1C10.2,8.3,10.2,8.3,10.1,8.4c0.1,0,0.1,0.1,0.1,0.1
		S10.1,8.5,10.1,8.4z"/>
	<path class="st3" d="M10.8,8.5c0,0,0-0.1-0.1-0.2c-0.2-0.1-0.2-0.4,0-0.2c0,0,0.1,0.1,0,0.1c0,0,0,0.1,0.1,0.1
		C11,8.2,11,8.4,10.8,8.5C10.8,8.5,10.8,8.5,10.8,8.5z"/>
	<path class="st3" d="M10.5,8.3c0,0,0.1,0,0.1,0C10.6,8.4,10.6,8.4,10.5,8.3C10.5,8.4,10.4,8.4,10.5,8.3z"/>
	<path class="st3" d="M11.4,8c0,0,0.1,0,0.1,0C11.5,8,11.5,8,11.4,8C11.4,8,11.4,8,11.4,8z"/>
	<path class="st3" d="M12.8,7.4c0.1-0.1,0.2-0.1,0.3-0.1c0.1,0,0.1,0-0.1,0.1C12.8,7.4,12.8,7.4,12.8,7.4z"/>
	<path class="st3" d="M11.9,7.3c0,0,0.1-0.1,0.1-0.1S12,7.3,11.9,7.3C11.9,7.4,11.9,7.4,11.9,7.3C11.8,7.4,11.8,7.4,11.9,7.3z"/>
	<path class="st3" d="M12.2,7.1c0,0,0.1-0.1,0.1-0.1S12.4,7.1,12.2,7.1C12.3,7.2,12.3,7.2,12.2,7.1C12.2,7.2,12.2,7.2,12.2,7.1z"/>
	<path class="st3" d="M13.7,7.1c0,0,0.1-0.1,0.1-0.1c0,0,0,0,0,0.1C13.8,7.2,13.8,7.2,13.7,7.1C13.7,7.2,13.7,7.2,13.7,7.1z"/>
	<path class="st3" d="M12,7C12,7,12,6.9,12,7C12.1,7,12.1,7.1,12,7C12,7.1,12,7.1,12,7z"/>
	<path class="st3" d="M22.3,9.5C22.3,9.5,22.4,9.4,22.3,9.5C22.4,9.5,22.4,9.5,22.3,9.5C22.4,9.6,22.3,9.6,22.3,9.5z"/>
	<path class="st3" d="M21.9,8.9C21.9,8.8,21.9,8.8,21.9,8.9C22,8.8,22,8.9,21.9,8.9C21.9,9,21.9,8.9,21.9,8.9z"/>
	<path class="st3" d="M19.7,7.7c-0.1-0.1-0.1-0.1,0-0.2c0,0,0.1,0,0.1,0.1c0,0.1,0,0.1,0.1,0c0.1-0.1,0.1-0.1,0.2,0
		c0.1,0.1,0.1,0.1,0,0.2C19.8,7.9,19.8,7.9,19.7,7.7z"/>
	<path class="st3" d="M15.4,6.9c-0.2-0.1-0.2-0.5-0.1-0.6c0.1,0,0.1,0,0.1,0.2c0,0.2,0,0.3,0.2,0.3c0.1,0,0.2,0,0.2-0.1
		c0-0.1-0.1-0.1-0.1,0c-0.1,0-0.1,0-0.1-0.1c0-0.2,0-0.2,0.2-0.1C16,6.6,16,6.8,15.7,7C15.6,7,15.6,7,15.4,6.9z"/>
	<path class="st3" d="M15.8,6.4C15.8,6.3,15.8,6.3,15.8,6.4C15.9,6.4,15.9,6.4,15.8,6.4C15.8,6.5,15.8,6.4,15.8,6.4z"/>
</g>
</svg>
