<?xml version="1.0" encoding="utf-8"?>
<!-- Generator: Adobe Illustrator 23.0.0, SVG Export Plug-In . SVG Version: 6.00 Build 0)  -->
<svg version="1.1" id="Layer_1" xmlns="http://www.w3.org/2000/svg" xmlns:xlink="http://www.w3.org/1999/xlink" x="0px" y="0px"
	 width="32px" height="32px" viewBox="0 0 32 32" style="enable-background:new 0 0 32 32;" xml:space="preserve">
<style type="text/css">
	.st0{fill:#2B5EBA;}
	.st1{fill:url(#SVGID_1_);}
	.st2{fill:#FFFFFF;}
</style>
<path class="st0" d="M20,32h-8C5.4,32,0,26.6,0,20v-8C0,5.4,5.4,0,12,0h8c6.6,0,12,5.4,12,12v8C32,26.6,26.6,32,20,32z"/>
<linearGradient id="SVGID_1_" gradientUnits="userSpaceOnUse" x1="7.2681" y1="0.8759" x2="24.7319" y2="31.1241">
	<stop  offset="0" style="stop-color:#FFFFFF;stop-opacity:0.5"/>
	<stop  offset="1" style="stop-color:#FFFFFF;stop-opacity:0"/>
</linearGradient>
<path class="st1" d="M20,32h-8C5.4,32,0,26.6,0,20v-8C0,5.4,5.4,0,12,0h8c6.6,0,12,5.4,12,12v8C32,26.6,26.6,32,20,32z"/>
<circle class="st2" cx="22.4" cy="16" r="4.6"/>
<circle class="st2" cx="16.6" cy="7.4" r="2.2"/>
<circle class="st2" cx="16.6" cy="24.6" r="2.2"/>
<path class="st2" d="M15.5,19.3c0.1,0,0.3,0.1,0.4,0.1c0.8,0,1.4-0.6,1.4-1.4s-0.6-1.4-1.4-1.4c-0.5,0-0.9,0.3-1.2,0.6v0
	c0,0.1-0.1,0.1-0.1,0.2c-1.5,2.7-4.6,0.9-4.6,0.9C9.6,18,9,17.9,8.4,17.9c-1.9,0-3.3,1.5-3.3,3.3s1.5,3.3,3.3,3.3
	c1.3,0,2.4-0.7,3-1.8v0c0.1-0.2,0.2-0.4,0.2-0.6C13.2,18.5,15.5,19.3,15.5,19.3L15.5,19.3z M14.8,14.4c0.1,0.1,0.2,0.2,0.3,0.3
	c0.5,0.5,1.4,0.5,2,0c0.5-0.5,0.5-1.4,0-2c-0.4-0.4-0.8-0.5-1.3-0.4h0c-0.1,0-0.1,0-0.2,0.1c-3,0.8-3.9-2.6-3.9-2.6
	c-0.1-0.6-0.4-1.1-0.9-1.5C9.4,7,7.3,7,6,8.3S4.7,11.7,6,13c0.9,0.9,2.2,1.2,3.4,0.8h0c0.2-0.1,0.4-0.2,0.6-0.3
	C13.7,12.1,14.8,14.4,14.8,14.4z"/>
</svg>
