<?xml version="1.0" encoding="utf-8"?>
<!-- Generator: Adobe Illustrator 23.0.0, SVG Export Plug-In . SVG Version: 6.00 Build 0)  -->
<svg version="1.1" id="Layer_1" xmlns="http://www.w3.org/2000/svg" xmlns:xlink="http://www.w3.org/1999/xlink" x="0px" y="0px"
	 width="32px" height="32px" viewBox="0 0 32 32" style="enable-background:new 0 0 32 32;" xml:space="preserve">
<style type="text/css">
	.st0{fill:#2F2F2F;}
	.st1{fill:url(#SVGID_1_);}
	.st2{opacity:0.1;fill:#EA259E;}
	.st3{opacity:0.1;fill:#014C99;}
	.st4{opacity:0.1;fill:#08B0F9;}
	.st5{fill:#FFFFFF;}
</style>
<path class="st0" d="M20,32h-8C5.4,32,0,26.6,0,20v-8C0,5.4,5.4,0,12,0h8c6.6,0,12,5.4,12,12v8C32,26.6,26.6,32,20,32z"/>
<linearGradient id="SVGID_1_" gradientUnits="userSpaceOnUse" x1="7.2681" y1="0.8759" x2="24.7319" y2="31.1241">
	<stop  offset="0" style="stop-color:#FFFFFF;stop-opacity:0.5"/>
	<stop  offset="1" style="stop-color:#FFFFFF;stop-opacity:0"/>
</linearGradient>
<path class="st1" d="M20,32h-8C5.4,32,0,26.6,0,20v-8C0,5.4,5.4,0,12,0h8c6.6,0,12,5.4,12,12v8C32,26.6,26.6,32,20,32z"/>
<path class="st2" d="M15.6,10.2l4.9,2.9l-4.9,2.8l-5.1-2.8L15.6,10.2z"/>
<path class="st3" d="M10.5,13.2l5.1,2.8l0,5.7L10.5,19V13.2z"/>
<path class="st4" d="M15.6,16l4.9-2.8l0.1,5.8l-5,2.8L15.6,16z"/>
<g>
	<path class="st5" d="M25.8,9.8L25.8,9.8l-5-2.8l-5.1-2.9l-0.1,0l-0.1,0c-0.1,0-0.2,0.1-0.3,0.1l-4.5,2.6L5.3,10
		c-0.2,0.1-0.2,0.3-0.2,0.5v0.1l0,8.2l0,3c0,0.2,0.1,0.3,0.2,0.4l6.3,3.6l3.7,2.1c0.1,0,0.2,0.1,0.2,0.1c0.1,0,0.1,0,0.2-0.1
		l5.4-3.1l4.6-2.6c0.2-0.1,0.3-0.2,0.2-0.4l0-11.5C26.1,10,25.9,9.9,25.8,9.8 M15.6,10.6l4.5,2.6l-4.5,2.6l-1.5-0.9l-3-1.7
		L15.6,10.6 M20.7,12.8L15.8,10c-0.1-0.1-0.3-0.1-0.4,0l-4.9,2.8L6,10.3l3.1-1.8l6.5-3.8l5.9,3.4l3.6,2.1L20.7,12.8 M5.7,10.8
		l4.4,2.5l0.1,5.5c0,0.2,0.1,0.3,0.2,0.4l2.9,1.7l1.9,1.1v5.2l-9.6-5.5L5.7,10.8z M10.8,13.7l4.5,2.6l0,5.1l-4.4-2.5L10.8,13.7z
		 M15.9,22l1.9-1.1l2.9-1.7l0,0c0.1,0,0.1-0.1,0.2-0.1l0,0v0l0-3.7v-2l4.5-2.6v4.5l0,6.5l-6.1,3.5l-3.5,2L15.9,22 M15.9,21.3v-5.1
		l4.5-2.6v5.1L15.9,21.3"/>
	<path class="st5" d="M15.5,5.3c-0.1,0-0.2,0.1-0.3,0.2c-0.1,0.1,0,0.3,0,0.4c0.1,0.1,0.2,0.2,0.3,0.2c0,0,0.1,0,0.1,0
		c0.2,0,0.3-0.1,0.3-0.3c0-0.1,0-0.3-0.1-0.4C15.7,5.3,15.6,5.3,15.5,5.3 M15.7,7c-0.1-0.1-0.3-0.1-0.4,0c-0.1,0.1-0.2,0.2-0.2,0.3
		c0,0.1,0,0.2,0.1,0.3c0.1,0.1,0.2,0.1,0.3,0.1c0.1,0,0.1,0,0.2,0c0.2-0.1,0.2-0.2,0.2-0.3C15.9,7.2,15.9,7,15.7,7 M15.7,8.6
		c-0.1-0.1-0.3-0.1-0.4,0c-0.1,0.1-0.2,0.2-0.2,0.3c0,0.1,0,0.3,0.2,0.3c0.1,0.1,0.2,0.1,0.2,0.1c0.1,0,0.1,0,0.2,0
		C15.9,9.2,16,9,15.9,8.8C15.9,8.7,15.8,8.7,15.7,8.6 M9.2,19.4c-0.1,0-0.2,0.2-0.3,0.3c0,0.2,0,0.3,0.1,0.4
		c0.1,0.1,0.2,0.1,0.2,0.1c0,0,0.1,0,0.1,0c0.1,0,0.2-0.1,0.3-0.2c0.1-0.1,0-0.3-0.1-0.4C9.5,19.4,9.4,19.3,9.2,19.4 M21.6,20.2
		C21.7,20.2,21.7,20.2,21.6,20.2c0.2,0,0.3-0.1,0.4-0.2c0.1-0.1,0-0.3-0.1-0.4c-0.1-0.1-0.3-0.2-0.4-0.1c-0.1,0-0.2,0.2-0.3,0.3
		c0,0.2,0,0.3,0.1,0.4C21.4,20.1,21.5,20.2,21.6,20.2 M7.8,20.2c-0.1,0-0.2,0.2-0.2,0.3c0,0.2,0.1,0.3,0.2,0.4C7.8,21,7.9,21,7.9,21
		c0.1,0,0.1,0,0.2,0c0.1-0.1,0.2-0.2,0.2-0.3c0-0.1,0-0.3-0.1-0.4C8.1,20.2,7.9,20.2,7.8,20.2 M23,21c0,0,0.1,0,0.1,0
		c0.1,0,0.2-0.2,0.2-0.3c0-0.1,0-0.3-0.1-0.4c-0.1-0.1-0.3-0.1-0.4-0.1c-0.2,0.1-0.3,0.3-0.2,0.5c0,0.1,0.1,0.1,0.1,0.2
		C22.8,21,22.9,21,23,21 M6.8,21.1c-0.1-0.1-0.3-0.1-0.4,0c-0.1,0.1-0.2,0.2-0.2,0.3c0,0.2,0.1,0.3,0.2,0.3c0.1,0,0.1,0,0.2,0
		c0.1,0,0.1,0,0.2-0.1C6.9,21.7,7,21.5,7,21.4C7,21.3,6.9,21.1,6.8,21.1 M24.1,21.7c0.1,0.1,0.1,0.1,0.2,0.1c0,0,0.1,0,0.1,0
		c0.1-0.1,0.2-0.2,0.2-0.3c0-0.2,0-0.3-0.2-0.4c-0.1-0.1-0.3-0.1-0.4,0c-0.1,0.1-0.2,0.2-0.2,0.3C24,21.5,24,21.6,24.1,21.7"/>
</g>
</svg>
