<?xml version="1.0" encoding="utf-8"?>
<!-- Generator: Adobe Illustrator 23.0.0, SVG Export Plug-In . SVG Version: 6.00 Build 0)  -->
<svg version="1.1" id="Layer_1" xmlns="http://www.w3.org/2000/svg" xmlns:xlink="http://www.w3.org/1999/xlink" x="0px" y="0px"
	 width="32px" height="32px" viewBox="0 0 32 32" style="enable-background:new 0 0 32 32;" xml:space="preserve">
<style type="text/css">
	.st0{fill:#18931B;}
	.st1{fill:url(#SVGID_1_);}
	.st2{fill:#FFFFFF;}
	.st3{opacity:5.000000e-02;fill:#0B8311;}
	.st4{opacity:5.000000e-02;fill:#146714;}
</style>
<path class="st0" d="M20,32h-8C5.4,32,0,26.6,0,20v-8C0,5.4,5.4,0,12,0h8c6.6,0,12,5.4,12,12v8C32,26.6,26.6,32,20,32z"/>
<linearGradient id="SVGID_1_" gradientUnits="userSpaceOnUse" x1="7.2681" y1="0.8759" x2="24.7319" y2="31.1241">
	<stop  offset="0" style="stop-color:#FFFFFF;stop-opacity:0.5"/>
	<stop  offset="1" style="stop-color:#FFFFFF;stop-opacity:0"/>
</linearGradient>
<path class="st1" d="M20,32h-8C5.4,32,0,26.6,0,20v-8C0,5.4,5.4,0,12,0h8c6.6,0,12,5.4,12,12v8C32,26.6,26.6,32,20,32z"/>
<g id="layer1">
	<g id="g1627" transform="translate(56.415936,69.875162)">
		<path id="path1599" class="st2" d="M-48.1-52.8c2.7,1.4,5.6,3,7.8,4.1l7.7-4.1c-2.8,4.1-5.1,7.6-7.7,11.4
			C-43-45.2-45.8-49.4-48.1-52.8L-48.1-52.8z M-47.8-53.9l7.5-4l7.4,4l-7.4,4L-47.8-53.9z M-40.4-59.2l-7.7,4.1l7.7-11.3l7.7,11.3
			L-40.4-59.2z"/>
		<path id="path1593" class="st3" d="M-40.4-48.6l7.7-4.1c-2.8,4.1-7.7,11.4-7.7,11.4V-48.6z M-40.4-57.9l7.4,4l-7.4,4L-40.4-57.9z
			 M-40.4-59.2l0-7.2l7.7,11.3L-40.4-59.2z"/>
		<path id="path1603" class="st3" d="M-47.8-53.9l7.5,0.6l7.4-0.6l-7.4,4L-47.8-53.9z"/>
		<path id="path1606" class="st4" d="M-40.4-53.3l7.4-0.6l-7.4,4L-40.4-53.3L-40.4-53.3z"/>
	</g>
</g>
</svg>
