<?xml version="1.0" encoding="utf-8"?>
<!-- Generator: Adobe Illustrator 23.0.0, SVG Export Plug-In . SVG Version: 6.00 Build 0)  -->
<svg version="1.1" id="Layer_1" xmlns="http://www.w3.org/2000/svg" xmlns:xlink="http://www.w3.org/1999/xlink" x="0px" y="0px"
	 width="32px" height="32px" viewBox="0 0 32 32" style="enable-background:new 0 0 32 32;" xml:space="preserve">
<style type="text/css">
	.st0{fill:#0FDB97;}
	.st1{fill:url(#SVGID_1_);}
	.st2{fill:#FFFFFF;}
	.st3{opacity:0.7;fill:#FFFFFF;enable-background:new    ;}
</style>
<path class="st0" d="M20,32h-8C5.4,32,0,26.6,0,20v-8C0,5.4,5.4,0,12,0h8c6.6,0,12,5.4,12,12v8C32,26.6,26.6,32,20,32z"/>
<linearGradient id="SVGID_1_" gradientUnits="userSpaceOnUse" x1="7.2681" y1="0.8759" x2="24.7319" y2="31.1241">
	<stop  offset="0" style="stop-color:#FFFFFF;stop-opacity:0.5"/>
	<stop  offset="1" style="stop-color:#FFFFFF;stop-opacity:0"/>
</linearGradient>
<path class="st1" d="M20,32h-8C5.4,32,0,26.6,0,20v-8C0,5.4,5.4,0,12,0h8c6.6,0,12,5.4,12,12v8C32,26.6,26.6,32,20,32z"/>
<g>
	<path class="st2" d="M10.9,10.9c-0.6,0.6-0.6,1.5-0.2,2.1c0.3,0.5,0.9,0.8,1.4,0.8c1.2,0,2.2,1,2.2,2.2c0,1.2-1,2.2-2.2,2.2
		c-3.4,0-6.1-2.7-6.1-6.1c0-1.6,0.7-3.2,1.8-4.3C10,5.6,13.6,5.4,16,7.4c-1.4,1.2-2.2,2.9-2.2,4.7c0,1.2,1,2.2,2.2,2.2
		c-1.2,0-2.2-1-2.2-2.2c0,0,0,0,0,0c0-0.3-0.1-0.7-0.3-1c-0.2-0.3-0.4-0.5-0.8-0.6c-0.4-0.2-0.9-0.2-1.3,0
		C11.2,10.6,11,10.7,10.9,10.9z M25.5,17.5c1,2.3,0.5,4.9-1.2,6.6c-2.3,2.4-6.2,2.5-8.6,0.1c-1.2-1.1-1.8-2.7-1.8-4.4
		c0-1.2,0.9-2.2,2.1-2.2s2.2,0.9,2.2,2.1c0,0,0,0.1,0,0.1c0,0.7,0.4,1.3,1,1.6c0.4,0.2,0.9,0.2,1.3,0c0.4-0.2,0.7-0.5,0.9-0.9
		c0.4-0.9-0.1-1.9-0.9-2.2c-0.2-0.1-0.4-0.1-0.7-0.1c-1.2,0-2.2-1-2.2-2.2c0-1.2,1-2.2,2.2-2.2C22.4,13.8,24.6,15.3,25.5,17.5
		L25.5,17.5z"/>
	<path class="st3" d="M16,17.7c1.2,0,2.2,1,2.2,2.2c0,3.4-2.7,6.1-6.1,6.1c-1.7,0-3.2-0.7-4.4-1.9c-2.3-2.4-2.3-6.3,0.2-8.6
		c1.1-1.1,2.7-1.7,4.2-1.7c1.2,0,2.2,1,2.2,2.2s-1,2.2-2.2,2.2l0,0c-0.3,0-0.7,0.1-1,0.3c-0.3,0.2-0.5,0.4-0.6,0.8
		c-0.3,0.6-0.1,1.4,0.3,1.9v0c0.6,0.6,1.5,0.7,2.2,0.2c0.5-0.3,0.8-0.9,0.8-1.4C13.8,18.7,14.8,17.7,16,17.7z M25.3,9.3
		c1.5,3,0.4,6.7-2.6,8.2c-0.9,0.4-1.8,0.7-2.8,0.7c-1.2,0-2.2-1-2.2-2.2s1-2.2,2.2-2.2c0.7,0,1.3-0.4,1.6-1c0.2-0.5,0.2-1-0.1-1.4
		c-0.4-0.8-1.5-1.2-2.3-0.7c-0.1,0-0.1,0.1-0.2,0.1c-0.5,0.3-0.8,0.9-0.8,1.4c0,1.2-0.9,2.2-2.1,2.2c-1.2,0-2.2-0.9-2.2-2.1
		c0,0,0-0.1,0-0.1c0-3.4,2.7-6.1,6.1-6.1c1.3,0,2.6,0.4,3.6,1.2l0,0C24.3,7.8,24.9,8.5,25.3,9.3L25.3,9.3z"/>
</g>
</svg>
