<?xml version="1.0" encoding="utf-8"?>
<!-- Generator: Adobe Illustrator 23.0.0, SVG Export Plug-In . SVG Version: 6.00 Build 0)  -->
<svg version="1.1" id="Layer_1" xmlns="http://www.w3.org/2000/svg" xmlns:xlink="http://www.w3.org/1999/xlink" x="0px" y="0px"
	 width="32px" height="32px" viewBox="0 0 32 32" style="enable-background:new 0 0 32 32;" xml:space="preserve">
<style type="text/css">
	.st0{fill:#001D57;}
	.st1{fill:url(#SVGID_1_);}
	.st2{fill:#FFFFFF;}
</style>
<path class="st0" d="M20,32h-8C5.4,32,0,26.6,0,20v-8C0,5.4,5.4,0,12,0h8c6.6,0,12,5.4,12,12v8C32,26.6,26.6,32,20,32z"/>
<linearGradient id="SVGID_1_" gradientUnits="userSpaceOnUse" x1="7.2681" y1="0.8759" x2="24.7319" y2="31.1241">
	<stop  offset="0" style="stop-color:#FFFFFF;stop-opacity:0.5"/>
	<stop  offset="1" style="stop-color:#FFFFFF;stop-opacity:0"/>
</linearGradient>
<path class="st1" d="M20,32h-8C5.4,32,0,26.6,0,20v-8C0,5.4,5.4,0,12,0h8c6.6,0,12,5.4,12,12v8C32,26.6,26.6,32,20,32z"/>
<path class="st2" d="M20,5l1.2,1.2l-2.4,2.4c0.5,0.8,0.8,1.7,0.8,2.6c0,1.2-0.5,2.4-1.3,3.2c-0.6,0.7-1.4,1.1-2.3,1.3v2.1
	c0.9,0.2,1.7,0.6,2.3,1.3c0.8,0.9,1.3,2,1.3,3.3c0,1.2-0.5,2.4-1.3,3.3c-0.8,0.9-2,1.4-3.2,1.4c-1.2,0-2.4-0.5-3.2-1.4
	c-0.8-0.9-1.3-2-1.3-3.3c0-1.2,0.5-2.4,1.3-3.2c0.6-0.7,1.4-1.1,2.3-1.3v-2.1c-0.9-0.2-1.7-0.6-2.3-1.3c-0.8-0.9-1.3-2-1.3-3.3
	c0-1.2,0.5-2.4,1.3-3.3c0.8-0.9,2-1.4,3.2-1.4c0.9,0,1.7,0.3,2.5,0.8L20,5L20,5z M15.2,19.6c-0.7,0-1.4,0.3-1.9,0.8
	c-0.5,0.5-0.8,1.3-0.8,2c0,0.8,0.3,1.5,0.8,2c0.5,0.5,1.2,0.8,1.9,0.8c0.7,0,1.4-0.3,1.9-0.8c0.5-0.5,0.8-1.3,0.8-2
	c0-0.8-0.3-1.5-0.8-2C16.6,19.9,15.9,19.6,15.2,19.6z M17.1,13.3c0.5-0.5,0.8-1.3,0.8-2c0-0.7-0.3-1.5-0.8-2
	c-0.5-0.5-1.2-0.8-1.9-0.8c-0.7,0-1.4,0.3-1.9,0.8c-0.5,0.5-0.8,1.3-0.8,2c0,0.8,0.3,1.5,0.8,2c0.5,0.5,1.2,0.8,1.9,0.8
	C15.9,14.1,16.6,13.8,17.1,13.3z"/>
</svg>
