<?xml version="1.0" encoding="utf-8"?>
<!-- Generator: Adobe Illustrator 23.0.0, SVG Export Plug-In . SVG Version: 6.00 Build 0)  -->
<svg version="1.1" id="Layer_1" xmlns="http://www.w3.org/2000/svg" xmlns:xlink="http://www.w3.org/1999/xlink" x="0px" y="0px"
	 width="32px" height="32px" viewBox="0 0 32 32" style="enable-background:new 0 0 32 32;" xml:space="preserve">
<style type="text/css">
	.st0{fill:#E8D705;}
	.st1{fill:url(#SVGID_1_);}
	.st2{fill:#FFFEF0;}
</style>
<path class="st0" d="M20,32h-8C5.4,32,0,26.6,0,20v-8C0,5.4,5.4,0,12,0h8c6.6,0,12,5.4,12,12v8C32,26.6,26.6,32,20,32z"/>
<linearGradient id="SVGID_1_" gradientUnits="userSpaceOnUse" x1="7.2681" y1="0.8759" x2="24.7319" y2="31.1241">
	<stop  offset="0" style="stop-color:#FFFFFF;stop-opacity:0.5"/>
	<stop  offset="1" style="stop-color:#FFFFFF;stop-opacity:0"/>
</linearGradient>
<path class="st1" d="M20,32h-8C5.4,32,0,26.6,0,20v-8C0,5.4,5.4,0,12,0h8c6.6,0,12,5.4,12,12v8C32,26.6,26.6,32,20,32z"/>
<path d="M16,4C9.4,4,4,9.4,4,16s5.4,12,12,12s12-5.4,12-12S22.6,4,16,4z M16,26.7c-5.9,0-10.7-4.8-10.7-10.7S10.1,5.3,16,5.3
	S26.7,10.1,26.7,16S21.9,26.7,16,26.7z"/>
<circle class="st2" cx="16" cy="16" r="10.7"/>
<path d="M21.1,12c-0.3-0.6-0.5-1.7-1.1-2c-0.8-0.3-1.4,1.8-1.5,2.3h-0.1c-0.2-0.9-0.5-2.2-1.5-2.5c-0.5,2,0.5,4.1,1.4,5.8
	c1-0.5,1.4-1.9,1.5-2.9h0.1l1,3c0.8-0.2,1.1-1,1.4-1.8c0.6-1.6,1.2-3.5,0.8-5.2C21.7,9.2,21.4,10.9,21.1,12 M9,16
	c1.1-0.5,1.6-2.1,1.8-3.3h0.1c0.1,0.5,0.5,1.9,1.1,2c0.9,0.1,1.3-1.8,1.4-2.4h0.1c0.3,0.9,0.6,2.2,1.5,2.6c0.4-1.5-0.1-3-0.6-4.4
	c-0.1-0.4-0.4-1.3-0.9-1.3c-0.8,0-1.2,2.1-1.4,2.7H12l-1-3C9.2,9.8,8.3,14.3,9,16 M7.1,17.5c1.3,5.7,7.4,9,12.8,6.5
	c2-0.9,3.6-2.5,4.5-4.4c0.2-0.5,0.7-1.4,0.4-2.1c-0.3-0.7-2.9,0.4-3.5,0.7c-0.1,0-0.2,0.1-0.2,0.2c0,0.3,0.2,0.5,0.4,0.6
	c0,0,0,0,0,0l1.1,0.1c-2,3.8-7.3,5.5-11.1,2.5c-0.8-0.7-1.6-1.5-2.1-2.5c-0.2-0.5-0.5-1.1-0.9-1.4C8.2,17.5,7.6,17.4,7.1,17.5
	L7.1,17.5z"/>
</svg>
