<?xml version="1.0" encoding="utf-8"?>
<!-- Generator: Adobe Illustrator 23.0.0, SVG Export Plug-In . SVG Version: 6.00 Build 0)  -->
<svg version="1.1" id="Layer_1" xmlns="http://www.w3.org/2000/svg" xmlns:xlink="http://www.w3.org/1999/xlink" x="0px" y="0px"
	 width="32px" height="32px" viewBox="0 0 32 32" style="enable-background:new 0 0 32 32;" xml:space="preserve">
<style type="text/css">
	.st0{fill:#1096A0;}
	.st1{fill:url(#SVGID_1_);}
	.st2{fill:#FFFFFF;}
</style>
<path class="st0" d="M20,32h-8C5.4,32,0,26.6,0,20v-8C0,5.4,5.4,0,12,0h8c6.6,0,12,5.4,12,12v8C32,26.6,26.6,32,20,32z"/>
<linearGradient id="SVGID_1_" gradientUnits="userSpaceOnUse" x1="7.2681" y1="0.8759" x2="24.7319" y2="31.1241">
	<stop  offset="0" style="stop-color:#FFFFFF;stop-opacity:0.5"/>
	<stop  offset="1" style="stop-color:#FFFFFF;stop-opacity:0"/>
</linearGradient>
<path class="st1" d="M20,32h-8C5.4,32,0,26.6,0,20v-8C0,5.4,5.4,0,12,0h8c6.6,0,12,5.4,12,12v8C32,26.6,26.6,32,20,32z"/>
<path class="st2" d="M10.5,19.3c-1.8-3-0.8-6.9,2.2-8.7c2-1.2,4.5-1.2,6.4,0L20.7,9L20.7,9C16.8,6.4,11.5,7.5,9,11.4
	c-1.9,2.9-1.9,6.6,0.1,9.4L10.5,19.3z"/>
<circle class="st2" cx="25.1" cy="6.9" r="1.9"/>
<path class="st2" d="M21.5,12.8c1.8,3,0.8,6.9-2.2,8.7c-2,1.2-4.5,1.2-6.4,0L11.3,23c3.9,2.6,9.1,1.6,11.7-2.2
	c1.9-2.9,1.9-6.6,0-9.5L21.5,12.8z"/>
<circle class="st2" cx="6.9" cy="25.1" r="1.9"/>
</svg>
