<?xml version="1.0" encoding="utf-8"?>
<!-- Generator: Adobe Illustrator 23.0.0, SVG Export Plug-In . SVG Version: 6.00 Build 0)  -->
<svg version="1.1" id="Layer_1" xmlns="http://www.w3.org/2000/svg" xmlns:xlink="http://www.w3.org/1999/xlink" x="0px" y="0px"
	 width="32px" height="32px" viewBox="0 0 32 32" style="enable-background:new 0 0 32 32;" xml:space="preserve">
<style type="text/css">
	.st0{fill:#373A3F;}
	.st1{fill:url(#SVGID_1_);}
	.st2{fill:#FFFFFF;}
</style>
<path class="st0" d="M20,32h-8C5.4,32,0,26.6,0,20v-8C0,5.4,5.4,0,12,0h8c6.6,0,12,5.4,12,12v8C32,26.6,26.6,32,20,32z"/>
<linearGradient id="SVGID_1_" gradientUnits="userSpaceOnUse" x1="7.2681" y1="0.8759" x2="24.7319" y2="31.1241">
	<stop  offset="0" style="stop-color:#FFFFFF;stop-opacity:0.5"/>
	<stop  offset="1" style="stop-color:#FFFFFF;stop-opacity:0"/>
</linearGradient>
<path class="st1" d="M20,32h-8C5.4,32,0,26.6,0,20v-8C0,5.4,5.4,0,12,0h8c6.6,0,12,5.4,12,12v8C32,26.6,26.6,32,20,32z"/>
<path class="st2" d="M18,10.2c0.1,0.2,0.3,0.2,0.5,0.2c0,0,0.1,0,0.1-0.1c0.2-0.1,0.3-0.4,0.1-0.6c-0.1-0.1-0.2-0.2-0.4-0.2
	c-0.1,0-0.2,0-0.3,0.1C17.9,9.7,17.8,10,18,10.2 M16.8,9.1c0,0.1,0.1,0.3,0.2,0.4c0.2,0.2,0.6,0.2,0.8,0s0.2-0.6,0-0.8c0,0,0,0,0,0
	c-0.1-0.1-0.2-0.1-0.4-0.1c-0.2,0-0.3,0.1-0.4,0.2C16.8,8.8,16.8,8.9,16.8,9.1 M15.6,8.8c0.1,0.1,0.2,0.1,0.3,0.1c0.1,0,0.1,0,0.2,0
	c0.2,0,0.3-0.2,0.4-0.3c0.2-0.3,0.1-0.7-0.2-0.9c-0.1,0-0.2-0.1-0.3-0.1c-0.2,0-0.4,0.1-0.6,0.3C15.2,8.2,15.3,8.6,15.6,8.8
	 M13.8,8.4c0.1,0,0.3,0,0.4,0c0.4-0.1,0.6-0.5,0.5-0.9c-0.1-0.2-0.3-0.4-0.5-0.5c-0.1,0-0.1,0-0.2,0c-0.3,0-0.6,0.2-0.7,0.5
	C13.2,7.9,13.5,8.3,13.8,8.4 M11.7,8.5c0.5,0,0.9-0.3,0.9-0.8c0-0.2-0.1-0.5-0.2-0.6c-0.2-0.2-0.4-0.3-0.6-0.3h0
	c-0.5,0-0.8,0.4-0.9,0.8C10.9,8,11.3,8.4,11.7,8.5 M8.2,8.2C8.3,8.8,8.8,9.1,9.4,9c0.5-0.1,0.9-0.6,0.8-1.2C10.1,7.3,9.5,7,9,7.1
	C8.5,7.2,8.1,7.7,8.2,8.2C8.2,8.2,8.2,8.2,8.2,8.2 M18.1,12c0.2-0.2,0.2-0.6,0-0.8c-0.2-0.2-0.6-0.2-0.8,0c-0.2,0.2-0.2,0.6,0,0.8
	c0.1,0.1,0.2,0.1,0.4,0.1c0.1,0,0.1,0,0.2,0C18,12.1,18.1,12.1,18.1,12 M16.9,10.7c0-0.2-0.2-0.3-0.3-0.4c-0.1,0-0.2-0.1-0.3-0.1
	c-0.2,0-0.4,0.1-0.6,0.3c-0.2,0.3-0.1,0.7,0.2,0.9c0.1,0.1,0.3,0.1,0.5,0.1c0.2,0,0.3-0.2,0.4-0.3C16.9,11,17,10.8,16.9,10.7
	 M15.2,10.5c0.1-0.2,0-0.4-0.1-0.6c-0.1-0.2-0.3-0.3-0.4-0.3c-0.1,0-0.1,0-0.2,0c-0.3,0-0.6,0.2-0.7,0.5c-0.1,0.4,0.1,0.8,0.5,0.9
	C14.6,11.2,15.1,10.9,15.2,10.5 M13.1,10.3c0-0.2-0.1-0.5-0.2-0.6c-0.2-0.2-0.4-0.3-0.6-0.3c0,0,0,0,0,0c-0.4,0-0.8,0.4-0.9,0.8
	c0,0.5,0.3,0.9,0.8,0.9h0C12.7,11.1,13,10.7,13.1,10.3 M9.6,9.7c-0.6,0-1,0.4-1,1c0,0.6,0.4,1,1,1c0.1,0,0.2,0,0.3,0
	c0.5-0.2,0.8-0.7,0.7-1.3C10.4,10,10,9.7,9.6,9.7 M5.6,12.4c0.2,0.4,0.6,0.7,1.1,0.7c0.1,0,0.2,0,0.3,0c0,0,0.1,0,0.1,0
	c0.6-0.3,0.9-0.9,0.6-1.5c-0.3-0.6-0.9-0.9-1.5-0.6C5.7,11.1,5.4,11.8,5.6,12.4L5.6,12.4 M17.8,13.2c-0.1,0-0.2-0.1-0.3-0.1
	c-0.2,0-0.4,0.1-0.6,0.3c-0.2,0.3-0.1,0.7,0.2,0.9c0.1,0.1,0.3,0.1,0.5,0.1c0.3-0.1,0.5-0.5,0.4-0.8C18,13.4,17.9,13.3,17.8,13.2
	 M15,13.6c0.2,0.4,0.6,0.5,1,0.3c0.4-0.2,0.5-0.6,0.3-1c-0.1-0.2-0.3-0.3-0.4-0.3c-0.1,0-0.1,0-0.2,0c-0.3,0-0.6,0.2-0.7,0.5
	C14.9,13.2,14.9,13.4,15,13.6 M14.2,13.2c0-0.5-0.3-0.9-0.8-0.9h0c-0.4,0-0.8,0.4-0.9,0.8c0,0.5,0.3,0.9,0.8,0.9h0
	c0.1,0,0.2,0,0.2,0C14,13.8,14.2,13.5,14.2,13.2 M10.8,14.6c0.1,0,0.1,0,0.2,0c0,0,0.1,0,0.1,0c0.5-0.2,0.8-0.7,0.7-1.2
	s-0.7-0.8-1.2-0.7s-0.8,0.7-0.7,1.2C9.9,14.3,10.3,14.6,10.8,14.6 M9,15.2c0.1-0.3,0.1-0.6,0-0.9c-0.2-0.4-0.6-0.7-1.1-0.7
	c-0.2,0-0.3,0-0.4,0.1c-0.3,0.1-0.5,0.3-0.6,0.6c-0.2,0.6,0,1.3,0.7,1.5C7.6,15.9,7.7,16,7.9,16c0.1,0,0.2,0,0.3,0
	C8.6,15.8,8.8,15.6,9,15.2 M6,16.2c-0.3-0.4-0.7-0.6-1.1-0.6c-0.1,0-0.3,0-0.4,0.1c-0.7,0.2-1.1,1-0.9,1.7c0.2,0.7,1,1.1,1.7,0.9
	c0.7-0.2,1.1-1,0.9-1.7C6.2,16.4,6.1,16.3,6,16.2 M20.8,21c0-0.2-0.2-0.4-0.5-0.4c0,0,0,0,0,0c-0.2,0-0.4,0.2-0.4,0.4
	c0,0,0,0.1,0,0.1c0,0.2,0.2,0.4,0.5,0.4c0,0,0,0,0,0c0.1,0,0.2-0.1,0.3-0.2C20.8,21.2,20.8,21.1,20.8,21 M21.1,20.5
	c-0.1,0.3,0.1,0.6,0.4,0.6s0.6-0.1,0.6-0.4c0-0.1,0-0.2,0-0.3c0-0.1-0.1-0.3-0.3-0.3c-0.1,0-0.2-0.1-0.2-0.1c-0.1,0-0.1,0-0.2,0
	C21.3,20.1,21.2,20.3,21.1,20.5 M22.4,19.6c-0.1,0.3,0.1,0.7,0.5,0.8c0.1,0,0.1,0,0.2,0c0.1,0,0.2,0,0.3-0.1
	c0.3-0.2,0.4-0.6,0.2-0.9c-0.1-0.2-0.3-0.3-0.5-0.3C22.8,19.1,22.5,19.3,22.4,19.6 M24.4,19.1c0.2,0,0.4-0.1,0.5-0.2
	c0.3-0.3,0.3-0.8,0-1c-0.1-0.1-0.3-0.2-0.5-0.2c-0.4,0-0.7,0.3-0.7,0.7C23.7,18.8,24,19.1,24.4,19.1L24.4,19.1z M26.4,17
	c0.3-0.4,0.1-0.9-0.3-1.2c-0.4-0.3-0.9-0.1-1.2,0.3c0,0,0,0,0,0l0,0c-0.1,0.1-0.1,0.2-0.1,0.3c-0.1,0.5,0.2,0.9,0.6,1
	c0.1,0,0.1,0,0.2,0C25.9,17.4,26.2,17.2,26.4,17 M26.9,13.1c-0.1,0-0.2-0.1-0.3-0.1c-0.4,0-0.8,0.3-0.9,0.7c0,0,0,0.1,0,0.1
	c-0.1,0.5,0.2,1,0.6,1.2c0.1,0,0.2,0.1,0.3,0.1c0.4,0,0.8-0.3,0.9-0.7C27.7,13.8,27.4,13.3,26.9,13.1 M18.7,19.5
	c-0.1,0.3,0.1,0.6,0.4,0.7c0,0,0.1,0,0.1,0c0.1,0,0.1,0,0.2,0c0.3-0.1,0.4-0.4,0.3-0.7c0-0.1-0.1-0.2-0.3-0.3l0,0
	c-0.1,0-0.2-0.1-0.2-0.1C18.9,19.1,18.7,19.3,18.7,19.5 M20.4,19.4c0.2,0,0.3,0,0.5-0.1c0.3-0.2,0.4-0.6,0.2-0.9
	c-0.1-0.2-0.3-0.3-0.5-0.3c-0.3,0-0.5,0.2-0.6,0.5c0,0.2,0,0.3,0.1,0.5C20.1,19.3,20.3,19.4,20.4,19.4 M22,18.2
	c0.2,0,0.4-0.1,0.5-0.2c0.3-0.3,0.3-0.7,0-1c-0.3-0.3-0.7-0.3-1,0c-0.3,0.3-0.3,0.7,0,1C21.6,18.1,21.8,18.2,22,18.2L22,18.2z
	 M23.9,16c0.1-0.2,0.2-0.4,0.1-0.6c-0.1-0.5-0.5-0.8-1-0.7c-0.2,0-0.4,0.2-0.6,0.4c-0.3,0.4-0.1,0.9,0.3,1.2
	c0.1,0.1,0.3,0.1,0.5,0.1c0.1,0,0.1,0,0.2,0C23.6,16.4,23.8,16.2,23.9,16 M23.7,14c0.5,0.2,1.1-0.1,1.3-0.6c0.2-0.5-0.1-1.1-0.6-1.3
	c-0.5-0.2-1.1,0.1-1.3,0.6c0,0,0,0,0,0c0,0,0,0.1,0,0.1C23,13.3,23.3,13.8,23.7,14 M24.3,11.1c0,0,0.1,0,0.1,0
	c0.6,0,1.2-0.5,1.2-1.2c0-0.6-0.4-1.1-1-1.2c0,0-0.1,0-0.1,0c-0.5,0-1,0.4-1.1,0.9c0,0,0,0.1,0,0.1c0,0.3,0,0.6,0.2,0.9
	C23.7,10.9,24,11.1,24.3,11.1 M18.1,18.5c0-0.2,0-0.3-0.1-0.5c-0.2-0.3-0.6-0.4-0.9-0.2c-0.1,0.1-0.2,0.2-0.3,0.4
	c0,0.2,0,0.3,0.1,0.5c0.2,0.3,0.6,0.4,0.9,0.2C18,18.8,18.1,18.7,18.1,18.5 M18.9,17.8L18.9,17.8c0.2,0,0.4-0.1,0.5-0.2
	c0.3-0.3,0.3-0.8,0-1c-0.3-0.3-0.7-0.3-1,0c0,0,0,0,0,0l0,0c-0.1,0.1-0.2,0.2-0.2,0.4c-0.1,0.4,0.1,0.8,0.5,0.9
	C18.8,17.8,18.8,17.8,18.9,17.8 M19.6,15.9c0.4,0.3,0.9,0.1,1.2-0.3l0,0c0.2-0.4,0.1-0.9-0.3-1.2c-0.4-0.3-0.9-0.1-1.2,0.3
	C19.1,15.1,19.2,15.6,19.6,15.9 M21.3,11.7c-0.5-0.2-1.1,0.1-1.3,0.6c-0.2,0.5,0.1,1.1,0.6,1.3l0,0c0.1,0,0.2,0.1,0.3,0.1
	c0.6,0,1-0.4,1-1C22,12.2,21.7,11.8,21.3,11.7 M21.5,8.4c0,0-0.1,0-0.1,0c-0.5,0-1,0.4-1.1,0.9c0,0,0,0.1,0,0.1
	c-0.1,0.6,0.4,1.2,1,1.3c0,0,0,0,0,0c0,0,0.1,0,0.1,0c0.6,0,1.1-0.5,1.2-1C22.6,9,22.2,8.4,21.5,8.4L21.5,8.4 M21,7.2
	c0,0,0.1,0,0.1,0c0.8-0.1,1.3-0.8,1.2-1.5C22.3,5,21.7,4.5,21,4.5c0,0-0.1,0-0.1,0c-0.6,0.1-1.1,0.5-1.2,1c0,0.2,0,0.3,0,0.5
	C19.7,6.7,20.3,7.2,21,7.2 M10.1,16.9c-0.2-0.2-0.5-0.2-0.7,0c0,0-0.1,0.1-0.1,0.1c-0.1,0.1-0.1,0.2,0,0.4c0,0.1,0.1,0.2,0.2,0.3
	c0.1,0,0.1,0,0.2,0l0,0c0.3,0,0.5-0.2,0.5-0.5C10.3,17.1,10.2,17,10.1,16.9 M9.6,18.1C9.3,18,9,18.2,9,18.5
	c-0.1,0.3,0.1,0.6,0.4,0.6C9.7,19.2,10,19,10,18.7v0C10.1,18.4,9.9,18.1,9.6,18.1L9.6,18.1 M9.5,20.8c0.3,0,0.6-0.3,0.6-0.6
	c0-0.2-0.1-0.3-0.2-0.4c-0.1-0.1-0.3-0.2-0.4-0.2c-0.2,0-0.3,0.1-0.5,0.2c-0.1,0.1-0.2,0.3-0.2,0.4C8.9,20.6,9.2,20.8,9.5,20.8
	L9.5,20.8z M10,22.8c0.1,0,0.1,0,0.2,0c0.4-0.1,0.6-0.5,0.5-0.9c-0.1-0.3-0.4-0.6-0.7-0.6c-0.1,0-0.1,0-0.2,0
	c-0.4,0.1-0.6,0.5-0.5,0.9C9.4,22.6,9.7,22.8,10,22.8 M11.4,24.9c0.4-0.2,0.6-0.7,0.4-1.2c-0.2-0.4-0.7-0.6-1.2-0.4
	c-0.2,0.1-0.4,0.3-0.4,0.5c-0.1,0.2-0.1,0.5,0.1,0.7c0.2,0.3,0.5,0.5,0.8,0.5C11.2,25,11.3,24.9,11.4,24.9 M13.5,25.5
	C13.5,25.5,13.5,25.4,13.5,25.5C13,25,12.4,25,12,25.4c-0.4,0.4-0.4,1,0,1.4c0.2,0.2,0.4,0.3,0.7,0.3c0.2,0,0.5-0.1,0.6-0.2
	C13.8,26.5,13.9,25.9,13.5,25.5 M11.7,16.4c0,0-0.1,0-0.1,0c-0.3,0-0.5,0.2-0.6,0.5s0.2,0.5,0.5,0.6c0.3,0,0.5-0.2,0.6-0.5
	C12.1,16.7,11.9,16.4,11.7,16.4 M11.6,19.2c0.4,0,0.6-0.3,0.6-0.7c0-0.2-0.1-0.3-0.2-0.4c-0.1-0.1-0.3-0.2-0.4-0.2h0
	c-0.2,0-0.3,0.1-0.4,0.2C11,18.2,11,18.4,11,18.6C11,18.9,11.3,19.2,11.6,19.2L11.6,19.2z M11.4,20c-0.1,0.2-0.1,0.4-0.1,0.6
	c0.1,0.3,0.4,0.6,0.7,0.6c0.1,0,0.1,0,0.2,0c0.4-0.1,0.6-0.5,0.5-0.9c-0.1-0.4-0.5-0.6-0.9-0.5c-0.1,0-0.3,0.1-0.3,0.2
	C11.5,19.9,11.4,20,11.4,20 M12.3,22.2c-0.1,0.2-0.1,0.5,0.1,0.7c0.2,0.3,0.5,0.5,0.8,0.5l0,0c0.1,0,0.3,0,0.4-0.1
	c0.4-0.2,0.6-0.7,0.4-1.2c0-0.1-0.1-0.2-0.2-0.2c-0.2-0.2-0.4-0.2-0.6-0.2c-0.1,0-0.3,0-0.4,0.1C12.5,21.8,12.3,21.9,12.3,22.2
	 M15.6,23.8C15.5,23.8,15.5,23.8,15.6,23.8c-0.3-0.3-0.5-0.4-0.8-0.4c-0.6,0-1,0.5-1,1c0,0.2,0.1,0.5,0.2,0.6
	c0.2,0.2,0.5,0.4,0.8,0.4c0.2,0,0.5-0.1,0.6-0.2C15.9,24.9,15.9,24.2,15.6,23.8 M18.1,25.5c0,0-0.1-0.1-0.1-0.1
	c-0.2-0.2-0.5-0.2-0.7-0.2c-0.1,0-0.1,0-0.2,0c-0.6,0.1-1.1,0.7-1,1.3c0.1,0.6,0.7,1.1,1.3,1c0.6-0.1,1.1-0.7,1-1.3
	C18.4,25.9,18.3,25.7,18.1,25.5 M13.5,16.7c0.4,0,0.6-0.3,0.6-0.6c0-0.2-0.1-0.3-0.2-0.4c-0.1-0.1-0.3-0.2-0.4-0.2
	c-0.3,0-0.6,0.3-0.6,0.6c0,0,0,0,0,0l0,0C12.9,16.4,13.2,16.7,13.5,16.7L13.5,16.7z M13.3,18.1c0.1,0.3,0.4,0.6,0.7,0.6
	c0.1,0,0.1,0,0.2,0c0.4-0.1,0.6-0.5,0.5-0.9c0-0.1-0.1-0.3-0.2-0.4c-0.1-0.1-0.3-0.2-0.5-0.2c-0.1,0-0.1,0-0.2,0
	C13.4,17.3,13.2,17.7,13.3,18.1 M14.2,20.4c0.2,0.3,0.5,0.5,0.8,0.5l0,0c0.1,0,0.3,0,0.4-0.1c0.4-0.2,0.6-0.7,0.4-1.2
	c-0.2-0.4-0.7-0.6-1.2-0.4C14.2,19.4,14,19.9,14.2,20.4C14.2,20.3,14.2,20.3,14.2,20.4 M15.9,22.6c0.2,0.2,0.5,0.4,0.8,0.4
	c0.6,0,1-0.5,1-1c0-0.2-0.1-0.5-0.2-0.6c0,0,0-0.1-0.1-0.1c-0.4-0.4-0.9-0.4-1.3,0C15.6,21.6,15.6,22.2,15.9,22.6 M20.1,24.6
	c0.4-0.5,0.3-1.3-0.2-1.6c-0.5-0.4-1.1-0.3-1.5,0.1c0,0-0.1,0.1-0.1,0.1c-0.4,0.5-0.3,1.3,0.2,1.7c0.2,0.1,0.4,0.2,0.7,0.2
	c0.1,0,0.1,0,0.2,0C19.7,25,19.9,24.8,20.1,24.6 M23.5,24.4c-0.1-0.1-0.2-0.2-0.4-0.3C22.9,24,22.7,24,22.6,24
	c-0.8,0-1.4,0.6-1.4,1.4c0,0.4,0.2,0.7,0.4,1c0.1,0.1,0.2,0.2,0.4,0.3c0.2,0.1,0.4,0.1,0.6,0.1c0.8,0,1.4-0.6,1.4-1.4
	C23.9,25,23.8,24.6,23.5,24.4"/>
</svg>
