<?xml version="1.0" encoding="utf-8"?>
<!-- Generator: Adobe Illustrator 23.0.0, SVG Export Plug-In . SVG Version: 6.00 Build 0)  -->
<svg version="1.1" id="Layer_1" xmlns="http://www.w3.org/2000/svg" xmlns:xlink="http://www.w3.org/1999/xlink" x="0px" y="0px"
	 width="32px" height="32px" viewBox="0 0 32 32" style="enable-background:new 0 0 32 32;" xml:space="preserve">
<style type="text/css">
	.st0{fill:#016681;}
	.st1{fill:url(#SVGID_1_);}
	.st2{fill:#FFFFFF;}
</style>
<path class="st0" d="M20,32h-8C5.4,32,0,26.6,0,20v-8C0,5.4,5.4,0,12,0h8c6.6,0,12,5.4,12,12v8C32,26.6,26.6,32,20,32z"/>
<linearGradient id="SVGID_1_" gradientUnits="userSpaceOnUse" x1="7.2681" y1="0.8759" x2="24.7319" y2="31.1241">
	<stop  offset="0" style="stop-color:#FFFFFF;stop-opacity:0.5"/>
	<stop  offset="1" style="stop-color:#FFFFFF;stop-opacity:0"/>
</linearGradient>
<path class="st1" d="M20,32h-8C5.4,32,0,26.6,0,20v-8C0,5.4,5.4,0,12,0h8c6.6,0,12,5.4,12,12v8C32,26.6,26.6,32,20,32z"/>
<g id="kmd">
	<path id="Path" class="st2" d="M16.2,27.8c-4.3,0.1-8.3-2.1-10.5-5.8s-2.2-8.3,0-12s6.2-5.9,10.5-5.8c0.9,0,1.8,0.1,2.7,0.3
		c0.3,0.1,0.6,0.3,0.8,0.6c0.2,0.3,0.2,0.6,0.2,1C19.7,6.7,19,7.1,18.3,7c-0.7-0.2-1.4-0.2-2.1-0.2c-5.1,0-9.3,4.1-9.3,9.3
		s4.1,9.3,9.3,9.3s9.3-4.1,9.3-9.3c0-0.7-0.1-1.5-0.3-2.2c-0.1-0.4,0.1-0.9,0.4-1.2c0.3-0.3,0.8-0.4,1.2-0.3
		c0.4,0.1,0.8,0.5,0.9,0.9c0.2,0.9,0.3,1.8,0.3,2.7c0,3.1-1.2,6.1-3.5,8.3S19.3,27.8,16.2,27.8z"/>
	<path class="st2" d="M24.8,7.4C24.5,7,24,6.8,23.5,6.8s-1,0.2-1.3,0.6l0,0c-0.3,0.3-0.5,0.7-0.5,1.1l0,0c0,0.1,0,0.1,0,0.2
		c0,0,0,0.1,0,0.1c-0.1,0.8-0.4,1.5-1,2c-0.8,0.8-2,1.2-3.2,0.9h-0.3c-0.4-0.1-0.7-0.1-1.1-0.1c-1.1,0-2.1,0.4-2.9,1.2l-0.1,0.1
		c-1.5,1.4-1.7,3.7-0.6,5.5c1.1,1.7,3.3,2.4,5.2,1.7c0.6-0.2,1.1-0.5,1.5-1c0.2-0.2,0.3-0.4,0.5-0.6c0.7-1,1-2.3,0.7-3.5v-0.2l0,0
		c-0.3-1.1,0.1-2.3,0.9-3.1c0.6-0.6,1.3-0.9,2.1-1h0.3c0.4,0,0.8-0.2,1.2-0.5c0-0.1,0-0.2,0-0.3C25.5,9.1,25.4,8,24.8,7.4z"/>
</g>
</svg>
