<?xml version="1.0" encoding="utf-8"?>
<!-- Generator: Adobe Illustrator 23.0.0, SVG Export Plug-In . SVG Version: 6.00 Build 0)  -->
<svg version="1.1" id="Layer_1" xmlns="http://www.w3.org/2000/svg" xmlns:xlink="http://www.w3.org/1999/xlink" x="0px" y="0px"
	 width="32px" height="32px" viewBox="0 0 32 32" style="enable-background:new 0 0 32 32;" xml:space="preserve">
<style type="text/css">
	.st0{fill:#2AC494;}
	.st1{fill:url(#SVGID_1_);}
	.st2{fill:#FFFFFF;}
</style>
<path class="st0" d="M20,32h-8C5.4,32,0,26.6,0,20v-8C0,5.4,5.4,0,12,0h8c6.6,0,12,5.4,12,12v8C32,26.6,26.6,32,20,32z"/>
<linearGradient id="SVGID_1_" gradientUnits="userSpaceOnUse" x1="7.2681" y1="0.8759" x2="24.7319" y2="31.1241">
	<stop  offset="0" style="stop-color:#FFFFFF;stop-opacity:0.5"/>
	<stop  offset="1" style="stop-color:#FFFFFF;stop-opacity:0"/>
</linearGradient>
<path class="st1" d="M20,32h-8C5.4,32,0,26.6,0,20v-8C0,5.4,5.4,0,12,0h8c6.6,0,12,5.4,12,12v8C32,26.6,26.6,32,20,32z"/>
<path class="st2" d="M14.7,16l8.9,5.1c0.2,0.1,0.5,0.1,0.6-0.2c0-0.1,0.1-0.2,0.1-0.2v-9.4c0-0.3-0.2-0.5-0.5-0.5
	c-0.1,0-0.2,0-0.3,0.1L14.7,16z"/>
<path class="st2" d="M23.5,8.6l-6.1-4.5c-0.2-0.2-0.5-0.1-0.7,0.1c0,0.1-0.1,0.1-0.1,0.2l-2.2,10l9.1-5c0.2-0.1,0.3-0.4,0.2-0.6
	C23.6,8.7,23.6,8.6,23.5,8.6"/>
<path class="st2" d="M17.4,27.9l6.1-4.5c0.2-0.1,0.3-0.4,0.1-0.6c0-0.1-0.1-0.1-0.2-0.1l-9.1-5l2.2,10c0.1,0.3,0.3,0.4,0.6,0.4
	C17.3,28,17.3,27.9,17.4,27.9"/>
<path class="st2" d="M12.4,15.8l2.3-10.9c0-0.3-0.1-0.5-0.4-0.5c-0.1,0-0.2,0-0.4,0.1L8.1,9c-0.3,0.2-0.5,0.6-0.5,1v11.6
	c0,0.4,0.2,0.8,0.5,1l5.9,4.6c0.2,0.1,0.5,0.1,0.6-0.1c0.1-0.1,0.1-0.2,0.1-0.4L12.4,15.8z"/>
</svg>
