<?xml version="1.0" encoding="utf-8"?>
<!-- Generator: Adobe Illustrator 23.0.0, SVG Export Plug-In . SVG Version: 6.00 Build 0)  -->
<svg version="1.1" id="Layer_1" xmlns="http://www.w3.org/2000/svg" xmlns:xlink="http://www.w3.org/1999/xlink" x="0px" y="0px"
	 width="32px" height="32px" viewBox="0 0 32 32" style="enable-background:new 0 0 32 32;" xml:space="preserve">
<style type="text/css">
	.st0{fill:#02819B;}
	.st1{fill:url(#SVGID_1_);}
	.st2{fill:#FFFFFF;}
</style>
<path class="st0" d="M20,32h-8C5.4,32,0,26.6,0,20v-8C0,5.4,5.4,0,12,0h8c6.6,0,12,5.4,12,12v8C32,26.6,26.6,32,20,32z"/>
<linearGradient id="SVGID_1_" gradientUnits="userSpaceOnUse" x1="7.2681" y1="0.8759" x2="24.7319" y2="31.1241">
	<stop  offset="0" style="stop-color:#FFFFFF;stop-opacity:0.5"/>
	<stop  offset="1" style="stop-color:#FFFFFF;stop-opacity:0"/>
</linearGradient>
<path class="st1" d="M20,32h-8C5.4,32,0,26.6,0,20v-8C0,5.4,5.4,0,12,0h8c6.6,0,12,5.4,12,12v8C32,26.6,26.6,32,20,32z"/>
<title>rgb-logo-only</title>
<path class="st2" d="M22,26.2l-15.7-11c-1.8-1.3-2.3-3.8-1-5.7c0.3-0.4,0.6-0.7,1-1L10,5.8l15.7,11c1.8,1.3,2.3,3.8,1,5.7
	c-0.3,0.4-0.6,0.7-1,1L22,26.2z M10,7.6l-3,2.1c-1.2,0.8-1.5,2.5-0.6,3.6c0.2,0.3,0.4,0.5,0.6,0.6L22,24.4l3-2.1
	c1.2-0.8,1.5-2.5,0.6-3.6c-0.2-0.2-0.4-0.5-0.6-0.6L10,7.6z"/>
<path class="st2" d="M10,24.8l-3-2.1c-1.2-0.8-1.5-2.5-0.6-3.6c0.2-0.2,0.4-0.5,0.6-0.6l7.7-5.4l-1.3-0.9l-7.2,5.1
	c-1.8,1.3-2.3,3.8-1,5.7c0.3,0.4,0.6,0.7,1,1l3.8,2.7l4.7-3.3l-1.3-0.9L10,24.8z"/>
<path class="st2" d="M25.8,8.5L22,5.8l-4.7,3.3l1.3,0.9L22,7.6l3,2.1c1.2,0.8,1.5,2.5,0.6,3.6c-0.2,0.2-0.4,0.5-0.6,0.6l-7.7,5.4
	l1.3,0.9l7.2-5.1c1.8-1.3,2.3-3.8,1-5.7C26.5,9.1,26.2,8.8,25.8,8.5L25.8,8.5z"/>
<rect x="6.9" y="14" transform="matrix(0.8194 -0.5733 0.5733 0.8194 -6.5244 8.7021)" class="st2" width="7.3" height="1.5"/>
<path class="st2" d="M24.2,14.5l-2.9,2l0.8,1.2l3-2.1C24.8,15.3,24.5,14.9,24.2,14.5z"/>
</svg>
