<?xml version="1.0" encoding="utf-8"?>
<!-- Generator: Adobe Illustrator 23.0.0, SVG Export Plug-In . SVG Version: 6.00 Build 0)  -->
<svg version="1.1" id="Layer_1" xmlns="http://www.w3.org/2000/svg" xmlns:xlink="http://www.w3.org/1999/xlink" x="0px" y="0px"
	 width="32px" height="32px" viewBox="0 0 32 32" style="enable-background:new 0 0 32 32;" xml:space="preserve">
<style type="text/css">
	.st0{fill:#187C40;}
	.st1{fill:url(#SVGID_1_);}
	.st2{fill-rule:evenodd;clip-rule:evenodd;fill:#FDFFEE;}
	.st3{fill-rule:evenodd;clip-rule:evenodd;fill:#EBFAFF;}
	.st4{fill-rule:evenodd;clip-rule:evenodd;fill:#FFFEEB;}
	.st5{fill-rule:evenodd;clip-rule:evenodd;fill:#EBFFE9;}
	.st6{fill-rule:evenodd;clip-rule:evenodd;fill:#E9FFF8;}
	.st7{fill-rule:evenodd;clip-rule:evenodd;fill:#EBFFF3;}
</style>
<path class="st0" d="M20,32h-8C5.4,32,0,26.6,0,20v-8C0,5.4,5.4,0,12,0h8c6.6,0,12,5.4,12,12v8C32,26.6,26.6,32,20,32z"/>
<linearGradient id="SVGID_1_" gradientUnits="userSpaceOnUse" x1="7.2681" y1="0.8759" x2="24.7319" y2="31.1241">
	<stop  offset="0" style="stop-color:#FFFFFF;stop-opacity:0.5"/>
	<stop  offset="1" style="stop-color:#FFFFFF;stop-opacity:0"/>
</linearGradient>
<path class="st1" d="M20,32h-8C5.4,32,0,26.6,0,20v-8C0,5.4,5.4,0,12,0h8c6.6,0,12,5.4,12,12v8C32,26.6,26.6,32,20,32z"/>
<g id="paxos-logo" transform="translate(150.000000, 67.000000)">
	<path id="Fill-1" class="st2" d="M-139.3-59.4c0.5-0.5,0.9-1,1.3-1.3c-6.8-0.2-4.8,4.7-7,9.7c-2.5,5.8,0.3,8,4.5,8.6
		c-0.6-0.7-1.1-1.5-1.4-2.4C-144.7-48.3-143.6-54.6-139.3-59.4"/>
	<path id="Fill-3" class="st3" d="M-123.1-53.3c-0.6,1.8-1.8,3.8-3.4,5.8c-1.3,1.5-2.7,2.7-4.1,3.6c-1.7,1.1-3.8,1.8-6.1,1.8
		c-1.3,0-2.6-0.1-3.8-0.3c0.7,0.8,1.5,1.5,2.5,2c6.1,3,6.5-2.6,13-5.4C-121.4-47.4-121.4-50.5-123.1-53.3"/>
	<path id="Fill-5" class="st4" d="M-130.6-59.1c0.9,0.2,1.8,0.5,2.5,0.9c2.1,1.2,3.9,3,5,4.9c1.1-3.1,0.6-5.6-1.8-6
		c-2.6-0.5-4.7-0.6-6.7-2c-2.4-1.7-4.6-1.2-6.5,0.6c0.1,0,0.3,0,0.4,0C-135.1-60.6-132.6-60.1-130.6-59.1"/>
	<path id="Fill-7" class="st5" d="M-139.3-59.4c-4.3,4.8-5.4,11.2-2.6,14.6c-1.2-2.9-1.1-6.5,0.6-9.4c2.3-3.9,6.9-5.5,10.7-4.8
		c-2-1-4.4-1.6-7-1.7c-0.1,0-0.3,0-0.4,0C-138.5-60.4-138.9-60-139.3-59.4"/>
	<path id="Fill-9" class="st6" d="M-128.1-58.2c-0.8-0.4-1.6-0.7-2.5-0.9c2.6,1.4,4.3,3.7,4.3,7.4c0,3.2-1.7,6-4.3,7.7
		c1.5-0.9,2.9-2.1,4.1-3.6c1.6-2,2.8-4,3.4-5.8C-124.2-55.2-126.1-57-128.1-58.2"/>
	<path id="Fill-11" class="st7" d="M-131.1-45.7c-2.9,1.9-6.8,1-8.7-1.9c-1.9-2.9-1-6.7,1.9-8.7c3.2-2.3,7.2-1.4,8.7,1.9
		C-127.7-51.2-128.1-47.6-131.1-45.7 M-130.6-59.1c-3.8-0.7-8.4,1-10.7,4.8c-1.7,2.9-1.8,6.5-0.6,9.4c0.4,0.9,0.8,1.7,1.4,2.4
		c1.2,0.2,2.5,0.3,3.8,0.3c2.3,0,4.4-0.6,6.1-1.8c2.6-1.7,4.3-4.5,4.3-7.7C-126.3-55.4-128-57.7-130.6-59.1"/>
</g>
</svg>
