<?xml version="1.0" encoding="utf-8"?>
<!-- Generator: Adobe Illustrator 23.0.0, SVG Export Plug-In . SVG Version: 6.00 Build 0)  -->
<svg version="1.1" id="Layer_1" xmlns="http://www.w3.org/2000/svg" xmlns:xlink="http://www.w3.org/1999/xlink" x="0px" y="0px"
	 width="32px" height="32px" viewBox="0 0 32 32" style="enable-background:new 0 0 32 32;" xml:space="preserve">
<style type="text/css">
	.st0{fill:#1A3083;}
	.st1{fill:url(#SVGID_1_);}
	.st2{fill:#FFFFFF;}
</style>
<path class="st0" d="M20,32h-8C5.4,32,0,26.6,0,20v-8C0,5.4,5.4,0,12,0h8c6.6,0,12,5.4,12,12v8C32,26.6,26.6,32,20,32z"/>
<linearGradient id="SVGID_1_" gradientUnits="userSpaceOnUse" x1="7.2681" y1="0.8759" x2="24.7319" y2="31.1241">
	<stop  offset="0" style="stop-color:#FFFFFF;stop-opacity:0.5"/>
	<stop  offset="1" style="stop-color:#FFFFFF;stop-opacity:0"/>
</linearGradient>
<path class="st1" d="M20,32h-8C5.4,32,0,26.6,0,20v-8C0,5.4,5.4,0,12,0h8c6.6,0,12,5.4,12,12v8C32,26.6,26.6,32,20,32z"/>
<path class="st2" d="M25.4,8.3c-0.4-0.1-0.8,0-1.1,0.3c-1.6,2.1-3.2,4.1-4.9,6.2c-0.9-1.1-1.8-2.2-2.7-3.3c0-0.1-0.3-0.3-0.7-0.4
	c-0.5,0-0.9,0.4-0.9,0.4c-0.9,1.1-1.8,2.2-2.7,3.3c-1.6-2.1-3.2-4.1-4.8-6.2C7.3,8.3,6.8,8.2,6.4,8.4C6.2,8.6,6,8.8,6,8.9l0,14.2
	c0,0.1,0.2,0.4,0.6,0.6c0.5,0.2,0.8-0.1,0.9-0.1l5-6.4c1,1.2,1.9,2.4,2.9,3.6c0.1,0,0.3,0.2,0.6,0.2c0.3,0,0.5-0.1,0.5-0.2l2.9-3.6
	c1.5,1.9,3,3.8,4.5,5.7c0.3,0.7,1,0.9,1.5,0.7c0.4-0.2,0.5-0.8,0.5-0.8c0-4.5,0-9.1,0-13.6C26,8.8,25.7,8.5,25.4,8.3L25.4,8.3z
	 M7.8,20.7v-9.4l3.8,4.7L7.8,20.7z M16.1,19c0,0-0.1,0.1-0.2,0.1c-0.1,0-0.2-0.1-0.2-0.1c-0.8-1-1.6-2-2.3-2.9l2.3-2.9
	c0.1,0,0.2-0.1,0.3-0.1c0.1,0,0.2,0,0.2,0.1c0.8,1,1.5,1.9,2.3,2.9L16.1,19z M24.1,20.7L20.3,16l3.8-4.7V20.7z"/>
</svg>
