<?xml version="1.0" encoding="utf-8"?>
<!-- Generator: Adobe Illustrator 23.0.0, SVG Export Plug-In . SVG Version: 6.00 Build 0)  -->
<svg version="1.1" id="Layer_1" xmlns="http://www.w3.org/2000/svg" xmlns:xlink="http://www.w3.org/1999/xlink" x="0px" y="0px"
	 width="32px" height="32px" viewBox="0 0 32 32" style="enable-background:new 0 0 32 32;" xml:space="preserve">
<style type="text/css">
	.st0{fill:#2E9AD0;}
	.st1{fill:url(#SVGID_1_);}
	.st2{fill:#FFFFFF;}
</style>
<path class="st0" d="M20,32h-8C5.4,32,0,26.6,0,20v-8C0,5.4,5.4,0,12,0h8c6.6,0,12,5.4,12,12v8C32,26.6,26.6,32,20,32z"/>
<linearGradient id="SVGID_1_" gradientUnits="userSpaceOnUse" x1="7.2681" y1="0.8759" x2="24.7319" y2="31.1241">
	<stop  offset="0" style="stop-color:#FFFFFF;stop-opacity:0.5"/>
	<stop  offset="1" style="stop-color:#FFFFFF;stop-opacity:0"/>
</linearGradient>
<path class="st1" d="M20,32h-8C5.4,32,0,26.6,0,20v-8C0,5.4,5.4,0,12,0h8c6.6,0,12,5.4,12,12v8C32,26.6,26.6,32,20,32z"/>
<g id="Lines">
	<path class="st2" d="M18.8,25.3h-6l-4.9-3.6L6,16l1.9-5.8l4.9-3.6h6.1l4.9,3.6l1.9,5.8l-1.9,5.8l-0.1,0.1L18.8,25.3L18.8,25.3z
		 M12.9,24.9h5.8l4.7-3.4l1.8-5.5l-1.8-5.5L18.7,7h-5.8l-4.7,3.4L6.5,16l1.8,5.5L12.9,24.9L12.9,24.9z"/>
	<path class="st2" d="M26.3,24.4l-2.8-2.5l-2.8-1l-4.9,0.6l-4.9-0.6l-2.8,1L8,21.4l2.8-1.1h0.1l4.9,0.7l5-0.7l0.1,0.1l2.9,1.1
		l2.8,2.6L26.3,24.4z"/>
	<path class="st2" d="M18.7,25.5l-2.9-4l-3,4l-2.2-4.9l0.4-0.2l1.9,4.3l2.9-3.9l2.8,3.9l1.9-4.3l2.6-5.2l0.6,6.4h-0.4l-0.5-4.9
		L21,20.6L18.7,25.5z"/>
	<path class="st2" d="M6.3,15.8h19.1v0.4H6.3V15.8z"/>
	<path class="st2" d="M23.2,16.7L20.8,12l-2.1,4.5l-2.9-5.2l-3,5.2L10.8,12l-2.4,4.7l-0.6-6.3l0.4-0.1l0.4,4.9l2.1-4.2l2.1,4.5
		l3-5.1l2.8,5.1l2.1-4.5l2.1,4.1l0.3-4.9h0.4L23.2,16.7z"/>
	<path class="st2" d="M20.6,11.6l-1.9-4.3l-2.8,4l-2.9-4L11,11.6l-0.3-0.2l2.1-5l3,4.1l2.9-4.1l2.3,5L20.6,11.6z M23.4,21.6
		l-0.5-4.9L20.8,21l-2.1-4.5l-2.8,5.2l-3-5.2L10.8,21l-2.1-4.3l-0.4,4.9H7.8l0.6-6.4l2.4,4.8l2.1-4.5l3,5.2l2.9-5.2l2.1,4.5l2.4-4.9
		l0.6,6.4L23.4,21.6z"/>
	<path class="st2" d="M20.8,11.8l-5-0.7l-5,0.7L8,10.5l0.1-0.4l2.8,1.2l4.9-0.6l5,0.6l2.7-1.2l0.2,0.4L20.8,11.8z"/>
</g>
<g id="Circles">
	<circle class="st2" cx="12.9" cy="25.1" r="0.8"/>
	<circle class="st2" cx="18.6" cy="25.1" r="0.8"/>
	<circle class="st2" cx="12.9" cy="6.9" r="0.8"/>
	<circle class="st2" cx="18.6" cy="6.9" r="0.8"/>
	<circle class="st2" cx="23.4" cy="10.3" r="0.8"/>
	<circle class="st2" cx="8" cy="10.3" r="0.8"/>
	<circle class="st2" cx="8" cy="21.7" r="0.8"/>
	<circle class="st2" cx="6.3" cy="16" r="0.8"/>
	<circle class="st2" cx="25.4" cy="16" r="0.8"/>
	<circle class="st2" cx="23" cy="16" r="0.8"/>
	<circle class="st2" cx="8.5" cy="16" r="0.8"/>
	<circle class="st2" cx="12.9" cy="16" r="0.8"/>
	<circle class="st2" cx="18.6" cy="16" r="0.8"/>
	<ellipse class="st2" cx="15.8" cy="10.9" rx="0.8" ry="0.8"/>
	<circle class="st2" cx="10.8" cy="11.6" r="0.8"/>
	<circle class="st2" cx="20.8" cy="11.6" r="0.8"/>
	<circle class="st2" cx="15.8" cy="21.2" r="0.8"/>
	<circle class="st2" cx="10.8" cy="20.5" r="0.8"/>
	<circle class="st2" cx="20.8" cy="20.5" r="0.8"/>
	<circle class="st2" cx="26.4" cy="24.2" r="1.1"/>
</g>
</svg>
