<?xml version="1.0" encoding="utf-8"?>
<!-- Generator: Adobe Illustrator 23.0.0, SVG Export Plug-In . SVG Version: 6.00 Build 0)  -->
<svg version="1.1" id="Layer_1" xmlns="http://www.w3.org/2000/svg" xmlns:xlink="http://www.w3.org/1999/xlink" x="0px" y="0px"
	 width="32px" height="32px" viewBox="0 0 32 32" style="enable-background:new 0 0 32 32;" xml:space="preserve">
<style type="text/css">
	.st0{fill:#D61719;}
	.st1{fill:url(#SVGID_1_);}
	.st2{fill:#FFFFFF;}
</style>
<path class="st0" d="M20,32h-8C5.4,32,0,26.6,0,20v-8C0,5.4,5.4,0,12,0h8c6.6,0,12,5.4,12,12v8C32,26.6,26.6,32,20,32z"/>
<linearGradient id="SVGID_1_" gradientUnits="userSpaceOnUse" x1="7.2681" y1="0.8759" x2="24.7319" y2="31.1241">
	<stop  offset="0" style="stop-color:#FFFFFF;stop-opacity:0.5"/>
	<stop  offset="1" style="stop-color:#FFFFFF;stop-opacity:0"/>
</linearGradient>
<path class="st1" d="M20,32h-8C5.4,32,0,26.6,0,20v-8C0,5.4,5.4,0,12,0h8c6.6,0,12,5.4,12,12v8C32,26.6,26.6,32,20,32z"/>
<path class="st2" d="M10.5,17.1c-2.4-6-4.2-11-4.1-11.1c0.1-0.1,4,0.5,8.6,1.3l8.4,1.5l2.2,2.2l2.1,2.2l-6.1,7.4
	c-3.4,4.1-6.2,7.4-6.4,7.4C15,28,12.9,23.1,10.5,17.1z M15.6,19.3c0.3-2.4,0.5-4.4,0.4-4.4c-0.1,0-1.4-1.1-2.9-2.3
	C8.8,9,9,9.2,9.6,10.5c0.3,0.6,1.6,3.9,2.9,7.2c1.3,3.3,2.4,6,2.5,6C15,23.6,15.3,21.7,15.6,19.3z M20.7,19.1
	c2.1-2.5,3.7-4.6,3.7-4.7c-0.1-0.1-6.4,1-6.6,1.1c-0.2,0.1-1,6.5-1,7.6c0,0.4,0.1,0.7,0.1,0.7C16.9,23.7,18.6,21.6,20.7,19.1z
	 M22.6,13.1l2.2-0.4l-1-1c-1.1-1.1-1.2-1.1-3.6,1.1c-0.8,0.7-1,1-0.5,0.8C20.1,13.5,21.4,13.3,22.6,13.1z M19,11.7
	c1.1-0.9,1.9-1.7,1.7-1.8c-1.1-0.3-9.7-1.7-9.9-1.7c-0.3,0.1,5.5,5.1,5.9,5.1C16.8,13.4,17.8,12.6,19,11.7z"/>
</svg>
