<?xml version="1.0" encoding="utf-8"?>
<!-- Generator: Adobe Illustrator 23.0.0, SVG Export Plug-In . SVG Version: 6.00 Build 0)  -->
<svg version="1.1" id="Layer_1" xmlns="http://www.w3.org/2000/svg" xmlns:xlink="http://www.w3.org/1999/xlink" x="0px" y="0px"
	 width="32px" height="32px" viewBox="0 0 32 32" style="enable-background:new 0 0 32 32;" xml:space="preserve">
<style type="text/css">
	.st0{fill:#710BDB;}
	.st1{fill:url(#SVGID_1_);}
	.st2{fill:#FFFFFF;}
</style>
<path class="st0" d="M20,32h-8C5.4,32,0,26.6,0,20v-8C0,5.4,5.4,0,12,0h8c6.6,0,12,5.4,12,12v8C32,26.6,26.6,32,20,32z"/>
<linearGradient id="SVGID_1_" gradientUnits="userSpaceOnUse" x1="7.2681" y1="0.8759" x2="24.7319" y2="31.1241">
	<stop  offset="0" style="stop-color:#FFFFFF;stop-opacity:0.5"/>
	<stop  offset="1" style="stop-color:#FFFFFF;stop-opacity:0"/>
</linearGradient>
<path class="st1" d="M20,32h-8C5.4,32,0,26.6,0,20v-8C0,5.4,5.4,0,12,0h8c6.6,0,12,5.4,12,12v8C32,26.6,26.6,32,20,32z"/>
<path class="st2" d="M9.6,9.1v2.8l-1.2,0.3c-0.5,0.1-0.9,0.5-0.9,1v6.1L5,20c-0.2,0.1-0.5,0-0.7-0.1C4.1,19.8,4,19.5,4,19.3V10
	c0-0.4,0.3-0.7,0.6-0.8l3.9-1c0.1,0,0.1,0,0.2,0c0.2,0,0.4,0.1,0.6,0.2C9.5,8.6,9.6,8.8,9.6,9.1z"/>
<path class="st2" d="M14,20.8v0.9c0,0.4-0.3,0.7-0.6,0.8l-4,1.1c-0.2,0.1-0.5,0-0.7-0.1c-0.2-0.1-0.3-0.4-0.3-0.6v-9.3
	c0-0.4,0.3-0.7,0.6-0.8l0.7-0.2l0.3-0.1l0.7-0.2l1.7-0.4v7.8c0,0.4,0.2,0.7,0.5,0.9c0.2,0.1,0.5,0.2,0.7,0.2c0.1,0,0.2,0,0.3-0.1
	L14,20.8z"/>
<path class="st2" d="M18.7,9.1v2.5l-0.9,0.2c-0.5,0.1-0.9,0.6-0.9,1.1v6.4l-2.1,0.6L14.3,20L14.1,20c0,0-0.1,0-0.1,0
	c-0.2,0-0.4,0-0.6-0.2c-0.2-0.1-0.3-0.4-0.3-0.6V10c0-0.4,0.3-0.7,0.6-0.8l3.9-1c0.1,0,0.1,0,0.2,0c0.2,0,0.4,0.1,0.5,0.2
	C18.6,8.6,18.7,8.8,18.7,9.1z"/>
<path class="st2" d="M23.5,20.8v1c0,0.4-0.3,0.7-0.6,0.8l-4,1.1c-0.2,0.1-0.5,0-0.7-0.1c-0.2-0.1-0.3-0.4-0.3-0.6v-9.3
	c0-0.4,0.3-0.7,0.6-0.8l0.2-0.1l0.3-0.1l0.5-0.1l1.9-0.5v7.6c0,0.4,0.2,0.7,0.5,0.9c0.2,0.1,0.5,0.2,0.7,0.2c0.1,0,0.2,0,0.4-0.1
	L23.5,20.8z"/>
<path class="st2" d="M28,9.1v9c0,0.4-0.3,0.7-0.6,0.8l-2.9,0.8l-0.7,0.2L23.5,20l-0.1,0c-0.2,0.1-0.5,0-0.7-0.1
	c-0.2-0.1-0.3-0.4-0.3-0.6V10c0-0.4,0.3-0.7,0.6-0.8l3.9-1c0.1,0,0.1,0,0.2,0c0.2,0,0.4,0.1,0.6,0.2C27.9,8.6,28,8.8,28,9.1z"/>
</svg>
