<?xml version="1.0" encoding="utf-8"?>
<!-- Generator: Adobe Illustrator 23.0.0, SVG Export Plug-In . SVG Version: 6.00 Build 0)  -->
<svg version="1.1" id="Layer_1" xmlns="http://www.w3.org/2000/svg" xmlns:xlink="http://www.w3.org/1999/xlink" x="0px" y="0px"
	 width="32px" height="32px" viewBox="0 0 32 32" style="enable-background:new 0 0 32 32;" xml:space="preserve">
<style type="text/css">
	.st0{fill:#1D2227;}
	.st1{fill:url(#SVGID_1_);}
	.st2{fill:#FFFFFF;}
</style>
<path class="st0" d="M20,32h-8C5.4,32,0,26.6,0,20v-8C0,5.4,5.4,0,12,0h8c6.6,0,12,5.4,12,12v8C32,26.6,26.6,32,20,32z"/>
<linearGradient id="SVGID_1_" gradientUnits="userSpaceOnUse" x1="7.2681" y1="0.8759" x2="24.7319" y2="31.1241">
	<stop  offset="0" style="stop-color:#FFFFFF;stop-opacity:0.5"/>
	<stop  offset="1" style="stop-color:#FFFFFF;stop-opacity:0"/>
</linearGradient>
<path class="st1" d="M20,32h-8C5.4,32,0,26.6,0,20v-8C0,5.4,5.4,0,12,0h8c6.6,0,12,5.4,12,12v8C32,26.6,26.6,32,20,32z"/>
<path class="st2" d="M22.3,20c0.8,1.1,1.7,2.3,2.5,3.4c-1.7,2-3.8,3.3-6.4,3.9c-2.9,0.6-5.6,0.2-8.2-1.3c2.3-1.7,4.6-3.5,6.9-5.2
	c0.5,0.5,1,1,1.5,1.5c0.5,0.5,0.3,0.5,1,0.2c1-0.5,1.8-1.3,2.4-2.2C22.1,20.1,22.2,20.1,22.3,20C22.2,20,22.2,20,22.3,20L22.3,20z
	 M12.1,22.3c-0.6,0.5-1.2,0.9-1.8,1.4c-0.4,0.3-0.9,0.6-1.3,1c-0.2,0.2-0.3,0.2-0.5,0c-2-1.8-3.2-3.9-3.7-6.5
	c-0.5-2.6-0.1-5.1,1.2-7.5c0-0.1,0.1-0.1,0.1-0.2c0,0,0,0,0.1-0.1c1.7,2.3,3.5,4.5,5.2,6.8c-0.1,0.1-0.1,0.1-0.1,0.2
	c-0.5,0.5-1,1.1-1.6,1.6c-0.2,0.2-0.2,0.3-0.1,0.5c0.5,1,1.3,1.9,2.2,2.6C11.8,22.1,11.9,22.2,12.1,22.3L12.1,22.3z M21.7,6.2
	c-0.8,0.6-1.7,1.2-2.5,1.8c-1.4,1-2.9,2-4.3,3.1c-0.2,0.1-0.3,0.2-0.5,0c-0.5-0.5-1-0.9-1.4-1.4c-0.1-0.1-0.3-0.2-0.4-0.1
	c-1.1,0.6-2,1.4-2.7,2.4C9.9,11.9,9.8,12,9.8,12c-0.4-0.5-0.8-1-1.2-1.6C8.2,9.9,7.8,9.4,7.4,8.9c-0.1-0.2-0.2-0.3,0-0.5
	c2-2.2,4.5-3.5,7.4-3.8c2.3-0.3,4.6,0.2,6.6,1.3C21.6,5.9,21.6,6,21.7,6C21.7,6.1,21.7,6.1,21.7,6.2z M26,21.7c-0.5-0.7-1-1.3-1.5-2
	c-1.1-1.5-2.3-3-3.5-4.5c-0.2-0.2-0.2-0.3,0-0.5c0.5-0.5,1-1,1.5-1.5c0.1-0.1,0.2-0.3,0.1-0.4c-0.6-1.1-1.3-2-2.4-2.7
	C20.1,10,20,9.9,19.9,9.8c0.1-0.1,0.2-0.1,0.2-0.2c1-0.8,2-1.5,3-2.2c0.2-0.1,0.3-0.2,0.5,0c2.5,2.2,3.8,5,3.9,8.4
	c0.1,1.9-0.4,3.8-1.3,5.5C26.1,21.4,26.1,21.5,26,21.7z"/>
</svg>
