<?xml version="1.0" encoding="utf-8"?>
<!-- Generator: Adobe Illustrator 24.0.1, SVG Export Plug-In . SVG Version: 6.00 Build 0)  -->
<svg version="1.1" id="Layer_1" xmlns="http://www.w3.org/2000/svg" xmlns:xlink="http://www.w3.org/1999/xlink" x="0px" y="0px"
	 width="40px" height="40px" viewBox="0 0 40 40" style="enable-background:new 0 0 40 40;" xml:space="preserve">
<style type="text/css">
	.st0{fill:#3468D1;}
	.st1{fill:url(#SVGID_1_);}
	.st2{fill-rule:evenodd;clip-rule:evenodd;fill:#FFFFFF;}
</style>
<path class="st0" d="M25,40H15C6.8,40,0,33.3,0,25V15C0,6.8,6.8,0,15,0h10c8.3,0,15,6.8,15,15v10C40,33.3,33.3,40,25,40z"/>
<linearGradient id="SVGID_1_" gradientUnits="userSpaceOnUse" x1="9.0907" y1="40.8954" x2="30.9093" y2="3.1046" gradientTransform="matrix(1 0 0 -1 0 42)">
	<stop  offset="0" style="stop-color:#FFFFFF;stop-opacity:0.5"/>
	<stop  offset="1" style="stop-color:#FFFFFF;stop-opacity:0"/>
</linearGradient>
<path class="st1" d="M25,40H15C6.8,40,0,33.3,0,25V15C0,6.8,6.8,0,15,0h10c8.3,0,15,6.8,15,15v10C40,33.3,33.3,40,25,40z"/>
<path id="ada" class="st2" d="M17.6,13.9c1.1,0,2,0.9,2,2c0,1.1-0.9,2-2,2c-1.1,0-2-0.9-2-2S16.5,13.9,17.6,13.9z M22.4,13.9
	c1.1,0,2,0.9,2,2c0,1.1-0.9,2-2,2s-2-0.9-2-2S21.3,13.9,22.4,13.9L22.4,13.9z M22.4,22.1c1.1,0,2,0.9,2,2c0,1.1-0.9,2-2,2
	s-2-0.9-2-2C20.4,23.1,21.3,22.1,22.4,22.1L22.4,22.1L22.4,22.1z M17.6,22.1c1.1,0,2,0.9,2,2c0,1.1-0.9,2-2,2c-1.1,0-2-0.9-2-2
	C15.6,23.1,16.5,22.1,17.6,22.1z M15.1,18.1c1.1,0,2,0.9,2,2s-0.9,2-2,2c-1.1,0-2-0.9-2-2S14.1,18.1,15.1,18.1L15.1,18.1z
	 M24.9,18.1c1.1,0,2,0.9,2,2s-0.9,2-2,2s-2-0.9-2-2S23.8,18.1,24.9,18.1L24.9,18.1z M27.1,14.6c0.6,0,1.3,0.5,1.3,1.3
	c0,0.6-0.5,1.3-1.3,1.3c-0.6,0-1.3-0.5-1.3-1.3C25.9,15.3,26.4,14.6,27.1,14.6L27.1,14.6z M27.1,22.9c0.6,0,1.3,0.5,1.3,1.3
	c0,0.6-0.5,1.3-1.3,1.3c-0.6,0-1.3-0.5-1.3-1.3S26.4,22.9,27.1,22.9L27.1,22.9z M12.9,22.9c0.6,0,1.3,0.5,1.3,1.3
	c0,0.6-0.5,1.3-1.3,1.3c-0.6,0-1.3-0.5-1.3-1.3S12.3,22.9,12.9,22.9L12.9,22.9z M12.9,14.6c0.6,0,1.3,0.5,1.3,1.3
	c0,0.6-0.5,1.3-1.3,1.3c-0.6,0-1.3-0.5-1.3-1.3C11.6,15.3,12.3,14.6,12.9,14.6L12.9,14.6z M20,10.6c0.6,0,1.3,0.5,1.3,1.3
	c0,0.6-0.5,1.3-1.3,1.3c-0.6,0-1.3-0.5-1.3-1.3S19.4,10.6,20,10.6L20,10.6z M20,27c0.6,0,1.3,0.5,1.3,1.3c0,0.6-0.5,1.3-1.3,1.3
	c-0.6,0-1.3-0.5-1.3-1.3S19.4,27,20,27L20,27z M25.3,28.1c0.6,0,1,0.5,1,1c0,0.6-0.5,1-1,1c-0.6,0-1-0.5-1-1
	C24.3,28.6,24.6,28.1,25.3,28.1L25.3,28.1z M14.8,28.1c0.6,0,1,0.5,1,1c0,0.6-0.5,1-1,1c-0.6,0-1-0.5-1-1
	C13.8,28.6,14.1,28.1,14.8,28.1L14.8,28.1L14.8,28.1z M14.8,9.8c0.6,0,1,0.5,1,1c0,0.6-0.5,1-1,1c-0.6,0-1-0.5-1-1
	C13.8,10.3,14.1,9.8,14.8,9.8L14.8,9.8L14.8,9.8z M25.3,9.8c0.6,0,1,0.5,1,1c0,0.6-0.5,1-1,1c-0.6,0-1-0.5-1-1
	C24.3,10.3,24.6,9.8,25.3,9.8L25.3,9.8z M30.6,18.9c0.6,0,1,0.5,1,1c0,0.6-0.5,1-1,1c-0.6,0-1-0.5-1-1C29.5,19.4,30,18.9,30.6,18.9
	L30.6,18.9z M9.4,18.9c0.6,0,1,0.5,1,1c0,0.6-0.5,1-1,1c-0.6,0-1-0.5-1-1C8.4,19.4,8.9,18.9,9.4,18.9L9.4,18.9L9.4,18.9z M8.6,12.6
	c0.5,0,0.9,0.4,0.9,0.9c0,0.5-0.4,0.9-0.9,0.9S7.8,14,7.8,13.5l0,0C7.9,13,8.3,12.6,8.6,12.6L8.6,12.6z M8.6,25.8
	c0.5,0,0.9,0.4,0.9,0.9c0,0.5-0.4,0.9-0.9,0.9s-0.9-0.4-0.9-0.9l0,0C7.9,26.1,8.3,25.8,8.6,25.8L8.6,25.8z M31.4,25.8
	c0.5,0,0.9,0.4,0.9,0.9c0,0.5-0.4,0.9-0.9,0.9c-0.5,0-0.9-0.4-0.9-0.9l0,0C30.5,26.1,30.9,25.8,31.4,25.8L31.4,25.8z M31.4,12.6
	c0.5,0,0.9,0.4,0.9,0.9c0,0.5-0.4,0.9-0.9,0.9c-0.5,0-0.9-0.4-0.9-0.9l0,0C30.5,13,30.9,12.6,31.4,12.6L31.4,12.6z M20,6.1
	c0.5,0,0.9,0.4,0.9,0.9S20.5,7.9,20,7.9c-0.5,0-0.9-0.4-0.9-0.9l0,0C19.1,6.5,19.5,6.1,20,6.1L20,6.1z M20,32.3
	c0.5,0,0.9,0.4,0.9,0.9S20.5,34,20,34c-0.5,0-0.9-0.4-0.9-0.9S19.5,32.3,20,32.3L20,32.3z M27.3,31.8c0.4,0,0.6,0.3,0.6,0.6
	S27.6,33,27.3,33c-0.4,0-0.6-0.3-0.6-0.6l0,0C26.5,32,26.9,31.8,27.3,31.8z M12.8,31.8c0.4,0,0.6,0.3,0.6,0.6S13.1,33,12.8,33
	s-0.6-0.3-0.6-0.6l0,0C12.1,32,12.4,31.8,12.8,31.8z M12.8,6.9c0.4,0,0.6,0.3,0.6,0.6s-0.3,0.6-0.6,0.6s-0.6-0.3-0.6-0.6l0,0
	C12.1,7.3,12.4,6.9,12.8,6.9L12.8,6.9L12.8,6.9z M27.3,6.9c0.4,0,0.6,0.3,0.6,0.6s-0.3,0.6-0.6,0.6c-0.4,0-0.6-0.3-0.6-0.6l0,0
	C26.5,7.3,26.9,6.9,27.3,6.9L27.3,6.9L27.3,6.9z M34.4,19.4c0.4,0,0.6,0.3,0.6,0.6s-0.3,0.6-0.6,0.6s-0.6-0.3-0.6-0.6l0,0
	C33.6,19.6,34,19.4,34.4,19.4L34.4,19.4z M5.6,19.4c0.4,0,0.6,0.3,0.6,0.6S6,20.6,5.6,20.6S5,20.4,5,20l0,0
	C5,19.6,5.3,19.4,5.6,19.4L5.6,19.4z"/>
</svg>
