<?xml version="1.0" encoding="utf-8"?>
<!-- Generator: Adobe Illustrator 24.0.1, SVG Export Plug-In . SVG Version: 6.00 Build 0)  -->
<svg version="1.1" id="Layer_1" xmlns="http://www.w3.org/2000/svg" xmlns:xlink="http://www.w3.org/1999/xlink" x="0px" y="0px"
	 width="40px" height="40px" viewBox="0 0 40 40" style="enable-background:new 0 0 40 40;" xml:space="preserve">
<style type="text/css">
	.st0{fill-rule:evenodd;clip-rule:evenodd;fill:#A1A3AA;}
</style>
<path id="ada" class="st0" d="M16.8,11.8c1.5,0,2.7,1.2,2.7,2.7s-1.2,2.7-2.7,2.7s-2.7-1.2-2.7-2.7S15.3,11.8,16.8,11.8z M23.2,11.8
	c1.5,0,2.7,1.2,2.7,2.7s-1.2,2.7-2.7,2.7s-2.7-1.2-2.7-2.7S21.7,11.8,23.2,11.8L23.2,11.8z M23.2,22.7c1.5,0,2.7,1.2,2.7,2.7
	s-1.2,2.7-2.7,2.7s-2.7-1.2-2.7-2.7C20.5,24.1,21.7,22.7,23.2,22.7L23.2,22.7L23.2,22.7z M16.8,22.7c1.5,0,2.7,1.2,2.7,2.7
	s-1.2,2.7-2.7,2.7s-2.7-1.2-2.7-2.7C14.1,24.1,15.3,22.7,16.8,22.7z M13.5,17.4c1.5,0,2.7,1.2,2.7,2.7s-1.2,2.7-2.7,2.7
	s-2.7-1.2-2.7-2.7S12.1,17.4,13.5,17.4L13.5,17.4z M26.5,17.4c1.5,0,2.7,1.2,2.7,2.7s-1.2,2.7-2.7,2.7s-2.7-1.2-2.7-2.7
	S25.1,17.4,26.5,17.4L26.5,17.4z M29.5,12.7c0.8,0,1.7,0.7,1.7,1.7c0,0.8-0.7,1.7-1.7,1.7c-0.8,0-1.7-0.7-1.7-1.7
	C27.9,13.7,28.5,12.7,29.5,12.7L29.5,12.7z M29.5,23.8c0.8,0,1.7,0.7,1.7,1.7c0,0.8-0.7,1.7-1.7,1.7c-0.8,0-1.7-0.7-1.7-1.7
	S28.5,23.8,29.5,23.8L29.5,23.8z M10.5,23.8c0.8,0,1.7,0.7,1.7,1.7c0,0.8-0.7,1.7-1.7,1.7c-0.8,0-1.7-0.7-1.7-1.7
	S9.7,23.8,10.5,23.8L10.5,23.8z M10.5,12.7c0.8,0,1.7,0.7,1.7,1.7c0,0.8-0.7,1.7-1.7,1.7c-0.8,0-1.7-0.7-1.7-1.7
	C8.8,13.7,9.7,12.7,10.5,12.7L10.5,12.7z M20,7.4c0.8,0,1.7,0.7,1.7,1.7c0,0.8-0.7,1.7-1.7,1.7c-0.8,0-1.7-0.7-1.7-1.7
	S19.2,7.4,20,7.4L20,7.4z M20,29.3c0.8,0,1.7,0.7,1.7,1.7c0,0.8-0.7,1.7-1.7,1.7c-0.8,0-1.7-0.7-1.7-1.7S19.2,29.3,20,29.3L20,29.3z
	 M27.1,30.7c0.8,0,1.3,0.7,1.3,1.3c0,0.8-0.7,1.3-1.3,1.3c-0.8,0-1.3-0.7-1.3-1.3C25.7,31.4,26.1,30.7,27.1,30.7L27.1,30.7z
	 M13.1,30.7c0.8,0,1.3,0.7,1.3,1.3c0,0.8-0.7,1.3-1.3,1.3c-0.8,0-1.3-0.7-1.3-1.3C11.7,31.4,12.1,30.7,13.1,30.7L13.1,30.7
	L13.1,30.7z M13.1,6.3c0.8,0,1.3,0.7,1.3,1.3c0,0.8-0.7,1.3-1.3,1.3c-0.8,0-1.3-0.7-1.3-1.3S12.1,6.3,13.1,6.3L13.1,6.3L13.1,6.3z
	 M27.1,6.3c0.8,0,1.3,0.7,1.3,1.3c0,0.8-0.7,1.3-1.3,1.3c-0.8,0-1.3-0.7-1.3-1.3S26.1,6.3,27.1,6.3L27.1,6.3z M34.1,18.5
	c0.8,0,1.3,0.7,1.3,1.3c0,0.8-0.7,1.3-1.3,1.3c-0.8,0-1.3-0.7-1.3-1.3C32.7,19.1,33.3,18.5,34.1,18.5L34.1,18.5z M5.9,18.5
	c0.8,0,1.3,0.7,1.3,1.3c0,0.8-0.7,1.3-1.3,1.3c-0.8,0-1.3-0.7-1.3-1.3C4.5,19.1,5.2,18.5,5.9,18.5L5.9,18.5L5.9,18.5z M4.8,10.1
	c0.7,0,1.2,0.5,1.2,1.2c0,0.7-0.5,1.2-1.2,1.2s-1.1-0.5-1.1-1.2l0,0C3.9,10.6,4.4,10.1,4.8,10.1L4.8,10.1z M4.8,27.7
	c0.7,0,1.2,0.5,1.2,1.2c0,0.7-0.5,1.2-1.2,1.2s-1.2-0.5-1.2-1.2l0,0C3.9,28.1,4.4,27.7,4.8,27.7L4.8,27.7z M35.2,27.7
	c0.7,0,1.2,0.5,1.2,1.2c0,0.7-0.5,1.2-1.2,1.2c-0.7,0-1.2-0.5-1.2-1.2l0,0C34,28.1,34.5,27.7,35.2,27.7L35.2,27.7z M35.2,10.1
	c0.7,0,1.2,0.5,1.2,1.2c0,0.7-0.5,1.2-1.2,1.2c-0.7,0-1.2-0.5-1.2-1.2l0,0C34,10.6,34.5,10.1,35.2,10.1L35.2,10.1z M20,1.4
	c0.7,0,1.2,0.5,1.2,1.2S20.7,3.8,20,3.8s-1.2-0.5-1.2-1.2l0,0C18.8,1.9,19.3,1.4,20,1.4L20,1.4z M20,36.3c0.7,0,1.2,0.5,1.2,1.2
	c0,0.7-0.5,1.1-1.2,1.1s-1.2-0.5-1.2-1.2S19.3,36.3,20,36.3L20,36.3z M29.7,35.7c0.5,0,0.8,0.4,0.8,0.8s-0.4,0.8-0.8,0.8
	c-0.5,0-0.8-0.4-0.8-0.8l0,0C28.7,35.9,29.2,35.7,29.7,35.7z M10.4,35.7c0.5,0,0.8,0.4,0.8,0.8s-0.4,0.8-0.8,0.8
	c-0.4,0-0.8-0.4-0.8-0.8l0,0C9.5,35.9,9.9,35.7,10.4,35.7z M10.4,2.5c0.5,0,0.8,0.4,0.8,0.8s-0.4,0.8-0.8,0.8
	c-0.4,0-0.8-0.4-0.8-0.8l0,0C9.5,3,9.9,2.5,10.4,2.5L10.4,2.5L10.4,2.5z M29.7,2.5c0.5,0,0.8,0.4,0.8,0.8s-0.4,0.8-0.8,0.8
	c-0.5,0-0.8-0.4-0.8-0.8l0,0C28.7,3,29.2,2.5,29.7,2.5L29.7,2.5L29.7,2.5z M39.2,19.1c0.5,0,0.8,0.4,0.8,0.8s-0.4,0.8-0.8,0.8
	c-0.4,0-0.8-0.4-0.8-0.8l0,0C38.1,19.4,38.7,19.1,39.2,19.1L39.2,19.1z M0.8,19.1c0.5,0,0.8,0.4,0.8,0.8s-0.3,0.8-0.8,0.8
	S0,20.5,0,19.9l0,0C0,19.4,0.4,19.1,0.8,19.1L0.8,19.1z"/>
</svg>
