<svg width="36" height="40" viewBox="0 0 36 40" fill="none" xmlns="http://www.w3.org/2000/svg">
<path d="M21 1.73205L32.3205 8.26795C34.1769 9.33975 35.3205 11.3205 35.3205 13.4641V26.5359C35.3205 28.6795 34.1769 30.6603 32.3205 31.732L21 38.2679C19.1436 39.3397 16.8564 39.3397 15 38.2679L3.67949 31.732C1.82308 30.6603 0.679489 28.6795 0.679489 26.5359V13.4641C0.679489 11.3205 1.82308 9.33975 3.67949 8.26795L15 1.73205C16.8564 0.660254 19.1436 0.660254 21 1.73205Z" fill="#00BFEC"/>
<path style="mix-blend-mode:overlay" d="M21 1.73205L32.3205 8.26795C34.1769 9.33975 35.3205 11.3205 35.3205 13.4641V26.5359C35.3205 28.6795 34.1769 30.6603 32.3205 31.732L21 38.2679C19.1436 39.3397 16.8564 39.3397 15 38.2679L3.67949 31.732C1.82308 30.6603 0.679489 28.6795 0.679489 26.5359V13.4641C0.679489 11.3205 1.82308 9.33975 3.67949 8.26795L15 1.73205C16.8564 0.660254 19.1436 0.660254 21 1.73205Z" fill="url(#paint0_linear)"/>
<path d="M17.9689 27.6607C13.7293 27.6607 10.2804 24.2332 10.2804 20.0214C10.2804 15.8086 13.7304 12.3821 17.9689 12.3821C22.2086 12.3821 25.6575 15.8086 25.6575 20.0214C25.6575 24.2332 22.2086 27.6607 17.9689 27.6607ZM17.9689 13.8779C14.5607 13.8779 11.7868 16.6336 11.7868 20.0214C11.7868 23.4082 14.5607 26.1639 17.9689 26.1639C21.3782 26.1639 24.1511 23.4082 24.1511 20.0214C24.1511 16.6336 21.3782 13.8779 17.9689 13.8779ZM23.3529 11.2904C21.7309 10.3027 19.8679 9.78147 17.9689 9.78393C16.2209 9.7832 14.5011 10.2248 12.9696 11.0675L12.2368 9.76036C13.9924 8.79299 15.9644 8.28581 17.9689 8.28607C20.1546 8.28607 22.2889 8.88393 24.1414 10.0154L23.3529 11.2904ZM25.5975 28.9796L24.6236 27.8364C26.9354 25.8991 28.2712 23.0377 28.2718 20.0214H29.7782C29.7782 23.4779 28.2546 26.7425 25.5975 28.9786V28.9796ZM17.9689 31.7546C15.2293 31.7546 12.5593 30.8011 10.4518 29.0707L11.4118 27.9179C13.2619 29.4315 15.5786 30.2586 17.9689 30.2589C19.6404 30.2589 21.2346 29.8732 22.7068 29.1146L23.4 30.4432C21.7195 31.3055 19.8578 31.7554 17.9689 31.7557V31.7546Z" fill="white"/>
<path opacity="0.5" d="M28.0179 17.2411C27.624 15.8283 26.9312 14.5165 25.9864 13.3946L26.9507 12.5954C28.0099 13.8531 28.7863 15.3238 29.2275 16.9079L28.0189 17.2411H28.0179ZM8.20714 26.4029C6.95147 24.5117 6.28309 22.2915 6.28607 20.0214C6.28607 16.8479 7.55035 13.8843 9.84643 11.6761L10.7186 12.5729C8.68152 14.5141 7.53237 17.2076 7.54071 20.0214C7.54071 22.0561 8.13428 24.0254 9.255 25.7171L8.20714 26.4029Z" fill="white"/>
<defs>
<linearGradient id="paint0_linear" x1="10.3063" y1="5.5099" x2="28.6589" y2="32.7678" gradientUnits="userSpaceOnUse">
<stop stop-color="white" stop-opacity="0.5"/>
<stop offset="1" stop-color="white" stop-opacity="0"/>
</linearGradient>
</defs>
</svg>
