<svg width="36" height="40" viewBox="0 0 36 40" fill="none" xmlns="http://www.w3.org/2000/svg">
<path fill-rule="evenodd" clip-rule="evenodd" d="M21 1.73205L32.3205 8.26795C34.1769 9.33974 35.3205 11.3205 35.3205 13.4641V26.5359C35.3205 28.6795 34.1769 30.6602 32.3205 31.732L21 38.2679C19.1436 39.3397 16.8564 39.3397 15 38.2679L3.67949 31.732C1.82309 30.6602 0.679493 28.6795 0.679493 26.5359V13.4641C0.679493 11.3205 1.82309 9.33974 3.67949 8.26795L15 1.73205C16.8564 0.660251 19.1436 0.660251 21 1.73205Z" fill="url(#paint0_linear)"/>
<path d="M14.6065 21.931C14.5499 21.7962 14.4884 21.656 14.4221 21.5105C14.3155 21.2768 14.1982 21.0318 14.0545 20.74C12.8773 18.3515 12.9335 18.4752 12.9335 17.9896C12.9335 16.0896 14.2774 15.7404 17.0144 17.4609C17.2238 17.5926 17.4312 17.7276 17.6366 17.8659V16.2672C16.2296 15.401 15.4561 13.7451 15.2919 11.336L6.4393 21.931H14.6065ZM15.4806 21.931H17.6366V18.8496C17.2919 18.6052 16.9412 18.3708 16.5844 18.1465C14.3096 16.7165 13.742 16.864 13.742 17.9896C13.742 18.2706 13.7761 18.3457 14.7796 20.3818C14.9266 20.6802 15.0472 20.9322 15.1576 21.1742C15.2789 21.4401 15.3869 21.6922 15.4806 21.931ZM18.4452 18.4356C19.8151 19.444 21.09 20.6093 22.2699 21.931H26.9737C26.5629 20.7843 25.5891 19.9186 24.0172 19.3252C22.8468 18.8833 21.9677 18.518 21.1686 18.1433C20.8688 18.0028 20.5753 17.8587 20.2712 17.7031C19.7498 17.4363 19.6978 17.4102 18.4452 16.7189V18.4356ZM18.4452 19.4501V21.931H21.1715C20.3119 21.0215 19.4031 20.1945 18.4452 19.4501ZM15.7565 22.7406C16.0235 23.7 15.962 24.3954 15.4749 24.8888C14.6407 25.7336 13.1915 26.1596 11.1278 26.199L17.6366 30.9137V22.7406H15.7565ZM14.9076 22.7406H6.35321L10.2198 25.5414L10.2249 25.383C12.5839 25.4578 14.1419 25.0872 14.8998 24.3196C15.1568 24.0594 15.1565 23.533 14.9076 22.7406ZM26.4357 25.0759L26.3701 25.0207C26.6465 24.6914 26.8823 23.923 27.0477 22.7406H18.4452V30.8811L26.4357 25.0759ZM27.5782 24.2458L29.65 22.7406H27.8639C27.7864 23.3235 27.6919 23.8245 27.5782 24.2458ZM16.0675 10.4078C16.0806 12.7624 16.6115 14.3694 17.6366 15.265V8.52984L16.0675 10.4078ZM18.4452 15.7944C20.0708 16.692 20.0794 16.6958 20.6391 16.9822C20.9352 17.1337 21.2203 17.2737 21.5115 17.4102C22.2901 17.7752 23.1504 18.1327 24.3025 18.5677C26.2 19.284 27.3875 20.4087 27.8229 21.931H29.5637L18.4452 8.58413V15.7944ZM4.33467 23.2769C3.95474 23.0017 3.88755 22.4617 4.18844 22.1015L17.3996 6.29011C17.7231 5.90292 18.3178 5.90336 18.6408 6.29102L31.8123 22.1025C32.1121 22.4623 32.0451 23.001 31.6663 23.2762L18.4947 32.8457C18.2118 33.0512 17.829 33.0515 17.5459 32.8463L4.33467 23.2769Z" fill="white"/>
<defs>
<linearGradient id="paint0_linear" x1="10.0604" y1="3.63141" x2="28.4973" y2="32.3573" gradientUnits="userSpaceOnUse">
<stop stop-color="#00AF9A"/>
<stop offset="1" stop-color="#066C97"/>
</linearGradient>
</defs>
</svg>
