<?xml version="1.0" encoding="utf-8"?>
<!-- Generator: Adobe Illustrator 24.0.1, SVG Export Plug-In . SVG Version: 6.00 Build 0)  -->
<svg version="1.1" id="Layer_1" xmlns="http://www.w3.org/2000/svg" xmlns:xlink="http://www.w3.org/1999/xlink" x="0px" y="0px"
	 width="40px" height="40px" viewBox="0 0 40 40" style="enable-background:new 0 0 40 40;" xml:space="preserve">
<style type="text/css">
	.st0{fill:#A1A3AA;}
</style>
<path class="st0" d="M20,0c-2.5,0-4.5,9.1-4.5,20s2,20,4.5,20s4.5-9.1,4.5-20S22.5,0,20,0z M20.4,38.8c-0.4,0.4-0.5,0.1-0.5,0.1
	c-1.2-1.3-1.7-3.9-1.7-3.9c-2.1-6.4-1.7-20.1-1.7-20.1c1.1-10.8,2.7-13.5,3.2-14c0.1-0.1,0.3-0.1,0.5,0C21.1,1.5,21.7,4,21.7,4
	c2,7.7,1.9,15.1,1.9,15.1c0.1,6.3-1.1,13.3-1.1,13.3C21.7,37.7,20.4,38.8,20.4,38.8z"/>
<path class="st0" d="M37.3,10c-1.2-2.1-10,0.5-19.5,6S1.5,27.7,2.7,29.9s10-0.5,19.5-6S38.5,12.1,37.3,10L37.3,10z M3.9,29.7
	c-0.5,0-0.3-0.5-0.3-0.5C4.1,27.5,6,25.9,6,25.9c4.5-4.8,16.7-11.3,16.7-11.3c10-4.7,13.1-4.5,13.9-4.1c0.1,0,0.4,0.1,0.4,0.4
	c-0.1,1.1-1.9,2.8-1.9,2.8c-5.7,5.7-12,9.2-12,9.2c-5.3,3.3-12.1,5.7-12.1,5.7C5.5,30.1,3.9,29.7,3.9,29.7L3.9,29.7L3.9,29.7z"/>
<path class="st0" d="M37.3,30c1.2-2.1-5.5-8.4-15.1-13.9S4,7.9,2.8,10s5.5,8.4,15.1,13.9S36,32.1,37.3,30z M3.5,10.8
	c-0.1-0.5,0.1-0.5,0.1-0.5c1.7-0.3,4.3,0.4,4.3,0.4c6.5,1.5,18.1,8.8,18.1,8.8c9.1,6.4,10.4,9.1,10.5,9.9c0,0.1,0,0.4-0.1,0.4
	c-1.1,0.5-3.5-0.1-3.5-0.1c-7.7-2-13.9-5.9-13.9-5.9C13.5,20.7,8,16,8,16C3.9,12.5,3.5,10.8,3.5,10.8L3.5,10.8z"/>
<circle class="st0" cx="20" cy="20" r="2.3"/>
<ellipse class="st0" cx="29.7" cy="11.1" rx="1.3" ry="1.3"/>
<ellipse class="st0" cx="7.2" cy="15.7" rx="1.3" ry="1.3"/>
<ellipse class="st0" cx="17.2" cy="33.1" rx="1.3" ry="1.3"/>
</svg>
