<?xml version="1.0" encoding="utf-8"?>
<!-- Generator: Adobe Illustrator 24.0.1, SVG Export Plug-In . SVG Version: 6.00 Build 0)  -->
<svg version="1.1" id="Layer_1" xmlns="http://www.w3.org/2000/svg" xmlns:xlink="http://www.w3.org/1999/xlink" x="0px" y="0px"
	 width="40px" height="40px" viewBox="0 0 40 40" style="enable-background:new 0 0 40 40;" xml:space="preserve">
<style type="text/css">
	.st0{fill:#1B1E36;}
	.st1{fill:url(#SVGID_1_);}
	.st2{fill:#FFFFFF;}
</style>
<path class="st0" d="M25,40H15C6.8,40,0,33.3,0,25V15C0,6.8,6.8,0,15,0h10c8.3,0,15,6.8,15,15v10C40,33.3,33.3,40,25,40z"/>
<linearGradient id="SVGID_1_" gradientUnits="userSpaceOnUse" x1="9.0907" y1="40.8954" x2="30.9093" y2="3.1046" gradientTransform="matrix(1 0 0 -1 0 42)">
	<stop  offset="0" style="stop-color:#FFFFFF;stop-opacity:0.5"/>
	<stop  offset="1" style="stop-color:#FFFFFF;stop-opacity:0"/>
</linearGradient>
<path class="st1" d="M25,40H15C6.8,40,0,33.3,0,25V15C0,6.8,6.8,0,15,0h10c8.3,0,15,6.8,15,15v10C40,33.3,33.3,40,25,40z"/>
<path class="st2" d="M20,5c-1.9,0-3.4,6.8-3.4,15s1.5,15,3.4,15s3.4-6.8,3.4-15S21.9,5,20,5z M20.3,34.1c-0.3,0.3-0.4,0.1-0.4,0.1
	c-0.9-1-1.3-2.9-1.3-2.9c-1.6-4.8-1.3-15.1-1.3-15.1c0.8-8.1,2-10.1,2.4-10.5c0.1-0.1,0.2-0.1,0.4,0C20.8,6.1,21.3,8,21.3,8
	c1.5,5.8,1.4,11.3,1.4,11.3c0.1,4.7-0.8,10-0.8,10C21.3,33.3,20.3,34.1,20.3,34.1z"/>
<path class="st2" d="M33,12.5c-0.9-1.6-7.5,0.4-14.6,4.5S6.1,25.8,7,27.4s7.5-0.4,14.6-4.5S33.9,14.1,33,12.5L33,12.5z M7.9,27.3
	c-0.4,0-0.2-0.4-0.2-0.4c0.4-1.3,1.8-2.5,1.8-2.5c3.4-3.6,12.5-8.5,12.5-8.5c7.5-3.5,9.8-3.4,10.4-3.1c0.1,0,0.3,0.1,0.3,0.3
	c-0.1,0.8-1.4,2.1-1.4,2.1c-4.3,4.3-9,6.9-9,6.9c-4,2.5-9.1,4.3-9.1,4.3C9.1,27.6,7.9,27.3,7.9,27.3L7.9,27.3L7.9,27.3z"/>
<path class="st2" d="M33,27.5c0.9-1.6-4.1-6.3-11.3-10.4S8,10.9,7.1,12.5s4.1,6.3,11.3,10.4S32,29.1,33,27.5z M7.6,13.1
	c-0.1-0.4,0.1-0.4,0.1-0.4C9,12.5,10.9,13,10.9,13c4.9,1.1,13.6,6.6,13.6,6.6c6.8,4.8,7.8,6.8,7.9,7.4c0,0.1,0,0.3-0.1,0.3
	c-0.8,0.4-2.6-0.1-2.6-0.1c-5.8-1.5-10.4-4.4-10.4-4.4C15.1,20.5,11,17,11,17C7.9,14.4,7.6,13.1,7.6,13.1L7.6,13.1z"/>
<circle class="st2" cx="20" cy="20" r="1.7"/>
<ellipse class="st2" cx="27.3" cy="13.3" rx="1" ry="1"/>
<ellipse class="st2" cx="10.4" cy="16.8" rx="1" ry="1"/>
<ellipse class="st2" cx="17.9" cy="29.8" rx="1" ry="1"/>
</svg>
