<svg viewBox="0 0 56 56" fill="none" xmlns="http://www.w3.org/2000/svg">
    <path fillRule="evenodd" clipRule="evenodd" d="M38.155 26H45.46L46 23H38.935C37.5422 23.0433 36.1921 23.4916 35.05 24.29C34.63 22.79 30.55 23 30.55 23L31.09 20H29.5L28.96 23H27.295L27.76 20H26.035L25.405 23H23.62L22.705 27.68L21.49 23.09H17.5L10 34.115H16.18L16.81 31.19H15.55L19.15 25.925L20.5 31.22H19.15L18.565 34.115H23.155L22.78 36.125H24.58L25 34.115H26.5L26.125 36.125H28L28.375 34.115H30.715C31.791 33.993 32.7869 33.487 33.52 32.69C34.3939 33.5745 35.577 34.0853 36.82 34.115H43.885L44.35 31.19H38.005C33.64 31.115 35.5 25.97 38.155 26ZM30.22 31.115H25.54L25.915 29.69H30.415C31.555 29.765 31.18 31.115 30.22 31.115ZM26.245 27.275H30.925V27.335C31.84 27.335 32.26 25.925 31.12 25.85H26.62L26.245 27.275Z" fill="white"/>
</svg>