<svg width="36" height="40" viewBox="0 0 36 40" fill="none" xmlns="http://www.w3.org/2000/svg">
<path d="M21 1.73205L32.3205 8.26795C34.1769 9.33975 35.3205 11.3205 35.3205 13.4641V26.5359C35.3205 28.6795 34.1769 30.6603 32.3205 31.732L21 38.2679C19.1436 39.3397 16.8564 39.3397 15 38.2679L3.67949 31.732C1.82308 30.6603 0.679489 28.6795 0.679489 26.5359V13.4641C0.679489 11.3205 1.82308 9.33975 3.67949 8.26795L15 1.73205C16.8564 0.660254 19.1436 0.660254 21 1.73205Z" fill="#F7931A"/>
<path style="mix-blend-mode:overlay" d="M21 1.73205L32.3205 8.26795C34.1769 9.33975 35.3205 11.3205 35.3205 13.4641V26.5359C35.3205 28.6795 34.1769 30.6603 32.3205 31.732L21 38.2679C19.1436 39.3397 16.8564 39.3397 15 38.2679L3.67949 31.732C1.82308 30.6603 0.679489 28.6795 0.679489 26.5359V13.4641C0.679489 11.3205 1.82308 9.33975 3.67949 8.26795L15 1.73205C16.8564 0.660254 19.1436 0.660254 21 1.73205Z" fill="url(#paint0_linear)"/>
<path d="M23.966 18.8344C24.2368 17.0483 22.8593 16.0879 20.9772 15.447L21.5879 13.0269L20.0974 12.6604L19.5022 15.0167C19.1106 14.9195 18.7087 14.8292 18.3076 14.7389L18.9071 12.3673L17.4166 12L16.8059 14.4193C16.4816 14.346 16.1624 14.2744 15.8536 14.1978L15.8553 14.1901L13.799 13.683L13.4022 15.2562C13.4022 15.2562 14.5089 15.5067 14.4856 15.522C15.0894 15.6712 15.1981 16.0657 15.18 16.3793L14.4847 19.1361C14.5261 19.1463 14.5796 19.1617 14.64 19.1847L14.4821 19.1463L13.5075 23.0084C13.4333 23.189 13.2461 23.4609 12.8234 23.3578C12.839 23.3791 11.7401 23.091 11.7401 23.091L11 24.7766L12.9408 25.2547C13.3013 25.3442 13.655 25.4379 14.0026 25.5257L13.3858 27.9731L14.8755 28.3396L15.4862 25.9194C15.8933 26.0276 16.2883 26.1282 16.6748 26.2236L16.0658 28.6336L17.5563 29L18.173 26.5577C20.7158 27.0332 22.6273 26.8414 23.432 24.5696C24.0807 22.7408 23.4001 21.6849 22.0623 20.9972C23.037 20.7757 23.7702 20.1425 23.966 18.8344ZM20.5589 23.5538C20.0991 25.3834 16.981 24.394 15.9701 24.146L16.7895 20.9035C17.8004 21.1532 21.041 21.6466 20.5589 23.5538ZM21.0203 18.808C20.6003 20.4723 18.0057 19.6261 17.1647 19.419L17.9065 16.479C18.7475 16.6861 21.4585 17.0721 21.0203 18.808Z" fill="white"/>
<path d="M18 33C25.1797 33 31 27.1797 31 20C31 12.8203 25.1797 7 18 7C10.8203 7 5 12.8203 5 20C5 27.1797 10.8203 33 18 33Z" stroke="white" stroke-width="2"/>
<defs>
<linearGradient id="paint0_linear" x1="10.3063" y1="5.5099" x2="28.6589" y2="32.7678" gradientUnits="userSpaceOnUse">
<stop stop-color="white" stop-opacity="0.5"/>
<stop offset="1" stop-color="white" stop-opacity="0"/>
</linearGradient>
</defs>
</svg>
