<?xml version="1.0" encoding="utf-8"?>
<!-- Generator: Adobe Illustrator 24.0.1, SVG Export Plug-In . SVG Version: 6.00 Build 0)  -->
<svg version="1.1" id="Layer_1" xmlns="http://www.w3.org/2000/svg" xmlns:xlink="http://www.w3.org/1999/xlink" x="0px" y="0px"
	 width="40px" height="40px" viewBox="0 0 40 40" style="enable-background:new 0 0 40 40;" xml:space="preserve">
<style type="text/css">
	.st0{fill:#A1A3AA;}
</style>
<path class="st0" d="M28.7,32.4c3.9-2.7,6.4-7.2,6.4-12.4s-2.5-9.6-6.4-12.4H40v24.7H28.7z"/>
<path class="st0" d="M4.9,20c0,5.1,2.5,9.6,6.4,12.4H0V7.6h11.4C7.5,10.4,4.9,14.9,4.9,20z"/>
<path class="st0" d="M18.7,19.2L18,16.5c0.8-0.1,3-1,3.4,0.5C21.8,18.5,19.5,19,18.7,19.2z"/>
<path class="st0" d="M23.2,20.9c0.4,1.6-2.4,2.2-3.3,2.4l-0.8-2.9C20,20.2,22.6,19.2,23.2,20.9z"/>
<path class="st0" d="M20,7.4C13.2,7.4,7.7,13,7.7,19.8c0,6.8,5.5,12.3,12.3,12.3s12.3-5.5,12.3-12.3C32.3,13,26.8,7.4,20,7.4z
	 M22.6,24.3l0.5,2.1l-1.3,0.4l-0.5-2c-0.3,0.1-0.6,0.2-1,0.3l0.5,2.1l-1.3,0.4l-0.6-2.2c-0.3,0.1-0.7,0.1-1,0.2L16.3,26l-0.2-1.6
	l1-0.2c0.4-0.1,0.5-0.4,0.4-0.6l-0.9-3.4L16,17.7c-0.1-0.2-0.4-0.5-0.9-0.3l-1,0.2l-0.3-1.4l1.8-0.5c0.2-0.1,0.5-0.1,0.8-0.2
	l-0.6-2.1l1.3-0.4l0.5,2c0.3-0.1,0.8-0.2,1-0.3l-0.5-2l1.3-0.4l0.6,2.1c1.7-0.3,3.2-0.1,3.8,1.3c0.4,1.2,0.1,1.9-0.6,2.6
	c1.3-0.1,2.3,0.5,2.6,2.2C26.1,22.6,24.7,23.6,22.6,24.3z"/>
</svg>
