<?xml version="1.0" encoding="utf-8"?>
<!-- Generator: Adobe Illustrator 24.0.1, SVG Export Plug-In . SVG Version: 6.00 Build 0)  -->
<svg version="1.1" id="Layer_1" xmlns="http://www.w3.org/2000/svg" xmlns:xlink="http://www.w3.org/1999/xlink" x="0px" y="0px"
	 width="40px" height="40px" viewBox="0 0 40 40" style="enable-background:new 0 0 40 40;" xml:space="preserve">
<style type="text/css">
	.st0{fill:#0B76FF;}
	.st1{fill:url(#SVGID_1_);}
	.st2{fill-rule:evenodd;clip-rule:evenodd;fill:#FFFFFF;}
</style>
<path class="st0" d="M25,40H15C6.8,40,0,33.3,0,25V15C0,6.8,6.8,0,15,0h10c8.3,0,15,6.8,15,15v10C40,33.3,33.3,40,25,40z"/>
<linearGradient id="SVGID_1_" gradientUnits="userSpaceOnUse" x1="9.0907" y1="40.8954" x2="30.9093" y2="3.1046" gradientTransform="matrix(1 0 0 -1 0 42)">
	<stop  offset="0" style="stop-color:#FFFFFF;stop-opacity:0.5"/>
	<stop  offset="1" style="stop-color:#FFFFFF;stop-opacity:0"/>
</linearGradient>
<path class="st1" d="M25,40H15C6.8,40,0,33.3,0,25V15C0,6.8,6.8,0,15,0h10c8.3,0,15,6.8,15,15v10C40,33.3,33.3,40,25,40z"/>
<g transform="translate(4.1228 6.1842)">
	<polygon class="st2" points="15.9,20 22.7,20 15.9,8.4 15.9,8.4 15.9,1.3 29,23.8 15.9,23.8 	"/>
	<polygon class="st2" points="15.9,20 15.9,23.8 2.7,23.8 15.9,1.3 15.9,8.4 15.9,8.4 9.2,20 	"/>
	<polygon class="st2" points="15.9,11.3 15.9,18.7 11.7,18.7 	"/>
	<polygon class="st2" points="15.9,11.3 20,18.7 15.9,18.7 	"/>
	<polygon class="st2" points="-0.3,9 15.9,15.7 15.9,16.7 -0.3,12.7 	"/>
	<polygon class="st2" points="32.2,6.2 15.9,15.7 15.9,15.9 32.2,9.3 	"/>
	<polygon class="st2" points="32.2,15.4 15.9,16.7 15.9,16.4 32.2,12.4 	"/>
	<polygon class="st2" points="32.2,9.4 15.9,16 15.9,16.4 32.2,12.2 	"/>
</g>
</svg>
