<?xml version="1.0" encoding="utf-8"?>
<!-- Generator: Adobe Illustrator 23.0.0, SVG Export Plug-In . SVG Version: 6.00 Build 0)  -->
<svg version="1.1" id="Layer_1" xmlns="http://www.w3.org/2000/svg" xmlns:xlink="http://www.w3.org/1999/xlink" x="0px" y="0px"
	 width="32px" height="32px" viewBox="0 0 32 32" style="enable-background:new 0 0 32 32;" xml:space="preserve">
<style type="text/css">
	.st0{fill:#0B76FF;}
	.st1{fill:url(#SVGID_1_);}
	.st2{fill-rule:evenodd;clip-rule:evenodd;fill:#FFFFFF;}
</style>
<path class="st0" d="M20,32h-8C5.4,32,0,26.6,0,20v-8C0,5.4,5.4,0,12,0h8c6.6,0,12,5.4,12,12v8C32,26.6,26.6,32,20,32z"/>
<linearGradient id="SVGID_1_" gradientUnits="userSpaceOnUse" x1="7.2681" y1="0.8759" x2="24.7319" y2="31.1241">
	<stop  offset="0" style="stop-color:#FFFFFF;stop-opacity:0.5"/>
	<stop  offset="1" style="stop-color:#FFFFFF;stop-opacity:0"/>
</linearGradient>
<path class="st1" d="M20,32h-8C5.4,32,0,26.6,0,20v-8C0,5.4,5.4,0,12,0h8c6.6,0,12,5.4,12,12v8C32,26.6,26.6,32,20,32z"/>
<g transform="translate(4.1228 6.1842)">
	<polygon class="st2" points="11.9,14.8 17.3,14.8 11.9,5.5 11.9,5.5 11.9,-0.2 22.4,17.8 11.9,17.8 	"/>
	<polygon class="st2" points="11.9,14.8 11.9,17.8 1.3,17.8 11.9,-0.2 11.9,5.5 11.9,5.5 6.5,14.8 	"/>
	<polygon class="st2" points="11.9,7.8 11.9,13.7 8.5,13.7 	"/>
	<polygon class="st2" points="11.9,7.8 15.2,13.7 11.9,13.7 	"/>
	<polygon class="st2" points="-1.1,6 11.9,11.3 11.9,12.1 -1.1,8.9 	"/>
	<polygon class="st2" points="24.9,3.7 11.9,11.3 11.9,11.5 24.9,6.2 	"/>
	<polygon class="st2" points="24.9,11.1 11.9,12.1 11.9,11.9 24.9,8.7 	"/>
	<polygon class="st2" points="24.9,6.3 11.9,11.6 11.9,11.9 24.9,8.5 	"/>
</g>
</svg>
