<?xml version="1.0" encoding="utf-8"?>
<!-- Generator: Adobe Illustrator 24.0.1, SVG Export Plug-In . SVG Version: 6.00 Build 0)  -->
<svg version="1.1" id="Layer_1" xmlns="http://www.w3.org/2000/svg" xmlns:xlink="http://www.w3.org/1999/xlink" x="0px" y="0px"
	 width="40px" height="40px" viewBox="0 0 40 40" style="enable-background:new 0 0 40 40;" xml:space="preserve">
<style type="text/css">
	.st0{fill-rule:evenodd;clip-rule:evenodd;fill:#A1A3AA;}
</style>
<g transform="translate(4.1228 6.1842)">
	<polygon class="st0" points="15.8,23 24.2,23 15.8,8.7 15.8,8.7 15.8,0 31.9,27.7 15.8,27.7 	"/>
	<polygon class="st0" points="15.8,23 15.8,27.7 -0.4,27.7 15.8,0 15.8,8.7 15.8,8.7 7.6,23 	"/>
	<polygon class="st0" points="15.8,12.3 15.8,21.4 10.6,21.4 	"/>
	<polygon class="st0" points="15.8,12.3 20.9,21.4 15.8,21.4 	"/>
	<polygon class="st0" points="-4.1,9.4 15.8,17.7 15.8,18.9 -4.1,14 	"/>
	<polygon class="st0" points="35.9,6 15.8,17.7 15.8,17.9 35.9,9.8 	"/>
	<polygon class="st0" points="35.9,17.3 15.8,18.9 15.8,18.6 35.9,13.6 	"/>
	<polygon class="st0" points="35.9,9.9 15.8,18.1 15.8,18.6 35.9,13.4 	"/>
</g>
</svg>
