<?xml version="1.0" encoding="utf-8"?>
<!-- Generator: Adobe Illustrator 24.0.1, SVG Export Plug-In . SVG Version: 6.00 Build 0)  -->
<svg version="1.1" id="Layer_1" xmlns="http://www.w3.org/2000/svg" xmlns:xlink="http://www.w3.org/1999/xlink" x="0px" y="0px"
	 width="40px" height="40px" viewBox="0 0 40 40" style="enable-background:new 0 0 40 40;" xml:space="preserve">
<style type="text/css">
	.st0{fill:#A1A3AA;}
</style>
<polygon class="st0" points="12.2,16.7 20.1,9 27.9,16.7 32.4,12.4 20.1,0 7.7,12.4 "/>
<rect x="1.3" y="16.7" transform="matrix(0.7071 -0.7071 0.7071 0.7071 -12.7489 9.0284)" class="st0" width="6.4" height="6.4"/>
<polygon class="st0" points="12.2,23.3 20.1,30.8 27.9,23.3 32.4,27.6 32.4,27.6 20.1,40 7.7,27.6 7.7,27.6 "/>
<rect x="32.3" y="16.6" transform="matrix(0.7071 -0.7071 0.7071 0.7071 -3.6263 30.8915)" class="st0" width="6.4" height="6.4"/>
<polygon class="st0" points="24.6,19.9 24.6,19.9 20.1,15.4 16.6,18.6 16.6,18.6 16.3,19.2 15.6,19.9 15.6,19.9 15.6,19.9 
	15.6,19.9 20.1,24.4 "/>
</svg>
