<?xml version="1.0" encoding="utf-8"?>
<!-- Generator: Adobe Illustrator 24.0.1, SVG Export Plug-In . SVG Version: 6.00 Build 0)  -->
<svg version="1.1" id="Layer_1" xmlns="http://www.w3.org/2000/svg" xmlns:xlink="http://www.w3.org/1999/xlink" x="0px" y="0px"
	 width="40px" height="40px" viewBox="0 0 40 40" style="enable-background:new 0 0 40 40;" xml:space="preserve">
<style type="text/css">
	.st0{fill:#F5BC00;}
	.st1{fill:url(#SVGID_1_);}
	.st2{fill:#FFFFFF;}
</style>
<path class="st0" d="M25,40H15C6.8,40,0,33.3,0,25V15C0,6.8,6.8,0,15,0h10c8.3,0,15,6.8,15,15v10C40,33.3,33.3,40,25,40z"/>
<linearGradient id="SVGID_1_" gradientUnits="userSpaceOnUse" x1="9.0907" y1="40.8954" x2="30.9093" y2="3.1046" gradientTransform="matrix(1 0 0 -1 0 42)">
	<stop  offset="0" style="stop-color:#FFFFFF;stop-opacity:0.5"/>
	<stop  offset="1" style="stop-color:#FFFFFF;stop-opacity:0"/>
</linearGradient>
<path class="st1" d="M25,40H15C6.8,40,0,33.3,0,25V15C0,6.8,6.8,0,15,0h10c8.3,0,15,6.8,15,15v10C40,33.3,33.3,40,25,40z"/>
<polygon class="st2" points="14.6,17.8 20,12.5 25.4,17.8 28.5,14.8 20,6.3 11.5,14.8 "/>
<rect x="7.1" y="17.8" transform="matrix(0.7071 -0.7071 0.7071 0.7071 -11.4152 12.4177)" class="st2" width="4.4" height="4.4"/>
<polygon class="st2" points="14.6,22.3 20,27.5 25.4,22.3 28.5,25.3 28.5,25.3 20,33.8 11.5,25.3 11.5,25.3 "/>
<rect x="28.4" y="17.7" transform="matrix(0.7071 -0.7071 0.7071 0.7071 -5.1183 27.4943)" class="st2" width="4.4" height="4.4"/>
<polygon class="st2" points="23.1,20 23.1,20 20,16.9 17.6,19.1 17.6,19.1 17.4,19.5 16.9,20 16.9,20 16.9,20 16.9,20 20,23.1 
	23.1,20 "/>
</svg>
