<?xml version="1.0" encoding="utf-8"?>
<!-- Generator: Adobe Illustrator 24.0.1, SVG Export Plug-In . SVG Version: 6.00 Build 0)  -->
<svg version="1.1" id="Layer_1" xmlns="http://www.w3.org/2000/svg" xmlns:xlink="http://www.w3.org/1999/xlink" x="0px" y="0px"
	 width="40px" height="40px" viewBox="0 0 40 40" style="enable-background:new 0 0 40 40;" xml:space="preserve">
<style type="text/css">
	.st0{fill:#000D2B;}
	.st1{fill:url(#SVGID_1_);}
	.st2{fill:#FFFFFF;}
</style>
<path class="st0" d="M25,40H15C6.8,40,0,33.3,0,25V15C0,6.8,6.8,0,15,0h10c8.3,0,15,6.8,15,15v10C40,33.3,33.3,40,25,40z"/>
<linearGradient id="SVGID_1_" gradientUnits="userSpaceOnUse" x1="9.0907" y1="40.8954" x2="30.9093" y2="3.1046" gradientTransform="matrix(1 0 0 -1 0 42)">
	<stop  offset="0" style="stop-color:#FFFFFF;stop-opacity:0.5"/>
	<stop  offset="1" style="stop-color:#FFFFFF;stop-opacity:0"/>
</linearGradient>
<path class="st1" d="M25,40H15C6.8,40,0,33.3,0,25V15C0,6.8,6.8,0,15,0h10c8.3,0,15,6.8,15,15v10C40,33.3,33.3,40,25,40z"/>
<path class="st2" d="M19.3,6.3L12.9,10l6.4,3.8l6.5-3.8L19.3,6.3z M20.3,26.3v7.5l8.6-5v-7.5L20.3,26.3z M26.8,12.4v7.5l-6.5,3.8
	v-7.5L26.8,12.4z M11.1,19.9l6.5,3.8v-7.5l-6.5-3.8V19.9z M11.1,30l6.5,3.8v-7.5l-6.5-3.8V30L11.1,30z"/>
</svg>
