<?xml version="1.0" encoding="utf-8"?>
<!-- Generator: Adobe Illustrator 23.0.0, SVG Export Plug-In . SVG Version: 6.00 Build 0)  -->
<svg version="1.1" id="Layer_1" xmlns="http://www.w3.org/2000/svg" xmlns:xlink="http://www.w3.org/1999/xlink" x="0px" y="0px"
	 width="32px" height="32px" viewBox="0 0 32 32" style="enable-background:new 0 0 32 32;" xml:space="preserve">
<style type="text/css">
	.st0{fill:#F28814;}
	.st1{fill:url(#SVGID_1_);}
	.st2{fill:#FFFFFF;}
</style>
<path class="st0" d="M20,32h-8C5.4,32,0,26.6,0,20v-8C0,5.4,5.4,0,12,0h8c6.6,0,12,5.4,12,12v8C32,26.6,26.6,32,20,32z"/>
<linearGradient id="SVGID_1_" gradientUnits="userSpaceOnUse" x1="7.2681" y1="0.8759" x2="24.7319" y2="31.1241">
	<stop  offset="0" style="stop-color:#FFFFFF;stop-opacity:0.5"/>
	<stop  offset="1" style="stop-color:#FFFFFF;stop-opacity:0"/>
</linearGradient>
<path class="st1" d="M20,32h-8C5.4,32,0,26.6,0,20v-8C0,5.4,5.4,0,12,0h8c6.6,0,12,5.4,12,12v8C32,26.6,26.6,32,20,32z"/>
<path id="btc" class="st2" d="M25,13.6c0.4-2.5-1.5-3.9-4.2-4.8l0.9-3.4l-2.1-0.5l-0.8,3.3c-0.5-0.1-1.1-0.3-1.7-0.4L18,4.5L15.9,4
	L15,7.4c-0.5-0.1-0.9-0.2-1.3-0.3l0,0l-2.9-0.7l-0.6,2.2c0,0,1.5,0.4,1.5,0.4c0.8,0.2,1,0.8,1,1.2l-1,3.9c0.1,0,0.1,0,0.2,0.1
	l-0.2-0.1l-1.4,5.5c-0.1,0.3-0.4,0.6-1,0.5c0,0-1.5-0.4-1.5-0.4l-1,2.4l2.7,0.7c0.5,0.1,1,0.3,1.5,0.4l-0.9,3.5l2.1,0.5l0.9-3.4
	c0.6,0.2,1.1,0.3,1.7,0.4L14,27.5l2.1,0.5l0.9-3.4c3.5,0.7,6.2,0.4,7.3-2.8c0.9-2.6,0-4.1-1.9-5C23.7,16.4,24.7,15.5,25,13.6z
	 M20.3,20.3c-0.6,2.6-5,1.2-6.4,0.8l1.1-4.6C16.4,16.9,20.9,17.6,20.3,20.3z M20.9,13.6c-0.6,2.3-4.2,1.2-5.4,0.9l1-4.2
	C17.7,10.6,21.5,11.2,20.9,13.6z"/>
</svg>
