<?xml version="1.0" encoding="utf-8"?>
<!-- Generator: Adobe Illustrator 24.0.1, SVG Export Plug-In . SVG Version: 6.00 Build 0)  -->
<svg version="1.1" id="Layer_1" xmlns="http://www.w3.org/2000/svg" xmlns:xlink="http://www.w3.org/1999/xlink" x="0px" y="0px"
	 width="40px" height="40px" viewBox="0 0 40 40" style="enable-background:new 0 0 40 40;" xml:space="preserve">
<style type="text/css">
	.st0{fill:#F28814;}
	.st1{fill:url(#SVGID_1_);}
	.st2{fill:#FFFFFF;}
</style>
<path class="st0" d="M25,40H15C6.8,40,0,33.3,0,25V15C0,6.8,6.8,0,15,0h10c8.3,0,15,6.8,15,15v10C40,33.3,33.3,40,25,40z"/>
<linearGradient id="SVGID_1_" gradientUnits="userSpaceOnUse" x1="9.0907" y1="40.8954" x2="30.9093" y2="3.1046" gradientTransform="matrix(1 0 0 -1 0 42)">
	<stop  offset="0" style="stop-color:#FFFFFF;stop-opacity:0.5"/>
	<stop  offset="1" style="stop-color:#FFFFFF;stop-opacity:0"/>
</linearGradient>
<path class="st1" d="M25,40H15C6.8,40,0,33.3,0,25V15C0,6.8,6.8,0,15,0h10c8.3,0,15,6.8,15,15v10C40,33.3,33.3,40,25,40z"/>
<path id="btc" class="st2" d="M31.3,17c0.5-3.1-1.9-4.9-5.3-6l1.1-4.3l-2.6-0.6l-1,4.1c-0.6-0.1-1.4-0.4-2.1-0.5l1.1-4.1L19.9,5
	l-1.1,4.3c-0.6-0.1-1.1-0.3-1.6-0.4l0,0L13.5,8l-0.8,2.8l1.9,0.5c1,0.3,1.3,1,1.3,1.5l-1.3,4.9c0.1,0,0.1,0,0.3,0.1l-0.3-0.1
	l-1.7,6.9c-0.1,0.4-0.5,0.8-1.3,0.6l-1.9-0.5l-1.3,3l3.4,0.9c0.6,0.1,1.3,0.4,1.9,0.5l-1.1,4.4l2.6,0.6l1.1-4.2
	c0.8,0.3,1.4,0.4,2.1,0.5l-1,4.1l2.6,0.6l1.1-4.3c4.4,0.9,7.8,0.5,9.1-3.5c1.1-3.3,0-5.1-2.4-6.3C29.6,20.5,30.9,19.4,31.3,17z
	 M25.4,25.4c-0.8,3.3-6.3,1.5-8,1l1.4-5.8C20.5,21.1,26.1,22,25.4,25.4z M26.1,17c-0.8,2.9-5.3,1.5-6.8,1.1l1.3-5.3
	C22.1,13.3,26.9,14,26.1,17z"/>
</svg>
