<?xml version="1.0" encoding="utf-8"?>
<!-- Generator: Adobe Illustrator 24.0.1, SVG Export Plug-In . SVG Version: 6.00 Build 0)  -->
<svg version="1.1" id="Layer_1" xmlns="http://www.w3.org/2000/svg" xmlns:xlink="http://www.w3.org/1999/xlink" x="0px" y="0px"
	 width="40px" height="40px" viewBox="0 0 40 40" style="enable-background:new 0 0 40 40;" xml:space="preserve">
<style type="text/css">
	.st0{fill:#A1A3AA;}
</style>
<path id="btc" class="st0" d="M35.2,15.9c0.7-4.1-2.5-6.5-7-8l1.5-5.7l-3.5-0.8l-1.3,5.4C24,6.8,22.9,6.4,22,6.2l1.5-5.4L20,0
	l-1.5,5.7c-0.8-0.1-1.5-0.4-2.1-0.5l0,0L11.5,4l-1.1,3.7L13,8.4c1.3,0.4,1.7,1.3,1.7,2L13,16.9c0.1,0,0.1,0,0.4,0.1L13,16.9L10.7,26
	c-0.1,0.5-0.7,1.1-1.7,0.8l-2.5-0.7l-1.7,4l4.5,1.2c0.8,0.1,1.7,0.5,2.5,0.7l-1.5,5.8l3.5,0.8l1.5-5.6c1.1,0.4,1.9,0.5,2.8,0.7
	l-1.3,5.4l3.5,0.8l1.5-5.7c5.8,1.2,10.4,0.7,12.1-4.7c1.5-4.4,0-6.8-3.2-8.4C32.9,20.6,34.6,19.1,35.2,15.9z M27.3,27.1
	c-1.1,4.4-8.4,2-10.6,1.3l1.9-7.7C20.8,21.4,28.3,22.6,27.3,27.1z M28.3,15.9c-1.1,3.9-7,2-9,1.5l1.7-7C22.9,11,29.3,12,28.3,15.9z"
	/>
</svg>
