<?xml version="1.0" encoding="utf-8"?>
<!-- Generator: Adobe Illustrator 23.0.0, SVG Export Plug-In . SVG Version: 6.00 Build 0)  -->
<svg version="1.1" id="Layer_1" xmlns="http://www.w3.org/2000/svg" xmlns:xlink="http://www.w3.org/1999/xlink" x="0px" y="0px"
	 width="32px" height="32px" viewBox="0 0 32 32" style="enable-background:new 0 0 32 32;" xml:space="preserve">
<style type="text/css">
	.st0{fill:#2D3B92;}
	.st1{fill:url(#SVGID_1_);}
	.st2{fill:#FEFEFE;}
</style>
<path class="st0" d="M20,32h-8C5.4,32,0,26.6,0,20v-8C0,5.4,5.4,0,12,0h8c6.6,0,12,5.4,12,12v8C32,26.6,26.6,32,20,32z"/>
<linearGradient id="SVGID_1_" gradientUnits="userSpaceOnUse" x1="7.2726" y1="33.1163" x2="24.7274" y2="2.8837" gradientTransform="matrix(1 0 0 -1 0 34)">
	<stop  offset="0" style="stop-color:#FFFFFF;stop-opacity:0.45"/>
	<stop  offset="1" style="stop-color:#FFFFFF;stop-opacity:0"/>
</linearGradient>
<path class="st1" d="M20,32h-8C5.4,32,0,26.6,0,20v-8C0,5.4,5.4,0,12,0h8c6.6,0,12,5.4,12,12v8C32,26.6,26.6,32,20,32z"/>
<g id="layer102">
	<path class="st2" d="M14.9,25.2c-0.9-0.1-2.1-0.3-3.7-0.8c-0.5-0.1-1-0.2-1.6-0.2c-0.3,0-0.5,0-0.5,0c0-0.1,0.9-0.3,1.4-0.3
		c0.6-0.1,0.8,0,2.2,0.3c2.7,0.6,3.8,0.6,6.7,0c1.8-0.4,2.3-0.4,3.3-0.1c0.2,0.1,0.3,0.1,0.3,0.1c0,0-0.4,0.1-0.9,0.1
		c-0.6,0-1.1,0.1-1.9,0.3c-1.4,0.3-2.7,0.5-3.3,0.6C16.4,25.2,15.3,25.2,14.9,25.2z"/>
	<path class="st2" d="M15.3,24.1c-0.6-0.1-1.2-0.2-1.8-0.4c-0.7-0.2-1.3-0.4-2.2-0.6c-0.3-0.1-0.5-0.1-0.5-0.1c0,0,0.3-0.1,0.5-0.1
		c0.7-0.2,1.2-0.1,2.4,0.2c0.5,0.1,1.1,0.3,1.3,0.3c0.9,0.2,1.7,0.1,2.8-0.2c1-0.3,1.4-0.4,1.9-0.4c0.5,0,1.1,0.1,1.4,0.3
		c0.1,0.1,0.2,0.1,0.2,0.1c0,0-0.2,0-0.5,0c-0.7,0-1.3,0.1-2,0.4c-0.7,0.2-1,0.3-1.7,0.4C16.7,24.1,15.6,24.1,15.3,24.1z"/>
	<path class="st2" d="M25.3,23.8c-0.3-0.1-0.5-0.2-1.1-0.8c-1-0.9-1.2-1-2.1-1c-0.5,0-0.6,0-1,0.2c-0.5,0.2-0.6,0.2-0.9,0.2
		c-0.5,0-0.8-0.1-1.1-0.4l-0.2-0.2L18.5,22c-0.3,0.3-1.2,0.5-1.7,0.4c-0.3-0.1-0.5-0.2-0.6-0.3c0-0.1-0.1-0.1-0.2,0
		c-0.3,0.1-1.1,0.3-1.4,0.3c-0.3,0-0.8-0.2-1.1-0.3l-0.2-0.1L13.2,22c-0.3,0.2-0.8,0.4-1.3,0.4c-0.4,0-0.5,0-1-0.2
		c-0.7-0.3-0.9-0.3-1.5-0.1C8.8,22.3,8.5,22.4,8,23c-0.4,0.4-0.6,0.5-0.8,0.7c-0.4,0.2-0.8,0.2-0.9,0.1c-0.2-0.2,0-0.6,0.4-1
		c0.3-0.2,0.5-0.4,0.9-0.5c0.9-0.3,1.3-0.7,1.5-1.5c0.1-0.5,0.1-0.9-0.1-1.4c-0.1-0.2-0.2-0.6-0.3-0.8c-0.1-0.4-0.3-0.7-0.7-1
		c-0.8-0.6-1.2-0.7-2.1-0.3c-0.4,0.2-0.8,0.2-1.3,0C4.3,17.2,4,16.9,4,16.8c0-0.1,0.3-0.4,0.6-0.5c0.4-0.1,0.8-0.1,1.4,0.1
		c0.3,0.1,0.6,0.1,0.7,0.1c0.4,0,1.3-0.4,1.7-0.8c0.2-0.2,0.3-0.2,0.3-0.7c0.2-0.8,0.5-1.7,1-2.5c0.2-0.3,0.2-0.6,0.1-1.1
		c-0.2-0.6-0.3-0.8-1.1-1.3C7.9,9.6,7.5,9.1,7.5,8.6c0-0.8,1.1-0.2,2,1c0.2,0.3,0.4,0.5,0.6,0.6c0.3,0.2,0.8,0.4,1.2,0.4
		c0.2,0,0.3,0,0.7-0.3c0.8-0.5,1.6-0.9,2.6-1.1c0.7-0.2,0.9-0.3,1.1-1.2c0.1-0.5,0.2-0.9,0-1.4c-0.1-0.4-0.2-0.9-0.1-1.3
		c0-0.2,0.1-0.3,0.2-0.5c0.1-0.1,0.2-0.2,0.3-0.2c0.3-0.1,0.6,0.4,0.6,1c0,0.3,0,0.5-0.1,0.8c-0.1,0.6-0.2,0.9,0,1.4
		c0.1,0.4,0.2,0.7,0.4,1C17,9.1,17,9.1,17.5,9.2c1,0.2,1.9,0.6,2.8,1.1c0.4,0.3,0.5,0.3,0.7,0.3c0.3,0,0.5-0.1,0.9-0.3
		c0.4-0.3,0.8-0.6,1-1c0.2-0.4,0.6-0.8,0.8-1c0.2-0.1,0.7-0.2,0.8-0.1c0.1,0.1,0.1,0.4,0,0.6c-0.1,0.3-0.4,0.6-0.9,0.9
		c-0.9,0.6-1.2,1-1.3,1.9l-0.1,0.5l0.2,0.3c0.5,0.8,0.9,1.7,1,2.6c0.1,0.4,0.1,0.5,0.3,0.6c0.6,0.5,1.6,0.7,2.4,0.5
		c0.5-0.1,0.8-0.2,1.2-0.1c0.3,0.1,0.6,0.3,0.6,0.5c0.2,0.5-0.9,0.9-1.8,0.6c-0.3-0.1-0.4-0.1-0.9-0.1c-0.6,0-0.9,0.1-1.3,0.4
		c-0.4,0.3-0.5,0.4-0.6,1c-0.1,0.3-0.2,0.7-0.3,1c-0.1,0.3-0.2,0.5-0.2,0.6c0,0.3,0.3,1,0.5,1.3c0.3,0.4,0.5,0.6,1,0.7
		c0.8,0.3,1.1,0.5,1.4,1c0.2,0.3,0.2,0.5,0.1,0.6C25.7,23.9,25.5,23.9,25.3,23.8z M15.1,21.9c0.3-0.1,0.5-0.3,0.5-0.5
		c0-0.1,0.1-1,0.1-2.7v-2.5l-0.3,0.2c-0.3,0.2-1.4,0.8-2.1,1.1c-0.4,0.2-0.6,0.4-0.7,0.6c0,0.1,0.1,0.4,0.4,1.3
		c0.2,0.6,0.5,1.4,0.6,1.6C13.9,21.8,14.3,22.1,15.1,21.9z M19.5,21.3c1.1-0.8,1.9-2.1,2.2-3.5c0.1-0.5,0.1-1.8,0-2.3
		c-0.5-2.5-2.6-4.3-5.1-4.6c-1.3-0.1-2.6,0.2-3.8,0.9c-0.8,0.5-1.6,1.5-2,2.3c-0.4,0.8-0.5,1.6-0.5,2.5c0,0.7,0.1,1.2,0.3,1.8
		c0.3,0.9,0.8,1.6,1.5,2.3c0.4,0.3,1,0.8,1.1,0.8c0,0,0-0.1,0-0.2c0-0.1-0.1-0.5-0.2-0.9s-0.3-1.1-0.5-1.7c-0.3-1-0.3-1.1-0.2-1.1
		c0.1-0.1,0.7-0.5,1.1-0.7l0.3-0.1l0-0.3c0-0.2-0.1-0.6-0.1-0.9c-0.2-1.3-0.2-1.4,0.4-1.6c0.2-0.1,0.5-0.2,0.6-0.2l0.2-0.1v-0.5
		c0-0.6,0-0.6,0.7-0.8c0.3-0.1,0.5-0.2,0.6-0.3c0.1-0.1,0.2-0.1,0.2,0c0,0,0.2,0.1,0.4,0.2c0.5,0.2,0.8,0.3,0.8,0.4
		c0,0.1,0,0.3,0,0.6c0,0.5,0,0.5,0.5,0.7c0.9,0.3,0.9,0.4,0.8,1.1c0,0.3-0.1,0.7-0.1,1c0,0.3-0.1,0.6-0.1,0.7c0,0.2,0,0.2,0.2,0.3
		c0.3,0.1,1,0.4,1.2,0.5c0.1,0,0.1,0,0,0.2c-0.1,0.2-0.6,2-1,3.2c-0.1,0.3-0.2,0.6-0.2,0.6l0,0.1l0.2-0.1
		C19.1,21.6,19.3,21.4,19.5,21.3z M18.1,15.9c0-0.4,0.1-0.9,0.1-1l0-0.2l-0.2-0.1c-0.4-0.2-1.2-0.4-1.7-0.4c-0.7-0.1-1.3,0-2.2,0.3
		l-0.4,0.1l0,0.2c0,0.4,0.3,1.8,0.3,1.8c0,0,0.2-0.1,0.5-0.2c0.8-0.4,1.2-0.9,1.3-1.5c0-0.3,0-0.3,0.2-0.3c0.1,0,0.1,0,0.2,0.3
		c0.1,0.5,0.1,0.6,0.4,0.9c0.3,0.3,1.3,1,1.4,1C18.1,16.7,18.1,16.3,18.1,15.9z M17,13.4c0-0.3,0-0.4-0.1-0.5
		c-0.3-0.3-0.9-0.4-1.4-0.1c-0.3,0.1-0.4,0.2-0.4,0.6l0,0.3l0.1,0c0.2-0.1,1.3,0,1.5,0c0.1,0,0.2,0,0.2,0.1C17,13.7,17,13.6,17,13.4
		z"/>
</g>
</svg>
