<?xml version="1.0" encoding="utf-8"?>
<!-- Generator: Adobe Illustrator 24.0.1, SVG Export Plug-In . SVG Version: 6.00 Build 0)  -->
<svg version="1.1" id="Layer_1" xmlns="http://www.w3.org/2000/svg" xmlns:xlink="http://www.w3.org/1999/xlink" x="0px" y="0px"
	 width="40px" height="40px" viewBox="0 0 40 40" style="enable-background:new 0 0 40 40;" xml:space="preserve">
<style type="text/css">
	.st0{fill:#A1A3AA;}
</style>
<g id="layer102">
	<path class="st0" d="M17.8,36.8c-1.4-0.1-3.4-0.5-6-1.3c-0.8-0.1-1.7-0.4-2.6-0.4c-0.5,0-0.8,0-0.8,0c0-0.1,1.4-0.5,2.3-0.5
		c1-0.1,1.3,0,3.5,0.5c4.4,1,6.3,1,11,0c3-0.7,3.8-0.7,5.4-0.1c0.4,0.1,0.5,0.1,0.5,0.1s-0.7,0.1-1.4,0.1c-1,0-1.8,0.1-3.1,0.5
		c-2.3,0.5-4.4,0.8-5.4,1C20.2,36.8,18.4,36.8,17.8,36.8z"/>
	<path class="st0" d="M18.4,35c-1-0.1-2-0.4-3-0.7c-1.2-0.4-2.1-0.7-3.7-1c-0.5-0.1-0.8-0.1-0.8-0.1s0.5-0.1,0.8-0.1
		c1.2-0.4,2-0.1,3.9,0.4c0.8,0.1,1.8,0.5,2.1,0.5c1.4,0.4,2.7,0.1,4.6-0.4c1.7-0.5,2.2-0.7,3.1-0.7c0.9,0,1.8,0.1,2.3,0.5
		c0.1,0.1,0.4,0.1,0.4,0.1s-0.4,0-0.8,0c-1.2,0-2.1,0.1-3.3,0.7c-1.2,0.4-1.7,0.5-2.7,0.7C20.8,35,18.9,35,18.4,35z"/>
	<path class="st0" d="M34.7,34.6c-0.5-0.1-0.8-0.4-1.8-1.3c-1.7-1.4-2-1.7-3.4-1.7c-0.8,0-1,0-1.7,0.4c-0.8,0.3-0.9,0.3-1.4,0.3
		c-0.8,0-1.3-0.1-1.8-0.7l-0.4-0.4l-0.7,0.3c-0.5,0.5-2,0.8-2.7,0.7c-0.5-0.1-0.8-0.4-1-0.5c0-0.1-0.1-0.1-0.4,0
		c-0.5,0.1-1.8,0.5-2.2,0.5c-0.5,0-1.3-0.4-1.8-0.5L15,31.4h-0.1c-0.5,0.4-1.3,0.7-2.1,0.7c-0.7,0-0.8,0-1.7-0.4
		c-1.2-0.5-1.4-0.5-2.5-0.1c-0.8,0.5-1.3,0.7-2.1,1.7c-0.7,0.7-1,0.8-1.3,1.2c-0.7,0.4-1.3,0.4-1.4,0.1c-0.3-0.4,0-1,0.7-1.7
		c0.5-0.3,0.8-0.7,1.4-0.8c1.4-0.5,2.1-1.2,2.5-2.5c0.1-0.8,0.1-1.4-0.1-2.3c-0.1-0.4-0.4-1-0.5-1.3c-0.1-0.7-0.5-1.2-1.2-1.7
		c-1.3-1-2-1.2-3.4-0.5c-0.7,0.4-1.3,0.4-2.1,0c-0.5,0-1-0.5-1-0.7c0-0.1,0.5-0.7,1-0.8c0.7-0.1,1.3-0.1,2.3,0.1
		c0.5,0.1,1,0.1,1.2,0.1c0.7,0,2.1-0.7,2.7-1.3c0.3-0.4,0.5-0.4,0.5-1.2c0.4-1.3,0.8-2.7,1.7-4c0.4-0.5,0.4-1,0.1-1.8
		c-0.4-1-0.5-1.3-1.8-2.1c-1.3-0.8-2-1.6-2-2.5c0-1.3,1.8-0.3,3.3,1.7c0.4,0.5,0.7,0.8,1,1c0.5,0.4,1.3,0.7,2,0.7
		c0.4,0,0.5,0,1.2-0.5c1.3-0.8,2.6-1.4,4.3-1.8c1.2-0.4,1.4-0.5,1.8-2c0.1-0.8,0.4-1.4,0-2.3c-0.1-0.7-0.3-1.4-0.1-2.1
		c0-0.3,0.1-0.5,0.4-0.8c0.1-0.1,0.4-0.3,0.5-0.3c0.5-0.1,1,0.7,1,1.7c0,0.5,0,0.8-0.1,1.3c-0.1,1-0.4,1.4,0,2.3
		c0.1,0.7,0.4,1.2,0.7,1.7c0,0.5,0,0.5,0.8,0.7c1.7,0.4,3.1,1,4.6,1.8c0.7,0.5,0.8,0.5,1.2,0.5c0.5,0,0.8-0.1,1.4-0.5
		c0.7-0.5,1.3-1,1.7-1.7c0.4-0.7,1-1.3,1.3-1.7c0.4-0.1,1.2-0.4,1.3-0.1c0.1,0.1,0.1,0.7,0,1c-0.1,0.5-0.7,1-1.4,1.4
		c-1.4,1-2,1.7-2.1,3.1l-0.1,0.8l0.4,0.5c0.8,1.3,1.4,2.7,1.7,4.3c0.1,0.7,0.1,0.8,0.5,1c1,0.8,2.6,1.2,3.9,0.8
		c0.8-0.1,1.3-0.4,2-0.1c0.5,0.1,1,0.5,1,0.8c0.4,0.8-1.4,1.4-3,1c-0.5-0.1-0.7-0.1-1.4-0.1c-1,0-1.4,0.1-2.1,0.7
		c-0.7,0.5-0.8,0.7-1,1.7c-0.1,0.5-0.4,1.2-0.5,1.7c-0.1,0.5-0.4,0.8-0.4,1c0,0.5,0.5,1.7,0.8,2.1c0.5,0.7,0.8,1,1.7,1.2
		c1.3,0.5,1.8,0.8,2.2,1.7c0.4,0.5,0.4,0.8,0.1,1C35.4,34.7,35.1,34.7,34.7,34.6z M18.1,31.4c0.5-0.1,0.8-0.5,0.8-0.8
		c0-0.1,0.1-1.7,0.1-4.4v-4l-0.5,0.4c-0.5,0.4-2.2,1.3-3.4,1.8c-0.7,0.4-1,0.7-1.2,1c0,0.1,0.1,0.7,0.7,2.1c0.3,1,0.8,2.3,1,2.6
		C16.2,31.3,16.8,31.7,18.1,31.4z M25.3,30.4c1.8-1.3,3.1-3.4,3.7-5.7c0.1-0.8,0.1-3,0-3.8c-0.8-4-4.3-7-8.4-7.4
		c-2.1-0.1-4.3,0.3-6.3,1.4c-1.3,0.8-2.6,2.5-3.3,3.8c-0.7,1.3-0.8,2.6-0.8,4c0,1.2,0.1,2,0.5,2.9c0.5,1.4,1.3,2.6,2.5,3.8
		c0.7,0.5,1.7,1.3,1.8,1.3c0,0,0-0.1,0-0.4c0-0.3-0.1-0.8-0.3-1.4c-0.1-0.7-0.5-1.8-0.8-2.7c-0.5-1.7-0.5-1.8-0.3-1.8
		c0.1-0.1,1.2-0.8,1.8-1.2l0.5-0.1v-0.5c0-0.4-0.1-1-0.1-1.4c-0.4-2.1-0.4-2.2,0.7-2.6c0.3-0.1,0.8-0.4,1-0.4l0.4-0.1v-0.8
		c0-1,0-1,1.2-1.3c0.5-0.1,0.8-0.4,0.9-0.5c0.1-0.1,0.4-0.1,0.4,0c0,0,0.4,0.1,0.7,0.4c0.8,0.3,1.3,0.5,1.3,0.7c0,0.1,0,0.5,0,1
		c0,0.8,0,0.8,0.8,1.2c1.4,0.5,1.4,0.7,1.3,1.8c0,0.5-0.1,1.2-0.1,1.7c0,0.5-0.1,1-0.1,1.2c0,0.4,0,0.4,0.4,0.5
		c0.5,0.1,1.7,0.7,2,0.8c0.1,0,0.1,0,0,0.4c-0.1,0.4-1,3.3-1.7,5.2c-0.1,0.5-0.4,1-0.4,1v0.1l0.4-0.1C24.7,30.9,24.9,30.6,25.3,30.4
		z M23,21.6c0-0.7,0.1-1.4,0.1-1.7v-0.4l-0.4-0.1c-0.5-0.3-1.8-0.5-2.6-0.5c-1.2-0.1-2.1,0-3.7,0.5l-0.7,0.1v0.4c0,0.7,0.5,3,0.5,3
		s0.4-0.1,0.8-0.4c1.3-0.7,2-1.4,2.1-2.5c0-0.5,0-0.5,0.4-0.5c0.1,0,0.1,0,0.4,0.5c0.1,0.8,0.1,1,0.7,1.4c0.5,0.5,2.1,1.7,2.3,1.7
		C23,22.9,23,22.3,23,21.6z M21.3,17.6c0-0.5,0-0.7-0.1-0.8c-0.5-0.5-1.4-0.7-2.3-0.1c-0.5,0.1-0.7,0.3-0.7,1v0.5h0.1
		c0.4-0.1,2.1,0,2.5,0c0.1,0,0.4,0,0.4,0.1C21.3,18,21.3,17.9,21.3,17.6z"/>
</g>
</svg>
