<?xml version="1.0" encoding="utf-8"?>
<!-- Generator: Adobe Illustrator 24.0.1, SVG Export Plug-In . SVG Version: 6.00 Build 0)  -->
<svg version="1.1" id="Layer_1" xmlns="http://www.w3.org/2000/svg" xmlns:xlink="http://www.w3.org/1999/xlink" x="0px" y="0px"
	 width="40px" height="40px" viewBox="0 0 40 40" style="enable-background:new 0 0 40 40;" xml:space="preserve">
<style type="text/css">
	.st0{fill:#2D3B92;}
	.st1{fill:url(#SVGID_1_);}
	.st2{fill:#FEFEFE;}
</style>
<path class="st0" d="M25,40H15C6.8,40,0,33.3,0,25V15C0,6.8,6.8,0,15,0h10c8.3,0,15,6.8,15,15v10C40,33.3,33.3,40,25,40z"/>
<linearGradient id="SVGID_1_" gradientUnits="userSpaceOnUse" x1="9.0907" y1="267.1046" x2="30.9093" y2="304.8954" gradientTransform="matrix(1 0 0 1 0 -266)">
	<stop  offset="0" style="stop-color:#FFFFFF;stop-opacity:0.45"/>
	<stop  offset="1" style="stop-color:#FFFFFF;stop-opacity:0"/>
</linearGradient>
<path class="st1" d="M25,40H15C6.8,40,0,33.3,0,25V15C0,6.8,6.8,0,15,0h10c8.3,0,15,6.8,15,15v10C40,33.3,33.3,40,25,40z"/>
<g id="layer102">
	<path class="st2" d="M18.6,31.5c-1.1-0.1-2.6-0.4-4.6-1c-0.6-0.1-1.3-0.3-2-0.3c-0.4,0-0.6,0-0.6,0c0-0.1,1.1-0.4,1.8-0.4
		c0.8-0.1,1,0,2.7,0.4c3.4,0.8,4.8,0.8,8.4,0c2.3-0.5,2.9-0.5,4.1-0.1c0.3,0.1,0.4,0.1,0.4,0.1s-0.5,0.1-1.1,0.1
		c-0.8,0-1.4,0.1-2.4,0.4c-1.8,0.4-3.4,0.6-4.1,0.8C20.5,31.5,19.1,31.5,18.6,31.5z"/>
	<path class="st2" d="M19.1,30.1c-0.8-0.1-1.5-0.3-2.3-0.5c-0.9-0.3-1.6-0.5-2.8-0.8c-0.4-0.1-0.6-0.1-0.6-0.1s0.4-0.1,0.6-0.1
		c0.9-0.3,1.5-0.1,3,0.3c0.6,0.1,1.4,0.4,1.6,0.4c1.1,0.3,2.1,0.1,3.5-0.3c1.3-0.4,1.7-0.5,2.4-0.5s1.4,0.1,1.8,0.4
		c0.1,0.1,0.3,0.1,0.3,0.1s-0.3,0-0.6,0c-0.9,0-1.6,0.1-2.5,0.5c-0.9,0.3-1.3,0.4-2.1,0.5C20.9,30.1,19.5,30.1,19.1,30.1z"/>
	<path class="st2" d="M31.6,29.8c-0.4-0.1-0.6-0.3-1.4-1c-1.3-1.1-1.5-1.3-2.6-1.3c-0.6,0-0.8,0-1.3,0.3C25.7,28,25.6,28,25.2,28
		c-0.6,0-1-0.1-1.4-0.5l-0.3-0.3l-0.5,0.2c-0.4,0.4-1.5,0.6-2.1,0.5c-0.4-0.1-0.6-0.3-0.8-0.4c0-0.1-0.1-0.1-0.3,0
		c-0.4,0.1-1.4,0.4-1.7,0.4c-0.4,0-1-0.3-1.4-0.4l-0.2-0.1h-0.1c-0.4,0.3-1,0.5-1.6,0.5c-0.5,0-0.6,0-1.3-0.3
		c-0.9-0.4-1.1-0.4-1.9-0.1C11,27.9,10.6,28,10,28.8c-0.5,0.5-0.8,0.6-1,0.9c-0.5,0.3-1,0.3-1.1,0.1c-0.2-0.3,0-0.8,0.5-1.3
		C8.8,28.3,9,28,9.5,27.9c1.1-0.4,1.6-0.9,1.9-1.9c0.1-0.6,0.1-1.1-0.1-1.8c-0.1-0.3-0.3-0.8-0.4-1c-0.1-0.5-0.4-0.9-0.9-1.3
		c-1-0.8-1.5-0.9-2.6-0.4c-0.5,0.3-1,0.3-1.6,0C5.4,21.5,5,21.1,5,21c0-0.1,0.4-0.5,0.8-0.6c0.5-0.1,1-0.1,1.8,0.1
		c0.4,0.1,0.8,0.1,0.9,0.1c0.5,0,1.6-0.5,2.1-1c0.2-0.3,0.4-0.3,0.4-0.9c0.3-1,0.6-2.1,1.3-3.1c0.3-0.4,0.3-0.8,0.1-1.4
		c-0.3-0.8-0.4-1-1.4-1.6c-1-0.6-1.5-1.2-1.5-1.9c0-1,1.4-0.2,2.5,1.3c0.3,0.4,0.5,0.6,0.8,0.8c0.4,0.3,1,0.5,1.5,0.5
		c0.3,0,0.4,0,0.9-0.4c1-0.6,2-1.1,3.3-1.4c0.9-0.3,1.1-0.4,1.4-1.5c0.1-0.6,0.3-1.1,0-1.8c-0.1-0.5-0.2-1.1-0.1-1.6
		c0-0.2,0.1-0.4,0.3-0.6c0.1-0.1,0.3-0.2,0.4-0.2c0.4-0.1,0.8,0.5,0.8,1.3c0,0.4,0,0.6-0.1,1c-0.1,0.8-0.3,1.1,0,1.8
		c0.1,0.5,0.3,0.9,0.5,1.3c0,0.4,0,0.4,0.6,0.5c1.3,0.3,2.4,0.8,3.5,1.4c0.5,0.4,0.6,0.4,0.9,0.4c0.4,0,0.6-0.1,1.1-0.4
		c0.5-0.4,1-0.8,1.3-1.3c0.3-0.5,0.8-1,1-1.3c0.3-0.1,0.9-0.3,1-0.1c0.1,0.1,0.1,0.5,0,0.8c-0.1,0.4-0.5,0.8-1.1,1.1
		c-1.1,0.8-1.5,1.3-1.6,2.4l-0.1,0.6l0.3,0.4c0.6,1,1.1,2.1,1.3,3.3c0.1,0.5,0.1,0.6,0.4,0.8c0.8,0.6,2,0.9,3,0.6
		c0.6-0.1,1-0.3,1.5-0.1c0.4,0.1,0.8,0.4,0.8,0.6c0.3,0.6-1.1,1.1-2.3,0.8c-0.4-0.1-0.5-0.1-1.1-0.1c-0.8,0-1.1,0.1-1.6,0.5
		c-0.5,0.4-0.6,0.5-0.8,1.3c-0.1,0.4-0.3,0.9-0.4,1.3c-0.1,0.4-0.3,0.6-0.3,0.8c0,0.4,0.4,1.3,0.6,1.6c0.4,0.5,0.6,0.8,1.3,0.9
		c1,0.4,1.4,0.6,1.7,1.3c0.3,0.4,0.3,0.6,0.1,0.8C32.1,29.9,31.9,29.9,31.6,29.8z M18.9,27.4c0.4-0.1,0.6-0.4,0.6-0.6
		c0-0.1,0.1-1.3,0.1-3.4v-3.1l-0.4,0.3c-0.4,0.3-1.7,1-2.6,1.4c-0.5,0.3-0.8,0.5-0.9,0.8c0,0.1,0.1,0.5,0.5,1.6
		c0.2,0.8,0.6,1.8,0.8,2C17.4,27.3,17.9,27.6,18.9,27.4z M24.4,26.6c1.4-1,2.4-2.6,2.8-4.4c0.1-0.6,0.1-2.3,0-2.9
		c-0.6-3.1-3.3-5.4-6.4-5.7c-1.6-0.1-3.3,0.2-4.8,1.1c-1,0.6-2,1.9-2.5,2.9c-0.5,1-0.6,2-0.6,3.1c0,0.9,0.1,1.5,0.4,2.2
		c0.4,1.1,1,2,1.9,2.9c0.5,0.4,1.3,1,1.4,1c0,0,0-0.1,0-0.3s-0.1-0.6-0.2-1.1c-0.1-0.5-0.4-1.4-0.6-2.1c-0.4-1.3-0.4-1.4-0.2-1.4
		c0.1-0.1,0.9-0.6,1.4-0.9l0.4-0.1v-0.4c0-0.3-0.1-0.8-0.1-1.1c-0.3-1.6-0.3-1.7,0.5-2c0.2-0.1,0.6-0.3,0.8-0.3l0.3-0.1v-0.6
		c0-0.8,0-0.8,0.9-1c0.4-0.1,0.6-0.3,0.7-0.4c0.1-0.1,0.3-0.1,0.3,0c0,0,0.3,0.1,0.5,0.3c0.6,0.2,1,0.4,1,0.5c0,0.1,0,0.4,0,0.8
		c0,0.6,0,0.6,0.6,0.9c1.1,0.4,1.1,0.5,1,1.4c0,0.4-0.1,0.9-0.1,1.3s-0.1,0.8-0.1,0.9c0,0.3,0,0.3,0.3,0.4c0.4,0.1,1.3,0.5,1.5,0.6
		c0.1,0,0.1,0,0,0.3s-0.8,2.5-1.3,4c-0.1,0.4-0.3,0.8-0.3,0.8v0.1l0.3-0.1C23.9,27,24.1,26.8,24.4,26.6z M22.6,19.9
		c0-0.5,0.1-1.1,0.1-1.3v-0.3l-0.3-0.1C22,18,21,17.8,20.4,17.8c-0.9-0.1-1.6,0-2.8,0.4l-0.5,0.1v0.3c0,0.5,0.4,2.3,0.4,2.3
		s0.3-0.1,0.6-0.3c1-0.5,1.5-1.1,1.6-1.9c0-0.4,0-0.4,0.3-0.4c0.1,0,0.1,0,0.3,0.4c0.1,0.6,0.1,0.8,0.5,1.1c0.4,0.4,1.6,1.3,1.8,1.3
		C22.6,20.9,22.6,20.4,22.6,19.9z M21.3,16.8c0-0.4,0-0.5-0.1-0.6c-0.4-0.4-1.1-0.5-1.8-0.1c-0.4,0.1-0.5,0.2-0.5,0.8v0.4H19
		c0.3-0.1,1.6,0,1.9,0c0.1,0,0.3,0,0.3,0.1C21.3,17.1,21.3,17,21.3,16.8z"/>
</g>
</svg>
