<?xml version="1.0" encoding="utf-8"?>
<!-- Generator: Adobe Illustrator 24.0.1, SVG Export Plug-In . SVG Version: 6.00 Build 0)  -->
<svg version="1.1" id="Layer_1" xmlns="http://www.w3.org/2000/svg" xmlns:xlink="http://www.w3.org/1999/xlink" x="0px" y="0px"
	 width="40px" height="40px" viewBox="0 0 40 40" style="enable-background:new 0 0 40 40;" xml:space="preserve">
<style type="text/css">
	.st0{fill:#A1A3AA;}
</style>
<path class="st0" d="M35.4,20.8c0-0.4-0.1-0.7-0.1-0.7c-0.4-0.7-1.3-0.9-2-0.7c-0.1,0-0.4,0.1-0.4,0.4l-6.3,5.6v6.5
	c0,0-6.3-0.9-7.8-1.3c-1.9-0.6-3-0.9-4.3-2c-0.4-0.4-1.6-1.4-1.6-3c0-0.1,0-0.1,0-0.4v-0.4V7.9l8.3,1.3c0.7,0.1,2.3,0.6,3.6,1.6
	c0.6,0.6,0.9,1.2,1.2,1.3c0.6,0.7,0.6,1.3,0.6,1.6v0.4v5c0,0.1,0,0.6,0.4,0.9c0,0.1,0.4,0.4,0.9,0.6c0.4,0,0.6-0.1,0.9-0.1
	c0.1-0.1,0.4-0.1,0.4-0.4l6.5-5.5V9.4c0-0.1,0-0.1,0-0.4c0-1.6-0.9-2.9-1.4-3.6c-0.4-0.3-2-2.6-4.9-3.6c-0.1,0-0.6-0.1-0.6-0.1
	l-7.2-1.3C21,0.2,20.6,0,19.9,0c-0.4,0-1.6-0.1-2.9,0.1c-2.6,0.4-5.8,2.2-6.2,4.7c0,0.1,0,0.4,0,0.6h-0.7C9.5,5.6,8.8,6.1,7.9,6.7
	c-0.7,0.4-2,1.3-2.9,3c-0.9,1.6-0.9,3.3-0.9,3.7V14v15.5c0,0.1,0,0.6,0,0.9c0,0,0.1,1.3,0.6,2.4c0.4,1.3,1.6,3.5,4,4.7
	c0.7,0.4,2.2,0.7,5,1.4c1.3,0.4,3.3,0.7,5.5,0.9c1.2,0.1,1.9,0.1,2.2,0c0.9,0,2.2-0.1,3.6-0.9c2.4-1.3,3.6-3.5,4-4
	c0-0.1,0.1-0.4,0.1-0.4h0.4c0.9-0.1,2.7-0.9,4.2-2.7c0.4-0.6,1.9-2.3,2-4.9c0-0.4,0-0.6,0-0.9C35.4,24.4,35.4,22.6,35.4,20.8
	L35.4,20.8z M14.5,4.8c0.7-0.6,1.3-0.9,1.6-1.2c0.6-0.1,2-0.9,3.6-0.6c0.1,0,0.4,0.1,0.6,0.1l7.3,1.4c0.6,0,2.2,0.4,3.5,1.9
	c0.4,0.4,1.4,1.4,1.4,3.3c0,0.1,0,0.6,0,0.7v2.9l-3,2.3v-1.4c0-0.1,0-0.6-0.1-0.9c-0.4-1.6-1.2-2.7-1.4-3.3
	c-0.1-0.3-1.9-2.4-4.5-3.5c-0.1,0-0.1,0-0.4-0.1l-8.6-1.4L14.5,4.8z M24.7,35.1c-0.7,1.2-2.6,1.3-3.3,1.4c-0.4,0-0.7,0-1.3,0
	L11.1,35l0-0.1c-0.3,0-1.2-0.4-1.9-0.7c-0.7-0.6-1.3-1.2-1.4-1.4c-0.6-0.7-0.7-1.3-0.7-1.6c-0.1-0.6-0.1-1.2-0.1-1.4V13.3v-0.1
	c0-1.6,1.3-3,2.3-3.7l0.4-0.1c0,5.2,0,10.6,0,15.8c0,0.1,0,0.4,0,0.6c0.1,2.6,1.6,4.2,2,4.7c1.9,2.2,4.2,2.7,5.8,3.3
	c0.9,0.1,7.3,1.3,7.3,1.3C24.9,34.9,24.7,35,24.7,35.1L24.7,35.1z M32.5,26.5c0,0.6-0.1,1.9-1.2,2.9c-0.6,0.7-1.3,1.2-1.6,1.3v-4.5
	c0.9-0.7,2-1.6,2.9-2.3C32.5,24.9,32.5,25.8,32.5,26.5L32.5,26.5z"/>
</svg>
