<?xml version="1.0" encoding="utf-8"?>
<!-- Generator: Adobe Illustrator 24.0.1, SVG Export Plug-In . SVG Version: 6.00 Build 0)  -->
<svg version="1.1" id="Layer_1" xmlns="http://www.w3.org/2000/svg" xmlns:xlink="http://www.w3.org/1999/xlink" x="0px" y="0px"
	 width="40px" height="40px" viewBox="0 0 40 40" style="enable-background:new 0 0 40 40;" xml:space="preserve">
<style type="text/css">
	.st0{fill:#0187FA;}
	.st1{fill:url(#SVGID_1_);}
	.st2{fill:#FFFDFC;}
</style>
<path class="st0" d="M25,40H15C6.8,40,0,33.3,0,25V15C0,6.8,6.8,0,15,0h10c8.3,0,15,6.8,15,15v10C40,33.3,33.3,40,25,40z"/>
<linearGradient id="SVGID_1_" gradientUnits="userSpaceOnUse" x1="9.0907" y1="267.1046" x2="30.9093" y2="304.8954" gradientTransform="matrix(1 0 0 1 0 -266)">
	<stop  offset="0" style="stop-color:#FFFFFF;stop-opacity:0.5"/>
	<stop  offset="1" style="stop-color:#FFFFFF;stop-opacity:0"/>
</linearGradient>
<path class="st1" d="M25,40H15C6.8,40,0,33.3,0,25V15C0,6.8,6.8,0,15,0h10c8.3,0,15,6.8,15,15v10C40,33.3,33.3,40,25,40z"/>
<path class="st2" d="M30.9,20.6c0-0.3-0.1-0.5-0.1-0.5c-0.3-0.5-0.9-0.6-1.4-0.5c-0.1,0-0.3,0.1-0.3,0.3l-4.4,3.9v4.5
	c0,0-4.4-0.6-5.4-0.9c-1.3-0.4-2.1-0.6-3-1.4c-0.3-0.3-1.1-1-1.1-2.1c0-0.1,0-0.1,0-0.3v-0.3V11.7l5.8,0.9c0.5,0.1,1.6,0.4,2.5,1.1
	c0.4,0.4,0.6,0.8,0.8,0.9c0.4,0.5,0.4,0.9,0.4,1.1V16v3.5c0,0.1,0,0.4,0.3,0.6c0,0.1,0.3,0.3,0.6,0.4c0.3,0,0.4-0.1,0.6-0.1
	c0.1-0.1,0.3-0.1,0.3-0.3l4.5-3.8v-3.6c0-0.1,0-0.1,0-0.3c0-1.1-0.6-2-1-2.5c-0.3-0.2-1.4-1.8-3.4-2.5c-0.1,0-0.4-0.1-0.4-0.1
	l-5-0.9c-0.3-0.1-0.6-0.2-1.1-0.2c-0.3,0-1.1-0.1-2,0.1c-1.8,0.3-4,1.5-4.3,3.3c0,0.1,0,0.3,0,0.4h-0.5c-0.4,0.1-0.9,0.4-1.5,0.8
	c-0.5,0.3-1.4,0.9-2,2.1c-0.6,1.1-0.6,2.3-0.6,2.6v0.4v10.8c0,0.1,0,0.4,0,0.6c0,0,0.1,0.9,0.4,1.7c0.3,0.9,1.1,2.4,2.8,3.3
	c0.5,0.3,1.5,0.5,3.5,1c0.9,0.3,2.3,0.5,3.8,0.6c0.8,0.1,1.3,0.1,1.5,0c0.6,0,1.5-0.1,2.5-0.6c1.7-0.9,2.5-2.4,2.8-2.8
	c0-0.1,0.1-0.3,0.1-0.3h0.3c0.6-0.1,1.9-0.6,2.9-1.9c0.3-0.4,1.3-1.6,1.4-3.4c0-0.3,0-0.4,0-0.6C30.9,23.1,30.9,21.9,30.9,20.6
	L30.9,20.6z M16.4,9.5c0.5-0.4,0.9-0.6,1.1-0.8c0.4-0.1,1.4-0.6,2.5-0.4c0.1,0,0.3,0.1,0.4,0.1l5.1,1c0.4,0,1.5,0.3,2.4,1.3
	c0.3,0.3,1,1,1,2.3c0,0.1,0,0.4,0,0.5v2l-2.1,1.6v-1c0-0.1,0-0.4-0.1-0.6c-0.3-1.1-0.8-1.9-1-2.3c-0.1-0.2-1.3-1.7-3.1-2.4
	c-0.1,0-0.1,0-0.3-0.1l-6-1L16.4,9.5z M23.5,30.6c-0.5,0.8-1.8,0.9-2.3,1c-0.3,0-0.5,0-0.9,0l-6.3-1.1L14,30.4
	c-0.2,0-0.8-0.3-1.3-0.5c-0.5-0.4-0.9-0.8-1-1c-0.4-0.5-0.5-0.9-0.5-1.1c-0.1-0.4-0.1-0.8-0.1-1V15.4v-0.1c0-1.1,0.9-2.1,1.6-2.6
	l0.3-0.1c0,3.6,0,7.4,0,11c0,0.1,0,0.3,0,0.4c0.1,1.8,1.1,2.9,1.4,3.3c1.3,1.5,2.9,1.9,4,2.3c0.6,0.1,5.1,0.9,5.1,0.9
	C23.6,30.4,23.5,30.5,23.5,30.6L23.5,30.6z M28.9,24.6c0,0.4-0.1,1.3-0.8,2c-0.4,0.5-0.9,0.8-1.1,0.9v-3.1c0.6-0.5,1.4-1.1,2-1.6
	C28.9,23.5,28.9,24.1,28.9,24.6L28.9,24.6z"/>
</svg>
