<?xml version="1.0" encoding="utf-8"?>
<!-- Generator: Adobe Illustrator 24.0.1, SVG Export Plug-In . SVG Version: 6.00 Build 0)  -->
<svg version="1.1" id="Layer_1" xmlns="http://www.w3.org/2000/svg" xmlns:xlink="http://www.w3.org/1999/xlink" x="0px" y="0px"
	 width="40px" height="40px" viewBox="0 0 40 40" style="enable-background:new 0 0 40 40;" xml:space="preserve">
<style type="text/css">
	.st0{fill:#A1A3AA;}
</style>
<path class="st0" d="M19.3,39.4c-0.9-0.7-1.3-2-0.9-3.1c0.4-0.7,0.1-1.5-2.9-7.4c-2.6-5.5-3.3-6.5-3.8-6.5s-0.9-0.4-1.3-0.7
	c-0.6-0.7-0.7-0.9-0.6-2.3c0.1-1.6,0-1.9-2.8-7.7C4.9,6.6,4.1,5.4,3.6,5.2C2.4,4.8,1.7,3.9,1.7,2.6c0-2.3,2.8-3.5,4.5-1.9l0.9,0.9
	h13.1h13.1L33.8,1c0.7-0.9,1.9-1.3,2.9-0.7c1.2,0.6,1.6,1,1.6,2.3S37.6,5,36.4,5.2c-0.7,0.1-1.2,0.7-3.5,6.5
	c-2.2,5.2-2.5,6.5-2.5,7.4c0.1,1.3-0.6,2.6-1.5,2.9c-0.6,0.1-1.3,1.9-3.5,6.5c-2.3,5.5-2.8,6.5-2.3,7.1c0.6,1.3,0.4,2.2-0.6,3.3
	C21.6,40.2,20.4,40.3,19.3,39.4z M23.8,27.8c2.3-5.5,2.6-6.3,2.2-6.5c-0.1-0.1-0.4-0.9-0.4-1.5c0-0.9-0.1-1.2-2.6-2.8l-2.5-1.6
	l-2.6,2c-2.6,2-2.8,2-3.1,4.4c0,0.6,6,12.9,6.3,12.8C21.2,34.2,22.3,31.3,23.8,27.8z M16.4,15.4l2-1.5l-2-1.6
	c-1.2-0.7-3.6-2.5-5.7-3.8C8.8,7.3,7.2,6,7.2,6.3c0,0,1.2,2.5,2.6,5.5c2.2,4.4,2.8,5.5,3.3,5.5C13.9,17.2,14,17.2,16.4,15.4z
	 M29.6,14c0.7-1.6,1.9-4.2,2.3-5.5l1.2-2.6l-5.2,3.9c-2.9,2-5.2,3.8-5.2,3.9c0,0.6,4.2,3.3,4.9,3.3C28.4,17,28.6,16.7,29.6,14z
	 M26.4,8.2c3.1-2.3,5.8-4.2,5.8-4.4c0,0-5.2-0.1-12.1-0.1H7.9L14,7.9c3.3,2.3,6.1,4.4,6.4,4.4C20.6,12.4,23.3,10.5,26.4,8.2z"/>
</svg>
