<?xml version="1.0" encoding="utf-8"?>
<!-- Generator: Adobe Illustrator 24.0.1, SVG Export Plug-In . SVG Version: 6.00 Build 0)  -->
<svg version="1.1" id="Layer_1" xmlns="http://www.w3.org/2000/svg" xmlns:xlink="http://www.w3.org/1999/xlink" x="0px" y="0px"
	 width="40px" height="40px" viewBox="0 0 40 40" style="enable-background:new 0 0 40 40;" xml:space="preserve">
<style type="text/css">
	.st0{fill:#B02728;}
	.st1{fill:url(#SVGID_1_);}
	.st2{fill:#FFFFFF;}
</style>
<path class="st0" d="M25,40H15C6.8,40,0,33.3,0,25V15C0,6.8,6.8,0,15,0h10c8.3,0,15,6.8,15,15v10C40,33.3,33.3,40,25,40z"/>
<linearGradient id="SVGID_1_" gradientUnits="userSpaceOnUse" x1="9.0907" y1="267.1046" x2="30.9093" y2="304.8954" gradientTransform="matrix(1 0 0 1 0 -266)">
	<stop  offset="0" style="stop-color:#FFFFFF;stop-opacity:0.5"/>
	<stop  offset="1" style="stop-color:#FFFFFF;stop-opacity:0"/>
</linearGradient>
<path class="st1" d="M25,40H15C6.8,40,0,33.3,0,25V15C0,6.8,6.8,0,15,0h10c8.3,0,15,6.8,15,15v10C40,33.3,33.3,40,25,40z"/>
<path class="st2" d="M19.5,33.4c-0.6-0.5-0.9-1.4-0.6-2.1c0.3-0.5,0.1-1-2-5.1c-1.8-3.8-2.3-4.5-2.6-4.5c-0.3,0-0.6-0.3-0.9-0.5
	c-0.4-0.5-0.5-0.6-0.4-1.6c0.1-1.1,0-1.3-1.9-5.3c-1.5-3.5-2-4.3-2.4-4.4C7.9,9.6,7.4,9,7.4,8.1c0-1.6,1.9-2.4,3.1-1.3l0.6,0.6h9h9
	L29.5,7c0.5-0.6,1.3-0.9,2-0.5c0.8,0.4,1.1,0.7,1.1,1.6s-0.5,1.6-1.3,1.8c-0.5,0.1-0.8,0.5-2.4,4.5c-1.5,3.6-1.7,4.5-1.7,5.1
	c0.1,0.9-0.4,1.8-1,2c-0.4,0.1-0.9,1.3-2.4,4.5c-1.6,3.8-1.9,4.5-1.6,4.9c0.4,0.9,0.3,1.5-0.4,2.3C21.1,33.9,20.3,34,19.5,33.4z
	 M22.6,25.4c1.6-3.8,1.8-4.3,1.5-4.5c-0.1-0.1-0.3-0.6-0.3-1c0-0.6-0.1-0.8-1.8-1.9l-1.7-1.1l-1.8,1.4c-1.8,1.4-1.9,1.4-2.1,3
	c0,0.4,4.1,8.9,4.3,8.8C20.8,29.8,21.6,27.8,22.6,25.4z M17.5,16.9l1.4-1l-1.4-1.1c-0.8-0.5-2.5-1.7-3.9-2.6
	c-1.3-0.9-2.4-1.8-2.4-1.6c0,0,0.8,1.7,1.8,3.8c1.5,3,1.9,3.8,2.3,3.8C15.8,18.1,15.9,18.1,17.5,16.9z M26.6,15.9
	c0.5-1.1,1.3-2.9,1.6-3.8l0.8-1.8L25.4,13c-2,1.4-3.6,2.6-3.6,2.7c0,0.4,2.9,2.3,3.4,2.3C25.8,18,25.9,17.8,26.6,15.9z M24.4,11.9
	c2.1-1.6,4-2.9,4-3c0,0-3.6-0.1-8.3-0.1h-8.4l4.2,2.9c2.3,1.6,4.2,3,4.4,3C20.4,14.8,22.3,13.5,24.4,11.9z"/>
</svg>
