<?xml version="1.0" encoding="utf-8"?>
<!-- Generator: Adobe Illustrator 24.0.1, SVG Export Plug-In . SVG Version: 6.00 Build 0)  -->
<svg version="1.1" id="Layer_1" xmlns="http://www.w3.org/2000/svg" xmlns:xlink="http://www.w3.org/1999/xlink" x="0px" y="0px"
	 width="40px" height="40px" viewBox="0 0 40 40" style="enable-background:new 0 0 40 40;" xml:space="preserve">
<style type="text/css">
	.st0{fill:#A1A3AA;}
</style>
<g id="layer105">
	<path class="st0" d="M17.8,36.8c-2.9-0.6-5.6-1.5-8.1-3.3c-0.8-0.7-2.9-2.6-3.5-3.5c-0.6-0.8-1.8-2.8-1.8-3.2c0-0.1,0-0.1,0.1-0.4
		c0.4-0.1,11.8,0,12.3,0c0.1,0,0.4,0.1,0.4,0.4c0,0.1,0.1,0.6,0.4,0.6c0.1,0.1,0.4,0.4,0.6,0.6c0.1,0.6,0.8,1.5,1.1,1.5
		c0,0,0.3,0.1,0.6,0.4c0.3,0.6,0.3,0.6,0.3,1.1c0,0.4,0,0.8-0.1,1.1c-0.1,0.3-0.1,0.7-0.1,0.8s0,0.6-0.1,0.7s-0.4,0.7-0.1,0.7
		c0,0,0,0.1,0,0.4c0,0.3,0,0.4,0,0.6c0,0.1,0,0.1,0,0.4c-0.1,0.1,0,0.8,0.1,1.1c0-0.1,0.1-0.1,0.3-0.1s0.1,0,0.1-0.1
		c0-0.1,0-0.4,0.1-0.6c0.1-0.1,0.1-0.4,0.1-0.4c0-0.1,0-0.1,0-0.1c0.1,0,0.6-0.6,0.4-0.6c0,0,0-0.1,0.1-0.1s0.1-0.1,0.4-0.1
		c0.1-0.1,0.4-0.1,0.6-0.1c0.4,0,0.7-0.4,0.7-0.6s0.1-0.1,0.4-0.1c0.6,0,2-1.1,2-1.4c0.1-0.6,1.1-1.1,1.8-1.1c0.4,0,1.5-1.5,1.5-2.1
		c0,0,0.4-0.6,0.7-0.8c0.7-0.7,0.7-0.7,0.7-1.3v-0.6h2.8c1.5,0,2.9,0,3.2,0.1c0.1,0.1,0.1,0.1,0,0.6c-0.4,0.7-1.3,2.2-1.4,2.2
		l-0.3,0.3c0,0.1-0.1,0.4-1.1,1.4c-0.4,0.6-1.5,1.5-2,2c-1.4,1.3-2,1.4-3.2,2.1c-2.1,1.1-3.3,1.4-5.4,1.8
		C21.5,37.1,18.8,37.1,17.8,36.8z"/>
	<path class="st0" d="M40,15.9L40,15.9v-1.8h-2.8c-1.5,0-10.5,0-19.9,0c-13.2,0-17.1,0-17.1,0.1c0,0-0.1,2.6-0.1,5.7
		c0,4.2,0,5.6,0.1,5.7c0.1,0.1,4.7,0.1,19.7,0.1c10.7,0,19.7,0,19.9,0c0.3,0,0.1-0.7,0.1-5.7v-4.2H40z M10.2,16.4H6.8H3.5l-0.4,0.4
		l-0.4,0.4V20c0,3.1,0,3.3,0.7,3.5c0.1,0,1.5,0.1,3.3,0.1h2.9V25H7.1c-1.5,0-2.9,0-3.2,0c-0.6,0.4-1.5,0-2.2-0.4
		c-0.8-0.6-1.1-0.7-1.1-4.2c0-1.5,0-3.3,0-3.5c0.1-0.7,0.6-1.4,1.3-1.8c0.6-0.4,0.7-0.4,4.3-0.4h3.6C10.2,14.8,10.2,16.4,10.2,16.4z
		 M27.6,15.5c-0.1,0.4-0.4,0.8-0.4,1.1c-0.1,0.6-0.4,1.4-0.7,2.2c-0.1,0.6-0.6,2-1.1,3.5c-0.4,1.3-0.7,2.1-0.8,2.4
		c-0.6,0.7-2.2,0.6-2.6-0.1c-0.1-0.4-0.8-2.8-1.3-4c-0.1-0.4-0.1-0.8-0.4-1.1c-0.1-0.7-0.4-1.3-0.6-2c-0.1-0.6-0.4-0.6-0.6,0.4
		c0,0.4-0.4,1.3-0.6,2.1c-0.1,0.8-0.6,2.1-0.7,2.8c-0.4,1.5-0.6,1.8-1.1,2.1c-0.6,0.4-1.4,0.4-2,0c-0.6-0.4-0.6-0.6-1.1-1.8
		c-0.1-0.7-0.6-1.4-0.6-1.8c-0.7-2.1-2-6.1-2-6.4c0,0,0.3-0.1,1.1-0.1h1.1l0.4,1.1c0.7,2.2,1.4,4.7,2,6.1l0.4,1.1l0.1-0.7
		c0.1-0.4,0.3-1.3,0.6-2.1c1.4-5,1.4-4.9,2.1-5.3c0.6-0.4,1.3-0.1,1.8,0.1c0.4,0.1,0.6,0.6,1.8,5.3c0,0.4,0.1,0.8,0.4,1.3
		c0.1,0.4,0.1,0.8,0.1,1.1c0.1,0.6,0.1,0.6,0.4-0.1c0-0.4,0.1-0.8,0.4-1.1c0.1-0.6,0.4-1.4,0.8-2.8c0.1-0.4,0.4-1.4,0.7-2.1l0.4-1.4
		h0.8c0.6,0,1.1,0,1.1,0C27.6,15,27.6,15.2,27.6,15.5z M39,24.2l-0.4,0.4c-0.1,0.4-0.4,0.4-0.7,0.6c-0.8,0.1-1.3,0.1-1.8-0.4
		c-0.4-0.4-0.6-0.6-0.6-0.7c0,0-0.4-0.7-0.8-1.4c-0.4-0.7-0.7-1.3-0.7-1.3s-0.6-0.8-1.3-1.8c-0.7-0.8-1.3-1.8-1.3-1.8
		c0-0.1-0.6-0.8-0.7-0.8c0,0-0.1,1.8,0,4c0,3.3,0,4-0.1,4c-0.1,0-0.6,0-1.1,0h-0.8v-4.7c0-4.2,0-4.7,0.1-5c0.6-0.8,2.1-0.8,2.8,0
		c0.1,0.1,0.4,0.4,0.4,0.6c0,0,0.7,1.3,1.5,2.6s1.8,2.6,1.8,2.6c0,0.1,0.4,0.6,0.7,1.1l0.6,0.8v-4v-4h2v9.2H39z"/>
	<path class="st0" d="M4.6,13.1c-0.1-0.1,1.1-2.2,2-3.5c1.1-1.4,2.2-2.4,2.1-2c0,0.1-0.1,0.6-0.1,1.1c0,0.6-0.1,0.8-0.1,1.1
		c-0.1,0.1-0.1,0.4,0,0.7c0.1,0.6,0.1,0.6-0.1,1.3c-0.1,0.4-0.4,0.8-0.4,0.8s0,0.4-0.1,0.4c-0.1,0.1-0.1,0.1-1.4,0.1
		C5.2,13.4,4.6,13.1,4.6,13.1z"/>
	<path class="st0" d="M20.2,13.1c-0.1-0.1,0-0.6,0.1-0.7c0.1-0.1,0.4-0.1,0.4-0.1s0,0,0.1,0c0.1-0.1,0.4-0.1,0.4,0
		c0,0.1,0.1,0.1,0.8-0.1c0.6-0.1,0.7-0.6,0.7-0.7c0-0.1-0.4,0-0.4,0.1c-0.1,0.1-0.1,0.1-0.6,0c-0.1-0.1-0.4-0.1-0.4-0.6
		c0-0.4,0-0.4-0.4-0.4c-0.1,0-0.4,0-0.4-0.1c0.1-0.3,0.6-0.3,0.8,0c0.1,0.1,0.4,0.1,0.4,0.1c0.1-0.1,0.1-0.4,0-0.4s-0.1,0-0.1-0.1
		c0,0,0.1,0,0.4,0c0.1,0,0.4,0,0.6-0.1c0.1-0.1,0.4-0.1,0.6-0.4c0.4,0,0.4-0.6,0-0.7c-0.1,0-0.1-0.1-0.1-0.1S23,8.5,22.6,8.4
		C22.2,8.3,22,8,22,7.8c0-0.1-0.1-0.3-0.6-0.7L21,6.7l-0.1,0.8c-0.1,0.1-0.1,0.1-0.6,0.1c-0.1-0.1-0.4-0.1-0.4-0.3
		c0-0.1,0-0.4-0.1-0.4c-0.1,0-0.1-0.1-0.4-0.1c-0.1-0.1-0.4-0.1-0.8-0.1s-0.7,0.1-0.7,0.1S17.8,7,18,7c0.3,0,0.3,0.1,0.1,0.6
		c0,0.1,0,0.4,0,0.6C18.3,8.3,18.3,8.8,18,9c-0.1,0.1-0.1,0.1-0.1,0.6s0,0.6-0.1,0.6c-0.4,0.1-0.6-0.1-0.6-0.7c0-0.3,0-0.3-0.1-0.3
		c-0.1,0-0.6-0.1-0.8-0.4c-0.4-0.1-0.7-0.4-0.7-0.4S15.3,8.1,15.1,8c-0.1-0.4-0.1-0.4,0.1-0.7c0.1-0.1,0.4-0.4,0.4-0.4
		s0.1-0.1,0.4-0.4c0.3-0.3,0.4-0.1,0.6-0.1s0.6,0,0.8,0.1c0.6,0,0.7-0.1,0.4-0.3L17.7,6l0.4-0.4c0-0.4,0.1-0.6,0.1-0.8
		s0.1-0.1,0.4-0.1c0.3,0,0.7,0.1,0.7,0.4l-0.1,0.1c-0.1,0-0.1,0-0.1,0.1s0.1,0.1,0.1,0.1c0.1,0,0.1,0,0.1-0.1c0,0,0-0.1,0.1-0.1
		c0.1,0,0.1,0.1,0,0.4C19.4,5.9,19.1,5.8,19,6c-0.6,0-0.4,0.3,0.1,0.3c0.4,0,0.6,0,0.7,0.1C20.3,7,20.9,7.2,21,6.9
		c0.4-0.4,0.1-0.7-0.4-0.8c-0.1,0-0.1-0.1,0-0.1c0,0,0.1,0,0.4,0.1c0.1,0.1,0.1,0.1,0.4,0c0.1-0.1,0.1-0.4,0.1-0.4s-0.1-0.3-0.4-0.4
		c-0.4-0.1-0.6-0.4-0.7-0.6c0,0-0.4-0.4-0.7-0.4c-0.4-0.1-0.6-0.4-0.6-0.4s-0.1-0.1-0.4-0.1c-0.6-0.1-0.7-0.1-0.4-0.1
		c0.1,0,0.4,0,0.4-0.1c0-0.4,0.6-0.4,0.8-0.1c0.1,0,0.6,0.1,0.7,0.1c0.4,0,0.6,0,0.8,0.3c0.1,0.1,0.4,0.6,0.6,0.6c0-0.1,0,0,0.1,0
		L22,4.4c0.1,0.3,0.3,0.3,0.6,0.3s0.3,0.1,0.1,0.4c-0.1,0.1,0.1,0.7,0.4,0.7s0.1,0,0.1,0.1s0,0.1,0.1,0.1c0.1,0.1,0.1,0.1,0.1,0.4
		c-0.1,0.1,0.8,0.8,1.4,1.1c0.7,0.1,0.7,0.1,0.6-0.1c0-0.1-0.1-0.6-0.1-0.7c0.1-0.1,0-0.6,0-0.6c0-0.1,0-0.1,0.1-0.1
		c0.1,0,0.4-0.1,0.4-0.4c0-0.3,0.1-0.3,0.1-0.3s0.1-0.1,0.1-0.4c0-0.3,0-0.4-0.1-0.6c-0.1-0.1-0.1-0.1-0.1-0.1
		c0.1,0,2.1,0.8,2.9,1.4c1.3,0.7,3.2,2.2,2.6,2.1c-0.4-0.1-0.4,0.1,0,0.6c0.4,0.4,0.4,0.6,0.4,0.7c0,0.1,0.4,1.1,0.6,1.1
		c0,0,0.1,0,0.1-0.1c0.1-0.1,0.6,0,0.6,0.1s0.1,0.4,0.4,0.1c0.1-0.1,0.4-0.1,0.4,0.1c0,0.1,0,0.4-0.1,0.4s0,0.4,0.1,0.4
		s0.8,1.1,0.8,1.3c0,0-0.1,0.1-0.4,0.1c-0.6,0-0.6,0.1-0.4,0.7c0.1,0.1,0.1,0.6,0.1,0.6C34,13.4,20.2,13.4,20.2,13.1z M24.4,11.5
		c0-0.3,0-0.3-0.4-0.6c-0.1-0.1-0.4-0.1-0.4-0.4s0-0.1,0-0.1c-0.1,0-0.6,0.7-0.6,1.1c0,0.1,0.1,0.1,0.4,0.1s0.6,0,0.6,0.1
		C24.4,11.8,24.4,11.8,24.4,11.5z M17.8,6.7C18,6.7,18,6.6,17.8,6.7c-0.1-0.1-0.4,0-0.4,0C17.4,7.2,17.7,7.2,17.8,6.7z M28.9,5.9
		c0.1-0.4-0.4-0.7-0.7-0.6c-0.1,0-0.4,0.1-0.6,0c-0.1,0-0.4,0-0.4,0c0,0.1,0.7,0.7,1.1,0.7C28.6,6.2,28.6,6.2,28.9,5.9z"/>
	<path class="st0" d="M17.3,5.1c0,0,0-0.1-0.1-0.1C17,4.9,17,4.8,17,4.5c0-0.3,0-0.3,0.4-0.6c0.1-0.1,0.4-0.1,0.4-0.4
		c0-0.1,0-0.1,0.4-0.1c0.1,0,0.1,0,0,0.1c-0.8,0.3-1,1.1-0.7,1.1c0.1,0,0.1,0.1,0,0.6C17.4,5.2,17.3,5.3,17.3,5.1z"/>
	<path class="st0" d="M15.1,5.1C14.9,5.1,14.9,4.8,15.1,5.1c0.4-0.1,0.7-0.4,0.6-0.7c0-0.4,0.4-0.7,0.4-0.6c0,0,0.1,0.1,0.1,0.4
		c0,0,0.1,0.1,0.1,0.3s0,0.1-0.1,0.1s-0.3,0-0.3,0.1C15.7,5.2,15.3,5.2,15.1,5.1z"/>
	<path class="st0" d="M13.5,4.6l-0.1-0.1l0.4-0.1c0.4-0.4,0.6-0.1,0.1,0.1c-0.1,0.1-0.1,0.4-0.1,0.4s0.1,0.1,0,0.1
		C13.8,4.8,13.7,4.8,13.5,4.6z"/>
	<path class="st0" d="M16,3.7c-0.1-0.3,0-0.4,0.6-0.4c0.6,0,0.7,0,0.6,0.4C17,3.8,17,3.8,17,3.7s-0.1-0.1-0.6,0
		C16.3,3.8,16.3,3.8,16,3.7z"/>
</g>
</svg>
