<?xml version="1.0" encoding="utf-8"?>
<!-- Generator: Adobe Illustrator 23.0.0, SVG Export Plug-In . SVG Version: 6.00 Build 0)  -->
<svg version="1.1" id="Layer_1" xmlns="http://www.w3.org/2000/svg" xmlns:xlink="http://www.w3.org/1999/xlink" x="0px" y="0px"
	 width="32px" height="32px" viewBox="0 0 32 32" style="enable-background:new 0 0 32 32;" xml:space="preserve">
<style type="text/css">
	.st0{fill:#2CA6D8;}
	.st1{fill:url(#SVGID_1_);}
	.st2{fill:#FFFFFF;}
</style>
<path class="st0" d="M20,32h-8C5.4,32,0,26.6,0,20v-8C0,5.4,5.4,0,12,0h8c6.6,0,12,5.4,12,12v8C32,26.6,26.6,32,20,32z"/>
<linearGradient id="SVGID_1_" gradientUnits="userSpaceOnUse" x1="7.2726" y1="33.1163" x2="24.7274" y2="2.8837" gradientTransform="matrix(1 0 0 -1 0 34)">
	<stop  offset="0" style="stop-color:#FFFFFF;stop-opacity:0.45"/>
	<stop  offset="1" style="stop-color:#FFFFFF;stop-opacity:0"/>
</linearGradient>
<path class="st1" d="M20,32h-8C5.4,32,0,26.6,0,20v-8C0,5.4,5.4,0,12,0h8c6.6,0,12,5.4,12,12v8C32,26.6,26.6,32,20,32z"/>
<g id="layer102_1_">
	<path class="st2" d="M14.5,26.5c0,0-0.2-0.1-0.4-0.1c-0.2,0-0.6-0.1-0.8-0.2c-0.3-0.1-0.6-0.2-0.7-0.2c-0.1,0-0.3-0.1-0.4-0.1
		c-0.1-0.1-0.2-0.1-0.3-0.1s-0.1,0-0.1-0.1c0,0-0.1-0.1-0.2-0.1c-0.1,0-0.2,0-0.2-0.1c0,0-0.1-0.1-0.1-0.1c-0.1,0-0.2-0.1-0.3-0.1
		c-0.1-0.1-0.2-0.1-0.2-0.1s-0.1,0-0.1-0.1c0,0-0.1-0.1-0.2-0.1c-0.1,0-0.3-0.1-0.3-0.2c-0.1-0.1-0.2-0.1-0.2-0.1s-0.1,0-0.1-0.1
		c0,0,0-0.1-0.1-0.1c0,0-0.1-0.1-0.2-0.1c-0.1-0.1-0.1-0.1-0.1-0.1c0,0-0.1-0.1-0.2-0.1c-0.1-0.1-0.3-0.3-0.5-0.5
		c-0.2-0.2-0.4-0.4-0.5-0.5c-0.7-0.9-0.9-1.1-0.9-1.1c0,0,0-0.1-0.1-0.1c0,0-0.1-0.1-0.2-0.2c-0.1-0.1-0.2-0.3-0.2-0.4
		c-0.1-0.1-0.1-0.2-0.1-0.2c0,0-0.1-0.2-0.2-0.3c-0.1-0.1-0.2-0.4-0.3-0.6c-0.1-0.2-0.2-0.4-0.2-0.4c0,0-0.5,0-1,0
		c-0.9,0-0.9,0-1-0.1C4,19.7,4,18,4,15.9c0-3.3,0-3.7,0.1-3.8c0.1,0,0.3,0,0.7-0.1c1.5,0,1.4,0,1.5-0.3c0.1-0.1,0.1-0.3,0.1-0.3
		c0-0.1,0-0.1,0.1-0.1c0,0,0.1-0.1,0.1-0.2c0-0.1,0.1-0.2,0.1-0.3c0,0,0.1-0.2,0.2-0.4c0.1-0.2,0.2-0.4,0.3-0.4s0.1-0.2,0.1-0.2
		c0,0,0,0,0.1,0c0.1,0,0.1-0.1,0.1-0.1c0-0.1,0-0.1,0.1-0.1s0.1,0,0.1-0.1c0.1-0.2,1.8-2,2-2c0,0,0.1-0.1,0.1-0.1s0.1-0.1,0.2-0.1
		c0.1,0,0.1,0,0.1-0.1c0,0,0.1-0.1,0.3-0.2c0.1-0.1,0.3-0.2,0.3-0.2c0,0,0,0-0.1,0s-0.1,0,0,0c0,0,0.1-0.1,0.2-0.1
		c0.1,0,0.2,0,0.2-0.1c0,0,0-0.1,0.1-0.1c0.1,0,0.1,0,0.1-0.1c0,0,0-0.1,0.1-0.1c0.1,0,0.2-0.1,0.3-0.1s0.3-0.1,0.3-0.1
		c0,0,0.2-0.1,0.3-0.1c0.1-0.1,0.3-0.1,0.4-0.1c0.1,0,0.1,0,0.1-0.1c0,0,0.1-0.1,0.2-0.1c0.1,0,0.4-0.1,0.7-0.2
		c0.3-0.1,0.7-0.2,1-0.2c0.7-0.1,2.8-0.1,3.4,0c0.3,0,0.6,0.1,0.7,0.1c0.1,0,0.2,0.1,0.2,0.1c0,0,0.1,0.1,0.3,0.1
		c0.2,0,0.3,0,0.3,0.1c0,0,0.1,0,0.1,0.1C19.5,6,19.5,6,19.6,6c0,0,0.1,0,0.1,0c0.1,0,0.3,0.1,0.5,0.2c0.2,0.1,0.4,0.2,0.6,0.2
		s0.2,0,0.1,0.1c0,0,0,0.1,0.1,0.1c0.1,0,0.1,0,0.1,0.1c0,0.1,0.6,0.5,0.7,0.5c0,0,0.2,0.1,0.3,0.2c0.1,0.1,0.2,0.2,0.3,0.2
		c0,0,0.1,0.1,0.2,0.2c0.1,0.1,0.2,0.2,0.2,0.2c0,0,0.1,0.1,0.2,0.1c0.1,0.1,0.3,0.3,0.4,0.4c0.2,0.1,0.4,0.4,0.6,0.6
		c0.2,0.2,0.4,0.4,0.5,0.5c0.1,0.1,0.3,0.4,0.4,0.5c0.1,0.2,0.3,0.4,0.3,0.5c0.1,0.1,0.1,0.2,0.1,0.2c0,0,0.4,0.8,0.5,1.1
		c0.1,0.2,0.4,0.2,1.3,0.2c0.8,0,0.9,0,0.9,0.1c0,0.1,0.1,1.8,0.1,3.8c0,3,0,3.7-0.1,3.8c-0.1,0-0.5,0.1-1.1,0.1c-0.8,0-1,0-1.1,0.1
		c-0.2,0.3-0.4,0.9-0.4,0.9c0,0,0,0.1,0,0.1c0,0-0.1,0.1-0.1,0.2c0,0.1-0.1,0.2-0.1,0.2c0,0-0.1,0.1-0.1,0.2c0,0.1-0.1,0.2-0.2,0.3
		c-0.1,0.1-0.2,0.2-0.2,0.2s-0.1,0.1-0.1,0.2c-0.1,0.1-0.2,0.2-0.3,0.3c-0.1,0.2-1.1,1.1-1.1,1.1c-0.1,0-0.2,0.2-0.2,0.2
		c0,0,0,0-0.1,0c-0.1,0-0.1,0-0.1,0.1s-0.1,0.1-0.2,0.2s-0.3,0.2-0.5,0.4c-0.2,0.1-0.4,0.3-0.4,0.3c0,0-0.2,0.1-0.3,0.2
		c-0.2,0.1-0.3,0.2-0.4,0.2c-0.1,0-0.1,0-0.1,0.1c0,0,0,0.1,0,0c0,0-0.2,0-0.3,0.1c-0.8,0.4-1.1,0.5-1.8,0.7
		c-0.3,0.1-0.6,0.2-0.9,0.2C17.3,26.5,14.5,26.6,14.5,26.5z M14.1,19c0.1,0,0.3-0.1,0.3-0.2c0.1-0.1,1.2-4.1,1.2-4.3
		c0-0.3,0.2,0.1,0.6,1.7c0.7,2.4,0.7,2.5,0.9,2.7c0.4,0.3,1.1,0.2,1.4-0.1c0.1-0.1,0.4-1,1-2.9c0.4-1.5,0.8-2.7,0.8-2.8
		c0-0.1-0.1-0.1-0.6-0.1l-0.5,0l-0.1,0.4c-0.1,0.2-0.4,1.3-0.7,2.3s-0.6,1.8-0.6,1.8c0,0-0.3-0.9-0.6-2c-0.3-1-0.6-2-0.6-2.1
		c-0.2-0.5-0.8-0.7-1.3-0.4c-0.2,0.1-0.3,0.2-0.3,0.3c0,0.1-0.3,1.1-0.7,2.2c-0.3,1.1-0.6,2.1-0.6,2.1c0,0-0.7-2.2-1.3-4.2L12.3,13
		l-0.5,0c-0.3,0-0.6,0-0.6,0c-0.1,0.1,1.5,5.3,1.7,5.6C13,19,13.7,19.1,14.1,19z M26.5,18.9c0.4-0.2,0.4-0.2,0.4-3.1v-2.7h-0.6h-0.6
		l0,2.3l0,2.3l-1.4-2.2c-0.8-1.2-1.5-2.2-1.5-2.3c-0.3-0.3-1.1-0.3-1.5,0l-0.2,0.2v2.7v2.7h0.5h0.5v-2.3c0-1.3,0-2.3,0.1-2.3
		c0,0,0.3,0.4,0.6,0.8c1.4,2.1,2.3,3.6,2.5,3.7C25.6,19.1,26.1,19.1,26.5,18.9z M10.3,18.5v-0.4l-1.8,0c-1.3,0-1.8-0.1-1.9-0.1
		c-0.3-0.2-0.4-0.3-0.4-2v-1.6l0.2-0.2l0.2-0.2l1.9,0l1.9,0v-0.4V13H8.5c-1,0-2,0-2.2,0.1c-0.5,0.1-0.9,0.3-1,0.6
		c-0.1,0.2-0.1,0.3-0.1,2.2c0,2.2,0,2.3,0.4,2.6c0.5,0.3,0.7,0.4,2.8,0.4h2V18.5z"/>
</g>
<g id="layer105">
	<path class="st0" d="M14.7,25.7c-1.7-0.3-3.2-0.9-4.6-1.9c-0.5-0.4-1.7-1.5-2-2c-0.3-0.5-1-1.6-1-1.8c0-0.1,0-0.1,0.1-0.2
		c0.2-0.1,6.8,0,7,0c0.1,0,0.2,0.1,0.2,0.2c0,0.1,0.1,0.3,0.2,0.3c0.1,0.1,0.2,0.2,0.3,0.3c0.1,0.3,0.5,0.9,0.6,0.9
		c0,0,0.2,0.1,0.3,0.2C16,22,16,22,16,22.3c0,0.2,0,0.5-0.1,0.6c-0.1,0.1-0.1,0.4-0.1,0.5c0,0.1,0,0.3-0.1,0.4
		c-0.1,0.1-0.2,0.4-0.1,0.4c0,0,0,0.1,0,0.2c0,0.1,0,0.2,0,0.3s0,0.1,0,0.2c-0.1,0.1,0,0.5,0.1,0.6c0.1,0.1,0.2,0.1,0.3,0.1
		c0.1,0,0.1,0,0.1-0.1c0-0.1,0-0.2,0.1-0.3c0.1-0.1,0.1-0.2,0.1-0.2c0-0.1,0-0.1,0-0.1c0.1,0,0.3-0.3,0.2-0.3c0,0,0-0.1,0.1-0.1
		s0.1-0.1,0.2-0.1c0.1-0.1,0.2-0.1,0.3-0.1c0.2,0,0.4-0.2,0.4-0.3c0-0.1,0.1-0.1,0.2-0.1c0.3,0,1.1-0.6,1.1-0.8
		c0.1-0.3,0.6-0.6,1-0.6c0.2,0,0.9-0.9,0.9-1.2c0,0,0.2-0.3,0.4-0.5c0.4-0.4,0.4-0.4,0.4-0.7l0-0.3h1.7c0.9,0,1.7,0,1.8,0.1
		c0.1,0.1,0.1,0.1,0,0.3c-0.2,0.4-0.7,1.3-0.8,1.3c0,0-0.1,0.1-0.1,0.1c0,0.1-0.1,0.2-0.6,0.8c-0.2,0.3-0.9,0.9-1.1,1.1
		c-0.8,0.7-1.1,0.8-1.8,1.2c-1.2,0.6-1.9,0.8-3.1,1C16.8,25.8,15.3,25.8,14.7,25.7z"/>
	<path class="st2" d="M27.4,13.7C27.4,13.7,27.4,13.7,27.4,13.7l0-1l-1.6,0c-0.9,0-6,0-11.4,0c-7.6,0-9.8,0-9.8,0.1
		c0,0-0.1,1.5-0.1,3.3c0,2.4,0,3.2,0.1,3.3c0.1,0.1,2.7,0.1,11.3,0.1c6.2,0,11.3,0,11.4,0c0.1,0,0.1-0.4,0.1-3.3L27.4,13.7
		C27.4,13.7,27.4,13.7,27.4,13.7z M10.3,13.9l-1.9,0l-1.9,0l-0.2,0.2l-0.2,0.2v1.6c0,1.8,0,1.9,0.4,2c0.1,0,0.9,0.1,1.9,0.1l1.7,0
		v0.8H8.7c-0.9,0-1.7,0-1.8,0C6.6,19,6,18.8,5.6,18.6c-0.5-0.3-0.6-0.4-0.6-2.4c0-0.9,0-1.9,0-2c0.1-0.4,0.3-0.8,0.7-1
		C6,13,6.1,13,8.2,13l2.1,0V13.9z M20.3,13.4c-0.1,0.2-0.2,0.5-0.2,0.6c-0.1,0.3-0.2,0.8-0.4,1.3c-0.1,0.3-0.3,1.1-0.6,2
		c-0.2,0.7-0.4,1.2-0.5,1.4c-0.3,0.4-1.3,0.3-1.5-0.1c-0.1-0.2-0.5-1.6-0.7-2.3c-0.1-0.2-0.1-0.5-0.2-0.6c-0.1-0.4-0.2-0.7-0.3-1.1
		c-0.1-0.3-0.2-0.3-0.3,0.2c0,0.2-0.2,0.7-0.3,1.2c-0.1,0.5-0.3,1.2-0.4,1.6c-0.2,0.9-0.3,1-0.6,1.2c-0.3,0.2-0.8,0.2-1.1,0
		c-0.3-0.2-0.3-0.3-0.6-1c-0.1-0.4-0.3-0.8-0.3-1c-0.4-1.2-1.1-3.5-1.1-3.7c0,0,0.2-0.1,0.6-0.1h0.6l0.2,0.6
		c0.4,1.3,0.8,2.7,1.1,3.5l0.2,0.6l0.1-0.4c0.1-0.2,0.2-0.7,0.3-1.2c0.8-2.9,0.8-2.8,1.2-3c0.3-0.2,0.7-0.1,1,0.1
		c0.2,0.1,0.3,0.3,1,3c0,0.2,0.1,0.5,0.2,0.7s0.1,0.5,0.1,0.6c0.1,0.3,0.1,0.3,0.2-0.1c0-0.2,0.1-0.5,0.2-0.6
		c0.1-0.3,0.2-0.8,0.5-1.6c0.1-0.2,0.2-0.8,0.4-1.2l0.2-0.8l0.5,0c0.3,0,0.6,0,0.6,0C20.3,13.1,20.3,13.3,20.3,13.4z M26.9,18.4
		l-0.2,0.2c-0.1,0.2-0.2,0.2-0.4,0.3c-0.5,0.1-0.7,0.1-1-0.2c-0.2-0.2-0.3-0.3-0.3-0.4c0,0-0.2-0.4-0.5-0.8
		c-0.3-0.4-0.5-0.7-0.5-0.7c0,0-0.3-0.5-0.7-1s-0.7-1-0.7-1c0-0.1-0.3-0.5-0.4-0.5c0,0-0.1,1,0,2.3c0,1.9,0,2.3-0.1,2.3
		c-0.1,0-0.3,0-0.6,0h-0.5v-2.7c0-2.4,0-2.7,0.1-2.9c0.3-0.5,1.2-0.5,1.6,0c0.1,0.1,0.2,0.2,0.2,0.3c0,0,0.4,0.7,0.9,1.5
		c0.5,0.8,1,1.5,1,1.5c0,0.1,0.2,0.3,0.4,0.6l0.3,0.5l0-2.3l0-2.3h1.1V18.4z"/>
	<path class="st0" d="M7.1,12.1c-0.1-0.1,0.6-1.3,1.1-2c0.6-0.8,1.3-1.4,1.2-1.1c0,0.1-0.1,0.3-0.1,0.6c0,0.3-0.1,0.5-0.1,0.6
		c-0.1,0.1-0.1,0.2,0,0.4c0.1,0.3,0.1,0.3-0.1,0.7c-0.1,0.2-0.2,0.5-0.2,0.5c0,0,0,0.2-0.1,0.2c-0.1,0.1-0.1,0.1-0.8,0.1
		C7.4,12.2,7.1,12.1,7.1,12.1z"/>
	<path class="st0" d="M16.1,12.1c-0.1-0.1,0-0.3,0.1-0.4c0.1-0.1,0.2-0.1,0.2-0.1s0,0,0.1,0c0.1-0.1,0.2-0.1,0.2,0
		c0,0.1,0.1,0.1,0.5-0.1c0.3-0.1,0.4-0.3,0.4-0.4c0-0.1-0.2,0-0.2,0.1c-0.1,0.1-0.1,0.1-0.3,0c-0.1-0.1-0.2-0.1-0.2-0.3
		c0-0.2,0-0.2-0.2-0.2c-0.1,0-0.2,0-0.2-0.1c0.1-0.2,0.3-0.2,0.5,0c0.1,0.1,0.2,0.1,0.2,0.1c0.1-0.1,0.1-0.2,0-0.2
		c-0.1,0-0.1,0-0.1-0.1c0,0,0.1,0,0.2,0c0.1,0,0.2,0,0.3-0.1c0.1-0.1,0.2-0.1,0.3-0.2c0.2,0,0.2-0.3,0-0.4c-0.1,0-0.1-0.1-0.1-0.1
		c0,0-0.1-0.1-0.3-0.2c-0.2-0.1-0.3-0.2-0.3-0.3c0-0.1-0.1-0.2-0.3-0.4l-0.2-0.2L16.6,9c-0.1,0.1-0.1,0.1-0.3,0.1
		c-0.1-0.1-0.2-0.1-0.2-0.2c0-0.1,0-0.2-0.1-0.2c-0.1,0-0.1-0.1-0.2-0.1c-0.1-0.1-0.2-0.1-0.5-0.1c-0.3,0-0.4,0.1-0.4,0.1
		c0,0,0,0.1,0.1,0.1c0.2,0,0.2,0.1,0.1,0.3c0,0.1,0,0.2,0,0.3c0.1,0.1,0.1,0.4-0.1,0.5c-0.1,0.1-0.1,0.1-0.1,0.3
		c0,0.2,0,0.3-0.1,0.3c-0.2,0.1-0.3-0.1-0.3-0.4c0-0.2,0-0.2-0.1-0.2c-0.1,0-0.3-0.1-0.5-0.2c-0.2-0.1-0.4-0.2-0.4-0.2
		s-0.1-0.1-0.2-0.2c-0.1-0.2-0.1-0.2,0.1-0.4c0.1-0.1,0.2-0.2,0.2-0.2c0,0,0.1-0.1,0.2-0.2c0.1-0.1,0.2-0.1,0.3-0.1
		c0.1,0,0.3,0,0.5,0.1c0.3,0,0.4-0.1,0.2-0.2l-0.1-0.1l0.2-0.2C14.9,7.7,15,7.6,15,7.4c0-0.2,0-0.2,0.2-0.2c0.2,0,0.4,0.1,0.4,0.2
		c0,0-0.1,0.1-0.1,0.1c-0.1,0-0.1,0-0.1,0.1s0.1,0.1,0.1,0.1c0.1,0,0.1,0,0.1-0.1c0,0,0-0.1,0.1-0.1c0.1,0,0.1,0.1,0,0.2
		c-0.1,0.1-0.2,0.1-0.3,0.2c-0.3,0-0.2,0.2,0.1,0.2c0.2,0,0.3,0,0.4,0.1c0.3,0.3,0.6,0.4,0.7,0.2c0.2-0.2,0.1-0.4-0.2-0.5
		c-0.1,0-0.1-0.1,0-0.1c0,0,0.1,0,0.2,0.1c0.1,0.1,0.1,0.1,0.2,0c0.1-0.1,0.1-0.2,0.1-0.2c0,0-0.1-0.1-0.3-0.2s-0.3-0.2-0.4-0.3
		C16.2,7.2,16,7,15.8,7c-0.2-0.1-0.3-0.2-0.3-0.2c0,0-0.1-0.1-0.2-0.1c-0.3-0.1-0.4-0.1-0.2-0.1c0.1,0,0.2,0,0.2-0.1
		c0-0.2,0.3-0.2,0.5-0.1c0.1,0,0.3,0.1,0.4,0.1c0.2,0,0.3,0,0.5,0.2c0.1,0.1,0.2,0.3,0.3,0.3C17,6.9,17,7,17.1,7
		c0,0,0.1,0.1,0.1,0.1c0,0.1,0.1,0.1,0.2,0.1c0.2,0,0.2,0.1,0.1,0.2c-0.1,0.1,0.1,0.4,0.2,0.4c0.1,0,0.1,0,0.1,0.1
		c0,0.1,0,0.1,0.1,0.1C18,8.1,18,8.1,18,8.2c-0.1,0.1,0.5,0.5,0.8,0.6c0.4,0.1,0.4,0.1,0.3-0.1c0-0.1-0.1-0.3-0.1-0.4
		C19.1,8.2,19,8,19,8c0-0.1,0-0.1,0.1-0.1c0.1,0,0.2-0.1,0.2-0.2c0-0.1,0.1-0.2,0.1-0.2c0,0,0.1-0.1,0.1-0.2c0-0.1,0-0.2-0.1-0.3
		c-0.1-0.1-0.1-0.1-0.1-0.1c0.1,0,1.2,0.5,1.7,0.8c0.7,0.4,1.8,1.3,1.5,1.2c-0.2-0.1-0.2,0.1,0,0.3c0.2,0.2,0.2,0.3,0.2,0.4
		c0,0.1,0.2,0.6,0.3,0.6c0,0,0.1,0,0.1-0.1c0.1-0.1,0.3,0,0.3,0.1c0,0.1,0.1,0.2,0.2,0.1c0.1-0.1,0.2-0.1,0.2,0.1
		c0,0.1,0,0.2-0.1,0.2c-0.1,0,0,0.2,0.1,0.2c0.1,0,0.5,0.6,0.5,0.7c0,0-0.1,0.1-0.2,0.1c-0.3,0-0.3,0.1-0.2,0.4
		c0.1,0.1,0.1,0.3,0.1,0.3C24,12.2,16.1,12.2,16.1,12.1z M18.5,11.1c0-0.2,0-0.2-0.2-0.3c-0.1-0.1-0.2-0.1-0.2-0.2
		c0-0.1,0-0.1,0-0.1c-0.1,0-0.3,0.4-0.3,0.6c0,0.1,0.1,0.1,0.2,0.1c0.1,0,0.3,0,0.3,0.1C18.5,11.3,18.5,11.3,18.5,11.1z M14.7,8.4
		C14.8,8.4,14.8,8.3,14.7,8.4c-0.1-0.1-0.2,0-0.2,0C14.5,8.6,14.6,8.6,14.7,8.4z M21,7.9c0.1-0.2-0.2-0.4-0.4-0.3
		c-0.1,0-0.2,0.1-0.3,0c-0.1,0-0.2,0-0.2,0c0,0.1,0.4,0.4,0.6,0.4C20.9,8.1,20.9,8.1,21,7.9z"/>
	<path class="st0" d="M14.4,7.4c0,0,0-0.1-0.1-0.1s-0.1-0.1-0.1-0.2c0-0.2,0-0.2,0.2-0.3c0.1-0.1,0.2-0.1,0.2-0.2
		c0-0.1,0-0.1,0.2-0.1c0.1,0,0.1,0,0,0.1c-0.3,0.1-0.4,0.6-0.2,0.6c0.1,0,0.1,0.1,0,0.3C14.5,7.5,14.4,7.6,14.4,7.4z"/>
	<path class="st0" d="M13.1,7.4C13,7.4,13,7.3,13.1,7.4c0.2-0.1,0.4-0.2,0.3-0.4c0-0.2,0.2-0.4,0.2-0.3c0,0,0.1,0.1,0.1,0.2
		c0,0,0.1,0.1,0.1,0.2c0,0.1,0,0.1-0.1,0.1c-0.1,0-0.2,0-0.2,0.1C13.5,7.5,13.3,7.5,13.1,7.4z"/>
	<path class="st0" d="M12.2,7.2l-0.1-0.1l0.2-0.1c0.2-0.2,0.3-0.1,0.1,0.1c-0.1,0.1-0.1,0.2-0.1,0.2c0,0,0.1,0.1,0,0.1
		C12.4,7.3,12.3,7.3,12.2,7.2z"/>
	<path class="st0" d="M13.7,6.6c-0.1-0.1,0-0.2,0.3-0.2c0.3,0,0.4,0,0.3,0.2c-0.1,0.1-0.1,0.1-0.1,0c0-0.1-0.1-0.1-0.3,0
		C13.8,6.7,13.8,6.7,13.7,6.6z"/>
</g>
</svg>
