<?xml version="1.0" encoding="utf-8"?>
<!-- Generator: Adobe Illustrator 24.0.1, SVG Export Plug-In . SVG Version: 6.00 Build 0)  -->
<svg version="1.1" id="Layer_1" xmlns="http://www.w3.org/2000/svg" xmlns:xlink="http://www.w3.org/1999/xlink" x="0px" y="0px"
	 width="40px" height="40px" viewBox="0 0 40 40" style="enable-background:new 0 0 40 40;" xml:space="preserve">
<style type="text/css">
	.st0{fill:#2CA6D8;}
	.st1{fill:url(#SVGID_1_);}
	.st2{fill:#FFFFFF;}
</style>
<path class="st0" d="M25,40H15C6.8,40,0,33.3,0,25V15C0,6.8,6.8,0,15,0h10c8.3,0,15,6.8,15,15v10C40,33.3,33.3,40,25,40z"/>
<linearGradient id="SVGID_1_" gradientUnits="userSpaceOnUse" x1="9.0907" y1="267.1046" x2="30.9093" y2="304.8954" gradientTransform="matrix(1 0 0 1 0 -266)">
	<stop  offset="0" style="stop-color:#FFFFFF;stop-opacity:0.45"/>
	<stop  offset="1" style="stop-color:#FFFFFF;stop-opacity:0"/>
</linearGradient>
<path class="st1" d="M25,40H15C6.8,40,0,33.3,0,25V15C0,6.8,6.8,0,15,0h10c8.3,0,15,6.8,15,15v10C40,33.3,33.3,40,25,40z"/>
<g id="layer102_1_">
	<path class="st2" d="M18.1,33.1c0,0-0.3-0.1-0.5-0.1s-0.8-0.1-1-0.3c-0.4-0.1-0.8-0.3-0.9-0.3s-0.4-0.1-0.5-0.1
		c-0.1-0.1-0.3-0.1-0.4-0.1c-0.1,0-0.1,0-0.1-0.1c0,0-0.1-0.1-0.3-0.1s-0.2,0-0.2-0.1l-0.1-0.1c-0.1,0-0.3-0.1-0.4-0.1
		c-0.1-0.1-0.3-0.1-0.3-0.1s-0.1,0-0.1-0.1c0,0-0.1-0.1-0.3-0.1c-0.1,0-0.4-0.1-0.4-0.3c-0.1-0.1-0.3-0.1-0.3-0.1s-0.1,0-0.1-0.1
		c0,0,0-0.1-0.1-0.1c0,0-0.1-0.1-0.3-0.1c-0.1-0.1-0.1-0.1-0.1-0.1s-0.1-0.1-0.3-0.1c-0.1-0.1-0.4-0.4-0.6-0.6
		c-0.3-0.3-0.5-0.5-0.6-0.6c-0.9-1.1-1.1-1.4-1.1-1.4s0-0.1-0.1-0.1c0,0-0.1-0.1-0.3-0.3c-0.1-0.1-0.2-0.4-0.2-0.5
		c-0.1-0.1-0.1-0.3-0.1-0.3s-0.1-0.3-0.3-0.4C8.1,26,8,25.6,7.9,25.4c-0.1-0.3-0.2-0.5-0.2-0.5s-0.6,0-1.3,0c-1.1,0-1.1,0-1.3-0.1
		C5,24.6,5,22.5,5,19.9c0-4.1,0-4.6,0.1-4.8c0.1,0,0.4,0,0.9-0.1c1.9,0,1.8,0,1.9-0.4C8,14.5,8,14.2,8,14.2c0-0.1,0-0.1,0.1-0.1
		c0,0,0.1-0.1,0.1-0.3c0-0.1,0.1-0.3,0.1-0.4c0,0,0.1-0.3,0.3-0.5s0.3-0.5,0.4-0.5c0.1,0,0.1-0.3,0.1-0.3s0,0,0.1,0s0.1-0.1,0.1-0.1
		c0-0.1,0-0.1,0.1-0.1c0.1,0,0.1,0,0.1-0.1c0.1-0.3,2.3-2.5,2.5-2.5l0.1-0.1c0,0,0.1-0.1,0.3-0.1c0.1,0,0.1,0,0.1-0.1
		c0,0,0.1-0.1,0.4-0.3c0.1-0.1,0.4-0.3,0.4-0.3s0,0-0.1,0c-0.1,0-0.1,0,0,0c0,0,0.1-0.1,0.3-0.1c0.1,0,0.3,0,0.3-0.1
		c0,0,0-0.1,0.1-0.1C14,8.1,14,8.1,14,8c0,0,0-0.1,0.1-0.1c0.1,0,0.3-0.1,0.4-0.1c0.1,0,0.4-0.1,0.4-0.1s0.2-0.1,0.4-0.1
		c0.1-0.1,0.4-0.1,0.5-0.1c0.1,0,0.1,0,0.1-0.1c0,0,0.1-0.1,0.2-0.1c0.1,0,0.5-0.1,0.9-0.3s0.9-0.3,1.3-0.3c0.9-0.1,3.5-0.1,4.3,0
		c0.4,0,0.8,0.1,0.9,0.1c0.1,0,0.3,0.1,0.3,0.1S23.8,7,24,7c0.3,0,0.4,0,0.4,0.1c0,0,0.1,0,0.1,0.1c-0.1,0.3-0.1,0.3,0,0.3h0.1
		c0.1,0,0.4,0.1,0.6,0.3C25.5,7.9,25.8,8,26,8c0.3,0,0.3,0,0.1,0.1c0,0,0,0.1,0.1,0.1c0.1,0,0.1,0,0.1,0.1S27.1,9,27.3,9
		c0,0,0.3,0.1,0.4,0.3s0.3,0.3,0.4,0.3c0,0,0.1,0.1,0.3,0.2c0.1,0.1,0.3,0.3,0.3,0.3s0.1,0.1,0.3,0.1c0.1,0.1,0.4,0.4,0.5,0.5
		c0.3,0.1,0.5,0.5,0.8,0.8c0.3,0.3,0.5,0.5,0.6,0.6c0.1,0.1,0.4,0.5,0.5,0.6c0.1,0.3,0.4,0.5,0.4,0.6c0.1,0.1,0.1,0.3,0.1,0.3
		s0.5,1,0.6,1.4c0.1,0.3,0.5,0.3,1.6,0.3c1,0,1.1,0,1.1,0.1c0,0.1,0.1,2.3,0.1,4.8c0,3.8,0,4.6-0.1,4.8c-0.1,0-0.6,0.1-1.4,0.1
		c-1,0-1.3,0-1.4,0.1c-0.3,0.4-0.5,1.1-0.5,1.1v0.1c0,0-0.1,0.1-0.1,0.3c0,0.1-0.1,0.3-0.1,0.3s-0.1,0.1-0.1,0.3
		c0,0.1-0.1,0.3-0.3,0.4c-0.1,0.1-0.3,0.3-0.3,0.3s-0.1,0.1-0.1,0.3c-0.1,0.1-0.3,0.3-0.4,0.4c-0.1,0.3-1.4,1.4-1.4,1.4
		c-0.1,0-0.3,0.3-0.3,0.3s0,0-0.1,0c-0.1,0-0.1,0-0.1,0.1c0,0.1-0.1,0.1-0.3,0.3s-0.4,0.3-0.6,0.5c-0.3,0.1-0.5,0.4-0.5,0.4
		s-0.3,0.1-0.4,0.3c-0.3,0.1-0.4,0.3-0.5,0.3c-0.1,0-0.1,0-0.1,0.1c0,0,0,0.1,0,0c0,0-0.3,0-0.4,0.1c-1,0.5-1.4,0.6-2.2,0.9
		c-0.4,0.1-0.8,0.3-1.1,0.3C21.6,33.1,18.1,33.3,18.1,33.1z M17.6,23.8c0.1,0,0.4-0.1,0.4-0.3c0.1-0.1,1.5-5.1,1.5-5.4
		c0-0.4,0.3,0.1,0.8,2.1c0.9,3,0.9,3.1,1.1,3.4c0.5,0.4,1.4,0.3,1.8-0.1c0.1-0.1,0.5-1.3,1.3-3.6c0.5-1.9,1-3.4,1-3.5
		c0-0.1-0.1-0.1-0.8-0.1H24l-0.1,0.5c-0.1,0.3-0.5,1.6-0.9,2.9c-0.4,1.3-0.8,2.3-0.8,2.3s-0.4-1.1-0.8-2.5c-0.4-1.3-0.8-2.5-0.8-2.6
		c-0.3-0.6-1-0.9-1.6-0.5c-0.3,0.1-0.4,0.3-0.4,0.4s-0.4,1.4-0.9,2.8c-0.4,1.4-0.8,2.6-0.8,2.6s-0.9-2.8-1.6-5.3l-0.1-0.5h-0.6
		c-0.4,0-0.8,0-0.8,0c-0.1,0.1,1.9,6.6,2.1,7C16.3,23.8,17.1,23.9,17.6,23.8z M33.1,23.6c0.5-0.3,0.5-0.3,0.5-3.9v-3.4h-0.8h-0.8
		v2.9v2.9l-1.8-2.8c-1-1.5-1.9-2.7-1.9-2.9c-0.4-0.4-1.4-0.4-1.9,0l-0.3,0.3v3.4v3.4H27h0.6v-2.9c0-1.6,0-2.9,0.1-2.9
		c0,0,0.4,0.5,0.8,1c1.7,2.6,2.9,4.5,3.1,4.6C32,23.9,32.6,23.9,33.1,23.6z M12.9,23.1v-0.5h-2.3c-1.6,0-2.3-0.1-2.4-0.1
		c-0.4-0.3-0.5-0.4-0.5-2.5v-2L8,17.8l0.2-0.3h2.4H13V17v-0.8h-2.4c-1.3,0-2.5,0-2.8,0.1c-0.6,0.1-1.1,0.4-1.3,0.8
		c-0.1,0.3-0.1,0.4-0.1,2.8c0,2.8,0,2.9,0.5,3.3c0.6,0.4,0.9,0.5,3.5,0.5H13v-0.5H12.9z"/>
</g>
<g id="layer105">
	<path class="st0" d="M18.4,32.1c-2.1-0.4-4-1.1-5.8-2.4c-0.6-0.5-2.1-1.9-2.5-2.5c-0.4-0.6-1.3-2-1.3-2.3c0-0.1,0-0.1,0.1-0.3
		c0.3-0.1,8.5,0,8.8,0c0.1,0,0.3,0.1,0.3,0.3c0,0.1,0.1,0.4,0.3,0.4c0.1,0.1,0.3,0.3,0.4,0.4c0.1,0.4,0.6,1.1,0.8,1.1
		c0,0,0.2,0.1,0.4,0.3c0.2,0.4,0.2,0.4,0.2,0.8c0,0.3,0,0.6-0.1,0.8s-0.1,0.5-0.1,0.6s0,0.4-0.1,0.5c-0.1,0.1-0.3,0.5-0.1,0.5
		c0,0,0,0.1,0,0.3s0,0.3,0,0.4s0,0.1,0,0.3c-0.1,0.1,0,0.6,0.1,0.8C19.8,32,19.9,32,20,32s0.1,0,0.1-0.1s0-0.3,0.1-0.4
		c0.1-0.1,0.1-0.3,0.1-0.3c0-0.1,0-0.1,0-0.1c0.1,0,0.4-0.4,0.3-0.4c0,0,0-0.1,0.1-0.1s0.1-0.1,0.3-0.1c0.1-0.1,0.3-0.1,0.4-0.1
		c0.3,0,0.5-0.3,0.5-0.4c0-0.1,0.1-0.1,0.3-0.1c0.4,0,1.4-0.8,1.4-1c0.1-0.4,0.8-0.8,1.3-0.8c0.3,0,1.1-1.1,1.1-1.5
		c0,0,0.3-0.4,0.5-0.6c0.5-0.5,0.5-0.5,0.5-0.9v-0.4H29c1.1,0,2.1,0,2.3,0.1c0.1,0.1,0.1,0.1,0,0.4c-0.3,0.5-0.9,1.6-1,1.6L30.1,27
		c0,0.1-0.1,0.3-0.8,1c-0.3,0.4-1.1,1.1-1.4,1.4c-1,0.9-1.4,1-2.3,1.5c-1.5,0.8-2.4,1-3.9,1.3C21,32.3,19.1,32.3,18.4,32.1z"/>
	<path class="st2" d="M34.3,17.1L34.3,17.1v-1.3h-2c-1.1,0-7.5,0-14.3,0c-9.5,0-12.3,0-12.3,0.1c0,0-0.1,1.9-0.1,4.1
		c0,3,0,4,0.1,4.1c0.1,0.1,3.4,0.1,14.1,0.1c7.7,0,14.1,0,14.3,0s0.1-0.5,0.1-4.1V17.1L34.3,17.1z M12.9,17.4h-2.4H8.1l-0.3,0.3
		l-0.3,0.3v2c0,2.2,0,2.4,0.5,2.5c0.1,0,1.1,0.1,2.4,0.1h2.1v1h-1.8c-1.1,0-2.1,0-2.3,0c-0.4,0.3-1.1,0-1.6-0.3
		c-0.6-0.4-0.8-0.5-0.8-3c0-1.1,0-2.4,0-2.5c0.1-0.5,0.4-1,0.9-1.3c0.4-0.3,0.5-0.3,3.1-0.3h2.6C12.9,16.3,12.9,17.4,12.9,17.4z
		 M25.4,16.8c-0.1,0.3-0.3,0.6-0.3,0.8c-0.1,0.4-0.3,1-0.5,1.6c-0.1,0.4-0.4,1.4-0.8,2.5c-0.3,0.9-0.5,1.5-0.6,1.7
		c-0.4,0.5-1.6,0.4-1.9-0.1c-0.1-0.3-0.6-2-0.9-2.9c-0.1-0.3-0.1-0.6-0.3-0.8c-0.1-0.5-0.3-0.9-0.4-1.4c-0.1-0.4-0.3-0.4-0.4,0.3
		c0,0.3-0.3,0.9-0.4,1.5c-0.1,0.6-0.4,1.5-0.5,2c-0.3,1.1-0.4,1.3-0.8,1.5c-0.4,0.3-1,0.3-1.4,0c-0.4-0.3-0.4-0.4-0.8-1.3
		c-0.1-0.5-0.4-1-0.4-1.3c-0.5-1.5-1.4-4.4-1.4-4.6c0,0,0.2-0.1,0.8-0.1h0.8l0.3,0.8c0.5,1.6,1,3.4,1.4,4.4l0.3,0.8l0.1-0.5
		c0.1-0.3,0.2-0.9,0.4-1.5c1-3.6,1-3.5,1.5-3.8c0.4-0.3,0.9-0.1,1.3,0.1c0.3,0.1,0.4,0.4,1.3,3.8c0,0.3,0.1,0.6,0.3,0.9
		c0.1,0.3,0.1,0.6,0.1,0.8c0.1,0.4,0.1,0.4,0.3-0.1c0-0.3,0.1-0.6,0.3-0.8c0.1-0.4,0.3-1,0.6-2c0.1-0.3,0.3-1,0.5-1.5l0.3-1h0.6
		c0.4,0,0.8,0,0.8,0C25.4,16.4,25.4,16.6,25.4,16.8z M33.6,23l-0.3,0.3c-0.1,0.3-0.3,0.3-0.5,0.4c-0.6,0.1-0.9,0.1-1.3-0.3
		c-0.3-0.3-0.4-0.4-0.4-0.5c0,0-0.3-0.5-0.6-1S30,21,30,21s-0.4-0.6-0.9-1.3c-0.5-0.6-0.9-1.3-0.9-1.3c0-0.1-0.4-0.6-0.5-0.6
		c0,0-0.1,1.3,0,2.9c0,2.4,0,2.9-0.1,2.9s-0.4,0-0.8,0h-0.6v-3.4c0-3,0-3.4,0.1-3.6c0.4-0.6,1.5-0.6,2,0c0.1,0.1,0.3,0.3,0.3,0.4
		c0,0,0.5,0.9,1.1,1.9s1.3,1.9,1.3,1.9c0,0.1,0.3,0.4,0.5,0.8l0.4,0.6v-2.9v-2.9h1.4V23H33.6z"/>
	<path class="st0" d="M8.9,15.1c-0.1-0.1,0.8-1.6,1.4-2.5c0.8-1,1.6-1.7,1.5-1.4c0,0.1-0.1,0.4-0.1,0.8c0,0.4-0.1,0.6-0.1,0.8
		c-0.1,0.1-0.1,0.3,0,0.5c0.1,0.4,0.1,0.4-0.1,0.9c-0.1,0.3-0.3,0.6-0.3,0.6s0,0.3-0.1,0.3c-0.1,0.1-0.1,0.1-1,0.1
		C9.3,15.3,8.9,15.1,8.9,15.1z"/>
	<path class="st0" d="M20.1,15.1c-0.1-0.1,0-0.4,0.1-0.5c0.1-0.1,0.3-0.1,0.3-0.1s0,0,0.1,0c0.1-0.1,0.3-0.1,0.3,0
		c0,0.1,0.1,0.1,0.6-0.1c0.4-0.1,0.5-0.4,0.5-0.5s-0.3,0-0.3,0.1c-0.1,0.1-0.1,0.1-0.4,0c-0.1-0.1-0.3-0.1-0.3-0.4
		c0-0.3,0-0.3-0.3-0.3c-0.1,0-0.3,0-0.3-0.1c0.1-0.2,0.4-0.2,0.6,0c0.1,0.1,0.3,0.1,0.3,0.1c0.1-0.1,0.1-0.3,0-0.3
		c-0.1,0-0.1,0-0.1-0.1c0,0,0.1,0,0.3,0c0.1,0,0.3,0,0.4-0.1c0.1-0.1,0.3-0.1,0.4-0.3c0.3,0,0.3-0.4,0-0.5c-0.1,0-0.1-0.1-0.1-0.1
		s-0.1-0.1-0.4-0.2c-0.3-0.1-0.4-0.3-0.4-0.4c0-0.1-0.1-0.2-0.4-0.5l-0.3-0.3l-0.1,0.6c-0.1,0.1-0.1,0.1-0.4,0.1
		c-0.1-0.1-0.3-0.1-0.3-0.2c0-0.1,0-0.3-0.1-0.3s-0.1-0.1-0.3-0.1c-0.1-0.1-0.3-0.1-0.6-0.1s-0.5,0.1-0.5,0.1s0,0.1,0.1,0.1
		c0.2,0,0.2,0.1,0.1,0.4c0,0.1,0,0.3,0,0.4c0.1,0.1,0.1,0.5-0.1,0.6c-0.1,0.1-0.1,0.1-0.1,0.4s0,0.4-0.1,0.4
		c-0.3,0.1-0.4-0.1-0.4-0.5c0-0.2,0-0.2-0.1-0.2s-0.4-0.1-0.6-0.3c-0.3-0.1-0.5-0.3-0.5-0.3s-0.1-0.1-0.3-0.2
		c-0.1-0.3-0.1-0.3,0.1-0.5c0.1-0.1,0.3-0.3,0.3-0.3s0.1-0.1,0.3-0.3s0.3-0.1,0.4-0.1s0.4,0,0.6,0.1c0.4,0,0.5-0.1,0.3-0.2l-0.1-0.1
		l0.3-0.3c0-0.3,0.1-0.4,0.1-0.6S18.8,9,19,9s0.5,0.1,0.5,0.3l-0.1,0.1c-0.1,0-0.1,0-0.1,0.1s0.1,0.1,0.1,0.1c0.1,0,0.1,0,0.1-0.1
		c0,0,0-0.1,0.1-0.1s0.1,0.1,0,0.3s-0.3,0.1-0.4,0.3c-0.4,0-0.3,0.2,0.1,0.2c0.3,0,0.4,0,0.5,0.1c0.4,0.4,0.8,0.5,0.9,0.3
		c0.3-0.3,0.1-0.5-0.3-0.6c-0.1,0-0.1-0.1,0-0.1c0,0,0.1,0,0.3,0.1c0.1,0.1,0.1,0.1,0.3,0c0.1-0.1,0.1-0.3,0.1-0.3S21,9.5,20.8,9.4
		c-0.3-0.1-0.4-0.3-0.5-0.4c0,0-0.3-0.3-0.5-0.3c-0.3-0.1-0.4-0.3-0.4-0.3s-0.1-0.1-0.3-0.1c-0.4-0.1-0.5-0.1-0.3-0.1
		c0.1,0,0.3,0,0.3-0.1c0-0.3,0.4-0.3,0.6-0.1c0.1,0,0.4,0.1,0.5,0.1c0.3,0,0.4,0,0.6,0.2c0.1,0.1,0.3,0.4,0.4,0.4c0-0.1,0,0,0.1,0
		l0.1,0.1C21.5,9,21.6,9,21.8,9C22,9,22,9.1,21.9,9.3c-0.1,0.1,0.1,0.5,0.3,0.5s0.1,0,0.1,0.1c0,0.1,0,0.1,0.1,0.1
		c0.1,0.1,0.1,0.1,0.1,0.3c-0.1,0.1,0.6,0.6,1,0.8c0.5,0.1,0.5,0.1,0.4-0.1c0-0.1-0.1-0.4-0.1-0.5c0.1-0.1,0-0.4,0-0.4
		c0-0.1,0-0.1,0.1-0.1s0.3-0.1,0.3-0.3s0.1-0.2,0.1-0.2s0.1-0.1,0.1-0.3s0-0.3-0.1-0.4s-0.1-0.1-0.1-0.1c0.1,0,1.5,0.6,2.1,1
		c0.9,0.5,2.3,1.6,1.9,1.5c-0.3-0.1-0.3,0.1,0,0.4c0.3,0.3,0.3,0.4,0.3,0.5c0,0.1,0.3,0.8,0.4,0.8c0,0,0.1,0,0.1-0.1
		c0.1-0.1,0.4,0,0.4,0.1s0.1,0.3,0.3,0.1c0.1-0.1,0.3-0.1,0.3,0.1c0,0.1,0,0.3-0.1,0.3s0,0.3,0.1,0.3s0.6,0.8,0.6,0.9
		c0,0-0.1,0.1-0.3,0.1c-0.4,0-0.4,0.1-0.3,0.5c0.1,0.1,0.1,0.4,0.1,0.4C30,15.3,20.1,15.3,20.1,15.1z M23.1,13.9
		c0-0.2,0-0.2-0.3-0.4c-0.1-0.1-0.3-0.1-0.3-0.3s0-0.1,0-0.1c-0.1,0-0.4,0.5-0.4,0.8c0,0.1,0.1,0.1,0.3,0.1s0.4,0,0.4,0.1
		C23.1,14.1,23.1,14.1,23.1,13.9z M18.4,10.5C18.5,10.5,18.5,10.4,18.4,10.5c-0.1-0.1-0.3,0-0.3,0C18.1,10.8,18.3,10.8,18.4,10.5z
		 M26.3,9.9c0.1-0.3-0.3-0.5-0.5-0.4c-0.1,0-0.3,0.1-0.4,0c-0.1,0-0.3,0-0.3,0c0,0.1,0.5,0.5,0.8,0.5C26.1,10.1,26.1,10.1,26.3,9.9z
		"/>
	<path class="st0" d="M18,9.3c0,0,0-0.1-0.1-0.1c-0.1,0-0.1-0.1-0.1-0.3c0-0.2,0-0.2,0.3-0.4c0.1-0.1,0.3-0.1,0.3-0.3
		c0-0.1,0-0.1,0.3-0.1c0.1,0,0.1,0,0,0.1C18.1,8.4,18,9,18.2,9c0.1,0,0.1,0.1,0,0.4C18.1,9.4,18,9.5,18,9.3z"/>
	<path class="st0" d="M16.4,9.3C16.3,9.3,16.3,9.1,16.4,9.3c0.3-0.1,0.5-0.3,0.4-0.5c0-0.3,0.3-0.5,0.3-0.4c0,0,0.1,0.1,0.1,0.3
		c0,0,0.1,0.1,0.1,0.2s0,0.1-0.1,0.1c-0.1,0-0.2,0-0.2,0.1C16.9,9.4,16.6,9.4,16.4,9.3z"/>
	<path class="st0" d="M15.3,9l-0.1-0.1l0.3-0.1c0.3-0.3,0.4-0.1,0.1,0.1c-0.1,0.1-0.1,0.3-0.1,0.3s0.1,0.1,0,0.1
		C15.5,9.1,15.4,9.1,15.3,9z"/>
	<path class="st0" d="M17.1,8.3C17,8.1,17.1,8,17.5,8s0.5,0,0.4,0.3c-0.1,0.1-0.1,0.1-0.1,0s-0.1-0.1-0.4,0
		C17.3,8.4,17.3,8.4,17.1,8.3z"/>
</g>
</svg>
