<svg width="36" height="40" viewBox="0 0 36 40" fill="none" xmlns="http://www.w3.org/2000/svg">
<path d="M21 1.73205L32.3205 8.26795C34.1769 9.33974 35.3205 11.3205 35.3205 13.4641V26.5359C35.3205 28.6795 34.1769 30.6602 32.3205 31.732L21 38.2679C19.1436 39.3397 16.8564 39.3397 15 38.2679L3.67949 31.732C1.82308 30.6602 0.679489 28.6795 0.679489 26.5359V13.4641C0.679489 11.3205 1.82308 9.33974 3.67949 8.26795L15 1.73205C16.8564 0.660251 19.1436 0.660251 21 1.73205Z" fill="#FAA220"/>
<path style="mix-blend-mode:overlay" d="M21 1.73205L32.3205 8.26795C34.1769 9.33974 35.3205 11.3205 35.3205 13.4641V26.5359C35.3205 28.6795 34.1769 30.6602 32.3205 31.732L21 38.2679C19.1436 39.3397 16.8564 39.3397 15 38.2679L3.67949 31.732C1.82308 30.6602 0.679489 28.6795 0.679489 26.5359V13.4641C0.679489 11.3205 1.82308 9.33974 3.67949 8.26795L15 1.73205C16.8564 0.660251 19.1436 0.660251 21 1.73205Z" fill="url(#paint0_linear)"/>
<path fill-rule="evenodd" clip-rule="evenodd" d="M7 20.5901L18.1688 9L29.3376 20.5901L18.1985 31.9575L7 20.5901ZM10.1067 20.4787H14.9897L18.1688 17.3396L21.315 20.4787H26.1673L18.1985 12.4199L10.1067 20.4787Z" fill="white"/>
<path fill-rule="evenodd" clip-rule="evenodd" d="M7 20.5901L18.1688 24.5729L29.3376 20.5901L18.1985 31.9575L7 20.5901Z" fill="#FDF0D5"/>
<path fill-rule="evenodd" clip-rule="evenodd" d="M18.2276 9L29.3376 20.5901L18.2276 31.9575V9Z" fill="black" fill-opacity="0.03"/>
<defs>
<linearGradient id="paint0_linear" x1="10.3063" y1="5.5099" x2="28.6589" y2="32.7678" gradientUnits="userSpaceOnUse">
<stop stop-color="white" stop-opacity="0.5"/>
<stop offset="1" stop-color="white" stop-opacity="0"/>
</linearGradient>
</defs>
</svg>
