<?xml version="1.0" encoding="utf-8"?>
<!-- Generator: Adobe Illustrator 24.0.1, SVG Export Plug-In . SVG Version: 6.00 Build 0)  -->
<svg version="1.1" id="Layer_1" xmlns="http://www.w3.org/2000/svg" xmlns:xlink="http://www.w3.org/1999/xlink" x="0px" y="0px"
	 width="40px" height="40px" viewBox="0 0 40 40" style="enable-background:new 0 0 40 40;" xml:space="preserve">
<style type="text/css">
	.st0{fill:#A1A3AA;}
</style>
<path class="st0" d="M26,3.9H11.7l-1.2,6.6h13.1c6.5,0,8.4,2.4,8.4,6.4c0,2-0.8,5.3-1.3,6.5c-1.1,3.1-2.9,6.4-10.6,6.1H7.3l-1.2,6.6
	h14.5c5.2,0,7.3-0.7,9.7-1.7c5.2-2.3,8.1-7.3,9.3-13.9C41.1,10.6,38.9,3.9,26,3.9z"/>
<path class="st0" d="M5.3,16.6c-3.8,0-4.4,2.5-4.6,4C0.1,22.5,0,23.3,0,23.3h14.7c3.8,0,4.4-2.5,4.6-4c0.5-2,0.7-2.8,0.7-2.8H5.3
	V16.6z"/>
</svg>
