<?xml version="1.0" encoding="utf-8"?>
<!-- Generator: Adobe Illustrator 24.0.1, SVG Export Plug-In . SVG Version: 6.00 Build 0)  -->
<svg version="1.1" id="Layer_1" xmlns="http://www.w3.org/2000/svg" xmlns:xlink="http://www.w3.org/1999/xlink" x="0px" y="0px"
	 width="40px" height="40px" viewBox="0 0 40 40" style="enable-background:new 0 0 40 40;" xml:space="preserve">
<style type="text/css">
	.st0{fill:#1EB1BC;}
	.st1{fill:url(#SVGID_1_);}
	.st2{fill-rule:evenodd;clip-rule:evenodd;fill:#FFFFFF;}
</style>
<path class="st0" d="M25,40H15C6.8,40,0,33.3,0,25V15C0,6.8,6.8,0,15,0h10c8.3,0,15,6.8,15,15v10C40,33.3,33.3,40,25,40z"/>
<linearGradient id="SVGID_1_" gradientUnits="userSpaceOnUse" x1="9.0907" y1="267.1046" x2="30.9093" y2="304.8954" gradientTransform="matrix(1 0 0 1 0 -266)">
	<stop  offset="0" style="stop-color:#FFFFFF;stop-opacity:0.5"/>
	<stop  offset="1" style="stop-color:#FFFFFF;stop-opacity:0"/>
</linearGradient>
<path class="st1" d="M25,40H15C6.8,40,0,33.3,0,25V15C0,6.8,6.8,0,15,0h10c8.3,0,15,6.8,15,15v10C40,33.3,33.3,40,25,40z"/>
<path class="st2" d="M17,21.3l-2.3,2.4c-0.4,0.4-0.8,0.9-1.3,1.3C13.4,25,13.4,25,13.3,25s-0.4-0.1-0.4-0.3c0-0.3-0.1-0.5-0.1-0.8
	c0-0.4-0.1-0.4-0.5-0.5c-0.6-0.1-1.4-0.1-2-0.3l-1.5-0.1c-0.3,0-0.4-0.3-0.3-0.5c0.4-0.6,0.8-1.3,1.1-1.8l2.3-3.6
	c0.1-0.1,0.3-0.3,0.4-0.3c0.1,0,0.3,0,0.4,0c0.1,0,0.3,0,0.4,0.1c0.1,0.1,0.4,0.4,0.5,0.5l2.1,2c0.5,0.4,0.9,0.9,1.4,1.2
	C17.1,20.9,17.1,21,17,21.3z M32.3,24.5c0.1,0.1,0.3,0.3,0.3,0.4c0,0.3,0,0.4-0.3,0.5c-1.1,0.8-2.4,1.5-3.5,2.2l-2.3,1.5
	c-0.1,0-0.1,0.1-0.3,0.1c-0.1,0.1-0.1,0.3-0.1,0.4c0,0.3,0,0.6,0,0.9c0,0.4-0.3,0.5-0.5,0.5c-0.1,0-0.3-0.1-0.3-0.1
	c-0.3-0.4-0.5-0.6-0.9-1c-0.4-0.4-0.6-0.8-1-1.1c-0.1-0.1-0.3-0.4-0.1-0.5v-1.6c0-0.3,0.1-0.4,0.3-0.4l1.9-1.3c1-0.6,2.1-1.4,3.1-2
	c0.3-0.1,0.4-0.1,0.6,0c0.1,0.1,0.4,0.1,0.6,0c0.3-0.1,0.5,0,0.8,0.1C31.1,23.5,31.6,24,32.3,24.5L32.3,24.5z M22.1,25.9
	c0.1,0.1,0.1,0.3,0.1,0.3c0,0.3,0,0.4-0.3,0.5c-0.8,0.4-1.6,0.8-2.4,1.1c-0.1,0.1-0.4,0.1-0.5,0.1c-0.6,0-1.4,0-2,0.1
	c-0.4,0-0.8,0-1.1,0h-0.3c-0.1,0-0.3,0-0.4-0.1c-0.1-0.1-0.1-0.1-0.3-0.3c-0.5-0.5-1-0.9-1.4-1.4c-0.2-0.3-0.2-0.6,0-0.9
	c0.6-0.6,1.1-1.3,1.8-1.8c0.6-0.6,1.2-1.3,1.9-2c0.3-0.3,0.5-0.3,0.8,0l0,0l2.5,2.5C21,24.8,21.6,25.3,22.1,25.9z M25.6,14.8
	c-0.3-0.4,0-1,0.5-1c1.1-0.3,2.4-0.4,3.5-0.6c0.3,0,0.5,0.1,0.6,0.3c0.3,0.4,0.5,0.8,0.8,1.1c0.5,0.8,1,1.6,1.5,2.4
	c0.1,0.1,0.1,0.3,0.1,0.4l0,0c0,0.2-0.1,0.4-0.3,0.5c-0.8,1-1.5,1.9-2.1,2.9c-0.3,0.3-0.6,0.4-1,0.1c-0.1,0-0.1-0.1-0.1-0.1
	c-1-1.8-2.1-3.5-3.1-5.3C25.9,15.1,25.8,15,25.6,14.8z M23.5,19.6l-0.3,1.9c0,0.5-0.1,1-0.1,1.5l-0.3,1.8c0,0.1,0,0.3,0,0.4
	c0,0,0,0.1-0.1,0.1s-0.1,0-0.1,0c-0.3-0.1-0.4-0.4-0.6-0.5c-0.6-0.6-1.4-1.3-2-1.9c-0.6-0.5-1.1-1.1-1.8-1.6c-0.3-0.1-0.3-0.3,0-0.4
	L21,18l1.9-1.9l0.9-1c0,0,0-0.1,0.1-0.1s0.1,0,0.3,0l0.1,0.1l-0.1,1.3l-0.4,1.4L23.5,19.6z M28.8,21c0.1,0.1,0.1,0.3,0,0.4
	c-0.1,0.1-0.1,0.4-0.1,0.5c0,0.1,0,0.3-0.3,0.4c-1.1,0.8-2.2,1.5-3.5,2.3c-0.4,0.3-0.8,0.5-1.1,0.8c-0.1,0.1-0.3,0.1-0.4,0
	c0-0.1,0-0.1,0-0.3l0.1-1.1l0.4-2.5l0.4-2.6l0.4-2.6l0.1-1c0,0,0,0,0-0.1l0.1-0.1c0,0,0.1,0,0.1,0.1c0.1,0.1,0.1,0.3,0.3,0.4
	l2.8,4.4C28.3,20.3,28.5,20.6,28.8,21L28.8,21z M23.1,14.3c0,0,0.1,0,0.1,0.1c0.1,0.1,0,0.1,0,0.3l-0.9,1l-2.8,2.9
	c-0.6,0.6-1.1,1.3-1.8,1.8c-0.3,0.3-0.4,0.3-0.6,0c-0.6-0.6-1.4-1.3-2-1.9s-1.3-1.3-2-1.9c-0.1-0.1-0.1-0.1-0.1-0.2
	c0-0.1,0.1-0.3,0.2-0.3c0.4-0.1,0.8-0.1,1.1-0.3l3.5-0.6l4.1-0.8C22.1,14.5,23.1,14.3,23.1,14.3z M13.9,15.1
	c0.6-0.5,1.3-0.9,1.9-1.3L22,9.6c0.3-0.1,0.4-0.1,0.5,0.1c0.4,0.9,0.9,1.9,1.3,2.8c0,0.1,0.1,0.3,0.1,0.4c0,0.1,0,0.1,0,0.3
	c-0.1,0.1-0.1,0.3-0.3,0.4c0,0.1-0.1,0.1-0.3,0.3c-0.9,0.1-1.9,0.4-2.8,0.5l-3.1,0.5L14,15.4h-0.1l0,0
	C13.8,15.3,13.9,15.1,13.9,15.1z M7.5,17.3c-0.4,0-0.6-0.4-0.5-0.8c0.1-0.3,0.4-0.6,0.5-0.9C8,14.8,8.5,13.9,9,13
	c0.1-0.1,0.3-0.3,0.4-0.4c1.4-0.8,2.6-1.5,4-2.4c0.1,0,0.1-0.1,0.3-0.1s0.4,0,0.5,0.3c0.1,0.1,0.1,0.4,0,0.5
	c-0.3,0.4-0.4,0.9-0.6,1.3c-0.4,0.8-0.8,1.6-1.1,2.4c-0.1,0.1-0.3,0.3-0.4,0.4c-0.4,0.1-0.6,0.4-0.7,0.8c0,0.1-0.1,0.3-0.4,0.4
	c-1.1,0.4-2.3,0.8-3.3,1.1C7.6,17.3,7.5,17.3,7.5,17.3L7.5,17.3z M13.1,14.8v-0.1l1.5-3.1c0.3-0.6,0.6-1.4,0.9-2
	c0.1-0.1,0.1-0.3,0.4-0.3c0.5,0,0.9,0,1.4,0l2.6-0.1c0.3,0,0.6,0,0.9,0c0.3,0,0.4,0.1,0.4,0.4c0,0.1-0.1,0.3-0.1,0.3l-0.9,0.6
	L15,13.9L13.4,15c0,0-0.1,0-0.1,0.1C13.3,14.9,13.1,14.9,13.1,14.8z M11.3,17c-0.3,0.4-0.5,0.8-0.6,1.1c-0.9,1.4-1.6,2.8-2.5,4
	c0,0.1-0.1,0.1-0.1,0.1c-0.1,0.1-0.4,0-0.4-0.1c-0.1-0.3-0.3-0.6-0.4-0.9l-1-2.6c0-0.1,0-0.1,0-0.1c0-0.1,0-0.3,0.3-0.3
	c0.5-0.1,1-0.4,1.5-0.5l2.7-0.9l0.4-0.1c0.1,0,0.1-0.1,0.2,0C11.4,16.9,11.4,16.9,11.3,17z M33.5,20.6l0.3,1.6v0.1
	c0,0.1,0,0.1,0,0.3L33.4,24c-0.1,0.4-0.4,0.5-0.8,0.3c-0.6-0.5-1.3-1-1.9-1.6c-0.1-0.1-0.3-0.3-0.1-0.5c0-0.1,0-0.4-0.1-0.5
	s0-0.4,0-0.5c0.5-0.6,1-1.4,1.5-2l0.3-0.4c0.1-0.1,0.3-0.3,0.4-0.1c0.1,0,0.3,0.1,0.3,0.4L33.5,20.6L33.5,20.6z M23,9.6L23,9.6
	c-0.1-0.1-0.1-0.3,0-0.3s0.1,0,0.3,0s0.3,0.1,0.4,0.1l4.6,2.3l0.9,0.4c0.1,0,0.1,0.1,0.1,0.3s-0.1,0.1-0.3,0.1
	c-1.1,0.3-2.2,0.4-3.4,0.6h-0.1c0,0-0.1,0-0.1-0.1c-0.3-0.3-0.5-0.4-0.9-0.4c-0.1,0-0.1-0.1-0.3-0.1c-0.3-0.4-0.4-0.9-0.6-1.3
	C23.8,11.3,23,9.6,23,9.6z"/>
</svg>
