<?xml version="1.0" encoding="utf-8"?>
<!-- Generator: Adobe Illustrator 24.0.1, SVG Export Plug-In . SVG Version: 6.00 Build 0)  -->
<svg version="1.1" id="Layer_1" xmlns="http://www.w3.org/2000/svg" xmlns:xlink="http://www.w3.org/1999/xlink" x="0px" y="0px"
	 width="40px" height="40px" viewBox="0 0 40 40" style="enable-background:new 0 0 40 40;" xml:space="preserve">
<style type="text/css">
	.st0{fill-rule:evenodd;clip-rule:evenodd;fill:#A1A3AA;}
</style>
<path class="st0" d="M15.6,21.7l-3.3,3.5c-0.6,0.6-1.2,1.3-1.9,1.9c0,0,0,0-0.1,0c-0.1,0-0.6-0.1-0.6-0.4c0-0.4-0.1-0.7-0.1-1.2
	c0-0.6-0.1-0.6-0.7-0.7c-0.9-0.1-2-0.1-2.9-0.4l-2.2-0.1c-0.4,0-0.6-0.4-0.4-0.7c0.6-0.9,1.2-1.9,1.6-2.6l3.3-5.2
	c0.1-0.1,0.4-0.4,0.6-0.4c0.1,0,0.4,0,0.6,0c0.1,0,0.4,0,0.6,0.1c0.1,0.1,0.6,0.6,0.7,0.7l3.1,2.9c0.7,0.6,1.3,1.3,2,1.7
	C15.7,21.2,15.7,21.3,15.6,21.7z M37.8,26.4c0.1,0.1,0.4,0.4,0.4,0.6c0,0.4,0,0.6-0.4,0.7c-1.6,1.2-3.5,2.2-5.1,3.2l-3.3,2.2
	c-0.1,0-0.1,0.1-0.4,0.1c-0.1,0.1-0.1,0.4-0.1,0.6c0,0.4,0,0.9,0,1.3c0,0.6-0.4,0.7-0.7,0.7c-0.1,0-0.4-0.1-0.4-0.1
	c-0.4-0.6-0.7-0.9-1.3-1.5s-0.9-1.2-1.5-1.6c-0.1-0.1-0.4-0.6-0.1-0.7v-2.3c0-0.4,0.1-0.6,0.4-0.6l2.8-1.9c1.5-0.9,3.1-2,4.5-2.9
	c0.4-0.1,0.6-0.1,0.9,0c0.1,0.1,0.6,0.1,0.9,0c0.4-0.1,0.7,0,1.2,0.1C36.1,24.9,36.8,25.7,37.8,26.4L37.8,26.4z M23,28.4
	c0.1,0.1,0.1,0.4,0.1,0.4c0,0.4,0,0.6-0.4,0.7c-1.2,0.6-2.3,1.2-3.5,1.6c-0.1,0.1-0.6,0.1-0.7,0.1c-0.9,0-2,0-2.9,0.1
	c-0.6,0-1.2,0-1.6,0h-0.4c-0.1,0-0.4,0-0.6-0.1c-0.1-0.1-0.1-0.1-0.4-0.4c-0.7-0.7-1.5-1.3-2-2c-0.3-0.4-0.3-0.9,0-1.3
	c0.9-0.9,1.6-1.9,2.6-2.6c0.9-0.9,1.7-1.9,2.8-2.9c0.4-0.4,0.7-0.4,1.2,0l0,0l3.6,3.6C21.4,26.8,22.3,27.6,23,28.4z M28.1,12.3
	c-0.4-0.6,0-1.5,0.7-1.5c1.6-0.4,3.5-0.6,5.1-0.9c0.4,0,0.7,0.1,0.9,0.4c0.4,0.6,0.7,1.2,1.2,1.6c0.7,1.2,1.5,2.3,2.2,3.5
	c0.1,0.1,0.1,0.4,0.1,0.6l0,0c0,0.3-0.1,0.6-0.4,0.7c-1.2,1.5-2.2,2.8-3.1,4.2c-0.4,0.4-0.9,0.6-1.5,0.1c-0.1,0-0.1-0.1-0.1-0.1
	c-1.5-2.6-3.1-5.1-4.5-7.7C28.5,12.7,28.4,12.6,28.1,12.3z M25,19.3L24.6,22c0,0.7-0.1,1.5-0.1,2.2L24,26.8c0,0.1,0,0.4,0,0.6
	c0,0,0,0.1-0.1,0.1s-0.1,0-0.1,0c-0.4-0.1-0.6-0.6-0.9-0.7c-0.9-0.9-2-1.9-2.9-2.8c-0.9-0.7-1.6-1.6-2.6-2.3c-0.4-0.1-0.4-0.4,0-0.6
	l4.1-4.2l2.8-2.8l1.3-1.5c0,0,0-0.1,0.1-0.1s0.1,0,0.4,0l0.1,0.1L26,14.6l-0.6,2L25,19.3z M32.7,21.3c0.1,0.1,0.1,0.4,0,0.6
	c-0.1,0.1-0.1,0.6-0.1,0.7s0,0.4-0.4,0.6c-1.6,1.2-3.2,2.2-5.1,3.3c-0.6,0.4-1.2,0.7-1.6,1.2c-0.1,0.1-0.4,0.1-0.6,0
	c0-0.1,0-0.1,0-0.4l0.1-1.6l0.6-3.6l0.6-3.8l0.6-3.8l0.1-1.5c0,0,0,0,0-0.1l0.1-0.1c0,0,0.1,0,0.1,0.1c0.1,0.1,0.1,0.4,0.4,0.6
	l4.1,6.4C32,20.3,32.3,20.7,32.7,21.3L32.7,21.3z M24.4,11.6c0,0,0.1,0,0.1,0.1c0.1,0.1,0,0.1,0,0.4l-1.3,1.5l-4.1,4.2
	c-0.9,0.9-1.6,1.9-2.6,2.6c-0.4,0.4-0.6,0.4-0.9,0c-0.9-0.9-2-1.9-2.9-2.8c-0.9-0.9-1.9-1.9-2.9-2.8c-0.1-0.1-0.1-0.1-0.1-0.3
	s0.1-0.4,0.3-0.4c0.6-0.1,1.2-0.1,1.6-0.4l5.1-0.9l6-1.2C23,11.9,24.4,11.6,24.4,11.6z M11.1,12.7c0.9-0.7,1.9-1.3,2.8-1.9l9-6.1
	c0.4-0.1,0.6-0.1,0.7,0.1c0.6,1.3,1.3,2.8,1.9,4.1c0,0.1,0.1,0.4,0.1,0.6s0,0.1,0,0.4c-0.1,0.1-0.1,0.4-0.4,0.6
	c0,0.1-0.1,0.1-0.4,0.4c-1.3,0.1-2.8,0.6-4.1,0.7l-4.5,0.7l-4.9,0.7h-0.1l0,0C10.9,13,11.1,12.7,11.1,12.7z M1.7,15.9
	c-0.6,0-0.9-0.6-0.7-1.2c0.1-0.4,0.6-0.9,0.7-1.3c0.7-1.2,1.5-2.5,2.2-3.8c0.1-0.1,0.4-0.4,0.6-0.6c2-1.2,3.8-2.2,5.8-3.5
	c0.1,0,0.1-0.1,0.4-0.1s0.6,0,0.7,0.4c0.1,0.1,0.1,0.6,0,0.7c-0.4,0.6-0.6,1.3-0.9,1.9C10,9.7,9.5,10.8,9,12
	c-0.1,0.1-0.4,0.4-0.6,0.6c-0.6,0.1-0.9,0.6-1,1.2c0,0.1-0.1,0.4-0.6,0.6c-1.6,0.6-3.3,1.2-4.8,1.6C1.9,15.9,1.7,15.9,1.7,15.9
	L1.7,15.9z M9.9,12.3v-0.1l2.2-4.5c0.4-0.9,0.9-2,1.3-2.9c0.1-0.1,0.1-0.4,0.6-0.4c0.7,0,1.3,0,2,0l3.8-0.1c0.4,0,0.9,0,1.3,0
	c0.4,0,0.6,0.1,0.6,0.6c0,0.1-0.1,0.4-0.1,0.4L20.2,6L12.7,11l-2.3,1.6c0,0-0.1,0-0.1,0.1C10.2,12.4,9.9,12.4,9.9,12.3z M7.3,15.5
	c-0.4,0.6-0.7,1.2-0.9,1.6c-1.3,2-2.3,4.1-3.6,5.8c0,0.1-0.1,0.1-0.1,0.1c-0.1,0.1-0.6,0-0.6-0.1c-0.1-0.4-0.4-0.9-0.6-1.3L0,17.8
	c0-0.1,0-0.1,0-0.1c0-0.1,0-0.4,0.4-0.4c0.7-0.1,1.5-0.6,2.2-0.7l3.9-1.3l0.6-0.1c0.1,0,0.1-0.1,0.3,0C7.4,15.3,7.4,15.3,7.3,15.5z
	 M39.6,20.7l0.4,2.3v0.1c0,0.1,0,0.1,0,0.4l-0.6,2c-0.1,0.6-0.6,0.7-1.2,0.4c-0.9-0.7-1.9-1.5-2.8-2.3c-0.1-0.1-0.4-0.4-0.1-0.7
	c0-0.1,0-0.6-0.1-0.7c-0.1-0.1,0-0.6,0-0.7c0.7-0.9,1.5-2,2.2-2.9l0.4-0.6c0.1-0.1,0.4-0.4,0.6-0.1c0.1,0,0.4,0.1,0.4,0.6L39.6,20.7
	L39.6,20.7z M24.3,4.7L24.3,4.7c-0.1-0.1-0.1-0.4,0-0.4c0.1,0,0.1,0,0.4,0c0.3,0,0.4,0.1,0.6,0.1L32,7.8l1.3,0.6
	c0.1,0,0.1,0.1,0.1,0.4S33.3,8.9,33,8.9c-1.6,0.4-3.2,0.6-4.9,0.9h-0.1c0,0-0.1,0-0.1-0.1c-0.4-0.4-0.7-0.6-1.3-0.6
	c-0.1,0-0.1-0.1-0.4-0.1c-0.4-0.6-0.6-1.3-0.9-1.9C25.5,7.2,24.3,4.7,24.3,4.7z"/>
</svg>
