<?xml version="1.0" encoding="utf-8"?>
<!-- Generator: Adobe Illustrator 24.0.1, SVG Export Plug-In . SVG Version: 6.00 Build 0)  -->
<svg version="1.1" id="Layer_1" xmlns="http://www.w3.org/2000/svg" xmlns:xlink="http://www.w3.org/1999/xlink" x="0px" y="0px"
	 width="40px" height="40px" viewBox="0 0 40 40" style="enable-background:new 0 0 40 40;" xml:space="preserve">
<style type="text/css">
	.st0{fill:#A1A3AA;}
</style>
<g id="layer110">
	<path class="st0" d="M17.7,39.9c-2.8-0.4-6-1.4-8.2-2.6C5.2,34.7,1.7,30.2,0.4,25c-0.3-1.5-0.3-1.9-0.3-4.6c0-2.9,0.1-4.3,1.1-6.8
		c1.5-4.8,5.3-9,10-11.5c2.9-1.4,4.8-1.9,8.5-1.9c2.9,0,4.6,0.1,6.9,1.1C33,3.5,38.1,9.3,39.5,16c0.4,1.8,0.4,5.5,0,7.5
		c-1.4,7.3-6.6,13.2-13.7,15.4C23.4,39.9,20.2,40.2,17.7,39.9z M20.6,37.3c0.4,0.1,0.4,0.1,0.4,0s0-0.4,0.1-0.4s0.1,0,0,0.1
		c0,0.1,0,0.1,0,0.1c0.4,0,0.4-0.7,0.1-1.1c-0.1-0.4-0.4-0.4-1.1-0.4c-0.6,0-1.2,0-1.8-0.1c-0.8-0.1-0.8,0-0.8,0.6
		c0,0.1,0,0.1-0.1,0.1c-0.3,0-0.3,0,0-0.6c0.1-0.4,0.1-0.4-0.3-0.4s-0.6,0-0.6,0.1s0,0.4-0.1,0.4s-0.1-0.1-0.1-0.4
		c0-0.4-0.1-0.6-1.2-0.8c-0.4-0.1-1.1-0.4-1.4-0.6c-0.4-0.1-0.7-0.1-0.8-0.1s-0.1,0,0-0.1s0.1-0.4,0-0.6c-0.4-0.4-0.8-0.1-1.2,0.4
		c-0.4,0.6-0.6,1.1-0.1,0.6c0.1-0.4,0.1-0.4,0.1,0.1s0.1,0.6,0.6,0.1c0.1-0.4,0.1-0.6-0.1-0.6c-0.1,0-0.4,0-0.4-0.1
		c0-0.4,0.1-0.4,0.6-0.1c0.1,0.1,0.4,0.4,0.1,0.8c0,0.4,0,0.6,0,0.6s0.1,0,0.1-0.1s0-0.1,0.1,0s0.7,0,0.7-0.1s0-0.1-0.1,0
		s-0.1,0.1-0.4,0c-0.3-0.1-0.3-0.1,0-0.1c0.6-0.1,0.7,0,0.7,0.6c0,0.1,0,0.6,0.1,0.6c0.1,0.1,0.4,0,0.1-0.6c0-0.1,0.1-0.1,0.4,0
		c0.3,0.1,0.1,0.1,0,0.1s-0.1,0.1-0.1,0.4c0,0.1,0,0.1-0.1,0s-0.1-0.1-0.1,0s0.1,0.1,0.4,0.1c0.3,0,0.4,0.1,0.4,0.4
		c0.1,0.4,0.6,0.4,0.4,0c0-0.1,0-0.1,0.1,0c0.4,0.1,0.6,0.1,0.6,0s-0.1-0.1-0.1-0.1c-0.1,0-0.1,0-0.1-0.1l0.1-0.1
		c0.4,0,0.7,0.4,0.6,0.6c0,0.7,0,0.7,0.4,0.6c0.4-0.1,0.4-0.4,0.4-0.6c0-0.1,0-0.4,0.1-0.4s0.1,0.1,0.1,0.4
		c-0.1,0.4,0.1,1.1,0.4,0.7c0-0.1,0.1-0.1,0.4-0.1s0.1-0.1,0.1-0.4c0-0.1,0-0.4,0-0.4s0.1,0.1,0.1,0.6c0,0.7,0.4,0.8,0.6,0.4
		l0.1-0.4l0.1,0.4c0.1,0.6,0.4,0.6,0.6,0c0.1-0.4,0.1-0.4,0.1,0c0,0.1,0,0.4,0,0.4c-0.1,0,0,0.1,0.1,0.1c0.1,0.1,0.4,0.1,0.4,0
		C20.4,37.1,20.4,37.1,20.6,37.3z M22.6,37.1c-0.1-0.1,0.1-0.1,0.4,0c0.1,0.1,0.1,0.1,0.1,0s0-0.4-0.1-0.4c0,0-0.1,0,0-0.1
		c0,0,0.1-0.1,0.4,0c0.6,0.1,1.2-0.1,1.1-0.6c0-0.1-0.1-0.4-0.4-0.1c-0.4,0-0.4,0-0.1-0.1c0.4-0.4,0.7-0.1,0.7,0.4
		c0,0.1,0,0.4,0,0.4c0.1,0,0.6-0.1,0.6-0.6c0.1-0.1,0.1-0.1,0.4-0.1c0.1,0.1,0.1,0.1,0.1,0c0,0,0.1,0,0.4,0.1
		c0.1,0.1,0.4,0.1,0.4,0.1s0-0.1,0.1,0c0.1,0,0.1,0,0.1,0s0.1-0.1,0.1,0c0.1,0,0.1,0,0.1-0.1s0-0.1,0.1-0.1s0.1-0.1,0-0.4
		c-0.1-0.1,0-0.4,0.6-0.1c0.1,0,0.1,0,0.1-0.1s0-0.1,0.1,0s0.8-0.4,0.8-0.7c0-0.1,0-0.1-0.1-0.4c-0.1,0,0-0.1,0,0
		c0.1,0,0.1,0.1,0.1,0.1c0,0.1,0.1,0.1,0.4,0c0-0.1,0.1-0.1,0.4,0s0.6-0.1,0.6-0.6c0-0.1,0-0.4,0.1-0.1c0,0,0.4-0.1,0.7-0.6
		c0.4-0.4,0.6-0.6,0.4-0.6s-0.4,0-0.4-0.1s0.1-0.1,0.4-0.1c0.4,0,0.7-0.6,0.6-0.7c0,0,0-0.1,0.4-0.4c0.4-0.1,0.4-0.1,0.1,0
		c-0.6,0.1-0.6,0.1-0.4,0.1c0.1,0,0.1-0.1,0.1-0.6c0-0.6,0-0.6,0.6-0.4c0.1,0.1,0.4,0.1,0.1,0c0-0.1,0-0.4,0-0.6
		c0.1-0.1,0.1-0.4,0-0.6c0.2,0,0.2-0.3,0.2-0.6c0-0.4,0-0.4,0.1-0.1c0.1,0.1,0.4,0.4,0.6,0.6c0.4,0.1,0.4,0.1,0.7,0
		c0.1-0.1,0.1-0.4,0.1-0.4s-0.1,0.1-0.4,0.4C34,29,34,29,34,28.9s-0.1-0.4-0.4-0.4C33,28.3,33,28,33.1,27.7c0.1-0.1,0.1-0.1,0.6,0.1
		c0.4,0.4,1.1,0.6,1.1,0.4c0,0-0.4-0.4-0.7-0.6l-0.7-0.4l0.1,0.3c-0.1,0.4-0.4,0.7-0.4,0.8c0,0-0.1,0.1-0.4,0.4
		c-0.1,0.1-0.4,0.4-0.6,0.6c0,0.1-0.1,0.4-0.4,0.4s-0.1,0-0.1,0.1s-0.4,0.6-1.1,1.1c-0.6,0.6-0.8,1.1-0.8,1.1s0.1,0,0.4-0.1
		s0.4-0.1,0.4-0.1c0,0.1-0.6,0.6-0.8,0.4c-0.1,0-0.1,0-0.1,0v0.1c-0.4,0-1.2,0.8-1.1,1.1c0.1,0,0.1,0,0.1,0c0-0.1,0-0.1,0.1-0.1
		s0.1,0,0,0.1c0,0.1-0.1,0.1-0.1,0.4l0,0c0,0-0.1,0-0.4-0.1l-0.4-0.4L27,33.9c-0.6,0.1-1.2,0.7-1.5,0.7c-0.4,0.1-0.8,0.4-1.1,0.6
		c-0.1,0-0.4,0.1-0.6,0c-0.1,0-0.4,0-0.4,0s-0.1,0.1-0.7,0.1c-0.4,0-0.7,0.1-0.8,0.1c0,0.1,0.1,0.1,0.4,0c0.6-0.1,0.6,0,0.4,0.1
		c-0.1,0.1-0.4,0.1-0.6,0.1s-0.1,0-0.1,0.1s0.1,0.4,0.1,0.6C22.3,37.1,22.4,37.3,22.6,37.1C22.6,37.3,22.6,37.3,22.6,37.1z
		 M28.1,36.4c-0.1,0-0.6,0-0.7,0s0,0,0.4,0C28.1,36.6,28.2,36.4,28.1,36.4z M25.3,35.9C25.2,35.9,25.2,35.9,25.3,35.9
		C25.2,36,25.3,36.3,25.3,35.9C25.3,36,25.3,36,25.3,35.9z M30.3,35c0,0-0.1-0.1-0.4-0.1s-0.1,0,0,0.1C30,35.2,30.3,35.2,30.3,35z
		 M24.1,34.1c2.8-0.8,4.8-2.5,7.1-4.8c0.1-0.4,0.4-0.6,0.4-0.6s0-0.1,0.1-0.4c0.4-0.6,1.2-2.1,1.5-3.2c0.6-1.2,1.1-4.3,0.8-4.6
		c-0.1-0.1-0.1,0.4-0.1,1.1c0,0.1-0.1,0.1-0.1,0c-0.1,0-0.1,0,0,0.1c0.1,0.4,0.1,1.2-0.1,1.2c0,0-0.1,0.1,0,0.4
		c0.1,0.4-0.1,1.1-0.6,1.1c-0.1,0,0-0.1,0.1-0.4c0.1-0.1,0.1-0.4,0.1-0.7c-0.1-0.1-0.1-0.1-0.1,0s0,0.1-0.1,0.1s-0.1,0-0.1,0.1
		s0,0.1-0.1,0.1s-0.1-0.1-0.1-0.6c0-1.1-0.1-1.5-0.6-1.4c-0.1,0-0.4-0.1-0.7-0.7c-0.1-0.4-0.4-0.8-0.1-0.8c0,0,0.7,0,1.2,0
		c0.8,0,1.2,0.1,1.2,0.4s0,0.1,0.1,0.1s0.1-0.1,0.1-0.4c0-0.4-0.1-0.4-0.4-0.4c-0.1,0-0.8,0-1.5,0s-1.4,0-1.4,0s0.1,0.6,0.4,1.2
		c0.4,1.1,0.4,1.1,0.7,1.1c0.4,0,0.4,0,0.4,0.6V23h-1.9c-1.8,0-1.9,0-1.9-0.4c0-0.1-0.1-0.4-0.1-0.6c-0.1-0.1-0.1-0.1,0.6-0.1
		c0.7,0.1,0.7,0,0.6-0.7c-0.1-0.6-0.6-0.7-1.9-0.7c-0.7,0-0.8,0-1.1,0.4c-0.1,0.6,0,0.8,0.4,0.8s0.4,0,0.4,0.6s0,0.6-0.8,0.6
		c-0.6,0-0.7,0-0.4-0.1c0.7-0.1,0.8-0.4,0.4-0.4s-0.6,0-0.4-0.4c0-0.6,0-0.6-0.4-0.1c-0.1,0.1-0.1,0.1,0,0.1c0.1-0.1,0.1,0.1,0,0.4
		c-0.4,0.4-0.4,0.1-0.4-0.4c0-0.4,0-0.4,0-0.1s-0.1,0.4-0.1,0.6c-0.1,0.1-0.1,0.4,0.1,0.6c0.1,0,0,0-0.4,0.1c-0.7,0-0.7,0-0.7-0.6
		c0-0.4,0-0.6,0.1-0.6s0.4,0,0.6,0.1C25,22.2,25,22.2,25,22c0-0.1,0-0.4,0.1-0.6c0,0,0.1-0.1,0.1-0.4c0-0.4,0.6-2.9,0.7-3.5
		c0-0.1,0-0.6,0-0.8c-0.1-0.3-0.1-0.6-0.1-0.8c0-0.1-0.1-0.1-0.1-0.1c-0.1,0-0.1,0.8,0,1.4c0.1,0.4,0.1,0.6-0.1,1.4
		c-0.1,0.6-0.4,1.1-0.6,1.1c-0.1,0-0.1,0.1-0.1,0.4c0,0.4-0.4,0.4-0.4,0c0-0.1-0.7-0.1-2.1-0.1c-1.9,0-2.1,0-2.2,0.4
		c-0.1,0.1-0.1,0.4,0,0.1c0.1,0,0.1,0.1,0.1,0.6c0,0.6,0,0.6-0.4,0.6c-0.1,0-0.6-0.1-0.7-0.1c-0.1-0.1-0.1-0.1,0,0.1
		c0.1,0.4,0.8,0.7,1.2,0.7s1.2-0.4,1.4-0.7c0.1-0.1,0.1-0.1,0.7,0.1c0.7,0.7,0.7,1.1,0.4,0.8c-0.1,0-0.6,0.1-0.7,0.4
		c-0.7,0.6-1.5,0.7-2.6,0.7c-1.2-0.1-2.1-0.7-2.6-1.8c-0.6-0.7-0.7-1-0.6-2.1s0.4-1.5,0.7-1.2c0,0.1,0.1,0.1,0.4,0
		c0.1,0,0.1,0,0.1,0.1s0,0.1,0.1,0.1c0.1-0.4,0.4-0.1,0.4,0s0.1,0,0.1-0.4c0.1-0.4,0.1-0.6,0.1-0.6s-0.1,0-0.3-0.1
		c-0.1-0.1-0.1-0.1,0,0c0.1,0.4,0.1,0.4-0.1,0.1c-0.1,0-0.1-0.1-0.1-0.6c0-0.3-0.1-0.7-0.4-0.3c0,0.1,0,0.1,0.1,0s0.1,0,0,0
		c0,0.1-0.1,0.1-0.3,0s0.1-1.1,0.8-1.4c0.7-0.3,1.9-0.3,2.5,0c0.4,0.4,0.4,0.4,0.6,0c0.1-0.1,0.4-0.3,0.8-0.3s0.1,0-0.4,0
		c-0.6,0-1.1,0-1.1-0.1s0-0.1,0.1,0c0.1,0,0.1,0,0.1,0c0-0.1-0.4-0.1-0.6-0.1c-0.4,0-0.4,0-0.4-0.4v-0.3h-1.8
		c-1.5-0.1-2.2-0.1-1.8-0.4c0.1,0,0.8-0.1,1.5-0.1s1.4-0.1,1.5-0.1c0.1-0.1,0.1-1.1,0.1-2.2V9.6l-0.6,0.1c-0.1,0-0.7-0.1-1.2-0.1
		c-1.2,0-0.8-0.6,0.4-0.6c0.6,0,0.7,0,0.6-0.3c0-0.1-0.1-0.4-0.4-0.4s0.4-0.1,0.4-0.1s0.1-0.1,0.4,0C19,8.2,19,8.2,19,8
		s-0.1-0.1-0.1-0.1c-0.4,0-0.4-0.1,0-0.6l0.4-0.4v0.7c0,0.4,0,0.8,0.1,1.1c0,0.1,0.1,0.1,0.1,0c0,0,0-0.7,0-1.2c0-1.1,0-1.1-0.4-1.2
		c-0.1,0-0.4,0-0.1,0c0,0,0,0.4-0.4,0.6C18,7.5,17.4,8.8,17.5,9l0,0c0,0-0.1,0.1-0.1,0.4c0,0.4-0.1,0.4-1.4,0.4
		c-0.8,0-1.2,0-1.2-0.1s0.6-0.1,1.2-0.1h1l0.4-0.7C17.6,8.5,18,8,18.1,7.6c0.4-0.4,0.4-0.6,0.4-0.7c-0.3-0.4-0.3-0.6-0.3-0.4
		c0,0.1-0.1,0.1-0.7,0.1c-1.4-0.1-5,1.4-6.2,2.6c-0.6,0.4-0.8,0.4-0.6,0c0.1-0.1,0.1-0.1,0-0.1c0,0-0.1,0.1-0.4,0.4
		c-0.1,0.1-0.1,0.4,0,0.4S9.9,10.5,9.5,11c-1.4,1.5-2.9,3.9-2.9,4.4c0,0.1,0,0.4-0.1,0.4s-0.1,0,0.1-1.1c0.6-1.2,1.8-3.2,2.6-4
		c0.6-0.4,0.8-0.7,0.6-1c-0.1-0.1-0.1-0.1-0.1,0s-0.1,0.6-0.6,0.7c-0.7,0.7-1.5,1.9-2.1,2.8c-0.6,0.8-1.4,3.3-1.5,4.2
		c0,0.4-0.1,0.8-0.1,1.2c-0.1,1.2,0,4,0.4,5.5c1.1,3.9,3.6,7.3,7.1,9.1c1.1,0.6,2.9,1.2,3.5,1.2c0.1,0,0.3,0,0.6,0.1
		c0.1,0.1,1.4,0.4,3.9,0.1C22.3,34.6,22.7,34.5,24.1,34.1z M10.7,33.9C10.8,33.8,10.8,33.8,10.7,33.9c-0.1,0-0.4,0.1-0.4,0.1
		C10.2,34.4,10.5,34.4,10.7,33.9z M10.2,33.7C10.2,33.7,10.2,33.4,10.2,33.7c0.1,0,0.4-0.1,0.4-0.1c0.1-0.1,0.1-0.1,0.4,0
		c0.3,0.1-0.4-0.4-1.1-0.8c-0.4-0.1-0.7-0.7-0.8-0.8c-0.6-0.6-0.8-0.7-1.2-0.1c-0.3,0.4-0.1,0.6,0.1,0.7c0.1,0,0.1,0,0.1-0.4
		c-0.1-0.4,0-0.4,0.1-0.4s0.3,0.1,0.6,0.1c0,0.1,0,0.1-0.1,0.1c-0.1-0.1-0.3,0.8,0,1.2c0,0,0.1,0,0-0.1s-0.1-0.1,0.1,0
		c0.1,0.1,0.4,0.1,0.4,0s0-0.1,0.1-0.1s0.1,0.1,0.1,0.4c0,0.1,0,0.4,0.1,0.1c0.4-0.1,0.4,0,0,0.4c-0.1,0.1-0.1,0.4,0,0.4
		c0,0,0.1-0.1,0.4-0.6c0.1-0.4,0.1-0.6,0.4-0.4c0.1,0,0.1,0.1,0.1,0.1c0,0.1,0,0.1-0.1,0.1s-0.1,0.1-0.1,0.4c0,0.3,0,0.4,0.1,0.4
		C10.7,34.1,10.2,33.8,10.2,33.7z M33.5,32.3C33.6,32,33.6,32,33.5,32.3C33.5,32,33.5,32,33.5,32.3C33.4,32.4,33.4,32.4,33.5,32.3
		C33.5,32.4,33.5,32.3,33.5,32.3z M33.8,31.3c0-0.1,0,0,0,0.1s0,0.4,0,0.1C33.8,31.7,33.8,31.6,33.8,31.3z M7.7,31
		c0-0.1,0-0.4,0-0.4c-0.1-0.1-0.1-0.1-0.1-0.1c0.1,0,0.4,0,0.4,0.1c0.1,0.1,0.1,0.1,0.1,0.1c0-0.1-0.4-0.6-0.7-0.6
		c-0.1,0-0.4,0.1-0.6,0.4c0,0.3,0,0.5,0,0.5s0.1,0,0.3-0.1c0.1-0.1,0.4,0,0.4,0.1C7.3,31.2,7.5,31.3,7.7,31z M34.5,30.6L34.5,30.6
		c-0.1,0.1,0,0.4,0,0.1V30.6z M6.4,30.3C6.4,30.3,6.1,30.3,6.4,30.3c-0.1,0.1,0,0.4,0,0.1V30.3z M6.8,30.2
		C6.8,29.9,6.8,29.9,6.8,30.2c-0.1,0-0.1,0-0.1-0.1s0-0.1-0.1-0.1s0,0.4,0.1,0.4C6.6,30.3,6.6,30.2,6.8,30.2z M7.2,29.6
		c0,0-0.4-0.1-0.6-0.1c-0.4,0-0.4,0-0.1,0.1c0.1,0.1,0.4,0.1,0.6,0.1C7.2,29.8,7.2,29.6,7.2,29.6z M5.9,29.2
		C5.9,29.1,5.8,29.2,5.9,29.2c-0.1,0.1,0,0.4,0,0.1C5.9,29.1,5.9,29.2,5.9,29.2z M35.9,28.8L35.9,28.8
		C35.6,28.8,35.6,28.8,35.9,28.8L35.9,28.8z M35.9,28.1C35.9,27.8,35.9,27.8,35.9,28.1c-0.1,0.4,0,0.4,0,0.4
		C36.1,28.3,36.1,28.1,35.9,28.1z M24.4,23.3h-0.1C24.1,23.3,24.1,23.3,24.4,23.3L24.4,23.3z M32.8,22.7
		C32.8,22.6,32.7,22.7,32.8,22.7c-0.1,0.1,0,0.4,0,0.1V22.7z M33.5,22.3C33.4,22.3,33.4,22.3,33.5,22.3c-0.1,0.1,0,0.4,0,0.1V22.3z
		 M33.6,21.5C33.8,21.5,33.6,21.3,33.6,21.5C33.5,21.4,33.5,21.5,33.6,21.5c-0.1,0.1-0.1,0.1-0.1,0.1C33.6,21.6,33.6,21.6,33.6,21.5
		z M36.6,21.3c0.6-0.1,0.8-0.8,0.8-1.4c0-0.4,0-0.1-0.1,0.1c0,0.6-0.6,1.2-1.1,1.1c-0.1,0-0.4-0.1-0.6-0.1c-0.1,0-0.8-0.8-0.8-1.4
		c0-0.1,0.1-0.4,0.6-0.7l0.6-0.4L35.3,19c-0.8,0.6-1.1,1.8-0.4,2.2C35.7,21.5,35.9,21.5,36.6,21.3z M4,21.2c0.4-0.3,0.7-1,0.6-1.1
		c0,0,0,0,0,0.1c0,0.4-0.6,0.8-0.8,0.7c-0.1,0-0.1,0,0,0c0.1,0.1-0.8-0.1-1-0.6c-0.1-0.1-0.3-1.1,0-1.2c0,0,0.1-0.1,0.1-0.4
		c0-0.1-0.1,0-0.4,0.1c-0.1,0.1-0.3,0.4-0.1,0.4c0,0,0,0.1,0,0.4s0,0.4,0.1,0.4c0.1,0.1,0.4,0.6,0,0.6H2.3c0,0.1,1.1,0.6,1.4,0.6
		C3.6,21.3,3.7,21.3,4,21.2z M19,20.2c-0.1,0-0.4-0.1-0.4-0.4s0.1-0.1,0.6-0.1c0.6,0,0.6,0,0.6-0.6c0-0.4,0-0.7,0.1-0.7
		c0.1-0.1,0.7,0.4,0.8,0.6c0,0.1,0.4,0.4,0.8,0.4c1.1,0.1,1.4,0,1.4-0.7v-0.6v0.6c0,0.6-0.1,0.6-0.4,0.4C21.9,19,21.6,19,21.3,19
		c0-0.1-0.1-0.3-0.1-0.3c0-0.6-0.7-1.1-1.4-1.1s-1.2,0.4-1.1,0.7c0,0.1,0,0.1,0,0.1s-0.1,0.4-0.1,0.8c0,1.2,0,1.2,0.6,1
		C19.2,20.5,19.2,20.5,19,20.2z M28.5,20.2c0-0.4-0.6-1.8-0.7-1.9c-0.4-0.1-0.4-0.1-0.6,0.6c-0.1,0.8-0.1,1.2,0,0.7
		c0.1-0.1,0.1-0.1,0.4-0.1c0.4,0.4,0.4,0.7-0.1,0.6c-0.4,0-0.6,0-0.6,0.1s0.1,0.1,0.8,0.1C28.1,20.5,28.5,20.5,28.5,20.2z
		 M34.2,20.5L34.2,20.5C34.1,20.5,34.1,20.5,34.2,20.5C34.2,20.5,34.3,20.5,34.2,20.5z M34.2,19.9c0-0.1-0.1-0.1-0.1-0.1L34.2,19.9
		c-0.1,0.1-0.1,0.1,0,0.1C34.2,20.2,34.2,20.1,34.2,19.9z M30.2,18.7c-0.1-0.6-0.4-1.1-0.4-1.1S30,18.1,30.2,18.7
		c0,0.7,0.1,1.2,0.4,1.2C30.6,19.8,30.6,19.3,30.2,18.7z M4.6,19.4C4.4,19.4,4.4,19.4,4.6,19.4c-0.1,0.1,0,0.4,0,0.1
		C4.6,19.5,4.6,19.5,4.6,19.4z M34.3,19.4c0,0,0-0.1-0.1-0.1h-0.1C34.1,19.4,34.1,19.4,34.3,19.4C34.2,19.4,34.3,19.4,34.3,19.4z
		 M37,18.8c0,0-0.1-0.1-0.4-0.1c-0.1,0-0.1,0,0,0.1C37,19.1,37.1,19.1,37,18.8z M3.3,18.7c-0.1,0-0.4,0-0.6,0
		C2.6,18.8,2.9,18.8,3.3,18.7C3.7,18.7,3.7,18.7,3.3,18.7z M34.1,18.4c0-0.1,0,0,0,0.1c0,0.4,0,0.4,0,0.4
		C34.2,18.7,34.2,18.6,34.1,18.4z M1.8,18.7c0,0,0-0.1-0.1-0.1s-0.1,0,0,0C1.8,18.7,1.8,18.8,1.8,18.7z M33.6,18
		C33.5,18,33.5,18,33.6,18c-0.1,0.4,0,0.4,0,0.4S33.6,18.1,33.6,18z M33.5,17.3C33.4,17.2,33.4,17.2,33.5,17.3c-0.1,0.4,0,0.4,0,0.4
		C33.5,17.5,33.5,17.3,33.5,17.3z M29.9,17.2C29.6,17.2,29.6,17.2,29.9,17.2c-0.1,0.1,0,0.4,0,0.1C29.9,17.3,29.9,17.3,29.9,17.2z
		 M29.6,16.8C29.5,16.6,29.5,16.8,29.6,16.8c-0.1,0.1,0,0.4,0,0.1C29.6,17,29.6,16.8,29.6,16.8z M33.4,16.8
		C33.1,16.6,33.1,16.8,33.4,16.8c-0.1,0.1,0,0.4,0,0.1C33.4,17,33.4,16.8,33.4,16.8z M29.5,16.3c0-0.1-0.8-0.1-1.9-0.1h-1.8l1.9,0.1
		C28.7,16.5,29.5,16.5,29.5,16.3C29.5,16.5,29.5,16.5,29.5,16.3z M20.4,15.7c0-0.1,0.1-0.1,0.6-0.1c0.8-0.1,1.1-0.1,0.4-0.4
		c-0.7-0.1-1.1,0-1.2,0.4C19.9,15.7,19.9,15.8,20.4,15.7C20.4,15.8,20.4,15.7,20.4,15.7z M32.8,15.1L32.8,15.1
		C32.4,15.2,32.7,15.2,32.8,15.1C32.8,15.2,32.8,15.2,32.8,15.1z M20.2,13.3c0-0.1,0,0,0,0.1c0,0.4,0,0.4,0,0.4
		C20.2,13.7,20.2,13.6,20.2,13.3z M20.2,11.2c0-0.4,0,0,0,0.6c0,0.7,0,0.8,0,0.7C20.2,12.2,20.2,11.6,20.2,11.2z M6.4,11.6
		c0-0.1,0.1-0.3,0.1-0.3c0.1,0,0.4-0.1,0.6-0.4c0.6-0.7,2.2-2.4,3.5-3.3c0.8-0.7,1.1-0.8,0.6-1.1c0.1-0.1,0-0.1,0.1-0.4
		s0.3,0,0.3,0.1s0,0.1,0.1,0.4c0.4,0.1,0.8-0.1,0.8-0.6c0-0.1,0-0.1,0-0.1c0.1,0,2.1-0.6,2.6-0.8c0.3-0.3,0.6-0.3,1.8-0.4
		c0.6,0,0.8-0.1,0.8-0.1s-0.1-0.1-0.1,0c-0.1,0-0.1,0-0.1,0c0-0.1,0.1-0.1,0.1-0.1c0.1,0,0.1-0.1,0.1-0.6c0-0.6-0.4-0.8-0.4-0.4
		c0,0.1-0.1,0-0.1-0.1C17,3,17,3.2,16.7,3.3c0,0.1,0,0.4,0.1,0.4s0.1,0,0,0.1c-0.4,0-0.4,0.7-0.1,0.7s0,0,0,0
		c-0.1,0-0.1-0.1-0.4-0.6c0-0.4-0.1-0.4-0.4-0.1s-0.4,0.1-0.6,0c-0.1-0.1-0.1-0.1-0.1,0C15.2,4,15.1,4,15.1,4c-0.1,0-0.4,0-0.4,0.1
		c-0.4,0.6-0.4,0.6-0.6,0.4c0.1-0.3,0.1-0.3,0.1-0.3c0,0.1-0.6,0.1-0.7-0.1c0-0.1-0.1-0.1-0.1,0s0,0.1-0.1,0.1
		c-0.1-0.1-0.7,0-0.6,0.1v0.1h-0.1c0,0,0-0.1-0.1,0c-0.1,0-0.1,0.1,0,0.4s0,0.6-0.3,0.6c-0.1,0-0.4,0-0.4,0.1s-0.3,0.3-0.4,0.3
		s-0.4,0-0.7,0.1C10.5,6.2,10,6.4,9.5,6.4S9,6.4,9.1,6.9c0.1,0.7,0.1,0.8,0,0.6C9,7.1,9,7.1,8.4,7.5C8,7.9,8,8,8.3,8.2
		c0.1,0.1,0.1,0.1-0.1,0.1c-0.4,0-0.6,0-0.6,0.1S7.5,8.7,7.6,9c0,0,0,0.1-0.1,0.1s-0.1,0-0.1,0s0-0.1-0.1,0c-0.1,0-0.1,0.1-0.1,0.6
		c0,0.1,0,0.6-0.1,0.6c-0.4,0.1,0,0.6,0.1,0.3c0.1,0,0.1,0,0.1,0.1s0,0.1,0,0.1s-0.1,0-0.3,0.1c-0.4,0.1-0.7-0.6-0.4-0.8
		c0.1-0.1,0.1-0.1,0,0c-0.4,0.4-0.6,0.8-0.1,0.8c0.4,0.1,0.4,0.8,0,1.2c-0.1,0.4-0.1,0.4-0.7,0C5.7,12,5.2,11.7,5.2,12
		C5,12.2,5,11.8,5.3,11.4c0.1-0.4,0.1-0.4,0.1,0c0,0.1,0,0.1,0.1,0.1c0.4,0,0.6,0,0.4,0.1c0,0.1,0,0.1,0.1,0.1
		c0.3,0,0.3-0.1-0.4-0.7L5,10.6l-0.6,0.8L4,12l0.6,0.1c0.4,0.1,0.7,0.3,0.7,0.6c0.1,0.1,0.4,0.1,0.6-0.1C6.4,12.2,6.4,11.8,6.4,11.6
		z M3.2,12.5C3.2,12.3,3.2,12.5,3.2,12.5c-0.1,0.1,0,0.4,0,0.1C3.3,12.6,3.3,12.5,3.2,12.5z M3.6,11.6C3.6,11.5,3.6,11.5,3.6,11.6
		c-0.1,0.4,0,0.4,0,0.4C3.6,11.8,3.7,11.6,3.6,11.6z M34.1,11.6c0,0,0-0.1-0.1-0.1s-0.1,0,0,0C33.8,11.8,34.1,11.8,34.1,11.6z
		 M33.1,11.2c-0.1-0.4-0.7-0.4-0.6,0c0,0.1,0.1,0.1,0.1,0C32.8,11.1,33,11.2,33.1,11.2c0,0.1,0,0.1,0.1,0.1
		C33.4,11.6,33.4,11.5,33.1,11.2z M33.4,10.9C33.5,10.8,33.5,10.5,33.4,10.9c-0.1-0.1-0.1,0-0.1,0.1C33.1,11.2,33.4,11.1,33.4,10.9z
		 M33,10.8C33,10.8,33,10.5,33,10.8C33,10.5,32.8,10.8,33,10.8c-0.1,0.1-0.1,0.1-0.1,0.1C32.8,10.9,33,10.9,33,10.8z M32.3,10.8
		c0,0,0-0.1,0.1-0.3c0.4-0.1,0.4-0.7,0.1-0.7c0,0-0.1,0-0.1,0.1s0,0.1-0.1,0.1c0,0-0.1,0-0.1-0.1s0-0.1-0.1-0.1
		c-0.4,0.1-0.4,0.1,0,0.6c0.1,0.1,0,0.1-0.4,0c-0.1-0.1,0,0,0.1,0.1C32.1,10.5,32.3,10.8,32.3,10.8C32.4,10.8,32.4,10.8,32.3,10.8z
		 M20.5,10.3c0.4-0.4,1.8-0.4,1.9,0c0.1,0.1,0.1,0.1,0.1-0.1c0-0.4-0.1-0.4-1.2-0.4c-1.2,0-1.2,0-1.2,0.4
		C20.2,10.5,20.2,10.5,20.5,10.3z M33.5,10.4v-0.1C33.5,10.3,33.4,10.3,33.5,10.4C33.4,10.5,33.5,10.5,33.5,10.4z M23.7,9.8
		c0.1-0.1,0.1-0.1,0-0.1s-0.4,0-0.4,0.1s0,0.1,0,0.1S23.4,10.1,23.7,9.8z M24.4,9.7c0,0-0.1,0-0.4,0s0,0.1,0.1,0.1
		S24.5,9.7,24.4,9.7z M31.7,9.4C31.8,9.3,31.8,9,31.8,9c0-0.1,0-0.1-0.1-0.1s-0.4,0-0.1,0.4c0,0.1,0,0.4-0.1,0.4s-0.4,0-0.4-0.1
		c0,0,0-0.1,0.1-0.1S31.3,8.3,31,8c-0.1-0.4-0.1-0.4-0.1-0.3s0,0.1,0,0.1c-0.1,0-0.1,0.1,0,0.3c0.1,0.4-0.1,0.6-0.6,0.1
		c-0.4-0.1-0.4-0.1,0-0.1c0.1,0.1,0.4,0,0.1-0.3c-0.3-0.1-0.3-0.6-0.3-0.7V6.6L30,7.1c-0.1,0.1-0.1,0.6-0.1,0.7c0,0.3,0,0.3-0.1,0
		C29.5,7.7,29.5,7,29.9,7c0,0,0.1,0,0.1-0.1l-0.1-0.1c-0.1,0-0.1,0-0.1-0.1c0.1-0.1-0.1-0.1-0.4,0c-0.1,0.1-0.1,0.1,0,0.1
		c0.4-0.1,0.4,0,0,0.4c-0.1,0.1-0.1,0.1-0.4,0c-0.3,0.1-0.6,0.1-0.6,0.1s0.6,0.6,1.1,1.1c0.7,0.6,1.2,1.1,1.2,1.1
		c0,0.1,0.6,0.4,0.8,0.6C31.6,9.7,31.7,9.6,31.7,9.4z M22.3,8.9c0-0.1-0.8-1.8-1.2-2.1c-0.7-0.7-0.8-0.4-0.8,0.8
		c0,0.7,0,1.1,0.1,1.1c0,0,0.1-0.4,0.1-0.8c0-0.6,0-0.7,0-0.8c0.1-0.1,1.1,0.8,1.2,1.4C21.9,8.9,22.3,9,22.3,8.9z M11.6,8.3
		c0,0-0.1,0-0.4,0.1c-0.1,0.1-0.1,0.1,0.1,0C11.6,8.3,11.6,8.3,11.6,8.3z M11.3,8.2h-0.1C10.9,8.2,10.9,8.2,11.3,8.2L11.3,8.2z
		 M24.4,8c-0.1,0-0.4-0.1-0.6-0.4c-0.6-0.4-1.4-0.8-1.8-0.8s-0.1,0.4,0.1,0.4c0.1,0,0.8,0.4,1.2,0.6C24,8,24.4,8.2,24.4,8
		C24.5,8,24.4,8,24.4,8z M25.2,7.5c0,0-0.1-0.1-0.4-0.1c-0.4,0-0.4,0,0,0.1C25.1,7.5,25.2,7.6,25.2,7.5C25.2,7.6,25.2,7.5,25.2,7.5z
		 M25.8,7.5h-0.1C25.3,7.5,25.3,7.6,25.8,7.5C25.8,7.6,25.8,7.5,25.8,7.5z M28.1,6.6C28.2,6.2,28.5,6,28.5,6s-0.1,0-0.1,0.1
		c-0.1,0.4-0.8,1.1-1.1,0.8c-0.4-0.1-0.4-0.4,0.1-0.1c0.4,0,0.4,0,0.4-0.1s-0.1-0.1-0.4-0.1s-0.1-0.1-0.1-0.4s0.1-0.4,0.1-0.6
		s-0.1-0.1-0.6-0.4c-0.4,0-0.7-0.1-0.7-0.4C26,4.6,26,4.6,26,4.6s0,0.1,0,0.3c0,0.4-0.4,0.6-0.6,0.4c-0.6-0.1-0.6-0.1-0.1-0.1
		c0.4,0,0.4,0,0.1-0.4l-0.1-0.1L25,5c-0.1,0.1-0.4,0.4-0.4,0.4c-0.1,0-0.1,0,0-0.1c0.4-0.4,0.1-0.7,0-0.7s-0.1,0-0.1,0.1
		s0,0.1,0,0.1s-0.1,0-0.1-0.1s-0.6,0-0.6,0.4c0,0.1,0.1,0.1,0.4,0.4c0.4,0,0.4,0,0,0s-0.4-0.1-0.6-0.6c0-0.6-0.1-0.6-0.4-0.4
		c-0.6-0.1-0.7,0.1-0.4,0.1c0.1,0,0.1,0.1-0.1,0.1c-0.1,0-0.1,0-0.1-0.4s0-0.4-0.1-0.6c-0.4-0.1-0.8,0.1-0.7,0.6
		c0,0.1,0,0.1-0.1,0.1s-0.1,0,0-0.4c0.1-0.1,0-0.4,0-0.6c-0.3,0-0.3,0-0.4,0.1s-0.1,0.1-0.4,0c-0.4-0.4-0.6-0.1-0.6,0.4
		c0,0.4,0,0.4,0.4,0.1c0.1,0,0.3,0,0.1,0.2c0,0.1,0,0.1,0.1,0.1s0,0-0.4,0s-0.6-0.1-0.7-0.7c0-0.3,0-0.4-0.7-0.4
		c-0.8,0-1.2,0.3-0.8,1.1c0.1,0.3,0.4,0.3,1.8,0.6c0.8,0,1.5,0,1.8,0.1C22,5,22,5,22,4.6s0-0.4,0.1-0.4s0.1,0.1,0.1,0.4
		c0,0.4,0,0.4,0.1,0.4C23,5,23,5,23,4.6c0-0.1,0-0.4,0.1-0.4s0.1,0.1,0.1,0.4s0.1,0.4,0.1,0.6c0.1,0,0.8,0.4,1.8,0.6
		c1.2,0.4,1.5,0.6,1.5,0.7c-0.1,0.4,0.4,0.7,0.7,0.7C27.6,7.1,28,6.8,28.1,6.6z M8.2,6.4H8C7.9,6.4,8,6.4,8.2,6.4L8.2,6.4z M30,6.4
		c0,0,0-0.1-0.1-0.1s-0.1,0,0,0C29.9,6.4,30,6.6,30,6.4z M27.8,5.5c0,0-0.1,0-0.1,0.1c-0.1,0.4-0.1,0.6,0,0.4c0.1,0,0.1,0,0.1,0.1
		s0,0,0.1-0.1C28,6,28,5.5,27.8,5.5z"/>
	<path class="st0" d="M20.4,36.8c-0.1,0-0.1-0.1-0.1-0.1S20.4,36.6,20.4,36.8c0-0.1,0.1-0.1,0.1-0.2s0-0.1-0.1-0.1s-0.1,0,0,0
		c0.1-0.4,0.7-0.1,0.8,0.1c0.1,0.1,0.1,0.4,0,0.1c-0.4-0.4-0.6-0.1-0.4,0.1c0,0.1,0,0.4,0,0.4C20.6,36.8,20.5,36.8,20.4,36.8z"/>
	<path class="st0" d="M19,36.2C18.8,36,18.8,36,19.1,36c0.6,0,0.7,0.1,0.4,0.1C19.2,36.4,19.1,36.2,19,36.2z"/>
	<path class="st0" d="M14.8,35.5c0,0,0-0.1,0.1-0.1c0,0,0.1,0,0,0.1C14.9,35.7,14.9,35.7,14.8,35.5C14.8,35.7,14.8,35.7,14.8,35.5z"
		/>
	<path class="st0" d="M12.3,33.9C11.9,33.8,11.9,33.8,12.3,33.9c0.4-0.1,0.7,0,0.4,0.3C12.7,34.4,12.6,34.1,12.3,33.9z"/>
	<path class="st0" d="M24.6,35.7C24.6,35.5,24.8,35.5,24.6,35.7C24.8,35.7,24.8,35.7,24.6,35.7C24.8,35.9,24.6,35.9,24.6,35.7z"/>
	<path class="st0" d="M26.4,35.7C26.4,35.5,26.4,35.5,26.4,35.7L26.4,35.7C26.4,35.9,26.4,35.9,26.4,35.7z"/>
	<path class="st0" d="M26.9,35.3C26.9,35.3,26.9,35.2,26.9,35.3C27.1,35.3,27.1,35.5,26.9,35.3C26.9,35.5,26.9,35.5,26.9,35.3z"/>
	<path class="st0" d="M25.1,35.3l0.1-0.1c0.1,0,0.1,0,0.1,0C25.3,35.3,25.1,35.5,25.1,35.3z"/>
	<path class="st0" d="M26.6,34.8l0.1-0.1C26.7,34.6,26.7,34.6,26.6,34.8C26.7,34.8,26.6,34.8,26.6,34.8L26.6,34.8z"/>
	<path class="st0" d="M27.8,34.1l0.1-0.1C28.1,33.9,28,33.9,27.8,34.1C28,34.1,27.8,34.4,27.8,34.1C27.8,34.4,27.8,34.1,27.8,34.1z"
		/>
	<path class="st0" d="M29.6,33.7l0.1-0.1c0.1-0.1,0.1-0.1,0.4,0c0,0.1,0,0.1-0.1,0.1S29.6,33.8,29.6,33.7z"/>
	<path class="st0" d="M29.2,33.2c0-0.1,0.1-0.4,0.1-0.4c0.1,0,0.1,0,0.1,0.4C29.5,33.8,29.2,33.8,29.2,33.2z"/>
	<path class="st0" d="M30.3,33C30.2,33,30.2,32.7,30.3,33c0.1-0.1,0.4-0.4,0.6-0.4l0.4-0.4l-0.4,0.4c-0.1,0.1-0.4,0.4-0.4,0.4
		S30.6,33.1,30.3,33z"/>
	<path class="st0" d="M29.9,32.7H30C30.2,32.7,30,32.7,29.9,32.7L29.9,32.7z"/>
	<path class="st0" d="M31.7,31.7c0-0.1,0-0.1-0.4-0.1s-0.4,0-0.1-0.1s0.4-0.1,0.6,0c0.2,0.1,0.4,0.7,0,0.7
		C31.7,31.9,31.7,31.7,31.7,31.7z"/>
	<path class="st0" d="M32,30.6c-0.4-0.1,0.4-0.6,0.7-0.4c0.1,0.1,0.1,0.1-0.1,0.4C32.3,30.9,32,30.9,32,30.6z M32.3,30.6
		C32.3,30.5,32.3,30.5,32.3,30.6C32.3,30.5,32.1,30.5,32.3,30.6c-0.1,0.1-0.1,0.1-0.1,0.1C32.1,30.6,32.3,30.6,32.3,30.6z"/>
	<path class="st0" d="M33.4,29.8c-0.1-0.1-0.1-0.1-0.6,0s-0.4,0.1-0.1-0.1c0.3-0.3,0.4-0.6,0.8-0.1c0.1,0.1,0.1,0.1,0,0.4
		C33.5,30.2,33.4,30.2,33.4,29.8z"/>
	<path class="st0" d="M17.7,34.4c-1.2-0.1-3.2-0.7-3.9-1.1c-0.1-0.1-0.6-0.1-0.6-0.1s-0.7-0.4-1.2-0.7c-3.2-2.1-5.4-5-6.2-8.7
		c-0.4-1.5-0.4-5.3,0-6.9c0.1-0.7,0.4-1.2,0.4-1.2s0,0.4,0,0.7c-0.1,0.4-0.1,0.7-0.4,1.9c0,0.4-0.1,0.7-0.1,0.7c0,0.1,0,0.1,0,0.1
		s0.1,0.1,0,0.4c0,0.1,0,0.1,0,0.1c0.1,0,0.4-0.7,0.6-1.4C6.7,16.8,7,15.7,7.1,16c0,0.1,0,0.4-0.1,0.6c-0.1,0.1-0.1,0.1,0.1,0
		c0.4-0.4,0.4-0.4,0.4,0.6c0,0.7,0,0.8,0.3,1.2c0.1,0.1,0.4,0.6,0.6,1.2c0,0.6,0.1,0.8,0,1c0,0-0.7,0-1.4,0.1
		c-0.7,0-1.2,0.1-1.4,0.1c0,0,0,0.1,0.1,0.4s0.1,0.1,0.1,0s0.3-0.1,1.2-0.1h1.2v0.7c0,0.4,0,0.7-0.1,0.8S8,23,8.2,23
		c0.6,0,0.6-0.4,0.6-2.8c0-1.9-0.1-2.5-0.4-2.5c-0.3,0-0.6-0.8-0.4-0.8c0.1-0.1,2.8-0.1,3.9,0c2.5,0.4,3.9,2.6,3.2,4.8
		c-0.4,1.1-0.7,1.5-1.5,1.9c-0.1,0-0.7,0-2.8,0c-2.5,0-2.5,0-2.2-0.4c0-0.1,0-0.4,0-0.4s-0.1-0.1-0.1-0.4c0-0.1,0,0-0.1,0.6
		c0,1.1,0,1.1,2.5,0.8c2.5,0,3.2-0.4,4.2-1.4c0.6-0.6,0.8-0.8,0.8-1.1c0-0.4,0.4-0.1,0.7,0.6c0.1,0.4,0.7,0.8,1.1,1.2
		c0.7,0.6,2.4,1.4,2.6,1.2c0,0,0.1,0,0.4,0.1c0.1,0.1,0.6,0.1,1.9,0.1c1.1,0,1.8,0,1.8,0.1s0.1,0.1-1.9,0.1c-0.8,0-1.8,0.1-1.8,0.1
		c-0.1,0-0.1,3.9,0,4.3c0.1,0.4,0.1,0.4,1.2,0.4c0.8,0,1.2,0,1.4-0.1c0.1-0.4,0.1-0.1,0.1,0c-0.1,0.7-0.1,0.7-1.4,0.7
		c-1.4,0-1.5,0.1-1.4,1.4c0.1,1.3,0.1,1.5,0.6,1.4c0.1,0,0.1-0.1,0-0.4c-0.1-0.1-0.1-0.4,0-0.6c0.1-0.1,0.1-0.4,0-0.4
		c-0.1-0.1,0-0.1,0.1,0s0.1,0.4,0.1,0.6c-0.1,0.1-0.1,0.1-0.1,0.4c0.1,0.1,0.7-0.4,1.1-1.1C22.5,31,23,30.8,23,31
		c0,0-0.1,0.6-0.4,0.8c-0.4,0.7-0.4,0.8-0.1,0.8c0.4,0.1,1.9-0.7,2.6-1.4s1.2-0.7,0.7,0c-0.1,0.1-0.7,0.7-1.2,1.1
		c-0.4,0.4-0.7,0.7-0.7,0.7s0,0.1-0.1,0c-0.1,0-0.1,0-0.1,0c0,0.1,0,0.1-0.1,0c-0.1,0-0.4,0-0.1,0C22.6,34.4,19.8,34.5,17.7,34.4z
		 M21.3,33.9c0,0,0-0.1-0.1-0.1s-0.1,0,0,0C21.2,34.1,21.3,34.1,21.3,33.9z M21.6,33.8c0,0,0-0.1-0.1-0.1s-0.1,0,0,0
		C21.3,33.8,21.6,33.8,21.6,33.8z M17.4,32c-0.6-1.1-0.6-1.1-1.2-1.1h-0.7l0.6,0.1c0.6,0,0.7,0.1,1.1,1.2c0.4,0.7,0.6,1.1,0.7,1.1
		C17.9,33.2,17.7,32.6,17.4,32z M19.7,32.3c0.1-1.2,0-1.4-1.2-1.2c-0.6,0-0.8,0.1-0.8,0.4s0.1,0.1,0.7,0.1c1.1-0.1,1.2,0.1,1.2,1.1
		c0,1,0,1.1,0,1.1C19.7,33.2,19.7,32.7,19.7,32.3z M14.9,32.6h-0.1C14.7,32.6,14.7,32.7,14.9,32.6C14.9,32.7,14.9,32.6,14.9,32.6z
		 M15.4,31h-0.1C14.9,31,14.9,31,15.4,31L15.4,31z M19.7,27.8c0-1.2,0-2.2-0.1-2.2c0,0-0.7,0-1.2,0L17,25.8l1.1,0.1
		c0.6,0,1.1,0.1,1.2,0.4c0,0.1,0.1,1.1,0.1,2.1c0,1.2,0,1.9,0.1,1.8C19.7,29.9,19.7,29.1,19.7,27.8z M12.6,21.9
		c0.4-0.4,0.7-0.8,0.7-1.2c0.1-0.8,0-1.9-0.4-2.2c-0.1-0.1-0.1-0.3-0.1-0.3S12.6,18,12,17.7c-0.8-0.4-1.2-0.6-0.7-0.1
		c0.1,0.1,0.1,0.1-0.1,0.1c-0.1,0-0.4-0.1-0.4-0.1c0-0.1,0-0.1-0.1,0c0,0.1,0,0.4,0,0.7c0,0.3,0.1,1.4,0.1,2.5v1.9h0.6
		C11.9,22.6,12.2,22.3,12.6,21.9z M13.6,17.9c0-0.1-0.1-0.4-0.1-0.1c0,0,0,0.1,0,0.4C13.6,18.1,13.7,18.1,13.6,17.9z M12.7,17.5
		c0-0.1,0-0.1,0.3,0c0.4,0.1,0.4,0.1,0-0.1c-0.1-0.1-0.7-0.4-1.1-0.4h-0.7H12c0.7,0.3,0.8,0.3,0.7,0.3
		C12.5,17.3,12.5,17.3,12.7,17.5C12.7,17.7,12.7,17.7,12.7,17.5z M10.7,17C10.5,16.8,10.5,17,10.7,17c-0.1,0.1,0,0.4,0,0.1
		C10.7,16.9,10.7,17,10.7,17z"/>
	<path class="st0" d="M11.2,21.9c0-0.1,0-0.7,0-0.8c0.1-0.4,0.1-0.4,1.1-0.4c0.4,0,0.4,0.8-0.1,1.2C11.6,22.3,11.3,22.3,11.2,21.9z"
		/>
	<path class="st0" d="M11.3,20.2c-0.1,0-0.1-0.4,0-0.8c0.1-0.7,0.1-0.8,0.6-0.8c0.1,0,0.3,0,0.1,0.1c0,0.1,0,0.1,0.1,0.4
		c0.1,0,0.7,1.1,0.7,1.1C12.7,20.2,11.5,20.2,11.3,20.2z"/>
	<path class="st0" d="M23.4,33.7C23.4,33.4,23.4,33.4,23.4,33.7c0.1,0,0.4,0.1,0.1,0.1C23.7,33.8,23.7,33.8,23.4,33.7z"/>
	<path class="st0" d="M24.5,33.2c0.1-0.1,3.3-1.8,3.5-1.5c0.1,0.1,0.1,0-0.8,0.7c-1.1,0.7-1.9,1.1-2.2,1.1
		C24.5,33.2,24.4,33.2,24.5,33.2z"/>
	<path class="st0" d="M20.9,32C20.9,31.9,20.9,31.9,20.9,32C21,32,21,32,20.9,32C20.9,32.3,20.9,32.3,20.9,32z"/>
	<path class="st0" d="M20.4,31.7c0-0.1,0-0.4,0.1-0.4s0.1,0.1,0.1,0.1c0,0.1,0,0.4-0.1,0.4C20.5,32,20.4,31.9,20.4,31.7z"/>
	<path class="st0" d="M23.1,30.5c0.1-0.1,0.7-0.1,1.8-0.4c0.8,0,1.5,0,1.5,0c0,0.4-0.6,0.6-1.9,0.6C23.1,30.6,23,30.6,23.1,30.5z"/>
	<path class="st0" d="M26.9,30.6c-0.1-0.1,0.1-0.4,1.2-0.4h1.2l0.8-1.1c1.4-1.8,1.8-1.9,1.8-2.5c0-0.1,0.1-0.4,0.4-0.4
		c0.4-0.1,0.4-0.1-0.7,1.4c-0.4,0.6-1.1,1.5-1.5,2.1l-0.8,1.1h-1.2C27.4,30.6,26.9,30.6,26.9,30.6z"/>
	<path class="st0" d="M20.4,29.8C20.4,29.6,20.5,29.6,20.4,29.8c0.1-0.1,0.4,0,0.4,0C20.6,29.9,20.6,29.9,20.4,29.8
		C20.5,29.9,20.4,29.9,20.4,29.8z"/>
	<path class="st0" d="M26.6,29.6c0-0.1,0.1-0.1,0.1-0.1S26.7,29.6,26.6,29.6C26.6,29.8,26.4,29.8,26.6,29.6z"/>
	<path class="st0" d="M23,29.1C23,29.1,23,29,23,29.1C23.1,29.1,23.1,29.2,23,29.1C23,29.2,23,29.2,23,29.1z"/>
	<path class="st0" d="M26.2,25.4c-1.1,0-1.8-0.1-1.8-0.1c0-0.1,3.6-0.4,4-0.1C28.8,25.4,28,25.5,26.2,25.4z"/>
	<path class="st0" d="M29.5,25.4c-0.4,0-0.6-0.1-0.6-0.1c0-0.1,0-0.1,1.5-0.1c0.7,0,1.2,0,1.2-0.1c0,0,0.1,0,0.6,0
		c0.1,0,0.4,0,0.1,0c-0.1,0-0.1-0.1-0.1-0.1s0.1,0,0.4,0c0.4,0.1,0.6,0.6,0.1,0.7C32.8,25.5,30.6,25.5,29.5,25.4z"/>
	<path class="st0" d="M23.4,21.5c0-0.1-0.4-0.1-0.6-0.1c-0.6,0-1.1-0.1-0.8-0.4l0.1-0.1c0.1,0,0.1,0,0,0.1v0.1c0.1,0,0.1,0,0.1-0.1
		c0-0.4,0.8-0.4,1.1-0.1C23.3,21,23.3,21.3,23.4,21.5C23.4,21.6,23.4,21.6,23.4,21.5z"/>
	<path class="st0" d="M7.5,14.7c-0.1-0.1-0.1-0.1,0-0.3c0.1-0.1,0.8-0.1,1.9-0.1c1.5,0,1.8,0.1,1.4,0.4C10.7,15,8,15.1,7.5,14.7z"/>
	<path class="st0" d="M11.9,15c-0.6-0.1,0-0.4,1.8-0.4c1.2,0,2.1,0,2.1,0.1s-0.6,0.1-1.4,0.1c-0.7,0-1.5,0-1.8,0
		C12.2,15,11.9,15,11.9,15z"/>
	<path class="st0" d="M19.1,13.6c0-0.1,0-0.6,0-0.6s0.1,0.1,0.1,0.6c0,0.4,0,0.6,0,0.6C19.1,14,19.1,13.7,19.1,13.6z"/>
	<path class="st0" d="M19,10.8c0-0.1-0.1-0.3-0.1-0.3c-0.1,0,0,0,0.1,0s0.4,0,0.4,0.1c0,0,0,0.1-0.1,0C19.2,10.5,19.1,10.5,19,10.8
		C19,11.1,19,11.1,19,10.8z"/>
	<path class="st0" d="M12,9.4C11.9,9.3,12.5,9,13.1,9s0.7-0.1,1.2-0.7c0.6-0.6,0.8-0.8,0.8-0.6c0,0-0.4,0.6-0.7,0.8
		c-0.7,0.7-0.8,0.8-1.5,0.8C12.3,9.6,12,9.4,12,9.4z"/>
	<path class="st0" d="M18.4,8.9h0.1C18.5,8.9,18.5,8.9,18.4,8.9C18.4,8.9,18.3,8.9,18.4,8.9z"/>
	<path class="st0" d="M18.3,8.5h0.1C18.4,8.5,18.4,8.5,18.3,8.5C18.3,8.5,18.1,8.5,18.3,8.5z"/>
	<path class="st0" d="M18.8,8.5H19C19,8.5,19,8.5,18.8,8.5C18.8,8.5,18.5,8.5,18.8,8.5z"/>
	<path class="st0" d="M15.5,7.3C15.5,7.1,15.5,7.1,15.5,7.3C15.6,7.3,15.6,7.3,15.5,7.3C15.5,7.5,15.5,7.5,15.5,7.3z"/>
	<path class="st0" d="M16.7,6.8h0.1C17,6.8,17,6.8,16.7,6.8L16.7,6.8z"/>
	<path class="st0" d="M9.1,32.4c0-0.1,0.4-0.1,0.6,0c0,0,0,0.1-0.1,0.1C9.3,32.4,9.1,32.4,9.1,32.4z"/>
	<path class="st0" d="M7.1,10.4C7.1,10.4,7.1,10.3,7.1,10.4C7.2,10.4,7.2,10.5,7.1,10.4C7.1,10.5,7.1,10.5,7.1,10.4z"/>
	<path class="st0" d="M7.1,9.8C7.1,9.7,7,9.4,7,9.4s0,0,0.1,0c0.1,0.4,0.7,0.1,0.6,0c0,0,0-0.1,0.1,0s0.1,0.1,0,0.3
		C7.3,10.3,7.3,10.3,7.1,9.8z"/>
	<path class="st0" d="M8,9C7.9,8.9,8,8.9,8.4,8.9c0.3,0,0.3,0,0.3,0.1C8.4,9.1,8.2,9.1,8,9z"/>
	<path class="st0" d="M8.9,8.3C8.9,8.2,9,8.2,9,8.2c0.1,0,0.1,0,0,0.1c0,0.1,0,0.1-0.1,0.1S8.9,8.5,8.9,8.3z"/>
	<path class="st0" d="M9.5,7.8l0.1-0.1C9.8,7.6,9.8,7.6,9.5,7.8C9.8,7.8,9.5,8,9.5,7.8C9.5,8,9.5,7.8,9.5,7.8z"/>
	<path class="st0" d="M10.1,7.5c0-0.1,0-0.1,0-0.4c0.1-0.1,0.3,0,0.1,0.1C10.2,7.6,10.1,7.6,10.1,7.5z"/>
	<path class="st0" d="M9.5,6.9c-0.1-0.1,0-0.6,0.4-0.6c0.1,0,0.1,0,0,0.1C9.8,6.8,9.8,6.8,9.5,6.9C9.6,6.9,9.6,7,9.6,7
		S9.5,7.1,9.5,6.9z"/>
	<path class="st0" d="M10.8,7.1c0,0,0-0.1-0.1-0.4c-0.4-0.1-0.4-0.7,0-0.4c0,0,0.1,0.1,0,0.1c0,0,0,0.1,0.1,0.1
		C11.2,6.6,11.2,6.9,10.8,7.1L10.8,7.1z"/>
	<path class="st0" d="M10.2,6.8h0.1C10.5,6.9,10.5,6.9,10.2,6.8C10.2,6.9,10.1,6.9,10.2,6.8z"/>
	<path class="st0" d="M11.9,6.2H12C12,6.2,12,6.2,11.9,6.2L11.9,6.2z"/>
	<path class="st0" d="M14.3,5.3c0.1-0.1,0.4-0.1,0.6-0.1s0.1,0-0.1,0.1C14.3,5.3,14.3,5.3,14.3,5.3z"/>
	<path class="st0" d="M12.7,5l0.1-0.1C12.9,4.8,12.9,5,12.7,5C12.7,5.3,12.7,5.3,12.7,5C12.6,5.3,12.6,5.3,12.7,5z"/>
	<path class="st0" d="M13.3,4.7l0.1-0.1C13.4,4.6,13.6,4.7,13.3,4.7C13.4,4.8,13.4,4.8,13.3,4.7C13.3,4.8,13.3,4.8,13.3,4.7z"/>
	<path class="st0" d="M15.8,4.7l0.1-0.1c0,0,0,0,0,0.1C15.9,4.8,16.1,4.8,15.8,4.7C15.8,4.8,15.8,4.8,15.8,4.7z"/>
	<path class="st0" d="M12.9,4.6C12.9,4.6,12.9,4.3,12.9,4.6C13,4.6,13,4.7,12.9,4.6C12.9,4.7,12.9,4.7,12.9,4.6z"/>
	<path class="st0" d="M30.7,8.9C30.7,8.9,30.9,8.7,30.7,8.9C30.9,8.9,30.9,8.9,30.7,8.9C30.9,9,30.7,9,30.7,8.9z"/>
	<path class="st0" d="M30,7.8C30,7.6,30,7.6,30,7.8C30.2,7.6,30.2,7.8,30,7.8C30,8,30,7.8,30,7.8z"/>
	<path class="st0" d="M26.2,5.7c-0.1-0.1-0.1-0.1,0-0.4c0,0,0.1,0,0.1,0.1s0,0.1,0.1,0s0.1-0.1,0.4,0c0.1,0.1,0.1,0.1,0,0.4
		C26.4,6.1,26.4,6.1,26.2,5.7z"/>
	<path class="st0" d="M18.8,4.3c-0.4-0.1-0.4-0.8-0.3-1c0.1,0,0.1,0,0.1,0.4s0,0.6,0.4,0.6c0.1,0,0.4,0,0.4-0.1s-0.1-0.1-0.1,0
		c-0.1,0-0.1,0-0.1-0.1c0-0.3,0-0.3,0.4-0.1c0.1,0,0.1,0.3-0.4,0.7C19.1,4.6,19.1,4.6,18.8,4.3z"/>
	<path class="st0" d="M19.5,3.5C19.5,3.3,19.5,3.3,19.5,3.5C19.7,3.5,19.7,3.5,19.5,3.5C19.5,3.6,19.5,3.5,19.5,3.5z"/>
</g>
</svg>
