<?xml version="1.0" encoding="utf-8"?>
<!-- Generator: Adobe Illustrator 24.0.1, SVG Export Plug-In . SVG Version: 6.00 Build 0)  -->
<svg version="1.1" id="Layer_1" xmlns="http://www.w3.org/2000/svg" xmlns:xlink="http://www.w3.org/1999/xlink" x="0px" y="0px"
	 width="40px" height="40px" viewBox="0 0 40 40" style="enable-background:new 0 0 40 40;" xml:space="preserve">
<style type="text/css">
	.st0{fill:#0A0A0A;}
	.st1{fill:url(#SVGID_1_);}
	.st2{fill:#9E9E9E;}
	.st3{fill:#FFFFFF;}
</style>
<path class="st0" d="M25,40H15C6.8,40,0,33.3,0,25V15C0,6.8,6.8,0,15,0h10c8.3,0,15,6.8,15,15v10C40,33.3,33.3,40,25,40z"/>
<linearGradient id="SVGID_1_" gradientUnits="userSpaceOnUse" x1="9.0907" y1="-1005.1046" x2="30.9093" y2="-1042.8954" gradientTransform="matrix(1 0 0 -1 0 -1004)">
	<stop  offset="0" style="stop-color:#FFFFFF;stop-opacity:0.45"/>
	<stop  offset="1" style="stop-color:#FFFFFF;stop-opacity:0"/>
</linearGradient>
<path class="st1" d="M25,40H15C6.8,40,0,33.3,0,25V15C0,6.8,6.8,0,15,0h10c8.3,0,15,6.8,15,15v10C40,33.3,33.3,40,25,40z"/>
<g id="layer102">
	<path class="st2" d="M18.3,34.3c-2.3-0.4-3.5-0.8-4.9-1.5c-3.9-2-6.9-6.1-7.5-10.5c-0.4-2-0.1-4.6,0.6-6.9c0.9-2.6,2.5-4.9,4.8-6.8
		C14,6.5,16.6,5.5,20,5.5c4.4,0,8.1,1.6,10.9,4.9c1.9,2.1,3,4.4,3.5,7.1c0.4,2.1,0.1,5.1-0.8,7.4c-1.3,3.6-4.3,6.8-8,8.4
		c-1.8,0.8-2.9,1-5,1C19.4,34.4,18.4,34.4,18.3,34.3z"/>
</g>
<g id="layer110">
	<path class="st3" d="M18.5,34.3c-2-0.3-4.3-1-5.9-1.9C9.5,30.5,7,27.3,6,23.5c-0.2-1.1-0.2-1.4-0.2-3.3c0-2.1,0.1-3.1,0.8-4.9
		c1.1-3.5,3.8-6.5,7.2-8.3c2.1-1,3.5-1.4,6.1-1.4c2.1,0,3.3,0.1,5,0.8c4.6,1.6,8.3,5.8,9.3,10.6c0.3,1.3,0.3,4,0,5.4
		c-1,5.3-4.8,9.5-9.9,11.1C22.6,34.3,20.3,34.5,18.5,34.3z M20.6,32.4c0.3,0.1,0.3,0.1,0.3,0s0-0.3,0.1-0.3c0.1,0,0.1,0,0,0.1
		c0,0.1,0,0.1,0,0.1c0.3,0,0.3-0.5,0.1-0.8c-0.1-0.3-0.3-0.3-0.8-0.3c-0.4,0-0.9,0-1.3-0.1c-0.6-0.1-0.6,0-0.6,0.4
		c0,0.1,0,0.1-0.1,0.1c-0.2,0-0.2,0,0-0.4c0.1-0.3,0.1-0.3-0.2-0.3c-0.3,0-0.4,0-0.4,0.1c0,0.1,0,0.3-0.1,0.3s-0.1-0.1-0.1-0.3
		c0-0.3-0.1-0.4-0.9-0.6c-0.3-0.1-0.8-0.3-1-0.4c-0.3-0.1-0.5-0.1-0.6-0.1s-0.1,0,0-0.1c0.1-0.1,0.1-0.3,0-0.4
		c-0.3-0.3-0.6-0.1-0.9,0.3c-0.3,0.4-0.4,0.8-0.1,0.4c0.1-0.3,0.1-0.3,0.1,0.1c0,0.4,0.1,0.4,0.4,0.1c0.1-0.3,0.1-0.4-0.1-0.4
		c-0.1,0-0.3,0-0.3-0.1c0-0.3,0.1-0.3,0.4-0.1c0.1,0.1,0.3,0.3,0.1,0.6c0,0.3,0,0.4,0,0.4s0.1,0,0.1-0.1s0-0.1,0.1,0s0.5,0,0.5-0.1
		c0-0.1,0-0.1-0.1,0c-0.1,0.1-0.1,0.1-0.3,0c-0.2-0.1-0.2-0.1,0-0.1c0.4-0.1,0.5,0,0.5,0.4c0,0.1,0,0.4,0.1,0.4
		c0.1,0.1,0.3,0,0.1-0.4c0-0.1,0.1-0.1,0.3,0s0.1,0.1,0,0.1c-0.1,0-0.1,0.1-0.1,0.3c0,0.1,0,0.1-0.1,0c-0.1-0.1-0.1-0.1-0.1,0
		c0,0.1,0.1,0.1,0.3,0.1s0.3,0.1,0.3,0.3c0.1,0.3,0.4,0.3,0.3,0c0-0.1,0-0.1,0.1,0c0.3,0.1,0.4,0.1,0.4,0c0-0.1-0.1-0.1-0.1-0.1
		c-0.1,0-0.1,0-0.1-0.1l0.1-0.1c0.3,0,0.5,0.3,0.4,0.4c0,0.5,0,0.5,0.3,0.4s0.3-0.3,0.3-0.4c0-0.1,0-0.3,0.1-0.3s0.1,0.1,0.1,0.3
		c-0.1,0.3,0.1,0.8,0.3,0.5c0-0.1,0.1-0.1,0.3-0.1s0.1-0.1,0.1-0.3c0-0.1,0-0.3,0-0.3s0.1,0.1,0.1,0.4c0,0.5,0.3,0.6,0.4,0.3
		l0.1-0.3l0.1,0.3c0.1,0.4,0.3,0.4,0.4,0c0.1-0.3,0.1-0.3,0.1,0c0,0.1,0,0.3,0,0.3c-0.1,0,0,0.1,0.1,0.1c0.1,0.1,0.3,0.1,0.3,0
		C20.4,32.3,20.4,32.3,20.6,32.4z M22,32.3c-0.1-0.1,0.1-0.1,0.3,0c0.1,0.1,0.1,0.1,0.1,0s0-0.3-0.1-0.3c0,0-0.1,0,0-0.1
		c0,0,0.1-0.1,0.3,0c0.4,0.1,0.9-0.1,0.8-0.4c0-0.1-0.1-0.3-0.3-0.1c-0.3,0-0.3,0-0.1-0.1c0.3-0.3,0.5-0.1,0.5,0.3
		c0,0.1,0,0.3,0,0.3c0.1,0,0.4-0.1,0.4-0.4c0.1-0.1,0.1-0.1,0.3-0.1c0.1,0.1,0.1,0.1,0.1,0c0,0,0.1,0,0.3,0.1
		c0.1,0.1,0.3,0.1,0.3,0.1s0-0.1,0.1,0c0.1,0,0.1,0,0.1,0s0.1-0.1,0.1,0c0.1,0,0.1,0,0.1-0.1s0-0.1,0.1-0.1s0.1-0.1,0-0.3
		c-0.1-0.1,0-0.3,0.4-0.1c0.1,0,0.1,0,0.1-0.1s0-0.1,0.1,0s0.6-0.3,0.6-0.5c0-0.1,0-0.1-0.1-0.3c-0.1,0,0-0.1,0,0
		c0.1,0,0.1,0.1,0.1,0.1c0,0.1,0.1,0.1,0.3,0c0-0.1,0.1-0.1,0.3,0s0.4-0.1,0.4-0.4c0-0.1,0-0.3,0.1-0.1c0,0,0.3-0.1,0.5-0.4
		c0.3-0.3,0.4-0.4,0.3-0.4c-0.1,0-0.3,0-0.3-0.1s0.1-0.1,0.3-0.1c0.3,0,0.5-0.4,0.4-0.5c0,0,0-0.1,0.3-0.3c0.3-0.1,0.3-0.1,0.1,0
		C28.9,28,28.9,28,29,28s0.1-0.1,0.1-0.4c0-0.4,0-0.4,0.4-0.3c0.1,0.1,0.3,0.1,0.1,0c0-0.1,0-0.3,0-0.4c0.1-0.1,0.1-0.3,0-0.4
		c-0.1-0.1-0.1-0.3-0.1-0.5c0-0.3,0-0.3,0.1-0.1c0.1,0.1,0.3,0.3,0.4,0.4c0.3,0.1,0.3,0.1,0.5,0c0.1-0.1,0.1-0.3,0.1-0.3
		s-0.1,0.1-0.3,0.3c-0.1,0.1-0.1,0.1-0.1,0s-0.1-0.3-0.3-0.3c-0.4-0.1-0.4-0.3-0.3-0.5c0.1-0.1,0.1-0.1,0.4,0.1
		c0.3,0.3,0.8,0.4,0.8,0.3c0,0-0.3-0.3-0.5-0.4l-0.5-0.3l0.1,0.2c-0.1,0.3-0.3,0.5-0.3,0.6c0,0-0.1,0.1-0.3,0.3
		c-0.1,0.1-0.3,0.3-0.4,0.4c0,0.1-0.1,0.3-0.3,0.3s-0.1,0-0.1,0.1c0,0.1-0.3,0.4-0.8,0.8c-0.4,0.4-0.6,0.8-0.6,0.8s0.1,0,0.3-0.1
		s0.3-0.1,0.3-0.1c0,0.1-0.4,0.4-0.6,0.3c-0.1,0-0.1,0-0.1,0L27,28.9c-0.3,0-0.9,0.6-0.8,0.8c0.1,0,0.1,0,0.1,0c0-0.1,0-0.1,0.1-0.1
		c0.1,0,0.1,0,0,0.1c0,0.1-0.1,0.1-0.1,0.3V30c0,0-0.1,0-0.3-0.1l-0.3-0.3L25.2,30c-0.4,0.1-0.9,0.5-1.1,0.5
		c-0.3,0.1-0.6,0.3-0.8,0.4c-0.1,0-0.3,0.1-0.4,0c-0.1,0-0.3,0-0.3,0S22.5,31,22.1,31c-0.3,0-0.5,0.1-0.6,0.1c0,0.1,0.1,0.1,0.3,0
		c0.4-0.1,0.4,0,0.3,0.1c-0.1,0.1-0.3,0.1-0.4,0.1c-0.1,0-0.1,0-0.1,0.1s0.1,0.3,0.1,0.4C21.8,32.3,21.9,32.4,22,32.3
		C22,32.4,22,32.4,22,32.3z M26,31.8c-0.1,0-0.4,0-0.5,0s0,0,0.3,0C26,31.9,26.1,31.8,26,31.8z M24,31.4
		C23.9,31.4,23.9,31.4,24,31.4c-0.1,0.1,0,0.3,0,0.1C24,31.5,24,31.5,24,31.4z M27.6,30.8c0,0-0.1-0.1-0.3-0.1s-0.1,0,0,0.1
		S27.6,30.9,27.6,30.8z M23.1,30.1c2-0.6,3.5-1.8,5.1-3.5c0.1-0.3,0.3-0.4,0.3-0.4s0-0.1,0.1-0.3c0.3-0.4,0.9-1.5,1.1-2.3
		c0.4-0.9,0.8-3.1,0.6-3.3c-0.1-0.1-0.1,0.3-0.1,0.8c0,0.1-0.1,0.1-0.1,0c-0.1,0-0.1,0,0,0.1c0.1,0.3,0.1,0.9-0.1,0.9
		c0,0-0.1,0.1,0,0.3c0.1,0.3-0.1,0.8-0.4,0.8c-0.1,0,0-0.1,0.1-0.3c0.1-0.1,0.1-0.3,0.1-0.5c-0.1-0.1-0.1-0.1-0.1,0
		c0,0.1,0,0.1-0.1,0.1c-0.1,0-0.1,0-0.1,0.1s0,0.1-0.1,0.1s-0.1-0.1-0.1-0.4c0-0.8-0.1-1.1-0.4-1c-0.1,0-0.3-0.1-0.5-0.5
		c-0.1-0.3-0.3-0.6-0.1-0.6c0,0,0.5,0,0.9,0c0.6,0,0.9,0.1,0.9,0.3s0,0.1,0.1,0.1c0.1,0,0.1-0.1,0.1-0.3c0-0.3-0.1-0.3-0.3-0.3
		c-0.1,0-0.6,0-1.1,0c-0.5,0-1,0-1,0s0.1,0.4,0.3,0.9c0.3,0.8,0.3,0.8,0.5,0.8c0.3,0,0.3,0,0.3,0.4v0.2h-1.4c-1.3,0-1.4,0-1.4-0.3
		c0-0.1-0.1-0.3-0.1-0.4c-0.1-0.1-0.1-0.1,0.4-0.1c0.5,0.1,0.5,0,0.4-0.5c-0.1-0.4-0.4-0.5-1.4-0.5c-0.5,0-0.6,0-0.8,0.3
		c-0.1,0.4,0,0.6,0.3,0.6c0.3,0,0.3,0,0.3,0.4c0,0.4,0,0.4-0.6,0.4c-0.4,0-0.5,0-0.3-0.1c0.5-0.1,0.6-0.3,0.3-0.3
		c-0.3,0-0.4,0-0.3-0.3c0-0.4,0-0.4-0.3-0.1c-0.1,0.1-0.1,0.1,0,0.1c0.1-0.1,0.1,0.1,0,0.3c-0.3,0.3-0.3,0.1-0.3-0.3
		c0-0.3,0-0.3,0-0.1s-0.1,0.3-0.1,0.4c-0.1,0.1-0.1,0.3,0.1,0.4c0.1,0,0,0-0.3,0.1c-0.5,0-0.5,0-0.5-0.4c0-0.3,0-0.4,0.1-0.4
		c0.1,0,0.3,0,0.4,0.1c0.1,0.1,0.1,0.1,0.1-0.1c0-0.1,0-0.3,0.1-0.4c0,0,0.1-0.1,0.1-0.3c0-0.3,0.4-2.1,0.5-2.5c0-0.1,0-0.4,0-0.6
		c-0.1-0.2-0.1-0.4-0.1-0.6c0-0.1-0.1-0.1-0.1-0.1c-0.1,0-0.1,0.6,0,1c0.1,0.3,0.1,0.4-0.1,1c-0.1,0.4-0.3,0.8-0.4,0.8
		s-0.1,0.1-0.1,0.3c0,0.3-0.3,0.3-0.3,0c0-0.1-0.5-0.1-1.5-0.1c-1.4,0-1.5,0-1.6,0.3c-0.1,0.1-0.1,0.3,0,0.1c0.1,0,0.1,0.1,0.1,0.4
		c0,0.4,0,0.4-0.3,0.4c-0.1,0-0.4-0.1-0.5-0.1c-0.1-0.1-0.1-0.1,0,0.1c0.1,0.3,0.6,0.5,0.9,0.5s0.9-0.3,1-0.5
		c0.1-0.1,0.1-0.1,0.5,0.1c0.5,0.5,0.5,0.8,0.3,0.6c-0.1,0-0.4,0.1-0.5,0.3c-0.5,0.4-1.1,0.5-1.9,0.5c-0.9-0.1-1.5-0.5-1.9-1.3
		c-0.4-0.5-0.5-0.7-0.4-1.5s0.3-1.1,0.5-0.9c0,0.1,0.1,0.1,0.3,0c0.1,0,0.1,0,0.1,0.1c0,0.1,0,0.1,0.1,0.1c0.1-0.3,0.3-0.1,0.3,0
		c0,0.1,0.1,0,0.1-0.3c0.1-0.3,0.1-0.4,0.1-0.4s-0.1,0-0.2-0.1c-0.1-0.1-0.1-0.1,0,0c0.1,0.3,0.1,0.3-0.1,0.1
		c-0.1,0-0.1-0.1-0.1-0.4c0-0.2-0.1-0.5-0.3-0.2c0,0.1,0,0.1,0.1,0c0.1-0.1,0.1,0,0,0c0,0.1-0.1,0.1-0.2,0c-0.1-0.1,0.1-0.8,0.6-1
		c0.5-0.2,1.4-0.2,1.8,0c0.3,0.3,0.3,0.3,0.4,0c0.1-0.1,0.3-0.2,0.6-0.2c0.3,0,0.1,0-0.3,0c-0.4,0-0.8,0-0.8-0.1c0-0.1,0-0.1,0.1,0
		c0.1,0,0.1,0,0.1,0c0-0.1-0.3-0.1-0.4-0.1c-0.3,0-0.3,0-0.3-0.3V16h-1.3c-1.1-0.1-1.6-0.1-1.3-0.3c0.1,0,0.6-0.1,1.1-0.1
		s1-0.1,1.1-0.1c0.1-0.1,0.1-0.8,0.1-1.6v-1.5l-0.4,0.1c-0.1,0-0.5-0.1-0.9-0.1c-0.9,0-0.6-0.4,0.3-0.4c0.4,0,0.5,0,0.4-0.2
		c0-0.1-0.1-0.3-0.3-0.3S19,11.4,19,11.4s0.1-0.1,0.3,0c0.1,0,0.1,0,0.1-0.1c0-0.1-0.1-0.1-0.1-0.1c-0.3,0-0.3-0.1,0-0.4l0.3-0.3V11
		c0,0.3,0,0.6,0.1,0.8c0,0.1,0.1,0.1,0.1,0c0,0,0-0.5,0-0.9c0-0.8,0-0.8-0.3-0.9c-0.1,0-0.3,0-0.1,0c0,0,0,0.3-0.3,0.4
		c-0.4,0.4-0.9,1.4-0.8,1.5V12c0,0-0.1,0.1-0.1,0.3c0,0.3-0.1,0.3-1,0.3c-0.6,0-0.9,0-0.9-0.1c0-0.1,0.4-0.1,0.9-0.1H18l0.3-0.5
		c0.1-0.3,0.4-0.6,0.5-0.9c0.3-0.3,0.3-0.4,0.3-0.5c-0.2-0.3-0.2-0.4-0.2-0.3c0,0.1-0.1,0.1-0.5,0.1c-1-0.1-3.6,1-4.5,1.9
		c-0.4,0.3-0.6,0.3-0.4,0c0.1-0.1,0.1-0.1,0-0.1c0,0-0.1,0.1-0.3,0.3c-0.1,0.1-0.1,0.3,0,0.3s-0.3,0.4-0.6,0.8
		c-1,1.1-2.1,2.8-2.1,3.2c0,0.1,0,0.3-0.1,0.3c-0.1,0-0.1,0,0.1-0.8c0.4-0.9,1.3-2.3,1.9-2.9c0.4-0.4,0.5-0.6,0.4-0.8
		c-0.1-0.1-0.1-0.1-0.1,0s-0.1,0.4-0.4,0.5c-0.5,0.5-1.1,1.4-1.5,2s-1,2.4-1.1,3c0,0.3-0.1,0.6-0.1,0.9c-0.1,0.9,0,2.9,0.3,4
		c0.8,2.8,2.6,5.3,5.1,6.6c0.8,0.4,2.1,0.9,2.5,0.9c0.1,0,0.2,0,0.4,0.1c0.1,0.1,1,0.3,2.8,0.1C21.8,30.5,22.1,30.4,23.1,30.1z
		 M13.4,30C13.5,29.9,13.5,29.9,13.4,30c-0.1,0-0.3,0.1-0.3,0.1C13.1,30.3,13.3,30.3,13.4,30z M13.1,29.8
		C13.1,29.8,13.1,29.6,13.1,29.8c0.1,0,0.3-0.1,0.3-0.1c0.1-0.1,0.1-0.1,0.3,0c0.2,0.1-0.3-0.3-0.8-0.6c-0.3-0.1-0.5-0.5-0.6-0.6
		c-0.4-0.4-0.6-0.5-0.9-0.1c-0.2,0.3-0.1,0.4,0.1,0.5c0.1,0,0.1,0,0.1-0.3c-0.1-0.3,0-0.3,0.1-0.3c0.1,0,0.2,0.1,0.4,0.1
		c0,0.1,0,0.1-0.1,0.1c-0.1-0.1-0.2,0.6,0,0.9c0,0,0.1,0,0-0.1c-0.1-0.1-0.1-0.1,0.1,0c0.1,0.1,0.3,0.1,0.3,0c0-0.1,0-0.1,0.1-0.1
		c0.1,0,0.1,0.1,0.1,0.3c0,0.1,0,0.3,0.1,0.1c0.3-0.1,0.3,0,0,0.3c-0.1,0.1-0.1,0.3,0,0.3c0,0,0.1-0.1,0.3-0.4
		c0.1-0.3,0.1-0.4,0.3-0.3c0.1,0,0.1,0.1,0.1,0.1c0,0.1,0,0.1-0.1,0.1c-0.1,0-0.1,0.1-0.1,0.3s0,0.3,0.1,0.3
		C13.4,30.1,13.1,29.9,13.1,29.8z M29.9,28.8C30,28.6,30,28.6,29.9,28.8C29.9,28.6,29.9,28.6,29.9,28.8c-0.1,0.1-0.1,0.1-0.1,0.1
		C29.9,28.9,29.9,28.8,29.9,28.8z M30.1,28.1c0-0.1,0,0,0,0.1s0,0.3,0,0.1C30.1,28.4,30.1,28.3,30.1,28.1z M11.3,27.9
		c0-0.1,0-0.3,0-0.3c-0.1-0.1-0.1-0.1-0.1-0.1c0.1,0,0.3,0,0.3,0.1c0.1,0.1,0.1,0.1,0.1,0.1c0-0.1-0.3-0.4-0.5-0.4
		c-0.1,0-0.3,0.1-0.4,0.3c-0.1,0.1-0.1,0.3-0.1,0.3s0.1,0,0.2-0.1c0.1-0.1,0.3,0,0.3,0.1C11,28,11.1,28.1,11.3,27.9z M30.6,27.6
		L30.6,27.6c-0.1,0.1,0,0.3,0,0.1V27.6z M10.3,27.4C10.3,27.4,10.1,27.4,10.3,27.4c-0.1,0.1,0,0.3,0,0.1V27.4z M10.6,27.3
		C10.6,27.1,10.6,27.1,10.6,27.3c-0.1,0-0.1,0-0.1-0.1c0-0.1,0-0.1-0.1-0.1s0,0.3,0.1,0.3C10.5,27.4,10.5,27.3,10.6,27.3z
		 M10.9,26.9c0,0-0.3-0.1-0.4-0.1c-0.3,0-0.3,0-0.1,0.1c0.1,0.1,0.3,0.1,0.4,0.1C10.9,27,10.9,26.9,10.9,26.9z M10,26.6
		C10,26.5,9.9,26.6,10,26.6c-0.1,0.1,0,0.3,0,0.1S10,26.6,10,26.6z M31.6,26.3h-0.1C31.4,26.3,31.4,26.3,31.6,26.3L31.6,26.3z
		 M31.6,25.8C31.6,25.6,31.6,25.6,31.6,25.8c-0.1,0.3,0,0.3,0,0.3C31.8,25.9,31.8,25.8,31.6,25.8z M23.3,22.3h-0.1
		C23.1,22.3,23.1,22.3,23.3,22.3L23.3,22.3z M29.4,21.9C29.4,21.8,29.3,21.9,29.4,21.9c-0.1,0.1,0,0.3,0,0.1V21.9z M29.9,21.6
		C29.8,21.6,29.8,21.6,29.9,21.6c-0.1,0.1,0,0.3,0,0.1V21.6z M30,21C30.1,21,30,20.9,30,21c-0.1-0.1-0.1,0-0.1,0c0,0.1,0,0.1,0,0.1
		C30,21.1,30,21.1,30,21z M32.1,20.9c0.4-0.1,0.6-0.6,0.6-1c0-0.3,0-0.1-0.1,0.1c0,0.4-0.4,0.9-0.8,0.8c-0.1,0-0.3-0.1-0.4-0.1
		s-0.6-0.6-0.6-1c0-0.1,0.1-0.3,0.4-0.5l0.4-0.3l-0.4,0.3c-0.6,0.4-0.8,1.3-0.3,1.6C31.5,21,31.6,21,32.1,20.9z M8.6,20.8
		C8.9,20.6,9.1,20.1,9,20c0,0,0,0,0,0.1c0,0.3-0.4,0.6-0.6,0.5c-0.1,0-0.1,0,0,0c0.1,0.1-0.6-0.1-0.7-0.4c-0.1-0.1-0.2-0.8,0-0.9
		c0,0,0.1-0.1,0.1-0.3c0-0.1-0.1,0-0.3,0.1c-0.1,0.1-0.2,0.3-0.1,0.3c0,0,0,0.1,0,0.3s0,0.3,0.1,0.3c0.1,0.1,0.3,0.4,0,0.4H7.4
		c0,0.1,0.8,0.4,1,0.4C8.3,20.9,8.4,20.9,8.6,20.8z M19.4,20.1c-0.1,0-0.3-0.1-0.3-0.3s0.1-0.1,0.4-0.1c0.4,0,0.4,0,0.4-0.4
		c0-0.3,0-0.5,0.1-0.5c0.1-0.1,0.5,0.3,0.6,0.4c0,0.1,0.3,0.3,0.6,0.3c0.8,0.1,1,0,1-0.5v-0.4V19c0,0.4-0.1,0.4-0.3,0.3
		c-0.4-0.1-0.6-0.1-0.8-0.1C21.1,19.1,21,19,21,19c0-0.4-0.5-0.8-1-0.8s-0.9,0.3-0.8,0.5c0,0.1,0,0.1,0,0.1s-0.1,0.3-0.1,0.6
		c0,0.9,0,0.9,0.4,0.7C19.6,20.3,19.6,20.3,19.4,20.1z M26.3,20.1c0-0.3-0.4-1.3-0.5-1.4c-0.3-0.1-0.3-0.1-0.4,0.4
		c-0.1,0.6-0.1,0.9,0,0.5c0.1-0.1,0.1-0.1,0.3-0.1c0.3,0.3,0.3,0.5-0.1,0.4c-0.3,0-0.4,0-0.4,0.1s0.1,0.1,0.6,0.1
		C26,20.3,26.3,20.3,26.3,20.1z M30.4,20.3h-0.1C30.3,20.3,30.3,20.3,30.4,20.3C30.4,20.3,30.5,20.3,30.4,20.3z M30.4,19.9
		c0-0.1-0.1-0.1-0.1-0.1v0.1c0,0.1,0,0.1,0.1,0.1C30.4,20.1,30.4,20,30.4,19.9z M27.5,19c-0.1-0.4-0.3-0.8-0.3-0.8
		S27.4,18.6,27.5,19c0,0.5,0.1,0.9,0.3,0.9C27.8,19.8,27.8,19.4,27.5,19z M9,19.5C8.9,19.5,8.9,19.5,9,19.5c-0.1,0.1,0,0.3,0,0.1
		C9,19.6,9,19.6,9,19.5z M30.5,19.5c0,0,0-0.1-0.1-0.1h-0.1C30.3,19.5,30.3,19.5,30.5,19.5C30.4,19.5,30.5,19.5,30.5,19.5z
		 M32.4,19.1c0,0-0.1-0.1-0.3-0.1c-0.1,0-0.1,0,0,0.1C32.4,19.3,32.5,19.3,32.4,19.1z M8.1,19c-0.1,0-0.3,0-0.4,0
		C7.6,19.1,7.8,19.1,8.1,19C8.4,19,8.4,19,8.1,19z M30.3,18.8c0-0.1,0,0,0,0.1c0,0.3,0,0.3,0,0.3C30.4,19,30.4,18.9,30.3,18.8z
		 M7,19c0,0,0-0.1-0.1-0.1s-0.1,0,0,0C7,19,7,19.1,7,19z M30,18.5C29.9,18.5,29.9,18.5,30,18.5c-0.1,0.3,0,0.3,0,0.3
		S30,18.6,30,18.5z M29.9,18C29.8,17.9,29.8,17.9,29.9,18c-0.1,0.3,0,0.3,0,0.3C29.9,18.1,29.9,18,29.9,18z M27.3,17.9
		C27.1,17.9,27.1,17.9,27.3,17.9c-0.1,0.1,0,0.3,0,0.1C27.3,18,27.3,18,27.3,17.9z M27.1,17.6C27,17.5,27,17.6,27.1,17.6
		c-0.1,0.1,0,0.3,0,0.1C27.1,17.8,27.1,17.6,27.1,17.6z M29.8,17.6C29.6,17.5,29.6,17.6,29.8,17.6c-0.1,0.1,0,0.3,0,0.1
		C29.8,17.8,29.8,17.6,29.8,17.6z M27,17.3c0-0.1-0.6-0.1-1.4-0.1h-1.3l1.4,0.1C26.4,17.4,27,17.4,27,17.3C27,17.4,27,17.4,27,17.3z
		 M20.4,16.8c0-0.1,0.1-0.1,0.4-0.1c0.6-0.1,0.8-0.1,0.3-0.3c-0.5-0.1-0.8,0-0.9,0.3C20.1,16.8,20.1,16.9,20.4,16.8
		C20.4,16.9,20.4,16.8,20.4,16.8z M29.4,16.4h-0.1C29.1,16.5,29.3,16.5,29.4,16.4C29.4,16.5,29.4,16.5,29.4,16.4z M20.3,15.1
		c0-0.1,0,0,0,0.1c0,0.3,0,0.3,0,0.3C20.3,15.4,20.3,15.3,20.3,15.1z M20.3,13.6c0-0.3,0,0,0,0.4c0,0.5,0,0.6,0,0.5
		C20.3,14.3,20.3,13.9,20.3,13.6z M10.3,13.9c0-0.1,0.1-0.2,0.1-0.2c0.1,0,0.3-0.1,0.4-0.3c0.4-0.5,1.6-1.7,2.5-2.4
		c0.6-0.5,0.8-0.6,0.4-0.8c0.1-0.1,0-0.1,0.1-0.3S14,9.9,14,10s0,0.1,0.1,0.3c0.3,0.1,0.6-0.1,0.6-0.4c0-0.1,0-0.1,0-0.1
		c0.1,0,1.5-0.4,1.9-0.6C16.8,9,17,9,17.9,8.9c0.4,0,0.6-0.1,0.6-0.1s-0.1-0.1-0.1,0c-0.1,0-0.1,0-0.1,0c0-0.1,0.1-0.1,0.1-0.1
		c0.1,0,0.1-0.1,0.1-0.4c0-0.4-0.3-0.6-0.3-0.3c0,0.1-0.1,0-0.1-0.1c-0.1-0.2-0.1-0.1-0.3,0c0,0.1,0,0.3,0.1,0.3c0.1,0,0.1,0,0,0.1
		c-0.3,0-0.3,0.5-0.1,0.5s0,0,0,0c-0.1,0-0.1-0.1-0.3-0.4c0-0.3-0.1-0.3-0.3-0.1s-0.3,0.1-0.4,0s-0.1-0.1-0.1,0s-0.1,0.1-0.1,0.1
		c-0.1,0-0.3,0-0.3,0.1c-0.3,0.4-0.3,0.4-0.4,0.3C16,8.6,16,8.6,16,8.6c0,0.1-0.4,0.1-0.5-0.1c0-0.1-0.1-0.1-0.1,0s0,0.1-0.1,0.1
		c-0.1-0.1-0.5,0-0.4,0.1v0.1h-0.1c0,0,0-0.1-0.1,0c-0.1,0-0.1,0.1,0,0.3c0.1,0.2,0,0.4-0.2,0.4c-0.1,0-0.3,0-0.3,0.1
		S14,9.8,13.9,9.8c-0.1,0-0.3,0-0.5,0.1c-0.1,0.1-0.5,0.2-0.8,0.2c-0.4,0-0.4,0-0.3,0.4c0.1,0.5,0.1,0.6,0,0.4
		c-0.1-0.3-0.1-0.3-0.5,0c-0.3,0.3-0.3,0.4-0.1,0.5c0.1,0.1,0.1,0.1-0.1,0.1c-0.3,0-0.4,0-0.4,0.1c0,0.1-0.1,0.2,0,0.4
		c0,0,0,0.1-0.1,0.1c-0.1,0-0.1,0-0.1,0s0-0.1-0.1,0c-0.1,0-0.1,0.1-0.1,0.4c0,0.1,0,0.4-0.1,0.4c-0.3,0.1,0,0.4,0.1,0.2
		c0.1,0,0.1,0,0.1,0.1s0,0.1,0,0.1s-0.1,0-0.2,0.1c-0.3,0.1-0.5-0.4-0.3-0.6c0.1-0.1,0.1-0.1,0,0c-0.3,0.3-0.4,0.6-0.1,0.6
		c0.3,0.1,0.3,0.6,0,0.9c-0.1,0.3-0.1,0.3-0.5,0c-0.1-0.1-0.4-0.3-0.4-0.1c-0.1,0.1-0.1-0.2,0.1-0.5c0.1-0.3,0.1-0.3,0.1,0
		c0,0.1,0,0.1,0.1,0.1c0.3,0,0.4,0,0.3,0.1c0,0.1,0,0.1,0.1,0.1c0.2,0,0.2-0.1-0.3-0.5l-0.4-0.3L9,13.8l-0.3,0.4l0.4,0.1
		c0.3,0.1,0.5,0.2,0.5,0.4c0.1,0.1,0.3,0.1,0.4-0.1C10.3,14.3,10.3,14,10.3,13.9z M8,14.5C8,14.4,8,14.5,8,14.5
		c-0.1,0.1,0,0.3,0,0.1C8.1,14.6,8.1,14.5,8,14.5z M8.3,13.9C8.3,13.8,8.3,13.8,8.3,13.9c-0.1,0.3,0,0.3,0,0.3
		C8.3,14,8.4,13.9,8.3,13.9z M30.3,13.9c0,0,0-0.1-0.1-0.1s-0.1,0,0,0C30.1,14,30.3,14,30.3,13.9z M29.6,13.6
		c-0.1-0.3-0.5-0.3-0.4,0c0,0.1,0.1,0.1,0.1,0C29.4,13.5,29.5,13.6,29.6,13.6c0,0.1,0,0.1,0.1,0.1C29.8,13.9,29.8,13.8,29.6,13.6z
		 M29.8,13.4C29.9,13.3,29.9,13.1,29.8,13.4c-0.1-0.1-0.1,0-0.1,0.1C29.6,13.6,29.8,13.5,29.8,13.4z M29.5,13.3
		C29.5,13.3,29.5,13.1,29.5,13.3C29.5,13.1,29.4,13.3,29.5,13.3c-0.1,0.1-0.1,0.1-0.1,0.1C29.4,13.4,29.5,13.4,29.5,13.3z M29,13.3
		c0,0,0-0.1,0.1-0.2c0.3-0.1,0.3-0.5,0.1-0.5c0,0-0.1,0-0.1,0.1c0,0.1,0,0.1-0.1,0.1c0,0-0.1,0-0.1-0.1c0-0.1,0-0.1-0.1-0.1
		c-0.3,0.1-0.3,0.1,0,0.4c0.1,0.1,0,0.1-0.3,0c-0.1-0.1,0,0,0.1,0.1C28.9,13.1,29,13.3,29,13.3C29.1,13.3,29.1,13.3,29,13.3z
		 M20.5,12.9c0.3-0.3,1.3-0.3,1.4,0C22,13,22,13,22,12.8c0-0.3-0.1-0.3-0.9-0.3c-0.9,0-0.9,0-0.9,0.3C20.3,13.1,20.3,13.1,20.5,12.9
		z M29.9,13v-0.1c0,0-0.1,0-0.1,0.1C29.8,13.1,29.9,13.1,29.9,13z M22.8,12.6c0.1-0.1,0.1-0.1,0-0.1c-0.1,0-0.3,0-0.3,0.1
		c0,0.1,0,0.1,0,0.1S22.6,12.8,22.8,12.6z M23.3,12.5c0,0-0.1,0-0.3,0s0,0.1,0.1,0.1S23.4,12.5,23.3,12.5z M28.6,12.3
		c0.1-0.1,0.1-0.3,0.1-0.3c0-0.1,0-0.1-0.1-0.1s-0.3,0-0.1,0.3c0,0.1,0,0.3-0.1,0.3c-0.1,0-0.3,0-0.3-0.1c0,0,0-0.1,0.1-0.1
		s0.1-0.8-0.1-1C28,11,28,11,28,11.1c0,0.1,0,0.1,0,0.1c-0.1,0-0.1,0.1,0,0.2c0.1,0.3-0.1,0.4-0.4,0.1c-0.3-0.1-0.3-0.1,0-0.1
		c0.1,0.1,0.3,0,0.1-0.2c-0.2-0.1-0.2-0.4-0.2-0.5v-0.4l-0.1,0.3c-0.1,0.1-0.1,0.4-0.1,0.5c0,0.2,0,0.2-0.1,0
		C27,11,27,10.5,27.3,10.5c0,0,0.1,0,0.1-0.1l-0.1-0.1c-0.1,0-0.1,0-0.1-0.1c0.1-0.1-0.1-0.1-0.3,0c-0.1,0.1-0.1,0.1,0,0.1
		c0.3-0.1,0.3,0,0,0.3c-0.1,0.1-0.1,0.1-0.3,0c-0.2,0.1-0.4,0.1-0.4,0.1s0.4,0.4,0.8,0.8c0.5,0.4,0.9,0.8,0.9,0.8
		c0,0.1,0.4,0.3,0.6,0.4C28.5,12.5,28.6,12.4,28.6,12.3z M21.8,11.9c0-0.1-0.6-1.3-0.9-1.5c-0.5-0.5-0.6-0.3-0.6,0.6
		c0,0.5,0,0.8,0.1,0.8c0,0,0.1-0.3,0.1-0.6c0-0.4,0-0.5,0-0.6c0.1-0.1,0.8,0.6,0.9,1C21.5,11.9,21.8,12,21.8,11.9z M14.1,11.5
		c0,0-0.1,0-0.3,0.1c-0.1,0.1-0.1,0.1,0.1,0C14.1,11.5,14.1,11.5,14.1,11.5z M13.9,11.4h-0.1C13.6,11.4,13.6,11.4,13.9,11.4
		L13.9,11.4z M23.3,11.3c-0.1,0-0.3-0.1-0.4-0.3c-0.4-0.3-1-0.6-1.3-0.6c-0.3,0-0.1,0.3,0.1,0.3c0.1,0,0.6,0.3,0.9,0.4
		C23,11.3,23.3,11.4,23.3,11.3C23.4,11.3,23.3,11.3,23.3,11.3z M23.9,10.9c0,0-0.1-0.1-0.3-0.1c-0.3,0-0.3,0,0,0.1
		C23.8,10.9,23.9,11,23.9,10.9C23.9,11,23.9,10.9,23.9,10.9z M24.3,10.9h-0.1C24,10.9,24,11,24.3,10.9C24.3,11,24.3,10.9,24.3,10.9z
		 M26,10.3c0.1-0.3,0.3-0.5,0.3-0.5s-0.1,0-0.1,0.1c-0.1,0.3-0.6,0.8-0.8,0.6c-0.3-0.1-0.3-0.3,0.1-0.1c0.3,0,0.3,0,0.3-0.1
		c0-0.1-0.1-0.1-0.3-0.1s-0.1-0.1-0.1-0.3s0.1-0.3,0.1-0.4s-0.1-0.1-0.4-0.3c-0.3,0-0.5-0.1-0.5-0.3c-0.1-0.1-0.1-0.1-0.1-0.1
		s0,0.1,0,0.2c0,0.3-0.3,0.4-0.4,0.3c-0.4-0.1-0.4-0.1-0.1-0.1c0.3,0,0.3,0,0.1-0.3L24,8.8L23.8,9c-0.1,0.1-0.3,0.3-0.3,0.3
		c-0.1,0-0.1,0,0-0.1c0.3-0.3,0.1-0.5,0-0.5c-0.1,0-0.1,0-0.1,0.1c0,0.1,0,0.1,0,0.1s-0.1,0-0.1-0.1c0-0.1-0.4,0-0.4,0.3
		c0,0.1,0.1,0.1,0.3,0.3c0.3,0,0.3,0,0,0s-0.3-0.1-0.4-0.4c0-0.4-0.1-0.4-0.3-0.3c-0.4-0.1-0.5,0.1-0.3,0.1c0.1,0,0.1,0.1-0.1,0.1
		c-0.1,0-0.1,0-0.1-0.3s0-0.3-0.1-0.4c-0.3-0.1-0.6,0.1-0.5,0.4c0,0.1,0,0.1-0.1,0.1s-0.1,0,0-0.3c0.1-0.1,0-0.3,0-0.4
		C21.1,8,21.1,8,21,8.1c-0.1,0.1-0.1,0.1-0.3,0c-0.3-0.3-0.4-0.1-0.4,0.3c0,0.3,0,0.3,0.3,0.1c0.1-0.1,0.3-0.1,0.1,0
		c0,0.1,0,0.1,0.1,0.1c0.1,0,0,0-0.3,0s-0.4-0.1-0.5-0.5C20,7.9,20,7.8,19.5,7.8c-0.6,0-0.9,0.2-0.6,0.8c0.1,0.2,0.3,0.2,1.3,0.4
		c0.6,0,1.1,0,1.3,0.1c0.1,0,0.1,0,0.1-0.3s0-0.3,0.1-0.3c0.1,0,0.1,0.1,0.1,0.3c0,0.3,0,0.3,0.1,0.3c0.4,0,0.4,0,0.4-0.3
		c0-0.1,0-0.3,0.1-0.3s0.1,0.1,0.1,0.3s0.1,0.3,0.1,0.4c0.1,0,0.6,0.3,1.3,0.4C24.8,9.9,25,10,25,10.1c-0.1,0.3,0.3,0.5,0.5,0.5
		C25.6,10.6,25.9,10.4,26,10.3z M11.6,10.1h-0.1C11.4,10.1,11.5,10.1,11.6,10.1L11.6,10.1z M27.4,10.1c0,0,0-0.1-0.1-0.1
		c-0.1,0-0.1,0,0,0C27.3,10.1,27.4,10.3,27.4,10.1z M25.8,9.5c0,0-0.1,0-0.1,0.1c-0.1,0.3-0.1,0.4,0,0.3c0.1,0,0.1,0,0.1,0.1
		c0,0.1,0,0,0.1-0.1C25.9,9.8,25.9,9.5,25.8,9.5z"/>
	<path class="st3" d="M20.4,32.1c-0.1,0-0.1-0.1-0.1-0.1s0.1-0.1,0.1,0c0,0,0.1,0,0.1-0.1s0-0.1-0.1-0.1c-0.1,0-0.1,0,0,0
		c0.1-0.3,0.5-0.1,0.6,0.1c0.1,0.1,0.1,0.3,0,0.1c-0.3-0.3-0.4-0.1-0.3,0.1c0,0.1,0,0.3,0,0.3C20.6,32.1,20.5,32.1,20.4,32.1z"/>
	<path class="st3" d="M19.4,31.6c-0.1-0.1-0.1-0.1,0.1-0.1c0.4,0,0.5,0.1,0.3,0.1C19.6,31.8,19.5,31.6,19.4,31.6z"/>
	<path class="st3" d="M16.4,31.1c0,0,0-0.1,0.1-0.1c0,0,0.1,0,0,0.1C16.5,31.3,16.5,31.3,16.4,31.1C16.4,31.3,16.4,31.3,16.4,31.1z"
		/>
	<path class="st3" d="M14.6,30c-0.3-0.1-0.3-0.1,0-0.1s0.5,0.1,0.3,0.3C14.9,30.3,14.8,30.1,14.6,30z"/>
	<path class="st3" d="M23.5,31.3C23.5,31.1,23.6,31.1,23.5,31.3C23.6,31.3,23.6,31.3,23.5,31.3C23.6,31.4,23.5,31.4,23.5,31.3z"/>
	<path class="st3" d="M24.8,31.3C24.8,31.1,24.8,31.1,24.8,31.3L24.8,31.3C24.8,31.4,24.8,31.4,24.8,31.3z"/>
	<path class="st3" d="M25.1,31C25.1,31,25.1,30.9,25.1,31C25.3,31,25.3,31.1,25.1,31C25.1,31.1,25.1,31.1,25.1,31z"/>
	<path class="st3" d="M23.8,31l0.1-0.1c0.1,0,0.1,0,0.1,0C24,31,23.8,31.1,23.8,31z"/>
	<path class="st3" d="M24.9,30.6l0.1-0.1C25,30.5,25,30.5,24.9,30.6C25,30.6,24.9,30.6,24.9,30.6L24.9,30.6z"/>
	<path class="st3" d="M25.8,30.1l0.1-0.1C26,30,25.9,30,25.8,30.1C25.9,30.1,25.8,30.3,25.8,30.1C25.8,30.3,25.8,30.1,25.8,30.1z"/>
	<path class="st3" d="M27.1,29.8l0.1-0.1c0.1-0.1,0.1-0.1,0.3,0c0,0.1,0,0.1-0.1,0.1S27.1,29.9,27.1,29.8z"/>
	<path class="st3" d="M26.8,29.5c0-0.1,0.1-0.3,0.1-0.3c0.1,0,0.1,0,0.1,0.3C27,29.9,26.8,29.9,26.8,29.5z"/>
	<path class="st3" d="M27.6,29.3C27.5,29.3,27.5,29.1,27.6,29.3c0.1-0.1,0.3-0.3,0.4-0.3l0.3-0.3L28,29c-0.1,0.1-0.3,0.3-0.3,0.3
		S27.8,29.4,27.6,29.3z"/>
	<path class="st3" d="M27.3,29.1h0.1C27.5,29.1,27.4,29.1,27.3,29.1L27.3,29.1z"/>
	<path class="st3" d="M28.6,28.4c0-0.1,0-0.1-0.3-0.1c-0.3,0-0.3,0-0.1-0.1s0.3-0.1,0.4,0c0.1,0.1,0.3,0.5,0,0.5
		C28.6,28.5,28.6,28.4,28.6,28.4z"/>
	<path class="st3" d="M28.8,27.6c-0.3-0.1,0.3-0.4,0.5-0.3c0.1,0.1,0.1,0.1-0.1,0.3C29,27.8,28.8,27.8,28.8,27.6z M29,27.6
		C29,27.5,29,27.5,29,27.6C29,27.5,28.9,27.5,29,27.6c-0.1,0.1-0.1,0.1-0.1,0.1C28.9,27.6,29,27.6,29,27.6z"/>
	<path class="st3" d="M29.8,27c-0.1-0.1-0.1-0.1-0.4,0c-0.3,0.1-0.3,0.1-0.1-0.1s0.3-0.4,0.6-0.1c0.1,0.1,0.1,0.1,0,0.3
		C29.9,27.3,29.8,27.3,29.8,27z"/>
	<path class="st3" d="M18.5,30.3c-0.9-0.1-2.3-0.5-2.8-0.8c-0.1-0.1-0.4-0.1-0.4-0.1s-0.5-0.3-0.9-0.5c-2.3-1.5-3.9-3.6-4.5-6.3
		c-0.3-1.1-0.3-3.8,0-5c0.1-0.5,0.3-0.9,0.3-0.9s0,0.3,0,0.5c-0.1,0.3-0.1,0.5-0.3,1.4c0,0.3-0.1,0.5-0.1,0.5c0,0.1,0,0.1,0,0.1
		s0.1,0.1,0,0.3c0,0.1,0,0.1,0,0.1c0.1,0,0.3-0.5,0.4-1c0.3-1,0.5-1.8,0.6-1.6c0,0.1,0,0.3-0.1,0.4c-0.1,0.1-0.1,0.1,0.1,0
		c0.3-0.3,0.3-0.3,0.3,0.4c0,0.5,0,0.6,0.2,0.9c0.1,0.1,0.3,0.4,0.4,0.9c0,0.4,0.1,0.6,0,0.7c0,0-0.5,0-1,0.1c-0.5,0-0.9,0.1-1,0.1
		c0,0,0,0.1,0.1,0.3s0.1,0.1,0.1,0s0.2-0.1,0.9-0.1h0.9v0.5c0,0.3,0,0.5-0.1,0.6c-0.1,0.1-0.1,0.3,0,0.3c0.4,0,0.4-0.3,0.4-2
		c0-1.4-0.1-1.8-0.3-1.8s-0.4-0.6-0.3-0.6c0.1-0.1,2-0.1,2.8,0c1.8,0.3,2.8,1.9,2.3,3.5c-0.3,0.8-0.5,1.1-1.1,1.4c-0.1,0-0.5,0-2,0
		c-1.8,0-1.8,0-1.6-0.3c0-0.1,0-0.3,0-0.3s-0.1-0.1-0.1-0.3c0-0.1,0,0-0.1,0.4c0,0.8,0,0.8,1.8,0.6c1.8,0,2.3-0.3,3-1
		c0.4-0.4,0.6-0.6,0.6-0.8c0-0.3,0.3-0.1,0.5,0.4c0.1,0.3,0.5,0.6,0.8,0.9c0.5,0.4,1.7,1,1.9,0.9c0,0,0.1,0,0.3,0.1
		c0.1,0.1,0.4,0.1,1.4,0.1c0.8,0,1.3,0,1.3,0.1c0,0.1,0.1,0.1-1.4,0.1c-0.6,0-1.3,0.1-1.3,0.1c-0.1,0-0.1,2.8,0,3.1
		c0.1,0.3,0.1,0.3,0.9,0.3c0.6,0,0.9,0,1-0.1c0.1-0.3,0.1-0.1,0.1,0c-0.1,0.5-0.1,0.5-1,0.5c-1,0-1.1,0.1-1,1c0.1,0.9,0.1,1.1,0.4,1
		c0.1,0,0.1-0.1,0-0.3c-0.1-0.1-0.1-0.3,0-0.4c0.1-0.1,0.1-0.3,0-0.3c-0.1-0.1,0-0.1,0.1,0c0.1,0.1,0.1,0.3,0.1,0.4
		c-0.1,0.1-0.1,0.1-0.1,0.3c0.1,0.1,0.5-0.3,0.8-0.8c0.1-0.3,0.4-0.4,0.4-0.3c0,0-0.1,0.4-0.3,0.6c-0.3,0.5-0.3,0.6-0.1,0.6
		c0.3,0.1,1.4-0.5,1.9-1c0.5-0.5,0.9-0.5,0.5,0c-0.1,0.1-0.5,0.5-0.9,0.8c-0.3,0.3-0.5,0.5-0.5,0.5s0,0.1-0.1,0c-0.1,0-0.1,0-0.1,0
		c0,0.1,0,0.1-0.1,0c-0.1,0-0.3,0-0.1,0C22,30.3,20,30.4,18.5,30.3z M21.1,30c0,0,0-0.1-0.1-0.1c-0.1,0-0.1,0,0,0
		C21,30.1,21.1,30.1,21.1,30z M21.3,29.9c0,0,0-0.1-0.1-0.1s-0.1,0,0,0C21.1,29.9,21.3,29.9,21.3,29.9z M18.3,28.6
		c-0.4-0.8-0.4-0.8-0.9-0.8h-0.5l0.4,0.1c0.4,0,0.5,0.1,0.8,0.9c0.3,0.5,0.4,0.8,0.5,0.8C18.6,29.5,18.5,29,18.3,28.6z M19.9,28.8
		c0.1-0.9,0-1-0.9-0.9c-0.4,0-0.6,0.1-0.6,0.3s0.1,0.1,0.5,0.1c0.8-0.1,0.9,0.1,0.9,0.8s0,0.8,0,0.8C19.9,29.5,19.9,29.1,19.9,28.8z
		 M16.5,29h-0.1C16.3,29,16.3,29.1,16.5,29C16.5,29.1,16.5,29,16.5,29z M16.8,27.9h-0.1C16.5,27.9,16.5,27.9,16.8,27.9L16.8,27.9z
		 M19.9,25.6c0-0.9,0-1.6-0.1-1.6c0,0-0.5,0-0.9,0L18,24.1l0.8,0.1c0.4,0,0.8,0.1,0.9,0.3c0,0.1,0.1,0.8,0.1,1.5
		c0,0.9,0,1.4,0.1,1.3C19.9,27.1,19.9,26.5,19.9,25.6z M14.8,21.3c0.3-0.3,0.5-0.6,0.5-0.9c0.1-0.6,0-1.4-0.3-1.6
		c-0.1-0.1-0.1-0.2-0.1-0.2s-0.1-0.1-0.5-0.3c-0.6-0.3-0.9-0.4-0.5-0.1c0.1,0.1,0.1,0.1-0.1,0.1c-0.1,0-0.3-0.1-0.3-0.1
		c0-0.1,0-0.1-0.1,0c0,0.1,0,0.3,0,0.5s0.1,1,0.1,1.8v1.4h0.4C14.3,21.8,14.5,21.6,14.8,21.3z M15.5,18.4c0-0.1-0.1-0.3-0.1-0.1
		c0,0,0,0.1,0,0.3C15.5,18.6,15.6,18.6,15.5,18.4z M14.9,18.1c0-0.1,0-0.1,0.2,0c0.3,0.1,0.3,0.1,0-0.1c-0.1-0.1-0.5-0.3-0.8-0.3
		h-0.5l0.6,0.1C14.9,18,15,18,14.9,18C14.7,18,14.7,18,14.9,18.1C14.9,18.3,14.9,18.3,14.9,18.1z M13.4,17.8
		C13.3,17.6,13.3,17.8,13.4,17.8c-0.1,0.1,0,0.3,0,0.1S13.4,17.8,13.4,17.8z"/>
	<path class="st3" d="M13.8,21.3c0-0.1,0-0.5,0-0.6c0.1-0.3,0.1-0.3,0.8-0.3c0.3,0,0.3,0.6-0.1,0.9C14.1,21.6,13.9,21.6,13.8,21.3z"
		/>
	<path class="st3" d="M13.9,20.1c-0.1,0-0.1-0.3,0-0.6c0.1-0.5,0.1-0.6,0.4-0.6c0.1,0,0.2,0,0.1,0.1c0,0.1,0,0.1,0.1,0.3
		c0.1,0,0.5,0.8,0.5,0.8C14.9,20.1,14,20.1,13.9,20.1z"/>
	<path class="st3" d="M22.6,29.8C22.6,29.6,22.6,29.6,22.6,29.8c0.1,0,0.3,0.1,0.1,0.1C22.8,29.9,22.8,29.9,22.6,29.8z"/>
	<path class="st3" d="M23.4,29.5c0.1-0.1,2.4-1.3,2.5-1.1c0.1,0.1,0.1,0-0.6,0.5c-0.8,0.5-1.4,0.8-1.6,0.8
		C23.4,29.5,23.3,29.5,23.4,29.5z"/>
	<path class="st3" d="M20.8,28.6C20.8,28.5,20.8,28.5,20.8,28.6C20.9,28.6,20.9,28.6,20.8,28.6C20.8,28.8,20.8,28.8,20.8,28.6z"/>
	<path class="st3" d="M20.4,28.4c0-0.1,0-0.3,0.1-0.3s0.1,0.1,0.1,0.1c0,0.1,0,0.3-0.1,0.3C20.5,28.6,20.4,28.5,20.4,28.4z"/>
	<path class="st3" d="M22.4,27.5c0.1-0.1,0.5-0.1,1.3-0.3c0.6,0,1.1,0,1.1,0c0,0.3-0.4,0.4-1.4,0.4C22.4,27.6,22.3,27.6,22.4,27.5z"
		/>
	<path class="st3" d="M25.1,27.6c-0.1-0.1,0.1-0.3,0.9-0.3h0.9l0.6-0.8c1-1.3,1.3-1.4,1.3-1.8c0-0.1,0.1-0.3,0.3-0.3
		c0.3-0.1,0.3-0.1-0.5,1c-0.3,0.4-0.8,1.1-1.1,1.5l-0.6,0.8H26C25.5,27.6,25.1,27.6,25.1,27.6z"/>
	<path class="st3" d="M20.4,27C20.4,26.9,20.5,26.9,20.4,27c0.1-0.1,0.3,0,0.3,0C20.6,27.1,20.6,27.1,20.4,27
		C20.5,27.1,20.4,27.1,20.4,27z"/>
	<path class="st3" d="M24.9,26.9c0-0.1,0.1-0.1,0.1-0.1S25,26.9,24.9,26.9C24.9,27,24.8,27,24.9,26.9z"/>
	<path class="st3" d="M22.3,26.5C22.3,26.5,22.3,26.4,22.3,26.5C22.4,26.5,22.4,26.6,22.3,26.5C22.3,26.6,22.3,26.6,22.3,26.5z"/>
	<path class="st3" d="M24.6,23.8c-0.8,0-1.3-0.1-1.3-0.1c0-0.1,2.6-0.3,2.9-0.1C26.5,23.8,25.9,23.9,24.6,23.8z"/>
	<path class="st3" d="M27,23.8c-0.3,0-0.4-0.1-0.4-0.1c0-0.1,0-0.1,1.1-0.1c0.5,0,0.9,0,0.9-0.1c0,0,0.1,0,0.4,0c0.1,0,0.3,0,0.1,0
		c-0.1,0-0.1-0.1-0.1-0.1s0.1,0,0.3,0c0.3,0.1,0.4,0.4,0.1,0.5C29.4,23.9,27.8,23.9,27,23.8z"/>
	<path class="st3" d="M22.6,21c0-0.1-0.3-0.1-0.4-0.1c-0.4,0-0.8-0.1-0.6-0.3l0.1-0.1c0.1,0,0.1,0,0,0.1v0.1c0.1,0,0.1,0,0.1-0.1
		c0-0.3,0.6-0.3,0.8-0.1c0,0.1,0,0.3,0,0.4C22.6,21.1,22.6,21.1,22.6,21z"/>
	<path class="st3" d="M11.1,16.1C11,16,11,16,11.1,15.9c0.1-0.1,0.6-0.1,1.4-0.1c1.1,0,1.3,0.1,1,0.3C13.4,16.3,11.5,16.4,11.1,16.1
		z"/>
	<path class="st3" d="M14.3,16.3c-0.4-0.1,0-0.3,1.3-0.3c0.9,0,1.5,0,1.5,0.1c0,0.1-0.4,0.1-1,0.1c-0.5,0-1.1,0-1.3,0
		C14.5,16.3,14.3,16.3,14.3,16.3z"/>
	<path class="st3" d="M19.5,15.3c0-0.1,0-0.4,0-0.4s0.1,0.1,0.1,0.4s0,0.4,0,0.4C19.5,15.6,19.5,15.4,19.5,15.3z"/>
	<path class="st3" d="M19.4,13.3c0-0.1-0.1-0.2-0.1-0.2c-0.1,0,0,0,0.1,0s0.3,0,0.3,0.1c0,0,0,0.1-0.1,0
		C19.6,13.1,19.5,13.1,19.4,13.3C19.4,13.5,19.4,13.5,19.4,13.3z"/>
	<path class="st3" d="M14.4,12.3c-0.1-0.1,0.3-0.3,0.8-0.3c0.4,0,0.5-0.1,0.9-0.5c0.4-0.4,0.6-0.6,0.6-0.4c0,0-0.3,0.4-0.5,0.6
		c-0.5,0.5-0.6,0.6-1.1,0.6C14.6,12.4,14.4,12.3,14.4,12.3z"/>
	<path class="st3" d="M19,11.9h0.1C19.1,11.9,19.1,11.9,19,11.9C19,11.9,18.9,11.9,19,11.9z"/>
	<path class="st3" d="M18.9,11.6H19C19,11.6,19,11.6,18.9,11.6C18.9,11.6,18.8,11.6,18.9,11.6z"/>
	<path class="st3" d="M19.3,11.6h0.1C19.4,11.6,19.4,11.6,19.3,11.6C19.3,11.6,19.1,11.6,19.3,11.6z"/>
	<path class="st3" d="M16.9,10.8C16.9,10.6,16.9,10.6,16.9,10.8C17,10.8,17,10.8,16.9,10.8C16.9,10.9,16.9,10.9,16.9,10.8z"/>
	<path class="st3" d="M17.8,10.4h0.1C18,10.4,18,10.4,17.8,10.4L17.8,10.4z"/>
	<path class="st3" d="M12.3,28.9c0-0.1,0.3-0.1,0.4,0c0,0,0,0.1-0.1,0.1C12.4,28.9,12.3,28.9,12.3,28.9z"/>
	<path class="st3" d="M10.8,13C10.8,13,10.8,12.9,10.8,13C10.9,13,10.9,13.1,10.8,13C10.8,13.1,10.8,13.1,10.8,13z"/>
	<path class="st3" d="M10.8,12.6c0-0.1-0.1-0.3-0.1-0.3s0,0,0.1,0c0.1,0.3,0.5,0.1,0.4,0c0,0,0-0.1,0.1,0c0.1,0.1,0.1,0.1,0,0.2
		C11,12.9,11,12.9,10.8,12.6z"/>
	<path class="st3" d="M11.5,12c-0.1-0.1,0-0.1,0.3-0.1c0.2,0,0.2,0,0.2,0.1C11.8,12.1,11.6,12.1,11.5,12z"/>
	<path class="st3" d="M12.1,11.5c0-0.1,0.1-0.1,0.1-0.1c0.1,0,0.1,0,0,0.1c0,0.1,0,0.1-0.1,0.1C12,11.6,12.1,11.6,12.1,11.5z"/>
	<path class="st3" d="M12.6,11.1l0.1-0.1C12.8,11,12.8,11,12.6,11.1C12.8,11.1,12.6,11.3,12.6,11.1C12.6,11.3,12.6,11.1,12.6,11.1z"
		/>
	<path class="st3" d="M13,10.9c0-0.1,0-0.1,0-0.3c0.1-0.1,0.2,0,0.1,0.1C13.1,11,13,11,13,10.9z"/>
	<path class="st3" d="M12.6,10.5c-0.1-0.1,0-0.4,0.3-0.4c0.1,0,0.1,0,0,0.1C12.8,10.4,12.8,10.4,12.6,10.5c0.1,0,0.1,0.1,0.1,0.1
		S12.6,10.6,12.6,10.5z"/>
	<path class="st3" d="M13.5,10.6c0,0,0-0.1-0.1-0.3c-0.3-0.1-0.3-0.5,0-0.3c0,0,0.1,0.1,0,0.1c0,0,0,0.1,0.1,0.1
		C13.8,10.3,13.8,10.5,13.5,10.6L13.5,10.6z"/>
	<path class="st3" d="M13.1,10.4h0.1C13.3,10.5,13.3,10.5,13.1,10.4C13.1,10.5,13,10.5,13.1,10.4z"/>
	<path class="st3" d="M14.3,10h0.1C14.4,10,14.4,10,14.3,10L14.3,10z"/>
	<path class="st3" d="M16,9.3c0.1-0.1,0.3-0.1,0.4-0.1s0.1,0-0.1,0.1C16,9.3,16,9.3,16,9.3z"/>
	<path class="st3" d="M14.9,9.1L15,9C15,9,15,9.1,14.9,9.1C14.9,9.3,14.9,9.3,14.9,9.1C14.8,9.3,14.8,9.3,14.9,9.1z"/>
	<path class="st3" d="M15.3,8.9l0.1-0.1C15.4,8.8,15.5,8.9,15.3,8.9C15.4,9,15.4,9,15.3,8.9C15.3,9,15.3,9,15.3,8.9z"/>
	<path class="st3" d="M17.1,8.9l0.1-0.1c0,0,0,0,0,0.1S17.3,9,17.1,8.9C17.1,9,17.1,9,17.1,8.9z"/>
	<path class="st3" d="M15,8.8C15,8.8,15,8.6,15,8.8C15.1,8.8,15.1,8.9,15,8.8C15,8.9,15,8.9,15,8.8z"/>
	<path class="st3" d="M27.9,11.9C27.9,11.9,28,11.8,27.9,11.9C28,11.9,28,11.9,27.9,11.9C28,12,27.9,12,27.9,11.9z"/>
	<path class="st3" d="M27.4,11.1C27.4,11,27.4,11,27.4,11.1C27.5,11,27.5,11.1,27.4,11.1C27.4,11.3,27.4,11.1,27.4,11.1z"/>
	<path class="st3" d="M24.6,9.6c-0.1-0.1-0.1-0.1,0-0.3c0,0,0.1,0,0.1,0.1s0,0.1,0.1,0s0.1-0.1,0.3,0c0.1,0.1,0.1,0.1,0,0.3
		C24.8,9.9,24.8,9.9,24.6,9.6z"/>
	<path class="st3" d="M19.3,8.6C19,8.5,19,8,19.1,7.9c0.1,0,0.1,0,0.1,0.3s0,0.4,0.3,0.4c0.1,0,0.3,0,0.3-0.1s-0.1-0.1-0.1,0
		c-0.1,0-0.1,0-0.1-0.1c0-0.2,0-0.2,0.3-0.1C20,8.3,20,8.5,19.6,8.8C19.5,8.8,19.5,8.8,19.3,8.6z"/>
	<path class="st3" d="M19.8,8C19.8,7.9,19.8,7.9,19.8,8C19.9,8,19.9,8,19.8,8C19.8,8.1,19.8,8,19.8,8z"/>
</g>
</svg>
