<?xml version="1.0" encoding="utf-8"?>
<!-- Generator: Adobe Illustrator 23.0.0, SVG Export Plug-In . SVG Version: 6.00 Build 0)  -->
<svg version="1.1" id="Layer_1" xmlns="http://www.w3.org/2000/svg" xmlns:xlink="http://www.w3.org/1999/xlink" x="0px" y="0px"
	 width="32px" height="32px" viewBox="0 0 32 32" style="enable-background:new 0 0 32 32;" xml:space="preserve">
<style type="text/css">
	.st0{fill:#62708C;}
	.st1{fill:url(#SVGID_1_);}
	.st2{fill:#FFFFFF;}
</style>
<path class="st0" d="M20,32h-8C5.4,32,0,26.6,0,20v-8C0,5.4,5.4,0,12,0h8c6.6,0,12,5.4,12,12v8C32,26.6,26.6,32,20,32z"/>
<linearGradient id="SVGID_1_" gradientUnits="userSpaceOnUse" x1="7.2681" y1="0.8759" x2="24.7319" y2="31.1241">
	<stop  offset="0" style="stop-color:#FFFFFF;stop-opacity:0.5"/>
	<stop  offset="1" style="stop-color:#FFFFFF;stop-opacity:0"/>
</linearGradient>
<path class="st1" d="M20,32h-8C5.4,32,0,26.6,0,20v-8C0,5.4,5.4,0,12,0h8c6.6,0,12,5.4,12,12v8C32,26.6,26.6,32,20,32z"/>
<path id="D" class="st2" d="M24.9,14.8c-0.3-0.9-0.6-1.5-1-2.2c-0.4-0.7-0.8-1.3-1.3-1.9c-0.2-0.2-0.3-0.4-0.4-0.6
	C21.6,9.4,21,8.7,20.4,8c-0.8-1-1.7-2-2.5-3l-3.9,2.7c1.1,1.5,2.1,2.7,2.7,3.5c0.6,0.8,1.2,1.6,1.8,2.4c0.3,0.3,0.7,0.9,1.1,1.7
	c0.2,0.3,0.3,0.7,0.4,1.1c0,0,0.2,0.7,0.2,1.2c0,2.9-3,5.1-6,3.7c-0.8-0.4-1.4-1-1.8-1.8c-1-2.3,0-4.6,1.8-5.5c0,0,0,0,0,0l-1.5-2.2
	c-0.5-0.7-1-1.4-1.5-2.1c-1.2,0.8-2.3,1.8-3,3c-0.6,1-1.4,2.7-1.4,4.9c0,3.2,1.7,5.4,2.1,5.9c2.8,3.4,6.8,3.5,7.3,3.5
	c3.6,0,6-2.1,6.4-2.5c0.3-0.3,2.9-2.8,2.9-6.8C25.4,16.7,25.2,15.7,24.9,14.8z"/>
<circle id="d-2" class="st2" cx="16.2" cy="17.6" r="1.4"/>
</svg>
