<?xml version="1.0" encoding="utf-8"?>
<!-- Generator: Adobe Illustrator 24.0.1, SVG Export Plug-In . SVG Version: 6.00 Build 0)  -->
<svg version="1.1" id="Layer_1" xmlns="http://www.w3.org/2000/svg" xmlns:xlink="http://www.w3.org/1999/xlink" x="0px" y="0px"
	 width="40px" height="40px" viewBox="0 0 40 40" style="enable-background:new 0 0 40 40;" xml:space="preserve">
<style type="text/css">
	.st0{fill:#A1A3AA;}
</style>
<path id="D" class="st0" d="M36,18c-0.6-1.6-1.2-2.8-1.9-4.1c-0.7-1.3-1.4-2.3-2.3-3.5c-0.4-0.4-0.6-0.7-0.7-1.2
	c-1.2-1.3-2.2-2.6-3.3-3.8c-1.4-1.9-3-3.6-4.5-5.5l-7.1,4.9c2,2.8,3.8,4.9,4.9,6.4c1.2,1.4,2.2,2.9,3.3,4.3c0.6,0.6,1.3,1.6,2,3
	c0.4,0.6,0.6,1.3,0.7,2c0,0,0.4,1.3,0.4,2.2c0,5.2-5.5,9.3-10.9,6.7c-1.4-0.7-2.5-1.9-3.2-3.3c-1.9-4.2,0-8.4,3.2-10l0,0L14,12.3
	c-0.9-1.3-1.9-2.6-2.8-3.8C9,10,7,11.9,5.7,14.1c-1.2,1.9-2.6,4.9-2.6,8.8c0,5.8,3,9.7,3.8,10.7c5.1,6.1,12.3,6.4,13.2,6.4
	c6.5,0,10.9-3.8,11.6-4.5c0.6-0.6,5.2-5.1,5.2-12.3C37,21.4,36.6,19.6,36,18z"/>
<circle id="d-2" class="st0" cx="20.3" cy="23" r="2.5"/>
</svg>
