<?xml version="1.0" encoding="utf-8"?>
<!-- Generator: Adobe Illustrator 24.0.1, SVG Export Plug-In . SVG Version: 6.00 Build 0)  -->
<svg version="1.1" id="Layer_1" xmlns="http://www.w3.org/2000/svg" xmlns:xlink="http://www.w3.org/1999/xlink" x="0px" y="0px"
	 width="40px" height="40px" viewBox="0 0 40 40" style="enable-background:new 0 0 40 40;" xml:space="preserve">
<style type="text/css">
	.st0{fill:#62708C;}
	.st1{fill:url(#SVGID_1_);}
	.st2{fill:#FFFFFF;}
</style>
<path class="st0" d="M25,40H15C6.8,40,0,33.3,0,25V15C0,6.8,6.8,0,15,0h10c8.3,0,15,6.8,15,15v10C40,33.3,33.3,40,25,40z"/>
<linearGradient id="SVGID_1_" gradientUnits="userSpaceOnUse" x1="9.0907" y1="40.8954" x2="30.9093" y2="3.1046" gradientTransform="matrix(1 0 0 -1 0 42)">
	<stop  offset="0" style="stop-color:#FFFFFF;stop-opacity:0.5"/>
	<stop  offset="1" style="stop-color:#FFFFFF;stop-opacity:0"/>
</linearGradient>
<path class="st1" d="M25,40H15C6.8,40,0,33.3,0,25V15C0,6.8,6.8,0,15,0h10c8.3,0,15,6.8,15,15v10C40,33.3,33.3,40,25,40z"/>
<path id="D" class="st2" d="M31.1,18.5c-0.4-1.1-0.8-1.9-1.3-2.8c-0.5-0.9-1-1.6-1.6-2.4c-0.3-0.3-0.4-0.5-0.5-0.8
	c-0.8-0.9-1.5-1.8-2.3-2.6c-1-1.3-2.1-2.5-3.1-3.8l-4.9,3.4c1.4,1.9,2.6,3.4,3.4,4.4c0.8,1,1.5,2,2.3,3c0.4,0.4,0.9,1.1,1.4,2.1
	c0.3,0.4,0.4,0.9,0.5,1.4c0,0,0.3,0.9,0.3,1.5c0,3.6-3.8,6.4-7.5,4.6c-1-0.5-1.7-1.3-2.2-2.3c-1.3-2.9,0-5.8,2.2-6.9l0,0l-1.9-2.7
	c-0.6-0.9-1.3-1.8-1.9-2.6c-1.5,1-2.9,2.3-3.8,3.8c-0.8,1.3-1.8,3.4-1.8,6.1c0,4,2.1,6.7,2.6,7.4c3.5,4.2,8.5,4.4,9.1,4.4
	c4.5,0,7.5-2.6,8-3.1c0.4-0.4,3.6-3.5,3.6-8.5C31.8,20.9,31.5,19.6,31.1,18.5z"/>
<circle id="d-2" class="st2" cx="20.3" cy="22" r="1.7"/>
</svg>
