<?xml version="1.0" encoding="utf-8"?>
<!-- Generator: Adobe Illustrator 23.0.0, SVG Export Plug-In . SVG Version: 6.00 Build 0)  -->
<svg version="1.1" id="Layer_1" xmlns="http://www.w3.org/2000/svg" xmlns:xlink="http://www.w3.org/1999/xlink" x="0px" y="0px"
	 width="32px" height="32px" viewBox="0 0 32 32" style="enable-background:new 0 0 32 32;" xml:space="preserve">
<style type="text/css">
	.st0{fill:#0F1C30;}
	.st1{fill:url(#SVGID_1_);}
	.st2{fill:#FFFFFF;}
</style>
<path class="st0" d="M20,32h-8C5.4,32,0,26.6,0,20v-8C0,5.4,5.4,0,12,0h8c6.6,0,12,5.4,12,12v8C32,26.6,26.6,32,20,32z"/>
<linearGradient id="SVGID_1_" gradientUnits="userSpaceOnUse" x1="7.2681" y1="0.8759" x2="24.7319" y2="31.1241">
	<stop  offset="0" style="stop-color:#FFFFFF;stop-opacity:0.5"/>
	<stop  offset="1" style="stop-color:#FFFFFF;stop-opacity:0"/>
</linearGradient>
<path class="st1" d="M20,32h-8C5.4,32,0,26.6,0,20v-8C0,5.4,5.4,0,12,0h8c6.6,0,12,5.4,12,12v8C32,26.6,26.6,32,20,32z"/>
<g id="Layer_2">
	<polygon class="st2" points="16,16.4 21.5,13.2 16,10 	"/>
	<polygon class="st2" points="16,16.4 10.5,13.2 16,10 	"/>
	<polygon class="st2" points="21.5,6.8 16,10 21.5,13.2 	"/>
	<polygon class="st2" points="21.5,6.8 27,10 21.5,13.2 	"/>
	<polygon class="st2" points="10.5,6.8 5,10 10.5,13.2 	"/>
	<polygon class="st2" points="10.5,6.8 16,10 10.5,13.2 	"/>
	<polygon class="st2" points="16,25.2 21.5,22 16,18.8 	"/>
	<polygon class="st2" points="16,25.2 10.5,22 16,18.8 	"/>
	<polygon class="st2" points="21.5,15.6 16,18.8 21.5,22 	"/>
	<polygon class="st2" points="21.5,15.6 27,18.8 21.5,22 	"/>
	<polygon class="st2" points="10.5,15.6 5,18.8 10.5,22 	"/>
	<polygon class="st2" points="10.5,15.6 16,18.8 10.5,22 	"/>
</g>
</svg>
