<?xml version="1.0" encoding="utf-8"?>
<!-- Generator: Adobe Illustrator 24.0.1, SVG Export Plug-In . SVG Version: 6.00 Build 0)  -->
<svg version="1.1" id="Layer_1" xmlns="http://www.w3.org/2000/svg" xmlns:xlink="http://www.w3.org/1999/xlink" x="0px" y="0px"
	 width="40px" height="40px" viewBox="0 0 40 40" style="enable-background:new 0 0 40 40;" xml:space="preserve">
<style type="text/css">
	.st0{fill:#A1A3AA;}
</style>
<g id="Layer_2_1_">
	<polygon class="st0" points="19.9,20.7 30,14.9 19.9,9.1 	"/>
	<polygon class="st0" points="19.9,20.7 9.9,14.9 19.9,9.1 	"/>
	<polygon class="st0" points="30,3.3 19.9,9.1 30,14.9 	"/>
	<polygon class="st0" points="30,3.3 40,9.1 30,14.9 	"/>
	<polygon class="st0" points="9.9,3.3 0,9.1 9.9,14.9 	"/>
	<polygon class="st0" points="9.9,3.3 19.9,9.1 9.9,14.9 	"/>
	<polygon class="st0" points="19.9,36.7 30,30.9 19.9,25.1 	"/>
	<polygon class="st0" points="19.9,36.7 9.9,30.9 19.9,25.1 	"/>
	<polygon class="st0" points="30,19.3 19.9,25.1 30,30.9 	"/>
	<polygon class="st0" points="30,19.3 40,25.1 30,30.9 	"/>
	<polygon class="st0" points="9.9,19.3 0,25.1 9.9,30.9 	"/>
	<polygon class="st0" points="9.9,19.3 19.9,25.1 9.9,30.9 	"/>
</g>
</svg>
