<?xml version="1.0" encoding="utf-8"?>
<!-- Generator: Adobe Illustrator 24.0.1, SVG Export Plug-In . SVG Version: 6.00 Build 0)  -->
<svg version="1.1" id="Layer_1" xmlns="http://www.w3.org/2000/svg" xmlns:xlink="http://www.w3.org/1999/xlink" x="0px" y="0px"
	 width="40px" height="40px" viewBox="0 0 40 40" style="enable-background:new 0 0 40 40;" xml:space="preserve">
<style type="text/css">
	.st0{fill:#2B5EBA;}
	.st1{fill:url(#SVGID_1_);}
	.st2{fill:#FFFFFF;}
</style>
<path class="st0" d="M25,40H15C6.8,40,0,33.3,0,25V15C0,6.8,6.8,0,15,0h10c8.3,0,15,6.8,15,15v10C40,33.3,33.3,40,25,40z"/>
<linearGradient id="SVGID_1_" gradientUnits="userSpaceOnUse" x1="9.0907" y1="40.8954" x2="30.9093" y2="3.1046" gradientTransform="matrix(1 0 0 -1 0 42)">
	<stop  offset="0" style="stop-color:#FFFFFF;stop-opacity:0.5"/>
	<stop  offset="1" style="stop-color:#FFFFFF;stop-opacity:0"/>
</linearGradient>
<path class="st1" d="M25,40H15C6.8,40,0,33.3,0,25V15C0,6.8,6.8,0,15,0h10c8.3,0,15,6.8,15,15v10C40,33.3,33.3,40,25,40z"/>
<circle class="st2" cx="28" cy="20" r="5.8"/>
<circle class="st2" cx="20.8" cy="9.3" r="2.8"/>
<circle class="st2" cx="20.8" cy="30.8" r="2.8"/>
<path class="st2" d="M19.4,24.1c0.1,0,0.4,0.1,0.5,0.1c1,0,1.8-0.8,1.8-1.8s-0.8-1.8-1.8-1.8c-0.6,0-1.1,0.4-1.5,0.8l0,0
	c0,0.1-0.1,0.1-0.1,0.3c-1.9,3.4-5.8,1.1-5.8,1.1c-0.5-0.4-1.3-0.5-2-0.5c-2.4,0-4.1,1.9-4.1,4.1s1.9,4.1,4.1,4.1
	c1.6,0,3-0.9,3.8-2.3l0,0c0.1-0.3,0.2-0.5,0.2-0.8C16.5,23.1,19.4,24.1,19.4,24.1L19.4,24.1z M18.5,18c0.1,0.1,0.3,0.3,0.4,0.4
	c0.6,0.6,1.8,0.6,2.5,0c0.6-0.6,0.6-1.8,0-2.5c-0.5-0.5-1-0.6-1.6-0.5l0,0c-0.1,0-0.1,0-0.3,0.1c-3.8,1-4.9-3.2-4.9-3.2
	c-0.1-0.8-0.5-1.4-1.1-1.9c-1.8-1.6-4.4-1.6-6,0s-1.6,4.3,0,5.9c1.1,1.1,2.8,1.5,4.3,1l0,0c0.2-0.1,0.5-0.3,0.8-0.4
	C17.1,15.1,18.5,18,18.5,18z"/>
</svg>
