<?xml version="1.0" encoding="utf-8"?>
<!-- Generator: Adobe Illustrator 24.0.1, SVG Export Plug-In . SVG Version: 6.00 Build 0)  -->
<svg version="1.1" id="Layer_1" xmlns="http://www.w3.org/2000/svg" xmlns:xlink="http://www.w3.org/1999/xlink" x="0px" y="0px"
	 width="40px" height="40px" viewBox="0 0 40 40" style="enable-background:new 0 0 40 40;" xml:space="preserve">
<style type="text/css">
	.st0{fill:#A1A3AA;}
</style>
<circle class="st0" cx="31.6" cy="19.9" r="8.4"/>
<circle class="st0" cx="21.1" cy="4.4" r="4.1"/>
<circle class="st0" cx="21.1" cy="35.6" r="4.1"/>
<path class="st0" d="M19.1,25.9c0.1,0,0.6,0.1,0.7,0.1c1.5,0,2.6-1.2,2.6-2.6c0-1.5-1.2-2.6-2.6-2.6c-0.9,0-1.6,0.6-2.2,1.2l0,0
	c0,0.1-0.1,0.1-0.1,0.4C14.7,27.3,9,24,9,24c-0.7-0.6-1.9-0.7-2.9-0.7c-3.5,0-6,2.8-6,6s2.8,6,6,6c2.3,0,4.4-1.3,5.5-3.3l0,0
	c0.1-0.4,0.3-0.7,0.3-1.2C14.8,24.4,19.1,25.9,19.1,25.9L19.1,25.9z M17.7,17c0.1,0.1,0.4,0.4,0.6,0.6c0.9,0.9,2.6,0.9,3.6,0
	c0.9-0.9,0.9-2.6,0-3.6c-0.7-0.7-1.5-0.9-2.3-0.7l0,0c-0.1,0-0.1,0-0.4,0.1c-5.5,1.5-7.1-4.7-7.1-4.7c-0.1-1.2-0.7-2-1.6-2.8
	C7.9,3.6,4.1,3.6,1.7,6s-2.3,6.3,0,8.6C3.3,16.1,5.8,16.7,8,16l0,0c0.3-0.1,0.7-0.4,1.2-0.6C15.7,12.8,17.7,17,17.7,17z"/>
</svg>
