<?xml version="1.0" encoding="utf-8"?>
<!-- Generator: Adobe Illustrator 24.0.1, SVG Export Plug-In . SVG Version: 6.00 Build 0)  -->
<svg version="1.1" id="Layer_1" xmlns="http://www.w3.org/2000/svg" xmlns:xlink="http://www.w3.org/1999/xlink" x="0px" y="0px"
	 width="40px" height="40px" viewBox="0 0 40 40" style="enable-background:new 0 0 40 40;" xml:space="preserve">
<style type="text/css">
	.st0{opacity:0.1;fill:#A1A3AA;enable-background:new    ;}
	.st1{fill:#A1A3AA;}
</style>
<path class="st0" d="M19.8,10.2L28,15l-8.2,4.7L11.3,15L19.8,10.2z"/>
<path class="st0" d="M11.3,15.1l8.6,4.7v9.5l-8.6-4.5V15.1z"/>
<path class="st0" d="M19.8,19.8l8.2-4.7l0.1,9.8l-8.4,4.7v-9.8H19.8z"/>
<g>
	<path class="st1" d="M37,9.5L37,9.5l-8.4-4.7L20,0h-0.1h-0.1c-0.1,0-0.4,0.1-0.5,0.1l-7.5,4.4l-9,5.4c-0.3,0.1-0.3,0.5-0.3,0.8v0.1
		v13.8v5.1c0,0.4,0.1,0.5,0.3,0.7l10.6,6l6.2,3.5c0.1,0,0.4,0.1,0.4,0.1c0.1,0,0.1,0,0.4-0.1l9.1-5.2l7.8-4.4
		c0.4-0.1,0.5-0.4,0.4-0.7V10.3C37.4,9.8,37.1,9.6,37,9.5 M19.8,10.8l7.5,4.4l-7.5,4.4l-2.5-1.5l-5.1-2.8L19.8,10.8 M28.4,14.4
		l-8.2-4.7c-0.1-0.1-0.5-0.1-0.7,0l-8.3,4.7l-7.5-4.1L9,7.2l10.8-6.4l9.9,5.8l6,3.5L28.4,14.4 M3.3,11.1l7.4,4.1l0.1,9.2
		c0,0.4,0.1,0.5,0.4,0.7L16,28l3.2,1.9v8.7L3.1,29.3L3.3,11.1z M11.8,15.9l7.5,4.4v8.6l-7.4-4.1L11.8,15.9z M20.4,29.8l3.2-1.9
		l4.8-2.8l0,0c0.1,0,0.1-0.1,0.4-0.1l0,0l0,0v-6.2v-3.3l7.5-4.3v7.5v10.8l-10.2,5.9l-5.9,3.3L20.4,29.8 M20.4,28.6v-8.6l7.5-4.4v8.6
		L20.4,28.6"/>
	<path class="st1" d="M19.7,1.9c-0.1,0-0.4,0.1-0.5,0.4c-0.1,0.3,0,0.5,0,0.7c0.1,0.1,0.4,0.4,0.5,0.4h0.1c0.4,0,0.5-0.1,0.5-0.5
		c0-0.1,0-0.5-0.1-0.7C20,1.9,19.8,1.9,19.7,1.9 M20,4.8c-0.1-0.1-0.5-0.1-0.7,0C19.2,4.9,19,5.1,19,5.2c0,0.1,0,0.4,0.1,0.5
		c0.1,0.1,0.4,0.1,0.5,0.1s0.1,0,0.3,0c0.4-0.1,0.4-0.3,0.4-0.5C20.4,5.1,20.4,4.8,20,4.8 M20,7.5c-0.1-0.1-0.5-0.1-0.7,0
		c-0.1,0.1-0.4,0.4-0.4,0.5c0,0.1,0,0.5,0.4,0.5c0.1,0.1,0.4,0.1,0.4,0.1c0.1,0,0.1,0,0.4,0c0.4-0.1,0.5-0.5,0.4-0.8
		C20.4,7.6,20.2,7.6,20,7.5 M9.1,25.6c-0.1,0-0.4,0.4-0.5,0.5c0,0.4,0,0.5,0.1,0.7c0.1,0.1,0.4,0.1,0.4,0.1h0.1
		c0.1,0,0.4-0.1,0.5-0.4c0.1-0.1,0-0.5-0.1-0.7C9.7,25.6,9.5,25.3,9.1,25.6 M29.9,26.9C30,26.9,30,26.9,29.9,26.9
		c0.4,0,0.5-0.1,0.7-0.4c0.1-0.3,0-0.5-0.1-0.7s-0.5-0.4-0.7-0.1c-0.1,0-0.4,0.4-0.5,0.5c0,0.4,0,0.5,0.1,0.7
		C29.6,26.6,29.7,26.9,29.9,26.9 M6.9,26.9c-0.1,0-0.4,0.4-0.4,0.5c0,0.4,0.1,0.5,0.4,0.7c0,0.1,0.1,0.1,0.1,0.1c0.1,0,0.1,0,0.4,0
		c0.1-0.1,0.4-0.4,0.4-0.5s0-0.5-0.1-0.7C7.3,26.9,7,26.9,6.9,26.9 M32.3,28.2h0.1c0.1,0,0.4-0.4,0.4-0.5s0-0.5-0.1-0.7
		c-0.1-0.1-0.5-0.1-0.7-0.1c-0.4,0.1-0.5,0.5-0.4,0.8c0,0.1,0.1,0.1,0.1,0.4C31.9,28.2,32,28.2,32.3,28.2 M5.1,28.4
		c-0.1-0.1-0.5-0.1-0.7,0c-0.1,0.1-0.3,0.4-0.3,0.5c0,0.4,0.1,0.5,0.3,0.5c0.1,0,0.1,0,0.4,0c0.3,0,0.1,0,0.4-0.1
		c0.1,0.1,0.4-0.1,0.4-0.3S5.3,28.4,5.1,28.4 M34,29.3c0.1,0.1,0.1,0.1,0.4,0.1h0.1c0.1-0.1,0.4-0.4,0.4-0.5c0-0.4,0-0.5-0.4-0.7
		c-0.1-0.1-0.5-0.1-0.7,0c-0.1,0.1-0.4,0.4-0.4,0.5C33.9,29,33.9,29.2,34,29.3"/>
</g>
</svg>
