<?xml version="1.0" encoding="utf-8"?>
<!-- Generator: Adobe Illustrator 24.0.1, SVG Export Plug-In . SVG Version: 6.00 Build 0)  -->
<svg version="1.1" id="Layer_1" xmlns="http://www.w3.org/2000/svg" xmlns:xlink="http://www.w3.org/1999/xlink" x="0px" y="0px"
	 width="40px" height="40px" viewBox="0 0 40 40" style="enable-background:new 0 0 40 40;" xml:space="preserve">
<style type="text/css">
	.st0{fill:#2F2F2F;}
	.st1{fill:url(#SVGID_1_);}
	.st2{opacity:0.1;fill:#EA259E;enable-background:new    ;}
	.st3{opacity:0.1;fill:#014C99;enable-background:new    ;}
	.st4{opacity:0.1;fill:#08B0F9;enable-background:new    ;}
	.st5{fill:#FFFFFF;}
</style>
<path class="st0" d="M25,40H15C6.8,40,0,33.3,0,25V15C0,6.8,6.8,0,15,0h10c8.3,0,15,6.8,15,15v10C40,33.3,33.3,40,25,40z"/>
<linearGradient id="SVGID_1_" gradientUnits="userSpaceOnUse" x1="9.0907" y1="40.8954" x2="30.9093" y2="3.1046" gradientTransform="matrix(1 0 0 -1 0 42)">
	<stop  offset="0" style="stop-color:#FFFFFF;stop-opacity:0.5"/>
	<stop  offset="1" style="stop-color:#FFFFFF;stop-opacity:0"/>
</linearGradient>
<path class="st1" d="M25,40H15C6.8,40,0,33.3,0,25V15C0,6.8,6.8,0,15,0h10c8.3,0,15,6.8,15,15v10C40,33.3,33.3,40,25,40z"/>
<path class="st2" d="M19.5,12.8l6.1,3.6l-6.1,3.5l-6.4-3.5L19.5,12.8z"/>
<path class="st3" d="M13.1,16.5l6.4,3.5v7.1l-6.4-3.4V16.5z"/>
<path class="st4" d="M19.5,20l6.1-3.5l0.1,7.3l-6.3,3.5V20z"/>
<g>
	<path class="st5" d="M32.3,12.3L32.3,12.3L26,8.8l-6.4-3.6h-0.1h-0.1c-0.1,0-0.3,0.1-0.4,0.1l-5.6,3.3l-6.7,4
		c-0.2,0.1-0.2,0.4-0.2,0.6v0.1v10.3v3.8c0,0.3,0.1,0.4,0.2,0.5l7.9,4.5l4.6,2.6c0.1,0,0.3,0.1,0.3,0.1c0.1,0,0.1,0,0.3-0.1l6.8-3.9
		l5.8-3.3c0.3-0.1,0.4-0.3,0.3-0.5V12.9C32.6,12.5,32.4,12.4,32.3,12.3 M19.5,13.3l5.6,3.3l-5.6,3.3l-1.9-1.1l-3.8-2.1L19.5,13.3
		 M25.9,16l-6.1-3.5c-0.1-0.1-0.4-0.1-0.5,0L13.1,16l-5.6-3.1l3.9-2.3l8.1-4.8l7.4,4.3l4.5,2.6L25.9,16 M7.1,13.5l5.5,3.1l0.1,6.9
		c0,0.3,0.1,0.4,0.3,0.5l3.6,2.1l2.4,1.4V34L7,27.1L7.1,13.5z M13.5,17.1l5.6,3.3v6.4l-5.5-3.1L13.5,17.1z M19.9,27.5l2.4-1.4
		l3.6-2.1l0,0c0.1,0,0.1-0.1,0.3-0.1l0,0l0,0v-4.6v-2.5l5.6-3.2v5.6v8.1l-7.6,4.4l-4.4,2.5L19.9,27.5 M19.9,26.6v-6.4l5.6-3.3v6.4
		L19.9,26.6"/>
	<path class="st5" d="M19.4,6.6c-0.1,0-0.3,0.1-0.4,0.3s0,0.4,0,0.5c0.1,0.1,0.3,0.3,0.4,0.3h0.1c0.3,0,0.4-0.1,0.4-0.4
		c0-0.1,0-0.4-0.1-0.5C19.6,6.6,19.5,6.6,19.4,6.6 M19.6,8.8c-0.1-0.1-0.4-0.1-0.5,0S18.9,9,18.9,9.1s0,0.3,0.1,0.4
		c0.1,0.1,0.3,0.1,0.4,0.1c0.1,0,0.1,0,0.2,0c0.3-0.1,0.3-0.2,0.3-0.4C19.9,9,19.9,8.8,19.6,8.8 M19.6,10.8c-0.1-0.1-0.4-0.1-0.5,0
		c-0.1,0.1-0.3,0.3-0.3,0.4c0,0.1,0,0.4,0.3,0.4c0.1,0.1,0.3,0.1,0.3,0.1c0.1,0,0.1,0,0.3,0c0.3-0.1,0.4-0.4,0.3-0.6
		C19.9,10.9,19.8,10.9,19.6,10.8 M11.5,24.3c-0.1,0-0.3,0.3-0.4,0.4c0,0.3,0,0.4,0.1,0.5s0.3,0.1,0.3,0.1h0.1c0.1,0,0.3-0.1,0.4-0.3
		c0.1-0.1,0-0.4-0.1-0.5C11.9,24.3,11.8,24.1,11.5,24.3 M27,25.3C27.1,25.3,27.1,25.3,27,25.3c0.3,0,0.4-0.1,0.5-0.3s0-0.4-0.1-0.5
		s-0.4-0.3-0.5-0.1c-0.1,0-0.3,0.3-0.4,0.4c0,0.3,0,0.4,0.1,0.5C26.8,25.1,26.9,25.3,27,25.3 M9.8,25.3c-0.1,0-0.3,0.3-0.3,0.4
		c0,0.3,0.1,0.4,0.3,0.5c0,0.1,0.1,0.1,0.1,0.1c0.1,0,0.1,0,0.3,0c0.1-0.1,0.3-0.3,0.3-0.4s0-0.4-0.1-0.5
		C10.1,25.3,9.9,25.3,9.8,25.3 M28.8,26.3h0.1c0.1,0,0.3-0.3,0.3-0.4s0-0.4-0.1-0.5c-0.1-0.1-0.4-0.1-0.5-0.1
		c-0.3,0.1-0.4,0.4-0.3,0.6c0,0.1,0.1,0.1,0.1,0.3C28.5,26.3,28.6,26.3,28.8,26.3 M8.5,26.4c-0.1-0.1-0.4-0.1-0.5,0
		s-0.2,0.3-0.2,0.4c0,0.3,0.1,0.4,0.2,0.4s0.1,0,0.3,0s0.1,0,0.3-0.1c0.1,0.1,0.3-0.1,0.3-0.2S8.6,26.4,8.5,26.4 M30.1,27.1
		c0.1,0.1,0.1,0.1,0.3,0.1h0.1c0.1-0.1,0.3-0.3,0.3-0.4c0-0.3,0-0.4-0.3-0.5c-0.1-0.1-0.4-0.1-0.5,0c-0.1,0.1-0.3,0.3-0.3,0.4
		C30,26.9,30,27,30.1,27.1"/>
</g>
</svg>
