<?xml version="1.0" encoding="utf-8"?>
<!-- Generator: Adobe Illustrator 24.0.1, SVG Export Plug-In . SVG Version: 6.00 Build 0)  -->
<svg version="1.1" id="Layer_1" xmlns="http://www.w3.org/2000/svg" xmlns:xlink="http://www.w3.org/1999/xlink" x="0px" y="0px"
	 width="40px" height="40px" viewBox="0 0 40 40" style="enable-background:new 0 0 40 40;" xml:space="preserve">
<style type="text/css">
	.st0{fill:#A1A3AA;}
</style>
<path class="st0" d="M33.8,4c1.2,0.1,2.2,0.1,3.3,0.3c2.2,0.3,2.9,1.4,2.6,3.6c-0.1,0.7-0.7,1.4-1.6,1.6c-0.6,0-1.2,0.1-1.6,0.1
	c-7.1,0-14.1,0-20.9,0c-1.2,0-2.2,0.1-3,0.4c-3.5,0.6-4.9,2-5.1,5.3C7.4,17,7.4,17,8.9,17h28c0.1,0,0.6,0,0.7,0
	c0.4,0,0.9,0.1,1.3,0.4c1.3,0.7,0.9,2.2,0.9,3.2c0,0.9-0.6,1.4-1.6,1.6c-0.4,0-0.9,0.1-1.3,0c-9.5,0-19.2,0-28.7,0
	c-1.2,0-1.2,0-0.9,1.2c0,0.9,0.1,2,0.3,2.9c0.4,1.9,1.4,2.9,3.3,3.2c2,0.6,3.8,0.7,5.8,0.7c6.9,0,13.7,0,20.6,0
	c0.9,0,1.6,0.1,2.2,0.9c0.9,1.3,0.4,3-0.9,4c-0.1,0.1-0.4,0.1-0.6,0.4c-1.4,0.6-3,0.6-4.5,0.6c-6.5,0.1-12.8,0.1-19.3,0
	c-2,0-4-0.4-5.9-0.7c-4.9-0.9-7.2-3.2-7.9-7.9c-0.1-0.9-0.1-2-0.4-3V16c0-0.9,0.1-1.6,0.1-2.6C0.7,8.2,3,5.6,8.2,4.6
	c1.9-0.3,3.6-0.6,5.6-0.7L33.8,4z"/>
</svg>
