<?xml version="1.0" encoding="utf-8"?>
<!-- Generator: Adobe Illustrator 23.0.0, SVG Export Plug-In . SVG Version: 6.00 Build 0)  -->
<svg version="1.1" id="Layer_1" xmlns="http://www.w3.org/2000/svg" xmlns:xlink="http://www.w3.org/1999/xlink" x="0px" y="0px"
	 width="32px" height="32px" viewBox="0 0 32 32" style="enable-background:new 0 0 32 32;" xml:space="preserve">
<style type="text/css">
	.st0{fill:#3A3AA3;}
	.st1{fill:url(#SVGID_1_);}
	.st2{fill:#FFFFFF;}
</style>
<path class="st0" d="M20,32h-8C5.4,32,0,26.6,0,20v-8C0,5.4,5.4,0,12,0h8c6.6,0,12,5.4,12,12v8C32,26.6,26.6,32,20,32z"/>
<linearGradient id="SVGID_1_" gradientUnits="userSpaceOnUse" x1="7.2681" y1="0.8759" x2="24.7319" y2="31.1241">
	<stop  offset="0" style="stop-color:#FFFFFF;stop-opacity:0.5"/>
	<stop  offset="1" style="stop-color:#FFFFFF;stop-opacity:0"/>
</linearGradient>
<path class="st1" d="M20,32h-8C5.4,32,0,26.6,0,20v-8C0,5.4,5.4,0,12,0h8c6.6,0,12,5.4,12,12v8C32,26.6,26.6,32,20,32z"/>
<path class="st2" d="M23.7,7.1c0.6,0.1,1.2,0.1,1.8,0.2c1.2,0.2,1.6,0.8,1.4,2c-0.1,0.4-0.4,0.8-0.9,0.9c-0.3,0-0.6,0.1-0.9,0.1
	c-3.9,0-7.8,0-11.6,0c-0.6,0-1.2,0.1-1.7,0.2c-1.9,0.3-2.7,1.1-2.8,3c-0.1,0.9-0.1,0.9,0.8,0.9h15.5c0.1,0,0.3,0,0.4,0
	c0.2,0,0.5,0.1,0.7,0.2c0.7,0.4,0.5,1.2,0.5,1.8c0,0.5-0.3,0.8-0.9,0.9c-0.2,0-0.5,0.1-0.7,0c-5.3,0-10.6,0-15.9,0
	c-0.6,0-0.6,0-0.5,0.6c0,0.5,0.1,1.1,0.2,1.6c0.2,1,0.8,1.6,1.8,1.8c1.1,0.3,2.1,0.4,3.2,0.4c3.8,0,7.6,0,11.4,0
	c0.5,0,0.9,0.1,1.2,0.5c0.5,0.7,0.2,1.7-0.5,2.2c-0.1,0.1-0.2,0.1-0.3,0.2c-0.8,0.3-1.7,0.3-2.5,0.3c-3.6,0.1-7.1,0.1-10.7,0
	c-1.1,0-2.2-0.2-3.3-0.4c-2.5-0.5-3.8-1.8-4.2-4.4C5.1,19.6,5.1,19,5,18.4v-4.6c0-0.5,0.1-0.9,0.1-1.4c0.3-2.9,1.6-4.3,4.5-4.9
	c1-0.2,2-0.3,3.1-0.4L23.7,7.1z"/>
</svg>
