<?xml version="1.0" encoding="utf-8"?>
<!-- Generator: Adobe Illustrator 24.0.1, SVG Export Plug-In . SVG Version: 6.00 Build 0)  -->
<svg version="1.1" id="Layer_1" xmlns="http://www.w3.org/2000/svg" xmlns:xlink="http://www.w3.org/1999/xlink" x="0px" y="0px"
	 width="40px" height="40px" viewBox="0 0 40 40" style="enable-background:new 0 0 40 40;" xml:space="preserve">
<style type="text/css">
	.st0{fill:#A1A3AA;}
</style>
<path class="st0" d="M31.8,19.9c-3.9,3.7-7.8,7.3-11.7,11c0.1-1.4,0.2-2.7,0.2-4.1l6.4-7.9L31.8,19.9z"/>
<path class="st0" d="M31.7,19.7l-4.9-1.4L20.3,2c-0.1-0.7-0.1-1.3-0.2-2L31.7,19.7z"/>
<path class="st0" d="M26.4,18.5l-6.4,8l-6.4-8l6.4-16C22.1,7.8,24.3,13.1,26.4,18.5z"/>
<path class="st0" d="M19.7,26.9c0.1,1.4,0.2,2.7,0.2,4.1l-11.7-11l5.1-1.1L19.7,26.9z"/>
<path class="st0" d="M19.9,0c-0.1,0.7-0.1,1.4-0.2,2.1l-6.6,16.1l-4.9,1.5L19.9,0z"/>
<g>
	<path class="st0" d="M1.7,32.5H7c0.4,0,0.7,0.2,0.7,0.7c0,0.4-0.2,0.7-0.7,0.7H2.4v4.8h4.7c0.4,0,0.7,0.2,0.7,0.7
		c0,0.4-0.2,0.7-0.7,0.7H1.7c-0.5,0-0.7-0.2-0.7-0.7v-6.1C0.9,32.7,1.2,32.5,1.7,32.5z M3.4,36.1c0-0.4,0.2-0.7,0.7-0.7h2
		c0.4,0,0.7,0.2,0.7,0.7c0,0.5-0.2,0.7-0.7,0.7h-2C3.6,36.8,3.4,36.6,3.4,36.1z"/>
	<path class="st0" d="M10.7,34c0-0.5,0.1-0.8,0.4-1.1c0.3-0.3,0.6-0.4,1.1-0.4h4.6c0.5,0,0.9,0.1,1.1,0.4c0.3,0.3,0.4,0.6,0.4,1.1
		v4.5c0,0.5-0.1,0.9-0.4,1.1c-0.3,0.3-0.6,0.4-1.1,0.4h-4.6c-0.5,0-0.8-0.1-1.1-0.4c-0.3-0.3-0.4-0.6-0.4-1.1V34z M12.2,33.8v4.8
		h4.6v-4.8H12.2z"/>
	<path class="st0" d="M23.8,32.5h3.7c0.5,0,0.7,0.2,0.7,0.7v0c0,0.4-0.2,0.7-0.7,0.7h-3.6c-0.3,0-0.5,0.1-0.6,0.2
		c-0.1,0.1-0.2,0.3-0.2,0.6c0,0.3,0.1,0.5,0.2,0.6c0.1,0.1,0.3,0.2,0.6,0.2h2.7c0.7,0,1.3,0.2,1.7,0.6c0.4,0.4,0.6,1,0.6,1.7
		c0,0.7-0.2,1.3-0.6,1.7c-0.4,0.4-1,0.6-1.7,0.6h-4c-0.4,0-0.7-0.2-0.7-0.7c0-0.4,0.2-0.7,0.7-0.7h3.9c0.3,0,0.5-0.1,0.7-0.2
		c0.1-0.1,0.2-0.4,0.2-0.7c0-0.3-0.1-0.6-0.2-0.7c-0.1-0.1-0.4-0.2-0.7-0.2h-2.7c-0.7,0-1.2-0.2-1.6-0.6c-0.4-0.4-0.6-0.9-0.6-1.6
		c0-0.7,0.2-1.2,0.6-1.6C22.5,32.6,23.1,32.5,23.8,32.5z"/>
	<path class="st0" d="M31.9,33.2c0-0.5,0.2-0.7,0.7-0.7h4c0.7,0,1.2,0.2,1.6,0.5c0.4,0.4,0.6,0.9,0.6,1.5c0,0.6-0.2,1-0.6,1.5
		c0.6,0.4,0.9,1.1,0.9,1.8c0,0.7-0.2,1.2-0.6,1.6c-0.4,0.4-0.9,0.6-1.6,0.6h-4.3c-0.5,0-0.7-0.2-0.7-0.7V33.2z M36.6,38.6
		c0.4,0,0.7-0.1,0.8-0.2c0.1-0.1,0.2-0.4,0.2-0.8c0-0.3-0.1-0.5-0.3-0.7c-0.2-0.2-0.4-0.3-0.7-0.3H35c-0.4,0-0.7-0.2-0.7-0.7
		c0-0.4,0.2-0.7,0.7-0.7h1.4c0.6,0,0.8-0.3,0.8-0.8c0-0.3-0.1-0.6-0.2-0.7c-0.1-0.1-0.3-0.2-0.7-0.2h-3.1v4.8H36.6z"/>
</g>
</svg>
