<?xml version="1.0" encoding="utf-8"?>
<!-- Generator: Adobe Illustrator 24.0.1, SVG Export Plug-In . SVG Version: 6.00 Build 0)  -->
<svg version="1.1" id="Layer_1" xmlns="http://www.w3.org/2000/svg" xmlns:xlink="http://www.w3.org/1999/xlink" x="0px" y="0px"
	 width="40px" height="40px" viewBox="0 0 40 40" style="enable-background:new 0 0 40 40;" xml:space="preserve">
<style type="text/css">
	.st0{fill:#A1A3AA;}
	.st1{opacity:5.000000e-02;fill:#A1A3AA;enable-background:new    ;}
</style>
<g id="layer1">
	<g id="g1627" transform="translate(56.415936,69.875162)">
		<path id="path1599" class="st0" d="M-48.8-48.2c4.3,2.3,8.9,4.8,12.5,6.5l12.2-6.5c-4.5,6.5-8.2,12.1-12.2,18.1
			C-40.6-36.1-45.1-42.9-48.8-48.2L-48.8-48.2z M-48.3-50l12-6.4l11.8,6.4l-11.8,6.4L-48.3-50z M-36.5-58.4l-12.2,6.5l12.2-18
			l12.2,18L-36.5-58.4z"/>
		<path id="path1593" class="st1" d="M-36.5-41.6l12.2-6.5c-4.5,6.5-12.2,18.2-12.2,18.2V-41.6z M-36.5-56.4l11.8,6.4l-11.8,6.4
			V-56.4z M-36.5-58.4v-11.5l12.2,18L-36.5-58.4z"/>
		<path id="path1603" class="st1" d="M-48.3-50l12,1l11.8-1l-11.8,6.4L-48.3-50z"/>
		<path id="path1606" class="st1" d="M-36.5-49.1l11.8-1l-11.8,6.4V-49.1L-36.5-49.1z"/>
	</g>
</g>
</svg>
