<?xml version="1.0" encoding="utf-8"?>
<!-- Generator: Adobe Illustrator 23.0.0, SVG Export Plug-In . SVG Version: 6.00 Build 0)  -->
<svg version="1.1" id="Layer_1" xmlns="http://www.w3.org/2000/svg" xmlns:xlink="http://www.w3.org/1999/xlink" x="0px" y="0px"
	 width="32px" height="32px" viewBox="0 0 32 32" style="enable-background:new 0 0 32 32;" xml:space="preserve">
<style type="text/css">
	.st0{fill:#2D4BE0;}
	.st1{fill:url(#SVGID_1_);}
	.st2{fill:#FFFFFF;fill-opacity:0.602;}
	.st3{fill:#FFFFFF;}
	.st4{fill:#FFFFFF;fill-opacity:0.2;}
</style>
<path class="st0" d="M20,32h-8C5.4,32,0,26.6,0,20v-8C0,5.4,5.4,0,12,0h8c6.6,0,12,5.4,12,12v8C32,26.6,26.6,32,20,32z"/>
<linearGradient id="SVGID_1_" gradientUnits="userSpaceOnUse" x1="7.2681" y1="0.8759" x2="24.7319" y2="31.1241">
	<stop  offset="0" style="stop-color:#FFFFFF;stop-opacity:0.5"/>
	<stop  offset="1" style="stop-color:#FFFFFF;stop-opacity:0"/>
</linearGradient>
<path class="st1" d="M20,32h-8C5.4,32,0,26.6,0,20v-8C0,5.4,5.4,0,12,0h8c6.6,0,12,5.4,12,12v8C32,26.6,26.6,32,20,32z"/>
<path class="st2" d="M16,4v8.9l7.5,3.4L16,4z"/>
<path class="st3" d="M16,4L8.5,16.2l7.5-3.4V4z"/>
<path class="st2" d="M16,22v6l7.5-10.4L16,22z"/>
<path class="st3" d="M16,28v-6l-7.5-4.4L16,28z"/>
<path class="st4" d="M16,20.6l7.5-4.4L16,12.9V20.6z"/>
<path class="st2" d="M8.5,16.2l7.5,4.4v-7.7L8.5,16.2z"/>
</svg>
