<?xml version="1.0" encoding="utf-8"?>
<!-- Generator: Adobe Illustrator 24.0.1, SVG Export Plug-In . SVG Version: 6.00 Build 0)  -->
<svg version="1.1" id="Layer_1" xmlns="http://www.w3.org/2000/svg" xmlns:xlink="http://www.w3.org/1999/xlink" x="0px" y="0px"
	 width="40px" height="40px" viewBox="0 0 40 40" style="enable-background:new 0 0 40 40;" xml:space="preserve">
<style type="text/css">
	.st0{fill:#2D4BE0;}
	.st1{fill:url(#SVGID_1_);}
	.st2{fill:#FFFFFF;fill-opacity:0.602;}
	.st3{fill:#FFFFFF;}
	.st4{fill:#FFFFFF;fill-opacity:0.2;}
</style>
<path class="st0" d="M25,40H15C6.8,40,0,33.3,0,25V15C0,6.8,6.8,0,15,0h10c8.3,0,15,6.8,15,15v10C40,33.3,33.3,40,25,40z"/>
<linearGradient id="SVGID_1_" gradientUnits="userSpaceOnUse" x1="9.0907" y1="40.8954" x2="30.9093" y2="3.1046" gradientTransform="matrix(1 0 0 -1 0 42)">
	<stop  offset="0" style="stop-color:#FFFFFF;stop-opacity:0.5"/>
	<stop  offset="1" style="stop-color:#FFFFFF;stop-opacity:0"/>
</linearGradient>
<path class="st1" d="M25,40H15C6.8,40,0,33.3,0,25V15C0,6.8,6.8,0,15,0h10c8.3,0,15,6.8,15,15v10C40,33.3,33.3,40,25,40z"/>
<path class="st2" d="M20,5v11.1l9.4,4.3L20,5z"/>
<path class="st3" d="M20,5l-9.4,15.3L20,16V5z"/>
<path class="st2" d="M20,27.5V35l9.4-13L20,27.5z"/>
<path class="st3" d="M20,35v-7.5L10.6,22L20,35z"/>
<path class="st4" d="M20,25.8l9.4-5.5L20,16.1V25.8z"/>
<path class="st2" d="M10.6,20.3l9.4,5.5v-9.6L10.6,20.3z"/>
</svg>
