<?xml version="1.0" encoding="utf-8"?>
<!-- Generator: Adobe Illustrator 24.0.1, SVG Export Plug-In . SVG Version: 6.00 Build 0)  -->
<svg version="1.1" id="Layer_1" xmlns="http://www.w3.org/2000/svg" xmlns:xlink="http://www.w3.org/1999/xlink" x="0px" y="0px"
	 width="40px" height="40px" viewBox="0 0 40 40" style="enable-background:new 0 0 40 40;" xml:space="preserve">
<style type="text/css">
	.st0{fill:#A1A3AA;}
	.st1{opacity:0.7;fill:#A1A3AA;enable-background:new    ;}
</style>
<g>
	<path class="st0" d="M9.9,9.8c-1.3,1.3-1.3,3-0.5,4.1c0.6,1,1.7,1.6,2.7,1.6c2.4,0,4.5,2.1,4.5,4.5s-2.1,4.5-4.5,4.5
		C5.2,24.5,0,19,0,12.4C0,9.2,1.4,6,3.5,3.8C8.1-0.7,15.3-1,20,3c-2.9,2.4-4.5,5.7-4.5,9.4c0,2.4,2.1,4.5,4.5,4.5
		c-2.4,0-4.5-2.1-4.5-4.5l0,0c0-0.6-0.2-1.4-0.6-2.1c-0.5-0.6-0.8-1-1.6-1.3c-0.8-0.5-1.7-0.5-2.5,0C10.5,9.3,10.2,9.5,9.9,9.8z
		 M39,23c2.1,4.6,1,9.7-2.4,13.2C32,41,24.2,41.1,19.4,36.4c-2.4-2.2-3.7-5.4-3.7-8.7c0-2.4,1.7-4.5,4.1-4.5s4.5,1.7,4.5,4.1v0.2
		c0,1.4,0.8,2.5,2.1,3.2c0.8,0.5,1.7,0.5,2.5,0c0.8-0.5,1.4-1,1.7-1.7c0.8-1.7-0.2-3.8-1.7-4.5c-0.5-0.2-0.8-0.2-1.4-0.2
		c-2.4,0-4.5-2.1-4.5-4.5s2.1-4.5,4.5-4.5C32.8,15.7,37.2,18.6,39,23L39,23z"/>
	<path class="st1" d="M20,23.3c2.4,0,4.5,2.1,4.5,4.5c0,6.8-5.4,12.1-12.1,12.1c-3.3,0-6.4-1.4-8.7-3.8C-1,31.3-1,23.5,4.1,18.9
		c2.2-2.2,5.4-3.3,8.4-3.3c2.4,0,4.5,2.1,4.5,4.5s-2.1,4.5-4.5,4.5l0,0c-0.6,0-1.4,0.2-2.1,0.6c-0.6,0.5-1,0.8-1.3,1.6
		c-0.6,1.3-0.2,2.7,0.6,3.8l0,0c1.3,1.3,3,1.4,4.5,0.5c1-0.6,1.6-1.7,1.6-2.9C15.7,25.4,17.6,23.3,20,23.3z M38.5,6.6
		c3,6,0.8,13.4-5.2,16.4c-1.7,0.8-3.5,1.4-5.6,1.4c-2.4,0-4.5-2.1-4.5-4.5s2.1-4.5,4.5-4.5c1.4,0,2.5-0.8,3.2-2.1
		c0.5-1,0.5-2.1-0.2-2.7c-0.8-1.6-3-2.4-4.6-1.4c-0.2,0-0.2,0.2-0.5,0.2c-1,0.6-1.6,1.7-1.6,2.7c0,2.4-1.7,4.3-4.1,4.3
		s-4.5-1.7-4.5-4.1v-0.2c0-6.7,5.4-12.1,12.1-12.1c2.5,0,5.2,0.8,7.2,2.4l0,0C36.6,3.8,37.7,5.1,38.5,6.6L38.5,6.6z"/>
</g>
</svg>
