<?xml version="1.0" encoding="utf-8"?>
<!-- Generator: Adobe Illustrator 24.0.1, SVG Export Plug-In . SVG Version: 6.00 Build 0)  -->
<svg version="1.1" id="Layer_1" xmlns="http://www.w3.org/2000/svg" xmlns:xlink="http://www.w3.org/1999/xlink" x="0px" y="0px"
	 width="40px" height="40px" viewBox="0 0 40 40" style="enable-background:new 0 0 40 40;" xml:space="preserve">
<style type="text/css">
	.st0{fill:#0FDB97;}
	.st1{fill:url(#SVGID_1_);}
	.st2{fill:#FFFFFF;}
	.st3{opacity:0.7;fill:#FFFFFF;enable-background:new    ;}
</style>
<path class="st0" d="M25,40H15C6.8,40,0,33.3,0,25V15C0,6.8,6.8,0,15,0h10c8.3,0,15,6.8,15,15v10C40,33.3,33.3,40,25,40z"/>
<linearGradient id="SVGID_1_" gradientUnits="userSpaceOnUse" x1="9.0907" y1="40.8954" x2="30.9093" y2="3.1046" gradientTransform="matrix(1 0 0 -1 0 42)">
	<stop  offset="0" style="stop-color:#FFFFFF;stop-opacity:0.5"/>
	<stop  offset="1" style="stop-color:#FFFFFF;stop-opacity:0"/>
</linearGradient>
<path class="st1" d="M25,40H15C6.8,40,0,33.3,0,25V15C0,6.8,6.8,0,15,0h10c8.3,0,15,6.8,15,15v10C40,33.3,33.3,40,25,40z"/>
<g>
	<path class="st2" d="M13.6,13.6c-0.8,0.8-0.8,1.9-0.3,2.6c0.4,0.6,1.1,1,1.7,1c1.5,0,2.8,1.3,2.8,2.8s-1.3,2.8-2.8,2.8
		c-4.3,0-7.6-3.4-7.6-7.6c0-2,0.9-4,2.2-5.4C12.5,7,17,6.8,20,9.3c-1.8,1.5-2.8,3.6-2.8,5.9c0,1.5,1.3,2.8,2.8,2.8
		c-1.5,0-2.8-1.3-2.8-2.8l0,0c0-0.4-0.1-0.9-0.4-1.3c-0.3-0.4-0.5-0.6-1-0.8c-0.5-0.3-1.1-0.3-1.6,0C14,13.3,13.8,13.4,13.6,13.6z
		 M31.9,21.9c1.3,2.9,0.6,6.1-1.5,8.3c-2.9,3-7.8,3.1-10.8,0.1c-1.5-1.4-2.3-3.4-2.3-5.5c0-1.5,1.1-2.8,2.6-2.8
		c1.5,0,2.8,1.1,2.8,2.6v0.1c0,0.9,0.5,1.6,1.3,2c0.5,0.3,1.1,0.3,1.6,0c0.5-0.3,0.9-0.6,1.1-1.1c0.5-1.1-0.1-2.4-1.1-2.8
		c-0.3-0.1-0.5-0.1-0.9-0.1c-1.5,0-2.8-1.3-2.8-2.8s1.3-2.8,2.8-2.8C28,17.3,30.8,19.1,31.9,21.9L31.9,21.9z"/>
	<path class="st3" d="M20,22.1c1.5,0,2.8,1.3,2.8,2.8c0,4.3-3.4,7.6-7.6,7.6c-2.1,0-4-0.9-5.5-2.4c-2.9-3-2.9-7.9,0.3-10.8
		c1.4-1.4,3.4-2.1,5.3-2.1c1.5,0,2.8,1.3,2.8,2.8c0,1.5-1.3,2.8-2.8,2.8l0,0c-0.4,0-0.9,0.1-1.3,0.4c-0.4,0.3-0.6,0.5-0.8,1
		c-0.4,0.8-0.1,1.7,0.4,2.4l0,0c0.8,0.8,1.9,0.9,2.8,0.3c0.6-0.4,1-1.1,1-1.8C17.3,23.4,18.5,22.1,20,22.1z M31.6,11.6
		c1.9,3.8,0.5,8.4-3.3,10.3c-1.1,0.5-2.2,0.9-3.5,0.9c-1.5,0-2.8-1.3-2.8-2.8s1.3-2.8,2.8-2.8c0.9,0,1.6-0.5,2-1.3
		c0.3-0.6,0.3-1.3-0.1-1.7c-0.5-1-1.9-1.5-2.9-0.9c-0.1,0-0.1,0.1-0.3,0.1c-0.6,0.4-1,1.1-1,1.7c0,1.5-1.1,2.7-2.6,2.7
		s-2.8-1.1-2.8-2.6v-0.1c0-4.2,3.4-7.6,7.6-7.6c1.6,0,3.3,0.5,4.5,1.5l0,0C30.4,9.8,31.1,10.6,31.6,11.6L31.6,11.6z"/>
</g>
</svg>
