<?xml version="1.0" encoding="utf-8"?>
<!-- Generator: Adobe Illustrator 23.0.0, SVG Export Plug-In . SVG Version: 6.00 Build 0)  -->
<svg version="1.1" id="Layer_1" xmlns="http://www.w3.org/2000/svg" xmlns:xlink="http://www.w3.org/1999/xlink" x="0px" y="0px"
	 width="32px" height="32px" viewBox="0 0 32 32" style="enable-background:new 0 0 32 32;" xml:space="preserve">
<style type="text/css">
	.st0{fill:#123F6E;}
	.st1{fill:url(#SVGID_1_);}
	.st2{fill:#FFFFFF;}
</style>
<path class="st0" d="M20,32h-8C5.4,32,0,26.6,0,20v-8C0,5.4,5.4,0,12,0h8c6.6,0,12,5.4,12,12v8C32,26.6,26.6,32,20,32z"/>
<linearGradient id="SVGID_1_" gradientUnits="userSpaceOnUse" x1="7.2726" y1="33.1163" x2="24.7274" y2="2.8837" gradientTransform="matrix(1 0 0 -1 0 34)">
	<stop  offset="0" style="stop-color:#FFFFFF;stop-opacity:0.45"/>
	<stop  offset="1" style="stop-color:#FFFFFF;stop-opacity:0"/>
</linearGradient>
<path class="st1" d="M20,32h-8C5.4,32,0,26.6,0,20v-8C0,5.4,5.4,0,12,0h8c6.6,0,12,5.4,12,12v8C32,26.6,26.6,32,20,32z"/>
<g id="layer101">
	<path class="st2" d="M7,20.7c-0.8-1.4-1.6-3-2-3.5c-0.3-0.6-0.6-1-0.6-1.1c0,0,0.8-1.5,1.8-3.3s1.9-3.3,2-3.5l0.2-0.3h4l4,0l1,1.7
		c0.5,1,1.4,2.5,1.9,3.5l1,1.7l-0.8,1.5c-0.7,1.3-0.9,1.5-1,1.4c-0.1-0.1-1.3-2.3-3.1-5.6L14.7,12h-2.3h-2.3l-1.1,2
		c-0.6,1.1-1.1,2-1.1,2.1c0,0,0.8,0.1,1.8,0.1h1.8l0.8,1.5c0.5,0.8,0.8,1.5,0.8,1.5c0,0-0.8,0.1-1.8,0.1l-1.8,0l0.3,0.5l0.3,0.5H12
		h1.8l0.7,1.3c0.4,0.7,0.8,1.4,0.8,1.5l0.1,0.2h-3.5H8.4L7,20.7z"/>
	<path class="st2" d="M16.4,23c0-0.1-0.1-0.2-0.1-0.2c0,0-0.1,0-0.1-0.1c0,0-0.2-0.4-0.4-0.7c-0.2-0.4-0.5-1-0.7-1.3
		c-0.2-0.4-0.4-0.8-0.5-0.9c-0.1-0.1-0.3-0.4-0.4-0.6c-0.1-0.2-0.2-0.4-0.3-0.5c0,0-0.2-0.4-0.5-0.8C13.3,17.4,13,17,13,17
		c0,0-0.1-0.2-0.3-0.4l-0.2-0.4l0.2-0.3c0.5-0.9,0.9-1.6,0.9-1.7c0,0,0-0.1,0.1-0.1c0,0,0.2-0.2,0.3-0.5c0.1-0.2,0.2-0.5,0.3-0.5
		s0.1,0.1,0.2,0.3c0.1,0.1,0.1,0.3,0.2,0.3s0.2,0.3,0.4,0.6c0.2,0.3,0.3,0.6,0.4,0.6c0,0,0.1,0.1,0.1,0.1c0,0,0.2,0.4,0.4,0.7
		c0.2,0.4,0.5,0.9,0.6,1.2c0.2,0.3,0.4,0.8,0.6,1.1c0.2,0.3,0.5,0.8,0.6,1c0.1,0.3,0.3,0.6,0.4,0.7l0.1,0.2h2.3h2.3l0.2-0.5
		c0.1-0.3,0.4-0.8,0.6-1.2l0.4-0.7l1.7,0c1.1,0,1.7,0,1.7,0.1c0,0.1-0.4,0.8-0.8,1.5c-0.1,0.2-0.4,0.7-0.6,1
		c-0.2,0.3-0.5,0.9-0.7,1.3c-0.2,0.4-0.4,0.7-0.4,0.7c0,0,0,0.1-0.1,0.1c0,0-0.2,0.2-0.2,0.4l-0.2,0.4h-4.1
		C16.5,23.2,16.5,23.2,16.4,23z"/>
	<path class="st2" d="M25.6,14.2c-1.4,0-1.5,0-1.6-0.2c-0.1-0.1-0.1-0.2-0.2-0.2c0,0-0.2-0.3-0.4-0.6c-0.2-0.3-0.3-0.6-0.4-0.6
		c0,0-0.1-0.2-0.2-0.3l-0.1-0.3l-1.8,0l-1.8,0l-0.3-0.5c-0.2-0.3-0.3-0.6-0.4-0.6s-0.2-0.3-0.3-0.6c-0.6-0.9-0.7-1.2-0.6-1.3
		c0.1-0.1,6.7-0.1,6.9,0c0.1,0,0.3,0.3,0.4,0.5c0.1,0.3,0.3,0.5,0.3,0.5c0,0,0.2,0.3,0.4,0.6c0.2,0.3,0.3,0.6,0.4,0.6
		c0,0,0.2,0.3,0.3,0.5c0.1,0.3,0.3,0.6,0.4,0.6c0.1,0.1,0.2,0.4,0.4,0.6c0.1,0.3,0.3,0.6,0.4,0.6c0.1,0.1,0.1,0.2,0.1,0.4
		C27.5,14.3,27.6,14.3,25.6,14.2z"/>
</g>
</svg>
