<?xml version="1.0" encoding="utf-8"?>
<!-- Generator: Adobe Illustrator 24.0.1, SVG Export Plug-In . SVG Version: 6.00 Build 0)  -->
<svg version="1.1" id="Layer_1" xmlns="http://www.w3.org/2000/svg" xmlns:xlink="http://www.w3.org/1999/xlink" x="0px" y="0px"
	 width="40px" height="40px" viewBox="0 0 40 40" style="enable-background:new 0 0 40 40;" xml:space="preserve">
<style type="text/css">
	.st0{fill:#A1A3AA;}
</style>
<g id="layer101">
	<path class="st0" d="M4.5,27.9c-1.4-2.3-2.7-5.2-3.4-6C0.5,20.7,0,20.1,0,19.9c0,0,1.4-2.6,3.2-5.6s3.3-5.6,3.4-6L7,7.7h6.8h6.8
		l1.8,2.9c0.8,1.8,2.5,4.2,3.3,6l1.8,2.9l-1.4,2.6c-1.2,2.2-1.5,2.6-1.8,2.5c-0.1-0.1-2.2-4-5.3-9.6l-1.4-2.1h-4h-4l-1.9,3.4
		c-1.1,1.9-1.9,3.4-1.9,3.6c0,0,1.4,0.1,3,0.1h3.2l1.4,2.6c0.8,1.4,1.4,2.6,1.4,2.6s-1.4,0.1-3.2,0.1H8.5L9,26.2L9.6,27H13h3.2
		l1.2,2.2c0.7,1.2,1.4,2.5,1.4,2.6l0.1,0.4h-6h-6L4.5,27.9z"/>
	<path class="st0" d="M20.5,31.8c0-0.1-0.1-0.4-0.1-0.4s-0.1,0-0.1-0.1c0,0-0.4-0.7-0.7-1.2c-0.4-0.7-0.8-1.8-1.2-2.2
		c-0.4-0.7-0.7-1.4-0.8-1.5c-0.1-0.1-0.5-0.7-0.7-1.1c-0.1-0.4-0.4-0.7-0.5-0.8c0,0-0.4-0.7-0.8-1.4c-0.1-0.8-0.7-1.5-0.7-1.5
		s-0.1-0.4-0.5-0.7l-0.4-0.7l0.4-0.5c0.8-1.5,1.5-2.7,1.5-2.9c0,0,0-0.1,0.1-0.1c0,0,0.4-0.4,0.5-0.8c0.1-0.4,0.4-0.8,0.5-0.8
		c0.1,0,0.1,0.1,0.4,0.5c0.1,0.1,0.1,0.5,0.4,0.5c0.3,0,0.4,0.5,0.7,1.1s0.5,1.1,0.7,1.1l0.1,0.1c0,0,0.4,0.7,0.7,1.2
		c0.4,0.7,0.8,1.5,1.1,2.1c0.4,0.5,0.7,1.4,1.1,1.9s0.8,1.4,1.1,1.8c0.1,0.5,0.5,1.1,0.7,1.2l0.1,0.4h4h4l0.4-0.8
		c0.1-0.5,0.7-1.4,1.1-2.1l0.7-1.2h2.9c1.9,0,2.9,0,2.9,0.1c0,0.1-0.7,1.4-1.4,2.6c-0.1,0.4-0.7,1.2-1.1,1.8
		c-0.4,0.5-0.8,1.5-1.2,2.2c-0.4,0.7-0.7,1.2-0.7,1.2s0,0.1-0.1,0.1c0,0-0.4,0.4-0.4,0.7l-0.4,0.7h-7C20.7,32.1,20.7,32.1,20.5,31.8
		z"/>
	<path class="st0" d="M36.3,16.8c-2.5,0-2.6,0-2.7-0.4c-0.1-0.1-0.1-0.4-0.4-0.4c0,0-0.4-0.5-0.7-1.1c-0.4-0.5-0.5-1.1-0.7-1.1
		c0,0-0.1-0.3-0.4-0.5l0-0.3h-3h-3.2l-0.5-0.8C24.2,11.6,24.1,11,24,11c-0.1,0-0.4-0.5-0.5-1.1c-1.1-1.5-1.2-2.1-1.1-2.2
		c0.1-0.1,11.5-0.1,11.8,0c0.1,0,0.5,0.5,0.7,0.8c0.1,0.5,0.5,0.8,0.5,0.8s0.4,0.5,0.7,1.1c0.4,0.5,0.5,1.1,0.7,1.1
		c0,0,0.4,0.5,0.5,0.8c0.1,0.5,0.5,1.1,0.7,1.1c0.1,0.1,0.4,0.7,0.7,1.1c0.1,0.5,0.5,1.1,0.7,1.1c0.1,0.1,0.1,0.4,0.1,0.7
		C39.6,16.9,39.7,16.9,36.3,16.8z"/>
</g>
</svg>
