<?xml version="1.0" encoding="utf-8"?>
<!-- Generator: Adobe Illustrator 24.0.1, SVG Export Plug-In . SVG Version: 6.00 Build 0)  -->
<svg version="1.1" id="Layer_1" xmlns="http://www.w3.org/2000/svg" xmlns:xlink="http://www.w3.org/1999/xlink" x="0px" y="0px"
	 width="40px" height="40px" viewBox="0 0 40 40" style="enable-background:new 0 0 40 40;" xml:space="preserve">
<style type="text/css">
	.st0{fill:#123F6E;}
	.st1{fill:url(#SVGID_1_);}
	.st2{fill:#FFFFFF;}
</style>
<path class="st0" d="M25,40H15C6.8,40,0,33.3,0,25V15C0,6.8,6.8,0,15,0h10c8.3,0,15,6.8,15,15v10C40,33.3,33.3,40,25,40z"/>
<linearGradient id="SVGID_1_" gradientUnits="userSpaceOnUse" x1="9.0907" y1="267.1046" x2="30.9093" y2="304.8954" gradientTransform="matrix(1 0 0 1 0 -266)">
	<stop  offset="0" style="stop-color:#FFFFFF;stop-opacity:0.45"/>
	<stop  offset="1" style="stop-color:#FFFFFF;stop-opacity:0"/>
</linearGradient>
<path class="st1" d="M25,40H15C6.8,40,0,33.3,0,25V15C0,6.8,6.8,0,15,0h10c8.3,0,15,6.8,15,15v10C40,33.3,33.3,40,25,40z"/>
<g id="layer101">
	<path class="st2" d="M8.8,25.9c-1-1.7-2-3.8-2.5-4.4c-0.4-0.8-0.8-1.3-0.8-1.4c0,0,1-1.9,2.3-4.1s2.4-4.1,2.5-4.4l0.3-0.4h5h5
		l1.3,2.1c0.6,1.3,1.8,3.1,2.4,4.4l1.3,2.1l-1,1.9c-0.9,1.6-1.1,1.9-1.3,1.8c-0.1-0.1-1.6-2.9-3.9-7L18.4,15h-2.9h-2.9l-1.4,2.5
		c-0.8,1.4-1.4,2.5-1.4,2.6c0,0,1,0.1,2.2,0.1h2.3l1,1.9c0.6,1,1,1.9,1,1.9s-1,0.1-2.3,0.1h-2.3l0.4,0.6l0.4,0.6H15h2.3l0.9,1.6
		c0.5,0.9,1,1.8,1,1.9l0.1,0.3h-4.4h-4.4L8.8,25.9z"/>
	<path class="st2" d="M20.5,28.8c0-0.1-0.1-0.3-0.1-0.3s-0.1,0-0.1-0.1c0,0-0.3-0.5-0.5-0.9c-0.3-0.5-0.6-1.3-0.9-1.6
		c-0.3-0.5-0.5-1-0.6-1.1c-0.1-0.1-0.4-0.5-0.5-0.8c-0.1-0.3-0.3-0.5-0.4-0.6c0,0-0.3-0.5-0.6-1c-0.1-0.6-0.5-1.1-0.5-1.1
		s-0.1-0.3-0.4-0.5l-0.3-0.5l0.3-0.4c0.6-1.1,1.1-2,1.1-2.1c0,0,0-0.1,0.1-0.1c0,0,0.3-0.3,0.4-0.6c0.1-0.3,0.3-0.6,0.4-0.6
		s0.1,0.1,0.3,0.4c0.1,0.1,0.1,0.4,0.3,0.4s0.3,0.4,0.5,0.8s0.4,0.8,0.5,0.8l0.1,0.1c0,0,0.3,0.5,0.5,0.9c0.3,0.5,0.6,1.1,0.8,1.5
		c0.3,0.4,0.5,1,0.8,1.4c0.3,0.4,0.6,1,0.8,1.3c0.1,0.4,0.4,0.8,0.5,0.9l0.1,0.3h2.9h2.9l0.3-0.6c0.1-0.4,0.5-1,0.8-1.5l0.5-0.9h2.1
		c1.4,0,2.1,0,2.1,0.1c0,0.1-0.5,1-1,1.9c-0.1,0.3-0.5,0.9-0.8,1.3c-0.3,0.4-0.6,1.1-0.9,1.6c-0.3,0.5-0.5,0.9-0.5,0.9
		s0,0.1-0.1,0.1c0,0-0.3,0.3-0.3,0.5l-0.3,0.5h-5.1C20.6,29,20.6,29,20.5,28.8z"/>
	<path class="st2" d="M32,17.8c-1.8,0-1.9,0-2-0.3c-0.1-0.1-0.1-0.3-0.3-0.3c0,0-0.3-0.4-0.5-0.8c-0.3-0.4-0.4-0.8-0.5-0.8
		c0,0-0.1-0.2-0.3-0.4L28.4,15h-2.2h-2.3l-0.4-0.6c-0.3-0.4-0.4-0.8-0.5-0.8s-0.3-0.4-0.4-0.8c-0.8-1.1-0.9-1.5-0.8-1.6
		c0.1-0.1,8.4-0.1,8.6,0c0.1,0,0.4,0.4,0.5,0.6c0.1,0.4,0.4,0.6,0.4,0.6s0.3,0.4,0.5,0.8c0.3,0.4,0.4,0.8,0.5,0.8
		c0,0,0.3,0.4,0.4,0.6c0.1,0.4,0.4,0.8,0.5,0.8c0.1,0.1,0.3,0.5,0.5,0.8c0.1,0.4,0.4,0.8,0.5,0.8c0.1,0.1,0.1,0.3,0.1,0.5
		C34.4,17.9,34.5,17.9,32,17.8z"/>
</g>
</svg>
