<?xml version="1.0" encoding="utf-8"?>
<!-- Generator: Adobe Illustrator 23.0.0, SVG Export Plug-In . SVG Version: 6.00 Build 0)  -->
<svg version="1.1" id="Layer_1" xmlns="http://www.w3.org/2000/svg" xmlns:xlink="http://www.w3.org/1999/xlink" x="0px" y="0px"
	 width="32px" height="32px" viewBox="0 0 32 32" style="enable-background:new 0 0 32 32;" xml:space="preserve">
<style type="text/css">
	.st0{fill:#1E2744;}
	.st1{fill:url(#SVGID_1_);}
	.st2{fill:#FFFFFF;}
</style>
<path class="st0" d="M20,32h-8C5.4,32,0,26.6,0,20v-8C0,5.4,5.4,0,12,0h8c6.6,0,12,5.4,12,12v8C32,26.6,26.6,32,20,32z"/>
<linearGradient id="SVGID_1_" gradientUnits="userSpaceOnUse" x1="7.2726" y1="33.1163" x2="24.7274" y2="2.8837" gradientTransform="matrix(1 0 0 -1 0 34)">
	<stop  offset="0" style="stop-color:#FFFFFF;stop-opacity:0.5"/>
	<stop  offset="1" style="stop-color:#FFFFFF;stop-opacity:0"/>
</linearGradient>
<path class="st1" d="M20,32h-8C5.4,32,0,26.6,0,20v-8C0,5.4,5.4,0,12,0h8c6.6,0,12,5.4,12,12v8C32,26.6,26.6,32,20,32z"/>
<g id="fet">
	<path class="st2" d="M6.2,25.7c0.2-1,1.6-1.2,1.6-0.1c0,0.4-0.4,0.8-0.9,0.9C6.2,26.6,6,26.4,6.2,25.7z"/>
	<path class="st2" d="M12.4,25.7c0.2-1,1.6-1.2,1.6-0.1c0,0.4-0.4,0.8-0.9,0.9C12.4,26.6,12.2,26.4,12.4,25.7z"/>
	<path class="st2" d="M18.6,25.7c0.2-1,1.6-1.2,1.6-0.1c0,0.4-0.4,0.8-0.9,0.9C18.7,26.6,18.5,26.4,18.6,25.7z"/>
	<path class="st2" d="M24.8,25.7c0.1-0.5,0.5-0.9,0.9-0.9c1.1,0,0.9,1.4-0.1,1.6C24.9,26.6,24.7,26.4,24.8,25.7z"/>
	<path class="st2" d="M5.6,19.4c0-1.3,0.1-1.4,1.4-1.4s1.4,0.1,1.4,1.4c0,1.3-0.1,1.4-1.4,1.4S5.6,20.7,5.6,19.4z"/>
	<path class="st2" d="M12.4,19.5c0.1-0.5,0.5-0.9,0.9-0.9c1.1,0,0.9,1.4-0.1,1.6C12.4,20.4,12.2,20.2,12.4,19.5z"/>
	<path class="st2" d="M18.6,19.5c0.2-1,1.6-1.2,1.6-0.1c0,0.4-0.4,0.8-0.9,0.9C18.7,20.4,18.5,20.2,18.6,19.5z"/>
	<path class="st2" d="M24.8,19.5c0.2-1,1.6-1.2,1.6-0.1c0,0.4-0.4,0.8-0.9,0.9C24.9,20.4,24.7,20.2,24.8,19.5z"/>
	<path class="st2" d="M5.6,13.2c0-1.3,0.1-1.4,1.4-1.4s1.4,0.1,1.4,1.4S8.3,14.6,7,14.6S5.6,14.4,5.6,13.2z"/>
	<path class="st2" d="M11.8,13.2c0-1.3,0.1-1.4,1.4-1.4s1.4,0.1,1.4,1.4s-0.1,1.4-1.4,1.4S11.8,14.4,11.8,13.2z"/>
	<path class="st2" d="M18.6,13.3c0.2-1,1.6-1.2,1.6-0.1c0,0.4-0.4,0.8-0.9,0.9C18.7,14.2,18.5,14,18.6,13.3z"/>
	<path class="st2" d="M24.8,13.3c0.2-1,1.6-1.2,1.6-0.1c0,0.4-0.4,0.8-0.9,0.9C24.9,14.2,24.7,14,24.8,13.3z"/>
	<path class="st2" d="M5.6,6.9c0-1.3,0.1-1.4,1.4-1.4s1.4,0.1,1.4,1.4S8.3,8.4,7,8.4S5.6,8.2,5.6,6.9z"/>
	<path class="st2" d="M11.8,6.9c0-1.3,0.1-1.4,1.4-1.4s1.4,0.1,1.4,1.4s-0.1,1.4-1.4,1.4S11.8,8.2,11.8,6.9z"/>
	<path class="st2" d="M18,6.9c0-1.3,0.1-1.4,1.4-1.4c1.3,0,1.4,0.1,1.4,1.4s-0.1,1.4-1.4,1.4C18.2,8.4,18,8.2,18,6.9z"/>
	<path class="st2" d="M24.8,7.1c0.2-1,1.6-1.2,1.6-0.1c0,0.4-0.4,0.8-0.9,0.9C24.9,7.9,24.7,7.7,24.8,7.1z"/>
</g>
</svg>
