<?xml version="1.0" encoding="utf-8"?>
<!-- Generator: Adobe Illustrator 24.0.1, SVG Export Plug-In . SVG Version: 6.00 Build 0)  -->
<svg version="1.1" id="Layer_1" xmlns="http://www.w3.org/2000/svg" xmlns:xlink="http://www.w3.org/1999/xlink" x="0px" y="0px"
	 width="40px" height="40px" viewBox="0 0 40 40" style="enable-background:new 0 0 40 40;" xml:space="preserve">
<style type="text/css">
	.st0{fill:#A1A3AA;}
</style>
<g id="fet">
	<path class="st0" d="M1.5,38.4c0.3-2,3-2.3,3-0.2c0,0.8-0.8,1.5-1.7,1.7C1.5,40.2,1,39.8,1.5,38.4z"/>
	<path class="st0" d="M13.1,38.4c0.3-2,3-2.3,3-0.2c0,0.8-0.8,1.5-1.7,1.7C13.1,40.2,12.8,39.8,13.1,38.4z"/>
	<path class="st0" d="M25,38.4c0.5-2,3-2.3,3-0.2c0,0.8-0.8,1.5-1.7,1.7C25.1,40.2,24.7,39.8,25,38.4z"/>
	<path class="st0" d="M36.7,38.4c0.2-0.9,0.9-1.7,1.7-1.7c2.1,0,1.7,2.6-0.2,3C36.8,40.2,36.5,39.8,36.7,38.4z"/>
	<path class="st0" d="M0.2,26.6c0-2.4,0.2-2.7,2.7-2.7s2.7,0.2,2.7,2.7c0,2.4-0.2,2.7-2.7,2.7S0.2,29,0.2,26.6z"/>
	<path class="st0" d="M13.1,26.7c0.2-0.9,0.9-1.7,1.7-1.7c2.1,0,1.7,2.7-0.2,3C13.1,28.4,12.8,28.1,13.1,26.7z"/>
	<path class="st0" d="M25,26.7c0.5-2,3-2.3,3-0.2c0,0.8-0.8,1.5-1.7,1.7C25.1,28.4,24.7,28.1,25,26.7z"/>
	<path class="st0" d="M36.7,26.7c0.5-2,3-2.3,3-0.2c0,0.8-0.8,1.5-1.7,1.7C36.8,28.4,36.5,28.1,36.7,26.7z"/>
	<path class="st0" d="M0.2,14.7C0.2,12.3,0.4,12,3,12s2.7,0.2,2.7,2.7c0,2.6-0.2,2.7-2.7,2.7S0.2,17,0.2,14.7z"/>
	<path class="st0" d="M12.1,14.7c0-2.4,0.2-2.7,2.7-2.7s2.7,0.2,2.7,2.7c0,2.6-0.2,2.7-2.7,2.7S12.1,17,12.1,14.7z"/>
	<path class="st0" d="M25,14.9c0.5-2,3-2.3,3-0.2c0,0.8-0.8,1.5-1.7,1.7C25.1,16.7,24.7,16.2,25,14.9z"/>
	<path class="st0" d="M36.7,14.9c0.5-2,3-2.3,3-0.2c0,0.8-0.8,1.5-1.7,1.7C36.8,16.7,36.5,16.2,36.7,14.9z"/>
	<path class="st0" d="M0.2,2.7c0-2.4,0.2-2.6,2.7-2.6s2.7,0.2,2.7,2.7S5.6,5.8,3,5.8S0.2,5.3,0.2,2.7z"/>
	<path class="st0" d="M12.1,2.7c0-2.4,0.2-2.7,2.7-2.7s2.7,0.2,2.7,2.7s-0.2,2.7-2.7,2.7S12.1,5.3,12.1,2.7z"/>
	<path class="st0" d="M23.8,2.7c0-2.4,0.2-2.7,2.7-2.7c2.4,0.2,2.6,0.3,2.6,2.7s-0.2,2.7-2.7,2.7C24.2,5.6,23.8,5.3,23.8,2.7z"/>
	<path class="st0" d="M36.7,3.2c0.5-2,3-2.3,3-0.2c0,0.8-0.8,1.5-1.7,1.7C36.8,4.7,36.5,4.2,36.7,3.2z"/>
</g>
</svg>
