<?xml version="1.0" encoding="utf-8"?>
<!-- Generator: Adobe Illustrator 24.0.1, SVG Export Plug-In . SVG Version: 6.00 Build 0)  -->
<svg version="1.1" id="Layer_1" xmlns="http://www.w3.org/2000/svg" xmlns:xlink="http://www.w3.org/1999/xlink" x="0px" y="0px"
	 width="40px" height="40px" viewBox="0 0 40 40" style="enable-background:new 0 0 40 40;" xml:space="preserve">
<style type="text/css">
	.st0{fill:#1E2744;}
	.st1{fill:url(#SVGID_1_);}
	.st2{fill:#FFFFFF;}
</style>
<path class="st0" d="M25,40H15C6.8,40,0,33.3,0,25V15C0,6.8,6.8,0,15,0h10c8.3,0,15,6.8,15,15v10C40,33.3,33.3,40,25,40z"/>
<linearGradient id="SVGID_1_" gradientUnits="userSpaceOnUse" x1="9.0907" y1="267.1046" x2="30.9093" y2="304.8954" gradientTransform="matrix(1 0 0 1 0 -266)">
	<stop  offset="0" style="stop-color:#FFFFFF;stop-opacity:0.5"/>
	<stop  offset="1" style="stop-color:#FFFFFF;stop-opacity:0"/>
</linearGradient>
<path class="st1" d="M25,40H15C6.8,40,0,33.3,0,25V15C0,6.8,6.8,0,15,0h10c8.3,0,15,6.8,15,15v10C40,33.3,33.3,40,25,40z"/>
<g id="fet">
	<path class="st2" d="M7.8,32.1c0.2-1.3,2-1.5,2-0.1c0,0.5-0.5,1-1.1,1.1C7.8,33.3,7.5,33,7.8,32.1z"/>
	<path class="st2" d="M15.5,32.1c0.2-1.3,2-1.5,2-0.1c0,0.5-0.5,1-1.1,1.1C15.5,33.3,15.3,33,15.5,32.1z"/>
	<path class="st2" d="M23.3,32.1c0.3-1.3,2-1.5,2-0.1c0,0.5-0.5,1-1.1,1.1C23.4,33.3,23.1,33,23.3,32.1z"/>
	<path class="st2" d="M31,32.1c0.1-0.6,0.6-1.1,1.1-1.1c1.4,0,1.1,1.7-0.1,2C31.1,33.3,30.9,33,31,32.1z"/>
	<path class="st2" d="M7,24.3c0-1.6,0.1-1.8,1.8-1.8s1.8,0.1,1.8,1.8c0,1.6-0.1,1.8-1.8,1.8S7,25.9,7,24.3z"/>
	<path class="st2" d="M15.5,24.4c0.1-0.6,0.6-1.1,1.1-1.1c1.4,0,1.1,1.8-0.1,2C15.5,25.5,15.3,25.3,15.5,24.4z"/>
	<path class="st2" d="M23.3,24.4c0.3-1.3,2-1.5,2-0.1c0,0.5-0.5,1-1.1,1.1C23.4,25.5,23.1,25.3,23.3,24.4z"/>
	<path class="st2" d="M31,24.4c0.3-1.3,2-1.5,2-0.1c0,0.5-0.5,1-1.1,1.1C31.1,25.5,30.9,25.3,31,24.4z"/>
	<path class="st2" d="M7,16.5c0-1.6,0.1-1.8,1.8-1.8s1.8,0.1,1.8,1.8s-0.1,1.8-1.8,1.8S7,18,7,16.5z"/>
	<path class="st2" d="M14.8,16.5c0-1.6,0.1-1.8,1.8-1.8s1.8,0.1,1.8,1.8s-0.1,1.8-1.8,1.8S14.8,18,14.8,16.5z"/>
	<path class="st2" d="M23.3,16.6c0.3-1.3,2-1.5,2-0.1c0,0.5-0.5,1-1.1,1.1C23.4,17.8,23.1,17.5,23.3,16.6z"/>
	<path class="st2" d="M31,16.6c0.3-1.3,2-1.5,2-0.1c0,0.5-0.5,1-1.1,1.1C31.1,17.8,30.9,17.5,31,16.6z"/>
	<path class="st2" d="M7,8.6C7,7,7.1,6.9,8.8,6.9s1.8,0.1,1.8,1.8s-0.1,1.9-1.8,1.9S7,10.3,7,8.6z"/>
	<path class="st2" d="M14.8,8.6c0-1.6,0.1-1.8,1.8-1.8s1.8,0.1,1.8,1.8s-0.1,1.8-1.8,1.8S14.8,10.3,14.8,8.6z"/>
	<path class="st2" d="M22.5,8.6c0-1.6,0.1-1.8,1.8-1.8C25.9,6.9,26,7,26,8.6s-0.1,1.8-1.8,1.8C22.8,10.5,22.5,10.3,22.5,8.6z"/>
	<path class="st2" d="M31,8.9c0.3-1.3,2-1.5,2-0.1c0,0.5-0.5,1-1.1,1.1C31.1,9.9,30.9,9.6,31,8.9z"/>
</g>
</svg>
