<?xml version="1.0" encoding="utf-8"?>
<!-- Generator: Adobe Illustrator 24.0.1, SVG Export Plug-In . SVG Version: 6.00 Build 0)  -->
<svg version="1.1" id="Layer_1" xmlns="http://www.w3.org/2000/svg" xmlns:xlink="http://www.w3.org/1999/xlink" x="0px" y="0px"
	 width="40px" height="40px" viewBox="0 0 40 40" style="enable-background:new 0 0 40 40;" xml:space="preserve">
<style type="text/css">
	.st0{fill:#001D57;}
	.st1{fill:url(#SVGID_1_);}
	.st2{fill:#FFFFFF;}
</style>
<path class="st0" d="M25,40H15C6.8,40,0,33.3,0,25V15C0,6.8,6.8,0,15,0h10c8.3,0,15,6.8,15,15v10C40,33.3,33.3,40,25,40z"/>
<linearGradient id="SVGID_1_" gradientUnits="userSpaceOnUse" x1="9.0907" y1="40.8954" x2="30.9093" y2="3.1046" gradientTransform="matrix(1 0 0 -1 0 42)">
	<stop  offset="0" style="stop-color:#FFFFFF;stop-opacity:0.5"/>
	<stop  offset="1" style="stop-color:#FFFFFF;stop-opacity:0"/>
</linearGradient>
<path class="st1" d="M25,40H15C6.8,40,0,33.3,0,25V15C0,6.8,6.8,0,15,0h10c8.3,0,15,6.8,15,15v10C40,33.3,33.3,40,25,40z"/>
<path class="st2" d="M25,6.3l1.5,1.5l-3,3c0.6,1,1,2.1,1,3.3c0,1.5-0.6,3-1.6,4c-0.8,0.9-1.8,1.4-2.9,1.6v2.6
	c1.1,0.3,2.1,0.8,2.9,1.6c1,1.1,1.6,2.5,1.6,4.1c0,1.5-0.6,3-1.6,4.1c-1,1.1-2.5,1.8-4,1.8s-3-0.6-4-1.8s-1.6-2.5-1.6-4.1
	c0-1.5,0.6-3,1.6-4c0.8-0.9,1.8-1.4,2.9-1.6v-2.6c-1.1-0.3-2.1-0.8-2.9-1.6c-1-1.1-1.6-2.5-1.6-4.1c0-1.5,0.6-3,1.6-4.1
	s2.5-1.8,4-1.8c1.1,0,2.1,0.4,3.1,1L25,6.3L25,6.3z M19,24.5c-0.9,0-1.8,0.4-2.4,1s-1,1.6-1,2.5c0,1,0.4,1.9,1,2.5s1.5,1,2.4,1
	s1.8-0.4,2.4-1s1-1.6,1-2.5c0-1-0.4-1.9-1-2.5S19.9,24.5,19,24.5z M21.4,16.6c0.6-0.6,1-1.6,1-2.5s-0.4-1.9-1-2.5s-1.5-1-2.4-1
	c-0.9,0-1.7,0.4-2.4,1s-1,1.6-1,2.5c0,1,0.4,1.9,1,2.5s1.5,1,2.4,1C19.9,17.6,20.8,17.3,21.4,16.6z"/>
</svg>
