<?xml version="1.0" encoding="utf-8"?>
<!-- Generator: Adobe Illustrator 24.0.1, SVG Export Plug-In . SVG Version: 6.00 Build 0)  -->
<svg version="1.1" id="Layer_1" xmlns="http://www.w3.org/2000/svg" xmlns:xlink="http://www.w3.org/1999/xlink" x="0px" y="0px"
	 width="40px" height="40px" viewBox="0 0 40 40" style="enable-background:new 0 0 40 40;" xml:space="preserve">
<style type="text/css">
	.st0{fill:#A1A3AA;}
</style>
<path class="st0" d="M20,0C9.1,0,0,9.1,0,20s9.1,20,20,20s20-9.1,20-20S31.1,0,20,0z M20,37.9c-9.9,0-17.9-8-17.9-17.9
	S10.1,2.1,20,2.1s17.9,8,17.9,17.9S29.9,37.9,20,37.9z"/>
<path class="st0" d="M28.5,13.3c-0.5-1.1-0.8-2.8-1.9-3.3c-1.3-0.5-2.4,3.1-2.5,3.9H24c-0.4-1.5-0.8-3.7-2.5-4.1
	c-0.8,3.3,0.8,6.8,2.4,9.7c1.7-0.8,2.3-3.2,2.5-4.8h0.1l1.7,4.9c1.3-0.3,1.9-1.7,2.4-3.1c1.1-2.7,2-5.9,1.3-8.7
	C29.5,8.7,29.1,11.5,28.5,13.3 M8.4,20c1.9-0.8,2.7-3.5,3.1-5.5h0.1c0.1,0.8,0.8,3.2,1.9,3.3c1.5,0.1,2.1-3.1,2.3-4h0.1
	c0.5,1.5,1.1,3.6,2.5,4.4c0.7-2.5-0.1-5.1-1.1-7.3c-0.1-0.7-0.7-2.1-1.5-2.1c-1.3,0-2,3.5-2.4,4.5h-0.1l-1.7-5.1
	C8.7,9.7,7.2,17.2,8.4,20 M5.2,22.5C7.3,32,17.6,37.6,26.5,33.3c3.3-1.5,6-4.1,7.5-7.3c0.4-0.8,1.2-2.4,0.7-3.5s-4.8,0.7-5.9,1.2
	c-0.1,0-0.4,0.1-0.4,0.4c0,0.5,0.4,0.8,0.7,1.1l0,0l1.9,0.1c-3.3,6.3-12.1,9.2-18.5,4.1c-1.3-1.2-2.7-2.5-3.5-4.1
	c-0.4-0.8-0.8-1.9-1.5-2.4C7.1,22.5,6,22.4,5.2,22.5L5.2,22.5z"/>
</svg>
