<?xml version="1.0" encoding="utf-8"?>
<!-- Generator: Adobe Illustrator 24.0.1, SVG Export Plug-In . SVG Version: 6.00 Build 0)  -->
<svg version="1.1" id="Layer_1" xmlns="http://www.w3.org/2000/svg" xmlns:xlink="http://www.w3.org/1999/xlink" x="0px" y="0px"
	 width="40px" height="40px" viewBox="0 0 40 40" style="enable-background:new 0 0 40 40;" xml:space="preserve">
<style type="text/css">
	.st0{fill:#C9C023;}
	.st1{fill:url(#SVGID_1_);}
	.st2{fill:#FFFFFF;}
</style>
<path class="st0" d="M25,40H15C6.8,40,0,33.3,0,25V15C0,6.8,6.8,0,15,0h10c8.3,0,15,6.8,15,15v10C40,33.3,33.3,40,25,40z"/>
<linearGradient id="SVGID_1_" gradientUnits="userSpaceOnUse" x1="9.0907" y1="267.1046" x2="30.9093" y2="304.8954" gradientTransform="matrix(1 0 0 1 0 -266)">
	<stop  offset="0" style="stop-color:#FFFFFF;stop-opacity:0.5"/>
	<stop  offset="1" style="stop-color:#FFFFFF;stop-opacity:0"/>
</linearGradient>
<path class="st1" d="M25,40H15C6.8,40,0,33.3,0,25V15C0,6.8,6.8,0,15,0h10c8.3,0,15,6.8,15,15v10C40,33.3,33.3,40,25,40z"/>
<path class="st2" d="M20,5C11.8,5,5,11.8,5,20s6.8,15,15,15s15-6.8,15-15S28.3,5,20,5z M20,33.4c-7.4,0-13.4-6-13.4-13.4
	S12.6,6.6,20,6.6s13.4,6,13.4,13.4S27.4,33.4,20,33.4z"/>
<path class="st2" d="M26.4,15c-0.4-0.8-0.6-2.1-1.4-2.5c-1-0.4-1.8,2.3-1.9,2.9H23c-0.3-1.1-0.6-2.8-1.9-3.1
	c-0.6,2.5,0.6,5.1,1.8,7.3c1.3-0.6,1.7-2.4,1.9-3.6h0.1l1.3,3.7c1-0.2,1.4-1.3,1.8-2.3c0.8-2,1.5-4.4,1-6.5
	C27.1,11.5,26.8,13.6,26.4,15 M11.3,20c1.4-0.6,2-2.6,2.3-4.1h0.1c0.1,0.6,0.6,2.4,1.4,2.5c1.1,0.1,1.6-2.3,1.7-3h0.1
	c0.4,1.1,0.8,2.7,1.9,3.3c0.5-1.9-0.1-3.8-0.8-5.5c-0.1-0.5-0.5-1.6-1.1-1.6c-1,0-1.5,2.6-1.8,3.4H15l-1.3-3.8
	C11.5,12.3,10.4,17.9,11.3,20 M8.9,21.9c1.6,7.1,9.3,11.3,16,8.1c2.5-1.1,4.5-3.1,5.6-5.5c0.3-0.6,0.9-1.8,0.5-2.6s-3.6,0.5-4.4,0.9
	c-0.1,0-0.3,0.1-0.3,0.3c0,0.4,0.3,0.6,0.5,0.8l0,0l1.4,0.1c-2.5,4.7-9.1,6.9-13.9,3.1c-1-0.9-2-1.9-2.6-3.1
	c-0.3-0.6-0.6-1.4-1.1-1.8C10.3,21.9,9.5,21.8,8.9,21.9L8.9,21.9z"/>
</svg>
