<?xml version="1.0" encoding="utf-8"?>
<!-- Generator: Adobe Illustrator 24.0.1, SVG Export Plug-In . SVG Version: 6.00 Build 0)  -->
<svg version="1.1" id="Layer_1" xmlns="http://www.w3.org/2000/svg" xmlns:xlink="http://www.w3.org/1999/xlink" x="0px" y="0px"
	 width="40px" height="40px" viewBox="0 0 40 40" style="enable-background:new 0 0 40 40;" xml:space="preserve">
<style type="text/css">
	.st0{fill:#A1A3AA;}
</style>
<path class="st0" d="M2.4,30.1c0.3,0,0.7,0,1.1,0c0.7,0,1.4-0.1,2.1-0.4c1.4-0.4,2.7-1.1,3.7-2c0.4-0.1,0.7-0.6,0.9-0.7
	c0.7-0.7,1.3-1.4,1.6-2.1c0.3-0.7,0.7-1.4,0.9-2.1v-0.1H9.7c-0.6,0-1.3,0-1.9-0.1H7.7l0,0c0.1-0.4,0.4-0.7,0.6-1.1L9.4,19
	c0-0.1,0-0.1,0.1-0.4c0,0,0.1-0.1,0.4-0.1c0.9,0,1.9,0,2.7,0h0.1c0-0.1,0-0.1,0-0.4c-0.4-1.3-0.9-2.3-1.6-3.4
	c-0.3-0.6-0.7-0.9-1.3-1.4c-0.6-0.6-1.3-0.9-1.9-1.4c-0.7-0.3-1.4-0.6-2.1-0.9c-0.7-0.1-1.3-0.4-2-0.4c-0.6,0-1.1,0-1.6-0.1
	c-0.1,0-0.1,0-0.4,0c0,0-0.1,0-0.1-0.1s-0.3-0.4-0.4-1c0-0.8-0.3-1.4-0.5-1.8C0.8,7,0.5,6.7,0.4,6.3l0.4-0.1C1.5,6,2.4,6,3.1,6
	c1.3,0,2.6,0.1,3.7,0.6C7.6,7,8.6,7.3,9.3,7.5c1.1,0.4,2.1,1.1,3,1.6c0.4,0.4,0.9,0.6,1.3,0.9c0.1,0.1,0.3,0.4,0.6,0.6
	c0.9,0.9,1.6,1.9,2.3,2.9c0.7,1.1,1.1,2.1,1.4,3.4c0.1,0.4,0.1,0.9,0.1,1.3c0,0,0,0.1,0.1,0.1h3.6c0-0.4,0.1-0.6,0.1-0.9
	c0.1-0.9,0.6-1.6,0.9-2.6c0.4-0.7,0.7-1.3,1.1-1.7c0.4-0.6,0.7-1.1,1.3-1.6c0.4-0.3,0.7-0.7,1.1-1.1c0.7-0.7,1.6-1.3,2.6-1.9
	c0.9-0.6,1.9-1.1,2.9-1.4c0.7-0.1,1.4-0.3,2-0.6c0.6-0.1,1.1-0.1,1.6-0.4c0.4,0,0.9-0.1,1.3-0.1s0.6,0,0.9,0c0.4,0,0.9,0,1.3,0
	c0.4,0,0.9,0.1,1.3,0.1l0,0l-0.4,0.7c-0.4,0.7-0.7,1.4-0.9,2.3c-0.1,0.4-0.1,0.6-0.4,0.9c0,0.1-0.1,0.1-0.4,0.1c-0.1,0-0.1,0-0.4,0
	c-1.7,0-3.6,0.3-5.3,1.3c-0.7,0.4-1.4,0.9-2.1,1.4c-0.1,0.1-0.6,0.6-0.9,0.7c-0.7,0.7-1.3,1.4-1.6,2.1S27,17,26.8,17.7v0.1h0.1
	c0.9,0,2,0,2.9,0c0.6,0,1.1,0,1.6,0.1l0,0l-0.6,1.4c-0.4,0.9-0.7,1.6-1.1,2.6c-0.1,0.1-0.1,0.4-0.6,0.4h-2.7c0,0.1,0.1,0.6,0.1,0.7
	c0.1,0.7,0.6,1.4,1.1,2.1c0.4,0.4,0.6,0.7,0.9,1.1c0.1,0.1,0.4,0.4,0.6,0.6c0.7,0.7,1.4,1.3,2.1,1.6c0.7,0.4,1.4,0.7,2.1,0.9
	c0.7,0.1,1.4,0.4,2.3,0.6l1.4,0.1c0.1,0,0.4,0,0.6,0c0,0,0,0,0.1,0c0.4,0.7,0.6,1.4,0.9,2.1l0.7,1.9c-0.1,0-0.6,0.1-0.7,0.1
	c-0.6,0-1.3,0-1.9,0c-0.6,0-1.1,0-1.6-0.1c-0.7-0.1-1.4-0.1-2.1-0.4c-0.9-0.1-1.9-0.6-2.6-0.9c-1.1-0.4-2-0.9-2.9-1.6
	c-0.6-0.4-0.9-0.7-1.4-1.1c-0.4-0.1-0.6-0.6-0.9-0.7c-1.1-1.1-2.1-2.4-2.7-4c-0.4-0.9-0.7-1.9-0.9-2.7c0-0.1,0-0.1,0-0.4
	c0-0.1,0-0.1-0.1-0.1H18c-0.1,0.9-0.6,2-0.9,2.9c-0.4,0.7-0.7,1.4-1.3,2.1c-0.4,0.6-0.7,1.1-1.3,1.6c-0.4,0.4-0.7,0.7-1.1,1.1
	c-0.6,0.6-1.1,0.9-1.9,1.4c-0.7,0.6-1.4,0.9-2.3,1.3c-1.4,0.7-3,1.3-4.7,1.4c-0.6,0-1.1,0.1-1.6,0.1s-0.7,0-0.9,0
	c-0.6,0-0.9,0-1.4,0c-0.1,0-0.3,0-0.6,0c-0.1,0-0.1,0,0-0.1c0.4-0.9,0.7-1.6,1.1-2.6C2.1,31.1,2.2,30.7,2.4,30.1L2.4,30.1z"/>
</svg>
