<?xml version="1.0" encoding="utf-8"?>
<!-- Generator: Adobe Illustrator 24.0.1, SVG Export Plug-In . SVG Version: 6.00 Build 0)  -->
<svg version="1.1" id="Layer_1" xmlns="http://www.w3.org/2000/svg" xmlns:xlink="http://www.w3.org/1999/xlink" x="0px" y="0px"
	 width="40px" height="40px" viewBox="0 0 40 40" style="enable-background:new 0 0 40 40;" xml:space="preserve">
<style type="text/css">
	.st0{fill:#00838D;}
	.st1{fill:url(#SVGID_1_);}
	.st2{fill:#FFFFFF;}
</style>
<path class="st0" d="M25,40H15C6.8,40,0,33.3,0,25V15C0,6.8,6.8,0,15,0h10c8.3,0,15,6.8,15,15v10C40,33.3,33.3,40,25,40z"/>
<linearGradient id="SVGID_1_" gradientUnits="userSpaceOnUse" x1="9.0907" y1="267.1046" x2="30.9093" y2="304.8954" gradientTransform="matrix(1 0 0 1 0 -266)">
	<stop  offset="0" style="stop-color:#FFFFFF;stop-opacity:0.5"/>
	<stop  offset="1" style="stop-color:#FFFFFF;stop-opacity:0"/>
</linearGradient>
<path class="st1" d="M25,40H15C6.8,40,0,33.3,0,25V15C0,6.8,6.8,0,15,0h10c8.3,0,15,6.8,15,15v10C40,33.3,33.3,40,25,40z"/>
<path class="st2" d="M7.6,26.9c0.2,0,0.5,0,0.8,0c0.5,0,1-0.1,1.5-0.3c1-0.3,1.9-0.8,2.6-1.4c0.3-0.1,0.5-0.4,0.6-0.5
	c0.5-0.5,0.9-1,1.1-1.5c0.2-0.5,0.5-1,0.6-1.5v-0.1h-2c-0.4,0-0.9,0-1.3-0.1h-0.1l0,0c0.1-0.3,0.3-0.5,0.4-0.8l0.8-1.8
	c0-0.1,0-0.1,0.1-0.3c0,0,0.1-0.1,0.3-0.1c0.6,0,1.3,0,1.9,0H15c0-0.1,0-0.1,0-0.3c-0.3-0.9-0.6-1.6-1.1-2.4c-0.2-0.4-0.5-0.6-0.9-1
	c-0.4-0.4-0.9-0.6-1.3-1c-0.5-0.2-1-0.4-1.5-0.6c-0.5-0.1-0.9-0.3-1.4-0.3c-0.4,0-0.8,0-1.1-0.1c-0.1,0-0.1,0-0.3,0
	c0,0-0.1,0-0.1-0.1C7.3,12.6,7.1,12.4,7,12c-0.1-0.2-0.3-0.6-0.4-0.9c-0.1-0.4-0.3-0.6-0.4-0.9l0.3-0.1C7,10,7.6,10,8.1,10
	c0.9,0,1.8,0.1,2.6,0.4c0.6,0.3,1.3,0.5,1.8,0.6c0.8,0.3,1.5,0.8,2.1,1.1c0.3,0.3,0.6,0.4,0.9,0.6c0.1,0.1,0.2,0.3,0.4,0.4
	c0.6,0.6,1.1,1.3,1.6,2c0.5,0.8,0.8,1.5,1,2.4c0.1,0.3,0.1,0.6,0.1,0.9c0,0,0,0.1,0.1,0.1h2.5c0-0.3,0.1-0.4,0.1-0.6
	c0.1-0.6,0.4-1.1,0.6-1.8c0.3-0.5,0.5-0.9,0.8-1.2c0.3-0.4,0.5-0.8,0.9-1.1c0.3-0.2,0.5-0.5,0.8-0.8c0.5-0.5,1.1-0.9,1.8-1.3
	c0.6-0.4,1.3-0.8,2-1c0.5-0.1,1-0.2,1.4-0.4c0.4-0.1,0.8-0.1,1.1-0.3c0.3,0,0.6-0.1,0.9-0.1c0.3,0,0.4,0,0.6,0c0.3,0,0.6,0,0.9,0
	s0.6,0.1,0.9,0.1l0,0l-0.3,0.5c-0.3,0.5-0.5,1-0.6,1.6c-0.1,0.3-0.1,0.4-0.3,0.6c0,0.1-0.1,0.1-0.3,0.1c-0.1,0-0.1,0-0.3,0
	c-1.2,0-2.5,0.2-3.7,0.9c-0.5,0.3-1,0.6-1.5,1c-0.1,0.1-0.4,0.4-0.6,0.5c-0.5,0.5-0.9,1-1.1,1.5s-0.5,1-0.6,1.5v0.1h0.1
	c0.6,0,1.4,0,2,0c0.4,0,0.8,0,1.1,0.1l0,0l-0.4,1c-0.3,0.6-0.5,1.1-0.8,1.8c-0.1,0.1-0.1,0.3-0.4,0.3h-1.9c0,0.1,0.1,0.4,0.1,0.5
	c0.1,0.5,0.4,1,0.8,1.5c0.3,0.3,0.4,0.5,0.6,0.8c0.1,0.1,0.3,0.3,0.4,0.4c0.5,0.5,1,0.9,1.5,1.1c0.5,0.3,1,0.5,1.5,0.6
	c0.5,0.1,1,0.3,1.6,0.4l1,0.1c0.1,0,0.3,0,0.4,0c0,0,0,0,0.1,0c0.3,0.5,0.4,1,0.6,1.5l0.5,1.3c-0.1,0-0.4,0.1-0.5,0.1
	c-0.4,0-0.9,0-1.3,0s-0.8,0-1.1-0.1c-0.5-0.1-1-0.1-1.5-0.3c-0.6-0.1-1.3-0.4-1.8-0.6c-0.8-0.3-1.4-0.6-2-1.1
	c-0.4-0.3-0.6-0.5-1-0.8c-0.3-0.1-0.4-0.4-0.6-0.5c-0.8-0.8-1.5-1.7-1.9-2.8c-0.3-0.6-0.5-1.3-0.6-1.9c0-0.1,0-0.1,0-0.3
	c0-0.1,0-0.1-0.1-0.1h-2.5c-0.1,0.6-0.4,1.4-0.6,2c-0.3,0.5-0.5,1-0.9,1.5c-0.3,0.4-0.5,0.8-0.9,1.1c-0.3,0.3-0.5,0.5-0.8,0.8
	c-0.4,0.4-0.8,0.6-1.3,1c-0.5,0.4-1,0.6-1.6,0.9c-1,0.5-2.1,0.9-3.3,1c-0.4,0-0.8,0.1-1.1,0.1c-0.3,0-0.5,0-0.6,0c-0.4,0-0.6,0-1,0
	c-0.1,0-0.2,0-0.4,0c-0.1,0-0.1,0,0-0.1c0.3-0.6,0.5-1.1,0.8-1.8C7.4,27.6,7.5,27.3,7.6,26.9L7.6,26.9z"/>
</svg>
