<?xml version="1.0" encoding="utf-8"?>
<!-- Generator: Adobe Illustrator 23.0.0, SVG Export Plug-In . SVG Version: 6.00 Build 0)  -->
<svg version="1.1" id="Layer_1" xmlns="http://www.w3.org/2000/svg" xmlns:xlink="http://www.w3.org/1999/xlink" x="0px" y="0px"
	 width="32px" height="32px" viewBox="0 0 32 32" style="enable-background:new 0 0 32 32;" xml:space="preserve">
<style type="text/css">
	.st0{fill:#00838D;}
	.st1{fill:url(#SVGID_1_);}
	.st2{fill:#FFFFFF;}
</style>
<path class="st0" d="M20,32h-8C5.4,32,0,26.6,0,20v-8C0,5.4,5.4,0,12,0h8c6.6,0,12,5.4,12,12v8C32,26.6,26.6,32,20,32z"/>
<linearGradient id="SVGID_1_" gradientUnits="userSpaceOnUse" x1="7.2726" y1="33.1163" x2="24.7274" y2="2.8837" gradientTransform="matrix(1 0 0 -1 0 34)">
	<stop  offset="0" style="stop-color:#FFFFFF;stop-opacity:0.5"/>
	<stop  offset="1" style="stop-color:#FFFFFF;stop-opacity:0"/>
</linearGradient>
<path class="st1" d="M20,32h-8C5.4,32,0,26.6,0,20v-8C0,5.4,5.4,0,12,0h8c6.6,0,12,5.4,12,12v8C32,26.6,26.6,32,20,32z"/>
<path class="st2" d="M6.1,21.5c0.2,0,0.4,0,0.6,0c0.4,0,0.8-0.1,1.2-0.2c0.8-0.2,1.5-0.6,2.1-1.1c0.2-0.1,0.4-0.3,0.5-0.4
	c0.4-0.4,0.7-0.8,0.9-1.2c0.2-0.4,0.4-0.8,0.5-1.2c0,0,0-0.1,0-0.1h-1.6c-0.3,0-0.7,0-1-0.1c0,0-0.1,0-0.1,0c0,0,0,0,0,0
	c0.1-0.2,0.2-0.4,0.3-0.6l0.6-1.4c0-0.1,0-0.1,0.1-0.2c0,0,0.1-0.1,0.2-0.1c0.5,0,1,0,1.5,0h0.1c0-0.1,0-0.1,0-0.2
	c-0.2-0.7-0.5-1.3-0.9-1.9c-0.2-0.3-0.4-0.5-0.7-0.8c-0.3-0.3-0.7-0.5-1-0.8C9,11,8.6,10.9,8.2,10.7c-0.4-0.1-0.7-0.2-1.1-0.2
	c-0.3,0-0.6,0-0.9-0.1c-0.1,0-0.1,0-0.2,0c0,0-0.1,0-0.1-0.1c-0.1-0.2-0.2-0.4-0.3-0.7C5.5,9.4,5.4,9.1,5.3,8.9
	C5.2,8.6,5.1,8.4,5,8.2l0.2-0.1c0.4-0.1,0.9-0.1,1.3-0.1c0.7,0,1.4,0.1,2.1,0.3C9.1,8.5,9.6,8.7,10,8.8c0.6,0.2,1.2,0.6,1.7,0.9
	c0.2,0.2,0.5,0.3,0.7,0.5c0.1,0.1,0.2,0.2,0.3,0.3c0.5,0.5,0.9,1,1.3,1.6c0.4,0.6,0.6,1.2,0.8,1.9c0.1,0.2,0.1,0.5,0.1,0.7
	c0,0,0,0.1,0.1,0.1h2c0-0.2,0.1-0.3,0.1-0.5c0.1-0.5,0.3-0.9,0.5-1.4c0.2-0.4,0.4-0.7,0.6-1c0.2-0.3,0.4-0.6,0.7-0.9
	c0.2-0.2,0.4-0.4,0.6-0.6c0.4-0.4,0.9-0.7,1.4-1c0.5-0.3,1-0.6,1.6-0.8c0.4-0.1,0.8-0.2,1.1-0.3c0.3-0.1,0.6-0.1,0.9-0.2
	c0.2,0,0.5-0.1,0.7-0.1c0.2,0,0.3,0,0.5,0c0.2,0,0.5,0,0.7,0c0.2,0,0.5,0.1,0.7,0.1c0,0,0,0,0,0l-0.2,0.4c-0.2,0.4-0.4,0.8-0.5,1.3
	c-0.1,0.2-0.1,0.3-0.2,0.5c0,0.1-0.1,0.1-0.2,0.1c-0.1,0-0.1,0-0.2,0c-1,0-2,0.2-3,0.7c-0.4,0.2-0.8,0.5-1.2,0.8
	c-0.1,0.1-0.3,0.3-0.5,0.4c-0.4,0.4-0.7,0.8-0.9,1.2c-0.2,0.4-0.4,0.8-0.5,1.2c0,0,0,0.1,0,0.1h0.1c0.5,0,1.1,0,1.6,0
	c0.3,0,0.6,0,0.9,0.1c0,0,0,0,0,0L22,15.7c-0.2,0.5-0.4,0.9-0.6,1.4c-0.1,0.1-0.1,0.2-0.3,0.2h-1.5c0,0.1,0.1,0.3,0.1,0.4
	c0.1,0.4,0.3,0.8,0.6,1.2c0.2,0.2,0.3,0.4,0.5,0.6c0.1,0.1,0.2,0.2,0.3,0.3c0.4,0.4,0.8,0.7,1.2,0.9c0.4,0.2,0.8,0.4,1.2,0.5
	c0.4,0.1,0.8,0.2,1.3,0.3l0.8,0.1c0.1,0,0.2,0,0.3,0c0,0,0,0,0.1,0c0.2,0.4,0.3,0.8,0.5,1.2l0.4,1c-0.1,0-0.3,0.1-0.4,0.1
	c-0.3,0-0.7,0-1,0c-0.3,0-0.6,0-0.9-0.1c-0.4-0.1-0.8-0.1-1.2-0.2c-0.5-0.1-1-0.3-1.4-0.5c-0.6-0.2-1.1-0.5-1.6-0.9
	c-0.3-0.2-0.5-0.4-0.8-0.6c-0.2-0.1-0.3-0.3-0.5-0.4c-0.6-0.6-1.2-1.4-1.5-2.2c-0.2-0.5-0.4-1-0.5-1.5c0-0.1,0-0.1,0-0.2
	c0-0.1,0-0.1-0.1-0.1h-2c-0.1,0.5-0.3,1.1-0.5,1.6c-0.2,0.4-0.4,0.8-0.7,1.2c-0.2,0.3-0.4,0.6-0.7,0.9c-0.2,0.2-0.4,0.4-0.6,0.6
	c-0.3,0.3-0.6,0.5-1,0.8c-0.4,0.3-0.8,0.5-1.3,0.7c-0.8,0.4-1.7,0.7-2.6,0.8c-0.3,0-0.6,0.1-0.9,0.1c-0.2,0-0.4,0-0.5,0
	c-0.3,0-0.5,0-0.8,0c-0.1,0-0.2,0-0.3,0c-0.1,0-0.1,0,0-0.1c0.2-0.5,0.4-0.9,0.6-1.4C5.9,22.1,6,21.8,6.1,21.5L6.1,21.5z"/>
</svg>
