<?xml version="1.0" encoding="utf-8"?>
<!-- Generator: Adobe Illustrator 24.0.1, SVG Export Plug-In . SVG Version: 6.00 Build 0)  -->
<svg version="1.1" id="Layer_1" xmlns="http://www.w3.org/2000/svg" xmlns:xlink="http://www.w3.org/1999/xlink" x="0px" y="0px"
	 width="40px" height="40px" viewBox="0 0 40 40" style="enable-background:new 0 0 40 40;" xml:space="preserve">
<style type="text/css">
	.st0{fill:#1096A0;}
	.st1{fill:url(#SVGID_1_);}
	.st2{fill:#FFFFFF;}
</style>
<path class="st0" d="M25,40H15C6.8,40,0,33.3,0,25V15C0,6.8,6.8,0,15,0h10c8.3,0,15,6.8,15,15v10C40,33.3,33.3,40,25,40z"/>
<linearGradient id="SVGID_1_" gradientUnits="userSpaceOnUse" x1="9.0907" y1="40.8954" x2="30.9093" y2="3.1046" gradientTransform="matrix(1 0 0 -1 0 42)">
	<stop  offset="0" style="stop-color:#FFFFFF;stop-opacity:0.5"/>
	<stop  offset="1" style="stop-color:#FFFFFF;stop-opacity:0"/>
</linearGradient>
<path class="st1" d="M25,40H15C6.8,40,0,33.3,0,25V15C0,6.8,6.8,0,15,0h10c8.3,0,15,6.8,15,15v10C40,33.3,33.3,40,25,40z"/>
<path class="st2" d="M13.1,24.1c-2.3-3.8-1-8.6,2.8-10.9c2.5-1.5,5.6-1.5,8,0l2-2l0,0C21,8,14.4,9.4,11.3,14.3
	c-2.4,3.6-2.4,8.3,0.1,11.8L13.1,24.1z"/>
<circle class="st2" cx="31.4" cy="8.6" r="2.4"/>
<path class="st2" d="M26.9,16c2.3,3.8,1,8.6-2.8,10.9c-2.5,1.5-5.6,1.5-8,0l-2,1.9c4.9,3.3,11.4,2,14.6-2.8c2.4-3.6,2.4-8.3,0-11.9
	L26.9,16z"/>
<circle class="st2" cx="8.6" cy="31.4" r="2.4"/>
</svg>
