<?xml version="1.0" encoding="utf-8"?>
<!-- Generator: Adobe Illustrator 24.0.1, SVG Export Plug-In . SVG Version: 6.00 Build 0)  -->
<svg version="1.1" id="Layer_1" xmlns="http://www.w3.org/2000/svg" xmlns:xlink="http://www.w3.org/1999/xlink" x="0px" y="0px"
	 width="40px" height="40px" viewBox="0 0 40 40" style="enable-background:new 0 0 40 40;" xml:space="preserve">
<style type="text/css">
	.st0{fill:#A1A3AA;}
</style>
<path class="st0" d="M10,25.9c-3.3-5.5-1.4-12.5,4.1-15.8c3.6-2.2,8.1-2.2,11.6,0l2.9-2.9l0,0c-7.1-4.6-16.7-2.6-21.2,4.5
	c-3.5,5.2-3.5,12,0.1,17.1L10,25.9z"/>
<circle class="st0" cx="36.5" cy="3.5" r="3.5"/>
<path class="st0" d="M30,14.2c3.3,5.5,1.4,12.5-4.1,15.8c-3.6,2.2-8.1,2.2-11.6,0l-2.9,2.8c7.1,4.8,16.5,2.9,21.2-4.1
	c3.5-5.2,3.5-12,0-17.2L30,14.2z"/>
<circle class="st0" cx="3.5" cy="36.5" r="3.5"/>
</svg>
