<svg width="36" height="40" viewBox="0 0 36 40" fill="none" xmlns="http://www.w3.org/2000/svg">
<path d="M21 1.73205L32.3205 8.26795C34.1769 9.33974 35.3205 11.3205 35.3205 13.4641V26.5359C35.3205 28.6795 34.1769 30.6602 32.3205 31.732L21 38.2679C19.1436 39.3397 16.8564 39.3397 15 38.2679L3.67949 31.732C1.82308 30.6602 0.679489 28.6795 0.679489 26.5359V13.4641C0.679489 11.3205 1.82308 9.33974 3.67949 8.26795L15 1.73205C16.8564 0.660251 19.1436 0.660251 21 1.73205Z" fill="#252525"/>
<path style="mix-blend-mode:overlay" d="M21 1.73205L32.3205 8.26795C34.1769 9.33974 35.3205 11.3205 35.3205 13.4641V26.5359C35.3205 28.6795 34.1769 30.6602 32.3205 31.732L21 38.2679C19.1436 39.3397 16.8564 39.3397 15 38.2679L3.67949 31.732C1.82308 30.6602 0.679489 28.6795 0.679489 26.5359V13.4641C0.679489 11.3205 1.82308 9.33974 3.67949 8.26795L15 1.73205C16.8564 0.660251 19.1436 0.660251 21 1.73205Z" fill="url(#paint0_linear)"/>
<path fill-rule="evenodd" clip-rule="evenodd" d="M8.01794 15.3722C8.54243 15.1986 9.73464 15.1118 11.5946 15.1118C15.3532 15.1118 17.8338 15.2983 20.1157 16.9281C22.3976 18.5579 22.4463 20.8189 23.2461 21.4442C24.0458 22.0696 25.2775 23.6313 25.2775 24.1847C25.2775 24.738 24.1828 25.2898 23.4269 25.3926C23.7084 25.2184 23.8301 24.4735 23.8301 24.4735C23.8301 24.4735 22.1688 23.2637 18 22.8912C15.2352 22.6441 13.0059 24.5918 11.3122 28.7342C13.1655 30.1554 15.4841 31 18 31C24.0751 31 29 26.0751 29 20C29 13.9249 24.0751 9 18 9C13.578 9 9.76542 11.6093 8.01794 15.3722ZM19.088 18.277L20.0223 20.7022L21.3956 20.5571L19.088 18.277ZM18 32C11.3726 32 6 26.6274 6 20C6 13.3726 11.3726 8 18 8C24.6274 8 30 13.3726 30 20C30 26.6274 24.6274 32 18 32Z" fill="white"/>
<defs>
<linearGradient id="paint0_linear" x1="10.3063" y1="5.5099" x2="28.6589" y2="32.7678" gradientUnits="userSpaceOnUse">
<stop stop-color="white" stop-opacity="0.5"/>
<stop offset="1" stop-color="white" stop-opacity="0"/>
</linearGradient>
</defs>
</svg>
