<?xml version="1.0" encoding="utf-8"?>
<!-- Generator: Adobe Illustrator 24.0.1, SVG Export Plug-In . SVG Version: 6.00 Build 0)  -->
<svg version="1.1" id="Layer_1" xmlns="http://www.w3.org/2000/svg" xmlns:xlink="http://www.w3.org/1999/xlink" x="0px" y="0px"
	 width="40px" height="40px" viewBox="0 0 40 40" style="enable-background:new 0 0 40 40;" xml:space="preserve">
<style type="text/css">
	.st0{fill:#A1A3AA;}
</style>
<polygon class="st0" points="40,28.4 20.4,39.8 0,28.1 0,22.4 20.4,34 30.3,28.4 23.6,24.7 21.3,26 16.5,23.4 19,22 15.8,20.1 
	13.9,21.3 9.3,18.5 11.1,17.6 0.7,11.5 20.4,0.2 38.9,10.8 33.9,13.5 20.4,5.9 10.7,11.5 16,14.5 19,13 23.5,15.6 20.7,17.3 
	23.9,19.1 26.3,17.8 30.8,20.5 28.5,21.9 "/>
</svg>
