<?xml version="1.0" encoding="utf-8"?>
<!-- Generator: Adobe Illustrator 24.0.1, SVG Export Plug-In . SVG Version: 6.00 Build 0)  -->
<svg version="1.1" id="Layer_1" xmlns="http://www.w3.org/2000/svg" xmlns:xlink="http://www.w3.org/1999/xlink" x="0px" y="0px"
	 width="40px" height="40px" viewBox="0 0 40 40" style="enable-background:new 0 0 40 40;" xml:space="preserve">
<style type="text/css">
	.st0{fill:#A1A3AA;}
</style>
<path class="st0" d="M24.1,10.4c0.1,0.4,0.5,0.4,0.8,0.4c0,0,0.1,0,0.1-0.1c0.4-0.1,0.5-0.7,0.1-1.1c-0.1-0.1-0.4-0.3-0.7-0.3
	c-0.1,0-0.4,0-0.5,0.1C23.9,9.5,23.8,10,24.1,10.4 M22.1,8.5c0,0.1,0.1,0.5,0.4,0.7c0.4,0.4,1.1,0.4,1.3,0s0.4-1.1,0-1.3l0,0
	c-0.1-0.1-0.4-0.1-0.7-0.1c-0.4,0-0.5,0.1-0.7,0.4C22.1,8,22.1,8.2,22.1,8.5 M20.1,8c0.1,0.1,0.4,0.1,0.5,0.1c0.1,0,0.1,0,0.4,0
	c0.4,0,0.5-0.4,0.7-0.5c0.4-0.5,0.1-1.2-0.4-1.5c-0.1,0-0.4-0.1-0.5-0.1c-0.3,0-0.7,0.1-1.1,0.5C19.4,7.1,19.6,7.8,20.1,8 M17.2,7.4
	c0.1,0,0.5,0,0.7,0c0.7-0.1,1.1-0.8,0.8-1.5c-0.1-0.3-0.5-0.7-0.8-0.8c-0.1,0-0.1,0-0.4,0c-0.5,0-1.1,0.4-1.2,0.8
	C16.1,6.6,16.6,7.2,17.2,7.4 M13.6,7.5C14.4,7.5,15,7,15,6.2c0-0.4-0.1-0.8-0.3-1.1c-0.4-0.4-0.7-0.5-1.1-0.5l0,0
	c-0.8,0-1.3,0.7-1.5,1.3C12.2,6.7,12.9,7.4,13.6,7.5 M7.8,7.1c0.1,1.1,1.1,1.5,2,1.3c0.8-0.1,1.5-1.1,1.3-2C11,5.6,10,5.1,9.2,5.2
	C8.4,5.4,7.6,6.2,7.8,7.1L7.8,7.1 M24.2,13.3c0.4-0.4,0.4-1.1,0-1.3c-0.4-0.4-1.1-0.4-1.3,0c-0.4,0.4-0.4,1.1,0,1.3
	c0.1,0.1,0.4,0.1,0.7,0.1c0.1,0,0.1,0,0.4,0C24.1,13.5,24.2,13.5,24.2,13.3 M22.2,11.2c0-0.4-0.4-0.5-0.5-0.7
	c-0.1,0-0.4-0.1-0.5-0.1c-0.4,0-0.7,0.1-1.1,0.5c-0.3,0.5-0.1,1.2,0.4,1.5c0.1,0.1,0.5,0.1,0.8,0.1s0.5-0.4,0.7-0.5
	C22.2,11.7,22.5,11.3,22.2,11.2 M19.4,10.8c0.1-0.4,0-0.7-0.1-1.1s-0.5-0.5-0.7-0.5c-0.1,0-0.1,0-0.4,0c-0.5,0-1.1,0.4-1.2,0.8
	c-0.1,0.7,0.1,1.3,0.8,1.5C18.5,12,19.3,11.5,19.4,10.8 M16,10.5c0-0.4-0.1-0.8-0.4-1.1c-0.3-0.4-0.7-0.5-1.1-0.5l0,0
	c-0.7,0-1.3,0.7-1.5,1.3c0,0.8,0.5,1.5,1.3,1.5l0,0C15.3,11.9,15.8,11.2,16,10.5 M10.1,9.5c-1.1,0-1.7,0.7-1.7,1.7s0.7,1.7,1.7,1.7
	c0.1,0,0.4,0,0.5,0c0.8-0.4,1.3-1.2,1.2-2.1C11.4,10,10.8,9.5,10.1,9.5 M3.4,14c0.3,0.7,1.1,1.2,1.9,1.2c0.1,0,0.4,0,0.5,0H6
	C7,14.7,7.4,13.7,7,12.7c-0.5-1.1-1.5-1.5-2.5-1.1C3.6,11.9,3.2,13.1,3.4,14L3.4,14 M23.8,15.3c-0.1,0-0.4-0.1-0.5-0.1
	c-0.4,0-0.7,0.1-1.1,0.5c-0.4,0.5-0.1,1.2,0.4,1.5c0.1,0.1,0.5,0.1,0.8,0.1c0.5-0.1,0.8-0.8,0.7-1.3C24.1,15.7,23.9,15.5,23.8,15.3
	 M19.2,16c0.4,0.7,1.1,0.8,1.7,0.5c0.7-0.3,0.8-1.1,0.5-1.7c-0.1-0.3-0.5-0.5-0.7-0.5c-0.1,0-0.1,0-0.4,0c-0.5,0-1.1,0.4-1.2,0.8
	C18.9,15.3,18.9,15.7,19.2,16 M17.8,15.3c0-0.8-0.5-1.5-1.3-1.5l0,0c-0.7,0-1.3,0.7-1.5,1.3c0,0.8,0.5,1.5,1.3,1.5l0,0
	c0.1,0,0.4,0,0.4,0C17.4,16.4,17.8,15.9,17.8,15.3 M12.1,17.7c0.1,0,0.1,0,0.4,0h0.1c0.8-0.4,1.3-1.2,1.2-2s-1.2-1.3-2-1.2
	c-0.8,0.1-1.3,1.2-1.2,2C10.6,17.2,11.3,17.7,12.1,17.7 M9.2,18.7c0.1-0.5,0.1-1.1,0-1.5C8.8,16.5,8.1,16,7.3,16
	c-0.4,0-0.5,0-0.7,0.1c-0.5,0.1-0.8,0.5-1.1,1.1c-0.4,1.1,0,2.1,1.2,2.5c0,0.1,0.1,0.3,0.5,0.3c0.1,0,0.4,0,0.5,0
	C8.5,19.7,8.8,19.3,9.2,18.7 M4.1,20.4c-0.5-0.7-1.2-1.1-1.9-1.1c-0.1,0-0.5,0-0.7,0.1c-1.2,0.4-1.9,1.7-1.5,2.8s1.7,1.9,2.8,1.5
	c1.2-0.4,1.9-1.7,1.5-2.8C4.5,20.7,4.2,20.5,4.1,20.4 M28.7,28.4c0-0.4-0.4-0.7-0.8-0.7l0,0c-0.4,0-0.7,0.4-0.7,0.7v0.1
	c0,0.4,0.4,0.7,0.8,0.7l0,0c0.1,0,0.4-0.1,0.5-0.4C28.7,28.7,28.7,28.5,28.7,28.4 M29.3,27.5c-0.1,0.5,0.1,1.1,0.7,1.1
	s1.1-0.1,1.1-0.7c0-0.1,0-0.4,0-0.5c0-0.1-0.1-0.5-0.5-0.5c-0.3,0-0.4-0.1-0.4-0.1c-0.1,0-0.1,0-0.4,0
	C29.5,26.8,29.4,27.2,29.3,27.5 M31.4,26c-0.1,0.5,0.1,1.2,0.8,1.3c0.1,0,0.1,0,0.4,0s0.4,0,0.5-0.1c0.5-0.4,0.7-1.1,0.4-1.5
	c-0.1-0.4-0.5-0.5-0.8-0.5C32.1,25.2,31.5,25.5,31.4,26 M34.7,25.2c0.4,0,0.7-0.1,0.8-0.4c0.5-0.5,0.5-1.3,0-1.7
	c-0.1-0.1-0.5-0.4-0.8-0.4c-0.7,0-1.2,0.5-1.2,1.2C33.5,24.7,34.1,25.2,34.7,25.2L34.7,25.2z M38.1,21.7c0.5-0.7,0.1-1.5-0.5-2
	c-0.7-0.5-1.5-0.1-2,0.5l0,0l0,0c-0.1,0.1-0.1,0.3-0.1,0.4c-0.1,0.8,0.4,1.5,1.1,1.7c0.1,0,0.1,0,0.4,0C37.3,22.4,37.8,22,38.1,21.7
	 M38.9,15.2c-0.1,0-0.4-0.1-0.5-0.1c-0.7,0-1.3,0.5-1.5,1.2v0.1c-0.1,0.8,0.4,1.7,1.1,2c0.1,0,0.4,0.1,0.5,0.1
	c0.7,0,1.3-0.5,1.5-1.2C40.2,16.4,39.8,15.5,38.9,15.2 M25.3,25.9c-0.1,0.5,0.1,1.1,0.7,1.2h0.1c0.1,0,0.1,0,0.4,0
	c0.5-0.1,0.7-0.7,0.5-1.2c0-0.1-0.1-0.4-0.5-0.5l0,0c-0.1,0-0.4-0.1-0.4-0.1C25.5,25.2,25.3,25.5,25.3,25.9 M28.1,25.7
	c0.4,0,0.5,0,0.8-0.1c0.5-0.4,0.7-1.1,0.4-1.5c-0.1-0.4-0.5-0.5-0.8-0.5c-0.5,0-0.8,0.4-1.1,0.8c0,0.4,0,0.5,0.1,0.8
	C27.5,25.5,27.9,25.7,28.1,25.7 M30.7,23.7c0.4,0,0.7-0.1,0.8-0.4c0.5-0.5,0.5-1.2,0-1.7c-0.5-0.5-1.2-0.5-1.7,0s-0.5,1.2,0,1.7
	C30.1,23.5,30.5,23.7,30.7,23.7L30.7,23.7z M33.9,20c0.1-0.4,0.4-0.7,0.1-1.1c-0.1-0.8-0.8-1.3-1.7-1.2c-0.4,0-0.7,0.4-1.1,0.7
	c-0.5,0.7-0.1,1.5,0.5,2c0.1,0.1,0.5,0.1,0.8,0.1c0.1,0,0.1,0,0.4,0C33.4,20.7,33.8,20.4,33.9,20 M33.5,16.7
	c0.8,0.4,1.9-0.1,2.1-1.1c0.4-0.8-0.1-1.9-1.1-2.1c-0.8-0.3-1.9,0.1-2.1,1.1l0,0v0.1C32.5,15.5,32.9,16.4,33.5,16.7 M34.6,11.9h0.1
	c1.1,0,2-0.8,2-2c0-1.1-0.7-1.9-1.7-2h-0.1c-0.8,0-1.7,0.7-1.9,1.5v0.1c0,0.5,0,1.1,0.4,1.5C33.5,11.5,34.1,11.9,34.6,11.9
	 M24.2,24.1c0-0.4,0-0.5-0.1-0.8c-0.4-0.5-1.1-0.7-1.5-0.4c-0.1,0.1-0.4,0.4-0.5,0.7c0,0.4,0,0.5,0.1,0.8c0.4,0.5,1.1,0.7,1.5,0.4
	C24.1,24.7,24.2,24.5,24.2,24.1 M25.5,23.1L25.5,23.1c0.4,0,0.7-0.1,0.8-0.4c0.5-0.5,0.5-1.3,0-1.7c-0.5-0.5-1.2-0.5-1.7,0l0,0l0,0
	c-0.1,0.1-0.4,0.4-0.4,0.7c-0.1,0.7,0.1,1.3,0.8,1.5C25.4,23.1,25.4,23.1,25.5,23.1 M26.7,19.9c0.7,0.5,1.5,0.1,2-0.5l0,0
	c0.4-0.7,0.1-1.5-0.5-2c-0.7-0.5-1.5-0.1-2,0.5C25.9,18.5,26.1,19.3,26.7,19.9 M29.5,12.8c-0.8-0.4-1.9,0.1-2.1,1.1
	c-0.4,0.8,0.1,1.9,1.1,2.1l0,0c0.1,0,0.4,0.1,0.5,0.1c1.1,0,1.7-0.7,1.7-1.6C30.7,13.7,30.2,13.1,29.5,12.8 M29.9,7.4h-0.1
	c-0.8,0-1.7,0.7-1.9,1.5v0.1c-0.1,1.1,0.7,2,1.7,2.1l0,0h0.1c1.1,0,1.9-0.8,2-1.7C31.8,8.4,31.1,7.4,29.9,7.4L29.9,7.4 M29.1,5.4
	h0.1c1.3-0.1,2.1-1.3,2-2.5c0-1.2-1.1-2-2.1-2H29c-1.1,0.1-1.9,0.8-2,1.7c0,0.4,0,0.5,0,0.8C26.9,4.6,27.9,5.4,29.1,5.4 M10.9,21.5
	c-0.3-0.4-0.8-0.4-1.2,0l-0.1,0.1c-0.1,0.1-0.1,0.4,0,0.7c0,0.1,0.1,0.4,0.4,0.5c0.1,0,0.1,0,0.4,0l0,0c0.5,0,0.8-0.4,0.8-0.8
	C11.3,21.9,11.2,21.7,10.9,21.5 M10.1,23.5C9.6,23.3,9,23.6,9,24.1c-0.1,0.5,0.1,1.1,0.7,1.1c0.5,0.1,1.1-0.1,1.1-0.7l0,0
	C10.9,24,10.6,23.5,10.1,23.5L10.1,23.5 M10,28c0.5,0,1.1-0.5,1.1-1.1c0-0.4-0.1-0.5-0.3-0.7c-0.1-0.1-0.5-0.4-0.7-0.4
	c-0.3,0-0.5,0.1-0.8,0.4C9.2,26.4,9,26.8,9,26.9C8.9,27.7,9.4,28,10,28L10,28z M10.8,31.3c0.1,0,0.1,0,0.4,0
	c0.7-0.1,1.1-0.8,0.8-1.5c-0.1-0.5-0.7-1.1-1.2-1.1c-0.1,0-0.1,0-0.4,0c-0.7,0.1-1.1,0.8-0.8,1.5C9.8,31,10.2,31.3,10.8,31.3
	 M13.2,34.8c0.7-0.4,1.1-1.2,0.7-2c-0.4-0.7-1.2-1.1-2-0.7c-0.3,0.1-0.7,0.5-0.7,0.8c-0.1,0.4-0.1,0.8,0.1,1.2
	c0.4,0.5,0.8,0.8,1.3,0.8C12.8,35,12.9,34.8,13.2,34.8 M16.6,35.8C16.6,35.8,16.6,35.7,16.6,35.8c-0.8-0.8-1.9-0.8-2.5-0.1
	c-0.7,0.7-0.7,1.7,0,2.4c0.4,0.4,0.7,0.5,1.2,0.5c0.4,0,0.8-0.1,1.1-0.4C17.2,37.4,17.3,36.5,16.6,35.8 M13.6,20.7h-0.1
	c-0.5,0-0.8,0.4-1.1,0.8c-0.1,0.5,0.3,0.8,0.8,1.1c0.5,0,0.8-0.4,1.1-0.8C14.2,21.2,14,20.7,13.6,20.7 M13.4,25.3
	c0.7,0,1.1-0.5,1.1-1.2c0-0.4-0.1-0.5-0.4-0.7c-0.1-0.1-0.5-0.4-0.7-0.4l0,0c-0.4,0-0.5,0.1-0.7,0.4c-0.4,0.1-0.4,0.5-0.4,0.8
	C12.5,24.8,12.9,25.3,13.4,25.3L13.4,25.3z M13.2,26.7C13,27.1,13,27.3,13,27.7c0.1,0.5,0.7,1.1,1.2,1.1c0.1,0,0.1,0,0.3,0
	c0.7-0.1,1.1-0.8,0.8-1.5c-0.1-0.7-0.8-1.1-1.5-0.8c-0.1,0-0.5,0.1-0.5,0.4C13.3,26.5,13.2,26.7,13.2,26.7 M14.6,30.4
	c-0.1,0.4-0.1,0.8,0.1,1.2c0.3,0.5,0.8,0.8,1.3,0.8l0,0c0.1,0,0.5,0,0.7-0.1c0.7-0.4,1.1-1.2,0.7-2c0-0.1-0.1-0.4-0.4-0.4
	c-0.4-0.4-0.7-0.4-1.1-0.4c-0.1,0-0.5,0-0.7,0.1C14.9,29.7,14.6,29.8,14.6,30.4 M20.1,33C20,33,20,33,20.1,33
	c-0.5-0.5-0.8-0.7-1.3-0.7c-1.1,0-1.7,0.8-1.7,1.7c0,0.4,0.1,0.8,0.4,1.1c0.4,0.4,0.8,0.7,1.3,0.7c0.4,0,0.8-0.1,1.1-0.4
	C20.6,34.8,20.6,33.7,20.1,33 M24.2,35.8l-0.1-0.1c-0.4-0.4-0.8-0.4-1.2-0.4c-0.1,0-0.1,0-0.4,0c-1.1,0.1-1.9,1.2-1.7,2.1
	c0.1,1.1,1.2,1.9,2.1,1.7c1.1-0.1,1.9-1.2,1.7-2.1C24.7,36.5,24.6,36.1,24.2,35.8 M16.6,21.2c0.7,0,1.1-0.5,1.1-1.1
	c0-0.4-0.1-0.5-0.4-0.7c-0.3-0.1-0.5-0.3-0.7-0.3c-0.5,0-1.1,0.5-1.1,0.9l0,0l0,0C15.6,20.7,16.1,21.2,16.6,21.2L16.6,21.2z
	 M16.2,23.5c0.1,0.5,0.7,1.1,1.2,1.1c0.1,0,0.1,0,0.4,0c0.7-0.1,1.1-0.8,0.8-1.5c0-0.1-0.1-0.5-0.4-0.7C18,22.3,17.7,22,17.4,22
	c-0.1,0-0.1,0-0.4,0C16.5,22.1,16.1,22.8,16.2,23.5 M17.8,27.3c0.4,0.5,0.8,0.8,1.3,0.8l0,0c0.1,0,0.5,0,0.7-0.1
	c0.7-0.4,1.1-1.2,0.7-2c-0.4-0.7-1.2-1.1-2-0.7C17.8,25.7,17.4,26.5,17.8,27.3C17.8,27.2,17.8,27.2,17.8,27.3 M20.6,31
	c0.4,0.4,0.8,0.7,1.3,0.7c1.1,0,1.7-0.8,1.7-1.7c0-0.4-0.1-0.8-0.4-1.1c0,0,0-0.1-0.1-0.1c-0.7-0.7-1.5-0.7-2.1,0
	C20.1,29.3,20.1,30.4,20.6,31 M27.5,34.4c0.7-0.8,0.5-2.1-0.4-2.7c-0.8-0.7-1.9-0.5-2.5,0.1l0,0.1c-0.7,0.8-0.5,2.1,0.4,2.8
	c0.4,0.1,0.7,0.4,1.2,0.4c0.1,0,0.1,0,0.4,0C26.9,35,27.3,34.6,27.5,34.4 M33.3,34c-0.1-0.1-0.4-0.4-0.7-0.5
	c-0.4-0.1-0.7-0.1-0.8-0.1c-1.3,0-2.4,1.1-2.4,2.4c0,0.7,0.4,1.2,0.7,1.7c0.1,0.1,0.4,0.4,0.7,0.5c0.4,0.1,0.7,0.1,1.1,0.1
	c1.3,0,2.4-1.1,2.4-2.4C33.9,35,33.8,34.4,33.3,34"/>
</svg>
