<?xml version="1.0" encoding="utf-8"?>
<!-- Generator: Adobe Illustrator 24.0.1, SVG Export Plug-In . SVG Version: 6.00 Build 0)  -->
<svg version="1.1" id="Layer_1" xmlns="http://www.w3.org/2000/svg" xmlns:xlink="http://www.w3.org/1999/xlink" x="0px" y="0px"
	 width="40px" height="40px" viewBox="0 0 40 40" style="enable-background:new 0 0 40 40;" xml:space="preserve">
<style type="text/css">
	.st0{fill:#373A3F;}
	.st1{fill:url(#SVGID_1_);}
	.st2{fill:#FFFFFF;}
</style>
<path class="st0" d="M25,40H15C6.8,40,0,33.3,0,25V15C0,6.8,6.8,0,15,0h10c8.3,0,15,6.8,15,15v10C40,33.3,33.3,40,25,40z"/>
<linearGradient id="SVGID_1_" gradientUnits="userSpaceOnUse" x1="9.0907" y1="40.8954" x2="30.9093" y2="3.1046" gradientTransform="matrix(1 0 0 -1 0 42)">
	<stop  offset="0" style="stop-color:#FFFFFF;stop-opacity:0.5"/>
	<stop  offset="1" style="stop-color:#FFFFFF;stop-opacity:0"/>
</linearGradient>
<path class="st1" d="M25,40H15C6.8,40,0,33.3,0,25V15C0,6.8,6.8,0,15,0h10c8.3,0,15,6.8,15,15v10C40,33.3,33.3,40,25,40z"/>
<path class="st2" d="M22.5,12.8c0.1,0.3,0.4,0.3,0.6,0.3c0,0,0.1,0,0.1-0.1c0.3-0.1,0.4-0.5,0.1-0.8c-0.1-0.1-0.3-0.2-0.5-0.2
	c-0.1,0-0.3,0-0.4,0.1C22.4,12.1,22.3,12.5,22.5,12.8 M21,11.4c0,0.1,0.1,0.4,0.3,0.5c0.3,0.3,0.8,0.3,1,0c0.2-0.3,0.3-0.8,0-1l0,0
	c-0.1-0.1-0.3-0.1-0.5-0.1c-0.3,0-0.4,0.1-0.5,0.3C21,11,21,11.1,21,11.4 M19.5,11c0.1,0.1,0.3,0.1,0.4,0.1s0.1,0,0.3,0
	c0.3,0,0.4-0.3,0.5-0.4c0.3-0.4,0.1-0.9-0.3-1.1c-0.1,0-0.3-0.1-0.4-0.1c-0.2,0-0.5,0.1-0.8,0.4C19,10.3,19.1,10.8,19.5,11
	 M17.3,10.5c0.1,0,0.4,0,0.5,0c0.5-0.1,0.8-0.6,0.6-1.1c-0.1-0.2-0.4-0.5-0.6-0.6c-0.1,0-0.1,0-0.3,0c-0.4,0-0.8,0.3-0.9,0.6
	C16.5,9.9,16.9,10.4,17.3,10.5 M14.6,10.6c0.6,0,1.1-0.4,1.1-1c0-0.3-0.1-0.6-0.2-0.8c-0.3-0.3-0.5-0.4-0.8-0.4l0,0
	c-0.6,0-1,0.5-1.1,1C13.6,10,14.1,10.5,14.6,10.6 M10.3,10.3c0.1,0.8,0.8,1.1,1.5,1c0.6-0.1,1.1-0.8,1-1.5c-0.1-0.6-0.9-1-1.5-0.9
	S10.1,9.6,10.3,10.3L10.3,10.3 M22.6,15c0.3-0.3,0.3-0.8,0-1c-0.3-0.3-0.8-0.3-1,0c-0.3,0.3-0.3,0.8,0,1c0.1,0.1,0.3,0.1,0.5,0.1
	c0.1,0,0.1,0,0.3,0C22.5,15.1,22.6,15.1,22.6,15 M21.1,13.4c0-0.3-0.3-0.4-0.4-0.5c-0.1,0-0.3-0.1-0.4-0.1c-0.3,0-0.5,0.1-0.8,0.4
	c-0.2,0.4-0.1,0.9,0.3,1.1c0.1,0.1,0.4,0.1,0.6,0.1s0.4-0.3,0.5-0.4C21.1,13.8,21.3,13.5,21.1,13.4 M19,13.1c0.1-0.3,0-0.5-0.1-0.8
	c-0.1-0.3-0.4-0.4-0.5-0.4s-0.1,0-0.3,0c-0.4,0-0.8,0.3-0.9,0.6c-0.1,0.5,0.1,1,0.6,1.1C18.3,14,18.9,13.6,19,13.1 M16.4,12.9
	c0-0.3-0.1-0.6-0.3-0.8c-0.2-0.3-0.5-0.4-0.8-0.4l0,0c-0.5,0-1,0.5-1.1,1c0,0.6,0.4,1.1,1,1.1l0,0C15.9,13.9,16.3,13.4,16.4,12.9
	 M12,12.1c-0.8,0-1.3,0.5-1.3,1.3c0,0.8,0.5,1.3,1.3,1.3c0.1,0,0.3,0,0.4,0c0.6-0.3,1-0.9,0.9-1.6C13,12.5,12.5,12.1,12,12.1
	 M7,15.5c0.2,0.5,0.8,0.9,1.4,0.9c0.1,0,0.3,0,0.4,0h0.1c0.8-0.4,1.1-1.1,0.8-1.9c-0.4-0.8-1.1-1.1-1.9-0.8
	C7.1,13.9,6.8,14.8,7,15.5L7,15.5 M22.3,16.5c-0.1,0-0.3-0.1-0.4-0.1c-0.3,0-0.5,0.1-0.8,0.4c-0.3,0.4-0.1,0.9,0.3,1.1
	C21.5,18,21.8,18,22,18c0.4-0.1,0.6-0.6,0.5-1C22.5,16.8,22.4,16.6,22.3,16.5 M18.8,17c0.3,0.5,0.8,0.6,1.3,0.4s0.6-0.8,0.4-1.3
	c-0.1-0.2-0.4-0.4-0.5-0.4c-0.1,0-0.1,0-0.3,0c-0.4,0-0.8,0.3-0.9,0.6C18.6,16.5,18.6,16.8,18.8,17 M17.8,16.5c0-0.6-0.4-1.1-1-1.1
	l0,0c-0.5,0-1,0.5-1.1,1c0,0.6,0.4,1.1,1,1.1l0,0c0.1,0,0.3,0,0.3,0C17.5,17.3,17.8,16.9,17.8,16.5 M13.5,18.3c0.1,0,0.1,0,0.3,0
	h0.1c0.6-0.3,1-0.9,0.9-1.5c-0.1-0.6-0.9-1-1.5-0.9s-1,0.9-0.9,1.5C12.4,17.9,12.9,18.3,13.5,18.3 M11.3,19c0.1-0.4,0.1-0.8,0-1.1
	C11,17.4,10.5,17,9.9,17c-0.3,0-0.4,0-0.5,0.1c-0.4,0.1-0.6,0.4-0.8,0.8c-0.3,0.8,0,1.6,0.9,1.9c0,0.1,0.1,0.2,0.4,0.2
	c0.1,0,0.3,0,0.4,0C10.8,19.8,11,19.5,11.3,19 M7.5,20.3c-0.4-0.5-0.9-0.8-1.4-0.8c-0.1,0-0.4,0-0.5,0.1c-0.9,0.3-1.4,1.3-1.1,2.1
	s1.3,1.4,2.1,1.1c0.9-0.3,1.4-1.3,1.1-2.1C7.8,20.5,7.6,20.4,7.5,20.3 M26,26.3c0-0.3-0.3-0.5-0.6-0.5l0,0c-0.3,0-0.5,0.3-0.5,0.5
	v0.1c0,0.3,0.3,0.5,0.6,0.5l0,0c0.1,0,0.3-0.1,0.4-0.3C26,26.5,26,26.4,26,26.3 M26.4,25.6c-0.1,0.4,0.1,0.8,0.5,0.8
	s0.8-0.1,0.8-0.5c0-0.1,0-0.3,0-0.4c0-0.1-0.1-0.4-0.4-0.4C27.1,25.1,27,25,27,25c-0.1,0-0.1,0-0.3,0C26.6,25.1,26.5,25.4,26.4,25.6
	 M28,24.5c-0.1,0.4,0.1,0.9,0.6,1c0.1,0,0.1,0,0.3,0s0.3,0,0.4-0.1c0.4-0.3,0.5-0.8,0.3-1.1c-0.1-0.3-0.4-0.4-0.6-0.4
	C28.5,23.9,28.1,24.1,28,24.5 M30.5,23.9c0.3,0,0.5-0.1,0.6-0.3c0.4-0.4,0.4-1,0-1.3c-0.1-0.1-0.4-0.3-0.6-0.3
	c-0.5,0-0.9,0.4-0.9,0.9C29.6,23.5,30,23.9,30.5,23.9L30.5,23.9z M33,21.3c0.4-0.5,0.1-1.1-0.4-1.5s-1.1-0.1-1.5,0.4l0,0l0,0
	C31,20.3,31,20.4,31,20.5c-0.1,0.6,0.3,1.1,0.8,1.3c0.1,0,0.1,0,0.3,0C32.4,21.8,32.8,21.5,33,21.3 M33.6,16.4
	c-0.1,0-0.3-0.1-0.4-0.1c-0.5,0-1,0.4-1.1,0.9v0.1c-0.1,0.6,0.3,1.3,0.8,1.5c0.1,0,0.3,0.1,0.4,0.1c0.5,0,1-0.4,1.1-0.9
	C34.6,17.3,34.3,16.6,33.6,16.4 M23.4,24.4c-0.1,0.4,0.1,0.8,0.5,0.9H24c0.1,0,0.1,0,0.3,0c0.4-0.1,0.5-0.5,0.4-0.9
	c0-0.1-0.1-0.3-0.4-0.4l0,0c-0.1,0-0.3-0.1-0.3-0.1C23.6,23.9,23.4,24.1,23.4,24.4 M25.5,24.3c0.3,0,0.4,0,0.6-0.1
	c0.4-0.3,0.5-0.8,0.3-1.1c-0.1-0.3-0.4-0.4-0.6-0.4c-0.4,0-0.6,0.3-0.8,0.6c0,0.3,0,0.4,0.1,0.6C25.1,24.1,25.4,24.3,25.5,24.3
	 M27.5,22.8c0.3,0,0.5-0.1,0.6-0.3c0.4-0.4,0.4-0.9,0-1.3s-0.9-0.4-1.3,0s-0.4,0.9,0,1.3C27,22.6,27.3,22.8,27.5,22.8L27.5,22.8z
	 M29.9,20c0.1-0.3,0.3-0.5,0.1-0.8c-0.1-0.6-0.6-1-1.3-0.9c-0.3,0-0.5,0.3-0.8,0.5c-0.4,0.5-0.1,1.1,0.4,1.5
	c0.1,0.1,0.4,0.1,0.6,0.1c0.1,0,0.1,0,0.3,0C29.5,20.5,29.8,20.3,29.9,20 M29.6,17.5c0.6,0.3,1.4-0.1,1.6-0.8
	c0.3-0.6-0.1-1.4-0.8-1.6c-0.6-0.2-1.4,0.1-1.6,0.8l0,0V16C28.8,16.6,29.1,17.3,29.6,17.5 M30.4,13.9h0.1c0.8,0,1.5-0.6,1.5-1.5
	c0-0.8-0.5-1.4-1.3-1.5h-0.1c-0.6,0-1.3,0.5-1.4,1.1v0.1c0,0.4,0,0.8,0.3,1.1C29.6,13.6,30,13.9,30.4,13.9 M22.6,23.1
	c0-0.3,0-0.4-0.1-0.6c-0.3-0.4-0.8-0.5-1.1-0.3c-0.1,0.1-0.3,0.3-0.4,0.5c0,0.3,0,0.4,0.1,0.6c0.3,0.4,0.8,0.5,1.1,0.3
	C22.5,23.5,22.6,23.4,22.6,23.1 M23.6,22.3L23.6,22.3c0.3,0,0.5-0.1,0.6-0.3c0.4-0.4,0.4-1,0-1.3c-0.4-0.4-0.9-0.4-1.3,0l0,0l0,0
	c-0.1,0.1-0.3,0.3-0.3,0.5c-0.1,0.5,0.1,1,0.6,1.1C23.5,22.3,23.5,22.3,23.6,22.3 M24.5,19.9c0.5,0.4,1.1,0.1,1.5-0.4l0,0
	c0.3-0.5,0.1-1.1-0.4-1.5c-0.5-0.4-1.1-0.1-1.5,0.4C23.9,18.9,24,19.5,24.5,19.9 M26.6,14.6c-0.6-0.3-1.4,0.1-1.6,0.8
	c-0.3,0.6,0.1,1.4,0.8,1.6l0,0c0.1,0,0.3,0.1,0.4,0.1c0.8,0,1.3-0.5,1.3-1.2C27.5,15.3,27.1,14.8,26.6,14.6 M26.9,10.5h-0.1
	c-0.6,0-1.3,0.5-1.4,1.1v0.1c-0.1,0.8,0.5,1.5,1.3,1.6l0,0h0.1c0.8,0,1.4-0.6,1.5-1.3C28.3,11.3,27.8,10.5,26.9,10.5L26.9,10.5
	 M26.3,9h0.1c1-0.1,1.6-1,1.5-1.9c0-0.9-0.8-1.5-1.6-1.5h-0.1c-0.8,0.1-1.4,0.6-1.5,1.3c0,0.3,0,0.4,0,0.6C24.6,8.4,25.4,9,26.3,9
	 M12.6,21.1c-0.2-0.3-0.6-0.3-0.9,0l-0.1,0.1c-0.1,0.1-0.1,0.3,0,0.5c0,0.1,0.1,0.3,0.3,0.4c0.1,0,0.1,0,0.3,0l0,0
	c0.4,0,0.6-0.3,0.6-0.6C12.9,21.4,12.8,21.3,12.6,21.1 M12,22.6c-0.4-0.1-0.8,0.1-0.8,0.5c-0.1,0.4,0.1,0.8,0.5,0.8
	c0.4,0.1,0.8-0.1,0.8-0.5l0,0C12.6,23,12.4,22.6,12,22.6L12,22.6 M11.9,26c0.4,0,0.8-0.4,0.8-0.8c0-0.3-0.1-0.4-0.2-0.5
	c-0.1-0.1-0.4-0.3-0.5-0.3c-0.2,0-0.4,0.1-0.6,0.3c-0.1,0.1-0.2,0.4-0.2,0.5C11.1,25.8,11.5,26,11.9,26L11.9,26z M12.5,28.5
	c0.1,0,0.1,0,0.3,0c0.5-0.1,0.8-0.6,0.6-1.1c-0.1-0.4-0.5-0.8-0.9-0.8c-0.1,0-0.1,0-0.3,0c-0.5,0.1-0.8,0.6-0.6,1.1
	C11.8,28.3,12.1,28.5,12.5,28.5 M14.3,31.1c0.5-0.3,0.8-0.9,0.5-1.5c-0.3-0.5-0.9-0.8-1.5-0.5c-0.2,0.1-0.5,0.4-0.5,0.6
	c-0.1,0.3-0.1,0.6,0.1,0.9c0.3,0.4,0.6,0.6,1,0.6C14,31.3,14.1,31.1,14.3,31.1 M16.9,31.9C16.9,31.9,16.9,31.8,16.9,31.9
	c-0.6-0.6-1.4-0.6-1.9-0.1s-0.5,1.3,0,1.8c0.3,0.3,0.5,0.4,0.9,0.4c0.3,0,0.6-0.1,0.8-0.3C17.3,33.1,17.4,32.4,16.9,31.9 M14.6,20.5
	h-0.1c-0.4,0-0.6,0.3-0.8,0.6c-0.1,0.4,0.2,0.6,0.6,0.8c0.4,0,0.6-0.3,0.8-0.6C15.1,20.9,14.9,20.5,14.6,20.5 M14.5,24
	c0.5,0,0.8-0.4,0.8-0.9c0-0.3-0.1-0.4-0.3-0.5c-0.1-0.1-0.4-0.3-0.5-0.3l0,0c-0.3,0-0.4,0.1-0.5,0.3c-0.3,0.1-0.3,0.4-0.3,0.6
	C13.8,23.6,14.1,24,14.5,24L14.5,24z M14.3,25c-0.1,0.3-0.1,0.5-0.1,0.8c0.1,0.4,0.5,0.8,0.9,0.8c0.1,0,0.1,0,0.2,0
	c0.5-0.1,0.8-0.6,0.6-1.1c-0.1-0.5-0.6-0.8-1.1-0.6c-0.1,0-0.4,0.1-0.4,0.3C14.4,24.9,14.3,25,14.3,25 M15.4,27.8
	c-0.1,0.3-0.1,0.6,0.1,0.9c0.2,0.4,0.6,0.6,1,0.6l0,0c0.1,0,0.4,0,0.5-0.1c0.5-0.3,0.8-0.9,0.5-1.5c0-0.1-0.1-0.3-0.3-0.3
	c-0.3-0.3-0.5-0.3-0.8-0.3c-0.1,0-0.4,0-0.5,0.1C15.6,27.3,15.4,27.4,15.4,27.8 M19.5,29.8C19.4,29.8,19.4,29.8,19.5,29.8
	c-0.4-0.4-0.6-0.5-1-0.5c-0.8,0-1.3,0.6-1.3,1.3c0,0.3,0.1,0.6,0.3,0.8c0.3,0.3,0.6,0.5,1,0.5c0.3,0,0.6-0.1,0.8-0.3
	C19.9,31.1,19.9,30.3,19.5,29.8 M22.6,31.9l-0.1-0.1c-0.3-0.3-0.6-0.3-0.9-0.3c-0.1,0-0.1,0-0.3,0c-0.8,0.1-1.4,0.9-1.3,1.6
	c0.1,0.8,0.9,1.4,1.6,1.3c0.8-0.1,1.4-0.9,1.3-1.6C23,32.4,22.9,32.1,22.6,31.9 M16.9,20.9c0.5,0,0.8-0.4,0.8-0.8
	c0-0.3-0.1-0.4-0.3-0.5s-0.4-0.2-0.5-0.2c-0.4,0-0.8,0.4-0.8,0.7l0,0l0,0C16.1,20.5,16.5,20.9,16.9,20.9L16.9,20.9z M16.6,22.6
	c0.1,0.4,0.5,0.8,0.9,0.8c0.1,0,0.1,0,0.3,0c0.5-0.1,0.8-0.6,0.6-1.1c0-0.1-0.1-0.4-0.3-0.5s-0.4-0.3-0.6-0.3c-0.1,0-0.1,0-0.3,0
	C16.8,21.6,16.5,22.1,16.6,22.6 M17.8,25.5c0.3,0.4,0.6,0.6,1,0.6l0,0c0.1,0,0.4,0,0.5-0.1c0.5-0.3,0.8-0.9,0.5-1.5
	c-0.3-0.5-0.9-0.8-1.5-0.5C17.8,24.3,17.5,24.9,17.8,25.5C17.8,25.4,17.8,25.4,17.8,25.5 M19.9,28.3c0.3,0.3,0.6,0.5,1,0.5
	c0.8,0,1.3-0.6,1.3-1.3c0-0.3-0.1-0.6-0.3-0.8c0,0,0-0.1-0.1-0.1c-0.5-0.5-1.1-0.5-1.6,0C19.5,27,19.5,27.8,19.9,28.3 M25.1,30.8
	c0.5-0.6,0.4-1.6-0.3-2c-0.6-0.5-1.4-0.4-1.9,0.1L22.9,29c-0.5,0.6-0.4,1.6,0.3,2.1c0.3,0.1,0.5,0.3,0.9,0.3c0.1,0,0.1,0,0.3,0
	C24.6,31.3,24.9,31,25.1,30.8 M29.4,30.5c-0.1-0.1-0.3-0.3-0.5-0.4C28.6,30,28.4,30,28.3,30c-1,0-1.8,0.8-1.8,1.8
	c0,0.5,0.3,0.9,0.5,1.3c0.1,0.1,0.3,0.3,0.5,0.4c0.3,0.1,0.5,0.1,0.8,0.1c1,0,1.8-0.8,1.8-1.8C29.9,31.3,29.8,30.8,29.4,30.5"/>
</svg>
