<?xml version="1.0" encoding="utf-8"?>
<!-- Generator: Adobe Illustrator 23.0.0, SVG Export Plug-In . SVG Version: 6.00 Build 0)  -->
<svg version="1.1" id="Layer_1" xmlns="http://www.w3.org/2000/svg" xmlns:xlink="http://www.w3.org/1999/xlink" x="0px" y="0px"
	 width="32px" height="32px" viewBox="0 0 32 32" style="enable-background:new 0 0 32 32;" xml:space="preserve">
<style type="text/css">
	.st0{fill:#003EC5;}
	.st1{fill:url(#SVGID_1_);}
	.st2{fill:#FFFFFF;}
	.st3{fill:#FFFFFF;filter:url(#Adobe_OpacityMaskFilter);}
	.st4{mask:url(#a_1_);}
	.st5{fill:#FFFFFF;filter:url(#Adobe_OpacityMaskFilter_1_);}
	.st6{mask:url(#b_1_);}
</style>
<path class="st0" d="M20,32h-8C5.4,32,0,26.6,0,20v-8C0,5.4,5.4,0,12,0h8c6.6,0,12,5.4,12,12v8C32,26.6,26.6,32,20,32z"/>
<linearGradient id="SVGID_1_" gradientUnits="userSpaceOnUse" x1="7.2681" y1="0.8759" x2="24.7319" y2="31.1241">
	<stop  offset="0" style="stop-color:#FFFFFF;stop-opacity:0.5"/>
	<stop  offset="1" style="stop-color:#FFFFFF;stop-opacity:0"/>
</linearGradient>
<path class="st1" d="M20,32h-8C5.4,32,0,26.6,0,20v-8C0,5.4,5.4,0,12,0h8c6.6,0,12,5.4,12,12v8C32,26.6,26.6,32,20,32z"/>
<g>
	<path class="st2" d="M21.2,12.7h-1.6v-1.6c0-0.6,0.4-1,1-1l0,0h0.6c0.6,0,1,0.4,1,1l0,0v0.6C22.2,12.3,21.7,12.7,21.2,12.7
		 M12.4,12.7h-1.6c-0.6,0-1-0.4-1-1v-0.6c0-0.5,0.4-1,1-1c0,0,0,0,0,0h0.6c0.6,0,1,0.4,1,1l0,0V12.7z M11.4,22.2h-0.6
		c-0.6,0-1-0.4-1-1l0,0v-0.6c0-0.6,0.4-1,1-1h1.6v1.5C12.4,21.7,11.9,22.2,11.4,22.2L11.4,22.2 M21.2,22.2h-0.6c-0.6,0-1-0.4-1-1
		l0,0v-1.5h1.5c0.6,0,1,0.4,1,1v0.6C22.2,21.7,21.7,22.2,21.2,22.2L21.2,22.2"/>
</g>
<g>
	<path class="st2" d="M16.5,10.2h-0.6c-0.6,0-1-0.4-1-1V8.6c0-0.6,0.4-1,1-1h0.6c0.6,0,1,0.4,1,1v0.6C17.5,9.7,17,10.2,16.5,10.2
		 M16.5,24.7h-0.6c-0.6,0-1-0.4-1-1v-0.6c0-0.6,0.4-1,1-1l0,0h0.6c0.6,0,1,0.4,1,1l0,0v0.6C17.5,24.3,17,24.7,16.5,24.7 M23.7,17.5
		h-0.6c-0.6,0-1-0.4-1-1v-0.6c0-0.6,0.4-1,1-1h0.6c0.6,0,1,0.4,1,1v0.6C24.7,17,24.3,17.5,23.7,17.5L23.7,17.5 M9.2,17.5H8.6
		c-0.6,0-1-0.4-1-1v-0.6c0-0.6,0.4-1,1-1h0.6c0.6,0,1,0.4,1,1v0.6C10.2,17,9.7,17.5,9.2,17.5L9.2,17.5"/>
</g>
<g>
	<path class="st2" d="M19,25.7c-0.2-0.4,0-0.8,0.4-1c0.4-0.2,0.8,0,1,0.4c0.2,0.4,0,0.8-0.4,1C19.5,26.3,19.1,26.1,19,25.7
		 M11.3,7.2c-0.2-0.4,0-0.8,0.4-1c0.4-0.2,0.8,0,1,0.4c0.2,0.4,0,0.8-0.4,1C11.9,7.7,11.5,7.6,11.3,7.2 M25.4,13
		c-0.4,0.2-0.8,0-1-0.4c-0.2-0.4,0-0.8,0.4-1c0.4-0.2,0.8,0,1,0.4C25.9,12.5,25.7,12.9,25.4,13 M7.2,20.7c-0.4,0.2-0.8,0-1-0.4
		c-0.2-0.4,0-0.8,0.4-1c0.4-0.2,0.8,0,1,0.4C7.7,20.1,7.6,20.5,7.2,20.7"/>
</g>
<g>
	<path class="st2" d="M24.8,20.7c-0.4-0.2-0.5-0.6-0.4-1c0.2-0.4,0.6-0.5,1-0.4c0.4,0.2,0.5,0.6,0.4,0.9
		C25.6,20.6,25.2,20.8,24.8,20.7C24.8,20.7,24.8,20.7,24.8,20.7 M6.6,13c-0.4-0.2-0.5-0.6-0.4-1c0.2-0.4,0.6-0.5,1-0.4
		c0.4,0.2,0.5,0.6,0.4,0.9C7.4,13,7,13.2,6.6,13C6.6,13,6.6,13,6.6,13 M20.3,7.2c-0.2,0.4-0.6,0.5-1,0.4C19,7.4,18.8,7,19,6.6
		c0.2-0.4,0.6-0.5,0.9-0.4C20.3,6.4,20.5,6.8,20.3,7.2C20.3,7.2,20.3,7.2,20.3,7.2 M12.7,25.7c-0.2,0.4-0.6,0.5-1,0.4
		c-0.4-0.2-0.5-0.6-0.4-1c0.2-0.4,0.6-0.5,0.9-0.4C12.6,24.9,12.8,25.4,12.7,25.7C12.7,25.7,12.7,25.7,12.7,25.7"/>
</g>
<g>
	<path class="st2" d="M23.7,24.6c-0.1-0.1-0.1-0.4,0-0.5c0.1-0.1,0.4-0.1,0.5,0c0.1,0.1,0.1,0.4,0,0.5c0,0,0,0,0,0
		C24.1,24.8,23.9,24.8,23.7,24.6C23.7,24.6,23.7,24.6,23.7,24.6 M7.4,8.3c-0.1-0.1-0.1-0.4,0-0.5s0.4-0.1,0.5,0C8,7.9,8,8.1,7.9,8.3
		c0,0,0,0,0,0C7.8,8.4,7.5,8.4,7.4,8.3C7.4,8.3,7.4,8.3,7.4,8.3 M24.3,8.3c-0.1,0.1-0.4,0.1-0.5,0s-0.1-0.4,0-0.5
		c0.1-0.1,0.4-0.1,0.5,0c0,0,0,0,0,0C24.4,7.9,24.4,8.1,24.3,8.3C24.3,8.3,24.3,8.3,24.3,8.3 M7.9,24.6c-0.1,0.1-0.4,0.1-0.5,0
		c-0.1-0.1-0.1-0.4,0-0.5c0.1-0.1,0.4-0.1,0.5,0c0,0,0,0,0,0C8,24.2,8,24.5,7.9,24.6C7.9,24.6,7.9,24.6,7.9,24.6"/>
</g>
<path class="st2" d="M27.6,16.4c-0.2,0-0.4-0.2-0.4-0.4c0-0.2,0.2-0.4,0.4-0.4c0.2,0,0.4,0.2,0.4,0.4C28,16.2,27.8,16.4,27.6,16.4"
	/>
<defs>
	<filter id="Adobe_OpacityMaskFilter" filterUnits="userSpaceOnUse" x="4" y="15.6" width="0.7" height="0.7">
		<feColorMatrix  type="matrix" values="1 0 0 0 0  0 1 0 0 0  0 0 1 0 0  0 0 0 1 0"/>
	</filter>
</defs>
<mask maskUnits="userSpaceOnUse" x="4" y="15.6" width="0.7" height="0.7" id="a_1_">
	<path class="st3" d="M4,16.4v-0.7h0.7v0.7H4"/>
</mask>
<g class="st4">
	<path class="st2" d="M4.4,16.4C4.2,16.4,4,16.2,4,16c0-0.2,0.2-0.4,0.4-0.4c0.2,0,0.4,0.2,0.4,0.4l0,0C4.7,16.2,4.6,16.4,4.4,16.4"
		/>
</g>
<path class="st2" d="M16.4,4.4c0,0.2-0.2,0.4-0.4,0.4c-0.2,0-0.4-0.2-0.4-0.4C15.6,4.2,15.8,4,16,4C16.2,4,16.4,4.2,16.4,4.4"/>
<defs>
	<filter id="Adobe_OpacityMaskFilter_1_" filterUnits="userSpaceOnUse" x="15.6" y="27.3" width="0.7" height="0.7">
		<feColorMatrix  type="matrix" values="1 0 0 0 0  0 1 0 0 0  0 0 1 0 0  0 0 0 1 0"/>
	</filter>
</defs>
<mask maskUnits="userSpaceOnUse" x="15.6" y="27.3" width="0.7" height="0.7" id="b_1_">
	<path class="st5" d="M16.4,28h-0.7v-0.7h0.7V28"/>
</mask>
<g class="st6">
	<path class="st2" d="M16.4,27.6c0,0.2-0.2,0.4-0.4,0.4s-0.4-0.2-0.4-0.4c0-0.2,0.2-0.4,0.4-0.4C16.2,27.3,16.4,27.4,16.4,27.6"/>
</g>
<path class="st2" d="M18.4,14.8H19c0.4,0,0.7-0.3,0.7-0.7v-1.8h-1.8c-0.4,0-0.7,0.3-0.7,0.7v0.5c0,0.7-0.5,1.2-1.2,1.2
	c-0.7,0-1.2-0.5-1.2-1.2l0,0V13c0-0.4-0.3-0.6-0.6-0.6h-1.8v7.3h1.8c0.4,0,0.7-0.3,0.7-0.7v-0.6c0-0.7,0.5-1.2,1.2-1.2v0
	c0.7,0,1.2,0.5,1.2,1.2V19c0,0.4,0.3,0.7,0.7,0.7l0,0h1.8v-1.8c0-0.4-0.3-0.7-0.7-0.7l0,0h-0.6c-0.7,0-1.2-0.5-1.2-1.2h0
	C17.2,15.3,17.8,14.8,18.4,14.8"/>
</svg>
