<?xml version="1.0" encoding="utf-8"?>
<!-- Generator: Adobe Illustrator 24.0.1, SVG Export Plug-In . SVG Version: 6.00 Build 0)  -->
<svg version="1.1" id="Layer_1" xmlns="http://www.w3.org/2000/svg" xmlns:xlink="http://www.w3.org/1999/xlink" x="0px" y="0px"
	 width="40px" height="40px" viewBox="0 0 40 40" style="enable-background:new 0 0 40 40;" xml:space="preserve">
<style type="text/css">
	.st0{fill:#A1A3AA;}
</style>
<g>
	<path class="st0" d="M28.7,14.5H26v-2.7c0-1.1,0.7-1.7,1.7-1.7l0,0h1.1c1.1,0,1.7,0.7,1.7,1.7l0,0v1.1
		C30.4,13.9,29.5,14.5,28.7,14.5 M14,14.5h-2.7c-1.1,0-1.7-0.7-1.7-1.7v-1.1c0-0.8,0.7-1.7,1.7-1.7l0,0h1.1c1.1,0,1.7,0.7,1.7,1.7
		l0,0v2.8H14z M12.4,30.4h-1.1c-1.1,0-1.7-0.7-1.7-1.7l0,0v-1.1c0-1.1,0.7-1.7,1.7-1.7H14v2.5C14,29.5,13.2,30.4,12.4,30.4
		L12.4,30.4 M28.7,30.4h-1.1c-1.1,0-1.7-0.7-1.7-1.7l0,0v-2.5h2.5c1.1,0,1.7,0.7,1.7,1.7v1.1C30.4,29.5,29.5,30.4,28.7,30.4
		L28.7,30.4"/>
</g>
<g>
	<path class="st0" d="M20.8,10.4h-1.1c-1.1,0-1.7-0.7-1.7-1.7V7.6c0-1.1,0.7-1.7,1.7-1.7h1.1c1.1,0,1.7,0.7,1.7,1.7v1.1
		C22.5,9.5,21.7,10.4,20.8,10.4 M20.8,34.5h-1.1c-1.1,0-1.7-0.7-1.7-1.7v-1.1c0-1.1,0.7-1.7,1.7-1.7l0,0h1.1c1.1,0,1.7,0.7,1.7,1.7
		l0,0v1.1C22.5,33.9,21.7,34.5,20.8,34.5 M32.8,22.5h-1.1c-1.1,0-1.7-0.7-1.7-1.7v-1.1c0-1.1,0.7-1.7,1.7-1.7h1.1
		c1.1,0,1.7,0.7,1.7,1.7v1.1C34.5,21.7,33.9,22.5,32.8,22.5L32.8,22.5 M8.7,22.5H7.6c-1.1,0-1.7-0.7-1.7-1.7v-1.1
		c0-1.1,0.7-1.7,1.7-1.7h1.1c1.1,0,1.7,0.7,1.7,1.7v1.1C10.4,21.7,9.5,22.5,8.7,22.5L8.7,22.5"/>
</g>
<g>
	<path class="st0" d="M25.1,36.1c-0.4-0.7,0-1.3,0.7-1.7c0.7-0.4,1.3,0,1.7,0.7c0.4,0.7,0,1.3-0.7,1.7
		C25.9,37.2,25.2,36.8,25.1,36.1 M12.1,5.3c-0.4-0.7,0-1.3,0.7-1.7c0.7-0.4,1.3,0,1.7,0.7c0.4,0.7,0,1.3-0.7,1.7
		C13.2,6.1,12.5,6,12.1,5.3 M35.7,15.1c-0.7,0.4-1.3,0-1.7-0.7c-0.4-0.7,0-1.3,0.7-1.7c0.7-0.3,1.3,0,1.7,0.7
		C36.5,14.1,36.1,14.8,35.7,15.1 M5.3,27.9c-0.7,0.4-1.3,0-1.7-0.7c-0.4-0.7,0-1.3,0.7-1.7s1.3,0,1.7,0.7C6.1,26.8,6,27.5,5.3,27.9"
		/>
</g>
<g>
	<path class="st0" d="M34.7,27.9c-0.7-0.4-0.8-1.1-0.7-1.7c0.4-0.7,1.1-0.8,1.7-0.7c0.7,0.4,0.8,1.1,0.7,1.5
		C36,27.7,35.3,28,34.7,27.9L34.7,27.9 M4.4,15.1c-0.7-0.4-0.9-1.1-0.7-1.7c0.3-0.7,0.9-0.8,1.6-0.7C6,13.1,6.1,13.7,6,14.1
		C5.7,15.1,5.1,15.3,4.4,15.1L4.4,15.1 M27.2,5.3C26.8,6,26.1,6.1,25.5,6c-0.5-0.4-0.8-1.1-0.5-1.7s1.1-0.8,1.5-0.7
		C27.2,4,27.5,4.7,27.2,5.3L27.2,5.3 M14.5,36.1c-0.4,0.7-1.1,0.8-1.7,0.7c-0.7-0.4-0.8-1.1-0.7-1.7c0.4-0.7,1.1-0.8,1.5-0.7
		C14.4,34.8,14.7,35.7,14.5,36.1L14.5,36.1"/>
</g>
<g>
	<path class="st0" d="M32.8,34.4c-0.1-0.1-0.1-0.7,0-0.8c0.1-0.1,0.7-0.1,0.8,0c0.1,0.1,0.1,0.7,0,0.8l0,0
		C33.5,34.7,33.2,34.7,32.8,34.4L32.8,34.4 M5.7,7.2c-0.1-0.1-0.1-0.7,0-0.8c0.1-0.1,0.7-0.1,0.8,0c0.1,0.1,0.1,0.5,0,0.8l0,0
		C6.4,7.3,5.9,7.3,5.7,7.2L5.7,7.2 M33.9,7.2c-0.1,0.1-0.7,0.1-0.8,0c-0.1-0.1-0.1-0.7,0-0.8c0.1-0.1,0.7-0.1,0.8,0l0,0
		C34,6.5,34,6.8,33.9,7.2L33.9,7.2 M6.5,34.4c-0.1,0.1-0.7,0.1-0.8,0c-0.1-0.1-0.1-0.7,0-0.8c0.1-0.1,0.7-0.1,0.8,0l0,0
		C6.7,33.7,6.7,34.1,6.5,34.4L6.5,34.4"/>
</g>
<path class="st0" d="M39.3,20.7c-0.4,0-0.7-0.4-0.7-0.7c0-0.4,0.4-0.7,0.7-0.7c0.3,0,0.7,0.4,0.7,0.7S39.7,20.7,39.3,20.7"/>
<g>
	<path class="st0" d="M0.7,20.7C0.4,20.7,0,20.4,0,20s0.4-0.7,0.7-0.7s0.7,0.4,0.7,0.7l0,0C1.2,20.4,1.1,20.7,0.7,20.7"/>
</g>
<path class="st0" d="M20.7,0.7c0,0.4-0.4,0.7-0.7,0.7c-0.4,0-0.7-0.3-0.7-0.7C19.3,0.4,19.7,0,20,0S20.7,0.4,20.7,0.7"/>
<g>
	<path class="st0" d="M20.7,39.3c0,0.4-0.4,0.7-0.7,0.7s-0.7-0.4-0.7-0.7c0-0.3,0.4-0.7,0.7-0.7C20.4,38.8,20.7,39.1,20.7,39.3"/>
</g>
<path class="st0" d="M24,18h1.1c0.7,0,1.2-0.5,1.2-1.2v-3.1h-2.9c-0.7,0-1.2,0.5-1.2,1.2v0.8c0,1.2-0.8,2-2,2s-2-0.8-2-2l0,0v-0.8
	c0-0.7-0.5-1.1-1.1-1.1H14V26h3.1c0.7,0,1.2-0.5,1.2-1.2V24c0-1.2,0.8-2,2-2l0,0c1.2,0,2,0.8,2,2v1.1c0,0.7,0.5,1.2,1.2,1.2l0,0h3.1
	v-2.9c0-0.7-0.5-1.2-1.2-1.2l0,0h-1.1c-1.2,0-2-0.8-2-2l0,0C22,18.8,23.1,18,24,18"/>
</svg>
