<?xml version="1.0" encoding="utf-8"?>
<!-- Generator: Adobe Illustrator 24.0.1, SVG Export Plug-In . SVG Version: 6.00 Build 0)  -->
<svg version="1.1" id="Layer_1" xmlns="http://www.w3.org/2000/svg" xmlns:xlink="http://www.w3.org/1999/xlink" x="0px" y="0px"
	 width="40px" height="40px" viewBox="0 0 40 40" style="enable-background:new 0 0 40 40;" xml:space="preserve">
<style type="text/css">
	.st0{fill:#003EC5;}
	.st1{fill:url(#SVGID_1_);}
	.st2{fill:#FFFFFF;}
</style>
<path class="st0" d="M25,40H15C6.8,40,0,33.3,0,25V15C0,6.8,6.8,0,15,0h10c8.3,0,15,6.8,15,15v10C40,33.3,33.3,40,25,40z"/>
<linearGradient id="SVGID_1_" gradientUnits="userSpaceOnUse" x1="9.0907" y1="40.8954" x2="30.9093" y2="3.1046" gradientTransform="matrix(1 0 0 -1 0 42)">
	<stop  offset="0" style="stop-color:#FFFFFF;stop-opacity:0.5"/>
	<stop  offset="1" style="stop-color:#FFFFFF;stop-opacity:0"/>
</linearGradient>
<path class="st1" d="M25,40H15C6.8,40,0,33.3,0,25V15C0,6.8,6.8,0,15,0h10c8.3,0,15,6.8,15,15v10C40,33.3,33.3,40,25,40z"/>
<g>
	<path class="st2" d="M26.5,15.9h-2v-2c0-0.8,0.5-1.3,1.3-1.3l0,0h0.8c0.8,0,1.3,0.5,1.3,1.3l0,0v0.8C27.8,15.4,27.1,15.9,26.5,15.9
		 M15.5,15.9h-2c-0.8,0-1.3-0.5-1.3-1.3v-0.8c0-0.6,0.5-1.3,1.3-1.3l0,0h0.8c0.8,0,1.3,0.5,1.3,1.3l0,0V15.9z M14.3,27.8h-0.8
		c-0.8,0-1.3-0.5-1.3-1.3l0,0v-0.8c0-0.8,0.5-1.3,1.3-1.3h2v1.9C15.5,27.1,14.9,27.8,14.3,27.8L14.3,27.8 M26.5,27.8h-0.8
		c-0.8,0-1.3-0.5-1.3-1.3l0,0v-1.9h1.9c0.8,0,1.3,0.5,1.3,1.3v0.8C27.8,27.1,27.1,27.8,26.5,27.8L26.5,27.8"/>
</g>
<g>
	<path class="st2" d="M20.6,12.8h-0.8c-0.8,0-1.3-0.5-1.3-1.3v-0.8c0-0.8,0.5-1.3,1.3-1.3h0.8c0.8,0,1.3,0.5,1.3,1.3v0.8
		C21.9,12.1,21.3,12.8,20.6,12.8 M20.6,30.9h-0.8c-0.8,0-1.3-0.5-1.3-1.3v-0.8c0-0.8,0.5-1.3,1.3-1.3l0,0h0.8c0.8,0,1.3,0.5,1.3,1.3
		l0,0v0.8C21.9,30.4,21.3,30.9,20.6,30.9 M29.6,21.9h-0.8c-0.8,0-1.3-0.5-1.3-1.3v-0.8c0-0.8,0.5-1.3,1.3-1.3h0.8
		c0.8,0,1.3,0.5,1.3,1.3v0.8C30.9,21.3,30.4,21.9,29.6,21.9L29.6,21.9 M11.5,21.9h-0.8c-0.8,0-1.3-0.5-1.3-1.3v-0.8
		c0-0.8,0.5-1.3,1.3-1.3h0.8c0.8,0,1.3,0.5,1.3,1.3v0.8C12.8,21.3,12.1,21.9,11.5,21.9L11.5,21.9"/>
</g>
<g>
	<path class="st2" d="M23.8,32.1c-0.3-0.5,0-1,0.5-1.3c0.5-0.3,1,0,1.3,0.5c0.3,0.5,0,1-0.5,1.3C24.4,32.9,23.9,32.6,23.8,32.1
		 M14.1,9c-0.3-0.5,0-1,0.5-1.3c0.5-0.3,1,0,1.3,0.5s0,1-0.5,1.3C14.9,9.6,14.4,9.5,14.1,9 M31.8,16.3c-0.5,0.3-1,0-1.3-0.5
		c-0.3-0.5,0-1,0.5-1.3c0.5-0.2,1,0,1.3,0.5C32.4,15.6,32.1,16.1,31.8,16.3 M9,25.9c-0.5,0.3-1,0-1.3-0.5c-0.3-0.5,0-1,0.5-1.3
		c0.5-0.3,1,0,1.3,0.5C9.6,25.1,9.5,25.6,9,25.9"/>
</g>
<g>
	<path class="st2" d="M31,25.9c-0.5-0.3-0.6-0.8-0.5-1.3c0.3-0.5,0.8-0.6,1.3-0.5c0.5,0.3,0.6,0.8,0.5,1.1C32,25.8,31.5,26,31,25.9
		L31,25.9 M8.3,16.3C7.8,16,7.6,15.5,7.8,15C8,14.5,8.5,14.4,9,14.5c0.5,0.3,0.6,0.8,0.5,1.1C9.3,16.3,8.8,16.5,8.3,16.3L8.3,16.3
		 M25.4,9c-0.3,0.5-0.8,0.6-1.3,0.5c-0.4-0.3-0.6-0.8-0.4-1.3s0.8-0.6,1.1-0.5C25.4,8,25.6,8.5,25.4,9L25.4,9 M15.9,32.1
		c-0.3,0.5-0.8,0.6-1.3,0.5c-0.5-0.3-0.6-0.8-0.5-1.3c0.3-0.5,0.8-0.6,1.1-0.5C15.8,31.1,16,31.8,15.9,32.1L15.9,32.1"/>
</g>
<g>
	<path class="st2" d="M29.6,30.8c-0.1-0.1-0.1-0.5,0-0.6c0.1-0.1,0.5-0.1,0.6,0c0.1,0.1,0.1,0.5,0,0.6l0,0
		C30.1,31,29.9,31,29.6,30.8L29.6,30.8 M9.3,10.4c-0.1-0.1-0.1-0.5,0-0.6s0.5-0.1,0.6,0s0.1,0.4,0,0.6l0,0
		C9.8,10.5,9.4,10.5,9.3,10.4L9.3,10.4 M30.4,10.4c-0.1,0.1-0.5,0.1-0.6,0c-0.1-0.1-0.1-0.5,0-0.6c0.1-0.1,0.5-0.1,0.6,0l0,0
		C30.5,9.9,30.5,10.1,30.4,10.4L30.4,10.4 M9.9,30.8c-0.1,0.1-0.5,0.1-0.6,0s-0.1-0.5,0-0.6s0.5-0.1,0.6,0l0,0
		C10,30.3,10,30.6,9.9,30.8L9.9,30.8"/>
</g>
<path class="st2" d="M34.5,20.5c-0.3,0-0.5-0.3-0.5-0.5c0-0.3,0.3-0.5,0.5-0.5S35,19.8,35,20S34.8,20.5,34.5,20.5"/>
<g>
	<path class="st2" d="M5.5,20.5C5.3,20.5,5,20.3,5,20s0.3-0.5,0.5-0.5S6,19.8,6,20l0,0C5.9,20.3,5.8,20.5,5.5,20.5"/>
</g>
<path class="st2" d="M20.5,5.5C20.5,5.8,20.2,6,20,6c-0.3,0-0.5-0.2-0.5-0.5C19.5,5.3,19.8,5,20,5S20.5,5.3,20.5,5.5"/>
<g>
	<path class="st2" d="M20.5,34.5c0,0.3-0.3,0.5-0.5,0.5s-0.5-0.3-0.5-0.5S19.8,34,20,34C20.3,34.1,20.5,34.3,20.5,34.5"/>
</g>
<path class="st2" d="M23,18.5h0.8c0.5,0,0.9-0.4,0.9-0.9v-2.3h-2.2c-0.5,0-0.9,0.4-0.9,0.9v0.6c0,0.9-0.6,1.5-1.5,1.5
	s-1.5-0.6-1.5-1.5l0,0v-0.6c0-0.5-0.4-0.8-0.8-0.8h-2.3v9.1h2.3c0.5,0,0.9-0.4,0.9-0.9V23c0-0.9,0.6-1.5,1.5-1.5l0,0
	c0.9,0,1.5,0.6,1.5,1.5v0.8c0,0.5,0.4,0.9,0.9,0.9l0,0h2.3v-2.2c0-0.5-0.4-0.9-0.9-0.9l0,0h-0.8c-0.9,0-1.5-0.6-1.5-1.5l0,0
	C21.5,19.1,22.3,18.5,23,18.5"/>
</svg>
