<?xml version="1.0" encoding="utf-8"?>
<!-- Generator: Adobe Illustrator 24.0.1, SVG Export Plug-In . SVG Version: 6.00 Build 0)  -->
<svg version="1.1" id="Layer_1" xmlns="http://www.w3.org/2000/svg" xmlns:xlink="http://www.w3.org/1999/xlink" x="0px" y="0px"
	 width="40px" height="40px" viewBox="0 0 40 40" style="enable-background:new 0 0 40 40;" xml:space="preserve">
<style type="text/css">
	.st0{fill:#016681;}
	.st1{fill:url(#SVGID_1_);}
	.st2{fill:#FFFFFF;}
</style>
<path class="st0" d="M25,40H15C6.8,40,0,33.3,0,25V15C0,6.8,6.8,0,15,0h10c8.3,0,15,6.8,15,15v10C40,33.3,33.3,40,25,40z"/>
<linearGradient id="SVGID_1_" gradientUnits="userSpaceOnUse" x1="9.0907" y1="40.8954" x2="30.9093" y2="3.1046" gradientTransform="matrix(1 0 0 -1 0 42)">
	<stop  offset="0" style="stop-color:#FFFFFF;stop-opacity:0.5"/>
	<stop  offset="1" style="stop-color:#FFFFFF;stop-opacity:0"/>
</linearGradient>
<path class="st1" d="M25,40H15C6.8,40,0,33.3,0,25V15C0,6.8,6.8,0,15,0h10c8.3,0,15,6.8,15,15v10C40,33.3,33.3,40,25,40z"/>
<g id="kmd">
	<path id="Path" class="st2" d="M20.3,34.8c-5.4,0.1-10.4-2.6-13.1-7.3s-2.8-10.4,0-15s7.8-7.4,13.1-7.3c1.1,0,2.3,0.1,3.4,0.4
		c0.4,0.1,0.8,0.4,1,0.8c0.3,0.4,0.3,0.8,0.3,1.3c-0.3,0.8-1.1,1.3-2,1.1c-0.9-0.3-1.8-0.3-2.6-0.3c-6.4,0-11.6,5.1-11.6,11.6
		s5.1,11.6,11.6,11.6s11.6-5.1,11.6-11.6c0-0.9-0.1-1.9-0.4-2.8c-0.1-0.5,0.1-1.1,0.5-1.5c0.4-0.4,1-0.5,1.5-0.4
		c0.5,0.1,1,0.6,1.1,1.1c0.3,1.1,0.4,2.3,0.4,3.4c0,3.9-1.5,7.6-4.4,10.4S24.1,34.8,20.3,34.8z"/>
	<path class="st2" d="M31,9.3c-0.4-0.5-1-0.8-1.6-0.8s-1.3,0.3-1.6,0.8l0,0c-0.4,0.4-0.6,0.9-0.6,1.4l0,0c0,0.1,0,0.1,0,0.3V11
		c-0.1,1-0.5,1.9-1.3,2.5c-1,1-2.5,1.5-4,1.1h-0.4c-0.5-0.1-0.9-0.1-1.4-0.1c-1.4,0-2.6,0.5-3.6,1.5l-0.1,0.1
		c-1.9,1.8-2.1,4.6-0.8,6.9c1.4,2.1,4.1,3,6.5,2.1c0.8-0.3,1.4-0.6,1.9-1.3c0.3-0.3,0.4-0.5,0.6-0.8c0.9-1.3,1.3-2.9,0.9-4.4v-0.3
		l0,0c-0.4-1.4,0.1-2.9,1.1-3.9c0.8-0.8,1.6-1.1,2.6-1.3h0.4c0.5,0,1-0.3,1.5-0.6c0-0.1,0-0.3,0-0.4C31.9,11.4,31.8,10,31,9.3z"/>
</g>
</svg>
