<?xml version="1.0" encoding="utf-8"?>
<!-- Generator: Adobe Illustrator 24.0.1, SVG Export Plug-In . SVG Version: 6.00 Build 0)  -->
<svg version="1.1" id="Layer_1" xmlns="http://www.w3.org/2000/svg" xmlns:xlink="http://www.w3.org/1999/xlink" x="0px" y="0px"
	 width="40px" height="40px" viewBox="0 0 40 40" style="enable-background:new 0 0 40 40;" xml:space="preserve">
<style type="text/css">
	.st0{fill:#A1A3AA;}
</style>
<g id="kmd">
	<path id="Path" class="st0" d="M20.2,39.8C13,39.9,6.4,36.3,2.8,30s-3.7-13.9,0-20s10.4-9.9,17.5-9.7c1.5,0,3.1,0.1,4.5,0.5
		c0.5,0.1,1.1,0.5,1.3,1.1c0.4,0.5,0.4,1.1,0.4,1.7C26.1,4.6,25,5.3,23.8,5c-1.2-0.4-2.4-0.4-3.5-0.4c-8.5,0-15.5,6.8-15.5,15.5
		s6.8,15.5,15.5,15.5s15.5-6.8,15.5-15.5c0-1.2-0.1-2.5-0.5-3.7c-0.1-0.7,0.1-1.5,0.7-2c0.5-0.5,1.3-0.7,2-0.5
		c0.7,0.1,1.3,0.8,1.5,1.5c0.4,1.5,0.5,3.1,0.5,4.5c0,5.2-2,10.1-5.9,13.9C30.3,37.5,25.3,39.8,20.2,39.8z"/>
	<path class="st0" d="M34.5,5.7C34,5,33.2,4.6,32.4,4.6c-0.8,0-1.7,0.4-2.1,1.1l0,0c-0.5,0.5-0.8,1.2-0.8,1.9l0,0c0,0.1,0,0.1,0,0.4
		l0,0c-0.1,1.3-0.7,2.5-1.7,3.3c-1.3,1.3-3.3,2-5.3,1.5h-0.5c-0.7-0.1-1.2-0.1-1.9-0.1c-1.9,0-3.5,0.7-4.8,2L15,14.8
		c-2.5,2.4-2.8,6.1-1.1,9.2c1.9,2.8,5.5,4,8.7,2.8c1.1-0.4,1.9-0.8,2.5-1.7c0.4-0.4,0.5-0.7,0.8-1.1c1.2-1.7,1.7-3.9,1.2-5.9v-0.4
		l0,0c-0.5-1.9,0.1-3.9,1.5-5.2c1.1-1.1,2.1-1.5,3.5-1.7h0.5c0.7,0,1.3-0.4,2-0.8c0-0.1,0-0.4,0-0.5C35.7,8.5,35.6,6.7,34.5,5.7z"/>
</g>
</svg>
