<?xml version="1.0" encoding="utf-8"?>
<!-- Generator: Adobe Illustrator 24.0.1, SVG Export Plug-In . SVG Version: 6.00 Build 0)  -->
<svg version="1.1" id="Layer_1" xmlns="http://www.w3.org/2000/svg" xmlns:xlink="http://www.w3.org/1999/xlink" x="0px" y="0px"
	 width="40px" height="40px" viewBox="0 0 40 40" style="enable-background:new 0 0 40 40;" xml:space="preserve">
<style type="text/css">
	.st0{fill:#A1A3AA;}
</style>
<path class="st0" d="M17.9,19.9l14.8,8.5c0.4,0.1,0.8,0.1,1.1-0.4c0-0.1,0.1-0.4,0.1-0.4V12c0-0.5-0.4-0.8-0.8-0.8
	c-0.1,0-0.4,0-0.5,0.1L17.9,19.9z"/>
<path class="st0" d="M32.6,7.7L22.5,0.2c-0.4-0.4-0.8-0.1-1.2,0.1c0,0.1-0.1,0.1-0.1,0.3l-3.7,16.6l15.2-8.4C33,8.7,33.1,8.2,33,7.8
	C32.7,7.8,32.7,7.7,32.6,7.7"/>
<path class="st0" d="M22.5,39.7l10.1-7.5c0.4-0.1,0.5-0.7,0.1-1.1c0-0.1-0.1-0.1-0.4-0.1l-15.2-8.4l3.7,16.6
	c0.1,0.5,0.5,0.7,1.1,0.7C22.2,39.9,22.2,39.7,22.5,39.7"/>
<path class="st0" d="M14.1,19.6l3.9-18.1c0-0.5-0.1-0.8-0.7-0.8c-0.1,0-0.4,0-0.7,0.1L6.9,8.3c-0.5,0.4-0.8,1.1-0.8,1.7v19.2
	c0,0.7,0.4,1.3,0.8,1.7l9.8,7.7c0.4,0.1,0.8,0.1,1.1-0.1c0.1-0.1,0.1-0.4,0.1-0.7L14.1,19.6z"/>
</svg>
