<?xml version="1.0" encoding="utf-8"?>
<!-- Generator: Adobe Illustrator 24.0.1, SVG Export Plug-In . SVG Version: 6.00 Build 0)  -->
<svg version="1.1" id="Layer_1" xmlns="http://www.w3.org/2000/svg" xmlns:xlink="http://www.w3.org/1999/xlink" x="0px" y="0px"
	 width="40px" height="40px" viewBox="0 0 40 40" style="enable-background:new 0 0 40 40;" xml:space="preserve">
<style type="text/css">
	.st0{fill:#2AC494;}
	.st1{fill:url(#SVGID_1_);}
	.st2{fill:#FFFFFF;}
</style>
<path class="st0" d="M25,40H15C6.8,40,0,33.3,0,25V15C0,6.8,6.8,0,15,0h10c8.3,0,15,6.8,15,15v10C40,33.3,33.3,40,25,40z"/>
<linearGradient id="SVGID_1_" gradientUnits="userSpaceOnUse" x1="9.0907" y1="40.8954" x2="30.9093" y2="3.1046" gradientTransform="matrix(1 0 0 -1 0 42)">
	<stop  offset="0" style="stop-color:#FFFFFF;stop-opacity:0.5"/>
	<stop  offset="1" style="stop-color:#FFFFFF;stop-opacity:0"/>
</linearGradient>
<path class="st1" d="M25,40H15C6.8,40,0,33.3,0,25V15C0,6.8,6.8,0,15,0h10c8.3,0,15,6.8,15,15v10C40,33.3,33.3,40,25,40z"/>
<path class="st2" d="M18.4,20l11.1,6.4c0.3,0.1,0.6,0.1,0.8-0.3c0-0.1,0.1-0.3,0.1-0.3V14.1c0-0.4-0.3-0.6-0.6-0.6
	c-0.1,0-0.3,0-0.4,0.1L18.4,20z"/>
<path class="st2" d="M29.4,10.8l-7.6-5.6c-0.3-0.3-0.6-0.1-0.9,0.1c0,0.1-0.1,0.1-0.1,0.2L18,18l11.4-6.3c0.3-0.1,0.4-0.5,0.3-0.8
	C29.5,10.9,29.5,10.8,29.4,10.8"/>
<path class="st2" d="M21.8,34.9l7.6-5.6c0.3-0.1,0.4-0.5,0.1-0.8c0-0.1-0.1-0.1-0.3-0.1l-11.4-6.3l2.8,12.5c0.1,0.4,0.4,0.5,0.8,0.5
	C21.6,35,21.6,34.9,21.8,34.9"/>
<path class="st2" d="M15.5,19.8l2.9-13.6c0-0.4-0.1-0.6-0.5-0.6c-0.1,0-0.3,0-0.5,0.1l-7.3,5.6c-0.4,0.3-0.6,0.8-0.6,1.3V27
	c0,0.5,0.3,1,0.6,1.3l7.4,5.8c0.3,0.1,0.6,0.1,0.8-0.1c0.1-0.1,0.1-0.3,0.1-0.5L15.5,19.8z"/>
</svg>
