<?xml version="1.0" encoding="utf-8"?>
<!-- Generator: Adobe Illustrator 24.0.1, SVG Export Plug-In . SVG Version: 6.00 Build 0)  -->
<svg version="1.1" id="Layer_1" xmlns="http://www.w3.org/2000/svg" xmlns:xlink="http://www.w3.org/1999/xlink" x="0px" y="0px"
	 width="40px" height="40px" viewBox="0 0 40 40" style="enable-background:new 0 0 40 40;" xml:space="preserve">
<style type="text/css">
	.st0{fill:#E54817;}
	.st1{fill:url(#SVGID_1_);}
	.st2{fill:#FFFFFF;}
</style>
<path class="st0" d="M25,40H15C6.8,40,0,33.3,0,25V15C0,6.8,6.8,0,15,0h10c8.3,0,15,6.8,15,15v10C40,33.3,33.3,40,25,40z"/>
<linearGradient id="SVGID_1_" gradientUnits="userSpaceOnUse" x1="9.0907" y1="40.8954" x2="30.9093" y2="3.1046" gradientTransform="matrix(1 0 0 -1 0 42)">
	<stop  offset="0" style="stop-color:#FFFFFF;stop-opacity:0.5"/>
	<stop  offset="1" style="stop-color:#FFFFFF;stop-opacity:0"/>
</linearGradient>
<path class="st1" d="M25,40H15C6.8,40,0,33.3,0,25V15C0,6.8,6.8,0,15,0h10c8.3,0,15,6.8,15,15v10C40,33.3,33.3,40,25,40z"/>
<polygon class="st2" points="12.9,17.9 12.9,17.9 13.1,17.9 13.4,18 13.5,18.1 13.8,18.1 14,18.3 14.3,18.4 14.5,18.4 14.6,18.5 
	14.9,18.6 15.1,18.6 15.4,18.8 15.5,18.9 15.8,18.9 16,19 16.3,19.1 16.4,19.1 16.6,19.3 16.9,19.3 17.1,19.4 17.4,19.5 17.5,19.6 
	17.5,19.3 17.5,19.1 17.5,18.9 17.5,18.9 17.5,18.6 17.5,18.5 17.5,18.1 17.5,17.9 17.5,17.5 17.5,17.1 17.5,16.8 17.5,16.5 
	17.5,16.4 17.5,16.4 17.5,16.4 17.3,16.4 17,16.4 17,16.4 17,16.4 16.8,16.4 16.5,16.4 16.5,16.4 16.4,16.4 16.1,16.4 16,16.4 
	16,16.4 15.9,16.4 15.5,16.4 15.5,16.4 15.5,16.4 15.3,16.4 15,16.4 15,16.4 15,16.4 14.6,16.4 14.4,16.4 14.4,16.4 14.4,16.4 
	14.1,16.4 13.9,16.4 13.9,16.4 13.4,16.4 13.4,16.4 12.9,16.4 12.9,16.4 12.6,16.4 12.4,16.5 11.9,16.8 11.3,17.1 10.8,17.4 
	10.3,17.6 9.8,17.9 9.3,18.1 8.8,18.4 8.3,18.8 7.6,19 7.1,19.3 6.8,19.5 6.6,27.3 7.1,27.6 7.6,28 8.3,28.3 8.8,28.6 9.3,29 
	9.8,29.4 10,29.6 10.3,29.3 10.8,28.5 10.9,28.5 10.8,28.4 10.3,28 9.8,27.6 9.3,27.4 8.8,27 8.3,26.6 8,26.5 8.1,20.3 8.3,20.1 
	8.8,19.9 9.3,19.6 9.8,19.4 10.3,19.1 10.8,18.9 11.3,18.6 11.9,18.4 12.4,18.1 "/>
<polygon class="st2" points="21.8,32.6 21.4,32.8 20.9,33 20.4,33.1 19.9,33.4 19.8,33.5 19.5,33.4 19,33.1 18.5,32.9 18,32.6 
	17.5,32.4 17,32.1 16.5,31.9 16,31.6 15.6,31.4 15.1,31.1 14.6,30.9 14.1,30.6 13.6,30.4 13.6,30.4 13.6,24.1 13.1,24.1 12.6,24.1 
	12.3,24.1 12.3,31.3 12.6,31.5 13.1,31.8 13.6,32 14.1,32.3 14.6,32.5 15.1,32.8 15.6,33 16,33.3 16.5,33.4 17,33.6 17.5,33.9 
	18,34.1 18.5,34.4 19,34.6 19.5,34.9 19.6,35 19.9,34.9 20.4,34.8 20.9,34.5 21.4,34.3 21.9,34.1 22.4,33.9 21.9,32.8 "/>
<polygon class="st2" points="30.4,23.9 30.5,26.8 30.4,26.9 29.5,27.5 28.8,28.1 27.9,28.6 27,29.3 26.3,29.9 25.4,30.4 24.6,31 
	24.1,31.4 23.8,31.1 23,30.5 22.1,29.9 21.3,29.3 20.5,28.6 20.4,28.5 20.4,25.3 20.5,25.1 21.3,24.3 22.1,23.4 23,22.6 23.8,21.8 
	24.5,20.9 23.8,20.9 23,20.9 22.1,20.9 21.3,20.9 20.5,20.9 19.6,20.9 18.9,20.9 18,20.9 17.3,20.9 16.4,20.9 15.6,20.9 14.8,20.9 
	15.6,21.8 16.4,22.6 17.3,23.5 18,24.3 18.9,25.1 19,25.3 19,29.1 19.6,29.8 20.5,30.4 21.3,31 22.1,31.6 23,32.3 23.8,32.9 
	24,33.1 24.6,32.8 25.4,32.1 26.3,31.5 27,31 27.9,30.4 28.8,29.8 29.5,29.3 30.4,28.6 31.1,28 31.9,27.5 32,23.9 31.1,23.9 "/>
<polygon class="st2" points="8,16.9 8.1,16.9 8.1,13 8.6,12.6 9.3,12.3 9.9,11.9 10.6,11.4 11.3,11 11.9,10.6 12.5,10.3 13.1,9.9 
	13.9,9.5 14.5,9 14.5,9 15.1,9.4 15.8,9.8 16.4,10.1 17.1,10.5 17.8,10.9 18.4,11.3 19,11.6 19.6,12 19.6,11.9 20.4,10.8 19.6,10.4 
	19,10 18.4,9.6 17.8,9.3 17.1,8.9 16.4,8.5 15.8,8.1 15.1,7.8 14.5,7.4 14.5,7.4 13.9,7.8 13.1,8.3 12.5,8.6 11.9,9 11.3,9.4 
	10.6,9.8 9.9,10.3 9.3,10.6 8.6,11 8,11.4 7.4,11.8 6.8,12.1 6.6,16.9 7.4,16.9 "/>
<polygon class="st2" points="33.4,13.3 33,13 32.6,12.8 32.4,12.5 32,12.3 31.6,11.9 31.4,11.6 31,11.4 30.6,11.1 30.3,10.9 
	30,10.6 30,10.8 29.6,11.1 29.3,11.6 29.1,11.8 29.3,11.8 29.6,12.1 30,12.4 30.3,12.6 30.6,13 31,13.3 31.4,13.5 31.6,13.8 
	31.9,14 31.9,20.4 31.6,20.5 31.4,20.6 31,20.9 30.6,21.1 30.3,21.3 30,21.5 29.6,21.8 29.3,22 28.9,22.1 28.6,22.4 28.3,22.6 
	27.9,22.9 27.6,23 27.3,23.3 26.9,23.5 26.5,23.6 26.3,23.9 26.5,24.5 26.9,25 27,25.1 27.3,24.9 27.6,24.8 27.9,24.5 28.3,24.3 
	28.6,24 28.9,23.9 29.3,23.6 29.6,23.4 30,23.3 30.3,23 30.6,22.8 31,22.6 31.4,22.4 31.6,22.1 32,22 32.4,21.8 32.6,21.5 33,21.3 
	33.4,21.1 "/>
<polyline class="st2" points="22.3,17.1 22.3,17.5 22.3,17.8 22.3,18.1 22.3,18.5 22.3,18.9 22.3,19.3 22.3,19.6 22.3,19.9 
	22.4,19.8 22.8,19.6 23.3,19.5 23.8,19.3 24.1,19.1 24.6,18.9 25,18.8 25.5,18.5 26,18.4 26.4,18.1 26.9,18 27.4,17.8 27.4,17.5 
	27.4,17.5 27.4,17.4 27.4,16.4 27.4,9.5 26.8,9.1 26.3,8.9 25.8,8.5 25.3,8.3 24.8,7.9 24.3,7.6 23.6,7.3 23.1,7 22.6,6.6 22.1,6.4 
	21.6,6.1 21.1,5.8 20.5,5.5 20,5.1 19.8,5 19.5,5.1 19,5.4 18.5,5.8 18,6 17.4,6.3 16.9,6.5 16.4,6.9 16.9,7.1 17.4,7.4 17.8,7.6 
	18,7.5 18.5,7.3 19,7 19.5,6.8 19.8,6.6 20,6.8 20.5,7.1 21.1,7.4 21.6,7.6 22.1,8 22.6,8.3 23.1,8.6 23.6,8.9 24.3,9.3 24.8,9.5 
	25.3,9.9 25.8,10.1 25.9,10.3 25.9,16.4 25.8,16.4 25.8,16.4 25.5,16.4 25.3,16.4 25.3,16.4 24.9,16.4 24.8,16.4 24.6,16.4 
	24.4,16.4 24.3,16.4 24,16.4 23.8,16.4 23.6,16.4 23.4,16.4 23.1,16.4 23.1,16.4 22.9,16.4 22.6,16.4 22.5,16.4 22.3,16.4 
	22.3,16.4 "/>
<polyline class="st2" points="22.3,19.9 27.4,17.8 22.3,16.4 "/>
<polyline class="st2" points="17.5,19.9 17.5,16.4 12.9,17.9 17.5,19.9 "/>
</svg>
