<?xml version="1.0" encoding="utf-8"?>
<!-- Generator: Adobe Illustrator 24.0.1, SVG Export Plug-In . SVG Version: 6.00 Build 0)  -->
<svg version="1.1" id="Layer_1" xmlns="http://www.w3.org/2000/svg" xmlns:xlink="http://www.w3.org/1999/xlink" x="0px" y="0px"
	 width="40px" height="40px" viewBox="0 0 40 40" style="enable-background:new 0 0 40 40;" xml:space="preserve">
<style type="text/css">
	.st0{fill:#A1A3AA;}
</style>
<polygon class="st0" points="10.5,17.2 10.5,17.2 10.8,17.2 11.2,17.3 11.3,17.5 11.7,17.5 12,17.7 12.4,17.9 12.7,17.9 12.8,18 
	13.2,18.1 13.5,18.1 13.9,18.4 14,18.5 14.4,18.5 14.7,18.7 15.1,18.8 15.2,18.8 15.5,19.1 15.9,19.1 16.1,19.2 16.5,19.3 
	16.7,19.5 16.7,19.1 16.7,18.8 16.7,18.5 16.7,18.5 16.7,18.1 16.7,18 16.7,17.5 16.7,17.2 16.7,16.7 16.7,16.1 16.7,15.7 
	16.7,15.3 16.7,15.2 16.7,15.2 16.7,15.2 16.4,15.2 16,15.2 16,15.2 16,15.2 15.7,15.2 15.3,15.2 15.3,15.2 15.2,15.2 14.8,15.2 
	14.7,15.2 14.7,15.2 14.5,15.2 14,15.2 14,15.2 14,15.2 13.7,15.2 13.3,15.2 13.3,15.2 13.3,15.2 12.8,15.2 12.5,15.2 12.5,15.2 
	12.5,15.2 12.1,15.2 11.9,15.2 11.9,15.2 11.2,15.2 11.2,15.2 10.5,15.2 10.5,15.2 10.1,15.2 9.9,15.3 9.2,15.7 8.4,16.1 7.7,16.5 
	7.1,16.8 6.4,17.2 5.7,17.5 5.1,17.9 4.4,18.4 3.5,18.7 2.8,19.1 2.4,19.3 2.1,29.7 2.8,30.1 3.5,30.7 4.4,31.1 5.1,31.5 5.7,32 
	6.4,32.5 6.7,32.8 7.1,32.4 7.7,31.3 7.9,31.3 7.7,31.2 7.1,30.7 6.4,30.1 5.7,29.9 5.1,29.3 4.4,28.8 4,28.7 4.1,20.4 4.4,20.1 
	5.1,19.9 5.7,19.5 6.4,19.2 7.1,18.8 7.7,18.5 8.4,18.1 9.2,17.9 9.9,17.5 "/>
<polygon class="st0" points="22.4,36.8 21.9,37.1 21.2,37.3 20.5,37.5 19.9,37.9 19.7,38 19.3,37.9 18.7,37.5 18,37.2 17.3,36.8 
	16.7,36.5 16,36.1 15.3,35.9 14.7,35.5 14.1,35.2 13.5,34.8 12.8,34.5 12.1,34.1 11.5,33.9 11.5,33.9 11.5,25.5 10.8,25.5 
	10.1,25.5 9.7,25.5 9.7,35.1 10.1,35.3 10.8,35.7 11.5,36 12.1,36.4 12.8,36.7 13.5,37.1 14.1,37.3 14.7,37.7 15.3,37.9 16,38.1 
	16.7,38.5 17.3,38.8 18,39.2 18.7,39.5 19.3,39.9 19.5,40 19.9,39.9 20.5,39.7 21.2,39.3 21.9,39.1 22.5,38.8 23.2,38.5 22.5,37.1 
	"/>
<polygon class="st0" points="33.9,25.2 34,29.1 33.9,29.2 32.7,30 31.7,30.8 30.5,31.5 29.3,32.4 28.4,33.2 27.2,33.9 26.1,34.7 
	25.5,35.2 25.1,34.8 24,34 22.8,33.2 21.7,32.4 20.7,31.5 20.5,31.3 20.5,27.1 20.7,26.8 21.7,25.7 22.8,24.5 24,23.5 25.1,22.4 
	26,21.2 25.1,21.2 24,21.2 22.8,21.2 21.7,21.2 20.7,21.2 19.5,21.2 18.5,21.2 17.3,21.2 16.4,21.2 15.2,21.2 14.1,21.2 13.1,21.2 
	14.1,22.4 15.2,23.5 16.4,24.7 17.3,25.7 18.5,26.8 18.7,27.1 18.7,32.1 19.5,33.1 20.7,33.9 21.7,34.7 22.8,35.5 24,36.4 
	25.1,37.2 25.3,37.5 26.1,37.1 27.2,36.1 28.4,35.3 29.3,34.7 30.5,33.9 31.7,33.1 32.7,32.4 33.9,31.5 34.8,30.7 35.9,30 36,25.2 
	34.8,25.2 "/>
<polygon class="st0" points="4,15.9 4.1,15.9 4.1,10.7 4.8,10.1 5.7,9.7 6.5,9.2 7.5,8.5 8.4,8 9.2,7.5 10,7.1 10.8,6.5 11.9,6 
	12.7,5.3 12.7,5.3 13.5,5.9 14.4,6.4 15.2,6.8 16.1,7.3 17.1,7.9 17.9,8.4 18.7,8.8 19.5,9.3 19.5,9.2 20.5,7.7 19.5,7.2 18.7,6.7 
	17.9,6.1 17.1,5.7 16.1,5.2 15.2,4.7 14.4,4.1 13.5,3.7 12.7,3.2 12.7,3.2 11.9,3.7 10.8,4.4 10,4.8 9.2,5.3 8.4,5.9 7.5,6.4 
	6.5,7.1 5.7,7.5 4.8,8 4,8.5 3.2,9.1 2.4,9.5 2.1,15.9 3.2,15.9 "/>
<polygon class="st0" points="37.9,11.1 37.3,10.7 36.8,10.4 36.5,10 36,9.7 35.5,9.2 35.2,8.8 34.7,8.5 34.1,8.1 33.7,7.9 33.3,7.5 
	33.3,7.7 32.8,8.1 32.4,8.8 32.1,9.1 32.4,9.1 32.8,9.5 33.3,9.9 33.7,10.1 34.1,10.7 34.7,11.1 35.2,11.3 35.5,11.7 35.9,12 
	35.9,20.5 35.5,20.7 35.2,20.8 34.7,21.2 34.1,21.5 33.7,21.7 33.3,22 32.8,22.4 32.4,22.7 31.9,22.8 31.5,23.2 31.1,23.5 
	30.5,23.9 30.1,24 29.7,24.4 29.2,24.7 28.7,24.8 28.4,25.2 28.7,26 29.2,26.7 29.3,26.8 29.7,26.5 30.1,26.4 30.5,26 31.1,25.7 
	31.5,25.3 31.9,25.2 32.4,24.8 32.8,24.5 33.3,24.4 33.7,24 34.1,23.7 34.7,23.5 35.2,23.2 35.5,22.8 36,22.7 36.5,22.4 36.8,22 
	37.3,21.7 37.9,21.5 "/>
<polyline class="st0" points="23.1,16.1 23.1,16.7 23.1,17.1 23.1,17.5 23.1,18 23.1,18.5 23.1,19.1 23.1,19.5 23.1,19.9 23.2,19.7 
	23.7,19.5 24.4,19.3 25.1,19.1 25.5,18.8 26.1,18.5 26.7,18.4 27.3,18 28,17.9 28.5,17.5 29.2,17.3 29.9,17.1 29.9,16.7 29.9,16.7 
	29.9,16.5 29.9,15.2 29.9,6 29.1,5.5 28.4,5.2 27.7,4.7 27.1,4.4 26.4,3.9 25.7,3.5 24.8,3.1 24.1,2.7 23.5,2.1 22.8,1.9 22.1,1.5 
	21.5,1.1 20.7,0.7 20,0.1 19.7,0 19.3,0.1 18.7,0.5 18,1.1 17.3,1.3 16.5,1.7 15.9,2 15.2,2.5 15.9,2.8 16.5,3.2 17.1,3.5 17.3,3.3 
	18,3.1 18.7,2.7 19.3,2.4 19.7,2.1 20,2.4 20.7,2.8 21.5,3.2 22.1,3.5 22.8,4 23.5,4.4 24.1,4.8 24.8,5.2 25.7,5.7 26.4,6 27.1,6.5 
	27.7,6.8 27.9,7.1 27.9,15.2 27.7,15.2 27.7,15.2 27.3,15.2 27.1,15.2 27.1,15.2 26.5,15.2 26.4,15.2 26.1,15.2 25.9,15.2 
	25.7,15.2 25.3,15.2 25.1,15.2 24.8,15.2 24.5,15.2 24.1,15.2 24.1,15.2 23.9,15.2 23.5,15.2 23.3,15.2 23.1,15.2 23.1,15.2 "/>
<polyline class="st0" points="23.1,19.9 29.9,17.1 23.1,15.2 "/>
<polyline class="st0" points="16.7,19.9 16.7,15.2 10.5,17.2 16.7,19.9 "/>
</svg>
