<?xml version="1.0" encoding="utf-8"?>
<!-- Generator: Adobe Illustrator 23.0.0, SVG Export Plug-In . SVG Version: 6.00 Build 0)  -->
<svg version="1.1" id="Layer_1" xmlns="http://www.w3.org/2000/svg" xmlns:xlink="http://www.w3.org/1999/xlink" x="0px" y="0px"
	 width="32px" height="32px" viewBox="0 0 32 32" style="enable-background:new 0 0 32 32;" xml:space="preserve">
<style type="text/css">
	.st0{fill:#E54817;}
	.st1{fill:url(#SVGID_1_);}
	.st2{fill:#FFFFFF;}
</style>
<path class="st0" d="M20,32h-8C5.4,32,0,26.6,0,20v-8C0,5.4,5.4,0,12,0h8c6.6,0,12,5.4,12,12v8C32,26.6,26.6,32,20,32z"/>
<linearGradient id="SVGID_1_" gradientUnits="userSpaceOnUse" x1="7.2681" y1="0.8759" x2="24.7319" y2="31.1241">
	<stop  offset="0" style="stop-color:#FFFFFF;stop-opacity:0.5"/>
	<stop  offset="1" style="stop-color:#FFFFFF;stop-opacity:0"/>
</linearGradient>
<path class="st1" d="M20,32h-8C5.4,32,0,26.6,0,20v-8C0,5.4,5.4,0,12,0h8c6.6,0,12,5.4,12,12v8C32,26.6,26.6,32,20,32z"/>
<polygon class="st2" points="10.3,14.3 10.3,14.3 10.5,14.3 10.7,14.4 10.8,14.5 11,14.5 11.2,14.6 11.4,14.7 11.6,14.7 11.7,14.8 
	11.9,14.9 12.1,14.9 12.3,15 12.4,15.1 12.6,15.1 12.8,15.2 13,15.3 13.1,15.3 13.3,15.4 13.5,15.4 13.7,15.5 13.9,15.6 14,15.7 
	14,15.4 14,15.3 14,15.1 14,15.1 14,14.9 14,14.8 14,14.5 14,14.3 14,14 14,13.7 14,13.4 14,13.2 14,13.1 14,13.1 14,13.1 
	13.8,13.1 13.6,13.1 13.6,13.1 13.6,13.1 13.4,13.1 13.2,13.1 13.2,13.1 13.1,13.1 12.9,13.1 12.8,13.1 12.8,13.1 12.7,13.1 
	12.4,13.1 12.4,13.1 12.4,13.1 12.2,13.1 12,13.1 12,13.1 12,13.1 11.7,13.1 11.5,13.1 11.5,13.1 11.5,13.1 11.3,13.1 11.1,13.1 
	11.1,13.1 10.7,13.1 10.7,13.1 10.3,13.1 10.3,13.1 10.1,13.1 9.9,13.2 9.5,13.4 9,13.7 8.6,13.9 8.2,14.1 7.8,14.3 7.4,14.5 
	7,14.7 6.6,15 6.1,15.2 5.7,15.4 5.4,15.6 5.3,21.8 5.7,22.1 6.1,22.4 6.6,22.6 7,22.9 7.4,23.2 7.8,23.5 8,23.7 8.2,23.4 8.6,22.8 
	8.7,22.8 8.6,22.7 8.2,22.4 7.8,22.1 7.4,21.9 7,21.6 6.6,21.3 6.4,21.2 6.5,16.2 6.6,16.1 7,15.9 7.4,15.7 7.8,15.5 8.2,15.3 
	8.6,15.1 9,14.9 9.5,14.7 9.9,14.5 "/>
<polygon class="st2" points="17.4,26.1 17.1,26.2 16.7,26.4 16.3,26.5 15.9,26.7 15.8,26.8 15.6,26.7 15.2,26.5 14.8,26.3 
	14.4,26.1 14,25.9 13.6,25.7 13.2,25.5 12.8,25.3 12.5,25.1 12.1,24.9 11.7,24.7 11.3,24.5 10.9,24.3 10.9,24.3 10.9,19.3 
	10.5,19.3 10.1,19.3 9.8,19.3 9.8,25 10.1,25.2 10.5,25.4 10.9,25.6 11.3,25.8 11.7,26 12.1,26.2 12.5,26.4 12.8,26.6 13.2,26.7 
	13.6,26.9 14,27.1 14.4,27.3 14.8,27.5 15.2,27.7 15.6,27.9 15.7,28 15.9,27.9 16.3,27.8 16.7,27.6 17.1,27.4 17.5,27.3 17.9,27.1 
	17.5,26.2 "/>
<polygon class="st2" points="24.3,19.1 24.4,21.4 24.3,21.5 23.6,22 23,22.5 22.3,22.9 21.6,23.4 21,23.9 20.3,24.3 19.7,24.8 
	19.3,25.1 19,24.9 18.4,24.4 17.7,23.9 17,23.4 16.4,22.9 16.3,22.8 16.3,20.2 16.4,20.1 17,19.4 17.7,18.7 18.4,18.1 19,17.4 
	19.6,16.7 19,16.7 18.4,16.7 17.7,16.7 17,16.7 16.4,16.7 15.7,16.7 15.1,16.7 14.4,16.7 13.8,16.7 13.1,16.7 12.5,16.7 11.8,16.7 
	12.5,17.4 13.1,18.1 13.8,18.8 14.4,19.4 15.1,20.1 15.2,20.2 15.2,23.3 15.7,23.8 16.4,24.3 17,24.8 17.7,25.3 18.4,25.8 19,26.3 
	19.2,26.5 19.7,26.2 20.3,25.7 21,25.2 21.6,24.8 22.3,24.3 23,23.8 23.6,23.4 24.3,22.9 24.9,22.4 25.5,22 25.6,19.1 24.9,19.1 "/>
<polygon class="st2" points="6.4,13.5 6.5,13.5 6.5,10.4 6.9,10.1 7.4,9.8 7.9,9.5 8.5,9.1 9,8.8 9.5,8.5 10,8.2 10.5,7.9 11.1,7.6 
	11.6,7.2 11.6,7.2 12.1,7.5 12.6,7.8 13.1,8.1 13.7,8.4 14.2,8.7 14.7,9 15.2,9.3 15.7,9.6 15.7,9.5 16.3,8.6 15.7,8.3 15.2,8 
	14.7,7.7 14.2,7.4 13.7,7.1 13.1,6.8 12.6,6.5 12.1,6.2 11.6,5.9 11.6,5.9 11.1,6.2 10.5,6.6 10,6.9 9.5,7.2 9,7.5 8.5,7.8 7.9,8.2 
	7.4,8.5 6.9,8.8 6.4,9.1 5.9,9.4 5.4,9.7 5.3,13.5 5.9,13.5 "/>
<polygon class="st2" points="26.7,10.6 26.4,10.4 26.1,10.2 25.9,10 25.6,9.8 25.3,9.5 25.1,9.3 24.8,9.1 24.5,8.9 24.2,8.7 24,8.5 
	24,8.6 23.7,8.9 23.4,9.3 23.3,9.4 23.4,9.4 23.7,9.7 24,9.9 24.2,10.1 24.5,10.4 24.8,10.6 25.1,10.8 25.3,11 25.5,11.2 25.5,16.3 
	25.3,16.4 25.1,16.5 24.8,16.7 24.5,16.9 24.2,17 24,17.2 23.7,17.4 23.4,17.6 23.1,17.7 22.9,17.9 22.6,18.1 22.3,18.3 22.1,18.4 
	21.8,18.6 21.5,18.8 21.2,18.9 21,19.1 21.2,19.6 21.5,20 21.6,20.1 21.8,19.9 22.1,19.8 22.3,19.6 22.6,19.4 22.9,19.2 23.1,19.1 
	23.4,18.9 23.7,18.7 24,18.6 24.2,18.4 24.5,18.2 24.8,18.1 25.1,17.9 25.3,17.7 25.6,17.6 25.9,17.4 26.1,17.2 26.4,17 26.7,16.9 
	"/>
<polyline class="st2" points="17.8,13.7 17.8,14 17.8,14.2 17.8,14.5 17.8,14.8 17.8,15.1 17.8,15.4 17.8,15.7 17.8,15.9 17.9,15.8 
	18.2,15.7 18.6,15.6 19,15.4 19.3,15.3 19.7,15.1 20,15 20.4,14.8 20.8,14.7 21.1,14.5 21.5,14.4 21.9,14.2 21.9,14 21.9,14 
	21.9,13.9 21.9,13.1 21.9,7.6 21.4,7.3 21,7.1 20.6,6.8 20.2,6.6 19.8,6.3 19.4,6.1 18.9,5.8 18.5,5.6 18.1,5.3 17.7,5.1 17.3,4.9 
	16.9,4.6 16.4,4.4 16,4.1 15.8,4 15.6,4.1 15.2,4.3 14.8,4.6 14.4,4.8 13.9,5 13.5,5.2 13.1,5.5 13.5,5.7 13.9,5.9 14.2,6.1 14.4,6 
	14.8,5.8 15.2,5.6 15.6,5.4 15.8,5.3 16,5.4 16.4,5.7 16.9,5.9 17.3,6.1 17.7,6.4 18.1,6.6 18.5,6.9 18.9,7.1 19.4,7.4 19.8,7.6 
	20.2,7.9 20.6,8.1 20.7,8.2 20.7,13.1 20.6,13.1 20.6,13.1 20.4,13.1 20.2,13.1 20.2,13.1 19.9,13.1 19.8,13.1 19.7,13.1 19.5,13.1 
	19.4,13.1 19.2,13.1 19,13.1 18.9,13.1 18.7,13.1 18.5,13.1 18.5,13.1 18.3,13.1 18.1,13.1 18,13.1 17.8,13.1 17.8,13.1 "/>
<polyline class="st2" points="17.8,15.9 21.9,14.2 17.8,13.1 "/>
<polyline class="st2" points="14,15.9 14,13.1 10.3,14.3 14,15.9 "/>
</svg>
