<?xml version="1.0" encoding="utf-8"?>
<!-- Generator: Adobe Illustrator 24.0.1, SVG Export Plug-In . SVG Version: 6.00 Build 0)  -->
<svg version="1.1" id="Layer_1" xmlns="http://www.w3.org/2000/svg" xmlns:xlink="http://www.w3.org/1999/xlink" x="0px" y="0px"
	 width="40px" height="40px" viewBox="0 0 40 40" style="enable-background:new 0 0 40 40;" xml:space="preserve">
<style type="text/css">
	.st0{fill:#A1A3AA;}
</style>
<title>rgb-logo-only</title>
<path class="st0" d="M30.3,37.2l-27-19c-3.2-2.2-4-6.5-1.8-9.8c0.6-0.7,1.1-1.2,1.8-1.8l6.3-4.7l27,19c3.2,2.2,4,6.5,1.8,9.8
	c-0.6,0.7-1.1,1.2-1.8,1.8L30.3,37.2z M9.7,5.1L4.4,8.7c-2.1,1.4-2.6,4.3-1.1,6.2C3.7,15.4,4,15.7,4.4,16l25.9,18.1l5.2-3.6
	c2.1-1.4,2.6-4.3,1.1-6.2c-0.4-0.4-0.7-0.8-1.1-1.1L9.7,5.1z"/>
<path class="st0" d="M9.7,34.8l-5.2-3.6c-2.1-1.4-2.6-4.3-1.1-6.2c0.4-0.4,0.7-0.8,1.1-1.1l13.2-9.4L15.4,13L3,21.8
	c-3.2,2.2-4,6.5-1.8,9.8c0.6,0.7,1,1.2,1.8,1.8l6.6,4.7l8.1-5.7l-2.2-1.5L9.7,34.8z"/>
<path class="st0" d="M37,6.6l-6.6-4.7l-8.1,5.7l2.2,1.5L30.3,5l5.2,3.6c2.1,1.4,2.6,4.3,1.1,6.2c-0.4,0.3-0.7,0.8-1.1,1.1l-13.2,9.4
	l2.2,1.5L37,17.9c3.2-2.2,4-6.6,1.8-9.8C38.1,7.7,37.7,7.2,37,6.6L37,6.6z"/>
<rect x="4.4" y="16.1" transform="matrix(0.8194 -0.5733 0.5733 0.8194 -8.0526 9.2819)" class="st0" width="12.6" height="2.6"/>
<path class="st0" d="M34.2,17l-5,3.4l1.4,2.1l5.2-3.6C35.2,18.3,34.6,17.7,34.2,17z"/>
</svg>
