<?xml version="1.0" encoding="utf-8"?>
<!-- Generator: Adobe Illustrator 24.0.1, SVG Export Plug-In . SVG Version: 6.00 Build 0)  -->
<svg version="1.1" id="Layer_1" xmlns="http://www.w3.org/2000/svg" xmlns:xlink="http://www.w3.org/1999/xlink" x="0px" y="0px"
	 width="40px" height="40px" viewBox="0 0 40 40" style="enable-background:new 0 0 40 40;" xml:space="preserve">
<style type="text/css">
	.st0{fill:#02819B;}
	.st1{fill:url(#SVGID_1_);}
	.st2{fill:#FFFFFF;}
</style>
<path class="st0" d="M25,40H15C6.8,40,0,33.3,0,25V15C0,6.8,6.8,0,15,0h10c8.3,0,15,6.8,15,15v10C40,33.3,33.3,40,25,40z"/>
<linearGradient id="SVGID_1_" gradientUnits="userSpaceOnUse" x1="9.0907" y1="40.8954" x2="30.9093" y2="3.1046" gradientTransform="matrix(1 0 0 -1 0 42)">
	<stop  offset="0" style="stop-color:#FFFFFF;stop-opacity:0.5"/>
	<stop  offset="1" style="stop-color:#FFFFFF;stop-opacity:0"/>
</linearGradient>
<path class="st1" d="M25,40H15C6.8,40,0,33.3,0,25V15C0,6.8,6.8,0,15,0h10c8.3,0,15,6.8,15,15v10C40,33.3,33.3,40,25,40z"/>
<title>rgb-logo-only</title>
<path class="st2" d="M27.5,32.8L7.9,19c-2.3-1.6-2.9-4.7-1.3-7.1C7,11.4,7.4,11,7.9,10.6l4.6-3.4L32.1,21c2.3,1.6,2.9,4.7,1.3,7.1
	c-0.4,0.5-0.8,0.9-1.3,1.3L27.5,32.8z M12.5,9.5l-3.8,2.6c-1.5,1-1.9,3.1-0.8,4.5c0.3,0.4,0.5,0.6,0.8,0.8l18.8,13.1l3.8-2.6
	c1.5-1,1.9-3.1,0.8-4.5c-0.3-0.3-0.5-0.6-0.8-0.8L12.5,9.5z"/>
<path class="st2" d="M12.5,31l-3.8-2.6c-1.5-1-1.9-3.1-0.8-4.5c0.3-0.3,0.5-0.6,0.8-0.8l9.6-6.8l-1.6-1.1l-9,6.4
	c-2.3,1.6-2.9,4.7-1.3,7.1c0.4,0.5,0.7,0.9,1.3,1.3l4.8,3.4l5.9-4.1l-1.6-1.1L12.5,31z"/>
<path class="st2" d="M32.3,10.6l-4.8-3.4l-5.9,4.1l1.6,1.1l4.3-3l3.8,2.6c1.5,1,1.9,3.1,0.8,4.5c-0.3,0.2-0.5,0.6-0.8,0.8l-9.6,6.8
	l1.6,1.1l9-6.4c2.3-1.6,2.9-4.8,1.3-7.1C33.1,11.4,32.8,11,32.3,10.6L32.3,10.6z"/>
<rect x="8.7" y="17.5" transform="matrix(0.8194 -0.5733 0.5733 0.8194 -8.1744 10.9072)" class="st2" width="9.1" height="1.9"/>
<path class="st2" d="M30.3,18.1l-3.6,2.5l1,1.5l3.8-2.6C31,19.1,30.6,18.6,30.3,18.1z"/>
</svg>
