<?xml version="1.0" encoding="utf-8"?>
<!-- Generator: Adobe Illustrator 24.0.1, SVG Export Plug-In . SVG Version: 6.00 Build 0)  -->
<svg version="1.1" id="Layer_1" xmlns="http://www.w3.org/2000/svg" xmlns:xlink="http://www.w3.org/1999/xlink" x="0px" y="0px"
	 width="40px" height="40px" viewBox="0 0 40 40" style="enable-background:new 0 0 40 40;" xml:space="preserve">
<style type="text/css">
	.st0{fill:#444444;}
	.st1{fill:url(#SVGID_1_);}
	.st2{fill:#FFFFFF;stroke:#FFFFFF;stroke-width:0.25;stroke-miterlimit:10;}
</style>
<path class="st0" d="M25,40H15C6.8,40,0,33.3,0,25V15C0,6.8,6.8,0,15,0h10c8.3,0,15,6.8,15,15v10C40,33.3,33.3,40,25,40z"/>
<linearGradient id="SVGID_1_" gradientUnits="userSpaceOnUse" x1="9.0907" y1="267.1046" x2="30.9093" y2="304.8954" gradientTransform="matrix(1 0 0 1 0 -266)">
	<stop  offset="0" style="stop-color:#FFFFFF;stop-opacity:0.5"/>
	<stop  offset="1" style="stop-color:#FFFFFF;stop-opacity:0"/>
</linearGradient>
<path class="st1" d="M25,40H15C6.8,40,0,33.3,0,25V15C0,6.8,6.8,0,15,0h10c8.3,0,15,6.8,15,15v10C40,33.3,33.3,40,25,40z"/>
<g>
	<path class="st2" d="M24.4,26.5h1.3l-5-5l0.8-0.8l5.8,5.8h1.3l-6.3-6.3l6.4-6.4h-1.3L10.5,30.4c-0.3-0.1-0.4-0.3-0.5-0.4
		c-2.6-2.6-4.1-6.3-4.1-10s1.5-7.3,4.1-10c2.6-2.6,6.3-4.1,10-4.1c3,0,5.9,0.9,8.3,2.6l0.6-0.6C26.3,6,23.3,5,20,5
		c-4,0-7.8,1.5-10.6,4.4S5,16,5,20s1.5,7.8,4.4,10.6c0.4,0.3,0.6,0.6,1,0.9h0.1l0.6-0.6l0.1-0.1l8.9-8.9L24.4,26.5z"/>
	<path class="st2" d="M30.6,9.4c-0.3-0.3-0.6-0.6-0.9-0.9h-0.1L29,9.1l-9,9l-4.4-4.4h-1.3l5,5l-0.8,0.8l-5.7-5.8h-1.3l7,7l11-11
		C29.8,9.9,29.9,10,30,10c2.6,2.6,4.1,6.3,4.1,10s-1.5,7.3-4.1,10c-2.6,2.6-6.3,4.1-10,4.1c-3,0-5.8-0.9-8.1-2.6l-0.6,0.6
		C13.8,34,16.9,35,20,35c4,0,7.8-1.5,10.6-4.4S35,24,35,20S33.4,12.3,30.6,9.4z"/>
</g>
</svg>
