<?xml version="1.0" encoding="utf-8"?>
<!-- Generator: Adobe Illustrator 24.0.1, SVG Export Plug-In . SVG Version: 6.00 Build 0)  -->
<svg version="1.1" id="Layer_1" xmlns="http://www.w3.org/2000/svg" xmlns:xlink="http://www.w3.org/1999/xlink" x="0px" y="0px"
	 width="40px" height="40px" viewBox="0 0 40 40" style="enable-background:new 0 0 40 40;" xml:space="preserve">
<style type="text/css">
	.st0{fill:#A1A3AA;stroke:#FFFFFF;stroke-width:0.25;stroke-miterlimit:10;}
</style>
<g>
	<path class="st0" d="M25.9,28.7h1.7L20.9,22l1.1-1.1l7.7,7.7h1.7l-8.4-8.4l8.5-8.5h-1.7L7.3,33.9c-0.4-0.1-0.5-0.4-0.7-0.5
		C3.2,29.9,1.2,24.9,1.2,20s2-9.7,5.5-13.3c3.5-3.5,8.4-5.5,13.3-5.5c4,0,7.9,1.2,11.1,3.5l0.8-0.8C28.4,1.3,24.4,0,20,0
		C14.7,0,9.6,2,5.9,5.9S0,14.7,0,20s2,10.4,5.9,14.1c0.5,0.4,0.8,0.8,1.3,1.2h0.1l0.8-0.8l0.1-0.1l11.9-11.9L25.9,28.7z"/>
	<path class="st0" d="M34.1,5.9c-0.4-0.4-0.8-0.8-1.2-1.2h-0.1L32,5.5l-12,12l-5.9-5.9h-1.7l6.7,6.7L18,19.3l-7.6-7.7H8.7l9.3,9.3
		L32.7,6.3c0.4,0.3,0.5,0.4,0.7,0.4c3.5,3.5,5.5,8.4,5.5,13.3s-2,9.7-5.5,13.3c-3.5,3.5-8.4,5.5-13.3,5.5c-4,0-7.7-1.2-10.8-3.5
		l-0.8,0.8C11.7,38.7,15.9,40,20,40c5.3,0,10.4-2,14.1-5.9S40,25.3,40,20S37.9,9.7,34.1,5.9z"/>
</g>
</svg>
