<?xml version="1.0" encoding="utf-8"?>
<!-- Generator: Adobe Illustrator 24.0.1, SVG Export Plug-In . SVG Version: 6.00 Build 0)  -->
<svg version="1.1" id="Layer_1" xmlns="http://www.w3.org/2000/svg" xmlns:xlink="http://www.w3.org/1999/xlink" x="0px" y="0px"
	 width="40px" height="40px" viewBox="0 0 40 40" style="enable-background:new 0 0 40 40;" xml:space="preserve">
<style type="text/css">
	.st0{opacity:0.9;fill:#A1A3AA;}
	.st1{fill:#A1A3AA;}
	.st2{opacity:0.8;fill:#A1A3AA;}
</style>
<g id="matic">
	<polygon class="st0" points="26.6,15.7 26.6,23.3 26.6,23.3 19.9,27.1 19.9,19.6 23,17.7 	"/>
	<polygon class="st1" points="33.5,35.3 33.2,35.6 26.6,31.7 26.6,8.1 33.2,11.9 33.2,35.3 	"/>
	<polygon class="st2" points="40,8.1 40,31.7 33.5,35.3 33.2,35.3 33.2,11.9 35.2,10.9 	"/>
	<polygon class="st0" points="40,8.1 35.2,10.9 33.2,11.9 26.6,8.1 33.2,4.4 	"/>
	<polygon class="st1" points="19.9,19.6 19.9,27.1 13.2,23.3 6.7,19.6 6.7,35.3 0,31.7 0,8.1 16,17.2 	"/>
	<polygon class="st2" points="26.6,15.7 23,17.7 19.9,19.6 16,17.2 0,8.1 6.7,4.4 	"/>
	<polygon class="st2" points="13.2,23.3 13.2,31.7 6.7,35.3 6.7,19.6 	"/>
</g>
</svg>
