<?xml version="1.0" encoding="utf-8"?>
<!-- Generator: Adobe Illustrator 23.0.0, SVG Export Plug-In . SVG Version: 6.00 Build 0)  -->
<svg version="1.1" id="Layer_1" xmlns="http://www.w3.org/2000/svg" xmlns:xlink="http://www.w3.org/1999/xlink" x="0px" y="0px"
	 width="32px" height="32px" viewBox="0 0 32 32" style="enable-background:new 0 0 32 32;" xml:space="preserve">
<style type="text/css">
	.st0{fill:#2B6DEF;}
	.st1{fill:url(#SVGID_1_);}
	.st2{fill:#EEFBFF;}
	.st3{fill:#DCF1FF;}
	.st4{fill:#D9E8FF;}
</style>
<path class="st0" d="M20,32h-8C5.4,32,0,26.6,0,20v-8C0,5.4,5.4,0,12,0h8c6.6,0,12,5.4,12,12v8C32,26.6,26.6,32,20,32z"/>
<linearGradient id="SVGID_1_" gradientUnits="userSpaceOnUse" x1="7.2681" y1="0.8759" x2="24.7319" y2="31.1241">
	<stop  offset="0" style="stop-color:#FFFFFF;stop-opacity:0.5"/>
	<stop  offset="1" style="stop-color:#FFFFFF;stop-opacity:0"/>
</linearGradient>
<path class="st1" d="M20,32h-8C5.4,32,0,26.6,0,20v-8C0,5.4,5.4,0,12,0h8c6.6,0,12,5.4,12,12v8C32,26.6,26.6,32,20,32z"/>
<g id="matic">
	<polygon class="st2" points="19.7,13.7 19.7,17.8 19.7,17.8 16,19.9 16,15.8 17.7,14.8 	"/>
	<polygon class="st3" points="23.4,24.5 23.3,24.6 19.7,22.5 19.7,9.5 23.3,11.6 23.3,24.5 	"/>
	<polygon class="st2" points="27,9.5 27,22.5 23.4,24.5 23.3,24.5 23.3,11.6 24.4,11 	"/>
	<polygon class="st4" points="27,9.5 24.4,11 23.3,11.6 19.7,9.5 23.3,7.4 	"/>
	<polygon class="st3" points="16,15.8 16,19.9 12.3,17.8 8.7,15.8 8.7,24.5 5,22.5 5,9.5 13.8,14.5 	"/>
	<polygon class="st4" points="19.7,13.7 17.7,14.8 16,15.8 13.8,14.5 5,9.5 8.7,7.4 	"/>
	<polygon class="st2" points="12.3,17.8 12.3,22.5 8.7,24.5 8.7,15.8 	"/>
</g>
</svg>
