<?xml version="1.0" encoding="utf-8"?>
<!-- Generator: Adobe Illustrator 23.0.0, SVG Export Plug-In . SVG Version: 6.00 Build 0)  -->
<svg version="1.1" id="Layer_1" xmlns="http://www.w3.org/2000/svg" xmlns:xlink="http://www.w3.org/1999/xlink" x="0px" y="0px"
	 width="32px" height="32px" viewBox="0 0 32 32" style="enable-background:new 0 0 32 32;" xml:space="preserve">
<style type="text/css">
	.st0{fill:#103F68;}
	.st1{fill:url(#SVGID_1_);}
	.st2{fill:#FFFFFF;}
</style>
<path class="st0" d="M20,32h-8C5.4,32,0,26.6,0,20v-8C0,5.4,5.4,0,12,0h8c6.6,0,12,5.4,12,12v8C32,26.6,26.6,32,20,32z"/>
<linearGradient id="SVGID_1_" gradientUnits="userSpaceOnUse" x1="7.2681" y1="0.8759" x2="24.7319" y2="31.1241">
	<stop  offset="0" style="stop-color:#FFFFFF;stop-opacity:0.5"/>
	<stop  offset="1" style="stop-color:#FFFFFF;stop-opacity:0"/>
</linearGradient>
<path class="st1" d="M20,32h-8C5.4,32,0,26.6,0,20v-8C0,5.4,5.4,0,12,0h8c6.6,0,12,5.4,12,12v8C32,26.6,26.6,32,20,32z"/>
<path class="st2" d="M16,4l10.4,6v12L16,28l-0.1,0L5.6,22V10L16,4C15.9,4,16,4,16,4z M15.9,5.3l-9.2,5.4v10.8l9.2,5.4l1.1-0.7
	l8.2-4.7V10.6l-8.2-4.7L15.9,5.3z M8.1,16.8l2.7-2l2.4,1.5v2.8l1.8,1.8l0,0.8l-1.8,1.6h-1.5L8.1,16.8L8.1,16.8z M16.8,21.7l0-0.8
	l1.8-1.8v-2.8l2.4-1.6l2.7,2.1L20,23.3h-1.5L16.8,21.7z M14.2,16.3L13.3,14h5.3l-0.9,2.3l0.3,2.6l-2,0l-2,0
	C13.9,18.9,14.2,16.3,14.2,16.3z M15.9,13.4l-5,0l0.9-4.2H20l1,4.2L15.9,13.4z"/>
</svg>
