<?xml version="1.0" encoding="utf-8"?>
<!-- Generator: Adobe Illustrator 24.0.1, SVG Export Plug-In . SVG Version: 6.00 Build 0)  -->
<svg version="1.1" id="Layer_1" xmlns="http://www.w3.org/2000/svg" xmlns:xlink="http://www.w3.org/1999/xlink" x="0px" y="0px"
	 width="40px" height="40px" viewBox="0 0 40 40" style="enable-background:new 0 0 40 40;" xml:space="preserve">
<style type="text/css">
	.st0{fill:#A1A3AA;}
</style>
<path class="st0" d="M20,0l17.3,10v20L20,40h-0.1L2.7,30V10L20,0C19.9,0,20,0,20,0z M19.9,2.1L4.5,11.2v18l15.3,9.1l1.9-1.2
	l13.7-7.9V11.1L21.7,3.2L19.9,2.1z M6.8,21.3l4.5-3.3l4,2.5v4.7l3.1,2.9v1.3l-3.1,2.7h-2.5L6.8,21.3L6.8,21.3z M21.3,29.5v-1.3
	l2.9-2.9v-4.7l4-2.7l4.5,3.5l-6.1,10.8h-2.5L21.3,29.5z M17.1,20.5l-1.5-3.9h8.8l-1.5,3.9l0.5,4.4H20h-3.3
	C16.5,24.8,17.1,20.5,17.1,20.5z M19.9,15.7h-8.4l1.5-7.1h13.7l1.7,7.1H19.9z"/>
</svg>
