<?xml version="1.0" encoding="utf-8"?>
<!-- Generator: Adobe Illustrator 24.0.1, SVG Export Plug-In . SVG Version: 6.00 Build 0)  -->
<svg version="1.1" id="Layer_1" xmlns="http://www.w3.org/2000/svg" xmlns:xlink="http://www.w3.org/1999/xlink" x="0px" y="0px"
	 width="40px" height="40px" viewBox="0 0 40 40" style="enable-background:new 0 0 40 40;" xml:space="preserve">
<style type="text/css">
	.st0{fill:#103F68;}
	.st1{fill:url(#SVGID_1_);}
	.st2{fill:#FFFFFF;}
</style>
<path class="st0" d="M25,40H15C6.8,40,0,33.3,0,25V15C0,6.8,6.8,0,15,0h10c8.3,0,15,6.8,15,15v10C40,33.3,33.3,40,25,40z"/>
<linearGradient id="SVGID_1_" gradientUnits="userSpaceOnUse" x1="9.0907" y1="40.8954" x2="30.9093" y2="3.1046" gradientTransform="matrix(1 0 0 -1 0 42)">
	<stop  offset="0" style="stop-color:#FFFFFF;stop-opacity:0.5"/>
	<stop  offset="1" style="stop-color:#FFFFFF;stop-opacity:0"/>
</linearGradient>
<path class="st1" d="M25,40H15C6.8,40,0,33.3,0,25V15C0,6.8,6.8,0,15,0h10c8.3,0,15,6.8,15,15v10C40,33.3,33.3,40,25,40z"/>
<path class="st2" d="M20,5l13,7.5v15L20,35h-0.1L7,27.5v-15L20,5C19.9,5,20,5,20,5z M19.9,6.6L8.4,13.4v13.5l11.5,6.8l1.4-0.9
	l10.3-5.9V13.3L21.3,7.4L19.9,6.6z M10.1,21l3.4-2.5l3,1.9v3.5l2.3,2.2v1l-2.3,2h-1.9L10.1,21L10.1,21z M21,27.1v-1l2.2-2.2v-3.5
	l3-2l3.4,2.6L25,29.1h-1.9L21,27.1z M17.8,20.4l-1.1-2.9h6.6l-1.1,2.9l0.4,3.3H20h-2.5C17.4,23.6,17.8,20.4,17.8,20.4z M19.9,16.8
	h-6.3l1.1-5.3H25l1.3,5.3H19.9z"/>
</svg>
