<?xml version="1.0" encoding="utf-8"?>
<!-- Generator: Adobe Illustrator 24.0.1, SVG Export Plug-In . SVG Version: 6.00 Build 0)  -->
<svg version="1.1" id="Layer_1" xmlns="http://www.w3.org/2000/svg" xmlns:xlink="http://www.w3.org/1999/xlink" x="0px" y="0px"
	 width="40px" height="40px" viewBox="0 0 40 40" style="enable-background:new 0 0 40 40;" xml:space="preserve">
<style type="text/css">
	.st0{fill:#A1A3AA;}
</style>
<g id="layer102">
	<path class="st0" d="M0,20V6l0.1,0.1c0.1,0,4.5,3.4,9.6,7.2l9.5,6.9v7V34h-1.9h-1.8v-6v-6l-6-4.4l-6-4.5v10.7v10.4H1.8H0V20z"/>
	<path class="st0" d="M20.6,27.2v-7l8.9-6.4c5-3.5,9.3-6.7,9.6-7.2L40,5.8V20v14h-1.9h-1.9V23.6V13.3l-6,4.4l-6.3,4.2v6v6H22h-1.9
		v-6.7H20.6z"/>
</g>
</svg>
