<svg width="36" height="40" viewBox="0 0 36 40" fill="none" xmlns="http://www.w3.org/2000/svg">
<path fill-rule="evenodd" clip-rule="evenodd" d="M21 1.73205L32.3205 8.26795C34.1769 9.33975 35.3205 11.3205 35.3205 13.4641V26.5359C35.3205 28.6795 34.1769 30.6603 32.3205 31.732L21 38.2679C19.1436 39.3397 16.8564 39.3397 15 38.2679L3.67949 31.732C1.82308 30.6603 0.679489 28.6795 0.679489 26.5359V13.4641C0.679489 11.3205 1.82308 9.33975 3.67949 8.26795L15 1.73205C16.8564 0.660254 19.1436 0.660254 21 1.73205Z" fill="url(#paint0_linear)"/>
<path d="M15.194 20.5563V26.5733C15.194 27.1256 15.6418 27.5733 16.194 27.5733C16.7463 27.5733 17.194 27.1256 17.194 26.5733V20.033C17.194 19.7052 17.0334 19.3982 16.7641 19.2114L8.26753 13.316C7.60439 12.8559 6.69746 13.3304 6.69746 14.1376V26.5733C6.69746 27.1256 7.14518 27.5733 7.69746 27.5733C8.24975 27.5733 8.69746 27.1256 8.69746 26.5733V16.0486L15.194 20.5563Z" fill="white"/>
<path d="M20.8671 20.5563V26.5733C20.8671 27.1256 20.4194 27.5733 19.8671 27.5733C19.3148 27.5733 18.8671 27.1256 18.8671 26.5733V20.033C18.8671 19.7052 19.0277 19.3982 19.297 19.2114L27.7936 13.316C28.4567 12.8559 29.3637 13.3304 29.3637 14.1376V26.5733C29.3637 27.1256 28.9159 27.5733 28.3637 27.5733C27.8114 27.5733 27.3637 27.1256 27.3637 26.5733V16.0486L20.8671 20.5563Z" fill="white"/>
<defs>
<linearGradient id="paint0_linear" x1="10.0604" y1="3.63141" x2="28.7646" y2="32.7737" gradientUnits="userSpaceOnUse">
<stop stop-color="#1FA89A"/>
<stop offset="1" stop-color="#0D897B"/>
</linearGradient>
</defs>
</svg>
