<?xml version="1.0" encoding="utf-8"?>
<!-- Generator: Adobe Illustrator 24.0.1, SVG Export Plug-In . SVG Version: 6.00 Build 0)  -->
<svg version="1.1" id="Layer_1" xmlns="http://www.w3.org/2000/svg" xmlns:xlink="http://www.w3.org/1999/xlink" x="0px" y="0px"
	 width="40px" height="40px" viewBox="0 0 40 40" style="enable-background:new 0 0 40 40;" xml:space="preserve">
<style type="text/css">
	.st0{fill:#0A8989;}
	.st1{fill:url(#SVGID_1_);}
	.st2{fill:#FFFFFF;}
</style>
<path class="st0" d="M25,40H15C6.8,40,0,33.3,0,25V15C0,6.8,6.8,0,15,0h10c8.3,0,15,6.8,15,15v10C40,33.3,33.3,40,25,40z"/>
<linearGradient id="SVGID_1_" gradientUnits="userSpaceOnUse" x1="9.0907" y1="-625.1046" x2="30.9093" y2="-662.8954" gradientTransform="matrix(1 0 0 -1 0 -624)">
	<stop  offset="0" style="stop-color:#FFFFFF;stop-opacity:0.5"/>
	<stop  offset="1" style="stop-color:#FFFFFF;stop-opacity:0"/>
</linearGradient>
<path class="st1" d="M25,40H15C6.8,40,0,33.3,0,25V15C0,6.8,6.8,0,15,0h10c8.3,0,15,6.8,15,15v10C40,33.3,33.3,40,25,40z"/>
<title>NBC Logo without bg</title>
<polygon class="st2" points="29.9,19.3 29.9,20.8 33.8,20.8 33.8,23.3 29.9,23.3 29.9,30.8 23.4,30.8 14.8,16.3 14.8,30.8 
	10.1,30.8 10.1,23.3 6.3,23.3 6.3,20.8 10.1,20.8 10.1,19.3 6.3,19.3 6.3,16.8 10.1,16.8 10.1,9.3 16,9.3 25.3,24.9 25.3,9.3 
	29.9,9.3 29.9,16.8 33.8,16.8 33.8,19.3 "/>
</svg>
