<?xml version="1.0" encoding="utf-8"?>
<!-- Generator: Adobe Illustrator 24.0.1, SVG Export Plug-In . SVG Version: 6.00 Build 0)  -->
<svg version="1.1" id="Layer_1" xmlns="http://www.w3.org/2000/svg" xmlns:xlink="http://www.w3.org/1999/xlink" x="0px" y="0px"
	 width="32px" height="32px" viewBox="0 0 32 32" style="enable-background:new 0 0 32 32;" xml:space="preserve">
<style type="text/css">
	.st0{fill:#000F2A;}
	.st1{opacity:0.8;fill:url(#SVGID_1_);}
	.st2{fill-rule:evenodd;clip-rule:evenodd;fill:#FFFFFF;}
	.st3{fill:#FFFFFF;}
</style>
<path class="st0" d="M20,32h-8C5.4,32,0,26.6,0,20v-8C0,5.4,5.4,0,12,0h8c6.6,0,12,5.4,12,12v8C32,26.6,26.6,32,20,32z"/>
<linearGradient id="SVGID_1_" gradientUnits="userSpaceOnUse" x1="7.2726" y1="666.8837" x2="24.7274" y2="697.1163" gradientTransform="matrix(1 0 0 1 0 -666)">
	<stop  offset="0" style="stop-color:#FFFFFF;stop-opacity:0.5"/>
	<stop  offset="1" style="stop-color:#FFFFFF;stop-opacity:0"/>
</linearGradient>
<path class="st1" d="M20,32h-8C5.4,32,0,26.6,0,20v-8C0,5.4,5.4,0,12,0h8c6.6,0,12,5.4,12,12v8C32,26.6,26.6,32,20,32z"/>
<path id="n-l" class="st2" d="M9,9.7l3.5,5.9c-1.1,3.4-2.1,6.8-3.2,10.3H5.5C6.7,20.4,7.8,15,9,9.7z"/>
<path id="n-r" class="st2" d="M25.9,25.3l-4.7-6.7c0.6-2.9,1.2-5.9,1.8-8.8l3.5-0.9C26.3,14.4,26.1,19.9,25.9,25.3z"/>
<path id="n-c" class="st3" d="M9.2,9.4l3.1-3l13.4,19.5h-6.3L9.2,9.4z"/>
<path id="d-up" class="st2" d="M26.3,8.6l-10.2,2.6l-3.4-5L24.1,7L26.3,8.6z"/>
</svg>
