<?xml version="1.0" encoding="utf-8"?>
<!-- Generator: Adobe Illustrator 24.0.1, SVG Export Plug-In . SVG Version: 6.00 Build 0)  -->
<svg version="1.1" id="Layer_1" xmlns="http://www.w3.org/2000/svg" xmlns:xlink="http://www.w3.org/1999/xlink" x="0px" y="0px"
	 width="40px" height="40px" viewBox="0 0 40 40" style="enable-background:new 0 0 40 40;" xml:space="preserve">
<style type="text/css">
	.st0{fill:#000F2A;}
	.st1{opacity:0.8;fill:url(#SVGID_1_);enable-background:new    ;}
	.st2{fill-rule:evenodd;clip-rule:evenodd;fill:#FFFFFF;}
	.st3{fill:#FFFFFF;}
</style>
<path class="st0" d="M25,40H15C6.8,40,0,33.3,0,25V15C0,6.8,6.8,0,15,0h10c8.3,0,15,6.8,15,15v10C40,33.3,33.3,40,25,40z"/>
<linearGradient id="SVGID_1_" gradientUnits="userSpaceOnUse" x1="9.0907" y1="-625.1046" x2="30.9093" y2="-662.8954" gradientTransform="matrix(1 0 0 -1 0 -624)">
	<stop  offset="0" style="stop-color:#FFFFFF;stop-opacity:0.5"/>
	<stop  offset="1" style="stop-color:#FFFFFF;stop-opacity:0"/>
</linearGradient>
<path class="st1" d="M25,40H15C6.8,40,0,33.3,0,25V15C0,6.8,6.8,0,15,0h10c8.3,0,15,6.8,15,15v10C40,33.3,33.3,40,25,40z"/>
<path id="n-l" class="st2" d="M11.3,12.1l4.4,7.4c-1.4,4.3-2.6,8.5-4,12.9H6.9C8.4,25.5,9.8,18.8,11.3,12.1z"/>
<path id="n-r" class="st2" d="M32.4,31.6l-5.9-8.4c0.8-3.6,1.5-7.4,2.3-11l4.4-1.1C32.9,18,32.6,24.9,32.4,31.6z"/>
<path id="n-c" class="st3" d="M11.5,11.8L15.4,8l16.8,24.4h-7.9L11.5,11.8z"/>
<path id="d-up" class="st2" d="M32.9,10.8L20.1,14l-4.3-6.3l14.3,1L32.9,10.8z"/>
</svg>
