<?xml version="1.0" encoding="utf-8"?>
<!-- Generator: Adobe Illustrator 24.0.1, SVG Export Plug-In . SVG Version: 6.00 Build 0)  -->
<svg version="1.1" id="Layer_1" xmlns="http://www.w3.org/2000/svg" xmlns:xlink="http://www.w3.org/1999/xlink" x="0px" y="0px"
	 width="40px" height="40px" viewBox="0 0 40 40" style="enable-background:new 0 0 40 40;" xml:space="preserve">
<style type="text/css">
	.st0{fill:#848C99;}
	.st1{fill:url(#SVGID_1_);}
	.st2{fill:#FFFFFF;}
</style>
<path class="st0" d="M25,40H15C6.8,40,0,33.3,0,25V15C0,6.8,6.8,0,15,0h10c8.3,0,15,6.8,15,15v10C40,33.3,33.3,40,25,40z"/>
<linearGradient id="SVGID_1_" gradientUnits="userSpaceOnUse" x1="9.0907" y1="40.8954" x2="30.9093" y2="3.1046" gradientTransform="matrix(1 0 0 -1 0 42)">
	<stop  offset="0" style="stop-color:#FFFFFF;stop-opacity:0.5"/>
	<stop  offset="1" style="stop-color:#FFFFFF;stop-opacity:0"/>
</linearGradient>
<path class="st1" d="M25,40H15C6.8,40,0,33.3,0,25V15C0,6.8,6.8,0,15,0h10c8.3,0,15,6.8,15,15v10C40,33.3,33.3,40,25,40z"/>
<g>
	<path class="st2" d="M6.1,25.5v-11h2.5l3.8,6.4v-6.4h2.5v11h-2.5l-3.9-6.4v6.4C8.5,25.5,6.1,25.5,6.1,25.5z"/>
	<path class="st2" d="M16.3,25.5v-11h4.9c0.6,0,1.1,0.1,1.6,0.3c0.5,0.3,0.9,0.5,1.1,0.8c0.2,0.3,0.5,0.8,0.6,1.3
		c0.4,1,0.5,2,0.5,3.3c0,3.6-1.3,5.5-3.8,5.5H16.3z M18.8,23.4H21c0.5,0,1-0.3,1.1-0.9c0.3-0.5,0.4-1.4,0.4-2.4c0-1-0.1-1.8-0.3-2.3
		s-0.3-0.9-0.5-1s-0.5-0.3-0.9-0.3h-2.1V23.4z"/>
	<path class="st2" d="M25.5,16.8v-2.3h8.3v2.3h-3v8.8h-2.5v-8.8H25.5z"/>
</g>
</svg>
