<?xml version="1.0" encoding="utf-8"?>
<!-- Generator: Adobe Illustrator 23.0.0, SVG Export Plug-In . SVG Version: 6.00 Build 0)  -->
<svg version="1.1" id="Layer_1" xmlns="http://www.w3.org/2000/svg" xmlns:xlink="http://www.w3.org/1999/xlink" x="0px" y="0px"
	 width="32px" height="32px" viewBox="0 0 32 32" style="enable-background:new 0 0 32 32;" xml:space="preserve">
<style type="text/css">
	.st0{fill:#848C99;}
	.st1{fill:url(#SVGID_1_);}
	.st2{fill:#FFFFFF;}
</style>
<path class="st0" d="M20,32h-8C5.4,32,0,26.6,0,20v-8C0,5.4,5.4,0,12,0h8c6.6,0,12,5.4,12,12v8C32,26.6,26.6,32,20,32z"/>
<linearGradient id="SVGID_1_" gradientUnits="userSpaceOnUse" x1="7.2681" y1="0.8759" x2="24.7319" y2="31.1241">
	<stop  offset="0" style="stop-color:#FFFFFF;stop-opacity:0.5"/>
	<stop  offset="1" style="stop-color:#FFFFFF;stop-opacity:0"/>
</linearGradient>
<path class="st1" d="M20,32h-8C5.4,32,0,26.6,0,20v-8C0,5.4,5.4,0,12,0h8c6.6,0,12,5.4,12,12v8C32,26.6,26.6,32,20,32z"/>
<g>
	<path class="st2" d="M4.9,20.4v-8.8h2l3,5.1v-5.1h2v8.8h-2l-3.1-5.1v5.1H4.9z"/>
	<path class="st2" d="M13,20.4v-8.8h3.9c0.5,0,0.9,0.1,1.3,0.2c0.4,0.2,0.7,0.4,0.9,0.6s0.4,0.6,0.5,1C19.9,14.2,20,15,20,16
		c0,2.9-1,4.4-3,4.4H13z M15,18.7h1.8c0.4,0,0.8-0.2,0.9-0.7c0.2-0.4,0.3-1.1,0.3-1.9s-0.1-1.4-0.2-1.8c-0.1-0.4-0.2-0.7-0.4-0.8
		c-0.2-0.1-0.4-0.2-0.7-0.2H15V18.7z"/>
	<path class="st2" d="M20.4,13.4v-1.8h6.6v1.8h-2.4v7h-2v-7H20.4z"/>
</g>
</svg>
