<?xml version="1.0" encoding="utf-8"?>
<!-- Generator: Adobe Illustrator 24.0.1, SVG Export Plug-In . SVG Version: 6.00 Build 0)  -->
<svg version="1.1" id="Layer_1" xmlns="http://www.w3.org/2000/svg" xmlns:xlink="http://www.w3.org/1999/xlink" x="0px" y="0px"
	 width="40px" height="40px" viewBox="0 0 40 40" style="enable-background:new 0 0 40 40;" xml:space="preserve">
<style type="text/css">
	.st0{fill:#A1A3AA;}
</style>
<g>
	<path class="st0" d="M0,27.8V11.9h3.6l5.5,9.2v-9.2h3.6v15.9H9.1l-5.6-9.2v9.2H0z"/>
	<path class="st0" d="M14.7,27.8V11.9h7.1c0.9,0,1.6,0.1,2.3,0.4c0.7,0.4,1.3,0.7,1.6,1.2c0.3,0.4,0.7,1.2,0.9,1.9
		c0.6,1.4,0.7,2.9,0.7,4.8c0,5.2-1.9,7.9-5.5,7.9h-7.1V27.8z M18.3,24.8h3.2c0.7,0,1.4-0.4,1.6-1.3c0.4-0.7,0.6-2,0.6-3.5
		s-0.1-2.6-0.4-3.3s-0.4-1.3-0.7-1.4c-0.3-0.1-0.7-0.4-1.3-0.4h-3v10H18.3z"/>
	<path class="st0" d="M28,15.2v-3.3h12v3.3h-4.3v12.7h-3.6V15.2H28z"/>
</g>
</svg>
