<?xml version="1.0" encoding="utf-8"?>
<!-- Generator: Adobe Illustrator 23.0.0, SVG Export Plug-In . SVG Version: 6.00 Build 0)  -->
<svg version="1.1" id="Layer_1" xmlns="http://www.w3.org/2000/svg" xmlns:xlink="http://www.w3.org/1999/xlink" x="0px" y="0px"
	 width="32px" height="32px" viewBox="0 0 32 32" style="enable-background:new 0 0 32 32;" xml:space="preserve">
<style type="text/css">
	.st0{fill:#1364D8;}
	.st1{fill:url(#SVGID_1_);}
	.st2{fill:#FFFFFF;}
</style>
<path class="st0" d="M20,32h-8C5.4,32,0,26.6,0,20v-8C0,5.4,5.4,0,12,0h8c6.6,0,12,5.4,12,12v8C32,26.6,26.6,32,20,32z"/>
<linearGradient id="SVGID_1_" gradientUnits="userSpaceOnUse" x1="7.2681" y1="0.8759" x2="24.7319" y2="31.1241">
	<stop  offset="0" style="stop-color:#FFFFFF;stop-opacity:0.5"/>
	<stop  offset="1" style="stop-color:#FFFFFF;stop-opacity:0"/>
</linearGradient>
<path class="st1" d="M20,32h-8C5.4,32,0,26.6,0,20v-8C0,5.4,5.4,0,12,0h8c6.6,0,12,5.4,12,12v8C32,26.6,26.6,32,20,32z"/>
<path class="st2" d="M21.7,19.6c0.3-0.9,0.4-1.3,0.7-2.4c0-0.1,0-0.1,0.1-0.2c0.1-0.4,0.3-0.9,0.6-2.2c0.3-1.1,0.5-1.7,0.8-2.9
	c0.1-0.3,0.2-0.7,0.2-1.2c0-0.7-0.1-1.2-0.1-1.3c-0.1-0.4-0.3-0.8-0.4-1c-0.3-0.5-0.5-0.8-0.7-0.9c-0.3-0.3-0.7-0.5-0.9-0.7
	c-0.6-0.4-1.1-0.5-1.5-0.6C20.2,6.1,19.9,6,19.5,6c-0.4-0.1-0.7-0.1-0.9-0.1c0.2-0.1,0.4-0.2,0.8-0.3c0.3-0.1,0.7-0.2,1.2-0.3
	C21.2,5.1,21.7,5,21.8,5c0.8-0.1,1.5,0,1.7,0c0.4,0.1,0.8,0.1,1.2,0.2c0.2,0.1,0.7,0.3,1.2,0.7c0.3,0.3,0.5,0.5,0.6,0.6
	c0.2,0.2,0.4,0.5,0.6,0.9c0.2,0.5,0.3,0.8,0.3,1.1c0,0.1,0.1,0.6,0.1,1.4c0,0.2,0,0.7-0.1,1.6c0,0.3-0.1,1-0.5,2.4
	c-0.2,0.7-0.3,1.3-0.6,2.2c-0.5,1.8-1.1,3.1-1.3,3.5c-0.4,0.8-0.7,1.5-1.2,2.4c-0.5,0.8-1.1,1.4-1.4,1.8c-0.5,0.6-0.8,1-1.3,1.4
	c0,0-1.2,1-2.4,1.4c-0.2,0.1-0.5,0.1-0.5,0.1c-0.1,0-0.1,0-0.1,0C18,27,17.8,27,17.7,27c0.2-0.1,0.4-0.2,0.7-0.5
	c0.3-0.3,0.5-0.6,0.8-1c0.3-0.4,0.6-0.9,1-1.7c0.4-0.8,0.6-1.4,0.8-1.8c0,0,0.1-0.4,0.5-1.4C21.5,20.6,21.5,20.5,21.7,19.6z"/>
<path class="st2" d="M4.8,17.2c-0.1-0.2-0.3-0.8-0.4-1.4c-0.1-0.9,0.1-1.7,0.2-2.2c0.3-1.1,0.8-1.8,1.2-2.3C6.7,10.2,7.6,9.5,8.3,9
	c0.3-0.2,1.7-1.2,3.9-2c0.6-0.2,3.3-1.2,7-1.2c0.1,0,0.2,0,0.2,0c-0.1,0-0.2,0.1-0.3,0.2c-0.3,0.2-0.6,0.3-0.6,0.3
	c-0.6,0.2-2.3,1.1-4.2,2.4C14,8.9,13.8,9,13.7,9.1c-0.3,0.2-2.6,1.8-4.6,4.1c0,0-0.9,1-1.1,2.1c0,0.2,0,0.3,0,0.3
	c0,0.2,0,0.6,0.4,1.3c0.2,0.4,0.5,0.8,0.5,0.8c1.8,2.3,3.8,4.2,3.8,4.2c0.3,0.3,0.6,0.6,1.1,1c1.7,1.6,4,3.3,4,3.3
	c0.2,0.2,0.5,0.4,0.9,0.7c-0.2-0.1-0.5-0.2-0.9-0.4c-1-0.4-1.6-0.7-1.8-0.8c-1.3-0.6-2.5-1.2-2.9-1.3c-1-0.5-2.1-1.1-3.4-2
	c-0.3-0.2-1.4-1-2.6-2.1c0,0-0.7-0.6-1.4-1.6c-0.2-0.2-0.4-0.6-0.7-1C4.9,17.6,4.9,17.4,4.8,17.2z"/>
<path class="st2" d="M8.5,16.8c0-0.8,0-1.5,0-2.3c0,0,0,0,0,0c0,0,0-0.1,0.1-0.1c0,0,0.1-0.1,0.1-0.1c0,0,0,0,0,0c0.5,0,1.1,0,1.7,0
	c0,0,0,0,0,0c0.1,0,0.3,0.1,0.5,0.2c0.2,0.2,0.3,0.4,0.3,0.4c0.1,0.1,0.1,0.2,0.1,0.3c0,0,0,0,0,0c0,0.5,0,1,0,1.5
	c0,0,0,0.1-0.1,0.1c-0.2,0-0.3,0-0.5,0c0,0-0.1,0,0-0.1c0-0.7,0-1.3,0-1.4c0,0,0-0.1,0-0.2c0,0-0.1-0.1-0.1-0.2
	c-0.1,0-0.1-0.1-0.2-0.1c0,0,0,0,0,0c-0.4,0-0.7,0-1.1,0c0,0-0.1,0-0.1,0.1l0,1.8c0,0,0,0.1,0,0.1C8.9,16.8,8.8,16.8,8.5,16.8
	C8.6,16.8,8.5,16.8,8.5,16.8z"/>
<path class="st2" d="M15.1,14.8c0-0.2,0-0.2,0-0.3c0,0,0-0.1-0.1-0.3c0,0-0.1-0.1-0.1-0.2c-0.1-0.1-0.1-0.2-0.2-0.2
	c-0.1-0.1-0.1-0.1-0.2-0.1c-0.1-0.1-0.2-0.1-0.3-0.1c0,0-0.1,0-0.1,0c0,0,0,0-0.1,0l-1.9,0c-0.1,0-0.3,0.1-0.3,0.3v2.8
	c0,0.2,0.1,0.3,0.3,0.3c0.8,0,1.4,0,1.6,0c0.1,0,0.2,0,0.4-0.1c0.1,0,0.2-0.1,0.3-0.1c0.1-0.1,0.2-0.1,0.2-0.2c0,0,0.1-0.1,0.2-0.1
	c0.1-0.1,0.1-0.2,0.2-0.3c0.1-0.1,0.1-0.2,0.1-0.3c0-0.1,0-0.2,0-0.2c0-0.1,0-0.2,0-0.3C15.1,15.3,15.1,15.2,15.1,14.8z M14.5,15.5
	c0,0,0,0.1,0,0.1c0,0.1,0,0.1,0,0.2c0,0.1-0.1,0.1-0.1,0.1c-0.1,0.1-0.1,0.1-0.1,0.1c0,0-0.1,0.1-0.2,0.1c-0.1,0-0.2,0-0.2,0
	c-0.2,0-0.7,0-1.3,0c0,0,0,0,0,0c0-0.7,0-1.3,0-2c0,0,0-0.1,0.1-0.1c0.4,0,0.9,0,1.3,0c0,0,0,0,0,0c0,0,0.1,0,0.1,0
	c0,0,0.3,0.1,0.4,0.3c0,0,0,0.1,0.1,0.1c0,0,0,0.1,0,0.1c0,0,0,0.1,0,0.1C14.5,14.9,14.6,15.3,14.5,15.5z"/>
<path class="st2" d="M16,13.5C15.9,13.5,15.9,13.5,16,13.5c0,0-0.1,0-0.1,0.1c-0.1,0.1-0.1,0.2-0.1,0.2c0,0,0,0,0,0v2.4c0,0,0,0,0,0
	c0,0,0,0.1,0,0.2c0,0,0.1,0.1,0.1,0.2c0,0,0.1,0.1,0.2,0.2c0.1,0.1,0.3,0.1,0.3,0.1c0.2,0,1.1,0,2.2,0c0,0,0.1,0,0.1-0.1l0-0.5
	c0,0,0-0.1-0.1-0.1c-0.7,0-1.5,0-2.2,0c0,0-0.1,0-0.1-0.1c0,0,0-0.1,0-0.1c0-0.1,0-0.9,0-1.9c0,0,0-0.1,0.1-0.1c0.8,0,1.5,0,2.3,0
	c0,0,0.1,0,0.1-0.1c0-0.2,0-0.3,0-0.5c0,0,0-0.1-0.1-0.1L16,13.5z"/>
<path class="st2" d="M16.5,14.9v0.6c0,0,0,0.1,0.1,0.1l1.8,0c0,0,0.1,0,0.1-0.1c0-0.2,0-0.4,0-0.5c0,0,0-0.1-0.1-0.1
	C17.8,14.8,17.2,14.8,16.5,14.9C16.6,14.8,16.5,14.8,16.5,14.9z"/>
<path class="st2" d="M18.9,13.4c0.5,0.6,0.9,1.1,1.4,1.7c-0.5,0.6-0.9,1.1-1.4,1.7c0.3,0,0.6,0,0.8,0c0.3-0.4,0.7-0.8,1-1.2
	c0.3,0.4,0.7,0.8,1,1.2c0.3,0,0.5,0,0.8,0c-0.5-0.6-0.9-1.1-1.4-1.7c0.5-0.6,0.9-1.1,1.4-1.7c-0.3,0-0.6,0-0.8,0
	c-0.3,0.4-0.7,0.8-1,1.2c-0.3-0.4-0.7-0.8-1-1.2C19.5,13.4,19.2,13.4,18.9,13.4z"/>
</svg>
