<?xml version="1.0" encoding="utf-8"?>
<!-- Generator: Adobe Illustrator 24.0.1, SVG Export Plug-In . SVG Version: 6.00 Build 0)  -->
<svg version="1.1" id="Layer_1" xmlns="http://www.w3.org/2000/svg" xmlns:xlink="http://www.w3.org/1999/xlink" x="0px" y="0px"
	 width="32px" height="32px" viewBox="0 0 32 32" style="enable-background:new 0 0 32 32;" xml:space="preserve">
<style type="text/css">
	.st0{fill:#1852B7;}
	.st1{opacity:0.8;fill:url(#SVGID_1_);}
	.st2{fill:#FFFFFF;}
</style>
<path class="st0" d="M20,32h-8C5.4,32,0,26.6,0,20v-8C0,5.4,5.4,0,12,0h8c6.6,0,12,5.4,12,12v8C32,26.6,26.6,32,20,32z"/>
<linearGradient id="SVGID_1_" gradientUnits="userSpaceOnUse" x1="7.2726" y1="666.8837" x2="24.7274" y2="697.1163" gradientTransform="matrix(1 0 0 1 0 -666)">
	<stop  offset="0" style="stop-color:#FFFFFF;stop-opacity:0.5"/>
	<stop  offset="1" style="stop-color:#FFFFFF;stop-opacity:0"/>
</linearGradient>
<path class="st1" d="M20,32h-8C5.4,32,0,26.6,0,20v-8C0,5.4,5.4,0,12,0h8c6.6,0,12,5.4,12,12v8C32,26.6,26.6,32,20,32z"/>
<path id="nd" class="st2" d="M6.6,14.7c0,0.9,0,1.6,0,2.1c0,0.4,0,0.9,0.1,1.6c0,0.2,0.1,0.4,0.1,0.5c0.1,0.5,0.3,0.9,0.6,1.4
	c0.5,0.8,1.1,1.2,1.3,1.4l6.3,4.8c0.1-1.3,0.1-2.3,0.1-3c0-0.4,0-0.7-0.1-1.1c-0.1-0.6-0.4-1.2-0.7-1.8c-0.1-0.1-0.1-0.2-0.2-0.3
	c-0.2-0.3-0.5-0.5-0.7-0.7L6.6,14.7z"/>
<path id="nx" class="st2" d="M6.7,5.5C6.6,6.9,6.5,8.2,6.6,9.6c0,0.6,0.1,1.1,0.3,1.8c0.2,0.6,0.6,1.2,1,1.7l0,0
	c0.2,0.2,0.4,0.5,0.6,0.7c0.3,0.2,7.3,5.5,16.9,12.7c0.1-2.2,0.1-3.8,0.1-4.2c0-0.3-0.1-0.5-0.1-0.8c0,0,0-0.2-0.1-0.3
	c-0.2-0.6-0.4-1.2-0.7-1.7c-0.3-0.5-0.7-0.9-1.2-1.3C22.3,17.2,15.8,12.2,6.7,5.5z"/>
<path id="nu" class="st2" d="M17.1,5.5c0,0.9,0,1.6,0,2.1c0,1.2,0,1.5,0.1,1.7c0.1,0.4,0.2,1.1,0.6,1.8c0.3,0.5,0.8,1,1.3,1.4
	l6.3,4.8c0.1-1.1,0.1-2.1,0.1-2.8c0-0.6,0-0.9-0.1-1.3c-0.1-0.6-0.4-1.2-0.7-1.8c-0.1-0.1-0.1-0.2-0.2-0.3c-0.2-0.3-0.5-0.5-0.7-0.7
	L17.1,5.5z"/>
</svg>
