<?xml version="1.0" encoding="utf-8"?>
<!-- Generator: Adobe Illustrator 24.0.1, SVG Export Plug-In . SVG Version: 6.00 Build 0)  -->
<svg version="1.1" id="Layer_1" xmlns="http://www.w3.org/2000/svg" xmlns:xlink="http://www.w3.org/1999/xlink" x="0px" y="0px"
	 width="40px" height="40px" viewBox="0 0 40 40" style="enable-background:new 0 0 40 40;" xml:space="preserve">
<style type="text/css">
	.st0{fill:#A1A3AA;}
</style>
<path class="st0" d="M1.7,24.7h4.5C7.4,24.7,8,24.1,8,23c0-1.1-0.7-1.7-1.7-1.7H1.7C0.7,21.3,0,21.9,0,23C0,23.9,0.9,24.7,1.7,24.7z
	"/>
<path class="st0" d="M15,24.7h4.4c1.1,0,1.7-0.7,1.7-1.7c0-1.1-0.7-1.7-1.7-1.7h-3.5l-9.9-6H1.7C0.7,15.3,0,15.9,0,17
	c0,1.1,0.7,1.7,1.7,1.7h3.3L15,24.7z"/>
<path class="st0" d="M28.6,24.7H33c1.1,0,1.7-0.7,1.7-1.7c0-1.1-0.7-1.7-1.7-1.7h-3.3l-9.9-6h-4.4c-1.1,0-1.7,0.7-1.7,1.7
	c0,1.1,0.7,1.7,1.7,1.7h3.3L28.6,24.7z"/>
<path class="st0" d="M36.5,20.2c0,1.1,0.7,1.7,1.7,1.7c1.1,0,1.7-0.7,1.7-1.7v-4.8H28.8c-1.1,0-1.7,0.7-1.7,1.7
	c0,1.1,0.7,1.7,1.7,1.7h7.9C36.5,18.7,36.5,20.2,36.5,20.2z"/>
</svg>
