<?xml version="1.0" encoding="utf-8"?>
<!-- Generator: Adobe Illustrator 24.0.1, SVG Export Plug-In . SVG Version: 6.00 Build 0)  -->
<svg version="1.1" id="Layer_1" xmlns="http://www.w3.org/2000/svg" xmlns:xlink="http://www.w3.org/1999/xlink" x="0px" y="0px"
	 width="40px" height="40px" viewBox="0 0 40 40" style="enable-background:new 0 0 40 40;" xml:space="preserve">
<style type="text/css">
	.st0{fill:#0074A6;}
	.st1{opacity:0.8;fill:url(#SVGID_1_);enable-background:new    ;}
	.st2{fill:#FFFFFF;}
</style>
<path class="st0" d="M25,40H15C6.8,40,0,33.3,0,25V15C0,6.8,6.8,0,15,0h10c8.3,0,15,6.8,15,15v10C40,33.3,33.3,40,25,40z"/>
<linearGradient id="SVGID_1_" gradientUnits="userSpaceOnUse" x1="9.0907" y1="-625.1046" x2="30.9093" y2="-662.8954" gradientTransform="matrix(1 0 0 -1 0 -624)">
	<stop  offset="0" style="stop-color:#FFFFFF;stop-opacity:0.5"/>
	<stop  offset="1" style="stop-color:#FFFFFF;stop-opacity:0"/>
</linearGradient>
<path class="st1" d="M25,40H15C6.8,40,0,33.3,0,25V15C0,6.8,6.8,0,15,0h10c8.3,0,15,6.8,15,15v10C40,33.3,33.3,40,25,40z"/>
<path class="st2" d="M6.4,23.5h3.4c0.8,0,1.3-0.5,1.3-1.3c0-0.8-0.5-1.3-1.3-1.3H6.4c-0.8,0-1.3,0.5-1.3,1.3
	C5.1,22.9,5.8,23.5,6.4,23.5z"/>
<path class="st2" d="M16.3,23.5h3.3c0.8,0,1.3-0.5,1.3-1.3c0-0.8-0.5-1.3-1.3-1.3H17l-7.4-4.5H6.4c-0.8,0-1.3,0.5-1.3,1.3
	c0,0.8,0.5,1.3,1.3,1.3h2.5L16.3,23.5z"/>
<path class="st2" d="M26.5,23.5h3.3c0.8,0,1.3-0.5,1.3-1.3c0-0.8-0.5-1.3-1.3-1.3h-2.5l-7.4-4.5h-3.3c-0.8,0-1.3,0.5-1.3,1.3
	c0,0.8,0.5,1.3,1.3,1.3h2.5L26.5,23.5z"/>
<path class="st2" d="M32.4,20.1c0,0.8,0.5,1.3,1.3,1.3s1.3-0.5,1.3-1.3v-3.6h-8.4c-0.8,0-1.3,0.5-1.3,1.3c0,0.8,0.5,1.3,1.3,1.3h5.9
	C32.4,19,32.4,20.1,32.4,20.1z"/>
</svg>
