<svg id="Layer_1" data-name="Layer 1" xmlns="http://www.w3.org/2000/svg" xmlns:xlink="http://www.w3.org/1999/xlink" viewBox="0 0 32 32"><defs><style>.cls-1{fill:#008fbb;}.cls-2{fill:url(#linear-gradient);}.cls-3{fill:#fff;fill-rule:evenodd;}</style><linearGradient id="linear-gradient" x1="7.27" y1="33.12" x2="24.73" y2="2.88" gradientTransform="matrix(1, 0, 0, -1, 0, 34)" gradientUnits="userSpaceOnUse"><stop offset="0" stop-color="#fff" stop-opacity="0.5"/><stop offset="1" stop-color="#fff" stop-opacity="0"/></linearGradient></defs><title>NXT</title><path class="cls-1" d="M20,32H12A12,12,0,0,1,0,20V12A12,12,0,0,1,12,0h8A12,12,0,0,1,32,12v8A12,12,0,0,1,20,32Z"/><path class="cls-2" d="M20,32H12A12,12,0,0,1,0,20V12A12,12,0,0,1,12,0h8A12,12,0,0,1,32,12v8A12,12,0,0,1,20,32Z"/><path id="path2997" class="cls-3" d="M26.54,17a1,1,0,0,1-1-1V15H20.76a1,1,0,0,1,0-1.92h5.78a1,1,0,0,1,1,1V16a1,1,0,0,1-1,1Zm-4.76,0H23.7a1,1,0,1,1,0,1.92H20.76a.93.93,0,0,1-.44-.11L14.72,15H13.11a1,1,0,0,1,0-1.92H15a1,1,0,0,1,.55.18L21.05,17ZM15,17a1,1,0,1,1,0,1.92H13.11a.93.93,0,0,1-.44-.11L7.07,15H5.46a1,1,0,1,1,0-1.92H7.38a1,1,0,0,1,.55.18L13.4,17ZM5.46,17H7.38a1,1,0,0,1,0,1.92H5.46a1,1,0,1,1,0-1.92Z"/></svg>