<?xml version="1.0" encoding="utf-8"?>
<!-- Generator: Adobe Illustrator 24.0.1, SVG Export Plug-In . SVG Version: 6.00 Build 0)  -->
<svg version="1.1" id="Layer_1" xmlns="http://www.w3.org/2000/svg" xmlns:xlink="http://www.w3.org/1999/xlink" x="0px" y="0px"
	 width="32px" height="32px" viewBox="0 0 32 32" style="enable-background:new 0 0 32 32;" xml:space="preserve">
<style type="text/css">
	.st0{fill:#0074A6;}
	.st1{opacity:0.8;fill:url(#SVGID_1_);}
	.st2{fill:#FFFFFF;}
</style>
<path class="st0" d="M20,32h-8C5.4,32,0,26.6,0,20v-8C0,5.4,5.4,0,12,0h8c6.6,0,12,5.4,12,12v8C32,26.6,26.6,32,20,32z"/>
<linearGradient id="SVGID_1_" gradientUnits="userSpaceOnUse" x1="7.2726" y1="666.8837" x2="24.7274" y2="697.1163" gradientTransform="matrix(1 0 0 1 0 -666)">
	<stop  offset="0" style="stop-color:#FFFFFF;stop-opacity:0.5"/>
	<stop  offset="1" style="stop-color:#FFFFFF;stop-opacity:0"/>
</linearGradient>
<path class="st1" d="M20,32h-8C5.4,32,0,26.6,0,20v-8C0,5.4,5.4,0,12,0h8c6.6,0,12,5.4,12,12v8C32,26.6,26.6,32,20,32z"/>
<path class="st2" d="M5.1,18.8h2.7c0.6,0,1-0.4,1-1c0-0.6-0.4-1-1-1H5.1c-0.6,0-1,0.4-1,1C4.1,18.3,4.6,18.8,5.1,18.8z"/>
<path class="st2" d="M13,18.8h2.6c0.6,0,1-0.4,1-1c0-0.6-0.4-1-1-1h-2l-5.9-3.6H5.1c-0.6,0-1,0.4-1,1s0.4,1,1,1h2L13,18.8z"/>
<path class="st2" d="M21.2,18.8h2.6c0.6,0,1-0.4,1-1c0-0.6-0.4-1-1-1h-2l-5.9-3.6h-2.6c-0.6,0-1,0.4-1,1s0.4,1,1,1h2L21.2,18.8z"/>
<path class="st2" d="M25.9,16.1c0,0.6,0.4,1,1,1c0.6,0,1-0.4,1-1v-2.9h-6.7c-0.6,0-1,0.4-1,1s0.4,1,1,1h4.7V16.1z"/>
</svg>
