<svg width="36" height="40" viewBox="0 0 36 40" fill="none" xmlns="http://www.w3.org/2000/svg">
<path fill-rule="evenodd" clip-rule="evenodd" d="M21 1.73205L32.3205 8.26795C34.1769 9.33975 35.3205 11.3205 35.3205 13.4641V26.5359C35.3205 28.6795 34.1769 30.6603 32.3205 31.732L21 38.2679C19.1436 39.3397 16.8564 39.3397 15 38.2679L3.6795 31.732C1.8231 30.6603 0.679504 28.6795 0.679504 26.5359V13.4641C0.679504 11.3205 1.8231 9.33975 3.6795 8.26795L15 1.73205C16.8564 0.660254 19.1436 0.660254 21 1.73205Z" fill="url(#paint0_linear)"/>
<path d="M7 22.5932H9.73096C10.2832 22.5932 10.731 22.1455 10.731 21.5932C10.731 21.041 10.2832 20.5932 9.73096 20.5932H7C6.44772 20.5932 6 21.041 6 21.5932C6 22.1455 6.44772 22.5932 7 22.5932Z" fill="white"/>
<path d="M14.8794 22.5932H17.4599C18.0122 22.5932 18.4599 22.1455 18.4599 21.5932C18.4599 21.041 18.0122 20.5932 17.4599 20.5932H15.4427L9.56986 17H7C6.44772 17 6 17.4477 6 18C6 18.5523 6.44772 19 7 19H9.00655L14.8794 22.5932Z" fill="white"/>
<path d="M23.018 22.5932H25.5986C26.1509 22.5932 26.5986 22.1455 26.5986 21.5932C26.5986 21.041 26.1509 20.5932 25.5986 20.5932H23.5813L17.7085 17H15.1387C14.5864 17 14.1387 17.4477 14.1387 18C14.1387 18.5523 14.5864 19 15.1387 19H17.1452L23.018 22.5932Z" fill="white"/>
<path d="M27.7318 19.8603C27.7318 20.4126 28.1795 20.8603 28.7318 20.8603C29.284 20.8603 29.7318 20.4126 29.7318 19.8603V17H23.0182C22.4659 17 22.0182 17.4477 22.0182 18C22.0182 18.5523 22.4659 19 23.0182 19H27.7318V19.8603Z" fill="white"/>
<defs>
<linearGradient id="paint0_linear" x1="10.0604" y1="3.63141" x2="28.7646" y2="32.7737" gradientUnits="userSpaceOnUse">
<stop stop-color="#00A4C9"/>
<stop offset="1" stop-color="#0074A6"/>
</linearGradient>
</defs>
</svg>
