<svg viewBox="0 0 34 12" fill="none" xmlns="http://www.w3.org/2000/svg">
    <path fillRule="evenodd" clipRule="evenodd" d="M13.6369 10.002L12.7024 11.997H10.6294L16.2589 0L20.0134 7.9995H17.8909L16.2109 4.527L14.5279 8.058L13.6369 10.002ZM21.8179 11.952L26.2129 6.027L21.7864 0.057H24.2089L27.4204 4.422L26.2519 6.027L27.4204 7.632L24.2104 11.997H19.7659L18.8269 10.002H20.8999L21.8179 11.952ZM27.4204 4.371L28.6069 6.0015L27.4219 7.6335L30.6319 11.9985H33.0019L28.6069 6.0015L33.0019 0.006H30.6319L27.4204 4.371ZM11.2624 6.003C11.3087 4.42162 10.723 2.88696 9.6349 1.7385H9.6334C8.61327 0.611462 7.15581 -0.0196518 5.6359 0.0075C4.45461 -0.0112734 3.30313 0.378736 2.3764 1.1115L3.7564 2.5815C4.31355 2.22133 4.96671 2.0383 5.6299 2.0565C6.64533 2.03581 7.61967 2.45729 8.2999 3.2115C9.00231 3.99187 9.3894 5.00557 9.3859 6.0555C9.41564 7.10933 9.02553 8.1318 8.3014 8.898C7.6024 9.6735 6.6394 10.113 5.6314 10.113C4.6091 10.1062 3.63808 9.66431 2.9614 8.898C1.75096 7.54992 1.53266 5.58098 2.4184 4.0005L1.0384 2.5305C0.340081 3.552 -0.0222428 4.76586 0.00189537 6.003C-0.0378073 7.5831 0.547585 9.11504 1.6309 10.266C2.65898 11.3849 4.11347 12.0151 5.6329 12C7.2124 12 8.5519 11.4795 9.6349 10.266C10.7008 9.10432 11.283 7.57948 11.2624 6.003Z" fill="white"/>
</svg>