<?xml version="1.0" encoding="utf-8"?>
<!-- Generator: Adobe Illustrator 24.0.1, SVG Export Plug-In . SVG Version: 6.00 Build 0)  -->
<svg version="1.1" id="Layer_1" xmlns="http://www.w3.org/2000/svg" xmlns:xlink="http://www.w3.org/1999/xlink" x="0px" y="0px"
	 width="40px" height="40px" viewBox="0 0 40 40" style="enable-background:new 0 0 40 40;" xml:space="preserve">
<style type="text/css">
	.st0{fill:#1951DB;}
	.st1{fill:url(#SVGID_1_);}
	.st2{fill:#FFFFFF;}
</style>
<path class="st0" d="M25,40H15C6.8,40,0,33.3,0,25V15C0,6.8,6.8,0,15,0h10c8.3,0,15,6.8,15,15v10C40,33.3,33.3,40,25,40z"/>
<linearGradient id="SVGID_1_" gradientUnits="userSpaceOnUse" x1="9.0907" y1="40.8954" x2="30.9093" y2="3.1046" gradientTransform="matrix(1 0 0 -1 0 42)">
	<stop  offset="0" style="stop-color:#FFFFFF;stop-opacity:0.5"/>
	<stop  offset="1" style="stop-color:#FFFFFF;stop-opacity:0"/>
</linearGradient>
<path class="st1" d="M25,40H15C6.8,40,0,33.3,0,25V15C0,6.8,6.8,0,15,0h10c8.3,0,15,6.8,15,15v10C40,33.3,33.3,40,25,40z"/>
<path class="st2" d="M18,8.5c1.1,1.3,1.8,2.8,1.8,4.5c0,3.8-3,6.8-6.8,6.8s-6.8-3-6.8-6.8s3-6.8,6.8-6.8c0.8,0,1.4,0.1,2,0.4h4.9
	v1.9H18z M13,17.8c2.6,0,4.8-2.1,4.8-4.8S15.6,8.2,13,8.2S8.2,10.4,8.2,13S10.4,17.8,13,17.8z M27,19.6c-3.8,0-6.8-3-6.8-6.8
	s3.1-6.6,6.8-6.6s6.8,3,6.8,6.8S30.8,19.6,27,19.6z M27,17.8c2.6,0,4.8-2.1,4.8-4.8S29.6,8.2,27,8.2s-4.7,2.1-4.7,4.8
	S24.4,17.8,27,17.8z M13,33.8c-3.8,0-6.8-3-6.8-6.8s3-6.8,6.8-6.8s6.8,3,6.8,6.8S16.6,33.8,13,33.8z M13,31.9c2.6,0,4.8-2.1,4.8-4.8
	c0-2.6-2.1-4.7-4.8-4.7s-4.8,2.1-4.8,4.7C8.2,29.8,10.4,31.9,13,31.9z"/>
</svg>
