<?xml version="1.0" encoding="utf-8"?>
<!-- Generator: Adobe Illustrator 23.0.0, SVG Export Plug-In . SVG Version: 6.00 Build 0)  -->
<svg version="1.1" id="Layer_1" xmlns="http://www.w3.org/2000/svg" xmlns:xlink="http://www.w3.org/1999/xlink" x="0px" y="0px"
	 width="32px" height="32px" viewBox="0 0 32 32" style="enable-background:new 0 0 32 32;" xml:space="preserve">
<style type="text/css">
	.st0{fill:#1951DB;}
	.st1{fill:url(#SVGID_1_);}
	.st2{fill:#FFFFFF;}
</style>
<path class="st0" d="M20,32h-8C5.4,32,0,26.6,0,20v-8C0,5.4,5.4,0,12,0h8c6.6,0,12,5.4,12,12v8C32,26.6,26.6,32,20,32z"/>
<linearGradient id="SVGID_1_" gradientUnits="userSpaceOnUse" x1="7.2681" y1="0.8759" x2="24.7319" y2="31.1241">
	<stop  offset="0" style="stop-color:#FFFFFF;stop-opacity:0.5"/>
	<stop  offset="1" style="stop-color:#FFFFFF;stop-opacity:0"/>
</linearGradient>
<path class="st1" d="M20,32h-8C5.4,32,0,26.6,0,20v-8C0,5.4,5.4,0,12,0h8c6.6,0,12,5.4,12,12v8C32,26.6,26.6,32,20,32z"/>
<path class="st2" d="M14.4,6.8c0.9,1,1.4,2.2,1.4,3.6c0,3-2.4,5.4-5.4,5.4c-3,0-5.4-2.4-5.4-5.4S7.4,5,10.4,5c0.6,0,1.1,0.1,1.6,0.3
	h3.9v1.5H14.4z M10.4,14.2c2.1,0,3.8-1.7,3.8-3.8s-1.7-3.8-3.8-3.8s-3.8,1.7-3.8,3.8S8.3,14.2,10.4,14.2z M21.6,15.7
	c-3,0-5.4-2.4-5.4-5.4S18.7,5,21.6,5S27,7.4,27,10.4S24.6,15.7,21.6,15.7z M21.6,14.2c2.1,0,3.8-1.7,3.8-3.8s-1.7-3.8-3.8-3.8
	s-3.8,1.7-3.8,3.8S19.5,14.2,21.6,14.2z M10.4,27c-3,0-5.4-2.4-5.4-5.4s2.4-5.4,5.4-5.4c3,0,5.4,2.4,5.4,5.4S13.3,27,10.4,27z
	 M10.4,25.5c2.1,0,3.8-1.7,3.8-3.8s-1.7-3.8-3.8-3.8s-3.8,1.7-3.8,3.8S8.3,25.5,10.4,25.5z"/>
</svg>
