<?xml version="1.0" encoding="utf-8"?>
<!-- Generator: Adobe Illustrator 24.0.1, SVG Export Plug-In . SVG Version: 6.00 Build 0)  -->
<svg version="1.1" id="Layer_1" xmlns="http://www.w3.org/2000/svg" xmlns:xlink="http://www.w3.org/1999/xlink" x="0px" y="0px"
	 width="40px" height="40px" viewBox="0 0 40 40" style="enable-background:new 0 0 40 40;" xml:space="preserve">
<style type="text/css">
	.st0{fill:#A1A3AA;}
</style>
<path class="st0" d="M17.1,3.3c1.6,1.9,2.6,4.1,2.6,6.5c0,5.5-4.3,9.9-9.9,9.9S0,15.4,0,9.9S4.3,0,9.9,0c1.2,0,2,0.1,2.9,0.6h7.1
	v2.8C19.9,3.3,17.1,3.3,17.1,3.3z M9.9,16.8c3.8,0,7-3,7-7s-3.2-7-7-7s-7,3.2-7,7S6.1,16.8,9.9,16.8z M30.1,19.4
	c-5.5,0-9.9-4.3-9.9-9.9S24.8,0,30.1,0S40,4.3,40,9.9S35.7,19.4,30.1,19.4z M30.1,16.8c3.8,0,7-3,7-7s-3.2-7-7-7s-6.8,3-6.8,7
	S26.4,16.8,30.1,16.8z M9.9,40C4.3,40,0,35.7,0,30.1s4.3-9.9,9.9-9.9s9.9,4.3,9.9,9.9S15.1,40,9.9,40z M9.9,37.2c3.8,0,7-3,7-7
	c0-3.8-3-6.8-7-6.8s-7,3-7,6.8C2.9,34.2,6.1,37.2,9.9,37.2z"/>
</svg>
