<?xml version="1.0" encoding="utf-8"?>
<!-- Generator: Adobe Illustrator 24.0.1, SVG Export Plug-In . SVG Version: 6.00 Build 0)  -->
<svg version="1.1" id="Layer_1" xmlns="http://www.w3.org/2000/svg" xmlns:xlink="http://www.w3.org/1999/xlink" x="0px" y="0px"
	 width="40px" height="40px" viewBox="0 0 40 40" style="enable-background:new 0 0 40 40;" xml:space="preserve">
<style type="text/css">
	.st0{fill:#A1A3AA;}
</style>
<path id="one" class="st0" d="M31.4,0.1c-4.8,0-8.6,3.8-8.6,8.6v9.6c-0.9,0-1.9,0.1-2.8,0.1s-1.9,0-2.8,0.1V8.7
	c0-4.8-4.1-8.6-8.7-8.6C3.8,0.1,0,3.9,0,8.7v22.6c0,4.8,4.1,8.6,8.7,8.6s8.4-3.8,8.6-8.6v-9.4c0.9,0,1.9-0.1,2.8-0.1s1.9,0,2.8-0.1
	v9.6c0,4.8,4.1,8.6,8.7,8.6s8.4-3.8,8.6-8.6V8.8C40,3.9,36.1,0.1,31.4,0.1z M8.6,3.8c2.8,0,5.1,2.2,5.1,5.1V19
	c-2.6,0.4-4.9,1.2-7.2,2c-0.9,0.4-2,0.9-2.9,1.6V8.8C3.8,5.9,5.9,3.8,8.6,3.8z M13.6,31.4c0,2.8-2.3,5.1-5.1,5.1s-5.1-2.3-5.1-5.1
	l0,0v-2.3c0-2,1.6-4.1,4.3-5.1c1.9-0.7,3.8-1.4,5.8-1.6V31.4L13.6,31.4z M31.4,36.5c-2.8,0-5.1-2.2-5.1-5.1V21.3
	c2.6-0.4,4.9-1.2,7.2-2c1.2-0.4,2-1.2,2.9-1.6v13.8C36.4,34.2,34.2,36.5,31.4,36.5L31.4,36.5z M32.2,16.1c-1.9,0.7-3.8,1.4-5.8,1.6
	V8.6c0-2.8,2.3-5.1,5.1-5.1s5.1,2.3,5.1,5.1l0,0v2.3C36.5,12.9,34.9,14.9,32.2,16.1z"/>
</svg>
