<?xml version="1.0" encoding="utf-8"?>
<!-- Generator: Adobe Illustrator 23.0.0, SVG Export Plug-In . SVG Version: 6.00 Build 0)  -->
<svg version="1.1" id="Layer_1" xmlns="http://www.w3.org/2000/svg" xmlns:xlink="http://www.w3.org/1999/xlink" x="0px" y="0px"
	 width="32px" height="32px" viewBox="0 0 32 32" style="enable-background:new 0 0 32 32;" xml:space="preserve">
<style type="text/css">
	.st0{fill:#00AEE9;}
	.st1{fill:url(#SVGID_1_);}
	.st2{fill:#FFFFFF;}
</style>
<path class="st0" d="M20,32h-8C5.4,32,0,26.6,0,20v-8C0,5.4,5.4,0,12,0h8c6.6,0,12,5.4,12,12v8C32,26.6,26.6,32,20,32z"/>
<linearGradient id="SVGID_1_" gradientUnits="userSpaceOnUse" x1="7.2681" y1="0.8759" x2="24.7319" y2="31.1241">
	<stop  offset="0" style="stop-color:#FFFFFF;stop-opacity:0.5"/>
	<stop  offset="1" style="stop-color:#FFFFFF;stop-opacity:0"/>
</linearGradient>
<path class="st1" d="M20,32h-8C5.4,32,0,26.6,0,20v-8C0,5.4,5.4,0,12,0h8c6.6,0,12,5.4,12,12v8C32,26.6,26.6,32,20,32z"/>
<path id="one" class="st2" d="M22.3,5c-2.6,0-4.7,2.1-4.7,4.7V15c-0.5,0-1,0.1-1.5,0.1s-1,0-1.5,0.1V9.8c0-2.6-2.2-4.7-4.8-4.7
	C7.1,5.1,5,7.2,5,9.8v12.5C5,24.9,7.2,27,9.8,27c2.6,0,4.6-2.1,4.7-4.7v-5.2c0.5,0,1-0.1,1.5-0.1s1,0,1.5-0.1v5.3
	c0,2.6,2.2,4.7,4.8,4.7c2.6,0,4.6-2.1,4.7-4.7V9.8C27,7.1,24.9,5,22.3,5z M9.7,7c1.5,0,2.8,1.2,2.8,2.8v5.6c-1.4,0.2-2.7,0.6-4,1.1
	C8,16.7,7.4,17,6.9,17.4V9.8C7,8.2,8.2,7,9.7,7z M12.5,22.3c0,1.5-1.3,2.8-2.8,2.8s-2.8-1.3-2.8-2.8c0,0,0,0,0,0V21
	c0-1.1,0.9-2.2,2.4-2.8c1-0.4,2.1-0.8,3.2-0.9L12.5,22.3L12.5,22.3z M22.3,25.1c-1.5,0-2.8-1.2-2.8-2.8v-5.6c1.4-0.2,2.7-0.6,4-1.1
	c0.6-0.2,1.1-0.6,1.6-0.9v7.6C25,23.8,23.8,25.1,22.3,25.1L22.3,25.1z M22.7,13.8c-1,0.4-2.1,0.8-3.2,0.9v-5c0-1.5,1.3-2.8,2.8-2.8
	c1.5,0,2.8,1.3,2.8,2.8c0,0,0,0,0,0V11C25.1,12.1,24.2,13.2,22.7,13.8z"/>
</svg>
