<?xml version="1.0" encoding="utf-8"?>
<!-- Generator: Adobe Illustrator 24.0.1, SVG Export Plug-In . SVG Version: 6.00 Build 0)  -->
<svg version="1.1" id="Layer_1" xmlns="http://www.w3.org/2000/svg" xmlns:xlink="http://www.w3.org/1999/xlink" x="0px" y="0px"
	 width="40px" height="40px" viewBox="0 0 40 40" style="enable-background:new 0 0 40 40;" xml:space="preserve">
<style type="text/css">
	.st0{opacity:0.8;}
	.st1{fill:#A1A3AA;}
</style>
<g id="layer101" class="st0">
	<path class="st1" d="M12.4,37.1L9.3,34v-7.3c0-6.1,0-7.5,0.1-8.1c0.1-1.2,0.7-2.5,0.8-2.7c0,0,1.3,1.1,2.7,2.5l2.5,2.5v-3.3v-3.3
		h3.3h3.3v-3.2V7.7h1.2c5.9,0.5,10.7,4.8,11.9,10.7c0.1,1.2,0.1,3.9,0,5.1c-0.4,1.3-1.1,3.1-1.7,4.1c-0.7,1.1-2.1,2.8-3.3,3.7
		c-1.5,1.2-3.9,2.1-5.9,2.5c-2.5,0.4-5.9-0.1-8-1.3L15.7,32v4c0,2.1,0,4-0.1,4S14,38.7,12.4,37.1z"/>
	<path class="st1" d="M11.5,14.7L8.8,12l0.4-0.8l0.3-0.8h2.1h2.1v3.3c0,1.9,0,3.3,0,3.3C14.1,17.3,13.1,16.1,11.5,14.7z"/>
	<path class="st1" d="M18.1,7.9l-2.7-2.7l1.2-0.4c1.3-0.5,2.5-0.7,3.5-0.7h0.7v3.2c0,1.7,0,3.2-0.1,3.2C20.8,10.5,19.7,9.3,18.1,7.9
		z"/>
	<path class="st1" d="M4.7,9.1C4.7,8.9,5.3,8,6,7.2l0.7-0.7l1.2,1.2c0.7,0.7,1.2,1.3,1.2,1.3S8,9.2,6.9,9.2C5.5,9.2,4.7,9.1,4.7,9.1
		z"/>
	<path class="st1" d="M10.4,9.1c0-0.1,0-1.2,0-2.4V4.5L11.2,4L12,3.7l2.7,2.5c1.5,1.5,2.7,2.7,2.7,2.7S15.9,9.1,14,9.1
		C11.2,9.2,10.4,9.1,10.4,9.1z"/>
	<path class="st1" d="M6.5,3.2L5.3,2l0.5-0.5C6.4,0.9,7.2,0.3,7.7,0c0.1,0,0.1,0.4,0.1,2.1c0,1.2,0,2.1-0.1,2.1
		C7.7,4.4,7.2,3.9,6.5,3.2z"/>
</g>
<g id="layer102">
	<path class="st1" d="M12.4,37.1c-1.7-1.7-3.1-3.2-3.1-3.2s1.3,0,3.2,0h3.2l-3.2-3.2l-3.2-3.2h3.2h3.2l-3.2-3.2
		c-2-2-3.2-3.2-3.2-3.3s0-0.1,3.2-0.1h3.2v-3.3c0-1.9,0-3.3,0.1-3.5c0,0,2.5-0.1,6.8,0h6.7l-3.2-3.2l-3.2-3.2l0.8,0.1
		c1.3,0,2.8,0.5,4.5,1.3l0.8,0.4v2.1v2.1h2.1c1.9,0,2.1,0,2-0.1c-0.1-0.5,0-0.1,0.5,0.7c1.7,2.8,2,6.4,1.2,9.5
		c-0.1,0.8-1.1,2.7-1.1,2.7s0-0.1,0.1-0.4c0.1-0.4,0.1-0.4-2.4-2.8c-1.3-1.3-2.5-2.5-2.5-2.5s-0.1,1.5-0.1,3.3v3.3h2.1
		c1.5,0,2.1,0,2.1,0.1c-0.4,0.5-0.8,1.3-1.3,1.9l-0.7,0.5L30,28.7l-1.2-1.2v2.1V32l-1.1,0.5c-1.1,0.5-1.3,0.7-1.1,0.4
		c0.1-0.1,0-0.5-2.4-2.7l-2.5-2.5v3.2v3.2h-0.8c-0.7,0-0.7,0-0.4-0.1h0.5l-2.4-3.2l-3.1-3.1v6.1c0,3.5,0,6.1-0.1,6.1
		S14,38.7,12.4,37.1z M22.1,27.3c0-0.1-6.4-6.5-6.5-6.5c0,0-0.1,1.5-0.1,3.3v3.3h3.3C20.7,27.5,22.1,27.5,22.1,27.3z M29.1,27.5
		c0,0-1.5-1.5-3.3-3.3l-3.3-3.3v3.3v3.3h3.3C27.5,27.5,29.1,27.5,29.1,27.5z M22.1,20.7c0,0-1.5-1.5-3.3-3.3L15.5,14v3.3
		c0,1.9,0,3.3,0,3.3C15.7,20.8,22.1,20.8,22.1,20.7z M29.1,20.7c0-0.1-6.5-6.7-6.7-6.7c0,0-0.1,1.5-0.1,3.3c0,2.9,0,3.3,0.1,3.3
		C22.8,20.8,29.1,20.8,29.1,20.7z M35.2,20.5c0-0.1-1.1-1.2-3.2-3.3L28.8,14v3.3c0,2.5,0,3.3,0.1,3.3c0,0,1.5,0,3.2,0
		C35.2,20.7,35.2,20.7,35.2,20.5z"/>
	<path class="st1" d="M23.1,33.7c0.1,0,0.4,0,0.5,0c0.1,0,0,0-0.4,0C22.8,33.7,22.8,33.7,23.1,33.7z"/>
	<path class="st1" d="M18.1,33.2C18,33.2,18,33.1,18.1,33.2c0-0.1,0.1,0,0.4,0c0.3,0,0.1,0.1,0,0.1C18.5,33.3,18.4,33.2,18.1,33.2z"
		/>
	<path class="st1" d="M16.8,32.7c-0.1-0.1-0.1-0.1-0.1-0.1s0.4,0,0.5,0.1c0.1,0.1,0.4,0.1,0.1,0.1S17.1,32.7,16.8,32.7z"/>
	<path class="st1" d="M16,32.1C15.5,32,15.5,31.9,16,32.1c0.1,0,0.4,0.1,0.4,0.1C16.4,32.5,16.4,32.5,16,32.1z"/>
	<path class="st1" d="M11.5,14.7L8.8,12l0.4-0.8l0.3-0.8h2.1h2.1v3.3c0,1.9,0,3.3,0,3.3C14.1,17.3,13.1,16.1,11.5,14.7z"/>
	<path class="st1" d="M18.1,7.9l-2.7-2.7l1.2-0.4c1.3-0.5,2.5-0.7,3.5-0.7h0.7v3.2c0,1.7,0,3.2-0.1,3.2C20.8,10.5,19.7,9.3,18.1,7.9
		z"/>
	<path class="st1" d="M6.8,9.1h2.1L7.7,7.9C7.1,7.2,6.5,6.7,6.4,6.7c0,0-0.1,0,0-0.1c0-0.1,0.5,0.1,1.3,1.1c0.7,0.8,1.2,1.5,1.2,1.5
		S8,9.2,6.8,9.1H4.7H6.8z"/>
	<path class="st1" d="M10.4,9.1c0-0.1,0-1.2,0-2.4V4.5l0.7-0.4C11.3,4,11.7,3.9,11.7,4c0,0.1-0.4,0.1-0.7,0.4l-0.7,0.4v2.1V9.1h3.5
		c1.9,0,3.3,0,3.3,0s-1.5,0.1-3.3,0.1C11.2,9.2,10.4,9.1,10.4,9.1z"/>
	<path class="st1" d="M5.2,8.1C5.3,8,5.5,7.9,5.5,7.9C5.7,7.7,5.5,8,5.2,8.1c0,0.1-0.1,0.4-0.1,0.4S5.1,8.4,5.2,8.1z"/>
	<path class="st1" d="M6.5,3.2L5.3,2l0.5-0.5C6.4,0.9,7.2,0.3,7.7,0c0.1,0,0.1,0.4,0.1,2.1c0,1.2,0,2.1-0.1,2.1
		C7.7,4.4,7.2,3.9,6.5,3.2z"/>
</g>
</svg>
