<?xml version="1.0" encoding="utf-8"?>
<!-- Generator: Adobe Illustrator 23.0.0, SVG Export Plug-In . SVG Version: 6.00 Build 0)  -->
<svg version="1.1" id="Layer_1" xmlns="http://www.w3.org/2000/svg" xmlns:xlink="http://www.w3.org/1999/xlink" x="0px" y="0px"
	 width="32px" height="32px" viewBox="0 0 32 32" style="enable-background:new 0 0 32 32;" xml:space="preserve">
<style type="text/css">
	.st0{fill:#346CBC;}
	.st1{fill:url(#SVGID_1_);}
	.st2{fill:#EFEFEF;}
	.st3{fill:#FFFFFF;}
</style>
<path class="st0" d="M20,32h-8C5.4,32,0,26.6,0,20v-8C0,5.4,5.4,0,12,0h8c6.6,0,12,5.4,12,12v8C32,26.6,26.6,32,20,32z"/>
<linearGradient id="SVGID_1_" gradientUnits="userSpaceOnUse" x1="7.2726" y1="33.1163" x2="24.7274" y2="2.8837" gradientTransform="matrix(1 0 0 -1 0 34)">
	<stop  offset="0" style="stop-color:#FFFFFF;stop-opacity:0.45"/>
	<stop  offset="1" style="stop-color:#FFFFFF;stop-opacity:0"/>
</linearGradient>
<path class="st1" d="M20,32h-8C5.4,32,0,26.6,0,20v-8C0,5.4,5.4,0,12,0h8c6.6,0,12,5.4,12,12v8C32,26.6,26.6,32,20,32z"/>
<g id="layer101">
	<path class="st2" d="M11.4,26.2l-1.8-1.8v-4.4c0-3.7,0-4.5,0.1-4.9c0.1-0.7,0.4-1.5,0.5-1.6c0,0,0.8,0.6,1.6,1.5l1.5,1.5l0-2l0-2
		l2,0l2,0v-1.9V8.6L18,8.6c3.5,0.3,6.4,2.9,7.1,6.4c0.1,0.7,0.1,2.3,0,3c-0.2,0.8-0.6,1.8-1,2.5c-0.4,0.7-1.3,1.7-2,2.2
		c-0.9,0.7-2.3,1.3-3.5,1.5c-1.5,0.2-3.5-0.1-4.8-0.8l-0.4-0.2v2.4c0,1.3,0,2.4-0.1,2.4C13.2,28,12.4,27.2,11.4,26.2z"/>
	<path class="st2" d="M10.9,12.8l-1.6-1.6l0.2-0.5l0.2-0.5h1.3h1.3v2c0,1.1,0,2,0,2C12.5,14.4,11.8,13.7,10.9,12.8z"/>
	<path class="st2" d="M14.9,8.7l-1.6-1.6l0.7-0.2c0.8-0.3,1.5-0.4,2.1-0.4h0.4v1.9c0,1,0,1.9-0.1,1.9C16.5,10.3,15.8,9.6,14.9,8.7z"
		/>
	<path class="st2" d="M6.8,9.4c0-0.1,0.4-0.6,0.8-1.1L8,7.9l0.7,0.7C9.1,9,9.4,9.4,9.4,9.4c0,0-0.6,0.1-1.3,0.1
		C7.3,9.5,6.8,9.4,6.8,9.4z"/>
	<path class="st2" d="M10.2,9.4c0-0.1,0-0.7,0-1.4l0-1.3l0.5-0.3l0.5-0.2l1.6,1.5c0.9,0.9,1.6,1.6,1.6,1.6c0,0-0.9,0.1-2,0.1
		C10.7,9.5,10.2,9.4,10.2,9.4z"/>
	<path class="st2" d="M7.9,5.9L7.2,5.2l0.3-0.3C7.8,4.6,8.3,4.2,8.6,4c0.1,0,0.1,0.2,0.1,1.3c0,0.7,0,1.3-0.1,1.3
		C8.6,6.6,8.3,6.3,7.9,5.9z"/>
</g>
<g id="layer102">
	<path class="st3" d="M11.4,26.2c-1-1-1.8-1.9-1.8-1.9c0,0,0.8,0,1.9,0l1.9,0l-1.9-1.9l-1.9-1.9h1.9h1.9l-1.9-1.9
		c-1.2-1.2-1.9-1.9-1.9-2c0-0.1,0-0.1,1.9-0.1l1.9,0l0-2c0-1.1,0-2,0.1-2.1c0,0,1.5-0.1,4.1,0l4,0l-1.9-1.9l-1.9-1.9l0.5,0.1
		C19.1,8.7,20,9,21,9.5l0.5,0.2V11v1.3h1.3c1.1,0,1.3,0,1.2-0.1c-0.1-0.3,0-0.1,0.3,0.4c1,1.7,1.2,3.8,0.7,5.7
		c-0.1,0.5-0.6,1.6-0.6,1.6c0,0,0-0.1,0.1-0.2c0.1-0.2,0.1-0.2-1.4-1.7c-0.8-0.8-1.5-1.5-1.5-1.5c0,0-0.1,0.9-0.1,2v2l1.3,0
		c0.9,0,1.3,0,1.3,0.1c-0.2,0.3-0.5,0.8-0.8,1.1L22.9,22l-0.7-0.7l-0.7-0.7v1.3v1.3l-0.6,0.3c-0.6,0.3-0.8,0.4-0.6,0.2
		c0.1-0.1,0-0.3-1.4-1.6l-1.5-1.5l0,1.9l0,1.9l-0.5,0c-0.4,0-0.4,0-0.2-0.1l0.3,0l-1.8-1.8l-1.8-1.8v3.7c0,2.1,0,3.7-0.1,3.7
		C13.2,28,12.4,27.2,11.4,26.2z M17.3,20.4c0-0.1-3.8-3.9-3.9-3.9c0,0-0.1,0.9-0.1,2v2h2C16.4,20.5,17.3,20.5,17.3,20.4z M21.4,20.5
		c0,0-0.9-0.9-2-2l-2-2v2v2h2C20.5,20.5,21.4,20.5,21.4,20.5z M17.3,16.4c0,0-0.9-0.9-2-2l-2-2v2c0,1.1,0,2,0,2
		C13.4,16.5,17.3,16.5,17.3,16.4z M21.4,16.4c0-0.1-3.9-4-4-4c0,0-0.1,0.9-0.1,2c0,1.8,0,2,0.1,2C17.7,16.5,21.4,16.5,21.4,16.4z
		 M25.1,16.3c0-0.1-0.6-0.7-1.9-2l-1.9-1.9v2c0,1.5,0,2,0.1,2c0,0,0.9,0,1.9,0C25.1,16.4,25.1,16.4,25.1,16.3z"/>
	<path class="st3" d="M17.8,24.2c0.1,0,0.2,0,0.3,0c0.1,0,0,0-0.2,0S17.7,24.2,17.8,24.2z"/>
	<path class="st3" d="M14.9,23.9C14.8,23.9,14.8,23.8,14.9,23.9c0-0.1,0.1,0,0.2,0c0.1,0,0.1,0.1,0,0.1C15.1,24,15,23.9,14.9,23.9z"
		/>
	<path class="st3" d="M14.1,23.6c-0.1-0.1-0.1-0.1-0.1-0.1c0,0,0.2,0,0.3,0.1c0.1,0.1,0.2,0.1,0.1,0.1
		C14.3,23.7,14.2,23.6,14.1,23.6z"/>
	<path class="st3" d="M13.6,23.3C13.3,23.2,13.3,23.1,13.6,23.3c0.1,0,0.2,0.1,0.2,0.1C13.8,23.5,13.8,23.5,13.6,23.3z"/>
	<path class="st3" d="M10.9,12.8l-1.6-1.6l0.2-0.5l0.2-0.5h1.3h1.3v2c0,1.1,0,2,0,2C12.5,14.4,11.8,13.7,10.9,12.8z"/>
	<path class="st3" d="M14.9,8.7l-1.6-1.6l0.7-0.2c0.8-0.3,1.5-0.4,2.1-0.4h0.4v1.9c0,1,0,1.9-0.1,1.9C16.5,10.3,15.8,9.6,14.9,8.7z"
		/>
	<path class="st3" d="M8.1,9.4l1.3,0L8.7,8.7C8.3,8.3,8,8,7.9,8c0,0-0.1,0,0-0.1c0-0.1,0.3,0.1,0.8,0.6C9.1,9,9.4,9.4,9.4,9.4
		C9.4,9.4,8.8,9.5,8.1,9.4l-1.3,0L8.1,9.4z"/>
	<path class="st3" d="M10.2,9.4c0-0.1,0-0.7,0-1.4l0-1.3l0.4-0.2C10.8,6.4,11,6.3,11,6.4s-0.2,0.1-0.4,0.2l-0.4,0.2v1.3L10.2,9.4
		l2.1,0c1.1,0,2,0,2,0c0,0-0.9,0.1-2,0.1C10.7,9.5,10.2,9.4,10.2,9.4z"/>
	<path class="st3" d="M7.1,8.9c0.1-0.1,0.2-0.2,0.2-0.2C7.4,8.6,7.3,8.8,7.1,8.9C7.1,9,7,9.1,7,9.1C7,9.1,7,9,7.1,8.9z"/>
	<path class="st3" d="M7.9,5.9L7.2,5.2l0.3-0.3C7.8,4.6,8.3,4.2,8.6,4c0.1,0,0.1,0.2,0.1,1.3c0,0.7,0,1.3-0.1,1.3
		C8.6,6.6,8.3,6.3,7.9,5.9z"/>
</g>
</svg>
