<?xml version="1.0" encoding="utf-8"?>
<!-- Generator: Adobe Illustrator 24.0.1, SVG Export Plug-In . SVG Version: 6.00 Build 0)  -->
<svg version="1.1" id="Layer_1" xmlns="http://www.w3.org/2000/svg" xmlns:xlink="http://www.w3.org/1999/xlink" x="0px" y="0px"
	 width="40px" height="40px" viewBox="0 0 40 40" style="enable-background:new 0 0 40 40;" xml:space="preserve">
<style type="text/css">
	.st0{fill:#346CBC;}
	.st1{fill:url(#SVGID_1_);}
	.st2{fill:#EFEFEF;}
	.st3{fill:#FFFFFF;}
</style>
<path class="st0" d="M25,40H15C6.8,40,0,33.3,0,25V15C0,6.8,6.8,0,15,0h10c8.3,0,15,6.8,15,15v10C40,33.3,33.3,40,25,40z"/>
<linearGradient id="SVGID_1_" gradientUnits="userSpaceOnUse" x1="9.0907" y1="267.1046" x2="30.9093" y2="304.8954" gradientTransform="matrix(1 0 0 1 0 -266)">
	<stop  offset="0" style="stop-color:#FFFFFF;stop-opacity:0.45"/>
	<stop  offset="1" style="stop-color:#FFFFFF;stop-opacity:0"/>
</linearGradient>
<path class="st1" d="M25,40H15C6.8,40,0,33.3,0,25V15C0,6.8,6.8,0,15,0h10c8.3,0,15,6.8,15,15v10C40,33.3,33.3,40,25,40z"/>
<g id="layer101">
	<path class="st2" d="M14.3,32.8L12,30.5V25c0-4.6,0-5.6,0.1-6.1c0.1-0.9,0.5-1.9,0.6-2c0,0,1,0.8,2,1.9l1.9,1.9v-2.5v-2.5h2.5h2.5
		v-2.4v-2.5h0.9c4.4,0.4,8,3.6,8.9,8c0.1,0.9,0.1,2.9,0,3.8c-0.3,1-0.8,2.3-1.3,3.1s-1.6,2.1-2.5,2.8c-1.1,0.9-2.9,1.6-4.4,1.9
		c-1.9,0.3-4.4-0.1-6-1L16.8,29v3c0,1.6,0,3-0.1,3S15.5,34,14.3,32.8z"/>
	<path class="st2" d="M13.6,16l-2-2l0.3-0.6l0.2-0.6h1.6h1.6v2.5c0,1.4,0,2.5,0,2.5C15.6,18,14.8,17.1,13.6,16z"/>
	<path class="st2" d="M18.6,10.9l-2-2l0.9-0.3c1-0.4,1.9-0.5,2.6-0.5h0.5v2.4c0,1.3,0,2.4-0.1,2.4C20.6,12.9,19.8,12,18.6,10.9z"/>
	<path class="st2" d="M8.5,11.8c0-0.1,0.5-0.8,1-1.4L10,9.9l0.9,0.9c0.5,0.5,0.9,1,0.9,1s-0.8,0.1-1.6,0.1
		C9.1,11.9,8.5,11.8,8.5,11.8z"/>
	<path class="st2" d="M12.8,11.8c0-0.1,0-0.9,0-1.8V8.4L13.4,8L14,7.8l2,1.9c1.1,1.1,2,2,2,2s-1.1,0.1-2.5,0.1
		C13.4,11.9,12.8,11.8,12.8,11.8z"/>
	<path class="st2" d="M9.9,7.4L9,6.5l0.4-0.4c0.4-0.4,1-0.9,1.4-1.1c0.1,0,0.1,0.3,0.1,1.6c0,0.9,0,1.6-0.1,1.6
		C10.8,8.3,10.4,7.9,9.9,7.4z"/>
</g>
<g id="layer102">
	<path class="st3" d="M14.3,32.8C13,31.5,12,30.4,12,30.4s1,0,2.4,0h2.4L14.4,28L12,25.6h2.4h2.4l-2.4-2.4c-1.5-1.5-2.4-2.4-2.4-2.5
		c0-0.1,0-0.1,2.4-0.1h2.4v-2.5c0-1.4,0-2.5,0.1-2.6c0,0,1.9-0.1,5.1,0h5l-2.4-2.4l-2.4-2.4l0.6,0.1c1,0,2.1,0.4,3.4,1l0.6,0.3v1.6
		v1.6h1.6c1.4,0,1.6,0,1.5-0.1c-0.1-0.4,0-0.1,0.4,0.5c1.3,2.1,1.5,4.8,0.9,7.1c-0.1,0.6-0.8,2-0.8,2s0-0.1,0.1-0.3
		c0.1-0.3,0.1-0.3-1.8-2.1c-1-1-1.9-1.9-1.9-1.9s-0.1,1.1-0.1,2.5v2.5h1.6c1.1,0,1.6,0,1.6,0.1c-0.3,0.4-0.6,1-1,1.4l-0.5,0.4
		l-0.9-0.9l-0.9-0.9v1.6V29l-0.8,0.4c-0.8,0.4-1,0.5-0.8,0.3c0.1-0.1,0-0.4-1.8-2l-1.9-1.9v2.4v2.4h-0.6c-0.5,0-0.5,0-0.3-0.1h0.4
		L19,28.1l-2.3-2.3v4.6c0,2.6,0,4.6-0.1,4.6C16.5,35,15.5,34,14.3,32.8z M21.6,25.5c0-0.1-4.8-4.9-4.9-4.9c0,0-0.1,1.1-0.1,2.5v2.5
		h2.5C20.5,25.6,21.6,25.6,21.6,25.5z M26.8,25.6c0,0-1.1-1.1-2.5-2.5l-2.5-2.5v2.5v2.5h2.5C25.6,25.6,26.8,25.6,26.8,25.6z
		 M21.6,20.5c0,0-1.1-1.1-2.5-2.5l-2.5-2.5V18c0,1.4,0,2.5,0,2.5C16.8,20.6,21.6,20.6,21.6,20.5z M26.8,20.5c0-0.1-4.9-5-5-5
		c0,0-0.1,1.1-0.1,2.5c0,2.2,0,2.5,0.1,2.5C22.1,20.6,26.8,20.6,26.8,20.5z M31.4,20.4c0-0.1-0.8-0.9-2.4-2.5l-2.4-2.4V18
		c0,1.9,0,2.5,0.1,2.5c0,0,1.1,0,2.4,0C31.4,20.5,31.4,20.5,31.4,20.4z"/>
	<path class="st3" d="M22.3,30.3c0.1,0,0.3,0,0.4,0c0.1,0,0,0-0.3,0C22.1,30.3,22.1,30.3,22.3,30.3z"/>
	<path class="st3" d="M18.6,29.9C18.5,29.9,18.5,29.8,18.6,29.9c0-0.1,0.1,0,0.3,0s0.1,0.1,0,0.1C18.9,30,18.8,29.9,18.6,29.9z"/>
	<path class="st3" d="M17.6,29.5c-0.1-0.1-0.1-0.1-0.1-0.1s0.3,0,0.4,0.1s0.3,0.1,0.1,0.1S17.8,29.5,17.6,29.5z"/>
	<path class="st3" d="M17,29.1C16.6,29,16.6,28.9,17,29.1c0.1,0,0.3,0.1,0.3,0.1C17.3,29.4,17.3,29.4,17,29.1z"/>
	<path class="st3" d="M13.6,16l-2-2l0.3-0.6l0.2-0.6h1.6h1.6v2.5c0,1.4,0,2.5,0,2.5C15.6,18,14.8,17.1,13.6,16z"/>
	<path class="st3" d="M18.6,10.9l-2-2l0.9-0.3c1-0.4,1.9-0.5,2.6-0.5h0.5v2.4c0,1.3,0,2.4-0.1,2.4C20.6,12.9,19.8,12,18.6,10.9z"/>
	<path class="st3" d="M10.1,11.8h1.6l-0.9-0.9c-0.5-0.5-0.9-0.9-1-0.9c0,0-0.1,0,0-0.1c0-0.1,0.4,0.1,1,0.8c0.5,0.6,0.9,1.1,0.9,1.1
		S11,11.9,10.1,11.8H8.5H10.1z"/>
	<path class="st3" d="M12.8,11.8c0-0.1,0-0.9,0-1.8V8.4l0.5-0.3C13.5,8,13.8,7.9,13.8,8s-0.3,0.1-0.5,0.3l-0.5,0.3v1.6L12.8,11.8
		h2.6c1.4,0,2.5,0,2.5,0s-1.1,0.1-2.5,0.1C13.4,11.9,12.8,11.8,12.8,11.8z"/>
	<path class="st3" d="M8.9,11.1C9,11,9.1,10.9,9.1,10.9C9.3,10.8,9.1,11,8.9,11.1c0,0.1-0.1,0.3-0.1,0.3S8.8,11.3,8.9,11.1z"/>
	<path class="st3" d="M9.9,7.4L9,6.5l0.4-0.4c0.4-0.4,1-0.9,1.4-1.1c0.1,0,0.1,0.3,0.1,1.6c0,0.9,0,1.6-0.1,1.6
		C10.8,8.3,10.4,7.9,9.9,7.4z"/>
</g>
</svg>
