<?xml version="1.0" encoding="utf-8"?>
<!-- Generator: Adobe Illustrator 24.0.1, SVG Export Plug-In . SVG Version: 6.00 Build 0)  -->
<svg version="1.1" id="Layer_1" xmlns="http://www.w3.org/2000/svg" xmlns:xlink="http://www.w3.org/1999/xlink" x="0px" y="0px"
	 width="40px" height="40px" viewBox="0 0 40 40" style="enable-background:new 0 0 40 40;" xml:space="preserve">
<style type="text/css">
	.st0{fill:#187C40;}
	.st1{fill:url(#SVGID_1_);}
	.st2{fill-rule:evenodd;clip-rule:evenodd;fill:#FDFFEE;}
	.st3{fill-rule:evenodd;clip-rule:evenodd;fill:#EBFAFF;}
	.st4{fill-rule:evenodd;clip-rule:evenodd;fill:#FFFEEB;}
	.st5{fill-rule:evenodd;clip-rule:evenodd;fill:#EBFFE9;}
	.st6{fill-rule:evenodd;clip-rule:evenodd;fill:#E9FFF8;}
	.st7{fill-rule:evenodd;clip-rule:evenodd;fill:#EBFFF3;}
</style>
<path class="st0" d="M25,40H15C6.8,40,0,33.3,0,25V15C0,6.8,6.8,0,15,0h10c8.3,0,15,6.8,15,15v10C40,33.3,33.3,40,25,40z"/>
<linearGradient id="SVGID_1_" gradientUnits="userSpaceOnUse" x1="9.0907" y1="40.8954" x2="30.9093" y2="3.1046" gradientTransform="matrix(1 0 0 -1 0 42)">
	<stop  offset="0" style="stop-color:#FFFFFF;stop-opacity:0.5"/>
	<stop  offset="1" style="stop-color:#FFFFFF;stop-opacity:0"/>
</linearGradient>
<path class="st1" d="M25,40H15C6.8,40,0,33.3,0,25V15C0,6.8,6.8,0,15,0h10c8.3,0,15,6.8,15,15v10C40,33.3,33.3,40,25,40z"/>
<g id="paxos-logo" transform="translate(150.000000, 67.000000)">
	<path id="Fill-1" class="st2" d="M-136.6-57.5c0.6-0.6,1.1-1.3,1.6-1.6c-8.5-0.3-6,5.9-8.8,12.1c-3.1,7.3,0.4,10,5.6,10.8
		c-0.8-0.9-1.4-1.9-1.8-3C-143.4-43.6-142-51.5-136.6-57.5"/>
	<path id="Fill-3" class="st3" d="M-116.4-49.9c-0.8,2.3-2.3,4.8-4.3,7.3c-1.6,1.9-3.4,3.4-5.1,4.5c-2.1,1.4-4.8,2.2-7.6,2.2
		c-1.6,0-3.3-0.1-4.8-0.4c0.9,1,1.9,1.9,3.1,2.5c7.6,3.7,8.1-3.3,16.3-6.8C-114.3-42.5-114.3-46.4-116.4-49.9"/>
	<path id="Fill-5" class="st4" d="M-125.8-57.1c1.1,0.3,2.3,0.6,3.1,1.1c2.6,1.5,4.9,3.8,6.3,6.1c1.4-3.9,0.8-7-2.3-7.5
		c-3.2-0.6-5.9-0.8-8.4-2.5c-3-2.1-5.8-1.5-8.1,0.7c0.1,0,0.4,0,0.5,0C-131.4-59-128.3-58.4-125.8-57.1"/>
	<path id="Fill-7" class="st5" d="M-136.6-57.5c-5.4,6-6.8,14-3.3,18.2c-1.5-3.6-1.4-8.1,0.8-11.8c2.9-4.9,8.6-6.9,13.4-6
		c-2.5-1.3-5.5-2-8.7-2.1c-0.1,0-0.4,0-0.5,0C-135.6-58.8-136.1-58.3-136.6-57.5"/>
	<path id="Fill-9" class="st6" d="M-122.6-56c-1-0.5-2-0.9-3.1-1.1c3.3,1.8,5.4,4.6,5.4,9.3c0,4-2.1,7.5-5.4,9.6
		c1.9-1.1,3.6-2.6,5.1-4.5c2-2.5,3.5-5,4.3-7.2C-117.8-52.3-120.1-54.5-122.6-56"/>
	<path id="Fill-11" class="st7" d="M-126.4-40.4c-3.6,2.4-8.5,1.3-10.9-2.4c-2.4-3.6-1.3-8.4,2.4-10.9c4-2.9,9-1.8,10.9,2.4
		C-122.1-47.3-122.6-42.8-126.4-40.4 M-125.8-57.1c-4.8-0.9-10.5,1.3-13.4,6c-2.1,3.6-2.3,8.1-0.8,11.8c0.5,1.1,1,2.1,1.8,3
		c1.5,0.3,3.1,0.4,4.8,0.4c2.9,0,5.5-0.8,7.6-2.3c3.3-2.1,5.4-5.6,5.4-9.6C-120.4-52.5-122.5-55.4-125.8-57.1"/>
</g>
</svg>
