<?xml version="1.0" encoding="utf-8"?>
<!-- Generator: Adobe Illustrator 24.0.1, SVG Export Plug-In . SVG Version: 6.00 Build 0)  -->
<svg version="1.1" id="Layer_1" xmlns="http://www.w3.org/2000/svg" xmlns:xlink="http://www.w3.org/1999/xlink" x="0px" y="0px"
	 width="40px" height="40px" viewBox="0 0 40 40" style="enable-background:new 0 0 40 40;" xml:space="preserve">
<style type="text/css">
	.st0{opacity:0.8;fill-rule:evenodd;clip-rule:evenodd;fill:#A1A3AA;}
	.st1{opacity:0.9;fill-rule:evenodd;clip-rule:evenodd;fill:#A1A3AA;}
	.st2{fill-rule:evenodd;clip-rule:evenodd;fill:#A1A3AA;}
</style>
<g id="paxos-logo" transform="translate(150.000000, 67.000000)">
	<path id="Fill-1" class="st0" d="M-138.8-61.1c0.8-0.8,1.5-1.7,2.1-2.1c-11.4-0.4-8,7.9-11.8,16.2c-4.1,9.8,0.5,13.4,7.5,14.4
		c-1.1-1.2-1.9-2.5-2.4-4C-147.9-42.5-146-53-138.8-61.1"/>
	<path id="Fill-3" class="st0" d="M-111.8-50.9c-1.1,3.1-3.1,6.4-5.7,9.8c-2.1,2.5-4.5,4.5-6.8,6c-2.8,1.9-6.4,2.9-10.2,2.9
		c-2.1,0-4.4-0.1-6.4-0.5c1.2,1.3,2.5,2.5,4.1,3.3c10.2,4.9,10.8-4.4,21.8-9.1C-109-41-109-46.2-111.8-50.9"/>
	<path id="Fill-5" class="st0" d="M-124.4-60.5c1.5,0.4,3.1,0.8,4.1,1.5c3.5,2,6.5,5.1,8.4,8.2c1.9-5.2,1.1-9.4-3.1-10
		c-4.3-0.8-7.9-1.1-11.2-3.3c-4-2.8-7.8-2-10.8,0.9c0.1,0,0.5,0,0.7,0C-131.9-63.1-127.7-62.3-124.4-60.5"/>
	<path id="Fill-7" class="st1" d="M-138.8-61.1c-7.2,8-9.1,18.7-4.4,24.3c-2-4.8-1.9-10.8,1.1-15.8c3.9-6.5,11.5-9.2,17.9-8
		c-3.3-1.7-7.4-2.7-11.6-2.8c-0.1,0-0.5,0-0.7,0C-137.5-62.8-138.2-62.1-138.8-61.1"/>
	<path id="Fill-9" class="st1" d="M-120.1-59.1c-1.3-0.7-2.7-1.2-4.1-1.5c4.4,2.4,7.2,6.1,7.2,12.4c0,5.3-2.8,10-7.2,12.8
		c2.5-1.5,4.8-3.5,6.8-6c2.7-3.3,4.7-6.7,5.7-9.6C-113.7-54.1-116.8-57.1-120.1-59.1"/>
	<path id="Fill-11" class="st2" d="M-125.2-38.2c-4.8,3.2-11.4,1.7-14.6-3.2c-3.2-4.8-1.7-11.2,3.2-14.6c5.3-3.9,12-2.4,14.6,3.2
		C-119.4-47.4-120.1-41.4-125.2-38.2 M-124.4-60.5c-6.4-1.2-14,1.7-17.9,8c-2.8,4.8-3.1,10.8-1.1,15.8c0.7,1.5,1.3,2.8,2.4,4
		c2,0.4,4.1,0.5,6.4,0.5c3.9,0,7.4-1.1,10.2-3.1c4.4-2.8,7.2-7.5,7.2-12.8C-117.2-54.4-120-58.3-124.4-60.5"/>
</g>
</svg>
