<?xml version="1.0" encoding="utf-8"?>
<!-- Generator: Adobe Illustrator 24.0.1, SVG Export Plug-In . SVG Version: 6.00 Build 0)  -->
<svg version="1.1" id="Layer_1" xmlns="http://www.w3.org/2000/svg" xmlns:xlink="http://www.w3.org/1999/xlink" x="0px" y="0px"
	 width="40px" height="40px" viewBox="0 0 40 40" style="enable-background:new 0 0 40 40;" xml:space="preserve">
<style type="text/css">
	.st0{fill:#0A0A0A;}
	.st1{fill:url(#SVGID_1_);}
	.st2{fill:#FFFFFF;}
</style>
<path class="st0" d="M25,40H15C6.8,40,0,33.3,0,25V15C0,6.8,6.8,0,15,0h10c8.3,0,15,6.8,15,15v10C40,33.3,33.3,40,25,40z"/>
<linearGradient id="SVGID_1_" gradientUnits="userSpaceOnUse" x1="9.0907" y1="40.8954" x2="30.9093" y2="3.1046" gradientTransform="matrix(1 0 0 -1 0 42)">
	<stop  offset="0" style="stop-color:#FFFFFF;stop-opacity:0.5"/>
	<stop  offset="1" style="stop-color:#FFFFFF;stop-opacity:0"/>
</linearGradient>
<path class="st1" d="M25,40H15C6.8,40,0,33.3,0,25V15C0,6.8,6.8,0,15,0h10c8.3,0,15,6.8,15,15v10C40,33.3,33.3,40,25,40z"/>
<path class="st2" d="M34.3,19.6c-0.1-0.1-0.1-0.3-0.3-0.4c-2.5-2.9-7.5-8.4-7.5-8.4l-6.5,7l-6.5-7c0,0-5.1,5.6-7.6,8.4
	c-0.4,0.4-0.4,0.9,0,1.3C7.1,22,13.6,29,13.6,29l6.5-7.1l6.4,7.1l7.7-8.5c0,0,0.1-0.1,0.3-0.3C34.4,20.1,34.4,19.9,34.3,19.6
	 M9.5,20.4c-0.3-0.3-0.1-0.6,0-0.9c0.9-0.9,4.1-4.5,4.1-4.5l4.5,4.9l-4.6,5C13.6,24.9,10.8,21.9,9.5,20.4 M30.4,20.5
	c-0.1,0.1-0.3,0.4-0.4,0.5l-3.5,3.9L21.9,20l4.5-4.9c0,0,2.6,2.6,3.8,4.1c0.1,0.1,0.3,0.3,0.3,0.4C30.5,19.9,30.5,20.3,30.4,20.5"/>
</svg>
