<?xml version="1.0" encoding="utf-8"?>
<!-- Generator: Adobe Illustrator 24.0.1, SVG Export Plug-In . SVG Version: 6.00 Build 0)  -->
<svg version="1.1" id="Layer_1" xmlns="http://www.w3.org/2000/svg" xmlns:xlink="http://www.w3.org/1999/xlink" x="0px" y="0px"
	 width="40px" height="40px" viewBox="0 0 40 40" style="enable-background:new 0 0 40 40;" xml:space="preserve">
<style type="text/css">
	.st0{fill:#A1A3AA;}
</style>
<path class="st0" d="M39.7,19.6c-0.1-0.1-0.1-0.4-0.4-0.6C35.8,15,28.9,7.4,28.9,7.4l-9,9.7l-9-9.7c0,0-7.1,7.8-10.5,11.6
	c-0.6,0.6-0.6,1.2,0,1.8c1.7,2.1,10.7,11.8,10.7,11.8l9-9.8l8.9,9.8l10.7-11.8c0,0,0.1-0.1,0.4-0.4C39.9,20.3,39.9,20,39.7,19.6
	 M5.4,20.7c-0.4-0.4-0.1-0.8,0-1.2c1.2-1.2,5.7-6.2,5.7-6.2l6.2,6.8l-6.4,6.9C11.1,26.9,7.2,22.8,5.4,20.7 M34.3,20.8
	c-0.1,0.1-0.4,0.6-0.6,0.7l-4.8,5.4l-6.4-6.8l6.2-6.8c0,0,3.6,3.6,5.3,5.7c0.1,0.1,0.4,0.4,0.4,0.6C34.5,20,34.5,20.6,34.3,20.8"/>
</svg>
