<svg width="36" height="40" viewBox="0 0 36 40" fill="none" xmlns="http://www.w3.org/2000/svg">
<path d="M21 1.73205L32.3205 8.26795C34.1769 9.33974 35.3205 11.3205 35.3205 13.4641V26.5359C35.3205 28.6795 34.1769 30.6602 32.3205 31.732L21 38.2679C19.1436 39.3397 16.8564 39.3397 15 38.2679L3.6795 31.732C1.8231 30.6602 0.679504 28.6795 0.679504 26.5359V13.4641C0.679504 11.3205 1.8231 9.33974 3.6795 8.26795L15 1.73205C16.8564 0.660251 19.1436 0.660251 21 1.73205Z" fill="#245078"/>
<path style="mix-blend-mode:overlay" d="M21 1.73205L32.3205 8.26795C34.1769 9.33974 35.3205 11.3205 35.3205 13.4641V26.5359C35.3205 28.6795 34.1769 30.6602 32.3205 31.732L21 38.2679C19.1436 39.3397 16.8564 39.3397 15 38.2679L3.6795 31.732C1.8231 30.6602 0.679504 28.6795 0.679504 26.5359V13.4641C0.679504 11.3205 1.8231 9.33974 3.6795 8.26795L15 1.73205C16.8564 0.660251 19.1436 0.660251 21 1.73205Z" fill="url(#paint0_linear)"/>
<path d="M20.6099 30.7154C19.7697 30.9017 18.8963 31 18 31C11.3726 31 6.00001 25.6274 6.00001 19C6.00001 12.3726 11.3726 7 18 7C24.6274 7 30 12.3726 30 19C30 20.4559 29.7408 21.8512 29.2659 23.1423C28.6353 22.3332 27.7935 21.6968 26.8233 21.3161C27.0169 20.5765 27.12 19.8003 27.12 19C27.12 13.9632 23.0368 9.88 18 9.88C12.9632 9.88 8.88001 13.9632 8.88001 19C8.88001 24.0368 12.9632 28.12 18 28.12C18.3807 28.12 18.7559 28.0967 19.1243 28.0514C19.3739 29.0735 19.8963 29.9886 20.6099 30.7154ZM24.72 30.52C22.5992 30.52 20.88 28.8008 20.88 26.68C20.88 24.5592 22.5992 22.84 24.72 22.84C26.8408 22.84 28.56 24.5592 28.56 26.68C28.56 28.8008 26.8408 30.52 24.72 30.52Z" fill="white"/>
<defs>
<linearGradient id="paint0_linear" x1="10.3063" y1="5.5099" x2="28.659" y2="32.7678" gradientUnits="userSpaceOnUse">
<stop stop-color="white" stop-opacity="0.5"/>
<stop offset="1" stop-color="white" stop-opacity="0"/>
</linearGradient>
</defs>
</svg>
