<?xml version="1.0" encoding="utf-8"?>
<!-- Generator: Adobe Illustrator 24.0.1, SVG Export Plug-In . SVG Version: 6.00 Build 0)  -->
<svg version="1.1" id="Layer_1" xmlns="http://www.w3.org/2000/svg" xmlns:xlink="http://www.w3.org/1999/xlink" x="0px" y="0px"
	 width="40px" height="40px" viewBox="0 0 40 40" style="enable-background:new 0 0 40 40;" xml:space="preserve">
<style type="text/css">
	.st0{fill:#A1A3AA;}
</style>
<path id="qbtc" class="st0" d="M25.1,17.4L25.1,17.4c2.6-2,3.4-4.5,2.8-6.8c-0.7-2.5-2.5-3.9-4.5-4.3c-1.4-0.4-2.9-0.5-4.7-0.1
	L17.1,0c-0.9,0.7-1.9,1.4-2.8,2.1l1.3,4.7c-0.1,0-0.2,0-0.2,0.1c-0.6,0.1-1.2,0.4-1.8,0.5l-1.6-6C11,2.1,10.1,2.8,9.2,3.5l1.3,4.9
	c-1.1,0.4-2,0.8-2.7,1.1l6.9,25.7c0.7-0.1,1.6-0.2,2.8-0.5l1.3,4.8c1.2,0.1,2.2,0.2,3.4,0.5l-1.6-6c0.1,0,0.4-0.1,0.5-0.1
	c0.5-0.1,1.1-0.2,1.5-0.5l1.3,4.7c1.2,0.1,2.2,0.2,3.4,0.5l-1.6-6.2c2.5-1.1,4.1-2.2,5.2-3.6c1.3-1.8,1.9-3.9,1.3-6.3
	C31.2,19,28.4,17.4,25.1,17.4z M17.1,11c2.7-0.7,4.5-0.1,5,1.9c0.5,2-0.7,3.6-3.9,4.5l-2,0.5l-1.6-6.1C15.1,11.6,15.8,11.3,17.1,11z
	 M21.8,29c-1.1,0.2-1.8,0.5-2.3,0.5l-2-7.4l2-0.6c2.9-0.8,5.6-0.4,6.3,2.2C26.5,26.6,24.4,28.3,21.8,29z"/>
</svg>
