<?xml version="1.0" encoding="utf-8"?>
<!-- Generator: Adobe Illustrator 24.0.1, SVG Export Plug-In . SVG Version: 6.00 Build 0)  -->
<svg version="1.1" id="Layer_1" xmlns="http://www.w3.org/2000/svg" xmlns:xlink="http://www.w3.org/1999/xlink" x="0px" y="0px"
	 width="40px" height="40px" viewBox="0 0 40 40" style="enable-background:new 0 0 40 40;" xml:space="preserve">
<style type="text/css">
	.st0{fill:#06061E;}
	.st1{fill:url(#SVGID_1_);}
	.st2{fill:#FFFFFF;}
</style>
<path class="st0" d="M25,40H15C6.8,40,0,33.3,0,25V15C0,6.8,6.8,0,15,0h10c8.3,0,15,6.8,15,15v10C40,33.3,33.3,40,25,40z"/>
<linearGradient id="SVGID_1_" gradientUnits="userSpaceOnUse" x1="9.0995" y1="259.1232" x2="30.9181" y2="296.9141" gradientTransform="matrix(1 0 0 1 0 -258)">
	<stop  offset="0" style="stop-color:#FFFFFF;stop-opacity:0.35"/>
	<stop  offset="1" style="stop-color:#FFFFFF;stop-opacity:0"/>
</linearGradient>
<path class="st1" d="M25,40H15C6.8,40,0,33.3,0,25V15C0,6.8,6.8,0,15,0h10c8.3,0,15,6.8,15,15v10C40,33.3,33.3,40,25,40z"/>
<path id="qbtc" class="st2" d="M24.3,17.8L24.3,17.8c2.2-1.7,2.9-3.8,2.4-5.8c-0.6-2.1-2.1-3.3-3.8-3.7c-1.2-0.3-2.5-0.4-4-0.1
	L17.5,3c-0.8,0.6-1.6,1.2-2.4,1.8l1.1,4c-0.1,0-0.2,0-0.2,0.1c-0.5,0.1-1,0.3-1.5,0.4l-1.4-5.1c-0.8,0.6-1.6,1.2-2.4,1.8l1.1,4.2
	c-0.9,0.3-1.7,0.7-2.3,0.9L15.4,33c0.6-0.1,1.4-0.2,2.4-0.4l1.1,4.1c1,0.1,1.9,0.2,2.9,0.4l-1.4-5.1c0.1,0,0.3-0.1,0.4-0.1
	c0.4-0.1,0.9-0.2,1.3-0.4l1.1,4c1,0.1,1.9,0.2,2.9,0.4l-1.4-5.3c2.1-0.9,3.5-1.9,4.4-3.1c1.1-1.5,1.6-3.3,1.1-5.4
	C29.5,19.2,27.1,17.8,24.3,17.8z M17.5,12.4c2.3-0.6,3.8-0.1,4.3,1.6c0.4,1.7-0.6,3.1-3.3,3.8l-1.7,0.4l-1.4-5.2
	C15.8,12.9,16.4,12.6,17.5,12.4z M21.5,27.7c-0.9,0.2-1.5,0.4-2,0.4l-1.7-6.3l1.7-0.5c2.5-0.7,4.8-0.3,5.4,1.9
	C25.5,25.7,23.7,27.1,21.5,27.7z"/>
</svg>
