<?xml version="1.0" encoding="utf-8"?>
<!-- Generator: Adobe Illustrator 24.0.1, SVG Export Plug-In . SVG Version: 6.00 Build 0)  -->
<svg version="1.1" id="Layer_1" xmlns="http://www.w3.org/2000/svg" xmlns:xlink="http://www.w3.org/1999/xlink" x="0px" y="0px"
	 width="40px" height="40px" viewBox="0 0 40 40" style="enable-background:new 0 0 40 40;" xml:space="preserve">
<style type="text/css">
	.st0{fill:#1A3083;}
	.st1{fill:url(#SVGID_1_);}
	.st2{fill:#FFFFFF;}
</style>
<path class="st0" d="M25,40H15C6.8,40,0,33.3,0,25V15C0,6.8,6.8,0,15,0h10c8.3,0,15,6.8,15,15v10C40,33.3,33.3,40,25,40z"/>
<linearGradient id="SVGID_1_" gradientUnits="userSpaceOnUse" x1="9.0907" y1="40.8954" x2="30.9093" y2="3.1046" gradientTransform="matrix(1 0 0 -1 0 42)">
	<stop  offset="0" style="stop-color:#FFFFFF;stop-opacity:0.5"/>
	<stop  offset="1" style="stop-color:#FFFFFF;stop-opacity:0"/>
</linearGradient>
<path class="st1" d="M25,40H15C6.8,40,0,33.3,0,25V15C0,6.8,6.8,0,15,0h10c8.3,0,15,6.8,15,15v10C40,33.3,33.3,40,25,40z"/>
<path class="st2" d="M31.8,10.4c-0.5-0.1-1,0-1.4,0.4c-2,2.6-4,5.1-6.1,7.8c-1.1-1.4-2.3-2.8-3.4-4.1c0-0.1-0.4-0.4-0.9-0.5
	c-0.6,0-1.1,0.5-1.1,0.5c-1.1,1.4-2.3,2.8-3.4,4.1c-2-2.6-4-5.1-6-7.8c-0.4-0.4-1-0.5-1.5-0.3c-0.3,0.3-0.5,0.5-0.5,0.6v17.7
	c0,0.1,0.3,0.5,0.8,0.8c0.6,0.3,1-0.1,1.1-0.1l6.3-8c1.3,1.5,2.4,3,3.6,4.5c0.1,0,0.4,0.3,0.8,0.3s0.6-0.1,0.6-0.3l3.6-4.5
	c1.9,2.4,3.8,4.8,5.6,7.1c0.4,0.9,1.3,1.1,1.9,0.9c0.5-0.3,0.6-1,0.6-1c0-5.6,0-11.4,0-17C32.5,11,32.1,10.6,31.8,10.4L31.8,10.4z
	 M9.8,25.9V14.1l4.8,5.9L9.8,25.9z M20.1,23.8c0,0-0.1,0.1-0.3,0.1s-0.3-0.1-0.3-0.1c-1-1.3-2-2.5-2.9-3.6l2.9-3.6
	c0.1,0,0.3-0.1,0.4-0.1s0.3,0,0.3,0.1c1,1.3,1.9,2.4,2.9,3.6L20.1,23.8z M30.1,25.9L25.4,20l4.7-5.9C30.1,14.1,30.1,25.9,30.1,25.9z
	"/>
</svg>
