<?xml version="1.0" encoding="utf-8"?>
<!-- Generator: Adobe Illustrator 24.0.1, SVG Export Plug-In . SVG Version: 6.00 Build 0)  -->
<svg version="1.1" id="Layer_1" xmlns="http://www.w3.org/2000/svg" xmlns:xlink="http://www.w3.org/1999/xlink" x="0px" y="0px"
	 width="40px" height="40px" viewBox="0 0 40 40" style="enable-background:new 0 0 40 40;" xml:space="preserve">
<style type="text/css">
	.st0{fill:#A1A3AA;}
</style>
<path class="st0" d="M39,4.5c-0.8-0.2-1.6,0-2.2,0.6c-3.2,4.2-6.4,8.2-9.8,12.5c-1.8-2.2-3.7-4.5-5.5-6.6c0-0.2-0.6-0.6-1.4-0.8
	c-1,0-1.8,0.8-1.8,0.8c-1.8,2.2-3.7,4.5-5.5,6.6C9.6,13.5,6.4,9.5,3.2,5.2C2.6,4.5,1.6,4.4,0.8,4.7C0.3,5.2,0,5.5,0,5.7v28.4
	c0,0.2,0.5,0.8,1.3,1.3c1,0.5,1.6-0.2,1.8-0.2l10.1-12.8c2.1,2.4,3.9,4.8,5.8,7.2c0.2,0,0.6,0.5,1.3,0.5s1-0.2,1-0.5l5.8-7.2
	c3.1,3.9,6.1,7.7,9,11.4c0.6,1.4,2.1,1.8,3.1,1.4c0.8-0.5,1-1.6,1-1.6c0-9,0-18.3,0-27.3C40.1,5.5,39.5,4.8,39,4.5L39,4.5z
	 M3.7,29.4V10.5l7.7,9.5L3.7,29.4z M20.2,26c0,0-0.2,0.2-0.5,0.2S19.3,26,19.3,26c-1.6-2.1-3.2-4-4.7-5.8l4.7-5.8
	c0.2,0,0.5-0.2,0.6-0.2c0.2,0,0.5,0,0.5,0.2c1.6,2.1,3.1,3.9,4.7,5.8L20.2,26z M36.3,29.4l-7.5-9.5l7.5-9.5
	C36.3,10.5,36.3,29.4,36.3,29.4z"/>
</svg>
