<?xml version="1.0" encoding="utf-8"?>
<!-- Generator: Adobe Illustrator 24.0.1, SVG Export Plug-In . SVG Version: 6.00 Build 0)  -->
<svg version="1.1" id="Layer_1" xmlns="http://www.w3.org/2000/svg" xmlns:xlink="http://www.w3.org/1999/xlink" x="0px" y="0px"
	 width="40px" height="40px" viewBox="0 0 40 40" style="enable-background:new 0 0 40 40;" xml:space="preserve">
<style type="text/css">
	.st0{fill:#FF4824;}
	.st1{fill:url(#SVGID_1_);}
	.st2{fill:#FFFFFF;}
</style>
<path class="st0" d="M25,40H15C6.8,40,0,33.3,0,25V15C0,6.8,6.8,0,15,0h10c8.3,0,15,6.8,15,15v10C40,33.3,33.3,40,25,40z"/>
<linearGradient id="SVGID_1_" gradientUnits="userSpaceOnUse" x1="9.0907" y1="40.8954" x2="30.9093" y2="3.1046" gradientTransform="matrix(1 0 0 -1 0 42)">
	<stop  offset="0" style="stop-color:#FFFFFF;stop-opacity:0.5"/>
	<stop  offset="1" style="stop-color:#FFFFFF;stop-opacity:0"/>
</linearGradient>
<path class="st1" d="M25,40H15C6.8,40,0,33.3,0,25V15C0,6.8,6.8,0,15,0h10c8.3,0,15,6.8,15,15v10C40,33.3,33.3,40,25,40z"/>
<path id="u" class="st2" d="M32.9,32.5c0,0-0.8,0.8-1.8,0.8c-0.5,0-0.9-0.1-1.3-0.4l-0.1-0.1c-0.3-0.3-0.8-0.8-1.4-1.3l-0.3-0.3l0,0
	c-0.5-0.5-1.1-1.1-1.6-1.6c-0.8-0.9-0.8-2.1,0-3c0,0,0.8-0.8,1.8-0.8c0.5,0,1,0.3,1.4,0.5l3.3,3.3c0.3,0.4,0.4,0.8,0.5,1.3
	C33.4,31.4,33.3,32,32.9,32.5z"/>
<path id="Q" class="st2" d="M23.8,6.8h-0.1c-0.1,0-0.1,0-0.3-0.1h-0.1h-0.1H23c-0.1,0-0.1,0-0.3,0s-0.3,0-0.4-0.1
	c-0.1,0-0.3,0-0.3,0c-0.1,0-0.1,0-0.3,0c-0.6-0.3-1.2-0.3-1.9-0.3c-0.3,0-0.4,0-0.6,0s-0.4,0-0.6,0h-0.1h-0.1c-0.1,0-0.1,0-0.3,0
	h-0.1l0,0c-0.1,0-0.1,0-0.2,0l0,0c-0.1,0-0.3,0-0.3,0C10,7.9,5.1,15,6.5,22.5C7.8,29,13.4,33.8,20,33.8h0.3c2.5,0,4.8-0.8,6.9-2l0,0
	c0.3-0.1,0.5-0.4,0.6-0.4c-0.5-0.5-1-1-1.5-1.5c-0.4-0.4-0.6-0.9-0.6-1.4c-0.1-0.4,0-0.9,0.1-1.3c-0.9,0.6-2.9,2-5.6,2
	c-1.4,0-2.8-0.4-4-1.1c-0.6-0.4-1.2-0.8-1.7-1.3l0,0c-2-1.6-3.4-4-3.4-6.9c0-5,4.1-9.1,9.1-9.1l0,0c5.4,0,9.1,4.6,9.1,9.1
	c0,2.4-1,4.3-2,5.5c0.4-0.1,0.9-0.3,1.3-0.1c0.4,0,0.8,0.3,1.1,0.4c0.1,0.1,0.4,0.3,0.5,0.4c0,0,0.5,0.6,1.4,1.5
	c0.8-1.1,1.4-2.4,1.8-3.6c0,0,0.6-2,0.6-3.9C33.8,13.9,29.8,8.5,23.8,6.8z"/>
</svg>
