<?xml version="1.0" encoding="utf-8"?>
<!-- Generator: Adobe Illustrator 24.0.1, SVG Export Plug-In . SVG Version: 6.00 Build 0)  -->
<svg version="1.1" id="Layer_1" xmlns="http://www.w3.org/2000/svg" xmlns:xlink="http://www.w3.org/1999/xlink" x="0px" y="0px"
	 width="40px" height="40px" viewBox="0 0 40 40" style="enable-background:new 0 0 40 40;" xml:space="preserve">
<style type="text/css">
	.st0{fill:#A1A3AA;}
</style>
<path id="u" class="st0" d="M38.4,38c0,0-1.2,1.2-2.6,1.2c-0.7,0-1.3-0.1-1.9-0.6l-0.1-0.1c-0.4-0.4-1.2-1.2-2-1.9l-0.4-0.4l0,0
	c-0.7-0.7-1.6-1.6-2.3-2.3c-1.2-1.3-1.2-3,0-4.3c0,0,1.2-1.2,2.6-1.2c0.7,0,1.4,0.4,2,0.7l4.8,4.8c0.4,0.6,0.6,1.2,0.7,1.9
	C39.1,36.4,39,37.2,38.4,38z"/>
<path id="Q" class="st0" d="M25.3,0.9h-0.1c-0.1,0-0.1,0-0.4-0.1h-0.1h-0.1h-0.3c-0.1,0-0.1,0-0.4,0s-0.4,0-0.6-0.1
	c-0.1,0-0.4,0-0.4,0c-0.1,0-0.1,0-0.4,0c-0.9-0.4-1.7-0.4-2.7-0.4c-0.4,0-0.6,0-0.9,0c-0.3,0-0.6,0-0.9,0h-0.1h-0.1
	c-0.1,0-0.1,0-0.4,0h-0.1l0,0c-0.1,0-0.1,0-0.3,0l0,0c-0.1,0-0.4,0-0.4,0C5.4,2.5-1.7,12.7,0.3,23.5c1.9,9.4,10,16.3,19.5,16.3h0.4
	c3.6,0,6.9-1.2,10-2.9l0,0c0.4-0.1,0.7-0.6,0.9-0.6c-0.7-0.7-1.4-1.4-2.2-2.2c-0.6-0.6-0.9-1.3-0.9-2c-0.1-0.6,0-1.3,0.1-1.9
	c-1.3,0.9-4.2,2.9-8.1,2.9c-2,0-4-0.6-5.8-1.6c-0.9-0.6-1.7-1.2-2.5-1.9l0,0C9,27.4,7,24,7,19.8c0-7.2,5.9-13.1,13.1-13.1l0,0
	c7.8,0,13.1,6.6,13.1,13.1c0,3.5-1.4,6.2-2.9,7.9c0.6-0.1,1.3-0.4,1.9-0.1c0.6,0,1.2,0.4,1.6,0.6c0.1,0.1,0.6,0.4,0.7,0.6
	c0,0,0.7,0.9,2,2.2c1.2-1.6,2-3.5,2.6-5.2c0,0,0.9-2.9,0.9-5.6C39.7,11.1,33.9,3.3,25.3,0.9z"/>
</svg>
