<?xml version="1.0" encoding="utf-8"?>
<!-- Generator: Adobe Illustrator 23.0.0, SVG Export Plug-In . SVG Version: 6.00 Build 0)  -->
<svg version="1.1" id="Layer_1" xmlns="http://www.w3.org/2000/svg" xmlns:xlink="http://www.w3.org/1999/xlink" x="0px" y="0px"
	 width="32px" height="32px" viewBox="0 0 32 32" style="enable-background:new 0 0 32 32;" xml:space="preserve">
<style type="text/css">
	.st0{fill:#FF4824;}
	.st1{fill:url(#SVGID_1_);}
	.st2{fill:#FFFFFF;}
</style>
<path class="st0" d="M20,32h-8C5.4,32,0,26.6,0,20v-8C0,5.4,5.4,0,12,0h8c6.6,0,12,5.4,12,12v8C32,26.6,26.6,32,20,32z"/>
<linearGradient id="SVGID_1_" gradientUnits="userSpaceOnUse" x1="7.2681" y1="0.8759" x2="24.7319" y2="31.1241">
	<stop  offset="0" style="stop-color:#FFFFFF;stop-opacity:0.5"/>
	<stop  offset="1" style="stop-color:#FFFFFF;stop-opacity:0"/>
</linearGradient>
<path class="st1" d="M20,32h-8C5.4,32,0,26.6,0,20v-8C0,5.4,5.4,0,12,0h8c6.6,0,12,5.4,12,12v8C32,26.6,26.6,32,20,32z"/>
<path id="u" class="st2" d="M26.3,26c0,0-0.6,0.6-1.4,0.6c-0.4,0-0.7-0.1-1-0.3c0,0-0.1-0.1-0.1-0.1c-0.2-0.2-0.6-0.6-1.1-1
	l-0.2-0.2l0,0c-0.4-0.4-0.9-0.9-1.3-1.3c-0.6-0.7-0.6-1.7,0-2.4c0,0,0.6-0.6,1.4-0.6c0.4,0,0.8,0.2,1.1,0.4l2.6,2.6
	c0.2,0.3,0.3,0.6,0.4,1C26.7,25.1,26.6,25.6,26.3,26z"/>
<path id="Q" class="st2" d="M19,5.4c0,0-0.1,0-0.1,0c-0.1,0-0.1,0-0.2-0.1c0,0-0.1,0-0.1,0c0,0-0.1,0-0.1,0c0,0-0.1,0-0.1,0
	c-0.1,0-0.1,0-0.2,0c-0.1,0-0.2,0-0.3-0.1c-0.1,0-0.2,0-0.2,0c-0.1,0-0.1,0-0.2,0C17,5,16.5,5,16,5c-0.2,0-0.3,0-0.5,0
	c-0.2,0-0.3,0-0.5,0c0,0-0.1,0-0.1,0c0,0-0.1,0-0.1,0c-0.1,0-0.1,0-0.2,0c0,0-0.1,0-0.1,0l0,0c-0.1,0-0.1,0-0.2,0l0,0
	c-0.1,0-0.2,0-0.2,0C8,6.3,4.1,12,5.2,18c1,5.2,5.5,9,10.8,9h0.2c2,0,3.8-0.6,5.5-1.6l0,0c0.2-0.1,0.4-0.3,0.5-0.3
	c-0.4-0.4-0.8-0.8-1.2-1.2c-0.3-0.3-0.5-0.7-0.5-1.1c-0.1-0.3,0-0.7,0.1-1c-0.7,0.5-2.3,1.6-4.5,1.6c-1.1,0-2.2-0.3-3.2-0.9
	c-0.5-0.3-1-0.6-1.4-1l0,0c-1.6-1.3-2.7-3.2-2.7-5.5c0-4,3.3-7.3,7.3-7.3l0,0c4.3,0,7.3,3.7,7.3,7.3c0,1.9-0.8,3.4-1.6,4.4
	c0.3-0.1,0.7-0.2,1-0.1c0.3,0,0.6,0.2,0.9,0.3c0.1,0.1,0.3,0.2,0.4,0.3c0,0,0.4,0.5,1.1,1.2c0.6-0.9,1.1-1.9,1.4-2.9
	c0,0,0.5-1.6,0.5-3.1C27,11.1,23.8,6.8,19,5.4z"/>
</svg>
