<?xml version="1.0" encoding="utf-8"?>
<!-- Generator: Adobe Illustrator 23.0.0, SVG Export Plug-In . SVG Version: 6.00 Build 0)  -->
<svg version="1.1" id="Layer_1" xmlns="http://www.w3.org/2000/svg" xmlns:xlink="http://www.w3.org/1999/xlink" x="0px" y="0px"
	 width="32px" height="32px" viewBox="0 0 32 32" style="enable-background:new 0 0 32 32;" xml:space="preserve">
<style type="text/css">
	.st0{fill:#0C0C0C;}
	.st1{fill:url(#SVGID_1_);}
	.st2{fill-rule:evenodd;clip-rule:evenodd;fill:#FFFFFF;}
</style>
<path class="st0" d="M20,32h-8C5.4,32,0,26.6,0,20v-8C0,5.4,5.4,0,12,0h8c6.6,0,12,5.4,12,12v8C32,26.6,26.6,32,20,32z"/>
<linearGradient id="SVGID_1_" gradientUnits="userSpaceOnUse" x1="7.2681" y1="0.8759" x2="24.7319" y2="31.1241">
	<stop  offset="0" style="stop-color:#FFFFFF;stop-opacity:0.5"/>
	<stop  offset="1" style="stop-color:#FFFFFF;stop-opacity:0"/>
</linearGradient>
<path class="st1" d="M20,32h-8C5.4,32,0,26.6,0,20v-8C0,5.4,5.4,0,12,0h8c6.6,0,12,5.4,12,12v8C32,26.6,26.6,32,20,32z"/>
<path class="st2" d="M11,16c0-2.8,2.2-5,5-5s5,2.2,5,5c0,0.7-0.2,1.4-0.4,2l-3.3-3.3l-2.5,2.5l3.3,3.3c-0.6,0.3-1.3,0.4-2,0.4
	C13.2,21,11,18.8,11,16 M24.1,16c0-1.6-0.5-3.1-1.3-4.4L26,8.4L23.6,6l-3.2,3.2c-1.3-0.8-2.8-1.3-4.4-1.3s-3.1,0.5-4.4,1.3L8.4,6
	L6,8.4l3.2,3.2c-0.8,1.3-1.3,2.8-1.3,4.4s0.5,3.1,1.3,4.4L6,23.6L8.4,26l3.2-3.2c1.3,0.8,2.8,1.3,4.4,1.3s3.1-0.5,4.4-1.3l3.2,3.2
	l2.4-2.4l-3.2-3.2C23.7,19.1,24.1,17.6,24.1,16"/>
</svg>
