<?xml version="1.0" encoding="utf-8"?>
<!-- Generator: Adobe Illustrator 24.0.1, SVG Export Plug-In . SVG Version: 6.00 Build 0)  -->
<svg version="1.1" id="Layer_1" xmlns="http://www.w3.org/2000/svg" xmlns:xlink="http://www.w3.org/1999/xlink" x="0px" y="0px"
	 width="40px" height="40px" viewBox="0 0 40 40" style="enable-background:new 0 0 40 40;" xml:space="preserve">
<style type="text/css">
	.st0{fill:#0C0C0C;}
	.st1{fill:url(#SVGID_1_);}
	.st2{fill-rule:evenodd;clip-rule:evenodd;fill:#FFFFFF;}
</style>
<path class="st0" d="M25,40H15C6.8,40,0,33.3,0,25V15C0,6.8,6.8,0,15,0h10c8.3,0,15,6.8,15,15v10C40,33.3,33.3,40,25,40z"/>
<linearGradient id="SVGID_1_" gradientUnits="userSpaceOnUse" x1="9.0907" y1="40.8954" x2="30.9093" y2="3.1046" gradientTransform="matrix(1 0 0 -1 0 42)">
	<stop  offset="0" style="stop-color:#FFFFFF;stop-opacity:0.5"/>
	<stop  offset="1" style="stop-color:#FFFFFF;stop-opacity:0"/>
</linearGradient>
<path class="st1" d="M25,40H15C6.8,40,0,33.3,0,25V15C0,6.8,6.8,0,15,0h10c8.3,0,15,6.8,15,15v10C40,33.3,33.3,40,25,40z"/>
<path class="st2" d="M13.8,20c0-3.5,2.8-6.3,6.3-6.3s6.3,2.8,6.3,6.3c0,0.9-0.3,1.8-0.5,2.5l-4.1-4.1l-3.1,3.1l4.1,4.1
	c-0.8,0.4-1.6,0.5-2.5,0.5C16.5,26.3,13.8,23.5,13.8,20 M30.1,20c0-2-0.6-3.9-1.6-5.5l4-4l-3-3l-4,4c-1.6-1-3.5-1.6-5.5-1.6
	s-3.9,0.6-5.5,1.6l-4-4l-3,3l4,4c-1,1.6-1.6,3.5-1.6,5.5s0.6,3.9,1.6,5.5l-4,4l3,3l4-4c1.6,1,3.5,1.6,5.5,1.6s3.9-0.6,5.5-1.6l4,4
	l3-3l-4-4C29.6,23.9,30.1,22,30.1,20"/>
</svg>
