<?xml version="1.0" encoding="utf-8"?>
<!-- Generator: Adobe Illustrator 24.0.1, SVG Export Plug-In . SVG Version: 6.00 Build 0)  -->
<svg version="1.1" id="Layer_1" xmlns="http://www.w3.org/2000/svg" xmlns:xlink="http://www.w3.org/1999/xlink" x="0px" y="0px"
	 width="40px" height="40px" viewBox="0 0 40 40" style="enable-background:new 0 0 40 40;" xml:space="preserve">
<style type="text/css">
	.st0{fill-rule:evenodd;clip-rule:evenodd;fill:#A1A3AA;}
</style>
<path class="st0" d="M10.1,20c0-5.6,4.5-10.1,10.1-10.1S30.2,14.4,30.2,20c0,1.4-0.5,2.9-0.8,4l-6.6-6.6l-5,5l6.6,6.6
	c-1.3,0.6-2.6,0.8-4,0.8C14.4,30.1,10.1,25.6,10.1,20 M36.2,20c0-3.2-1-6.2-2.6-8.8L40,4.8L35.2,0l-6.4,6.4
	c-2.6-1.6-5.6-2.6-8.8-2.6s-6.2,1-8.8,2.6L4.8,0L0,4.8l6.4,6.4c-1.6,2.6-2.6,5.6-2.6,8.8s1,6.2,2.6,8.8L0,35.2L4.8,40l6.4-6.4
	c2.6,1.6,5.6,2.6,8.8,2.6s6.2-1,8.8-2.6l6.4,6.4l4.8-4.8l-6.4-6.4C35.4,26.2,36.2,23.2,36.2,20"/>
</svg>
