<?xml version="1.0" encoding="utf-8"?>
<!-- Generator: Adobe Illustrator 24.0.1, SVG Export Plug-In . SVG Version: 6.00 Build 0)  -->
<svg version="1.1" id="Layer_1" xmlns="http://www.w3.org/2000/svg" xmlns:xlink="http://www.w3.org/1999/xlink" x="0px" y="0px"
	 width="40px" height="40px" viewBox="0 0 40 40" style="enable-background:new 0 0 40 40;" xml:space="preserve">
<style type="text/css">
	.st0{fill:#A1A3AA;}
</style>
<g id="Lines">
	<path class="st0" d="M24.1,36.9H13.2l-8.9-6.5L0.9,20L4.4,9.4L13.2,3h11.1l8.9,6.5l3.5,10.6l-3.5,10.6L33,30.9L24.1,36.9L24.1,36.9
		z M13.4,36.1H24l8.6-6.3l3.2-10l-3.2-10L24,3.4H13.4L4.9,9.8L1.9,20l3.3,10L13.4,36.1L13.4,36.1z"/>
	<path class="st0" d="M37.8,35.3l-5.1-4.5l-5.1-1.9L18.8,30l-8.9-1.2l-5.1,1.9l-0.3-0.9l5.1-2h0.1l8.9,1.3l9.2-1.3l0.1,0.1l5.2,2
		l5.1,4.8L37.8,35.3z"/>
	<path class="st0" d="M24,37.3L18.8,30l-5.5,7.3l-4.1-8.9L9.9,28l3.5,7.9l5.2-7.1l5.1,7.1l3.5-7.9l4.8-9.5l1.2,11.6h-0.7l-0.9-8.9
		l-3.3,7.1L24,37.3z"/>
	<path class="st0" d="M1.5,19.7h34.8v0.7H1.5V19.7z"/>
	<path class="st0" d="M32.1,21.3l-4.4-8.6L24,20.9l-5.2-9.5l-5.5,9.5l-3.6-8.1l-4.4,8.6l-1-11.5l0.7-0.1l0.7,8.9L9.5,11l3.8,8.1
		l5.5-9.3l5.1,9.3l3.8-8.1l3.8,7.4L32,9.5h0.7L32.1,21.3z"/>
	<path class="st0" d="M27.5,12L24,4.1l-5.1,7.3l-5.2-7.3L10,12l-0.6-0.3l3.8-9.2l5.5,7.4L24,2.5l4.2,9.2L27.5,12z M32.6,30.2
		l-0.9-8.9l-3.9,7.9L24,21l-5.1,9.5L13.4,21l-3.8,8.1l-3.8-7.9l-0.7,8.9H4.2l1.2-11.6l4.4,8.7l3.8-8.1l5.5,9.5l5.2-9.5l3.8,8.1
		l4.4-8.9L33.6,30L32.6,30.2z"/>
	<path class="st0" d="M27.8,12.4l-9.2-1.3l-9.2,1.3L4.5,10l0.1-0.7l5.1,2.2l8.9-1.2l9.2,1.2l4.9-2.2l0.4,0.7L27.8,12.4z"/>
</g>
<g id="Circles">
	<circle class="st0" cx="13.4" cy="36.6" r="1.5"/>
	<circle class="st0" cx="23.9" cy="36.6" r="1.5"/>
	<circle class="st0" cx="13.4" cy="3.4" r="1.5"/>
	<circle class="st0" cx="23.9" cy="3.4" r="1.5"/>
	<circle class="st0" cx="32.6" cy="9.7" r="1.5"/>
	<circle class="st0" cx="4.5" cy="9.7" r="1.5"/>
	<circle class="st0" cx="4.5" cy="30.3" r="1.5"/>
	<circle class="st0" cx="1.5" cy="20" r="1.5"/>
	<circle class="st0" cx="36.2" cy="20" r="1.5"/>
	<circle class="st0" cx="31.9" cy="20" r="1.5"/>
	<circle class="st0" cx="5.4" cy="20" r="1.5"/>
	<circle class="st0" cx="13.4" cy="20" r="1.5"/>
	<circle class="st0" cx="23.9" cy="20" r="1.5"/>
	<ellipse class="st0" cx="18.8" cy="10.7" rx="1.5" ry="1.5"/>
	<circle class="st0" cx="9.6" cy="12" r="1.5"/>
	<circle class="st0" cx="27.8" cy="12" r="1.5"/>
	<circle class="st0" cx="18.8" cy="29.5" r="1.5"/>
	<circle class="st0" cx="9.6" cy="28.1" r="1.5"/>
	<circle class="st0" cx="27.8" cy="28.1" r="1.5"/>
	<circle class="st0" cx="38" cy="35" r="2"/>
</g>
</svg>
