<?xml version="1.0" encoding="utf-8"?>
<!-- Generator: Adobe Illustrator 24.0.1, SVG Export Plug-In . SVG Version: 6.00 Build 0)  -->
<svg version="1.1" id="Layer_1" xmlns="http://www.w3.org/2000/svg" xmlns:xlink="http://www.w3.org/1999/xlink" x="0px" y="0px"
	 width="40px" height="40px" viewBox="0 0 40 40" style="enable-background:new 0 0 40 40;" xml:space="preserve">
<style type="text/css">
	.st0{fill:#2E9AD0;}
	.st1{fill:url(#SVGID_1_);}
	.st2{fill:#FFFFFF;}
</style>
<path class="st0" d="M25,40H15C6.8,40,0,33.3,0,25V15C0,6.8,6.8,0,15,0h10c8.3,0,15,6.8,15,15v10C40,33.3,33.3,40,25,40z"/>
<linearGradient id="SVGID_1_" gradientUnits="userSpaceOnUse" x1="9.0907" y1="40.8954" x2="30.9093" y2="3.1046" gradientTransform="matrix(1 0 0 -1 0 42)">
	<stop  offset="0" style="stop-color:#FFFFFF;stop-opacity:0.5"/>
	<stop  offset="1" style="stop-color:#FFFFFF;stop-opacity:0"/>
</linearGradient>
<path class="st1" d="M25,40H15C6.8,40,0,33.3,0,25V15C0,6.8,6.8,0,15,0h10c8.3,0,15,6.8,15,15v10C40,33.3,33.3,40,25,40z"/>
<g id="Lines">
	<path class="st2" d="M23.5,31.6H16l-6.1-4.5L7.5,20l2.4-7.3L16,8.3h7.6l6.1,4.5l2.4,7.3l-2.4,7.3l-0.1,0.1L23.5,31.6L23.5,31.6z
		 M16.1,31.1h7.3l5.9-4.3l2.2-6.9l-2.2-6.9l-5.9-4.4h-7.3L10.3,13l-2.1,7l2.3,6.9L16.1,31.1L16.1,31.1z"/>
	<path class="st2" d="M32.9,30.5l-3.5-3.1l-3.5-1.3l-6.1,0.8l-6.1-0.8l-3.5,1.3L10,26.8l3.5-1.4h0.1l6.1,0.9l6.3-0.9l0.1,0.1
		l3.6,1.4l3.5,3.3L32.9,30.5z"/>
	<path class="st2" d="M23.4,31.9l-3.6-5l-3.8,5l-2.8-6.1l0.5-0.3l2.4,5.4l3.6-4.9l3.5,4.9l2.4-5.4l3.3-6.5l0.8,8h-0.5l-0.6-6.1
		l-2.3,4.9L23.4,31.9z"/>
	<path class="st2" d="M7.9,19.8h23.9v0.5H7.9V19.8z"/>
	<path class="st2" d="M29,20.9L26,15l-2.6,5.6l-3.6-6.5L16,20.6L13.5,15l-3,5.9L9.8,13l0.5-0.1l0.5,6.1l2.6-5.2l2.6,5.6l3.8-6.4
		l3.5,6.4l2.6-5.6l2.6,5.1l0.4-6.1h0.5L29,20.9z"/>
	<path class="st2" d="M25.8,14.5l-2.4-5.4l-3.5,5l-3.6-5l-2.5,5.4l-0.4-0.2L16,8l3.8,5.1L23.4,8l2.9,6.3L25.8,14.5z M29.3,27
		l-0.6-6.1L26,26.3l-2.6-5.6l-3.5,6.5l-3.8-6.5l-2.6,5.6l-2.6-5.4L10.4,27H9.8l0.8-8l3,6l2.6-5.6l3.8,6.5l3.6-6.5l2.6,5.6l3-6.1
		l0.8,8L29.3,27z"/>
	<path class="st2" d="M26,14.8l-6.3-0.9l-6.3,0.9L10,13.1l0.1-0.5l3.5,1.5l6.1-0.8l6.3,0.8l3.4-1.5l0.3,0.5L26,14.8z"/>
</g>
<g id="Circles">
	<circle class="st2" cx="16.1" cy="31.4" r="1"/>
	<circle class="st2" cx="23.3" cy="31.4" r="1"/>
	<circle class="st2" cx="16.1" cy="8.6" r="1"/>
	<circle class="st2" cx="23.3" cy="8.6" r="1"/>
	<circle class="st2" cx="29.3" cy="12.9" r="1"/>
	<circle class="st2" cx="10" cy="12.9" r="1"/>
	<circle class="st2" cx="10" cy="27.1" r="1"/>
	<circle class="st2" cx="7.9" cy="20" r="1"/>
	<circle class="st2" cx="31.8" cy="20" r="1"/>
	<circle class="st2" cx="28.8" cy="20" r="1"/>
	<circle class="st2" cx="10.6" cy="20" r="1"/>
	<circle class="st2" cx="16.1" cy="20" r="1"/>
	<circle class="st2" cx="23.3" cy="20" r="1"/>
	<ellipse class="st2" cx="19.8" cy="13.6" rx="1" ry="1"/>
	<circle class="st2" cx="13.5" cy="14.5" r="1"/>
	<circle class="st2" cx="26" cy="14.5" r="1"/>
	<circle class="st2" cx="19.8" cy="26.5" r="1"/>
	<circle class="st2" cx="13.5" cy="25.6" r="1"/>
	<circle class="st2" cx="26" cy="25.6" r="1"/>
	<circle class="st2" cx="33" cy="30.3" r="1.4"/>
</g>
</svg>
