<?xml version="1.0" encoding="utf-8"?>
<!-- Generator: Adobe Illustrator 24.0.1, SVG Export Plug-In . SVG Version: 6.00 Build 0)  -->
<svg version="1.1" id="Layer_1" xmlns="http://www.w3.org/2000/svg" xmlns:xlink="http://www.w3.org/1999/xlink" x="0px" y="0px"
	 width="40px" height="40px" viewBox="0 0 40 40" style="enable-background:new 0 0 40 40;" xml:space="preserve">
<style type="text/css">
	.st0{fill:#A1A3AA;}
</style>
<path id="qusd" class="st0" d="M40,15.7h-2.4C35.2,6,25.3,0,15.6,2.4C9.1,4,3.9,9.1,2.3,15.7H0v3.6h1.9c0,0.3,0,0.5,0,0.7
	s0,0.5,0,0.7H0v3.6h2.4c2,8.1,9.3,13.9,17.6,13.9h18.1c0.7-2.4,1.2-4.8,1.9-7.3h-5.5c1.5-2,2.5-4.1,3.1-6.5H40v-3.6h-1.9
	c0-0.3,0-0.5,0-0.7c0-0.1,0-0.5,0-0.7H40V15.7z M20,31.1c-6,0-10.9-4.9-10.9-10.9S14,9.2,20,9.2s10.9,4.9,10.9,10.9S26,31.1,20,31.1
	z"/>
</svg>
