<?xml version="1.0" encoding="utf-8"?>
<!-- Generator: Adobe Illustrator 24.0.1, SVG Export Plug-In . SVG Version: 6.00 Build 0)  -->
<svg version="1.1" id="Layer_1" xmlns="http://www.w3.org/2000/svg" xmlns:xlink="http://www.w3.org/1999/xlink" x="0px" y="0px"
	 width="40px" height="40px" viewBox="0 0 40 40" style="enable-background:new 0 0 40 40;" xml:space="preserve">
<style type="text/css">
	.st0{fill:#FF3722;}
	.st1{fill:url(#SVGID_1_);}
	.st2{fill:#FFFFFF;}
</style>
<path class="st0" d="M25,40H15C6.8,40,0,33.3,0,25V15C0,6.8,6.8,0,15,0h10c8.3,0,15,6.8,15,15v10C40,33.3,33.3,40,25,40z"/>
<linearGradient id="SVGID_1_" gradientUnits="userSpaceOnUse" x1="9.0995" y1="259.1232" x2="30.9181" y2="296.9141" gradientTransform="matrix(1 0 0 1 0 -258)">
	<stop  offset="0" style="stop-color:#FFFFFF;stop-opacity:0.35"/>
	<stop  offset="1" style="stop-color:#FFFFFF;stop-opacity:0"/>
</linearGradient>
<path class="st1" d="M25,40H15C6.8,40,0,33.3,0,25V15C0,6.8,6.8,0,15,0h10c8.3,0,15,6.8,15,15v10C40,33.3,33.3,40,25,40z"/>
<path id="qusd" class="st2" d="M35,16.7h-1.8c-1.8-7.3-9.2-11.8-16.5-10c-4.9,1.2-8.8,5-10,10H5v2.7h1.4c0,0.2,0,0.4,0,0.5
	s0,0.4,0,0.5H5v2.7h1.8c1.5,6.1,7,10.4,13.2,10.4h13.6c0.5-1.8,0.9-3.6,1.4-5.5h-4.1c1.1-1.5,1.9-3.1,2.3-4.9H35v-2.7h-1.4
	c0-0.2,0-0.4,0-0.5s0-0.4,0-0.5H35V16.7z M20,28.2c-4.5,0-8.2-3.7-8.2-8.2s3.7-8.2,8.2-8.2s8.2,3.7,8.2,8.2S24.5,28.2,20,28.2z"/>
</svg>
