<?xml version="1.0" encoding="utf-8"?>
<!-- Generator: Adobe Illustrator 24.0.1, SVG Export Plug-In . SVG Version: 6.00 Build 0)  -->
<svg version="1.1" id="Layer_1" xmlns="http://www.w3.org/2000/svg" xmlns:xlink="http://www.w3.org/1999/xlink" x="0px" y="0px"
	 width="40px" height="40px" viewBox="0 0 40 40" style="enable-background:new 0 0 40 40;" xml:space="preserve">
<style type="text/css">
	.st0{fill:#A1A3AA;}
</style>
<path class="st0" d="M14.3,35.7l5.5-5.5l5.5,5.5l-3.5,3.5c-1.2,1.2-2.7,1.2-3.7,0l0,0L14.3,35.7z M28,17.3l-5.5-5.5L28,6.3l5.5,5.5
	L28,17.3z M26.7,33.8l-5.5-5.5L35.6,14l3.5,3.5c1.2,1.2,1.2,2.9,0,3.7L26.7,33.8z M12,33.4l-5.5-5.5l14.2-14.4l5.5,5.5L12,33.4z
	 M4.4,25.8l-3.5-3.5c-1.2-1.2-1.2-2.9,0-3.7l3.5-3.5l5.5,5.5L4.4,25.8z M25.8,4.3L11.4,18.7L6,13.2L18.3,0.9c1.2-1.2,2.7-1.2,3.7,0
	l0,0L25.8,4.3z"/>
</svg>
