<?xml version="1.0" encoding="utf-8"?>
<!-- Generator: Adobe Illustrator 23.0.0, SVG Export Plug-In . SVG Version: 6.00 Build 0)  -->
<svg version="1.1" id="Layer_1" xmlns="http://www.w3.org/2000/svg" xmlns:xlink="http://www.w3.org/1999/xlink" x="0px" y="0px"
	 width="32px" height="32px" viewBox="0 0 32 32" style="enable-background:new 0 0 32 32;" xml:space="preserve">
<style type="text/css">
	.st0{fill:#242424;}
	.st1{fill:url(#SVGID_1_);}
	.st2{fill:#FFFFFF;}
</style>
<path class="st0" d="M20,32h-8C5.4,32,0,26.6,0,20v-8C0,5.4,5.4,0,12,0h8c6.6,0,12,5.4,12,12v8C32,26.6,26.6,32,20,32z"/>
<linearGradient id="SVGID_1_" gradientUnits="userSpaceOnUse" x1="7.2681" y1="0.8759" x2="24.7319" y2="31.1241">
	<stop  offset="0" style="stop-color:#FFFFFF;stop-opacity:0.5"/>
	<stop  offset="1" style="stop-color:#FFFFFF;stop-opacity:0"/>
</linearGradient>
<path class="st1" d="M20,32h-8C5.4,32,0,26.6,0,20v-8C0,5.4,5.4,0,12,0h8c6.6,0,12,5.4,12,12v8C32,26.6,26.6,32,20,32z"/>
<path class="st2" d="M12.8,24.7l3-3l3,3l-1.9,1.9c-0.6,0.6-1.5,0.6-2.1,0c0,0,0,0,0,0L12.8,24.7z M20.4,14.5l-3-3l3-3l3,3L20.4,14.5
	z M19.7,23.7l-3-3l8-8l1.9,1.9c0.6,0.6,0.6,1.6,0,2.1L19.7,23.7z M11.5,23.4l-3-3l7.9-8l3,3L11.5,23.4z M7.3,19.2l-1.9-1.9
	c-0.6-0.6-0.6-1.6,0-2.1l1.9-1.9l3,3L7.3,19.2z M19.2,7.3l-8,8l-3-3l6.9-6.9c0.6-0.6,1.5-0.6,2.1,0c0,0,0,0,0,0L19.2,7.3z"/>
</svg>
