<?xml version="1.0" encoding="utf-8"?>
<!-- Generator: Adobe Illustrator 23.0.0, SVG Export Plug-In . SVG Version: 6.00 Build 0)  -->
<svg version="1.1" id="Layer_1" xmlns="http://www.w3.org/2000/svg" xmlns:xlink="http://www.w3.org/1999/xlink" x="0px" y="0px"
	 width="32px" height="32px" viewBox="0 0 32 32" style="enable-background:new 0 0 32 32;" xml:space="preserve">
<style type="text/css">
	.st0{fill:#FF9900;}
	.st1{fill:url(#SVGID_1_);}
	.st2{fill:#FFFFFF;}
</style>
<path class="st0" d="M20,32h-8C5.4,32,0,26.6,0,20v-8C0,5.4,5.4,0,12,0h8c6.6,0,12,5.4,12,12v8C32,26.6,26.6,32,20,32z"/>
<linearGradient id="SVGID_1_" gradientUnits="userSpaceOnUse" x1="7.2726" y1="33.1163" x2="24.7274" y2="2.8837" gradientTransform="matrix(1 0 0 -1 0 34)">
	<stop  offset="0" style="stop-color:#FFFFFF;stop-opacity:0.45"/>
	<stop  offset="1" style="stop-color:#FFFFFF;stop-opacity:0"/>
</linearGradient>
<path class="st1" d="M20,32h-8C5.4,32,0,26.6,0,20v-8C0,5.4,5.4,0,12,0h8c6.6,0,12,5.4,12,12v8C32,26.6,26.6,32,20,32z"/>
<g id="layer101">
	<path class="st2" d="M12.8,26.9c-0.2-0.3-0.4-0.7-0.5-1c-0.2-0.6-0.3-1.9-0.2-2.5c0.1-0.9,0.6-2.1,1.3-3.2l0.3-0.4l0.1,0.2
		c0.2,0.3,0.2,0.4,0,1.2c-0.4,1.4-0.5,2.2-0.5,4.3c0,1.1-0.1,1.9-0.1,1.9C13.1,27.5,13,27.2,12.8,26.9z"/>
	<path class="st2" d="M18.8,25.7c0-2.2-0.2-3.5-0.7-4.9L18,20.4l0.2-0.3c0.1-0.2,0.2-0.3,0.2-0.3c0.1,0,1.2,2.1,1.4,2.8
		c0.2,0.7,0.3,1.9,0.1,2.7c-0.1,0.7-0.5,1.4-0.8,1.8l-0.2,0.3L18.8,25.7z"/>
	<path class="st2" d="M11.1,26.3c-0.1-0.1-0.3-0.6-0.4-0.9c-0.2-0.6-0.2-0.8-0.3-1.7c-0.1-2.4,0.5-4,2-5.7c0.2-0.2,0.3-0.4,0.4-0.4
		s0.1,0.1,0.1,0.2c0,0.4,0.2,0.7,0.5,0.9c0.2,0.1,0.3,0.3,0.3,0.3s-0.2,0.4-0.5,0.9c-1.5,2.3-2,4.2-1.8,6.1c0,0.3,0,0.5,0,0.5
		C11.3,26.5,11.2,26.5,11.1,26.3z"/>
	<path class="st2" d="M20.8,25.8c0.1-0.9,0-1.6-0.2-2.6c-0.3-1.1-0.6-1.8-1.7-3.5c-0.2-0.4-0.4-0.7-0.4-0.7c0.5-0.3,0.7-0.7,0.7-1.1
		c0-0.2,0-0.3,0.1-0.3s0.2,0.1,0.3,0.3c0.9,1,1.5,2.1,1.8,3.4c0.2,0.8,0.2,0.9,0.2,2c0,1.2-0.1,1.9-0.4,2.6
		c-0.1,0.3-0.4,0.8-0.5,0.8C20.7,26.6,20.7,26.2,20.8,25.8z"/>
	<path class="st2" d="M14.8,26.1c-0.4-0.4-0.7-0.9-0.8-1.7c-0.1-0.5-0.1-0.7,0-1.6c0.1-1,0.3-1.9,0.5-2.1c0,0,0.1,0.6,0.1,1.5
		c0,1.6,0.2,2.7,0.5,3.6c0.1,0.3,0.1,0.6,0.1,0.6S15,26.3,14.8,26.1z"/>
	<path class="st2" d="M16.8,26.3c0.5-1.7,0.6-2.7,0.6-4.3c0-1.6,0.1-1.6,0.4-0.2c0.3,1.5,0.3,2.5,0,3.4c-0.1,0.4-0.5,1-0.9,1.2
		l-0.2,0.1L16.8,26.3z"/>
	<path class="st2" d="M15.8,24.8c-0.3-0.7-0.6-3.7-0.4-3.9c0.2-0.1,1.1-0.1,1.2,0s-0.1,2.7-0.2,3.3c-0.1,0.4-0.3,0.9-0.4,0.9
		C16,25.1,15.9,24.9,15.8,24.8z"/>
	<path class="st2" d="M8.9,23.9c-0.5-0.9-0.8-1.7-0.9-2.2c-0.3-1.5-0.3-2.4,0.2-3.5c0.4-0.8,0.6-1.1,2-2.3l1.3-1.1l0.2,0.4
		c0.1,0.2,0.2,0.4,0.2,0.5c0,0.1-0.3,0.4-0.7,0.7c-1.1,1-1.7,1.9-2.1,3c-0.2,0.4-0.3,1.4-0.3,1.9c0,0.3,0.1,0.1,0.1-0.4
		c0.2-1,0.7-2.2,1.3-3c0.6-0.8,1.6-1.8,1.9-1.8c0.1,0,0.2,0.2,0.3,0.4c0.1,0.2,0.2,0.5,0.2,0.5c0,0-0.3,0.4-0.6,0.7
		c-1.7,1.9-2.4,3.6-2.5,6c0,0.5-0.1,0.9-0.1,0.9S9.1,24.3,8.9,23.9z"/>
	<path class="st2" d="M22.6,24.3c0-1-0.3-2.6-0.7-3.6c-0.3-0.8-0.8-1.5-1.7-2.6c-0.5-0.5-0.8-1-0.8-1.1c0-0.2,0.3-0.8,0.5-0.9
		c0.2-0.1,0.4,0.1,1,0.6c1.2,1.1,2,2.5,2.3,4.1l0.1,0.5l0-0.6c0-0.8-0.2-1.4-0.6-2.1c-0.4-0.8-0.8-1.3-1.7-2.2l-0.7-0.7l0.2-0.4
		c0.2-0.4,0.2-0.4,0.3-0.4c0.7,0.6,2.5,2.2,2.7,2.4c0.3,0.4,0.5,0.9,0.7,1.6c0.3,1,0.2,2.1-0.2,3.4c-0.2,0.5-0.9,2-1.1,2.3l-0.1,0.2
		V24.3z"/>
	<path class="st2" d="M6.4,20c0-0.1-0.1-0.6-0.2-1c-0.3-1.9,0.1-3.3,1.2-4.4c0.3-0.3,0.8-0.7,1.1-0.9c1-0.6,2.5-1.4,2.6-1.3
		c0,0,0.1,0.1,0.1,0.2s0.1,0.3,0.2,0.5c0.1,0.2,0.2,0.4,0.2,0.5c0,0.3-0.3,0.7-1.3,1.5c-0.6,0.4-1.2,1-1.5,1.2
		c-1,0.9-1.8,2.1-2.1,3.1C6.5,20.3,6.5,20.3,6.4,20z"/>
	<path class="st2" d="M25.5,20.2c0,0-0.1-0.3-0.2-0.6c-0.4-1.5-1.5-2.8-3.6-4.4c-1.1-0.8-1.2-1-1.4-1.4l-0.1-0.3l0.2-0.4
		c0.1-0.2,0.3-0.4,0.3-0.6c0-0.1,0.1-0.2,0.1-0.2c0.3,0,3.2,1.7,3.6,2.2c0.9,0.9,1.3,1.9,1.3,3.4C25.9,18.9,25.7,20.4,25.5,20.2z"/>
	<path class="st2" d="M14.1,19.6C14,19.5,14,19.3,14,19.2c0-0.2,0-0.2,0.5-0.2c0.5,0,0.7,0,1.1-0.4c0.2-0.2,0.2-0.2,0.2-0.6v-0.4
		l-0.7-0.3c-0.7-0.3-0.9-0.5-1-0.8c-0.1-0.2,0-0.2,0.2-0.1c0.1,0.1,0.2,0.1,0.4,0.1s0.4,0,0.5,0.1c0.3,0.1,0.9,0.1,1.3,0
		c0.1-0.1,0.4-0.1,0.5-0.1c0.1,0,0.3,0,0.4-0.1c0.2-0.1,0.2-0.1,0.2,0.1c0,0.3-0.2,0.4-0.9,0.8l-0.7,0.3V18v0.4l0.3,0.3
		c0.4,0.3,0.7,0.4,1.1,0.3c0.4-0.1,0.5,0,0.4,0.4c-0.2,0.4-0.3,0.5-0.7,0.1c-0.4-0.3-0.7-0.4-1.4-0.4c-0.5,0-0.9,0.1-1.3,0.5
		C14.3,19.8,14.2,19.8,14.1,19.6z"/>
	<path class="st2" d="M13.7,17.8c-0.3-0.1-0.9-0.9-0.8-1c0,0,0.2,0.1,0.3,0.3c0.4,0.4,0.6,0.5,1.3,0.5c0.4,0,0.6,0,0.8,0.1
		c0.1,0.1,0.2,0.1,0.2,0.2C15.5,17.8,13.8,17.9,13.7,17.8z"/>
	<path class="st2" d="M16.6,17.8c0-0.2,0.6-0.3,1-0.3c0.5,0.1,0.8,0,1.1-0.4c0.2-0.2,0.3-0.3,0.3-0.3c0.1,0.1-0.3,0.7-0.5,0.9
		c-0.2,0.1-0.3,0.2-1.1,0.1C16.9,17.8,16.6,17.8,16.6,17.8z"/>
	<path class="st2" d="M13.8,17.3c-0.3-0.2-0.7-0.6-0.6-0.6c0,0,0.2,0.1,0.3,0.2c0.2,0.1,0.4,0.3,0.6,0.3c0.2,0,0.3,0.1,0.3,0.1
		C14.5,17.5,14,17.4,13.8,17.3z"/>
	<path class="st2" d="M17.6,17.4c0,0,0.1-0.1,0.3-0.2c0.2-0.1,0.5-0.2,0.7-0.4c0.3-0.3,0.4-0.2,0.2,0.1
		C18.5,17.3,17.7,17.6,17.6,17.4z"/>
	<path class="st2" d="M13.9,15.7c0.2-0.5,0.4-1.3,0.4-1.6c0-0.3,0-0.3-0.1-0.3c-0.1,0-0.1,0-0.1-0.2c0-0.2,0-0.2-0.4-0.3
		c-0.3-0.1-0.5-0.1-0.6-0.3c-0.1-0.2-0.2-0.2-0.4-0.2c-0.4,0-0.3-0.2,0.2-0.5c0.4-0.2,0.5-0.3,0.6-0.2c0.2,0.1,0.2,0.1,0,0.2
		c-0.1,0.1-0.1,0.1,0.1,0c0.1-0.1,0.2-0.1,0.2-0.1c0,0,0.2,0.1,0.3,0.1c0.6,0.2,0.7,1.1,0.1,2.6c-0.2,0.4-0.3,0.7-0.3,0.7
		C13.9,15.8,13.9,15.7,13.9,15.7z"/>
	<path class="st2" d="M5.6,15.6c0-0.2,0.4-1.5,0.5-1.8c0.4-0.9,1.2-1.8,2-2.3c0.7-0.4,1.2-0.7,2.7-1.2c1.6-0.5,2.8-1.1,3.3-1.5
		C14.9,8.2,15.6,7,15.8,6C16,5.4,16,5.3,16.1,5.6c0.2,1.1,0.4,1.4,0.9,2.2c0.9,1.2,1.6,1.6,4.5,2.6c0.7,0.2,1.4,0.5,1.6,0.6
		c1.2,0.6,2.2,1.6,2.7,2.7c0.2,0.4,0.5,1.7,0.5,1.9c0,0.1-0.2-0.1-0.4-0.4c-0.7-0.9-1.7-1.7-2.8-2.3c-0.5-0.3-2.6-1.2-2.7-1.2
		c0,0-0.1,0-0.1,0.1c0,0.1-0.2,0.1-0.4,0c-0.1-0.1-0.1-0.1,0.1-0.3l0.2-0.2h-0.4c-0.4,0-0.4,0-0.4-0.1c0-0.1,0.1-0.2,0.1-0.3
		c0-0.1,0-0.1-0.2-0.1c-0.4,0-0.5,0-0.4-0.4l0-0.3l-0.2,0.1c-0.3,0.1-0.4,0.1-0.7-0.3c-0.1-0.2-0.3-0.4-0.3-0.4c0,0-0.1,0.1-0.3,0.2
		c-0.1,0.1-0.2,0.2-0.3,0.1c0,0-0.1-0.2-0.2-0.3c-0.1-0.2-0.1-0.3-0.2-0.3c0,0-0.1,0.1-0.1,0.2c-0.1,0.2-0.7,0.8-0.9,0.8
		c-0.1,0-0.3-0.2-0.6-0.5L15,9.2l-0.2,0.3c-0.1,0.2-0.2,0.3-0.2,0.3c0,0-0.1-0.1-0.3-0.2c-0.1-0.1-0.3-0.2-0.3-0.1
		c0,0-0.2,0.2-0.3,0.4c-0.2,0.4-0.3,0.4-0.7,0.3c-0.1,0-0.1,0-0.1,0.2c0.1,0.3,0,0.4-0.4,0.4h-0.3l0.1,0.2c0.1,0.3,0.1,0.3-0.4,0.3
		c-0.2,0-0.3,0-0.3,0s0.1,0.1,0.2,0.2c0.2,0.2,0.2,0.3,0.1,0.4c-0.2,0.1-0.4,0-0.4-0.1c0-0.2,0-0.2-2,0.7c-1.7,0.7-2.9,1.7-3.6,2.8
		C5.7,15.7,5.6,15.8,5.6,15.6z"/>
	<path class="st2" d="M18,15.6c0,0-0.2-0.4-0.3-0.8c-0.2-0.5-0.3-0.8-0.3-1.3c0-0.8,0-1,0.5-1.2c0.2-0.1,0.5-0.2,0.6-0.3
		c0.2-0.1,0.2-0.1,0.7,0.2c0.5,0.3,0.5,0.3,0.4,0.4c-0.1,0.1-0.2,0.1-0.3,0.1c-0.1,0-0.2,0-0.3,0.2c-0.1,0.2-0.5,0.4-0.9,0.4
		c-0.2,0-0.2,0-0.2,0.2s0,0.2-0.2,0.2c-0.1,0-0.1,0-0.1,0.4c0,0.2,0.1,0.6,0.2,0.9C18.1,15.5,18.1,15.8,18,15.6z"/>
	<path class="st2" d="M6.8,11.3C6.7,11.3,7,10.5,7.2,10c0.3-0.6,0.7-1,1.2-1.3c0.6-0.3,1.1-0.4,2.9-0.4c1.7,0,2.1-0.1,2.7-0.4
		c0.2-0.1,0.4-0.2,0.4-0.2c0,0-0.2,0.3-0.5,0.5c-0.7,0.7-1.3,1-3.1,1.4c-1.9,0.5-2.7,0.7-3.6,1.4C7,11.3,6.8,11.3,6.8,11.3z"/>
	<path class="st2" d="M24.7,11c-0.7-0.5-1.6-0.8-3.3-1.2c-1.7-0.4-2.1-0.6-2.7-1c-0.4-0.3-1-0.9-1-1c0-0.1,0.1-0.1,0.2,0
		c0.1,0.1,0.6,0.4,1,0.5c0.2,0.1,0.9,0.1,2,0.1c2.2,0,2.6,0.1,3.3,0.7c0.5,0.5,0.9,1.2,1.1,2C25.3,11.4,25.2,11.4,24.7,11z"/>
	<path class="st2" d="M8.6,8.3c0-0.1,1.3-1.3,1.6-1.5c0.2-0.1,0.4-0.2,0.8-0.2c0.4,0,0.6,0,1.2,0.3c0.8,0.4,1.3,0.5,1.6,0.5
		c0.3,0,0.2,0.2-0.2,0.3c-0.6,0.2-1.4,0.2-2.1,0c-0.7-0.2-1.1-0.1-2.1,0.2C8.7,8.4,8.6,8.4,8.6,8.3z"/>
	<path class="st2" d="M22.6,8.1c-0.9-0.3-1.4-0.3-2.3-0.2C19.6,8.1,19,8,18.4,7.8c-0.2-0.1-0.4-0.2-0.3-0.2s0.3-0.1,0.6-0.2
		C19,7.4,19.5,7.2,19.9,7c0.6-0.3,0.7-0.3,1.1-0.3c0.6,0,1.1,0.2,1.8,0.9c0.3,0.3,0.6,0.6,0.6,0.6S23,8.2,22.6,8.1z"/>
	<path class="st2" d="M14.5,7.2c-0.1-0.5-0.4-1.1-1-1.8c-0.9-1-0.8-0.9-0.5-0.9c0.7,0.1,1.5,0.7,1.7,1.3c0.2,0.4,0.1,1.7-0.1,1.7
		C14.5,7.5,14.5,7.4,14.5,7.2z"/>
	<path class="st2" d="M17.4,7.4c-0.1-0.3-0.1-1,0-1.4c0.2-0.7,1-1.3,1.8-1.4l0.3,0L19,4.9c-0.8,0.9-1.1,1.2-1.4,2
		C17.5,7.5,17.4,7.5,17.4,7.4z"/>
	<path class="st2" d="M13.1,7c-0.8-0.4-1.3-0.6-2.1-0.6c-0.3,0-0.6,0-0.6,0c0-0.1,0.6-0.4,0.9-0.6c0.5-0.2,1.2-0.1,1.7,0.4
		c0.2,0.2,0.8,0.9,0.8,1.1C13.7,7.4,13.7,7.4,13.1,7z"/>
	<path class="st2" d="M18.3,7.3c0-0.1,0.6-0.9,0.9-1.1c0.2-0.2,0.5-0.3,0.7-0.4c0.3-0.1,0.4-0.1,0.7,0c0.4,0.1,1,0.5,1,0.6
		c0,0-0.3,0.1-0.6,0.1c-0.7,0-1.4,0.2-2.2,0.7C18.3,7.4,18.3,7.4,18.3,7.3z"/>
</g>
</svg>
