<?xml version="1.0" encoding="utf-8"?>
<!-- Generator: Adobe Illustrator 24.0.1, SVG Export Plug-In . SVG Version: 6.00 Build 0)  -->
<svg version="1.1" id="Layer_1" xmlns="http://www.w3.org/2000/svg" xmlns:xlink="http://www.w3.org/1999/xlink" x="0px" y="0px"
	 width="40px" height="40px" viewBox="0 0 40 40" style="enable-background:new 0 0 40 40;" xml:space="preserve">
<style type="text/css">
	.st0{fill:#A1A3AA;}
</style>
<g id="layer101">
	<path class="st0" d="M14.6,39c-0.4-0.6-0.7-1.3-0.8-1.8c-0.4-1.1-0.6-3.3-0.4-4.3c0.1-1.5,1.1-3.6,2.2-5.6l0.6-0.7l0.1,0.4
		c0.4,0.6,0.4,0.7,0,2.1c-0.7,2.5-0.8,3.9-0.8,7.5c0,1.9-0.1,3.3-0.1,3.3C15.1,40.1,15,39.6,14.6,39z"/>
	<path class="st0" d="M25,36.9c0-3.9-0.4-6.1-1.3-8.5l-0.1-0.7l0.4-0.6c0.1-0.4,0.4-0.6,0.4-0.6c0.1,0,2.1,3.6,2.5,4.9
		c0.4,1.3,0.6,3.3,0.1,4.7c-0.1,1.3-0.8,2.4-1.4,3.1l-0.4,0.6L25,36.9z"/>
	<path class="st0" d="M11.6,38c-0.1-0.1-0.6-1.1-0.7-1.5c-0.4-1.1-0.4-1.4-0.6-2.9c-0.1-4.2,0.8-7,3.5-9.9c0.3-0.4,0.6-0.7,0.7-0.7
		s0.1,0.1,0.1,0.4c0,0.7,0.4,1.3,0.8,1.5c0.4,0.1,0.6,0.6,0.6,0.6s-0.3,0.7-0.8,1.5c-2.6,4-3.5,7.2-3.1,10.6c0,0.6,0,0.8,0,0.8
		C11.9,38.3,11.8,38.3,11.6,38z"/>
	<path class="st0" d="M28.5,37.2c0.1-1.5,0-2.8-0.4-4.6c-0.6-1.9-1.1-3.1-2.9-6.1c-0.4-0.7-0.7-1.3-0.7-1.3c0.8-0.6,1.3-1.3,1.3-1.9
		c0-0.4,0-0.6,0.1-0.6s0.4,0.1,0.6,0.6c1.5,1.8,2.6,3.6,3.1,6c0.4,1.4,0.4,1.5,0.4,3.5c0,2.1-0.1,3.3-0.7,4.6
		c-0.1,0.6-0.7,1.4-0.8,1.4C28.4,38.6,28.4,37.9,28.5,37.2z"/>
	<path class="st0" d="M18.1,37.6c-0.7-0.7-1.3-1.5-1.4-2.9c-0.1-0.8-0.1-1.3,0-2.8c0.1-1.8,0.6-3.3,0.8-3.6c0,0,0.1,1.1,0.1,2.6
		c0,2.8,0.4,4.7,0.8,6.3c0.3,0.4,0.3,1,0.3,1S18.5,38,18.1,37.6z"/>
	<path class="st0" d="M21.5,38c0.8-2.9,1.1-4.7,1.1-7.5s0.1-2.8,0.7-0.4c0.6,2.6,0.6,4.3,0,5.8c-0.1,0.7-0.8,1.8-1.5,2.1l-0.4,0.1
		L21.5,38z"/>
	<path class="st0" d="M19.9,35.4c-0.6-1.3-1.1-6.4-0.7-6.8c0.4-0.1,1.9-0.1,2.1,0s-0.1,4.7-0.4,5.7c-0.1,0.7-0.6,1.5-0.7,1.5
		C20.1,35.9,20,35.5,19.9,35.4z"/>
	<path class="st0" d="M7.7,33.9c-0.8-1.5-1.4-2.9-1.5-3.9c-0.6-2.6-0.6-4.2,0.4-6.1c0.7-1.4,1.1-1.9,3.5-4l2.2-1.9l0.4,0.7
		c0.1,0.3,0.4,0.7,0.4,0.8s-0.6,0.7-1.3,1.3C10,22.4,9,24,8.3,25.9c-0.6,0.7-0.7,2.5-0.7,3.3c0,0.6,0.1,0.1,0.1-0.7
		C8,26.8,9,24.7,10,23.3c1.1-1.4,2.8-3.1,3.3-3.1c0.1,0,0.4,0.4,0.6,0.7c0.1,0.4,0.3,0.8,0.3,0.8S13.6,22.4,13,23
		c-2.9,3.3-4.2,6.3-4.3,10.4c0,0.8-0.1,1.5-0.1,1.5S8.2,34.5,7.7,33.9z"/>
	<path class="st0" d="M31.7,34.5c0-1.8-0.6-4.6-1.3-6.3c-0.6-1.4-1.4-2.6-2.9-4.6c-0.8-0.8-1.4-1.8-1.4-1.9c0-0.4,0.6-1.4,0.8-1.5
		c0.4-0.1,0.7,0.1,1.8,1.1c2.1,1.9,3.5,4.3,4,7.1l0.1,0.8v-1.1c0-1.4-0.4-2.4-1.1-3.6c-0.7-1.4-1.4-2.2-2.9-3.9l-1.3-1.3l0.4-0.7
		c0.4-0.7,0.4-0.7,0.6-0.7c1.3,1.1,4.3,3.9,4.7,4.2c0.6,0.7,0.8,1.5,1.3,2.8c0.6,1.8,0.4,3.6-0.4,6c-0.4,0.8-1.5,3.5-1.9,4L32,35.4
		v-0.8H31.7z"/>
	<path class="st0" d="M3.4,27c0-0.1-0.1-1.1-0.3-1.8c-0.6-3.3,0.1-5.7,2.1-7.7C5.8,17,6.6,16.3,7.2,16c1.8-1.1,4.3-2.4,4.5-2.2
		c0,0,0.1,0.1,0.1,0.3c0,0.1,0.1,0.6,0.4,0.8c0.1,0.4,0.3,0.7,0.3,0.8c0,0.6-0.6,1.3-2.2,2.6c-1.1,0.7-2.1,1.8-2.6,2.1
		C5.8,22,4.4,24.1,4,25.9C3.6,27.6,3.6,27.6,3.4,27z"/>
	<path class="st0" d="M36.7,27.4c0,0-0.1-0.6-0.4-1.1c-0.7-2.6-2.6-4.9-6.3-7.7c-1.9-1.4-2.1-1.8-2.4-2.4l-0.1-0.6l0.4-0.7
		c0.1-0.4,0.6-0.7,0.6-1.1c0-0.1,0.1-0.3,0.1-0.3c0.6,0,5.6,2.9,6.3,3.9c1.5,1.5,2.2,3.3,2.2,6C37.4,25.1,37,27.7,36.7,27.4z"/>
	<path class="st0" d="M16.8,26.3c-0.1-0.1-0.1-0.6-0.1-0.7c0-0.4,0-0.4,0.8-0.4s1.3,0,1.9-0.7c0.4-0.4,0.4-0.4,0.4-1.1v-0.6
		l-1.3-0.6c-1.3-0.6-1.5-0.8-1.8-1.4c-0.1-0.4,0-0.4,0.4-0.1c0.1,0.1,0.4,0.1,0.7,0.1s0.7,0,0.8,0.1c0.6,0.1,1.5,0.1,2.2,0
		c0.1-0.1,0.7-0.1,0.8-0.1s0.6,0,0.7-0.1c0.4-0.1,0.4-0.1,0.4,0.1c0,0.6-0.4,0.7-1.5,1.4l-1.3,0.6v0.7v0.7l0.6,0.6
		c0.7,0.6,1.3,0.7,1.9,0.6c0.7-0.1,0.8,0,0.7,0.7c-0.4,0.7-0.6,0.8-1.3,0.1c-0.7-0.6-1.3-0.7-2.5-0.7c-0.8,0-1.5,0.1-2.2,0.8
		C17.2,26.8,17.1,26.8,16.8,26.3z"/>
	<path class="st0" d="M16.1,23.3c-0.6-0.1-1.5-1.5-1.4-1.8c0,0,0.4,0.1,0.6,0.6c0.7,0.7,1.1,0.8,2.2,0.8c0.7,0,1.1,0,1.4,0.1
		c0.1,0.1,0.4,0.1,0.4,0.4C19.3,23.3,16.4,23.4,16.1,23.3z"/>
	<path class="st0" d="M21.3,23.3c0-0.4,1.1-0.6,1.8-0.6c0.8,0.1,1.4,0,1.9-0.7c0.4-0.4,0.6-0.6,0.6-0.6c0.1,0.1-0.6,1.3-0.8,1.5
		c-0.4,0.1-0.6,0.4-1.9,0.1C21.7,23.3,21.3,23.3,21.3,23.3z"/>
	<path class="st0" d="M16.4,22.3c-0.6-0.4-1.3-1.1-1.1-1.1c0,0,0.4,0.1,0.6,0.4c0.4,0.1,0.7,0.6,1.1,0.6s0.6,0.1,0.6,0.1
		C17.5,22.7,16.7,22.6,16.4,22.3z"/>
	<path class="st0" d="M22.9,22.6c0,0,0.1-0.1,0.6-0.4c0.4-0.1,0.8-0.4,1.3-0.7c0.6-0.6,0.7-0.4,0.4,0.1
		C24.5,22.3,23.1,22.9,22.9,22.6z"/>
	<path class="st0" d="M16.5,19.5c0.4-0.8,0.7-2.2,0.7-2.8s0-0.6-0.1-0.6s-0.1,0-0.1-0.4s0-0.4-0.7-0.6c-0.6-0.1-0.8-0.1-1.1-0.6
		c-0.3-0.1-0.4-0.1-0.7-0.1c-0.7,0-0.6-0.4,0.4-0.8c0.7-0.4,0.8-0.6,1.1-0.4c0.4,0.1,0.4,0.1,0,0.4c-0.1,0.1-0.1,0.1,0.1,0
		c0.1-0.1,0.4-0.1,0.4-0.1s0.3,0.1,0.6,0.1c1.1,0.4,1.3,1.9,0.1,4.6c-0.4,0.7-0.6,1.3-0.6,1.3C16.5,19.8,16.5,19.5,16.5,19.5z"/>
	<path class="st0" d="M2,19.4c0-0.4,0.7-2.6,0.8-3.2c0.7-1.5,2.1-3.2,3.5-4c1.3-0.7,2.1-1.3,4.7-2.1c2.8-0.8,4.9-1.9,5.7-2.6
		c1.4-1.1,2.6-3.2,2.9-4.9c0.4-0.8,0.4-1.1,0.6-0.6c0.4,1.9,0.7,2.5,1.5,3.9c1.5,2.1,2.8,2.8,7.8,4.6c1.3,0.3,2.5,0.8,2.8,1.1
		c2.1,1.1,3.9,2.8,4.7,4.7c0.4,0.7,0.8,2.9,0.8,3.3c0,0.1-0.4-0.1-0.7-0.7c-1.3-1.5-2.9-2.9-4.9-4c-0.8-0.6-4.6-2.1-4.7-2.1
		c0,0-0.1,0-0.1,0.1s-0.4,0.1-0.7,0c-0.1-0.1-0.1-0.1,0.1-0.6l0.4-0.4h-0.7C26,12,26,12,26,11.9s0.1-0.4,0.1-0.6
		c0-0.1,0-0.1-0.4-0.1c-0.7,0-0.8,0-0.7-0.7V9.9L24.6,10c-0.6,0.1-0.7,0.1-1.3-0.6c-0.1-0.4-0.6-0.7-0.6-0.7s0.1,0.1-0.1,0.3
		c-0.1,0.1-0.4,0.4-0.6,0.1c0,0-0.1-0.4-0.4-0.6c-0.1-0.4-0.1-0.6-0.4-0.6c0,0-0.1,0.1-0.1,0.4c-0.1,0.3-1.3,1.4-1.5,1.4
		c-0.1,0-0.6-0.4-1.1-0.8l-0.1-0.8l-0.4,0.6c-0.1,0.4-0.4,0.6-0.4,0.6s-0.1-0.1-0.6-0.4c-0.1-0.1-0.6-0.3-0.6-0.1
		c0,0-0.4,0.4-0.6,0.7c-0.4,0.7-0.6,0.7-1.3,0.6c-0.1,0-0.1,0-0.1,0.4c0.1,0.6,0,0.7-0.7,0.7h-0.6l0.1,0.4c0.1,0.6,0.1,0.6-0.7,0.6
		c-0.4,0-0.6,0-0.6,0s0.1,0.1,0.4,0.4c0.4,0.3,0.4,0.6,0.1,0.7c-0.4,0.1-0.7,0-0.7-0.1c0-0.4,0-0.4-3.5,1.3c-2.9,1.3-5,2.9-6.3,4.9
		C2.2,19.5,2,19.8,2,19.4z"/>
	<path class="st0" d="M23.6,19.4c0,0-0.4-0.7-0.6-1.4c-0.4-0.8-0.6-1.4-0.6-2.2c0-1.4,0-1.8,0.8-2.1c0.4-0.1,0.8-0.4,1.1-0.6
		c0.4-0.1,0.4-0.1,1.3,0.4c0.8,0.6,0.8,0.6,0.7,0.7c-0.1,0.1-0.4,0.1-0.6,0.1s-0.4,0-0.6,0.4c-0.1,0.4-0.8,0.7-1.5,0.7
		c-0.4,0-0.4,0-0.4,0.3c0,0.4,0,0.4-0.4,0.4c-0.1,0-0.1,0-0.1,0.7c0,0.4,0.1,1.1,0.4,1.5C23.8,19.2,23.8,19.8,23.6,19.4z"/>
	<path class="st0" d="M4.1,11.9c-0.1,0,0.4-1.4,0.7-2.2c0.6-1.1,1.3-1.8,2.1-2.2c1.1-0.6,1.9-0.7,5-0.7c2.9,0,3.6-0.1,4.7-0.7
		c0.3-0.1,0.7-0.4,0.7-0.4s-0.4,0.6-0.8,0.8c-1.3,1.3-2.2,1.8-5.4,2.4C7.7,9.6,6.4,10,4.8,11.3C4.5,11.9,4.1,11.9,4.1,11.9z"/>
	<path class="st0" d="M35.3,11.4c-1.3-0.8-2.8-1.4-5.7-2.1S26,8.2,24.9,7.5C24.2,7,23.1,6,23.1,5.7s0.1-0.1,0.4,0s1.1,0.7,1.8,0.8
		c0.4,0.1,1.5,0.1,3.5,0.1c3.9,0,4.6,0.1,5.7,1.3c0.8,0.8,1.5,2.1,1.9,3.5C36.3,12.1,36.2,12.1,35.3,11.4z"/>
	<path class="st0" d="M7.3,6.7c0-0.1,2.2-2.2,2.8-2.6c0.4-0.1,0.7-0.4,1.4-0.4s1.1,0,2.1,0.6C15,4.9,15.8,5,16.4,5s0.4,0.3-0.4,0.6
		c-1.1,0.4-2.5,0.4-3.6,0C11.1,5.2,10.4,5.4,8.7,6C7.5,6.8,7.3,6.8,7.3,6.7z"/>
	<path class="st0" d="M31.7,6.3c-1.5-0.6-2.5-0.6-4-0.3c-1.3,0.3-2.2,0.1-3.3-0.1c-0.4-0.1-0.7-0.4-0.6-0.4s0.6-0.1,1.1-0.3
		c0.6,0,1.4-0.4,2.1-0.7c1.1-0.6,1.3-0.6,1.9-0.6c1.1,0,1.9,0.4,3.2,1.5c0.6,0.6,1.1,1.1,1.1,1.1S32.4,6.6,31.7,6.3z"/>
	<path class="st0" d="M17.5,4.7c-0.1-0.8-0.7-1.9-1.8-3.2C14.2-0.3,14.3,0,14.8,0c1.3,0.1,2.6,1.3,2.9,2.2c0.4,0.7,0.1,2.9-0.1,2.9
		C17.5,5.3,17.5,5.2,17.5,4.7z"/>
	<path class="st0" d="M22.6,5.2c-0.1-0.6-0.1-1.8,0-2.5c0.3-1.3,1.7-2.2,3.1-2.4h0.6l-0.8,0.6c-1.4,1.5-1.9,2.1-2.5,3.5
		C22.8,5.3,22.6,5.3,22.6,5.2z"/>
	<path class="st0" d="M15.1,4.5c-1.4-0.7-2.2-1.1-3.6-1.1c-0.6,0-1.1,0-1.1,0c0-0.1,1.1-0.7,1.5-1.1C12.8,2,14,2.1,14.8,2.9
		c0.4,0.3,1.4,1.5,1.4,1.9C16.1,5.2,16.1,5.2,15.1,4.5z"/>
	<path class="st0" d="M24.2,4.9c0-0.1,1-1.5,1.5-1.8c0.4-0.4,0.8-0.6,1.3-0.7c0.6-0.1,0.7-0.1,1.3,0c0.7,0.1,1.7,0.8,1.7,1
		c0,0-0.6,0.1-1.1,0.1c-1.3,0-2.5,0.4-3.9,1.3C24.2,5.2,24.2,5.2,24.2,4.9z"/>
</g>
</svg>
