<?xml version="1.0" encoding="utf-8"?>
<!-- Generator: Adobe Illustrator 24.0.1, SVG Export Plug-In . SVG Version: 6.00 Build 0)  -->
<svg version="1.1" id="Layer_1" xmlns="http://www.w3.org/2000/svg" xmlns:xlink="http://www.w3.org/1999/xlink" x="0px" y="0px"
	 width="40px" height="40px" viewBox="0 0 40 40" style="enable-background:new 0 0 40 40;" xml:space="preserve">
<style type="text/css">
	.st0{fill:#FF9900;}
	.st1{fill:url(#SVGID_1_);}
	.st2{fill:#FFFFFF;}
</style>
<path class="st0" d="M25,40H15C6.8,40,0,33.3,0,25V15C0,6.8,6.8,0,15,0h10c8.3,0,15,6.8,15,15v10C40,33.3,33.3,40,25,40z"/>
<linearGradient id="SVGID_1_" gradientUnits="userSpaceOnUse" x1="9.0907" y1="267.1046" x2="30.9093" y2="304.8954" gradientTransform="matrix(1 0 0 1 0 -266)">
	<stop  offset="0" style="stop-color:#FFFFFF;stop-opacity:0.45"/>
	<stop  offset="1" style="stop-color:#FFFFFF;stop-opacity:0"/>
</linearGradient>
<path class="st1" d="M25,40H15C6.8,40,0,33.3,0,25V15C0,6.8,6.8,0,15,0h10c8.3,0,15,6.8,15,15v10C40,33.3,33.3,40,25,40z"/>
<g id="layer101">
	<path class="st2" d="M16,33.6c-0.3-0.4-0.5-0.9-0.6-1.3c-0.3-0.8-0.4-2.4-0.3-3.1c0.1-1.1,0.8-2.6,1.6-4l0.4-0.5l0.1,0.3
		c0.3,0.4,0.3,0.5,0,1.5c-0.5,1.8-0.6,2.8-0.6,5.4c0,1.4-0.1,2.4-0.1,2.4C16.4,34.4,16.3,34,16,33.6z"/>
	<path class="st2" d="M23.5,32.1c0-2.8-0.3-4.4-0.9-6.1l-0.1-0.5l0.3-0.4c0.1-0.3,0.3-0.4,0.3-0.4c0.1,0,1.5,2.6,1.8,3.5
		c0.3,0.9,0.4,2.4,0.1,3.4c-0.1,0.9-0.6,1.7-1,2.2l-0.3,0.4L23.5,32.1z"/>
	<path class="st2" d="M13.9,32.9c-0.1-0.1-0.4-0.8-0.5-1.1c-0.3-0.8-0.3-1-0.4-2.1c-0.1-3,0.6-5,2.5-7.1c0.2-0.3,0.4-0.5,0.5-0.5
		c0.1,0,0.1,0.1,0.1,0.3c0,0.5,0.3,0.9,0.6,1.1c0.3,0.1,0.4,0.4,0.4,0.4s-0.2,0.5-0.6,1.1c-1.9,2.9-2.5,5.2-2.2,7.6
		c0,0.4,0,0.6,0,0.6C14.1,33.1,14,33.1,13.9,32.9z"/>
	<path class="st2" d="M26,32.3c0.1-1.1,0-2-0.3-3.3c-0.4-1.4-0.8-2.2-2.1-4.4c-0.3-0.5-0.5-0.9-0.5-0.9c0.6-0.4,0.9-0.9,0.9-1.4
		c0-0.3,0-0.4,0.1-0.4c0.1,0,0.3,0.1,0.4,0.4c1.1,1.3,1.9,2.6,2.2,4.3c0.3,1,0.3,1.1,0.3,2.5c0,1.5-0.1,2.4-0.5,3.3
		c-0.1,0.4-0.5,1-0.6,1C25.9,33.3,25.9,32.8,26,32.3z"/>
	<path class="st2" d="M18.5,32.6c-0.5-0.5-0.9-1.1-1-2.1c-0.1-0.6-0.1-0.9,0-2c0.1-1.3,0.4-2.4,0.6-2.6c0,0,0.1,0.8,0.1,1.9
		c0,2,0.3,3.4,0.6,4.5C19,32.6,19,33,19,33S18.8,32.9,18.5,32.6z"/>
	<path class="st2" d="M21,32.9c0.6-2.1,0.8-3.4,0.8-5.4s0.1-2,0.5-0.3c0.4,1.9,0.4,3.1,0,4.2c-0.1,0.5-0.6,1.3-1.1,1.5l-0.3,0.1
		L21,32.9z"/>
	<path class="st2" d="M19.8,31c-0.4-0.9-0.8-4.6-0.5-4.9c0.3-0.1,1.4-0.1,1.5,0s-0.1,3.4-0.3,4.1c-0.1,0.5-0.4,1.1-0.5,1.1
		C20,31.4,19.9,31.1,19.8,31z"/>
	<path class="st2" d="M11.1,29.9c-0.6-1.1-1-2.1-1.1-2.8c-0.4-1.9-0.4-3,0.3-4.4c0.5-1,0.8-1.4,2.5-2.9l1.6-1.4l0.3,0.5
		c0.1,0.2,0.3,0.5,0.3,0.6c0,0.1-0.4,0.5-0.9,0.9c-1.4,1.3-2.1,2.4-2.6,3.8C11.1,24.7,11,26,11,26.6c0,0.4,0.1,0.1,0.1-0.5
		c0.2-1.3,0.9-2.8,1.6-3.8c0.8-1,2-2.2,2.4-2.2c0.1,0,0.3,0.3,0.4,0.5c0.1,0.3,0.2,0.6,0.2,0.6s-0.4,0.5-0.8,0.9
		c-2.1,2.4-3,4.5-3.1,7.5c0,0.6-0.1,1.1-0.1,1.1S11.4,30.4,11.1,29.9z"/>
	<path class="st2" d="M28.3,30.4c0-1.3-0.4-3.3-0.9-4.5c-0.4-1-1-1.9-2.1-3.3c-0.6-0.6-1-1.3-1-1.4c0-0.3,0.4-1,0.6-1.1
		c0.3-0.1,0.5,0.1,1.3,0.8c1.5,1.4,2.5,3.1,2.9,5.1l0.1,0.6v-0.8c0-1-0.3-1.7-0.8-2.6c-0.5-1-1-1.6-2.1-2.8l-0.9-0.9l0.3-0.5
		c0.3-0.5,0.3-0.5,0.4-0.5c0.9,0.8,3.1,2.8,3.4,3c0.4,0.5,0.6,1.1,0.9,2c0.4,1.3,0.3,2.6-0.3,4.3c-0.3,0.6-1.1,2.5-1.4,2.9L28.5,31
		v-0.6H28.3z"/>
	<path class="st2" d="M8,25c0-0.1-0.1-0.8-0.2-1.3c-0.4-2.4,0.1-4.1,1.5-5.5c0.4-0.4,1-0.9,1.4-1.1c1.3-0.8,3.1-1.7,3.2-1.6
		c0,0,0.1,0.1,0.1,0.2c0,0.1,0.1,0.4,0.3,0.6c0.1,0.3,0.2,0.5,0.2,0.6c0,0.4-0.4,0.9-1.6,1.9c-0.8,0.5-1.5,1.3-1.9,1.5
		c-1.3,1.1-2.3,2.6-2.6,3.9C8.1,25.4,8.1,25.4,8,25z"/>
	<path class="st2" d="M31.9,25.3c0,0-0.1-0.4-0.3-0.8c-0.5-1.9-1.9-3.5-4.5-5.5c-1.4-1-1.5-1.3-1.7-1.7l-0.1-0.4l0.3-0.5
		c0.1-0.3,0.4-0.5,0.4-0.8c0-0.1,0.1-0.2,0.1-0.2c0.4,0,4,2.1,4.5,2.8c1.1,1.1,1.6,2.4,1.6,4.3C32.4,23.6,32.1,25.5,31.9,25.3z"/>
	<path class="st2" d="M17.6,24.5c-0.1-0.1-0.1-0.4-0.1-0.5c0-0.3,0-0.3,0.6-0.3s0.9,0,1.4-0.5c0.3-0.3,0.3-0.3,0.3-0.8V22l-0.9-0.4
		c-0.9-0.4-1.1-0.6-1.3-1c-0.1-0.3,0-0.3,0.3-0.1c0.1,0.1,0.3,0.1,0.5,0.1s0.5,0,0.6,0.1c0.4,0.1,1.1,0.1,1.6,0
		c0.1-0.1,0.5-0.1,0.6-0.1s0.4,0,0.5-0.1c0.3-0.1,0.3-0.1,0.3,0.1c0,0.4-0.3,0.5-1.1,1L20,22v0.5V23l0.4,0.4
		c0.5,0.4,0.9,0.5,1.4,0.4c0.5-0.1,0.6,0,0.5,0.5c-0.3,0.5-0.4,0.6-0.9,0.1c-0.5-0.4-0.9-0.5-1.8-0.5c-0.6,0-1.1,0.1-1.6,0.6
		C17.9,24.8,17.8,24.8,17.6,24.5z"/>
	<path class="st2" d="M17.1,22.3c-0.4-0.1-1.1-1.1-1-1.3c0,0,0.3,0.1,0.4,0.4c0.5,0.5,0.8,0.6,1.6,0.6c0.5,0,0.8,0,1,0.1
		c0.1,0.1,0.3,0.1,0.3,0.3C19.4,22.3,17.3,22.4,17.1,22.3z"/>
	<path class="st2" d="M20.8,22.3c0-0.3,0.8-0.4,1.3-0.4c0.6,0.1,1,0,1.4-0.5c0.3-0.3,0.4-0.4,0.4-0.4c0.1,0.1-0.4,0.9-0.6,1.1
		c-0.3,0.1-0.4,0.3-1.4,0.1C21.1,22.3,20.8,22.3,20.8,22.3z"/>
	<path class="st2" d="M17.3,21.6c-0.4-0.3-0.9-0.8-0.8-0.8c0,0,0.3,0.1,0.4,0.3c0.3,0.1,0.5,0.4,0.8,0.4s0.4,0.1,0.4,0.1
		C18.1,21.9,17.5,21.8,17.3,21.6z"/>
	<path class="st2" d="M22,21.8c0,0,0.1-0.1,0.4-0.3c0.3-0.1,0.6-0.3,0.9-0.5c0.4-0.4,0.5-0.3,0.3,0.1C23.1,21.6,22.1,22,22,21.8z"/>
	<path class="st2" d="M17.4,19.6c0.3-0.6,0.5-1.6,0.5-2s0-0.4-0.1-0.4c-0.1,0-0.1,0-0.1-0.3s0-0.3-0.5-0.4c-0.4-0.1-0.6-0.1-0.8-0.4
		C16.2,16,16.1,16,15.9,16c-0.5,0-0.4-0.3,0.3-0.6c0.5-0.3,0.6-0.4,0.8-0.3c0.3,0.1,0.3,0.1,0,0.3c-0.1,0.1-0.1,0.1,0.1,0
		c0.1-0.1,0.3-0.1,0.3-0.1s0.2,0.1,0.4,0.1c0.8,0.3,0.9,1.4,0.1,3.3c-0.3,0.5-0.4,0.9-0.4,0.9C17.4,19.8,17.4,19.6,17.4,19.6z"/>
	<path class="st2" d="M7,19.5c0-0.3,0.5-1.9,0.6-2.3c0.5-1.1,1.5-2.3,2.5-2.9c0.9-0.5,1.5-0.9,3.4-1.5c2-0.6,3.5-1.4,4.1-1.9
		c1-0.8,1.9-2.3,2.1-3.5C20,6.8,20,6.6,20.1,7c0.3,1.4,0.5,1.8,1.1,2.8c1.1,1.5,2,2,5.6,3.3c0.9,0.2,1.8,0.6,2,0.8
		c1.5,0.8,2.8,2,3.4,3.4c0.3,0.5,0.6,2.1,0.6,2.4c0,0.1-0.3-0.1-0.5-0.5c-0.9-1.1-2.1-2.1-3.5-2.9c-0.6-0.4-3.3-1.5-3.4-1.5
		c0,0-0.1,0-0.1,0.1c0,0.1-0.3,0.1-0.5,0c-0.1-0.1-0.1-0.1,0.1-0.4l0.3-0.3h-0.5c-0.5,0-0.5,0-0.5-0.1c0-0.1,0.1-0.3,0.1-0.4
		c0-0.1,0-0.1-0.3-0.1c-0.5,0-0.6,0-0.5-0.5v-0.4l-0.3,0.1c-0.4,0.1-0.5,0.1-0.9-0.4c-0.1-0.3-0.4-0.5-0.4-0.5S22,12,21.8,12.1
		c-0.1,0.1-0.3,0.3-0.4,0.1c0,0-0.1-0.3-0.3-0.4c-0.1-0.3-0.1-0.4-0.3-0.4c0,0-0.1,0.1-0.1,0.3c-0.1,0.2-0.9,1-1.1,1
		c-0.1,0-0.4-0.3-0.8-0.6l-0.1-0.6l-0.3,0.4c-0.1,0.3-0.3,0.4-0.3,0.4s-0.1-0.1-0.4-0.3c-0.1-0.1-0.4-0.2-0.4-0.1
		c0,0-0.3,0.3-0.4,0.5c-0.3,0.5-0.4,0.5-0.9,0.4c-0.1,0-0.1,0-0.1,0.3c0.1,0.4,0,0.5-0.5,0.5h-0.4l0.1,0.3c0.1,0.4,0.1,0.4-0.5,0.4
		c-0.3,0-0.4,0-0.4,0s0.1,0.1,0.3,0.3c0.3,0.2,0.3,0.4,0.1,0.5c-0.3,0.1-0.5,0-0.5-0.1c0-0.3,0-0.3-2.5,0.9
		c-2.1,0.9-3.6,2.1-4.5,3.5C7.1,19.6,7,19.8,7,19.5z"/>
	<path class="st2" d="M22.5,19.5c0,0-0.3-0.5-0.4-1c-0.3-0.6-0.4-1-0.4-1.6c0-1,0-1.3,0.6-1.5c0.3-0.1,0.6-0.3,0.8-0.4
		c0.3-0.1,0.3-0.1,0.9,0.3s0.6,0.4,0.5,0.5c-0.1,0.1-0.3,0.1-0.4,0.1c-0.1,0-0.3,0-0.4,0.3s-0.6,0.5-1.1,0.5c-0.3,0-0.3,0-0.3,0.2
		c0,0.3,0,0.3-0.3,0.3c-0.1,0-0.1,0-0.1,0.5c0,0.3,0.1,0.8,0.3,1.1C22.6,19.4,22.6,19.8,22.5,19.5z"/>
	<path class="st2" d="M8.5,14.1c-0.1,0,0.3-1,0.5-1.6c0.4-0.8,0.9-1.3,1.5-1.6c0.8-0.4,1.4-0.5,3.6-0.5c2.1,0,2.6-0.1,3.4-0.5
		C17.7,9.8,18,9.6,18,9.6s-0.3,0.4-0.6,0.6c-0.9,0.9-1.6,1.3-3.9,1.7c-2.4,0.6-3.4,0.9-4.5,1.8C8.8,14.1,8.5,14.1,8.5,14.1z"/>
	<path class="st2" d="M30.9,13.8c-0.9-0.6-2-1-4.1-1.5c-2.1-0.5-2.6-0.8-3.4-1.3c-0.5-0.4-1.3-1.1-1.3-1.3s0.1-0.1,0.3,0
		s0.8,0.5,1.3,0.6c0.3,0.1,1.1,0.1,2.5,0.1c2.8,0,3.3,0.1,4.1,0.9c0.6,0.6,1.1,1.5,1.4,2.5C31.6,14.3,31.5,14.3,30.9,13.8z"/>
	<path class="st2" d="M10.8,10.4c0-0.1,1.6-1.6,2-1.9c0.3-0.1,0.5-0.3,1-0.3c0.5,0,0.8,0,1.5,0.4c1,0.5,1.6,0.6,2,0.6
		s0.3,0.2-0.3,0.4c-0.8,0.3-1.8,0.3-2.6,0c-0.9-0.3-1.4-0.1-2.6,0.3C10.9,10.5,10.8,10.5,10.8,10.4z"/>
	<path class="st2" d="M28.3,10.1c-1.1-0.4-1.8-0.4-2.9-0.2c-0.9,0.2-1.6,0.1-2.4-0.1c-0.3-0.1-0.5-0.3-0.4-0.3s0.4-0.1,0.8-0.2
		c0.4,0,1-0.3,1.5-0.5c0.8-0.4,0.9-0.4,1.4-0.4c0.8,0,1.4,0.3,2.3,1.1c0.4,0.4,0.8,0.8,0.8,0.8S28.8,10.3,28.3,10.1z"/>
	<path class="st2" d="M18.1,9c-0.1-0.6-0.5-1.4-1.3-2.3c-1.1-1.3-1-1.1-0.6-1.1c0.9,0.1,1.9,0.9,2.1,1.6c0.3,0.5,0.1,2.1-0.1,2.1
		C18.1,9.4,18.1,9.3,18.1,9z"/>
	<path class="st2" d="M21.8,9.3c-0.1-0.4-0.1-1.3,0-1.8C22,6.6,23,5.9,24,5.8h0.4l-0.6,0.4c-1,1.1-1.4,1.5-1.8,2.5
		C21.9,9.4,21.8,9.4,21.8,9.3z"/>
	<path class="st2" d="M16.4,8.8c-1-0.5-1.6-0.8-2.6-0.8C13.4,8,13,8,13,8c0-0.1,0.8-0.5,1.1-0.8c0.6-0.2,1.5-0.1,2.1,0.5
		c0.3,0.2,1,1.1,1,1.4C17.1,9.3,17.1,9.3,16.4,8.8z"/>
	<path class="st2" d="M22.9,9.1C22.9,9,23.6,8,24,7.8c0.3-0.3,0.6-0.4,0.9-0.5c0.4-0.1,0.5-0.1,0.9,0C26.3,7.4,27,7.9,27,8
		c0,0-0.4,0.1-0.8,0.1c-0.9,0-1.8,0.3-2.8,0.9C22.9,9.3,22.9,9.3,22.9,9.1z"/>
</g>
</svg>
