<?xml version="1.0" encoding="utf-8"?>
<!-- Generator: Adobe Illustrator 24.0.1, SVG Export Plug-In . SVG Version: 6.00 Build 0)  -->
<svg version="1.1" id="Layer_1" xmlns="http://www.w3.org/2000/svg" xmlns:xlink="http://www.w3.org/1999/xlink" x="0px" y="0px"
	 width="40px" height="40px" viewBox="0 0 40 40" style="enable-background:new 0 0 40 40;" xml:space="preserve">
<style type="text/css">
	.st0{fill:#A1A3AA;}
</style>
<path class="st0" d="M13.5,17.6c-1.5,0-2.8,0.1-4.1,0.4C10.3,7.9,18.8,0,29,0c6.3,0,10.6,3.1,10.6,9.3c0,6.4-5.1,9.3-12.5,9.3
	C21.5,18.6,19,17.6,13.5,17.6 M12.9,21.2c-7.4,0-12.5,3.1-12.5,9.3S4.7,40,10.8,40c10.2,0,18.8-7.9,19.8-18
	c-1.3,0.1-2.8,0.4-4.1,0.4C21.2,22.3,18.5,21.2,12.9,21.2"/>
</svg>
