<svg width="36" height="40" viewBox="0 0 36 40" fill="none" xmlns="http://www.w3.org/2000/svg">
<path fill-rule="evenodd" clip-rule="evenodd" d="M21 1.73205L32.3205 8.26795C34.1769 9.33974 35.3205 11.3205 35.3205 13.4641V26.5359C35.3205 28.6795 34.1769 30.6602 32.3205 31.732L21 38.2679C19.1436 39.3397 16.8564 39.3397 15 38.2679L3.67949 31.732C1.82308 30.6602 0.679489 28.6795 0.679489 26.5359V13.4641C0.679489 11.3205 1.82308 9.33974 3.67949 8.26795L15 1.73205C16.8564 0.660251 19.1436 0.660251 21 1.73205Z" fill="url(#paint0_linear)"/>
<path fill-rule="evenodd" clip-rule="evenodd" d="M18.137 8H18.1846C19.1902 8.00398 20.1948 8.26849 21.0958 8.79352L26.3609 11.8613C28.1772 12.9191 29.296 14.8752 29.296 16.9917V17.4744C29.296 17.8378 28.9061 18.0649 28.594 17.8834L18.7092 12.1241C18.1561 11.8014 17.4404 12.0212 17.1653 12.6183C16.9216 13.1471 17.1618 13.7782 17.6626 14.0701L28.8392 20.5823C29.1219 20.747 29.296 21.0513 29.296 21.3805V23.1331C29.296 23.5186 29.2585 23.8985 29.1864 24.2686C29.1059 24.682 28.6363 24.8846 28.2748 24.6738L9.00061 13.4442C8.70999 13.2746 8.6659 12.8691 8.91244 12.6391C9.22696 12.3461 9.5757 12.0853 9.95515 11.8642L15.2255 8.79352C16.1268 8.26849 17.1313 8.00398 18.137 8ZM7.15298 15.9284C7.2059 15.7011 7.40693 15.5566 7.61969 15.5566C7.69939 15.5566 7.78042 15.5767 7.85614 15.6204L27.3395 26.8288C27.7163 27.0457 27.7561 27.5644 27.4269 27.8476C27.1493 28.0868 26.8471 28.3014 26.5225 28.488L21.1973 31.5518C20.2895 32.074 19.2771 32.3372 18.2642 32.3414H18.2157C17.2028 32.3372 16.1904 32.074 15.2827 31.5518L9.95719 28.488C8.12713 27.4353 7 25.4897 7 23.3843V22.9274C7 22.5515 7.40848 22.3163 7.73548 22.5045L17.6866 28.2293C17.8608 28.3299 18.0514 28.3773 18.239 28.3773C18.6711 28.3773 19.0896 28.1251 19.2691 27.6813C19.4777 27.1664 19.2419 26.5765 18.7595 26.2992L7.49172 19.8168C7.18752 19.6419 7 19.3182 7 18.9681V17.2566C7 16.8039 7.05269 16.359 7.15298 15.9284Z" fill="white"/>
<defs>
<linearGradient id="paint0_linear" x1="0.679489" y1="0.9282" x2="38.6468" y2="35.4091" gradientUnits="userSpaceOnUse">
<stop stop-color="#21F9F9"/>
<stop offset="1" stop-color="#6048BC"/>
</linearGradient>
</defs>
</svg>
