<?xml version="1.0" encoding="utf-8"?>
<!-- Generator: Adobe Illustrator 23.0.0, SVG Export Plug-In . SVG Version: 6.00 Build 0)  -->
<svg version="1.1" id="Layer_1" xmlns="http://www.w3.org/2000/svg" xmlns:xlink="http://www.w3.org/1999/xlink" x="0px" y="0px"
	 width="32px" height="32px" viewBox="0 0 32 32" style="enable-background:new 0 0 32 32;" xml:space="preserve">
<style type="text/css">
	.st0{fill:#0A0A0A;}
	.st1{fill:url(#SVGID_1_);}
	.st2{fill:#FFFFFF;}
</style>
<path class="st0" d="M20,32h-8C5.4,32,0,26.6,0,20v-8C0,5.4,5.4,0,12,0h8c6.6,0,12,5.4,12,12v8C32,26.6,26.6,32,20,32z"/>
<linearGradient id="SVGID_1_" gradientUnits="userSpaceOnUse" x1="7.2681" y1="0.8759" x2="24.7319" y2="31.1241">
	<stop  offset="0" style="stop-color:#FFFFFF;stop-opacity:0.5"/>
	<stop  offset="1" style="stop-color:#FFFFFF;stop-opacity:0"/>
</linearGradient>
<path class="st1" d="M20,32h-8C5.4,32,0,26.6,0,20v-8C0,5.4,5.4,0,12,0h8c6.6,0,12,5.4,12,12v8C32,26.6,26.6,32,20,32z"/>
<path class="st2" d="M27.4,15.7c-0.1-0.1-0.1-0.2-0.2-0.3c-2-2.3-6-6.7-6-6.7L16,14.3l-5.2-5.6c0,0-4.1,4.5-6.1,6.7
	c-0.3,0.3-0.3,0.7,0,1c1,1.2,6.2,6.8,6.2,6.8l5.2-5.7l5.1,5.7l6.2-6.8c0,0,0.1-0.1,0.2-0.2C27.5,16.1,27.5,15.9,27.4,15.7 M7.6,16.3
	c-0.2-0.2-0.1-0.5,0-0.7c0.7-0.7,3.3-3.6,3.3-3.6l3.6,3.9l-3.7,4C10.9,19.9,8.6,17.5,7.6,16.3 M24.3,16.4c-0.1,0.1-0.2,0.3-0.3,0.4
	l-2.8,3.1L17.5,16l3.6-3.9c0,0,2.1,2.1,3,3.3c0.1,0.1,0.2,0.2,0.2,0.3C24.4,15.9,24.4,16.2,24.3,16.4"/>
</svg>
