<svg width="36" height="40" viewBox="0 0 36 40" fill="none" xmlns="http://www.w3.org/2000/svg">
<path d="M21 1.73205L32.3205 8.26795C34.1769 9.33974 35.3205 11.3205 35.3205 13.4641V26.5359C35.3205 28.6795 34.1769 30.6602 32.3205 31.732L21 38.2679C19.1436 39.3397 16.8564 39.3397 15 38.2679L3.67949 31.732C1.82308 30.6602 0.679489 28.6795 0.679489 26.5359V13.4641C0.679489 11.3205 1.82308 9.33974 3.67949 8.26795L15 1.73205C16.8564 0.660251 19.1436 0.660251 21 1.73205Z" fill="url(#paint0_linear)"/>
<path style="mix-blend-mode:overlay" d="M21 1.73205L32.3205 8.26795C34.1769 9.33974 35.3205 11.3205 35.3205 13.4641V26.5359C35.3205 28.6795 34.1769 30.6602 32.3205 31.732L21 38.2679C19.1436 39.3397 16.8564 39.3397 15 38.2679L3.67949 31.732C1.82308 30.6602 0.679489 28.6795 0.679489 26.5359V13.4641C0.679489 11.3205 1.82308 9.33974 3.67949 8.26795L15 1.73205C16.8564 0.660251 19.1436 0.660251 21 1.73205Z" fill="url(#paint1_linear)"/>
<mask id="mask0" mask-type="alpha" maskUnits="userSpaceOnUse" x="5" y="11" width="17" height="18">
<path d="M5 11.1286H21.4888V28.0098H5V11.1286Z" fill="white"/>
</mask>
<g mask="url(#mask0)">
<path opacity="0.578753" fill-rule="evenodd" clip-rule="evenodd" d="M21.4888 19.5692C21.4888 24.2308 17.7976 28.0098 13.2444 28.0098C8.69118 28.0098 4.99997 24.2308 4.99997 19.5692C4.99997 14.9076 8.69118 11.1285 13.2444 11.1285C17.7976 11.1285 21.4888 14.9076 21.4888 19.5692Z" fill="white"/>
</g>
<path fill-rule="evenodd" clip-rule="evenodd" d="M7.69866 16.1483C7.69866 16.2843 7.59104 16.3945 7.45817 16.3945C7.32531 16.3945 7.21768 16.2843 7.21768 16.1483C7.21768 16.0122 7.32531 15.902 7.45817 15.902C7.59104 15.902 7.69866 16.0122 7.69866 16.1483Z" fill="#FEFEFE"/>
<path fill-rule="evenodd" clip-rule="evenodd" d="M9.67851 16.1483C9.67851 16.2843 9.57089 16.3945 9.43815 16.3945C9.30529 16.3945 9.19766 16.2843 9.19766 16.1483C9.19766 16.0122 9.30529 15.902 9.43815 15.902C9.57089 15.902 9.67851 16.0122 9.67851 16.1483Z" fill="#FEFEFE"/>
<path fill-rule="evenodd" clip-rule="evenodd" d="M11.6585 16.1483C11.6585 16.2843 11.5509 16.3945 11.418 16.3945C11.2852 16.3945 11.1775 16.2843 11.1775 16.1483C11.1775 16.0122 11.2852 15.902 11.418 15.902C11.5509 15.902 11.6585 16.0122 11.6585 16.1483Z" fill="#FEFEFE"/>
<path fill-rule="evenodd" clip-rule="evenodd" d="M13.6384 16.1483C13.6384 16.2843 13.5307 16.3945 13.3979 16.3945C13.265 16.3945 13.1574 16.2843 13.1574 16.1483C13.1574 16.0122 13.265 15.902 13.3979 15.902C13.5307 15.902 13.6384 16.0122 13.6384 16.1483Z" fill="#FEFEFE"/>
<path fill-rule="evenodd" clip-rule="evenodd" d="M15.6182 16.1483C15.6182 16.2843 15.5106 16.3945 15.3778 16.3945C15.2449 16.3945 15.1374 16.2843 15.1374 16.1483C15.1374 16.0122 15.2449 15.902 15.3778 15.902C15.5106 15.902 15.6182 16.0122 15.6182 16.1483Z" fill="#FEFEFE"/>
<path fill-rule="evenodd" clip-rule="evenodd" d="M17.5983 16.1483C17.5983 16.2843 17.4906 16.3945 17.3578 16.3945C17.2249 16.3945 17.1173 16.2843 17.1173 16.1483C17.1173 16.0122 17.2249 15.902 17.3578 15.902C17.4906 15.902 17.5983 16.0122 17.5983 16.1483Z" fill="#FEFEFE"/>
<path fill-rule="evenodd" clip-rule="evenodd" d="M19.5781 16.1483C19.5781 16.2843 19.4705 16.3945 19.3376 16.3945C19.2048 16.3945 19.0971 16.2843 19.0971 16.1483C19.0971 16.0122 19.2048 15.902 19.3376 15.902C19.4705 15.902 19.5781 16.0122 19.5781 16.1483Z" fill="#FEFEFE"/>
<path fill-rule="evenodd" clip-rule="evenodd" d="M21.558 16.1483C21.558 16.2843 21.4504 16.3945 21.3175 16.3945C21.1846 16.3945 21.0771 16.2843 21.0771 16.1483C21.0771 16.0122 21.1846 15.902 21.3175 15.902C21.4504 15.902 21.558 16.0122 21.558 16.1483Z" fill="#FEFEFE"/>
<path fill-rule="evenodd" clip-rule="evenodd" d="M23.538 16.1483C23.538 16.2843 23.4303 16.3945 23.2975 16.3945C23.1646 16.3945 23.057 16.2843 23.057 16.1483C23.057 16.0122 23.1646 15.902 23.2975 15.902C23.4303 15.902 23.538 16.0122 23.538 16.1483Z" fill="#FEFEFE"/>
<path fill-rule="evenodd" clip-rule="evenodd" d="M9.3479 17.3659C9.3479 17.5512 9.20122 17.7014 9.02038 17.7014C8.83929 17.7014 8.69261 17.5512 8.69261 17.3659C8.69261 17.1806 8.83929 17.0305 9.02038 17.0305C9.20122 17.0305 9.3479 17.1806 9.3479 17.3659Z" fill="#FEFEFE"/>
<path fill-rule="evenodd" clip-rule="evenodd" d="M11.2597 17.3659C11.2597 17.5512 11.113 17.7014 10.932 17.7014C10.7511 17.7014 10.6044 17.5512 10.6044 17.3659C10.6044 17.1806 10.7511 17.0305 10.932 17.0305C11.113 17.0305 11.2597 17.1806 11.2597 17.3659Z" fill="#FEFEFE"/>
<path fill-rule="evenodd" clip-rule="evenodd" d="M13.1715 17.3659C13.1715 17.5512 13.0248 17.7014 12.8439 17.7014C12.6628 17.7014 12.5161 17.5512 12.5161 17.3659C12.5161 17.1806 12.6628 17.0305 12.8439 17.0305C13.0248 17.0305 13.1715 17.1806 13.1715 17.3659Z" fill="#FEFEFE"/>
<path fill-rule="evenodd" clip-rule="evenodd" d="M15.0832 17.3659C15.0832 17.5512 14.9365 17.7014 14.7557 17.7014C14.5746 17.7014 14.4279 17.5512 14.4279 17.3659C14.4279 17.1806 14.5746 17.0305 14.7557 17.0305C14.9365 17.0305 15.0832 17.1806 15.0832 17.3659Z" fill="#FEFEFE"/>
<path fill-rule="evenodd" clip-rule="evenodd" d="M16.995 17.3659C16.995 17.5512 16.8483 17.7014 16.6673 17.7014C16.4864 17.7014 16.3397 17.5512 16.3397 17.3659C16.3397 17.1806 16.4864 17.0305 16.6673 17.0305C16.8483 17.0305 16.995 17.1806 16.995 17.3659Z" fill="#FEFEFE"/>
<path fill-rule="evenodd" clip-rule="evenodd" d="M18.9068 17.3659C18.9068 17.5512 18.7601 17.7014 18.5792 17.7014C18.3982 17.7014 18.2515 17.5512 18.2515 17.3659C18.2515 17.1806 18.3982 17.0305 18.5792 17.0305C18.7601 17.0305 18.9068 17.1806 18.9068 17.3659Z" fill="#FEFEFE"/>
<path fill-rule="evenodd" clip-rule="evenodd" d="M20.8186 17.3659C20.8186 17.5512 20.6718 17.7014 20.4909 17.7014C20.3099 17.7014 20.1632 17.5512 20.1632 17.3659C20.1632 17.1806 20.3099 17.0305 20.4909 17.0305C20.6718 17.0305 20.8186 17.1806 20.8186 17.3659Z" fill="#FEFEFE"/>
<path fill-rule="evenodd" clip-rule="evenodd" d="M22.7303 17.3659C22.7303 17.5512 22.5836 17.7014 22.4028 17.7014C22.2217 17.7014 22.075 17.5512 22.075 17.3659C22.075 17.1806 22.2217 17.0305 22.4028 17.0305C22.5836 17.0305 22.7303 17.1806 22.7303 17.3659Z" fill="#FEFEFE"/>
<path fill-rule="evenodd" clip-rule="evenodd" d="M24.6421 17.3659C24.6421 17.5512 24.4954 17.7014 24.3144 17.7014C24.1335 17.7014 23.9868 17.5512 23.9868 17.3659C23.9868 17.1806 24.1335 17.0305 24.3144 17.0305C24.4954 17.0305 24.6421 17.1806 24.6421 17.3659Z" fill="#FEFEFE"/>
<path fill-rule="evenodd" clip-rule="evenodd" d="M10.7607 18.6677C10.7607 18.9396 10.5453 19.1601 10.2797 19.1601C10.0142 19.1601 9.79886 18.9396 9.79886 18.6677C9.79886 18.3958 10.0142 18.1753 10.2797 18.1753C10.5453 18.1753 10.7607 18.3958 10.7607 18.6677Z" fill="#FEFEFE"/>
<path fill-rule="evenodd" clip-rule="evenodd" d="M11.8068 19.9479C11.8068 20.2199 11.5914 20.4404 11.3258 20.4404C11.0602 20.4404 10.8448 20.2199 10.8448 19.9479C10.8448 19.676 11.0602 19.4555 11.3258 19.4555C11.5914 19.4555 11.8068 19.676 11.8068 19.9479Z" fill="#FEFEFE"/>
<path fill-rule="evenodd" clip-rule="evenodd" d="M12.8409 21.7206C12.8409 22.0775 12.5582 22.3669 12.2096 22.3669C11.8608 22.3669 11.5783 22.0775 11.5783 21.7206C11.5783 21.3637 11.8608 21.0742 12.2096 21.0742C12.5582 21.0742 12.8409 21.3637 12.8409 21.7206Z" fill="#FEFEFE"/>
<path fill-rule="evenodd" clip-rule="evenodd" d="M14.6605 21.7206C14.6605 22.0775 14.3779 22.3669 14.0293 22.3669C13.6805 22.3669 13.3979 22.0775 13.3979 21.7206C13.3979 21.3637 13.6805 21.0742 14.0293 21.0742C14.3779 21.0742 14.6605 21.3637 14.6605 21.7206Z" fill="#FEFEFE"/>
<path fill-rule="evenodd" clip-rule="evenodd" d="M16.4801 21.7206C16.4801 22.0775 16.1975 22.3669 15.8488 22.3669C15.5001 22.3669 15.2174 22.0775 15.2174 21.7206C15.2174 21.3637 15.5001 21.0742 15.8488 21.0742C16.1975 21.0742 16.4801 21.3637 16.4801 21.7206Z" fill="#FEFEFE"/>
<path fill-rule="evenodd" clip-rule="evenodd" d="M18.2997 21.7206C18.2997 22.0775 18.0171 22.3669 17.6684 22.3669C17.3197 22.3669 17.0371 22.0775 17.0371 21.7206C17.0371 21.3637 17.3197 21.0742 17.6684 21.0742C18.0171 21.0742 18.2997 21.3637 18.2997 21.7206Z" fill="#FEFEFE"/>
<path fill-rule="evenodd" clip-rule="evenodd" d="M20.1193 21.7206C20.1193 22.0775 19.8368 22.3669 19.4881 22.3669C19.1394 22.3669 18.8567 22.0775 18.8567 21.7206C18.8567 21.3637 19.1394 21.0742 19.4881 21.0742C19.8368 21.0742 20.1193 21.3637 20.1193 21.7206Z" fill="#FEFEFE"/>
<path fill-rule="evenodd" clip-rule="evenodd" d="M21.939 21.7206C21.939 22.0775 21.6563 22.3669 21.3077 22.3669C20.959 22.3669 20.6764 22.0775 20.6764 21.7206C20.6764 21.3637 20.959 21.0742 21.3077 21.0742C21.6563 21.0742 21.939 21.3637 21.939 21.7206Z" fill="#FEFEFE"/>
<path fill-rule="evenodd" clip-rule="evenodd" d="M23.7586 21.7206C23.7586 22.0775 23.4759 22.3669 23.1273 22.3669C22.7787 22.3669 22.496 22.0775 22.496 21.7206C22.496 21.3637 22.7787 21.0742 23.1273 21.0742C23.4759 21.0742 23.7586 21.3637 23.7586 21.7206Z" fill="#FEFEFE"/>
<path fill-rule="evenodd" clip-rule="evenodd" d="M25.5782 21.7206C25.5782 22.0775 25.2956 22.3669 24.947 22.3669C24.5983 22.3669 24.3156 22.0775 24.3156 21.7206C24.3156 21.3637 24.5983 21.0742 24.947 21.0742C25.2956 21.0742 25.5782 21.3637 25.5782 21.7206Z" fill="#FEFEFE"/>
<path fill-rule="evenodd" clip-rule="evenodd" d="M27.3979 21.7206C27.3979 22.0775 27.1152 22.3669 26.7666 22.3669C26.4178 22.3669 26.1353 22.0775 26.1353 21.7206C26.1353 21.3637 26.4178 21.0742 26.7666 21.0742C27.1152 21.0742 27.3979 21.3637 27.3979 21.7206Z" fill="#FEFEFE"/>
<path fill-rule="evenodd" clip-rule="evenodd" d="M13.6524 19.9479C13.6524 20.2199 13.4371 20.4404 13.1715 20.4404C12.9059 20.4404 12.6905 20.2199 12.6905 19.9479C12.6905 19.676 12.9059 19.4555 13.1715 19.4555C13.4371 19.4555 13.6524 19.676 13.6524 19.9479Z" fill="#FEFEFE"/>
<path fill-rule="evenodd" clip-rule="evenodd" d="M15.4981 19.9479C15.4981 20.2199 15.2827 20.4404 15.0171 20.4404C14.7515 20.4404 14.5361 20.2199 14.5361 19.9479C14.5361 19.676 14.7515 19.4555 15.0171 19.4555C15.2827 19.4555 15.4981 19.676 15.4981 19.9479Z" fill="#FEFEFE"/>
<path fill-rule="evenodd" clip-rule="evenodd" d="M17.3436 19.9479C17.3436 20.2199 17.1284 20.4404 16.8628 20.4404C16.5972 20.4404 16.3818 20.2199 16.3818 19.9479C16.3818 19.676 16.5972 19.4555 16.8628 19.4555C17.1284 19.4555 17.3436 19.676 17.3436 19.9479Z" fill="#FEFEFE"/>
<path fill-rule="evenodd" clip-rule="evenodd" d="M19.1894 19.9479C19.1894 20.2199 18.974 20.4404 18.7084 20.4404C18.4428 20.4404 18.2274 20.2199 18.2274 19.9479C18.2274 19.676 18.4428 19.4555 18.7084 19.4555C18.974 19.4555 19.1894 19.676 19.1894 19.9479Z" fill="#FEFEFE"/>
<path fill-rule="evenodd" clip-rule="evenodd" d="M21.0349 19.9479C21.0349 20.2199 20.8197 20.4404 20.5541 20.4404C20.2885 20.4404 20.0731 20.2199 20.0731 19.9479C20.0731 19.676 20.2885 19.4555 20.5541 19.4555C20.8197 19.4555 21.0349 19.676 21.0349 19.9479Z" fill="#FEFEFE"/>
<path fill-rule="evenodd" clip-rule="evenodd" d="M22.8806 19.9479C22.8806 20.2199 22.6653 20.4404 22.3996 20.4404C22.134 20.4404 21.9187 20.2199 21.9187 19.9479C21.9187 19.676 22.134 19.4555 22.3996 19.4555C22.6653 19.4555 22.8806 19.676 22.8806 19.9479Z" fill="#FEFEFE"/>
<path fill-rule="evenodd" clip-rule="evenodd" d="M24.7262 19.9479C24.7262 20.2199 24.511 20.4404 24.2453 20.4404C23.9797 20.4404 23.7644 20.2199 23.7644 19.9479C23.7644 19.676 23.9797 19.4555 24.2453 19.4555C24.511 19.4555 24.7262 19.676 24.7262 19.9479Z" fill="#FEFEFE"/>
<path fill-rule="evenodd" clip-rule="evenodd" d="M26.5719 19.9479C26.5719 20.2199 26.3565 20.4404 26.0909 20.4404C25.8253 20.4404 25.61 20.2199 25.61 19.9479C25.61 19.676 25.8253 19.4555 26.0909 19.4555C26.3565 19.4555 26.5719 19.676 26.5719 19.9479Z" fill="#FEFEFE"/>
<path fill-rule="evenodd" clip-rule="evenodd" d="M12.7085 18.6677C12.7085 18.9396 12.4932 19.1601 12.2276 19.1601C11.962 19.1601 11.7467 18.9396 11.7467 18.6677C11.7467 18.3958 11.962 18.1753 12.2276 18.1753C12.4932 18.1753 12.7085 18.3958 12.7085 18.6677Z" fill="#FEFEFE"/>
<path fill-rule="evenodd" clip-rule="evenodd" d="M14.6564 18.6677C14.6564 18.9396 14.441 19.1601 14.1754 19.1601C13.9098 19.1601 13.6946 18.9396 13.6946 18.6677C13.6946 18.3958 13.9098 18.1753 14.1754 18.1753C14.441 18.1753 14.6564 18.3958 14.6564 18.6677Z" fill="#FEFEFE"/>
<path fill-rule="evenodd" clip-rule="evenodd" d="M16.6043 18.6677C16.6043 18.9396 16.3889 19.1601 16.1233 19.1601C15.8577 19.1601 15.6423 18.9396 15.6423 18.6677C15.6423 18.3958 15.8577 18.1753 16.1233 18.1753C16.3889 18.1753 16.6043 18.3958 16.6043 18.6677Z" fill="#FEFEFE"/>
<path fill-rule="evenodd" clip-rule="evenodd" d="M18.5521 18.6677C18.5521 18.9396 18.3368 19.1601 18.0712 19.1601C17.8056 19.1601 17.5902 18.9396 17.5902 18.6677C17.5902 18.3958 17.8056 18.1753 18.0712 18.1753C18.3368 18.1753 18.5521 18.3958 18.5521 18.6677Z" fill="#FEFEFE"/>
<path fill-rule="evenodd" clip-rule="evenodd" d="M20.4999 18.6677C20.4999 18.9396 20.2846 19.1601 20.019 19.1601C19.7534 19.1601 19.538 18.9396 19.538 18.6677C19.538 18.3958 19.7534 18.1753 20.019 18.1753C20.2846 18.1753 20.4999 18.3958 20.4999 18.6677Z" fill="#FEFEFE"/>
<path fill-rule="evenodd" clip-rule="evenodd" d="M22.4477 18.6677C22.4477 18.9396 22.2325 19.1601 21.9669 19.1601C21.7013 19.1601 21.4859 18.9396 21.4859 18.6677C21.4859 18.3958 21.7013 18.1753 21.9669 18.1753C22.2325 18.1753 22.4477 18.3958 22.4477 18.6677Z" fill="#FEFEFE"/>
<path fill-rule="evenodd" clip-rule="evenodd" d="M24.3956 18.6677C24.3956 18.9396 24.1802 19.1601 23.9147 19.1601C23.6491 19.1601 23.4337 18.9396 23.4337 18.6677C23.4337 18.3958 23.6491 18.1753 23.9147 18.1753C24.1802 18.1753 24.3956 18.3958 24.3956 18.6677Z" fill="#FEFEFE"/>
<path fill-rule="evenodd" clip-rule="evenodd" d="M26.3434 18.6677C26.3434 18.9396 26.1281 19.1601 25.8625 19.1601C25.5969 19.1601 25.3816 18.9396 25.3816 18.6677C25.3816 18.3958 25.5969 18.1753 25.8625 18.1753C26.1281 18.1753 26.3434 18.3958 26.3434 18.6677Z" fill="#FEFEFE"/>
<path fill-rule="evenodd" clip-rule="evenodd" d="M31.4308 27.3593C31.4296 27.2232 31.5363 27.112 31.6691 27.1107C31.8019 27.1096 31.9105 27.2187 31.9118 27.3548C31.9131 27.4907 31.8063 27.6019 31.6736 27.6032C31.5407 27.6045 31.4321 27.4953 31.4308 27.3593Z" fill="#FEFEFE"/>
<path fill-rule="evenodd" clip-rule="evenodd" d="M29.451 27.378C29.4497 27.2419 29.5565 27.1307 29.6892 27.1294C29.8221 27.1283 29.9307 27.2374 29.9319 27.3733C29.9332 27.5094 29.8265 27.6206 29.6937 27.6219C29.5609 27.6232 29.4522 27.5139 29.451 27.378Z" fill="#FEFEFE"/>
<path fill-rule="evenodd" clip-rule="evenodd" d="M27.4712 27.3966C27.47 27.2607 27.5767 27.1495 27.7094 27.1482C27.8422 27.1469 27.9508 27.2561 27.9521 27.3921C27.9533 27.528 27.8467 27.6394 27.714 27.6405C27.5811 27.6418 27.4725 27.5326 27.4712 27.3966Z" fill="#FEFEFE"/>
<path fill-rule="evenodd" clip-rule="evenodd" d="M25.4913 27.4153C25.4901 27.2793 25.5968 27.1681 25.7296 27.1668C25.8624 27.1656 25.9711 27.2748 25.9723 27.4108C25.9736 27.5467 25.8668 27.6579 25.7341 27.6592C25.6012 27.6605 25.4926 27.5514 25.4913 27.4153Z" fill="#FEFEFE"/>
<path fill-rule="evenodd" clip-rule="evenodd" d="M23.5116 27.434C23.5104 27.298 23.617 27.1868 23.7497 27.1855C23.8826 27.1844 23.9912 27.2935 23.9925 27.4295C23.9937 27.5654 23.887 27.6767 23.7542 27.6779C23.6215 27.6792 23.5129 27.5701 23.5116 27.434Z" fill="#FEFEFE"/>
<path fill-rule="evenodd" clip-rule="evenodd" d="M21.5317 27.4527C21.5305 27.3167 21.6372 27.2055 21.77 27.2042C21.9028 27.2031 22.0115 27.3122 22.0127 27.4481C22.0138 27.5841 21.9072 27.6954 21.7745 27.6966C21.6416 27.6979 21.533 27.5886 21.5317 27.4527Z" fill="#FEFEFE"/>
<path fill-rule="evenodd" clip-rule="evenodd" d="M19.5519 27.4714C19.5506 27.3355 19.6573 27.2243 19.7901 27.223C19.923 27.2217 20.0316 27.3309 20.0328 27.4669C20.0341 27.6028 19.9273 27.7141 19.7946 27.7153C19.6617 27.7166 19.5531 27.6074 19.5519 27.4714Z" fill="#FEFEFE"/>
<path fill-rule="evenodd" clip-rule="evenodd" d="M17.5721 27.4901C17.5709 27.3541 17.6776 27.2429 17.8102 27.2416C17.9431 27.2404 18.0517 27.3496 18.053 27.4856C18.0542 27.6215 17.9475 27.7327 17.8149 27.734C17.682 27.7353 17.5734 27.6261 17.5721 27.4901Z" fill="#FEFEFE"/>
<path fill-rule="evenodd" clip-rule="evenodd" d="M15.5923 27.5088C15.591 27.3728 15.6977 27.2616 15.8305 27.2603C15.9633 27.2591 16.072 27.3683 16.0732 27.5042C16.0745 27.6402 15.9677 27.7514 15.835 27.7527C15.7021 27.754 15.5935 27.6448 15.5923 27.5088Z" fill="#FEFEFE"/>
<path fill-rule="evenodd" clip-rule="evenodd" d="M29.7707 26.1572C29.7689 25.972 29.9145 25.8204 30.0953 25.8187C30.2762 25.817 30.4243 25.9658 30.426 26.1511C30.4276 26.3363 30.2823 26.4878 30.1013 26.4895C29.9204 26.4913 29.7724 26.3425 29.7707 26.1572Z" fill="#FEFEFE"/>
<path fill-rule="evenodd" clip-rule="evenodd" d="M27.859 26.1753C27.8572 25.99 28.0027 25.8384 28.1836 25.8367C28.3645 25.8351 28.5125 25.9838 28.5143 26.1691C28.5159 26.3544 28.3706 26.5059 28.1897 26.5076C28.0087 26.5093 27.8608 26.3605 27.859 26.1753Z" fill="#FEFEFE"/>
<path fill-rule="evenodd" clip-rule="evenodd" d="M25.9473 26.1933C25.9456 26.0081 26.091 25.8565 26.2719 25.8548C26.4528 25.8531 26.6008 26.0019 26.6026 26.1872C26.6042 26.3724 26.4589 26.5239 26.278 26.5256C26.097 26.5274 25.9491 26.3786 25.9473 26.1933Z" fill="#FEFEFE"/>
<path fill-rule="evenodd" clip-rule="evenodd" d="M24.0356 26.2114C24.0339 26.0261 24.1793 25.8745 24.3603 25.8728C24.5411 25.8712 24.6892 26.0199 24.6909 26.2052C24.6925 26.3905 24.5472 26.542 24.3663 26.5437C24.1853 26.5454 24.0373 26.3966 24.0356 26.2114Z" fill="#FEFEFE"/>
<path fill-rule="evenodd" clip-rule="evenodd" d="M22.1239 26.2294C22.1222 26.0442 22.2676 25.8926 22.4486 25.8909C22.6294 25.8892 22.7775 26.038 22.7792 26.2233C22.7807 26.4085 22.6354 26.56 22.4546 26.5617C22.2736 26.5635 22.1256 26.4147 22.1239 26.2294Z" fill="#FEFEFE"/>
<path fill-rule="evenodd" clip-rule="evenodd" d="M20.2123 26.2474C20.2105 26.0622 20.3559 25.9106 20.5369 25.9089C20.7177 25.9072 20.8658 26.056 20.8675 26.2413C20.8691 26.4265 20.7238 26.5781 20.5429 26.5798C20.3618 26.5815 20.2139 26.4327 20.2123 26.2474Z" fill="#FEFEFE"/>
<path fill-rule="evenodd" clip-rule="evenodd" d="M18.3006 26.2655C18.2988 26.0803 18.4442 25.9287 18.6252 25.927C18.806 25.9253 18.9541 26.0741 18.9559 26.2594C18.9574 26.4446 18.8121 26.5961 18.6312 26.5978C18.4502 26.5996 18.3022 26.4508 18.3006 26.2655Z" fill="#FEFEFE"/>
<path fill-rule="evenodd" clip-rule="evenodd" d="M16.3889 26.2835C16.3872 26.0983 16.5326 25.9467 16.7134 25.945C16.8944 25.9433 17.0424 26.0921 17.0442 26.2774C17.0457 26.4627 16.9004 26.6142 16.7196 26.6159C16.5385 26.6176 16.3905 26.4688 16.3889 26.2835Z" fill="#FEFEFE"/>
<path fill-rule="evenodd" clip-rule="evenodd" d="M14.4772 26.3016C14.4755 26.1164 14.6209 25.9648 14.8017 25.9631C14.9827 25.9614 15.1307 26.1102 15.1325 26.2955C15.134 26.4807 14.9887 26.6322 14.8079 26.6339C14.6268 26.6357 14.4789 26.4869 14.4772 26.3016Z" fill="#FEFEFE"/>
<path fill-rule="evenodd" clip-rule="evenodd" d="M28.3462 24.8688C28.3437 24.5969 28.5572 24.3745 28.8227 24.3719C29.0883 24.3695 29.3057 24.5878 29.3081 24.8597C29.3106 25.1316 29.0971 25.3542 28.8316 25.3566C28.566 25.3592 28.3488 25.1408 28.3462 24.8688Z" fill="#FEFEFE"/>
<path fill-rule="evenodd" clip-rule="evenodd" d="M27.2887 23.5985C27.2862 23.3266 27.4996 23.1041 27.7652 23.1016C28.0308 23.0991 28.2482 23.3174 28.2506 23.5895C28.2531 23.8613 28.0396 24.0839 27.774 24.0863C27.5085 24.0889 27.2912 23.8704 27.2887 23.5985Z" fill="#FEFEFE"/>
<path fill-rule="evenodd" clip-rule="evenodd" d="M25.4432 23.6159C25.4406 23.344 25.654 23.1216 25.9196 23.119C26.1852 23.1166 26.4026 23.3349 26.405 23.6068C26.4075 23.8787 26.194 24.1013 25.9284 24.1037C25.6629 24.1063 25.4457 23.8879 25.4432 23.6159Z" fill="#FEFEFE"/>
<path fill-rule="evenodd" clip-rule="evenodd" d="M23.5976 23.6334C23.5951 23.3615 23.8084 23.1389 24.074 23.1365C24.3396 23.1339 24.557 23.3523 24.5594 23.6243C24.5619 23.8962 24.3484 24.1186 24.0829 24.1212C23.8173 24.1236 23.6001 23.9053 23.5976 23.6334Z" fill="#FEFEFE"/>
<path fill-rule="evenodd" clip-rule="evenodd" d="M21.752 23.6508C21.7495 23.3789 21.963 23.1564 22.2284 23.1539C22.4941 23.1514 22.7114 23.3697 22.7138 23.6417C22.7163 23.9136 22.503 24.1361 22.2374 24.1386C21.9718 24.1412 21.7545 23.9227 21.752 23.6508Z" fill="#FEFEFE"/>
<path fill-rule="evenodd" clip-rule="evenodd" d="M19.9064 23.6682C19.9039 23.3963 20.1174 23.1738 20.383 23.1713C20.6485 23.1687 20.8659 23.3872 20.8682 23.6591C20.8707 23.931 20.6574 24.1535 20.3918 24.156C20.1262 24.1585 19.9089 23.9402 19.9064 23.6682Z" fill="#FEFEFE"/>
<path fill-rule="evenodd" clip-rule="evenodd" d="M18.0608 23.6856C18.0583 23.4137 18.2718 23.1913 18.5374 23.1887C18.803 23.1863 19.0203 23.4046 19.0227 23.6765C19.0252 23.9484 18.8118 24.171 18.5462 24.1734C18.2806 24.176 18.0633 23.9576 18.0608 23.6856Z" fill="#FEFEFE"/>
<path fill-rule="evenodd" clip-rule="evenodd" d="M16.2153 23.7031C16.2129 23.4312 16.4262 23.2086 16.6918 23.2062C16.9574 23.2036 17.1748 23.422 17.1772 23.694C17.1797 23.9659 16.9662 24.1883 16.7006 24.1909C16.435 24.1933 16.2178 23.975 16.2153 23.7031Z" fill="#FEFEFE"/>
<path fill-rule="evenodd" clip-rule="evenodd" d="M14.3698 23.7205C14.3673 23.4485 14.5806 23.2261 14.8462 23.2235C15.1118 23.2211 15.3292 23.4394 15.3316 23.7115C15.3341 23.9833 15.1206 24.2058 14.855 24.2083C14.5896 24.2108 14.3723 23.9924 14.3698 23.7205Z" fill="#FEFEFE"/>
<path fill-rule="evenodd" clip-rule="evenodd" d="M12.5242 23.7379C12.5217 23.466 12.7351 23.2434 13.0007 23.241C13.2663 23.2384 13.4837 23.4569 13.4861 23.7288C13.4886 24.0007 13.2751 24.2233 13.0095 24.2257C12.744 24.2282 12.5267 24.0099 12.5242 23.7379Z" fill="#FEFEFE"/>
<path fill-rule="evenodd" clip-rule="evenodd" d="M26.3985 24.8872C26.396 24.6153 26.6094 24.3929 26.875 24.3903C27.1406 24.3878 27.3579 24.6062 27.3603 24.8781C27.3628 25.15 27.1494 25.3726 26.8839 25.375C26.6183 25.3776 26.401 25.1591 26.3985 24.8872Z" fill="#FEFEFE"/>
<path fill-rule="evenodd" clip-rule="evenodd" d="M24.4508 24.9056C24.4483 24.6337 24.6616 24.4111 24.9272 24.4087C25.1928 24.4062 25.4102 24.6246 25.4126 24.8965C25.4151 25.1684 25.2016 25.391 24.936 25.3934C24.6705 25.396 24.4533 25.1775 24.4508 24.9056Z" fill="#FEFEFE"/>
<path fill-rule="evenodd" clip-rule="evenodd" d="M22.5029 24.924C22.5004 24.6521 22.7139 24.4295 22.9795 24.4271C23.2451 24.4245 23.4625 24.643 23.4647 24.9149C23.4672 25.1868 23.2539 25.4094 22.9883 25.4118C22.7227 25.4143 22.5054 25.1959 22.5029 24.924Z" fill="#FEFEFE"/>
<path fill-rule="evenodd" clip-rule="evenodd" d="M20.5552 24.9424C20.5527 24.6705 20.7661 24.4479 21.0317 24.4455C21.2972 24.4429 21.5146 24.6613 21.517 24.9333C21.5195 25.2052 21.3061 25.4278 21.0405 25.4302C20.7749 25.4326 20.5577 25.2143 20.5552 24.9424Z" fill="#FEFEFE"/>
<path fill-rule="evenodd" clip-rule="evenodd" d="M18.6074 24.9608C18.6049 24.6889 18.8184 24.4663 19.0839 24.4639C19.3495 24.4613 19.5669 24.6797 19.5693 24.9517C19.5718 25.2236 19.3584 25.446 19.0928 25.4486C18.8272 25.451 18.6099 25.2327 18.6074 24.9608Z" fill="#FEFEFE"/>
<path fill-rule="evenodd" clip-rule="evenodd" d="M16.6597 24.9792C16.6572 24.7073 16.8705 24.4847 17.1361 24.4823C17.4018 24.4797 17.6191 24.6981 17.6215 24.9701C17.624 25.242 17.4105 25.4644 17.1451 25.467C16.8795 25.4694 16.6622 25.2511 16.6597 24.9792Z" fill="#FEFEFE"/>
<path fill-rule="evenodd" clip-rule="evenodd" d="M14.712 24.9975C14.7095 24.7256 14.9228 24.5032 15.1884 24.5006C15.454 24.4981 15.6714 24.7165 15.6738 24.9885C15.6763 25.2603 15.4628 25.4829 15.1972 25.4853C14.9317 25.4879 14.7145 25.2694 14.712 24.9975Z" fill="#FEFEFE"/>
<path fill-rule="evenodd" clip-rule="evenodd" d="M12.7642 25.0159C12.7617 24.744 12.9751 24.5216 13.2407 24.519C13.5063 24.5165 13.7237 24.7349 13.726 25.0069C13.7286 25.2787 13.5151 25.5013 13.2495 25.5037C12.9839 25.5063 12.7666 25.2878 12.7642 25.0159Z" fill="#FEFEFE"/>
<defs>
<linearGradient id="paint0_linear" x1="-0.726228" y1="6.29296" x2="34.4276" y2="29.4512" gradientUnits="userSpaceOnUse">
<stop stop-color="#58006E"/>
<stop offset="1" stop-color="#AA013D"/>
</linearGradient>
<linearGradient id="paint1_linear" x1="10.3063" y1="5.5099" x2="28.6589" y2="32.7678" gradientUnits="userSpaceOnUse">
<stop stop-color="white" stop-opacity="0.5"/>
<stop offset="1" stop-color="white" stop-opacity="0"/>
</linearGradient>
</defs>
</svg>
