<?xml version="1.0" encoding="utf-8"?>
<!-- Generator: Adobe Illustrator 23.0.0, SVG Export Plug-In . SVG Version: 6.00 Build 0)  -->
<svg version="1.1" id="Layer_1" xmlns="http://www.w3.org/2000/svg" xmlns:xlink="http://www.w3.org/1999/xlink" x="0px" y="0px"
	 width="32px" height="32px" viewBox="0 0 32 32" enable-background="new 0 0 32 32" xml:space="preserve">
<title>tico</title>
<path fill="#0255BC" d="M20,32h-8C5.4,32,0,26.6,0,20v-8C0,5.4,5.4,0,12,0h8c6.6,0,12,5.4,12,12v8C32,26.6,26.6,32,20,32z"/>
<linearGradient id="SVGID_1_" gradientUnits="userSpaceOnUse" x1="7.2666" y1="466.8741" x2="24.7334" y2="497.1259" gradientTransform="matrix(1 0 0 1 0 -466)">
	<stop  offset="0" style="stop-color:#FFFFFF;stop-opacity:0.5"/>
	<stop  offset="1" style="stop-color:#FFFFFF;stop-opacity:0"/>
</linearGradient>
<path fill="url(#SVGID_1_)" d="M20,32h-8C5.4,32,0,26.6,0,20v-8C0,5.4,5.4,0,12,0h8c6.6,0,12,5.4,12,12v8C32,26.6,26.6,32,20,32z"/>
<g id="logo">
	<path fill="#FFFFFF" d="M14.4,28C12,27.6,9.8,26.6,8,25l-0.5-0.4l0.9-0.8l0.9-0.8l0.7,0.5c3.5,2.8,8.5,2.8,12.1,0l0.6-0.5l0.8,0.8
		l0.8,0.8l-0.5,0.5c-0.8,0.7-1.8,1.3-2.7,1.8C19.6,27.6,18,28,16.3,28C15.7,28,15,28,14.4,28z"/>
	<path fill="#FFFFFF" d="M14.9,25.3c-3.1-0.4-5.8-2.3-7.3-5.1c-0.4-0.8-0.7-1.7-0.9-2.6c-0.2-1.2-0.2-2.4,0-3.5
		c1.1-5.1,6.1-8.4,11.2-7.4c1.7,0.4,3.3,1.2,4.6,2.4c1.3,1.2,2.2,2.8,2.7,4.5c0.3,1.3,0.3,2.7,0.1,4c-0.2,1.3-0.8,2.6-1.5,3.7
		c-0.7,0.9-1.5,1.7-2.5,2.5C19.4,25,17.1,25.6,14.9,25.3z M18.4,24.2c3.8-1.1,6.3-4.7,6.1-8.6c-0.2-3.6-2.6-6.7-6-7.7
		c-2-0.6-4.1-0.4-6,0.4c-1.9,0.9-3.4,2.4-4.3,4.3c-1,2.3-0.9,4.9,0.2,7.2c1,2.1,2.8,3.6,5,4.4c0.9,0.3,1.9,0.4,2.8,0.4
		C17,24.5,17.7,24.4,18.4,24.2z"/>
	<path fill="#FFFFFF" d="M14.7,24.2c-1.1-0.2-2.2-0.6-3.2-1.3c-1-0.6-1.8-1.5-2.4-2.5c1-0.1,1.9-0.2,2.9-0.1h2.9l0.5-0.5l0.5-0.5
		h-3.7c-3.6,0-3.8,0-3.8-0.3c0,0,3.5-0.1,7.7-0.1c7.3,0,7.7,0,7.6,0.1s-0.3,0.1-3.8,0.2h-3.7l0.5,0.5l0.5,0.5h2.9c1.6,0,2.9,0,2.9,0
		c-0.4,0.6-0.8,1.1-1.3,1.6c-1,0.9-2.2,1.6-3.5,2c-0.6,0.2-1.3,0.3-2,0.2C15.5,24.2,14.8,24.2,14.7,24.2z M16.4,21.3l0.4-0.4
		l-0.4-0.4L16,20.1l-0.4,0.4l-0.4,0.4l0.4,0.4c0.1,0.1,0.3,0.3,0.4,0.4C16.2,21.6,16.3,21.4,16.4,21.3z M14.2,20.8
		c-0.7-0.1-1.3-0.1-2-0.1c-0.7,0-1.3,0-2,0.1c0.7,0.1,1.3,0.1,2,0.1C12.9,20.9,13.5,20.9,14.2,20.8z M21.7,20.8
		c-0.7-0.1-1.3-0.1-2-0.1c-0.7,0-1.3,0-2,0.1c0.7,0.1,1.3,0.1,2,0.1C20.4,20.9,21.1,20.9,21.7,20.8z"/>
	<path fill="#FFFFFF" d="M8.7,19.8c-0.1-0.1-0.1-0.3-0.2-0.5c0,0,1.6,0,3.5,0h3.5l-0.4,0.5l-0.4,0.4H8.9L8.7,19.8z"/>
	<path fill="#FFFFFF" d="M16.9,19.8l-0.5-0.5H20c2,0,3.5,0,3.5,0.1c-0.1,0.2-0.1,0.3-0.2,0.4l-0.2,0.4h-2.9h-2.9L16.9,19.8z"/>
	<path fill="#FFFFFF" d="M9.3,18.3c-0.1-0.6-0.1-1.2-0.1-1.9v-1.8H8.6c-0.5,0-0.6,0-0.6-0.2s0-0.2,0.8-0.2h0.8v2
		c0,0.7,0,1.4-0.1,2.1C9.5,18.4,9.3,18.4,9.3,18.3C9.3,18.3,9.3,18.3,9.3,18.3z"/>
	<path fill="#FFFFFF" d="M10.1,18.3c0-0.1,0-1,0-2.1v-1.9h0.8c0.5,0,0.8,0,0.8,0.1c0,0.3,0,0.3-0.6,0.3h-0.6v1.8
		c0,1.6-0.1,1.8-0.2,1.9C10.2,18.4,10.1,18.3,10.1,18.3z"/>
	<path fill="#FFFFFF" d="M12.5,18.3c0,0,0-1.2,0-2.5c0-2.5,0-2.7,0.3-2.4c0.2,0.8,0.2,1.7,0.1,2.5c0,2.2,0,2.4-0.2,2.5
		C12.7,18.4,12.6,18.4,12.5,18.3z"/>
	<path fill="#FFFFFF" d="M13.4,18.3c-0.1-0.8-0.1-1.7-0.1-2.5v-2.4h0.4v2.4c0.1,0.8,0.1,1.7-0.1,2.5C13.6,18.4,13.6,18.4,13.4,18.3z
		"/>
	<path fill="#FFFFFF" d="M16.3,18.2c-0.6-0.2-1.1-0.7-1.3-1.3c-0.6-1.2-0.1-2.7,1.1-3.4c0.4-0.2,0.8-0.3,1.2-0.3
		c0.8,0,1.1,0.1,1.1,0.3s-0.2,0.3-0.5,0.2c-0.6-0.1-1.2-0.1-1.7,0.2c-0.7,0.4-1.1,1.1-1,1.9c0,0.6,0.2,1.3,0.8,1.6
		c0.5,0.3,1.1,0.5,1.6,0.4c0.8,0,0.8,0,0.8,0.1C18.4,18.4,17.1,18.5,16.3,18.2z"/>
	<path fill="#FFFFFF" d="M20.8,18.2c-1.3-0.4-2-1.8-1.6-3.2c0,0,0,0,0,0c0.3-1.1,1.3-1.9,2.5-1.8c0.4,0,0.8,0.1,1.1,0.2
		c0.6,0.3,1.3,1,1.3,1.3c0,0.1,0,0.2,0,0.3c0,0,0,0.1-0.1,0.1s-0.2-0.1-0.4-0.4c-0.7-1-2.1-1.3-3.1-0.6c-0.3,0.2-0.6,0.5-0.8,0.9
		c-0.3,0.8-0.1,1.7,0.5,2.3c1,0.8,2.5,0.7,3.3-0.3c0.1-0.1,0.2-0.2,0.2-0.3c0.2-0.4,0.5-0.5,0.5-0.2c0,0.5-0.6,1.2-1.5,1.6
		C22.1,18.4,21.4,18.5,20.8,18.2z"/>
	<path fill="#FFFFFF" d="M17.1,17.4c-0.8-0.1-1.3-0.7-1.4-1.4c-0.1-0.6,0.2-1.1,0.7-1.4c0.3-0.2,0.7-0.3,1-0.3c0.5,0,0.7,0,0.8,0.1
		s0,0.4-0.5,0.3c-0.5-0.1-0.9,0.1-1.3,0.4c-0.4,0.4-0.4,1.1,0.1,1.5c0.1,0.1,0.1,0.1,0.2,0.2c0.3,0.1,0.6,0.2,0.9,0.1
		c0.5,0,0.6,0,0.6,0.1c0,0.1,0,0.2,0,0.2C17.9,17.4,17.5,17.4,17.1,17.4z"/>
	<path fill="#FFFFFF" d="M21.4,17.3c-0.6-0.1-1.2-0.6-1-0.9s0.2-0.1,0.5,0.2c0.5,0.4,1.2,0.4,1.7-0.1c0.2-0.2,0.3-0.4,0.3-0.7
		c0-0.3-0.1-0.5-0.3-0.7c-0.4-0.5-1.2-0.6-1.7-0.1c0,0,0,0,0,0c-0.4,0.4-0.8,0.2-0.4-0.3c0.7-0.7,1.7-0.7,2.5-0.1
		c0.6,0.6,0.6,1.6,0,2.2c-0.1,0.1-0.2,0.2-0.3,0.2C22.3,17.4,21.8,17.4,21.4,17.3z"/>
	<path fill="#FFFFFF" d="M8.2,13.6c0-0.1,0-0.2,0.1-0.3c0.6,0,1.1,0,1.7,0h1.7v0.4H9.9H8.1L8.2,13.6z"/>
	<path fill="#FFFFFF" d="M15.4,12.3l-0.6-0.7h-2.8c-1.6,0-2.8,0-2.8-0.1c0.3-0.6,0.8-1.1,1.3-1.5c1-1,2.3-1.7,3.7-2
		c1.3-0.3,2.7-0.3,4,0c1.4,0.4,2.6,1.1,3.6,2.1c0.5,0.4,0.9,0.9,1.2,1.4c0,0-1.3,0.1-2.9,0.1h-2.8l-0.6,0.7L16,12.9
		C16,12.9,15.7,12.6,15.4,12.3z M16.4,11.5l0.4-0.4l-0.4-0.4L16,10.3l-0.4,0.4l-0.4,0.4l0.4,0.4c0.1,0.1,0.3,0.3,0.4,0.4
		C16.1,11.7,16.3,11.6,16.4,11.5L16.4,11.5z M14.2,11.2c-0.7-0.1-1.3-0.1-2-0.1c-0.7,0-1.3,0-2,0.1c0.7,0.1,1.3,0.1,2,0.1
		C12.9,11.3,13.5,11.3,14.2,11.2L14.2,11.2z M21.7,11.2c-0.7-0.1-1.3-0.1-2-0.1c-0.7,0-1.3,0-2,0.1c0.7,0.1,1.3,0.1,2,0.1
		C20.4,11.3,21.1,11.3,21.7,11.2L21.7,11.2z"/>
	<path fill="#FFFFFF" d="M6.9,23.1c-0.3-0.3-0.6-0.7-0.8-1.1C6.3,22,6.4,22,6.6,22c0.3,0,0.4-0.1,0.6-0.3s0.2-0.3,0.4,0
		c0.1,0.2,0.3,0.4,0.4,0.6c0.3,0.4,0.3,0.4,0.2,0.6C8.1,23,8,23.1,7.8,23.2C7.5,23.3,7.2,23.3,6.9,23.1z"/>
	<path fill="#FFFFFF" d="M24,23c-0.3-0.3-0.3-0.4,0.1-0.9c0.2-0.2,0.3-0.4,0.4-0.6c0.1-0.2,0.2-0.1,0.3,0.1s0.3,0.4,0.8,0.4
		c0.1,0,0.2,0,0.2,0c-0.1,0.3-0.3,0.6-0.6,0.9c-0.3,0.3-0.3,0.3-0.7,0.3S24.1,23.2,24,23z"/>
	<path fill="#FFFFFF" d="M5.8,21.7c-0.3-0.4-0.5-0.7-0.7-1.2c0,0,0.2-0.1,0.4-0.1c0.3,0,0.5-0.2,0.7-0.4l0.3-0.3l0.3,0.6
		c0.1,0.2,0.2,0.5,0.3,0.8c0,0.2-0.7,0.6-0.9,0.6C6.1,21.8,6,21.7,5.8,21.7z"/>
	<path fill="#FFFFFF" d="M25.2,21.5c-0.5-0.3-0.5-0.4-0.2-1c0.1-0.3,0.3-0.6,0.3-0.7s0.1-0.2,0.2,0c0.4,0.6,0.5,0.6,0.9,0.6h0.4
		l-0.3,0.5c-0.1,0.2-0.3,0.5-0.4,0.7C25.8,21.7,25.5,21.7,25.2,21.5z"/>
	<path fill="#FFFFFF" d="M4.8,19.5c-0.1-0.2-0.2-0.5-0.2-0.7c0,0,0.2-0.1,0.4-0.1c0.4,0,0.5,0,0.7-0.3c0.1-0.1,0.2-0.2,0.3-0.3
		c0.1,0.2,0.2,0.5,0.2,0.7l0.2,0.7l-0.2,0.2c-0.3,0.3-0.6,0.5-1,0.5C5.1,20.1,5,20.1,4.8,19.5z"/>
	<path fill="#FFFFFF" d="M26,19.9c-0.5-0.4-0.5-0.4-0.3-1.2c0-0.3,0.1-0.5,0.2-0.7c0.1,0.1,0.2,0.2,0.3,0.3c0.2,0.3,0.3,0.3,0.6,0.4
		c0.1,0,0.3,0,0.5,0c0.1,0,0.1,0-0.1,0.8L27,20h-0.3C26.4,20,26.2,20,26,19.9z"/>
	<path fill="#FFFFFF" d="M4.5,18c-0.1-0.6-0.1-1.1-0.1-1.7c-0.1-1.9,0.2-3.7,1-5.4c0.5-1,1.2-1.9,2-2.7c0.3,0,0.2,0.2-0.2,0.6
		c-1.8,2.2-2.7,5-2.5,7.9c0,0.5,0.1,1.1,0.1,1.2S4.6,18.2,4.5,18z"/>
	<path fill="#FFFFFF" d="M5,17.5c-0.1-1.2-0.1-2.5,0.1-3.8c0.3-1.7,1.1-3.3,2.2-4.7c0.4-0.4,0.6-0.5,0.6-0.3C7.9,9,7.8,9.1,7.6,9.2
		c-1.8,2-2.6,4.7-2.4,7.4c0,1,0,1.4-0.1,1.4S5,17.8,5,17.5z"/>
	<path fill="#FFFFFF" d="M27.2,17.9c0-0.2,0-0.4,0-0.6c0.2-1.7,0-3.4-0.5-5c-0.4-1.3-1.1-2.6-2.1-3.6c-0.3-0.4-0.4-0.6,0-0.5
		c0.6,0.6,1.1,1.3,1.6,2.1c1.1,2,1.6,4.3,1.4,6.6c0,0.4-0.1,0.7-0.1,1.1C27.4,18,27.3,18,27.2,17.9z"/>
	<path fill="#FFFFFF" d="M26.7,17.8c0,0,0-0.9,0-1.9c0.1-1.4-0.2-2.8-0.7-4.1c-0.4-1-1-1.9-1.8-2.8C24,8.8,24,8.6,24.1,8.6
		c0.6,0.4,1,1,1.4,1.6c1.1,1.9,1.7,4.1,1.6,6.3C27.1,17.5,27,17.8,26.7,17.8L26.7,17.8z"/>
	<path fill="#FFFFFF" d="M5.6,17.4c-0.2-1.4-0.1-2.8,0.3-4.1C6,12.7,6.3,12,6.6,11.5c0.7-1.4,1.8-2.8,1.8-2.2C8.3,9.5,8.1,9.6,8,9.8
		c-1.5,1.9-2.3,4.3-2.2,6.7c0,0.8,0,1.1-0.1,1.1S5.6,17.5,5.6,17.4z"/>
	<path fill="#FFFFFF" d="M26.1,16.4c0.2-2.3-0.5-4.5-1.8-6.4c-0.2-0.3-0.4-0.5-0.6-0.8c-0.1,0-0.1-0.1-0.1-0.2
		c0-0.2,0.3-0.1,0.6,0.4c0.9,1.1,1.5,2.4,1.9,3.8c0.4,1.3,0.4,4.1,0.1,4.1C26.1,17.4,26.1,17.4,26.1,16.4z"/>
	<path fill="#FFFFFF" d="M8.4,8.2C8.2,7.9,7.9,7.7,7.7,7.4c0.8-0.8,1.7-1.5,2.7-2c1-0.5,2-0.9,3-1.1C14.2,4,15.1,4,15.9,4
		c1.3-0.1,2.5,0.1,3.7,0.5c1.5,0.5,3,1.3,4.2,2.4l0.4,0.4l-0.8,0.8l-0.8,0.8l-0.3-0.3c-1.2-1.1-2.7-1.8-4.3-2.2
		c-1.4-0.2-2.8-0.2-4.1,0c-1.5,0.3-2.9,1-4.1,2C9.5,8.7,9.3,8.9,9.3,8.9S8.9,8.6,8.4,8.2z"/>
</g>
</svg>
