<?xml version="1.0" encoding="utf-8"?>
<!-- Generator: Adobe Illustrator 24.0.1, SVG Export Plug-In . SVG Version: 6.00 Build 0)  -->
<svg version="1.1" id="Layer_1" xmlns="http://www.w3.org/2000/svg" xmlns:xlink="http://www.w3.org/1999/xlink" x="0px" y="0px"
	 width="40px" height="40px" viewBox="0 0 40 40" style="enable-background:new 0 0 40 40;" xml:space="preserve">
<style type="text/css">
	.st0{fill:#0255BC;}
	.st1{fill:url(#SVGID_1_);}
	.st2{fill:#FFFFFF;}
</style>
<title>tico</title>
<path class="st0" d="M25,40H15C6.8,40,0,33.3,0,25V15C0,6.8,6.8,0,15,0h10c8.3,0,15,6.8,15,15v10C40,33.3,33.3,40,25,40z"/>
<linearGradient id="SVGID_1_" gradientUnits="userSpaceOnUse" x1="9.0903" y1="-425.1048" x2="30.9097" y2="-462.8952" gradientTransform="matrix(1 0 0 -1 0 -424)">
	<stop  offset="0" style="stop-color:#FFFFFF;stop-opacity:0.5"/>
	<stop  offset="1" style="stop-color:#FFFFFF;stop-opacity:0"/>
</linearGradient>
<path class="st1" d="M25,40H15C6.8,40,0,33.3,0,25V15C0,6.8,6.8,0,15,0h10c8.3,0,15,6.8,15,15v10C40,33.3,33.3,40,25,40z"/>
<g id="logo">
	<path class="st2" d="M18,35c-3-0.5-5.8-1.8-8-3.8l-0.6-0.5l1.1-1l1.1-1l0.9,0.6c4.4,3.5,10.6,3.5,15.1,0l0.8-0.6l1,1l1,1l-0.6,0.6
		c-1,0.9-2.2,1.6-3.4,2.3c-1.9,0.9-3.9,1.4-6,1.4C19.6,35,18.8,35,18,35z"/>
	<path class="st2" d="M18.6,31.6c-3.9-0.5-7.3-2.9-9.1-6.4c-0.5-1-0.9-2.1-1.1-3.3c-0.3-1.5-0.3-3,0-4.4c1.4-6.4,7.6-10.5,14-9.3
		c2.1,0.5,4.1,1.5,5.8,3c1.6,1.5,2.8,3.5,3.4,5.6c0.4,1.6,0.4,3.4,0.1,5c-0.3,1.6-1,3.3-1.9,4.6c-0.9,1.1-1.9,2.1-3.1,3.1
		C24.3,31.3,21.4,32,18.6,31.6z M23,30.3c4.7-1.4,7.9-5.9,7.6-10.8c-0.3-4.5-3.3-8.4-7.5-9.6c-2.5-0.8-5.1-0.5-7.5,0.5
		c-2.4,1.1-4.3,3-5.4,5.4c-1.3,2.9-1.1,6.1,0.3,9c1.3,2.6,3.5,4.5,6.3,5.5c1.1,0.4,2.4,0.5,3.5,0.5C21.3,30.6,22.1,30.5,23,30.3z"/>
	<path class="st2" d="M18.4,30.3c-1.4-0.3-2.8-0.8-4-1.6c-1.3-0.8-2.3-1.9-3-3.1c1.3-0.1,2.4-0.3,3.6-0.1h3.6l0.6-0.6l0.6-0.6h-4.6
		c-4.5,0-4.8,0-4.8-0.4c0,0,4.4-0.1,9.6-0.1c9.1,0,9.6,0,9.5,0.1c-0.1,0.1-0.4,0.1-4.7,0.3h-4.6l0.6,0.6l0.6,0.6h3.6
		c2,0,3.6,0,3.6,0c-0.5,0.8-1,1.4-1.6,2c-1.3,1.1-2.8,2-4.4,2.5C22,30,21.1,30.1,20.2,30C19.4,30.3,18.5,30.3,18.4,30.3z M20.5,26.6
		l0.5-0.5l-0.5-0.5L20,25.1l-0.5,0.5L19,26.1l0.5,0.5c0.1,0.1,0.4,0.4,0.5,0.5C20.3,27,20.4,26.8,20.5,26.6z M17.8,26
		c-0.9-0.1-1.6-0.1-2.5-0.1s-1.6,0-2.5,0.1c0.9,0.1,1.6,0.1,2.5,0.1S16.9,26.1,17.8,26z M27.1,26c-0.9-0.1-1.6-0.1-2.5-0.1
		c-0.9,0-1.6,0-2.5,0.1c0.9,0.1,1.6,0.1,2.5,0.1S26.4,26.1,27.1,26z"/>
	<path class="st2" d="M10.9,24.8c-0.1-0.1-0.1-0.4-0.3-0.6c0,0,2,0,4.4,0h4.4l-0.5,0.6l-0.5,0.5h-7.3L10.9,24.8z"/>
	<path class="st2" d="M21.1,24.8l-0.6-0.6H25c2.5,0,4.4,0,4.4,0.1c-0.1,0.3-0.1,0.4-0.3,0.5l-0.3,0.5h-3.6h-3.6L21.1,24.8z"/>
	<path class="st2" d="M11.6,22.9c-0.1-0.8-0.1-1.5-0.1-2.4v-2.3h-0.8c-0.6,0-0.8,0-0.8-0.3s0-0.3,1-0.3h1v2.5c0,0.9,0,1.8-0.1,2.6
		C11.9,23,11.6,23,11.6,22.9L11.6,22.9z"/>
	<path class="st2" d="M12.6,22.9c0-0.1,0-1.3,0-2.6v-2.4h1c0.6,0,1,0,1,0.1c0,0.4,0,0.4-0.8,0.4h-0.8v2.3c0,2-0.1,2.3-0.3,2.4
		C12.8,23,12.6,22.9,12.6,22.9z"/>
	<path class="st2" d="M15.6,22.9c0,0,0-1.5,0-3.1c0-3.1,0-3.4,0.4-3c0.3,1,0.3,2.1,0.1,3.1c0,2.8,0,3-0.2,3.1
		C15.9,23,15.8,23,15.6,22.9z"/>
	<path class="st2" d="M16.8,22.9c-0.1-1-0.1-2.1-0.1-3.1v-3h0.5v3c0.1,1,0.1,2.1-0.1,3.1C17,23,17,23,16.8,22.9z"/>
	<path class="st2" d="M20.4,22.8c-0.8-0.3-1.4-0.9-1.6-1.6c-0.8-1.5-0.1-3.4,1.4-4.3c0.5-0.3,1-0.4,1.5-0.4c1,0,1.4,0.1,1.4,0.4
		s-0.3,0.4-0.6,0.3c-0.8-0.1-1.5-0.1-2.1,0.3c-0.9,0.5-1.4,1.4-1.3,2.4c0,0.8,0.3,1.6,1,2c0.6,0.4,1.4,0.6,2,0.5c1,0,1,0,1,0.1
		C23,23,21.4,23.1,20.4,22.8z"/>
	<path class="st2" d="M26,22.8c-1.6-0.5-2.5-2.2-2-4l0,0c0.4-1.4,1.6-2.4,3.1-2.3c0.5,0,1,0.1,1.4,0.3c0.8,0.4,1.6,1.3,1.6,1.6
		c0,0.1,0,0.3,0,0.4c0,0,0,0.1-0.1,0.1c-0.1,0-0.3-0.1-0.5-0.5c-0.9-1.3-2.6-1.6-3.9-0.8c-0.4,0.3-0.8,0.6-1,1.1
		c-0.4,1-0.1,2.1,0.6,2.9c1.3,1,3.1,0.9,4.1-0.4c0.1-0.1,0.3-0.3,0.3-0.4c0.3-0.5,0.6-0.6,0.6-0.3c0,0.6-0.8,1.5-1.9,2
		C27.6,23,26.8,23.1,26,22.8z"/>
	<path class="st2" d="M21.4,21.8c-1-0.1-1.6-0.9-1.8-1.8c-0.1-0.8,0.3-1.4,0.9-1.8c0.4-0.3,0.9-0.4,1.3-0.4c0.6,0,0.9,0,1,0.1
		c0.1,0.1,0,0.5-0.6,0.4s-1.1,0.1-1.6,0.5c-0.5,0.5-0.5,1.4,0.1,1.9c0.1,0.1,0.1,0.1,0.3,0.3c0.4,0.1,0.8,0.3,1.1,0.1
		c0.6,0,0.8,0,0.8,0.1c0,0.1,0,0.3,0,0.3C22.4,21.8,21.9,21.8,21.4,21.8z"/>
	<path class="st2" d="M26.8,21.6c-0.8-0.1-1.5-0.8-1.3-1.1c0.3-0.4,0.3-0.1,0.6,0.3c0.6,0.5,1.5,0.5,2.1-0.1
		c0.3-0.3,0.4-0.5,0.4-0.9s-0.1-0.6-0.4-0.9c-0.5-0.6-1.5-0.8-2.1-0.1l0,0c-0.5,0.5-1,0.3-0.5-0.4c0.9-0.9,2.1-0.9,3.1-0.1
		c0.8,0.8,0.8,2,0,2.8c-0.1,0.1-0.3,0.3-0.4,0.3C27.9,21.8,27.3,21.8,26.8,21.6z"/>
	<path class="st2" d="M10.3,17c0-0.1,0-0.3,0.1-0.4c0.8,0,1.4,0,2.1,0h2.1v0.5h-2.3h-2.3L10.3,17z"/>
	<path class="st2" d="M19.3,15.4l-0.8-0.9H15c-2,0-3.5,0-3.5-0.1c0.4-0.8,1-1.4,1.6-1.9c1.3-1.3,2.9-2.1,4.6-2.5
		c1.6-0.4,3.4-0.4,5,0c1.8,0.5,3.3,1.4,4.5,2.6c0.6,0.5,1.1,1.1,1.5,1.8c0,0-1.6,0.1-3.6,0.1h-3.5l-0.8,0.9L20,16.1
		C20,16.1,19.6,15.8,19.3,15.4z M20.5,14.4l0.5-0.5l-0.5-0.5L20,12.9l-0.5,0.5L19,13.9l0.5,0.5c0.1,0.1,0.4,0.4,0.5,0.5
		C20.1,14.6,20.4,14.5,20.5,14.4L20.5,14.4z M17.8,14c-0.9-0.1-1.6-0.1-2.5-0.1s-1.6,0-2.5,0.1c0.9,0.1,1.6,0.1,2.5,0.1
		S16.9,14.1,17.8,14L17.8,14z M27.1,14c-0.9-0.1-1.6-0.1-2.5-0.1c-0.9,0-1.6,0-2.5,0.1c0.9,0.1,1.6,0.1,2.5,0.1S26.4,14.1,27.1,14
		L27.1,14z"/>
	<path class="st2" d="M8.6,28.9c-0.4-0.4-0.8-0.9-1-1.4c0.3,0,0.4,0,0.6,0c0.4,0,0.5-0.1,0.8-0.4c0.3-0.2,0.3-0.4,0.5,0
		c0.1,0.3,0.4,0.5,0.5,0.8c0.4,0.5,0.4,0.5,0.3,0.8c-0.1,0.1-0.3,0.2-0.5,0.4C9.4,29.1,9,29.1,8.6,28.9z"/>
	<path class="st2" d="M30,28.8c-0.4-0.4-0.4-0.5,0.1-1.1c0.3-0.3,0.4-0.5,0.5-0.8s0.3-0.1,0.4,0.1c0.1,0.3,0.4,0.5,1,0.5
		c0.1,0,0.3,0,0.3,0c-0.1,0.4-0.4,0.8-0.8,1.1C31.1,29,31.1,29,30.6,29S30.1,29,30,28.8z"/>
	<path class="st2" d="M7.3,27.1c-0.4-0.5-0.6-0.9-0.9-1.5c0,0,0.2-0.1,0.5-0.1c0.4,0,0.6-0.3,0.9-0.5l0.4-0.4l0.4,0.8
		c0.1,0.3,0.3,0.6,0.4,1c0,0.3-0.9,0.8-1.1,0.8C7.6,27.3,7.5,27.1,7.3,27.1z"/>
	<path class="st2" d="M31.5,26.9c-0.6-0.4-0.6-0.5-0.3-1.3c0.1-0.4,0.4-0.8,0.4-0.9c0-0.1,0.1-0.3,0.3,0c0.5,0.8,0.6,0.8,1.1,0.8
		h0.5l-0.4,0.6c-0.1,0.3-0.4,0.6-0.5,0.9C32.3,27.1,31.9,27.1,31.5,26.9z"/>
	<path class="st2" d="M6,24.4c-0.1-0.3-0.2-0.6-0.2-0.9c0,0,0.2-0.1,0.5-0.1c0.5,0,0.6,0,0.9-0.4c0.1-0.1,0.2-0.3,0.4-0.4
		c0.1,0.3,0.3,0.6,0.3,0.9L8,24.4l-0.2,0.3C7.4,25,7,25.3,6.5,25.3C6.4,25.1,6.3,25.1,6,24.4z"/>
	<path class="st2" d="M32.5,24.9c-0.6-0.5-0.6-0.5-0.4-1.5c0-0.4,0.1-0.6,0.3-0.9c0.1,0.1,0.3,0.3,0.4,0.4c0.3,0.4,0.4,0.4,0.8,0.5
		c0.1,0,0.4,0,0.6,0c0.1,0,0.1,0-0.1,1L33.8,25h-0.4C33,25,32.8,25,32.5,24.9z"/>
	<path class="st2" d="M5.6,22.5c-0.1-0.8-0.1-1.4-0.1-2.1c-0.1-2.4,0.3-4.6,1.3-6.8c0.6-1.3,1.5-2.4,2.5-3.4c0.4,0,0.3,0.3-0.3,0.8
		c-2.2,2.8-3.4,6.3-3.1,9.9c0,0.6,0.1,1.4,0.1,1.5S5.8,22.8,5.6,22.5z"/>
	<path class="st2" d="M6.3,21.9c-0.1-1.5-0.1-3.1,0.1-4.8C6.8,15,7.8,13,9.1,11.3c0.5-0.5,0.8-0.6,0.8-0.4c0,0.4-0.1,0.5-0.4,0.6
		c-2.3,2.5-3.3,5.9-3,9.3c0,1.3,0,1.8-0.1,1.8S6.3,22.3,6.3,21.9z"/>
	<path class="st2" d="M34,22.4c0-0.3,0-0.5,0-0.8c0.3-2.1,0-4.3-0.6-6.3c-0.5-1.6-1.4-3.3-2.6-4.5c-0.4-0.5-0.5-0.8,0-0.6
		c0.8,0.8,1.4,1.6,2,2.6c1.4,2.5,2,5.4,1.8,8.3c0,0.5-0.1,0.9-0.1,1.4C34.3,22.5,34.1,22.5,34,22.4z"/>
	<path class="st2" d="M33.4,22.3c0,0,0-1.1,0-2.4c0.1-1.8-0.3-3.5-0.9-5.1c-0.5-1.3-1.3-2.4-2.3-3.5C30,11,30,10.8,30.1,10.8
		c0.8,0.5,1.3,1.3,1.8,2c1.4,2.4,2.1,5.1,2,7.9C33.9,21.9,33.8,22.3,33.4,22.3L33.4,22.3z"/>
	<path class="st2" d="M7,21.8c-0.3-1.8-0.1-3.5,0.4-5.1c0.1-0.8,0.5-1.6,0.9-2.3c0.9-1.8,2.3-3.5,2.3-2.8c-0.1,0.3-0.4,0.4-0.5,0.6
		c-1.9,2.4-2.9,5.4-2.8,8.4c0,1,0,1.4-0.1,1.4C7,22,7,21.9,7,21.8z"/>
	<path class="st2" d="M32.6,20.5c0.3-2.9-0.6-5.6-2.2-8c-0.3-0.4-0.5-0.6-0.8-1c-0.1,0-0.1-0.1-0.1-0.3c0-0.3,0.4-0.1,0.8,0.5
		c1.1,1.4,1.9,3,2.4,4.8c0.5,1.6,0.5,5.1,0.1,5.1C32.6,21.8,32.6,21.8,32.6,20.5z"/>
	<path class="st2" d="M10.5,10.3c-0.3-0.4-0.6-0.6-0.9-1c1-1,2.1-1.9,3.4-2.5s2.5-1.1,3.8-1.4C17.8,5,18.9,5,19.9,5
		c1.6-0.1,3.1,0.1,4.6,0.6c1.9,0.6,3.8,1.6,5.3,3l0.5,0.5l-1,1l-1,1l-0.4-0.4c-1.5-1.4-3.4-2.3-5.4-2.7c-1.8-0.3-3.5-0.3-5.1,0
		c-1.9,0.4-3.6,1.3-5.1,2.5c-0.4,0.4-0.6,0.6-0.6,0.6S11.1,10.8,10.5,10.3z"/>
</g>
</svg>
