<svg id="Layer_1" data-name="Layer 1" xmlns="http://www.w3.org/2000/svg" xmlns:xlink="http://www.w3.org/1999/xlink" viewBox="0 0 32 32"><defs><style>.cls-1{fill:#0255bc;}.cls-2{fill:url(#linear-gradient);}.cls-3{fill:#fff;}</style><linearGradient id="linear-gradient" x1="7.27" y1="33.12" x2="24.73" y2="2.88" gradientTransform="matrix(1, 0, 0, -1, 0, 34)" gradientUnits="userSpaceOnUse"><stop offset="0" stop-color="#fff" stop-opacity="0.5"/><stop offset="1" stop-color="#fff" stop-opacity="0"/></linearGradient></defs><title>tico</title><path class="cls-1" d="M20,32H12A12,12,0,0,1,0,20V12A12,12,0,0,1,12,0h8A12,12,0,0,1,32,12v8A12,12,0,0,1,20,32Z"/><path class="cls-2" d="M20,32H12A12,12,0,0,1,0,20V12A12,12,0,0,1,12,0h8A12,12,0,0,1,32,12v8A12,12,0,0,1,20,32Z"/><g id="logo"><path class="cls-3" d="M14.37,28A12.43,12.43,0,0,1,8,25l-.46-.43.89-.83.9-.83.68.53a9.66,9.66,0,0,0,12.07,0l.61-.48.83.82.84.82-.5.46a12.41,12.41,0,0,1-2.74,1.81A10.84,10.84,0,0,1,16.31,28,17.44,17.44,0,0,1,14.37,28Z"/><path class="cls-3" d="M14.87,25.31a9.7,9.7,0,0,1-7.25-5.08,12.38,12.38,0,0,1-.9-2.63,13.1,13.1,0,0,1,0-3.54,9.49,9.49,0,0,1,15.8-5,9.43,9.43,0,0,1,2.67,4.54,11.65,11.65,0,0,1,.12,4,9.41,9.41,0,0,1-1.52,3.68,12.92,12.92,0,0,1-2.45,2.45A9.54,9.54,0,0,1,14.87,25.31Zm3.5-1.12a8.52,8.52,0,0,0,6.14-8.61,8.59,8.59,0,0,0-6-7.73,8.83,8.83,0,0,0-6,.42,8.94,8.94,0,0,0-4.25,4.31,8.61,8.61,0,0,0,.16,7.16,8.5,8.5,0,0,0,5,4.35,6.45,6.45,0,0,0,2.83.35A6.67,6.67,0,0,0,18.37,24.19Z"/><path class="cls-3" d="M14.74,24.17a8.73,8.73,0,0,1-3.21-1.28A8,8,0,0,1,9.1,20.41,14.59,14.59,0,0,1,12,20.32h2.86l.49-.53.48-.53-3.65,0c-3.65,0-3.79,0-3.8-.29,0,0,3.46-.06,7.68-.06,7.27,0,7.68,0,7.65.15s-.28.14-3.76.17l-3.72,0,.54.55.55.55h2.86c1.58,0,2.87,0,2.87.05A9.28,9.28,0,0,1,21.7,22a8.61,8.61,0,0,1-3.52,2,6.46,6.46,0,0,1-1.95.23C15.5,24.19,14.83,24.19,14.74,24.17Zm1.66-2.88.37-.38-.4-.41L16,20.11l-.39.4-.39.42.38.37a2.49,2.49,0,0,0,.41.37A2.09,2.09,0,0,0,16.4,21.29Zm-2.21-.46a9.55,9.55,0,0,0-2-.09,9.62,9.62,0,0,0-2,.09,10.21,10.21,0,0,0,2,.08A10.14,10.14,0,0,0,14.19,20.83Zm7.55,0a9.55,9.55,0,0,0-2-.09,9.62,9.62,0,0,0-2,.09,10.21,10.21,0,0,0,2,.08A10.14,10.14,0,0,0,21.74,20.83Z"/><path class="cls-3" d="M8.71,19.8a1.71,1.71,0,0,1-.18-.47s1.61,0,3.53,0l3.5,0-.44.45-.44.44H8.93Z"/><path class="cls-3" d="M16.9,19.77l-.45-.47H20c1.95,0,3.54,0,3.54.07a2.72,2.72,0,0,1-.2.44l-.2.38-2.87,0H17.37Z"/><path class="cls-3" d="M9.25,18.31a13.87,13.87,0,0,1-.06-1.86V14.64l-.57,0c-.53,0-.58,0-.6-.21s0-.2.78-.2h.8l0,2a16.88,16.88,0,0,1-.05,2.08A.21.21,0,0,1,9.25,18.31Z"/><path class="cls-3" d="M10.08,18.27c0-.06,0-1,0-2.07l0-1.95.79,0c.49,0,.78,0,.79.07,0,.28,0,.29-.57.34l-.59,0,0,1.82c0,1.65-.06,1.82-.2,1.85A.17.17,0,0,1,10.08,18.27Z"/><path class="cls-3" d="M12.54,18.3s0-1.16,0-2.48c0-2.46,0-2.69.32-2.44a8.54,8.54,0,0,1,.09,2.52c0,2.18,0,2.42-.17,2.45A.19.19,0,0,1,12.54,18.3Z"/><path class="cls-3" d="M13.44,18.25a11.23,11.23,0,0,1-.08-2.48l0-2.36h.43l0,2.4a9.21,9.21,0,0,1-.08,2.49C13.6,18.39,13.55,18.38,13.44,18.25Z"/><path class="cls-3" d="M16.28,18.16a2.48,2.48,0,0,1-1.34-1.26,2.57,2.57,0,0,1,1.12-3.36,2.12,2.12,0,0,1,1.23-.26c.81,0,1.14.09,1.14.33s-.22.29-.45.17a3,3,0,0,0-1.73.17,1.9,1.9,0,0,0-1,1.88A1.9,1.9,0,0,0,16,17.47a2.07,2.07,0,0,0,1.62.37c.76,0,.81,0,.81.15C18.39,18.39,17.1,18.49,16.28,18.16Z"/><path class="cls-3" d="M20.84,18.2A2.51,2.51,0,0,1,19.24,15a2.37,2.37,0,0,1,2.5-1.77,2.21,2.21,0,0,1,1.12.23c.56.26,1.25,1,1.25,1.29a.75.75,0,0,0,0,.26s0,.08-.12.1-.23-.14-.39-.39A2.25,2.25,0,0,0,19.7,15a2.39,2.39,0,0,0,.48,2.33,2.34,2.34,0,0,0,3.52-.59c.23-.43.5-.52.5-.17,0,.52-.61,1.17-1.48,1.58A2.26,2.26,0,0,1,20.84,18.2Z"/><path class="cls-3" d="M17.12,17.36a1.53,1.53,0,0,1-1.39-1.44,1.46,1.46,0,0,1,.68-1.43,1.6,1.6,0,0,1,1.05-.26c.55,0,.71,0,.79.1s0,.36-.53.32a1.43,1.43,0,0,0-1.27.42,1.09,1.09,0,0,0,.29,1.69,1.44,1.44,0,0,0,.91.15c.5,0,.57,0,.59.13a.25.25,0,0,1,0,.22A1.92,1.92,0,0,1,17.12,17.36Z"/><path class="cls-3" d="M21.38,17.33c-.61-.12-1.2-.65-1-.91s.2-.11.55.17a1.19,1.19,0,0,0,2-.77.89.89,0,0,0-.27-.72A1.24,1.24,0,0,0,20.87,15c-.42.43-.75.23-.41-.25a1.81,1.81,0,0,1,2.45-.07,1.59,1.59,0,0,1-.26,2.48A1.91,1.91,0,0,1,21.38,17.33Z"/><path class="cls-3" d="M8.2,13.6a1.38,1.38,0,0,0,.05-.26,11.45,11.45,0,0,1,1.72,0l1.72,0v.42l-1.77,0-1.77,0Z"/><path class="cls-3" d="M15.39,12.25l-.62-.67H11.93c-1.56,0-2.83,0-2.83-.06A7.61,7.61,0,0,1,10.35,10a8.31,8.31,0,0,1,3.71-2,9.61,9.61,0,0,1,4,0,8.14,8.14,0,0,1,3.63,2.08,6.37,6.37,0,0,1,1.21,1.44s-1.29.05-2.87.05H17.2l-.58.68-.6.67S15.73,12.63,15.39,12.25Zm1-.79.37-.39-.4-.4-.4-.4-.39.4-.39.39.36.39a2.67,2.67,0,0,0,.41.39A2.09,2.09,0,0,0,16.4,11.46Zm-2.21-.3a9.55,9.55,0,0,0-2-.09,9.62,9.62,0,0,0-2,.09,10.21,10.21,0,0,0,2,.08A10.14,10.14,0,0,0,14.19,11.16Zm7.55,0a9.55,9.55,0,0,0-2-.09,9.62,9.62,0,0,0-2,.09,10.21,10.21,0,0,0,2,.08A10.14,10.14,0,0,0,21.74,11.16Z"/><path class="cls-3" d="M6.9,23.15a4.72,4.72,0,0,1-.77-1.08A1.38,1.38,0,0,1,6.56,22c.34,0,.44-.1.57-.31s.24-.31.37-.05a5.82,5.82,0,0,0,.41.57c.31.37.32.4.22.65a.79.79,0,0,1-.29.35A1.07,1.07,0,0,1,6.9,23.15Z"/><path class="cls-3" d="M24,23c-.31-.34-.31-.39.11-.94a6.92,6.92,0,0,0,.43-.62c.07-.18.17-.13.28.13s.34.35.82.35c.11,0,.2,0,.2,0a2.67,2.67,0,0,1-.57.9c-.27.3-.34.33-.69.33S24.1,23.16,24,23Z"/><path class="cls-3" d="M5.85,21.67A3.94,3.94,0,0,1,5.2,20.5c0-.05.18-.11.41-.13A.9.9,0,0,0,6.27,20l.26-.29.31.65a4.24,4.24,0,0,1,.31.77c0,.18-.67.63-.92.63A.92.92,0,0,1,5.85,21.67Z"/><path class="cls-3" d="M25.22,21.49c-.48-.32-.5-.42-.2-1,.14-.29.29-.61.32-.7s.07-.16.16,0c.42.56.45.58.89.6l.43,0-.26.51a2.66,2.66,0,0,1-.43.66A.74.74,0,0,1,25.22,21.49Z"/><path class="cls-3" d="M4.84,19.5a6.93,6.93,0,0,1-.23-.73s.2-.06.45-.06c.42,0,.46,0,.7-.34a1.39,1.39,0,0,1,.3-.34,4.18,4.18,0,0,1,.23.7l.17.7-.23.24a1.52,1.52,0,0,1-1,.48C5.09,20.15,5,20.06,4.84,19.5Z"/><path class="cls-3" d="M26,19.85c-.49-.35-.5-.38-.31-1.18a3.39,3.39,0,0,1,.22-.73,1.46,1.46,0,0,1,.29.34c.22.3.3.34.6.35a3.22,3.22,0,0,0,.45,0c.14,0,.14,0-.09.76L27,20l-.33,0A.88.88,0,0,1,26,19.85Z"/><path class="cls-3" d="M4.47,18a11.81,11.81,0,0,1-.1-1.66,10.89,10.89,0,0,1,1-5.4,8.12,8.12,0,0,1,2-2.68c.25,0,.2.16-.18.56a11,11,0,0,0-2.52,7.9c0,.55.07,1.08.07,1.16S4.56,18.16,4.47,18Z"/><path class="cls-3" d="M5,17.54a15.73,15.73,0,0,1,.09-3.75A10.24,10.24,0,0,1,7.29,9.12c.38-.41.62-.53.62-.31a.84.84,0,0,1-.26.36,10.2,10.2,0,0,0-2.44,7.37c0,1,0,1.35-.07,1.38S5,17.8,5,17.54Z"/><path class="cls-3" d="M27.21,17.86a1.79,1.79,0,0,1,0-.61,12.35,12.35,0,0,0-.47-5,10.44,10.44,0,0,0-2.07-3.61c-.33-.35-.36-.59-.05-.48a10.18,10.18,0,0,1,1.57,2.06,11.81,11.81,0,0,1,1.36,6.62,7.34,7.34,0,0,1-.14,1.06C27.4,18,27.28,18,27.21,17.86Z"/><path class="cls-3" d="M26.73,17.76s0-.89,0-1.94A8.69,8.69,0,0,0,26,11.75,9.77,9.77,0,0,0,24.25,9c-.24-.23-.29-.43-.1-.43a5,5,0,0,1,1.35,1.56,10.84,10.84,0,0,1,1.56,6.28c0,1.11-.1,1.4-.24,1.4Z"/><path class="cls-3" d="M5.59,17.37a10.22,10.22,0,0,1,.25-4.09,11.76,11.76,0,0,1,.72-1.82c.68-1.41,1.78-2.77,1.78-2.22A2,2,0,0,1,8,9.82,10,10,0,0,0,5.8,16.49c0,.75,0,1.06-.07,1.09S5.62,17.5,5.59,17.37Z"/><path class="cls-3" d="M26.12,16.39A9.8,9.8,0,0,0,24.28,10a8.78,8.78,0,0,0-.59-.76.23.23,0,0,1-.09-.18c0-.24.26-.1.64.37a10.9,10.9,0,0,1,1.91,3.84c.35,1.32.4,4.08.07,4.14C26.09,17.44,26.08,17.35,26.12,16.39Z"/><path class="cls-3" d="M8.45,8.2a7.23,7.23,0,0,1-.79-.84,9.33,9.33,0,0,1,2.71-2,13.25,13.25,0,0,1,3-1.1A8.77,8.77,0,0,1,15.93,4a9.91,9.91,0,0,1,3.73.52A13.27,13.27,0,0,1,23.87,6.9l.42.4-.8.8-.82.8-.31-.3a9.9,9.9,0,0,0-4.31-2.16,11.69,11.69,0,0,0-4.13,0,10,10,0,0,0-4.06,2c-.32.25-.59.46-.61.46S8.87,8.61,8.45,8.2Z"/></g></svg>