<?xml version="1.0" encoding="utf-8"?>
<!-- Generator: Adobe Illustrator 24.0.1, SVG Export Plug-In . SVG Version: 6.00 Build 0)  -->
<svg version="1.1" id="Layer_1" xmlns="http://www.w3.org/2000/svg" xmlns:xlink="http://www.w3.org/1999/xlink" x="0px" y="0px"
	 width="40px" height="40px" viewBox="0 0 40 40" style="enable-background:new 0 0 40 40;" xml:space="preserve">
<style type="text/css">
	.st0{fill:#A1A3AA;}
</style>
<g id="logo">
	<path class="st0" d="M17.3,40c-4-0.7-7.7-2.4-10.7-5.1l-0.8-0.7l1.5-1.3l1.5-1.3l1.2,0.8c5.9,4.7,14.1,4.7,20.1,0l1.1-0.8l1.3,1.3
		l1.3,1.3L33,35.1c-1.3,1.2-2.9,2.1-4.5,3.1c-2.5,1.2-5.2,1.9-8,1.9C19.4,40,18.3,40,17.3,40z"/>
	<path class="st0" d="M18.1,35.5c-5.2-0.7-9.7-3.9-12.1-8.5c-0.7-1.3-1.2-2.8-1.5-4.4c-0.4-2-0.4-4,0-5.9c1.9-8.5,10.1-14,18.7-12.4
		c2.8,0.7,5.5,2,7.7,4c2.1,2,3.7,4.7,4.5,7.5c0.5,2.1,0.5,4.5,0.1,6.7s-1.3,4.4-2.5,6.1c-1.2,1.5-2.5,2.8-4.1,4.1
		C25.6,35.1,21.8,36,18.1,35.5z M23.9,33.7c6.3-1.9,10.5-7.9,10.1-14.4c-0.4-6-4.4-11.2-10-12.8c-3.3-1.1-6.8-0.7-10,0.7
		c-3.2,1.5-5.7,4-7.2,7.2c-1.7,3.9-1.5,8.1,0.4,12c1.7,3.5,4.7,6,8.4,7.3c1.5,0.5,3.2,0.7,4.7,0.7C21.7,34.1,22.7,34,23.9,33.7z"/>
	<path class="st0" d="M17.8,33.7c-1.9-0.4-3.7-1.1-5.3-2.1c-1.7-1.1-3.1-2.5-4-4.1c1.7-0.1,3.2-0.4,4.8-0.1h4.8l0.8-0.8l0.8-0.8
		h-6.1c-6,0-6.4,0-6.4-0.5c0,0,5.9-0.1,12.8-0.1c12.1,0,12.8,0,12.7,0.1c-0.1,0.1-0.5,0.1-6.3,0.4h-6.1l0.8,0.8l0.8,0.8h4.8
		c2.7,0,4.8,0,4.8,0c-0.7,1.1-1.3,1.9-2.1,2.7c-1.7,1.5-3.7,2.7-5.9,3.3c-0.8,0.1-2,0.3-3.2,0.1C19.1,33.7,17.9,33.7,17.8,33.7z
		 M20.6,28.8l0.7-0.7l-0.7-0.7l-0.7-0.7l-0.7,0.7l-0.7,0.7l0.7,0.7c0.1,0.1,0.5,0.5,0.7,0.7C20.3,29.3,20.5,29.1,20.6,28.8z M17,28
		c-1.2-0.1-2.1-0.1-3.3-0.1s-2.1,0-3.3,0.1c1.2,0.1,2.1,0.1,3.3,0.1S15.8,28.1,17,28z M29.4,28c-1.2-0.1-2.1-0.1-3.3-0.1
		s-2.1,0-3.3,0.1c1.2,0.1,2.1,0.1,3.3,0.1S28.4,28.1,29.4,28z"/>
	<path class="st0" d="M7.8,26.4c-0.1-0.1-0.1-0.5-0.4-0.8c0,0,2.7,0,5.9,0h5.9l-0.7,0.8l-0.7,0.7H8.1L7.8,26.4z"/>
	<path class="st0" d="M21.4,26.4l-0.8-0.8h6c3.3,0,5.9,0,5.9,0.1c-0.1,0.4-0.1,0.5-0.4,0.7l-0.4,0.7h-4.8H22L21.4,26.4z"/>
	<path class="st0" d="M8.7,23.9c-0.1-1.1-0.1-2-0.1-3.2v-3.1H7.5c-0.8,0-1.1,0-1.1-0.4s0-0.4,1.3-0.4h1.3v3.3c0,1.2,0,2.4-0.1,3.5
		C9.1,24,8.7,24,8.7,23.9L8.7,23.9z"/>
	<path class="st0" d="M10.1,23.9c0-0.1,0-1.7,0-3.5v-3.2h1.3c0.8,0,1.3,0,1.3,0.1c0,0.5,0,0.5-1.1,0.5h-1.1v3.1
		c0,2.7-0.1,3.1-0.4,3.2C10.3,24,10.1,23.9,10.1,23.9z"/>
	<path class="st0" d="M14.1,23.9c0,0,0-2,0-4.1c0-4.1,0-4.5,0.5-4c0.4,1.3,0.4,2.8,0.1,4.1c0,3.7,0,4-0.3,4.1
		C14.5,24,14.3,24,14.1,23.9z"/>
	<path class="st0" d="M15.7,23.9c-0.1-1.3-0.1-2.8-0.1-4.1v-4h0.7v4c0.1,1.3,0.1,2.8-0.1,4.1C15.9,24,15.9,24,15.7,23.9z"/>
	<path class="st0" d="M20.5,23.7c-1.1-0.4-1.9-1.2-2.1-2.1c-1.1-2-0.1-4.5,1.9-5.7c0.7-0.4,1.3-0.5,2-0.5c1.3,0,1.9,0.1,1.9,0.5
		c0,0.4-0.4,0.5-0.8,0.4c-1.1-0.1-2-0.1-2.8,0.4c-1.2,0.7-1.9,1.9-1.7,3.2c0,1.1,0.4,2.1,1.3,2.7c0.8,0.5,1.9,0.8,2.7,0.7
		c1.3,0,1.3,0,1.3,0.1C23.9,24,21.8,24.1,20.5,23.7z"/>
	<path class="st0" d="M27.9,23.7c-2.1-0.7-3.3-2.9-2.7-5.3l0,0c0.5-1.9,2.1-3.2,4.1-3.1c0.7,0,1.3,0.1,1.9,0.4
		c1.1,0.5,2.1,1.7,2.1,2.1c0,0.1,0,0.4,0,0.5c0,0,0,0.1-0.1,0.1c-0.1,0-0.4-0.1-0.7-0.7c-1.2-1.7-3.5-2.1-5.2-1.1
		c-0.5,0.4-1.1,0.8-1.3,1.5c-0.5,1.3-0.1,2.8,0.8,3.9c1.7,1.3,4.1,1.2,5.5-0.5c0.1-0.1,0.4-0.4,0.4-0.5c0.4-0.7,0.8-0.8,0.8-0.4
		c0,0.8-1.1,2-2.5,2.7C30,24,29,24.1,27.9,23.7z"/>
	<path class="st0" d="M21.8,22.4c-1.3-0.1-2.1-1.2-2.4-2.4c-0.1-1.1,0.4-1.9,1.2-2.4c0.5-0.4,1.2-0.5,1.7-0.5c0.8,0,1.2,0,1.3,0.1
		s0,0.7-0.8,0.5c-0.8-0.1-1.5,0.1-2.1,0.7c-0.7,0.7-0.7,1.9,0.1,2.5c0.1,0.1,0.1,0.1,0.4,0.4c0.5,0.1,1.1,0.4,1.5,0.1
		c0.8,0,1.1,0,1.1,0.1s0,0.4,0,0.4C23.1,22.4,22.4,22.4,21.8,22.4z"/>
	<path class="st0" d="M29,22.1c-1.1-0.1-2-1.1-1.7-1.5c0.4-0.5,0.4-0.1,0.8,0.4c0.8,0.7,2,0.7,2.8-0.1c0.4-0.4,0.5-0.7,0.5-1.2
		s-0.1-0.8-0.5-1.2c-0.7-0.8-2-1.1-2.8-0.1l0,0c-0.7,0.7-1.3,0.4-0.7-0.5c1.2-1.2,2.8-1.2,4.1-0.1c1.1,1.1,1.1,2.7,0,3.7
		c-0.1,0.1-0.4,0.4-0.5,0.4C30.4,22.4,29.6,22.4,29,22.1z"/>
	<path class="st0" d="M7,16c0-0.1,0-0.4,0.1-0.5c1.1,0,1.9,0,2.8,0h2.8v0.7H9.7H6.6L7,16z"/>
	<path class="st0" d="M19,13.9l-1.1-1.2h-4.7c-2.7,0-4.7,0-4.7-0.1c0.5-1.1,1.3-1.9,2.1-2.5c1.7-1.7,3.9-2.8,6.1-3.3
		c2.1-0.5,4.5-0.5,6.7,0c2.4,0.7,4.4,1.9,6,3.5c0.8,0.7,1.5,1.5,2,2.4c0,0-2.1,0.1-4.8,0.1H22L21,13.9l-1.1,0.9
		C19.9,14.8,19.4,14.4,19,13.9z M20.6,12.6l0.7-0.7l-0.7-0.7l-0.7-0.7l-0.7,0.7l-0.7,0.7l0.7,0.7c0.1,0.1,0.5,0.5,0.7,0.7
		C20.1,12.8,20.5,12.7,20.6,12.6L20.6,12.6z M17,12c-1.2-0.1-2.1-0.1-3.3-0.1s-2.1,0-3.3,0.1c1.2,0.1,2.1,0.1,3.3,0.1
		S15.8,12.2,17,12L17,12z M29.4,12c-1.2-0.1-2.1-0.1-3.3-0.1s-2.1,0-3.3,0.1c1.2,0.1,2.1,0.1,3.3,0.1S28.4,12.2,29.4,12L29.4,12z"/>
	<path class="st0" d="M4.7,31.9c-0.5-0.5-1.1-1.2-1.3-1.9c0.4,0,0.5,0,0.8,0c0.5,0,0.7-0.1,1.1-0.5c0.4-0.3,0.4-0.5,0.7,0
		c0.1,0.4,0.5,0.7,0.7,1.1c0.5,0.7,0.5,0.7,0.4,1.1c-0.1,0.1-0.4,0.3-0.7,0.5C5.8,32.1,5.3,32.1,4.7,31.9z"/>
	<path class="st0" d="M33.2,31.7c-0.5-0.5-0.5-0.7,0.1-1.5c0.4-0.4,0.5-0.7,0.7-1.1s0.4-0.1,0.5,0.1c0.1,0.4,0.5,0.7,1.3,0.7
		c0.1,0,0.4,0,0.4,0c-0.1,0.5-0.5,1.1-1.1,1.5C34.7,32,34.7,32,34,32S33.4,32,33.2,31.7z"/>
	<path class="st0" d="M3,29.5c-0.5-0.7-0.8-1.2-1.2-2c0,0,0.3-0.1,0.7-0.1c0.5,0,0.8-0.4,1.2-0.7l0.5-0.5l0.5,1.1
		c0.1,0.4,0.4,0.8,0.5,1.3c0,0.4-1.2,1.1-1.5,1.1C3.4,29.7,3.3,29.5,3,29.5z"/>
	<path class="st0" d="M35.2,29.2c-0.8-0.5-0.8-0.7-0.4-1.7c0.1-0.5,0.5-1.1,0.5-1.2s0.1-0.4,0.4,0c0.7,1.1,0.8,1.1,1.5,1.1h0.7
		l-0.5,0.8c-0.1,0.4-0.5,0.8-0.7,1.2C36.3,29.5,35.8,29.5,35.2,29.2z"/>
	<path class="st0" d="M1.3,25.9C1.1,25.5,1,25.1,1,24.7c0,0,0.3-0.1,0.7-0.1c0.7,0,0.8,0,1.2-0.5c0.1-0.1,0.3-0.4,0.5-0.5
		c0.1,0.4,0.4,0.8,0.4,1.2l0.1,1.2l-0.3,0.4c-0.5,0.4-1.1,0.8-1.7,0.8C1.8,26.8,1.7,26.8,1.3,25.9z"/>
	<path class="st0" d="M36.6,26.5c-0.8-0.7-0.8-0.7-0.5-2c0-0.5,0.1-0.8,0.4-1.2c0.1,0.1,0.4,0.4,0.5,0.5c0.4,0.5,0.5,0.5,1.1,0.7
		c0.1,0,0.5,0,0.8,0c0.1,0,0.1,0-0.1,1.3l-0.4,0.8h-0.5C37.2,26.7,37,26.7,36.6,26.5z"/>
	<path class="st0" d="M0.7,23.3c-0.1-1.1-0.1-1.9-0.1-2.8c-0.1-3.2,0.4-6.1,1.7-9.1c0.8-1.7,2-3.2,3.3-4.5C6.2,7,6.1,7.4,5.3,8
		c-2.9,3.7-4.5,8.4-4.1,13.2c0,0.8,0.1,1.9,0.1,2S1,23.7,0.7,23.3z"/>
	<path class="st0" d="M1.7,22.5c-0.1-2-0.1-4.1,0.1-6.4c0.5-2.8,1.9-5.5,3.6-7.7c0.7-0.7,1.1-0.8,1.1-0.5c0,0.5-0.1,0.7-0.5,0.8
		c-3.1,3.3-4.4,7.9-4,12.4c0,1.7,0,2.4-0.1,2.4S1.7,23.1,1.7,22.5z"/>
	<path class="st0" d="M38.6,23.2c0-0.4,0-0.7,0-1.1c0.4-2.8,0-5.7-0.8-8.4c-0.7-2.1-1.9-4.4-3.5-6c-0.5-0.7-0.7-1.1,0-0.8
		c1.1,1.1,1.9,2.1,2.7,3.5c1.9,3.3,2.7,7.2,2.4,11.1c0,0.7-0.1,1.2-0.1,1.9C39,23.3,38.7,23.3,38.6,23.2z"/>
	<path class="st0" d="M37.8,23.1c0,0,0-1.5,0-3.2c0.1-2.4-0.4-4.7-1.2-6.8c-0.7-1.7-1.7-3.2-3.1-4.7c-0.3-0.4-0.3-0.7-0.1-0.7
		c1.1,0.7,1.7,1.7,2.4,2.7c1.9,3.2,2.8,6.8,2.7,10.5C38.4,22.5,38.3,23.1,37.8,23.1L37.8,23.1z"/>
	<path class="st0" d="M2.6,22.4c-0.4-2.4-0.1-4.7,0.5-6.8c0.1-1.1,0.7-2.1,1.2-3.1c1.2-2.4,3.1-4.7,3.1-3.7C7.3,9.2,6.9,9.4,6.7,9.6
		C4.2,12.8,2.9,16.8,3,20.8c0,1.3,0,1.9-0.1,1.9C2.6,22.7,2.6,22.5,2.6,22.4z"/>
	<path class="st0" d="M36.7,20.7c0.4-3.9-0.8-7.5-2.9-10.7c-0.4-0.5-0.7-0.8-1.1-1.3c-0.1,0-0.1-0.1-0.1-0.4c0-0.4,0.5-0.1,1.1,0.7
		c1.5,1.9,2.5,4,3.2,6.4c0.7,2.1,0.7,6.8,0.1,6.8C36.7,22.4,36.7,22.4,36.7,20.7z"/>
	<path class="st0" d="M7.3,7.1C6.9,6.6,6.5,6.3,6.1,5.8c1.3-1.3,2.8-2.5,4.5-3.3s3.3-1.5,5.1-1.9C17,0,18.5,0,19.8,0
		c2.1-0.1,4.1,0.1,6.1,0.8C28.4,1.6,31,3,33,4.8l0.7,0.7l-1.3,1.3L31,8.2l-0.5-0.5c-2-1.9-4.5-3.1-7.2-3.6c-2.4-0.4-4.7-0.4-6.8,0
		c-2.5,0.5-4.8,1.7-6.8,3.3C9.1,7.9,8.9,8.2,8.9,8.2S8.1,7.8,7.3,7.1z"/>
</g>
</svg>
