<?xml version="1.0" encoding="utf-8"?>
<!-- Generator: Adobe Illustrator 24.0.1, SVG Export Plug-In . SVG Version: 6.00 Build 0)  -->
<svg version="1.1" id="Layer_1" xmlns="http://www.w3.org/2000/svg" xmlns:xlink="http://www.w3.org/1999/xlink" x="0px" y="0px"
	 width="40px" height="40px" viewBox="0 0 40 40" style="enable-background:new 0 0 40 40;" xml:space="preserve">
<style type="text/css">
	.st0{fill:#D61719;}
	.st1{fill:url(#SVGID_1_);}
	.st2{fill:#FFFFFF;}
</style>
<path class="st0" d="M25,40H15C6.8,40,0,33.3,0,25V15C0,6.8,6.8,0,15,0h10c8.3,0,15,6.8,15,15v10C40,33.3,33.3,40,25,40z"/>
<linearGradient id="SVGID_1_" gradientUnits="userSpaceOnUse" x1="9.0907" y1="40.8954" x2="30.9093" y2="3.1046" gradientTransform="matrix(1 0 0 -1 0 42)">
	<stop  offset="0" style="stop-color:#FFFFFF;stop-opacity:0.5"/>
	<stop  offset="1" style="stop-color:#FFFFFF;stop-opacity:0"/>
</linearGradient>
<path class="st1" d="M25,40H15C6.8,40,0,33.3,0,25V15C0,6.8,6.8,0,15,0h10c8.3,0,15,6.8,15,15v10C40,33.3,33.3,40,25,40z"/>
<path class="st2" d="M13.1,21.4C10.1,13.9,7.9,7.6,8,7.5c0.1-0.1,5,0.6,10.8,1.6L29.3,11l2.8,2.8l2.6,2.8L27,25.8
	c-4.3,5.1-7.8,9.3-8,9.3S16.1,28.9,13.1,21.4z M19.5,24.1c0.4-3,0.6-5.5,0.5-5.5s-1.8-1.4-3.6-2.9c-5.4-4.5-5.1-4.2-4.4-2.6
	c0.4,0.8,2,4.9,3.6,9s3,7.5,3.1,7.5C18.8,29.5,19.1,27.1,19.5,24.1z M25.9,23.9c2.6-3.1,4.6-5.8,4.6-5.9c-0.1-0.1-8,1.3-8.3,1.4
	C22,19.5,21,27.5,21,28.9c0,0.5,0.1,0.9,0.1,0.9C21.1,29.6,23.3,27,25.9,23.9z M28.3,16.4l2.8-0.5l-1.3-1.3
	c-1.4-1.4-1.5-1.4-4.5,1.4c-1,0.9-1.3,1.3-0.6,1C25.1,16.9,26.8,16.6,28.3,16.4z M23.8,14.6c1.4-1.1,2.4-2.1,2.1-2.3
	c-1.4-0.4-12.1-2.1-12.4-2.1c-0.4,0.1,6.9,6.4,7.4,6.4C21,16.8,22.3,15.8,23.8,14.6z"/>
</svg>
