<?xml version="1.0" encoding="utf-8"?>
<!-- Generator: Adobe Illustrator 24.0.1, SVG Export Plug-In . SVG Version: 6.00 Build 0)  -->
<svg version="1.1" id="Layer_1" xmlns="http://www.w3.org/2000/svg" xmlns:xlink="http://www.w3.org/1999/xlink" x="0px" y="0px"
	 width="40px" height="40px" viewBox="0 0 40 40" style="enable-background:new 0 0 40 40;" xml:space="preserve">
<style type="text/css">
	.st0{fill:#A1A3AA;}
</style>
<path class="st0" d="M8,20.2C3.7,9.3,0.5,0.2,0.7,0c0.1-0.1,7.2,0.9,15.6,2.3l15.2,2.8l4.1,4.1l3.8,4.1L28.2,26.5
	C22,33.9,16.9,40,16.6,40S12.4,31,8,20.2z M17.3,24.1c0.6-4.3,0.9-8,0.7-8c-0.1,0-2.6-2-5.2-4.2C5,5.4,5.4,5.8,6.5,8.1
	c0.6,1.2,2.9,7.1,5.2,13S16,32,16.2,32C16.3,31.9,16.7,28.4,17.3,24.1z M26.6,23.8c3.8-4.5,6.7-8.4,6.7-8.5c-0.1-0.1-11.6,1.9-12,2
	C20.9,17.4,19.5,29,19.5,31c0,0.7,0.1,1.3,0.1,1.3C19.6,32,22.8,28.3,26.6,23.8z M30.1,12.9l4.1-0.7l-1.9-1.9c-2-2-2.2-2-6.5,2
	c-1.4,1.3-1.9,1.9-0.9,1.4C25.4,13.6,27.9,13.2,30.1,12.9z M23.6,10.3c2-1.6,3.5-3,3-3.3c-2-0.6-17.5-3-18-3
	c-0.6,0.1,10,9.3,10.7,9.3C19.5,13.5,21.4,12,23.6,10.3z"/>
</svg>
