<?xml version="1.0" encoding="utf-8"?>
<!-- Generator: Adobe Illustrator 23.0.0, SVG Export Plug-In . SVG Version: 6.00 Build 0)  -->
<svg version="1.1" id="Layer_1" xmlns="http://www.w3.org/2000/svg" xmlns:xlink="http://www.w3.org/1999/xlink" x="0px" y="0px"
	 width="32px" height="32px" viewBox="0 0 32 32" style="enable-background:new 0 0 32 32;" xml:space="preserve">
<style type="text/css">
	.st0{fill:#228D57;}
	.st1{fill:url(#SVGID_1_);}
	.st2{fill:#FFFFFF;}
</style>
<path class="st0" d="M20,32h-8C5.4,32,0,26.6,0,20v-8C0,5.4,5.4,0,12,0h8c6.6,0,12,5.4,12,12v8C32,26.6,26.6,32,20,32z"/>
<linearGradient id="SVGID_1_" gradientUnits="userSpaceOnUse" x1="7.2726" y1="33.1163" x2="24.7274" y2="2.8837" gradientTransform="matrix(1 0 0 -1 0 34)">
	<stop  offset="0" style="stop-color:#FFFFFF;stop-opacity:0.45"/>
	<stop  offset="1" style="stop-color:#FFFFFF;stop-opacity:0"/>
</linearGradient>
<path class="st1" d="M20,32h-8C5.4,32,0,26.6,0,20v-8C0,5.4,5.4,0,12,0h8c6.6,0,12,5.4,12,12v8C32,26.6,26.6,32,20,32z"/>
<g>
	<path class="st2" d="M14.4,28v-2.8c-2-0.1-3.9-0.6-5-1.2l0.9-3.4c1.2,0.7,3,1.3,4.9,1.3c1.7,0,2.9-0.7,2.9-1.8c0-1.1-1-1.8-3.1-2.6
		c-3.1-1.1-5.3-2.5-5.3-5.4c0-2.6,1.8-4.6,5-5.2V4h2.9v2.6c2,0.1,3.3,0.5,4.3,1l-0.9,3.3c-0.7-0.4-2.1-1-4.2-1
		c-1.9,0-2.5,0.9-2.5,1.7c0,0.9,1,1.6,3.5,2.5c3.5,1.2,4.9,2.9,4.9,5.5c0,2.6-1.8,4.8-5.2,5.4v3H14.4z"/>
</g>
</svg>
