<?xml version="1.0" encoding="utf-8"?>
<!-- Generator: Adobe Illustrator 24.0.1, SVG Export Plug-In . SVG Version: 6.00 Build 0)  -->
<svg version="1.1" id="Layer_1" xmlns="http://www.w3.org/2000/svg" xmlns:xlink="http://www.w3.org/1999/xlink" x="0px" y="0px"
	 width="40px" height="40px" viewBox="0 0 40 40" style="enable-background:new 0 0 40 40;" xml:space="preserve">
<style type="text/css">
	.st0{fill:#A1A3AA;}
</style>
<g>
	<path class="st0" d="M17.2,40v-4.7c-3.3-0.1-6.5-1.1-8.4-2l1.5-5.7c2,1.2,5.1,2.1,8.1,2.1c2.8,0,4.8-1.2,4.8-3.1
		c0-1.9-1.7-2.9-5.2-4.4c-5.2-1.9-8.8-4.1-8.8-9.1c0-4.4,3.1-7.6,8.4-8.7V0h4.9v4.4c3.3,0.1,5.5,0.8,7.2,1.7l-1.5,5.5
		c-1.2-0.7-3.5-1.7-6.9-1.7c-3.2,0-4.1,1.5-4.1,2.8c0,1.5,1.7,2.7,5.9,4.1c5.9,2,8.1,4.8,8.1,9.2s-2.9,8-8.7,9.1V40
		C22.4,40,17.2,40,17.2,40z"/>
</g>
</svg>
