<?xml version="1.0" encoding="utf-8"?>
<!-- Generator: Adobe Illustrator 24.0.1, SVG Export Plug-In . SVG Version: 6.00 Build 0)  -->
<svg version="1.1" id="Layer_1" xmlns="http://www.w3.org/2000/svg" xmlns:xlink="http://www.w3.org/1999/xlink" x="0px" y="0px"
	 width="40px" height="40px" viewBox="0 0 40 40" style="enable-background:new 0 0 40 40;" xml:space="preserve">
<style type="text/css">
	.st0{fill:#A1A3AA;}
</style>
<path class="st0" d="M27.3,23.9c0-3.8-2.4-5.2-7-5.8c-3.3-0.5-4-1.3-4-2.8s1.2-2.5,3.3-2.5c2,0,3.2,0.7,3.7,2.3
	c0.1,0.4,0.5,0.5,0.8,0.5H26c0.5,0,0.8-0.4,0.8-0.8v-0.1c-0.5-2.5-2.5-4.4-5-4.5V7.5c0-0.5-0.4-0.8-0.8-0.8h-1.7
	c-0.5,0-0.8,0.4-0.8,0.8V10c-3.3,0.5-5.4,2.6-5.4,5.4c0,3.7,2.1,5.2,6.8,5.7c3.2,0.5,4.1,1.2,4.1,2.9c0,1.7-1.5,3-3.7,3
	c-2.8,0-3.8-1.2-4.1-2.8c0-0.7-0.3-0.8-0.7-0.8h-1.9c-0.5,0-0.8,0.4-0.8,0.8v0.1c0.5,2.8,2.1,4.8,5.8,5.3v2.6c0,0.5,0.4,0.8,0.8,0.8
	h1.7c0.5,0,0.8-0.4,0.8-0.8v-2.6C25.2,29.2,27.3,26.8,27.3,23.9L27.3,23.9z"/>
<path class="st0" d="M14.4,35.4c-8.6-3.2-13-12.6-9.8-21.2c1.7-4.6,5.3-8.1,9.8-9.8C15,4,15.1,3.8,15.1,3.2V1.8
	C15.1,1.3,15,1,14.4,1c-0.1,0-0.3,0-0.5,0.1C3.4,4.4-2.4,15.6,0.9,26c2,6.1,6.8,11,13,13c0.5,0.1,0.8,0,1.1-0.5
	c0.1-0.1,0.1-0.1,0.1-0.5v-1.5C15.1,36.1,14.7,35.6,14.4,35.4z M26.1,1c-0.5-0.1-0.8,0-1.1,0.5c-0.1,0-0.1,0.1-0.1,0.3v1.5
	c0,0.5,0.4,0.8,0.7,1.2c8.6,3.2,13,12.6,9.8,21.2c-1.7,4.6-5.3,8.1-9.8,9.8c-0.5,0.4-0.7,0.7-0.7,1.2v1.5c0,0.5,0.1,0.8,0.7,0.8
	c0.1,0,0.4,0,0.5-0.1c10.5-3.3,16.3-14.4,13-24.9C37,7.7,32.1,3,26.1,1L26.1,1z"/>
</svg>
