<?xml version="1.0" encoding="utf-8"?>
<!-- Generator: Adobe Illustrator 24.0.1, SVG Export Plug-In . SVG Version: 6.00 Build 0)  -->
<svg version="1.1" id="Layer_1" xmlns="http://www.w3.org/2000/svg" xmlns:xlink="http://www.w3.org/1999/xlink" x="0px" y="0px"
	 width="40px" height="40px" viewBox="0 0 40 40" style="enable-background:new 0 0 40 40;" xml:space="preserve">
<style type="text/css">
	.st0{fill:#2775CA;}
	.st1{fill:url(#SVGID_1_);}
	.st2{fill:#FFFFFF;}
</style>
<path class="st0" d="M25,40H15C6.8,40,0,33.3,0,25V15C0,6.8,6.8,0,15,0h10c8.3,0,15,6.8,15,15v10C40,33.3,33.3,40,25,40z"/>
<linearGradient id="SVGID_1_" gradientUnits="userSpaceOnUse" x1="9.0907" y1="40.8954" x2="30.9093" y2="3.1046" gradientTransform="matrix(1 0 0 -1 0 42)">
	<stop  offset="0" style="stop-color:#FFFFFF;stop-opacity:0.5"/>
	<stop  offset="1" style="stop-color:#FFFFFF;stop-opacity:0"/>
</linearGradient>
<path class="st1" d="M25,40H15C6.8,40,0,33.3,0,25V15C0,6.8,6.8,0,15,0h10c8.3,0,15,6.8,15,15v10C40,33.3,33.3,40,25,40z"/>
<path class="st2" d="M25.5,23.3c0-2.9-1.8-3.9-5.3-4.4c-2.5-0.4-3-1-3-2.1s0.9-1.9,2.5-1.9c1.5,0,2.4,0.5,2.8,1.7
	c0.1,0.3,0.4,0.4,0.6,0.4h1.4c0.4,0,0.6-0.3,0.6-0.6v-0.1c-0.4-1.9-1.9-3.3-3.8-3.4v-2c0-0.4-0.3-0.6-0.6-0.6h-1.3
	c-0.4,0-0.6,0.3-0.6,0.6v1.9c-2.5,0.4-4.1,2-4.1,4.1c0,2.8,1.6,3.9,5.1,4.3c2.4,0.4,3.1,0.9,3.1,2.2s-1.1,2.3-2.8,2.3
	c-2.1,0-2.9-0.9-3.1-2.1C17,23.1,16.8,23,16.5,23h-1.4c-0.4,0-0.6,0.3-0.6,0.6v0.1c0.4,2.1,1.6,3.6,4.4,4v2c0,0.4,0.3,0.6,0.6,0.6
	h1.3c0.4,0,0.6-0.3,0.6-0.6v-2C23.9,27.3,25.5,25.5,25.5,23.3L25.5,23.3z"/>
<path class="st2" d="M15.8,32C9.3,29.6,6,22.5,8.4,16c1.3-3.5,4-6.1,7.4-7.4c0.4-0.3,0.5-0.5,0.5-0.9V6.6c0-0.4-0.1-0.6-0.5-0.6
	c-0.1,0-0.2,0-0.4,0.1C7.5,8.6,3.1,17,5.6,24.9c1.5,4.6,5.1,8.3,9.8,9.8c0.4,0.1,0.6,0,0.8-0.4c0.1-0.1,0.1-0.1,0.1-0.4v-1.1
	C16.3,32.5,16,32.1,15.8,32z M24.6,6c-0.4-0.1-0.6,0-0.8,0.4c-0.1,0-0.1,0.1-0.1,0.2v1.1c0,0.4,0.3,0.6,0.5,0.9
	c6.5,2.4,9.8,9.5,7.4,16c-1.3,3.5-4,6.1-7.4,7.4c-0.4,0.3-0.5,0.5-0.5,0.9V34c0,0.4,0.1,0.6,0.5,0.6c0.1,0,0.3,0,0.4-0.1
	c7.9-2.5,12.3-10.9,9.8-18.8C32.8,11.1,29.1,7.5,24.6,6L24.6,6z"/>
</svg>
