<?xml version="1.0" encoding="utf-8"?>
<!-- Generator: Adobe Illustrator 23.0.0, SVG Export Plug-In . SVG Version: 6.00 Build 0)  -->
<svg version="1.1" id="Layer_1" xmlns="http://www.w3.org/2000/svg" xmlns:xlink="http://www.w3.org/1999/xlink" x="0px" y="0px"
	 width="32px" height="32px" viewBox="0 0 32 32" style="enable-background:new 0 0 32 32;" xml:space="preserve">
<style type="text/css">
	.st0{fill:#2775CA;}
	.st1{fill:url(#SVGID_1_);}
	.st2{fill:#FFFFFF;}
</style>
<path class="st0" d="M20,32h-8C5.4,32,0,26.6,0,20v-8C0,5.4,5.4,0,12,0h8c6.6,0,12,5.4,12,12v8C32,26.6,26.6,32,20,32z"/>
<linearGradient id="SVGID_1_" gradientUnits="userSpaceOnUse" x1="7.2681" y1="0.8759" x2="24.7319" y2="31.1241">
	<stop  offset="0" style="stop-color:#FFFFFF;stop-opacity:0.5"/>
	<stop  offset="1" style="stop-color:#FFFFFF;stop-opacity:0"/>
</linearGradient>
<path class="st1" d="M20,32h-8C5.4,32,0,26.6,0,20v-8C0,5.4,5.4,0,12,0h8c6.6,0,12,5.4,12,12v8C32,26.6,26.6,32,20,32z"/>
<path class="st2" d="M20.4,18.6c0-2.3-1.4-3.1-4.2-3.5c-2-0.3-2.4-0.8-2.4-1.7c0-0.9,0.7-1.5,2-1.5c1.2,0,1.9,0.4,2.2,1.4
	c0.1,0.2,0.3,0.3,0.5,0.3h1.1c0.3,0,0.5-0.2,0.5-0.5v-0.1c-0.3-1.5-1.5-2.6-3-2.7V8.7c0-0.3-0.2-0.5-0.5-0.5h-1
	c-0.3,0-0.5,0.2-0.5,0.5v1.5c-2,0.3-3.3,1.6-3.3,3.3c0,2.2,1.3,3.1,4.1,3.4c1.9,0.3,2.5,0.7,2.5,1.8s-0.9,1.8-2.2,1.8
	c-1.7,0-2.3-0.7-2.5-1.7c-0.1-0.3-0.3-0.4-0.5-0.4h-1.1c-0.3,0-0.5,0.2-0.5,0.5v0.1c0.3,1.7,1.3,2.9,3.5,3.2v1.6
	c0,0.3,0.2,0.5,0.5,0.5h1c0.3,0,0.5-0.2,0.5-0.5v-1.6C19.1,21.8,20.4,20.4,20.4,18.6L20.4,18.6z"/>
<path class="st2" d="M12.6,25.6c-5.2-1.9-7.8-7.6-5.9-12.8c1-2.8,3.2-4.9,5.9-5.9C12.9,6.7,13,6.5,13,6.2V5.3c0-0.3-0.1-0.5-0.4-0.5
	c-0.1,0-0.2,0-0.3,0.1c-6.3,2-9.8,8.7-7.8,15c1.2,3.7,4.1,6.6,7.8,7.8c0.3,0.1,0.5,0,0.6-0.3c0.1-0.1,0.1-0.1,0.1-0.3v-0.9
	C13,26,12.8,25.7,12.6,25.6z M19.7,4.8c-0.3-0.1-0.5,0-0.6,0.3C19,5.1,19,5.2,19,5.3v0.9c0,0.3,0.2,0.5,0.4,0.7
	c5.2,1.9,7.8,7.6,5.9,12.8c-1,2.8-3.2,4.9-5.9,5.9C19.1,25.8,19,26,19,26.3v0.9c0,0.3,0.1,0.5,0.4,0.5c0.1,0,0.2,0,0.3-0.1
	c6.3-2,9.8-8.7,7.8-15C26.2,8.9,23.3,6,19.7,4.8L19.7,4.8z"/>
</svg>
