<?xml version="1.0" encoding="utf-8"?>
<!-- Generator: Adobe Illustrator 24.0.1, SVG Export Plug-In . SVG Version: 6.00 Build 0)  -->
<svg version="1.1" id="Layer_1" xmlns="http://www.w3.org/2000/svg" xmlns:xlink="http://www.w3.org/1999/xlink" x="0px" y="0px"
	 width="40px" height="40px" viewBox="0 0 40 40" style="enable-background:new 0 0 40 40;" xml:space="preserve">
<style type="text/css">
	.st0{fill:#109B6D;}
	.st1{fill:url(#SVGID_1_);}
	.st2{fill:#FFFFFF;}
</style>
<path class="st0" d="M25,40H15C6.8,40,0,33.3,0,25V15C0,6.8,6.8,0,15,0h10c8.3,0,15,6.8,15,15v10C40,33.3,33.3,40,25,40z"/>
<linearGradient id="SVGID_1_" gradientUnits="userSpaceOnUse" x1="9.0907" y1="40.8954" x2="30.9093" y2="3.1046" gradientTransform="matrix(1 0 0 -1 0 42)">
	<stop  offset="0" style="stop-color:#FFFFFF;stop-opacity:0.5"/>
	<stop  offset="1" style="stop-color:#FFFFFF;stop-opacity:0"/>
</linearGradient>
<path class="st1" d="M25,40H15C6.8,40,0,33.3,0,25V15C0,6.8,6.8,0,15,0h10c8.3,0,15,6.8,15,15v10C40,33.3,33.3,40,25,40z"/>
<g>
	<path class="st2" d="M22.8,21L22.8,21c-0.1,0-1,0-2.8,0c-1.5,0-2.5,0-2.8,0l0,0c-5.5-0.3-9.6-1.3-9.6-2.4s4.1-2.1,9.6-2.4V20
		c0.4,0,1.4,0.1,2.9,0.1c1.8,0,2.6-0.1,2.8-0.1v-3.8c5.5,0.3,9.6,1.3,9.6,2.4S28.4,20.8,22.8,21 M22.8,15.9v-3.4h7.8V7.4h-21v5.1
		h7.8v3.4c-6.3,0.3-11,1.5-11,3c0,1.5,4.8,2.8,11,3v10.8h5.6V21.9c6.3-0.3,11-1.5,11-3C33.8,17.4,29,16.1,22.8,15.9"/>
</g>
</svg>
