<?xml version="1.0" encoding="utf-8"?>
<!-- Generator: Adobe Illustrator 23.0.0, SVG Export Plug-In . SVG Version: 6.00 Build 0)  -->
<svg version="1.1" id="Layer_1" xmlns="http://www.w3.org/2000/svg" xmlns:xlink="http://www.w3.org/1999/xlink" x="0px" y="0px"
	 width="32px" height="32px" viewBox="0 0 32 32" style="enable-background:new 0 0 32 32;" xml:space="preserve">
<style type="text/css">
	.st0{fill:#109B6D;}
	.st1{fill:url(#SVGID_1_);}
	.st2{fill:#FFFFFF;}
</style>
<path class="st0" d="M20,32h-8C5.4,32,0,26.6,0,20v-8C0,5.4,5.4,0,12,0h8c6.6,0,12,5.4,12,12v8C32,26.6,26.6,32,20,32z"/>
<linearGradient id="SVGID_1_" gradientUnits="userSpaceOnUse" x1="7.2681" y1="0.8759" x2="24.7319" y2="31.1241">
	<stop  offset="0" style="stop-color:#FFFFFF;stop-opacity:0.5"/>
	<stop  offset="1" style="stop-color:#FFFFFF;stop-opacity:0"/>
</linearGradient>
<path class="st1" d="M20,32h-8C5.4,32,0,26.6,0,20v-8C0,5.4,5.4,0,12,0h8c6.6,0,12,5.4,12,12v8C32,26.6,26.6,32,20,32z"/>
<g>
	<path class="st2" d="M18.2,16.8L18.2,16.8c-0.1,0-0.8,0-2.2,0c-1.2,0-2,0-2.2,0v0c-4.4-0.2-7.7-1-7.7-1.9c0-0.9,3.3-1.7,7.7-1.9v3
		c0.3,0,1.1,0.1,2.3,0.1c1.4,0,2.1-0.1,2.2-0.1v-3c4.4,0.2,7.7,1,7.7,1.9S22.7,16.6,18.2,16.8 M18.2,12.7V10h6.2V5.9H7.6V10h6.2v2.7
		c-5,0.2-8.8,1.2-8.8,2.4s3.8,2.2,8.8,2.4v8.6h4.5v-8.6c5-0.2,8.8-1.2,8.8-2.4C27,13.9,23.2,12.9,18.2,12.7"/>
</g>
</svg>
