<?xml version="1.0" encoding="utf-8"?>
<!-- Generator: Adobe Illustrator 24.0.1, SVG Export Plug-In . SVG Version: 6.00 Build 0)  -->
<svg version="1.1" id="Layer_1" xmlns="http://www.w3.org/2000/svg" xmlns:xlink="http://www.w3.org/1999/xlink" x="0px" y="0px"
	 width="40px" height="40px" viewBox="0 0 40 40" style="enable-background:new 0 0 40 40;" xml:space="preserve">
<style type="text/css">
	.st0{fill:#A1A3AA;}
</style>
<g>
	<path class="st0" d="M23.8,21.4L23.8,21.4c-0.1,0-1.4,0-4.1,0c-2.2,0-3.6,0-4.1,0l0,0c-8-0.4-13.9-1.9-13.9-3.5
		c0-1.6,5.9-3,13.9-3.5v5.5c0.6,0,2,0.1,4.2,0.1c2.6,0,3.8-0.1,4.1-0.1v-5.5c8,0.4,13.9,1.9,13.9,3.5C37.8,19.5,31.9,21.1,23.8,21.4
		 M23.8,14V9.1h11.3V1.7H4.6v7.4h11.3V14C6.8,14.4,0,16.2,0,18.3s7,4.1,15.9,4.3v15.7h8.1V22.7c9.1-0.4,15.9-2.2,15.9-4.3
		C39.7,16.2,32.8,14.3,23.8,14"/>
</g>
</svg>
