<?xml version="1.0" encoding="utf-8"?>
<!-- Generator: Adobe Illustrator 24.0.1, SVG Export Plug-In . SVG Version: 6.00 Build 0)  -->
<svg version="1.1" id="Layer_1" xmlns="http://www.w3.org/2000/svg" xmlns:xlink="http://www.w3.org/1999/xlink" x="0px" y="0px"
	 width="40px" height="40px" viewBox="0 0 40 40" style="enable-background:new 0 0 40 40;" xml:space="preserve">
<style type="text/css">
	.st0{fill:#232323;}
	.st1{fill:url(#SVGID_1_);}
	.st2{fill:#FFFFFF;}
</style>
<path class="st0" d="M25,40H15C6.8,40,0,33.3,0,25V15C0,6.8,6.8,0,15,0h10c8.3,0,15,6.8,15,15v10C40,33.3,33.3,40,25,40z"/>
<linearGradient id="SVGID_1_" gradientUnits="userSpaceOnUse" x1="9.0907" y1="267.1046" x2="30.9093" y2="304.8954" gradientTransform="matrix(1 0 0 1 0 -266)">
	<stop  offset="0" style="stop-color:#FFFFFF;stop-opacity:0.45"/>
	<stop  offset="1" style="stop-color:#FFFFFF;stop-opacity:0"/>
</linearGradient>
<path class="st1" d="M25,40H15C6.8,40,0,33.3,0,25V15C0,6.8,6.8,0,15,0h10c8.3,0,15,6.8,15,15v10C40,33.3,33.3,40,25,40z"/>
<g id="layer102">
	<path class="st2" d="M19,34.8c-2.6-1.1-5-2.6-7.1-4.6c-1.4-1.4-2.5-2.6-3.3-4.3c-0.8-1.6-1.1-2.8-1.3-4.7c-0.1-1.8-0.1-10.3,0-11
		c0.1-0.6,0.6-1,2-1.4c1-0.3,1.9-0.6,3.8-1.6c1.4-0.6,2.9-1.4,3.5-1.6c2.1-0.8,4.6-0.8,6.8,0c0.6,0.2,2,0.9,3.3,1.5
		c1.6,0.9,2.6,1.3,3.8,1.6c2.1,0.6,2.1,0.7,2.2,2.4c0,0.6,0,3.5,0,6.3v5l-0.4,1.1c-0.6,2.3-1.7,4.3-3.4,6c-2,2-3.9,3.5-6.6,4.8
		C20.4,35.1,20,35.3,19,34.8z M21.8,33c3-1.5,6-3.8,7.6-6.1c1.1-1.5,1.9-3.6,2-5.6c0-0.6,0.1-3.5,0-6.1v-4.9l-1.6-0.5
		c-1.1-0.4-2.5-1-4.1-1.8c-3.1-1.6-3.9-1.8-6-1.8C17.8,6.4,17,6.5,15,7.6c-2.8,1.4-3.1,1.6-4.8,2.1l-1.6,0.6v5.9
		c0,5.6,0,5.9,0.3,6.9c0.8,2.9,2.6,5.4,5.6,7.6c2,1.5,5.1,3.1,5.8,3C20.4,33.8,21,33.4,21.8,33z"/>
	<path class="st2" d="M19,32.1c-1.9-0.8-3.8-2-5.4-3.5c-1-0.9-1.3-1.4-0.9-1.6c0.1-0.1,0.3-0.1,0.4-0.1c0,0,0.5,0.4,1,0.8
		c1.6,1.5,3.5,2.8,5.1,3.5l0.9,0.4l0.8-0.4c1.1-0.5,2.4-1.1,3.4-1.9c1.6-1.1,3.5-3.1,4.1-4.4s1.1-3.6,1.1-5.5c0-1.4,0.1-1.7,0.5-1.7
		c0.5,0,0.6,0.5,0.5,2.4c-0.1,4-1.4,6.5-4.5,9.1c-0.6,0.5-1.5,1.3-2,1.5c-0.8,0.5-3.3,1.8-3.8,1.9C20.1,32.5,19.5,32.4,19,32.1z"/>
	<path class="st2" d="M18.5,29.8c-2.4-1.1-4.6-3.1-5.7-4.9c-1.1-1.9-1.3-2.4-1.3-7.8c0-2.5,0-4.4,0.1-4.5c0.1-0.1,0.8-0.5,1.6-0.9
		c1.6-0.5,1.9-0.5,1.9,0.1c0,0.4-0.1,0.5-1.7,1.1l-0.9,0.4v3.8c0,3.9,0,4.9,0.5,6c0.8,1.9,3.1,4.3,5.9,5.8c0.5,0.3,1.1,0.5,1.2,0.5
		c0.4,0,1.9-0.9,3-1.6c1.1-0.8,3-2.6,3.5-3.6c0.9-1.5,0.9-1.9,0.9-6.6v-4.3l-0.9-0.4c-0.5-0.1-1.8-0.8-2.8-1.3
		c-2.1-1.1-2.6-1.3-4-1.3c-1,0-1.9,0.3-2.8,0.6c-0.6,0.4-1,0.4-1.1,0c-0.3-0.4,0-0.6,0.8-1c1.1-0.5,2.1-0.8,3.4-0.8
		c1.5,0,2.4,0.3,4.4,1.4c0.8,0.4,1.9,1,2.6,1.3c0.8,0.3,1.4,0.6,1.4,0.6c0.3,0.4,0.1,9-0.1,9.9c-0.6,2.2-2.5,4.5-5.1,6.3
		c-1.3,0.8-2.8,1.6-3.1,1.6C19.9,30.5,19.3,30.1,18.5,29.8z"/>
	<path class="st2" d="M11.3,26.1c-0.4-0.5-1-1.8-1.3-2.6c-0.5-1.6-0.5-2.9-0.5-7.4c0-5.3-0.1-4.9,1.8-5.4c0.5-0.1,2-0.8,3.3-1.4
		c3-1.5,3.5-1.8,5.5-1.8s2.6,0.2,5.5,1.6c1.5,0.7,2.5,1.3,3.3,1.4c0.6,0.1,1.1,0.4,1.3,0.5c0.4,0.2,0.5,1,0.5,3.1c0,1.6,0,2-0.3,2.3
		c-0.3,0.3-0.5,0.3-0.6,0c-0.1-0.3-0.3-0.5-0.3-2.4c0-2.5,0-2.4-1.3-2.6c-0.4-0.1-1.5-0.6-2.9-1.3c-2.4-1.3-3-1.5-4.4-1.6
		c-1.9-0.3-3.3,0.1-6.4,1.7c-1.3,0.6-2.4,1.1-2.9,1.3c-0.5,0.1-0.7,0.3-0.9,0.5c-0.1,0.1-0.1,1.9-0.1,5.1c0,5.5,0.1,5.9,1.1,7.8
		c0.5,0.9,0.5,1.1,0.5,1.3C12,26.6,11.6,26.5,11.3,26.1z"/>
	<path class="st2" d="M18.8,25.9c0-0.1,0-0.3,0-0.4c0.1-0.1,0.5,0,0.5,0.3C19.3,26,18.9,26.1,18.8,25.9z"/>
	<path class="st2" d="M19.8,25.9c-0.1-0.3,0-0.5,0.3-0.5s0.4,0.3,0.3,0.5c0,0.1-0.1,0.1-0.3,0.1C19.9,26,19.8,25.9,19.8,25.9z"/>
	<path class="st2" d="M20.8,25.9c0-0.1,0-0.3,0-0.4c0.1-0.1,0.5,0,0.5,0.3C21.3,26,20.9,26.1,20.8,25.9z"/>
	<path class="st2" d="M18.8,23.6c-0.1,0-0.3-0.4-0.5-1c-0.1-0.5-0.4-1.3-0.5-1.6c-0.1-0.4-0.4-1.3-0.6-1.9c-0.2-0.8-0.5-1.5-0.5-1.8
		c-0.1-0.3-0.3-0.9-0.4-1.4c-0.1-0.5-0.4-1.1-0.4-1.4c-0.1-0.3-0.1-0.5-0.1-0.6c0,0,0.6-0.1,1.3-0.1c0.9,0,1.1,0.1,1.3,0.3
		c0.1,0.1,0.3,0.8,0.9,2.9c0.1,0.6,0.4,1.3,0.5,1.6c0.1,0.3,0.3,0.8,0.3,1c0.1,0.3,0.1,0.5,0.3,0.5c0,0,0.3-0.5,0.4-1.1
		c0.1-0.6,0.4-1.4,0.5-1.7c0.1-0.4,0.4-1.1,0.5-1.8c0.1-0.6,0.4-1.1,0.4-1.3c0.1-0.1,0.4-0.3,1.3-0.3h1.1l-0.1,0.5
		c0,0.3-0.1,0.8-0.3,1.1c-0.1,0.4-0.4,1.1-0.5,1.6c-0.1,0.5-0.4,1.3-0.5,1.6s-0.4,1-0.5,1.5c-0.6,2.2-1,3.4-1.1,3.4
		C21.4,23.6,19,23.8,18.8,23.6z"/>
</g>
</svg>
