<?xml version="1.0" encoding="utf-8"?>
<!-- Generator: Adobe Illustrator 23.0.0, SVG Export Plug-In . SVG Version: 6.00 Build 0)  -->
<svg version="1.1" id="Layer_1" xmlns="http://www.w3.org/2000/svg" xmlns:xlink="http://www.w3.org/1999/xlink" x="0px" y="0px"
	 width="32px" height="32px" viewBox="0 0 32 32" style="enable-background:new 0 0 32 32;" xml:space="preserve">
<style type="text/css">
	.st0{fill:#232323;}
	.st1{fill:url(#SVGID_1_);}
	.st2{fill:#FFFFFF;}
</style>
<path class="st0" d="M20,32h-8C5.4,32,0,26.6,0,20v-8C0,5.4,5.4,0,12,0h8c6.6,0,12,5.4,12,12v8C32,26.6,26.6,32,20,32z"/>
<linearGradient id="SVGID_1_" gradientUnits="userSpaceOnUse" x1="7.2726" y1="33.1163" x2="24.7274" y2="2.8837" gradientTransform="matrix(1 0 0 -1 0 34)">
	<stop  offset="0" style="stop-color:#FFFFFF;stop-opacity:0.45"/>
	<stop  offset="1" style="stop-color:#FFFFFF;stop-opacity:0"/>
</linearGradient>
<path class="st1" d="M20,32h-8C5.4,32,0,26.6,0,20v-8C0,5.4,5.4,0,12,0h8c6.6,0,12,5.4,12,12v8C32,26.6,26.6,32,20,32z"/>
<g id="layer102">
	<path class="st2" d="M15.2,27.8c-2.1-0.9-4-2.1-5.7-3.7c-1.1-1.1-2-2.1-2.6-3.4c-0.6-1.3-0.9-2.2-1-3.8c-0.1-1.4-0.1-8.2,0-8.8
		C6,7.6,6.4,7.3,7.5,7c0.8-0.2,1.5-0.5,3-1.3c1.1-0.5,2.3-1.1,2.8-1.3c1.7-0.6,3.7-0.6,5.4,0c0.5,0.2,1.6,0.7,2.6,1.2
		c1.3,0.7,2.1,1,3,1.3c1.7,0.5,1.7,0.6,1.8,1.9c0,0.5,0,2.8,0,5v4l-0.3,0.9c-0.5,1.8-1.4,3.4-2.7,4.8c-1.6,1.6-3.1,2.8-5.3,3.8
		C16.3,28.1,16,28.2,15.2,27.8z M17.4,26.4c2.4-1.2,4.8-3,6.1-4.9c0.9-1.2,1.5-2.9,1.6-4.5c0-0.5,0.1-2.8,0-4.9l0-3.9l-1.3-0.4
		c-0.9-0.3-2-0.8-3.3-1.4C18,5.1,17.4,5,15.7,5c-1.5,0.1-2.1,0.2-3.7,1.1C9.8,7.2,9.5,7.4,8.2,7.8L6.9,8.3V13c0,4.5,0,4.7,0.2,5.5
		c0.6,2.3,2.1,4.3,4.5,6.1c1.6,1.2,4.1,2.5,4.6,2.4C16.3,27,16.8,26.7,17.4,26.4z"/>
	<path class="st2" d="M15.2,25.7c-1.5-0.6-3-1.6-4.3-2.8c-0.8-0.7-1-1.1-0.7-1.3c0.1-0.1,0.2-0.1,0.3-0.1c0,0,0.4,0.3,0.8,0.6
		c1.3,1.2,2.8,2.2,4.1,2.8l0.7,0.3l0.6-0.3c0.9-0.4,1.9-0.9,2.7-1.5c1.3-0.9,2.8-2.5,3.3-3.5c0.5-1,0.9-2.9,0.9-4.4
		c0-1.1,0.1-1.4,0.4-1.4c0.4,0,0.5,0.4,0.4,1.9c-0.1,3.2-1.1,5.2-3.6,7.3c-0.5,0.4-1.2,1-1.6,1.2c-0.6,0.4-2.6,1.4-3,1.5
		C16.1,26,15.6,25.9,15.2,25.7z"/>
	<path class="st2" d="M14.8,23.8c-1.9-0.9-3.7-2.5-4.6-3.9c-0.9-1.5-1-1.9-1-6.2c0-2,0-3.5,0.1-3.6c0.1-0.1,0.6-0.4,1.3-0.7
		C11.9,9,12.1,9,12.1,9.5c0,0.3-0.1,0.4-1.4,0.9L10,10.7l0,3c0,3.1,0,3.9,0.4,4.8c0.6,1.5,2.5,3.4,4.7,4.6c0.4,0.2,0.9,0.4,1,0.4
		c0.3,0,1.5-0.7,2.4-1.3c0.9-0.6,2.4-2.1,2.8-2.9C22,18.1,22,17.8,22,14l0-3.4l-0.7-0.3c-0.4-0.1-1.4-0.6-2.2-1
		c-1.7-0.9-2.1-1-3.2-1c-0.8,0-1.5,0.2-2.2,0.5c-0.5,0.3-0.8,0.3-0.9,0c-0.2-0.3,0-0.5,0.6-0.8c0.9-0.4,1.7-0.6,2.7-0.6
		c1.2,0,1.9,0.2,3.5,1.1c0.6,0.3,1.5,0.8,2.1,1c0.6,0.2,1.1,0.5,1.1,0.5c0.2,0.3,0.1,7.2-0.1,7.9c-0.5,1.8-2,3.6-4.1,5
		c-1,0.6-2.2,1.3-2.5,1.3C15.9,24.4,15.4,24.1,14.8,23.8z"/>
	<path class="st2" d="M9,20.9c-0.3-0.4-0.8-1.4-1-2.1c-0.4-1.3-0.4-2.3-0.4-5.9C7.6,8.7,7.5,9,9,8.6c0.4-0.1,1.6-0.6,2.6-1.1
		C14,6.3,14.4,6.1,16,6.1c1.6,0,2.1,0.2,4.4,1.3c1.2,0.6,2,1,2.6,1.1c0.5,0.1,0.9,0.3,1,0.4c0.3,0.2,0.4,0.8,0.4,2.5
		c0,1.3,0,1.6-0.2,1.8c-0.2,0.2-0.4,0.2-0.5,0c-0.1-0.2-0.2-0.4-0.2-1.9c0-2,0-1.9-1-2.1c-0.3-0.1-1.2-0.5-2.3-1
		c-1.9-1-2.4-1.2-3.5-1.3c-1.5-0.2-2.6,0.1-5.1,1.4c-1,0.5-1.9,0.9-2.3,1C8.9,9.4,8.7,9.5,8.6,9.7c-0.1,0.1-0.1,1.5-0.1,4.1
		c0,4.4,0.1,4.7,0.9,6.2c0.4,0.7,0.4,0.9,0.4,1C9.6,21.3,9.3,21.2,9,20.9z"/>
	<path class="st2" d="M15,20.7c0-0.1,0-0.2,0-0.3c0.1-0.1,0.4,0,0.4,0.2C15.4,20.8,15.1,20.9,15,20.7z"/>
	<path class="st2" d="M15.8,20.7c-0.1-0.2,0-0.4,0.2-0.4c0.2,0,0.3,0.2,0.2,0.4c0,0.1-0.1,0.1-0.2,0.1
		C15.9,20.8,15.8,20.7,15.8,20.7z"/>
	<path class="st2" d="M16.6,20.7c0-0.1,0-0.2,0-0.3c0.1-0.1,0.4,0,0.4,0.2C17,20.8,16.7,20.9,16.6,20.7z"/>
	<path class="st2" d="M15,18.9c-0.1,0-0.2-0.3-0.4-0.8c-0.1-0.4-0.3-1-0.4-1.3c-0.1-0.3-0.3-1-0.5-1.5c-0.2-0.6-0.4-1.2-0.4-1.4
		c-0.1-0.2-0.2-0.7-0.3-1.1c-0.1-0.4-0.3-0.9-0.3-1.1c-0.1-0.2-0.1-0.4-0.1-0.5c0,0,0.5-0.1,1-0.1c0.7,0,0.9,0.1,1,0.2
		c0.1,0.1,0.2,0.6,0.7,2.3c0.1,0.5,0.3,1,0.4,1.3c0.1,0.2,0.2,0.6,0.2,0.8c0.1,0.2,0.1,0.4,0.2,0.4c0,0,0.2-0.4,0.3-0.9
		c0.1-0.5,0.3-1.1,0.4-1.4c0.1-0.3,0.3-0.9,0.4-1.4c0.1-0.5,0.3-0.9,0.3-1c0.1-0.1,0.3-0.2,1-0.2l0.9,0l-0.1,0.4
		c0,0.2-0.1,0.6-0.2,0.9c-0.1,0.3-0.3,0.9-0.4,1.3s-0.3,1-0.4,1.3c-0.1,0.3-0.3,0.8-0.4,1.2c-0.5,1.8-0.8,2.7-0.9,2.7
		C17.1,18.9,15.2,19,15,18.9z"/>
</g>
</svg>
