<?xml version="1.0" encoding="utf-8"?>
<!-- Generator: Adobe Illustrator 24.0.1, SVG Export Plug-In . SVG Version: 6.00 Build 0)  -->
<svg version="1.1" id="Layer_1" xmlns="http://www.w3.org/2000/svg" xmlns:xlink="http://www.w3.org/1999/xlink" x="0px" y="0px"
	 width="40px" height="40px" viewBox="0 0 40 40" style="enable-background:new 0 0 40 40;" xml:space="preserve">
<style type="text/css">
	.st0{fill:#A1A3AA;}
</style>
<g id="layer102">
	<path class="st0" d="M18.7,39.6c-3.5-1.5-6.7-3.5-9.4-6.1c-1.9-1.9-3.3-3.5-4.4-5.7c-1.1-2.1-1.5-3.7-1.7-6.3C3,19.2,3,7.8,3.2,6.9
		C3.3,6.1,4,5.6,5.8,5.1c1.3-0.4,2.5-0.8,5.1-2.1c1.9-0.8,3.9-1.9,4.7-2.1c2.8-1.1,6.1-1.1,9,0c0.8,0.3,2.7,1.2,4.4,2
		C31.1,4,32.4,4.5,34,4.9c2.8,0.8,2.8,0.9,2.9,3.2c0,0.8,0,4.7,0,8.4v6.7l-0.5,1.5c-0.8,3.1-2.3,5.7-4.5,8c-2.7,2.7-5.2,4.7-8.8,6.4
		C20.6,40,20,40.3,18.7,39.6z M22.4,37.2c4-2,8-5.1,10.1-8.1c1.5-2,2.5-4.8,2.7-7.4c0-0.8,0.1-4.7,0-8.1V7l-2.1-0.7
		c-1.5-0.5-3.3-1.3-5.5-2.4c-4.1-2.1-5.2-2.4-8-2.4c-2.5,0.3-3.6,0.4-6.3,1.9C9.7,5.3,9.3,5.6,7,6.3L4.9,7v7.8c0,7.4,0,7.8,0.4,9.2
		c1.1,3.9,3.5,7.2,7.4,10.1c2.7,2,6.8,4.1,7.7,4C20.6,38.3,21.4,37.8,22.4,37.2z"/>
	<path class="st0" d="M18.7,36c-2.5-1.1-5.1-2.7-7.2-4.7c-1.3-1.2-1.7-1.9-1.2-2.1c0.1-0.1,0.4-0.1,0.5-0.1c0,0,0.7,0.5,1.3,1.1
		c2.1,2,4.7,3.7,6.8,4.7l1.2,0.5l1.1-0.5c1.5-0.7,3.2-1.5,4.5-2.5c2.1-1.5,4.7-4.1,5.5-5.9c0.8-1.7,1.5-4.8,1.5-7.3
		c0-1.9,0.1-2.3,0.7-2.3c0.7,0,0.8,0.7,0.7,3.2c-0.1,5.3-1.9,8.6-6,12.1c-0.8,0.7-2,1.7-2.7,2c-1.1,0.7-4.4,2.4-5.1,2.5
		C20.2,36.6,19.4,36.4,18.7,36z"/>
	<path class="st0" d="M18.1,33c-3.2-1.5-6.1-4.1-7.6-6.5C9,23.9,8.7,23.3,8.7,16.1c0-3.3,0-5.9,0.1-6C9,10,9.9,9.4,11,8.9
		c2.1-0.7,2.5-0.7,2.5,0.1c0,0.5-0.1,0.7-2.3,1.5L10.1,11v5.1c0,5.2,0,6.5,0.7,8c1.1,2.5,4.1,5.7,7.8,7.7c0.7,0.4,1.5,0.7,1.6,0.7
		c0.5,0,2.5-1.2,4-2.1c1.5-1.1,4-3.5,4.7-4.8c1.2-2,1.2-2.5,1.2-8.8V11l-1.2-0.5c-0.7-0.1-2.4-1.1-3.7-1.7C22.3,7.3,21.6,7,19.8,7
		c-1.3,0-2.5,0.4-3.7,0.8c-0.8,0.5-1.3,0.5-1.5,0c-0.4-0.5,0-0.8,1.1-1.3c1.5-0.7,2.8-1.1,4.5-1.1c2,0,3.2,0.4,5.9,1.9
		c1.1,0.5,2.5,1.3,3.5,1.7c1.1,0.4,1.9,0.8,1.9,0.8c0.4,0.5,0.1,12-0.1,13.2c-0.8,2.9-3.3,6-6.8,8.4c-1.7,1.1-3.7,2.1-4.1,2.1
		C19.9,33.9,19.1,33.4,18.1,33z"/>
	<path class="st0" d="M8.5,28.1c-0.5-0.7-1.3-2.4-1.7-3.5c-0.7-2.1-0.7-3.9-0.7-9.8c0-7-0.1-6.5,2.4-7.2c0.7-0.1,2.7-1.1,4.4-1.9
		c4-2,4.7-2.4,7.3-2.4s3.5,0.3,7.3,2.1c2,0.9,3.3,1.7,4.4,1.9c0.8,0.1,1.5,0.5,1.7,0.7c0.5,0.3,0.7,1.3,0.7,4.1c0,2.1,0,2.7-0.4,3.1
		c-0.4,0.4-0.7,0.4-0.8,0c-0.1-0.4-0.4-0.7-0.4-3.2c0-3.3,0-3.2-1.7-3.5c-0.5-0.1-2-0.8-3.9-1.7c-3.2-1.7-4-2-5.9-2.1
		c-2.5-0.4-4.4,0.1-8.5,2.3C11,7.7,9.5,8.4,8.9,8.6C8.2,8.8,7.9,9,7.7,9.3c-0.1,0.1-0.1,2.5-0.1,6.8c0,7.3,0.1,7.8,1.5,10.4
		c0.7,1.2,0.7,1.5,0.7,1.7C9.4,28.7,8.9,28.6,8.5,28.1z"/>
	<path class="st0" d="M18.5,27.8c0-0.1,0-0.4,0-0.5c0.1-0.1,0.7,0,0.7,0.4C19.1,27.9,18.6,28.1,18.5,27.8z"/>
	<path class="st0" d="M19.8,27.8c-0.1-0.4,0-0.7,0.4-0.7c0.4,0,0.5,0.4,0.4,0.7c0,0.1-0.1,0.1-0.4,0.1
		C19.9,27.9,19.8,27.8,19.8,27.8z"/>
	<path class="st0" d="M21.1,27.8c0-0.1,0-0.4,0-0.5c0.1-0.1,0.7,0,0.7,0.4C21.8,27.9,21.2,28.1,21.1,27.8z"/>
	<path class="st0" d="M18.5,24.7c-0.1,0-0.4-0.5-0.7-1.3c-0.1-0.7-0.5-1.7-0.7-2.1c-0.1-0.5-0.5-1.7-0.8-2.5c-0.3-1.1-0.7-2-0.7-2.4
		c-0.1-0.4-0.4-1.2-0.5-1.9s-0.5-1.5-0.5-1.9c-0.1-0.4-0.1-0.7-0.1-0.8c0,0,0.8-0.1,1.7-0.1c1.2,0,1.5,0.1,1.7,0.4
		c0.1,0.1,0.4,1.1,1.2,3.9c0.1,0.8,0.5,1.7,0.7,2.1c0.1,0.4,0.4,1.1,0.4,1.3c0.1,0.4,0.1,0.7,0.4,0.7c0,0,0.4-0.7,0.5-1.5
		c0.1-0.8,0.5-1.9,0.7-2.3c0.1-0.5,0.5-1.5,0.7-2.4c0.1-0.8,0.5-1.5,0.5-1.7c0.1-0.1,0.5-0.4,1.7-0.4h1.5L26,12.5
		c0,0.4-0.1,1.1-0.4,1.5c-0.1,0.5-0.5,1.5-0.7,2.1c-0.1,0.7-0.5,1.7-0.7,2.1c-0.1,0.4-0.5,1.3-0.7,2c-0.8,2.9-1.3,4.5-1.5,4.5
		C21.9,24.7,18.7,25,18.5,24.7z"/>
</g>
</svg>
