<?xml version="1.0" encoding="utf-8"?>
<!-- Generator: Adobe Illustrator 24.0.1, SVG Export Plug-In . SVG Version: 6.00 Build 0)  -->
<svg version="1.1" id="Layer_1" xmlns="http://www.w3.org/2000/svg" xmlns:xlink="http://www.w3.org/1999/xlink" x="0px" y="0px"
	 width="40px" height="40px" viewBox="0 0 40 40" style="enable-background:new 0 0 40 40;" xml:space="preserve">
<style type="text/css">
	.st0{fill:#710BDB;}
	.st1{fill:url(#SVGID_1_);}
	.st2{fill:#FFFFFF;}
</style>
<path class="st0" d="M25,40H15C6.8,40,0,33.3,0,25V15C0,6.8,6.8,0,15,0h10c8.3,0,15,6.8,15,15v10C40,33.3,33.3,40,25,40z"/>
<linearGradient id="SVGID_1_" gradientUnits="userSpaceOnUse" x1="9.0907" y1="40.8954" x2="30.9093" y2="3.1046" gradientTransform="matrix(1 0 0 -1 0 42)">
	<stop  offset="0" style="stop-color:#FFFFFF;stop-opacity:0.5"/>
	<stop  offset="1" style="stop-color:#FFFFFF;stop-opacity:0"/>
</linearGradient>
<path class="st1" d="M25,40H15C6.8,40,0,33.3,0,25V15C0,6.8,6.8,0,15,0h10c8.3,0,15,6.8,15,15v10C40,33.3,33.3,40,25,40z"/>
<path class="st2" d="M12,11.4v3.5l-1.5,0.4c-0.6,0.1-1.1,0.6-1.1,1.2v7.6L6.3,25c-0.3,0.1-0.6,0-0.9-0.1S5,24.4,5,24.1V12.5
	c0-0.5,0.4-0.9,0.8-1l4.9-1.3c0.1,0,0.1,0,0.3,0c0.3,0,0.5,0.1,0.8,0.3C11.9,10.8,12,11,12,11.4z"/>
<path class="st2" d="M17.5,26v1.1c0,0.5-0.4,0.9-0.8,1l-5,1.4c-0.3,0.1-0.6,0-0.9-0.1c-0.3-0.1-0.4-0.5-0.4-0.8V17
	c0-0.5,0.4-0.9,0.8-1l0.9-0.2l0.4-0.1l0.9-0.3l2.1-0.5v9.7c0,0.5,0.2,0.9,0.6,1.1c0.3,0.1,0.6,0.3,0.9,0.3c0.1,0,0.3,0,0.4-0.1
	L17.5,26z"/>
<path class="st2" d="M23.4,11.4v3.1l-1.1,0.3c-0.6,0.1-1.1,0.8-1.1,1.4v8l-2.6,0.8L17.9,25h-0.3h-0.1c-0.3,0-0.5,0-0.8-0.3
	c-0.3-0.1-0.4-0.5-0.4-0.8V12.5c0-0.5,0.4-0.9,0.8-1l4.9-1.3c0.1,0,0.1,0,0.3,0c0.3,0,0.5,0.1,0.6,0.3C23.3,10.8,23.4,11,23.4,11.4z
	"/>
<path class="st2" d="M29.4,26v1.3c0,0.5-0.4,0.9-0.8,1l-5,1.4c-0.3,0.1-0.6,0-0.9-0.1c-0.3-0.1-0.4-0.5-0.4-0.8V17.1
	c0-0.5,0.4-0.9,0.8-1l0.3-0.1l0.4-0.1l0.6-0.1l2.4-0.6v9.5c0,0.5,0.3,0.9,0.6,1.1c0.3,0.1,0.6,0.3,0.9,0.3c0.1,0,0.3,0,0.5-0.1
	L29.4,26z"/>
<path class="st2" d="M35,11.4v11.3c0,0.5-0.4,0.9-0.8,1l-3.6,1l-0.9,0.3L29.4,25h-0.1c-0.3,0.1-0.6,0-0.9-0.1
	c-0.3-0.1-0.4-0.5-0.4-0.8V12.5c0-0.5,0.4-0.9,0.8-1l4.9-1.3c0.1,0,0.1,0,0.3,0c0.3,0,0.5,0.1,0.8,0.3C34.9,10.8,35,11,35,11.4z"/>
</svg>
