<?xml version="1.0" encoding="utf-8"?>
<!-- Generator: Adobe Illustrator 24.0.1, SVG Export Plug-In . SVG Version: 6.00 Build 0)  -->
<svg version="1.1" id="Layer_1" xmlns="http://www.w3.org/2000/svg" xmlns:xlink="http://www.w3.org/1999/xlink" x="0px" y="0px"
	 width="40px" height="40px" viewBox="0 0 40 40" style="enable-background:new 0 0 40 40;" xml:space="preserve">
<style type="text/css">
	.st0{opacity:0.8;fill:#A1A3AA;}
	.st1{fill:#A1A3AA;}
</style>
<path class="st0" d="M9.3,8.6v4.7l-2,0.5c-0.8,0.1-1.5,0.8-1.5,1.6v10.1l-4.1,1.2c-0.4,0.1-0.8,0-1.2-0.1S0,25.9,0,25.5V10
	c0-0.7,0.5-1.2,1.1-1.3L7.6,7C7.7,7,7.7,7,8,7c0.4,0,0.7,0.1,1.1,0.4C9.2,7.8,9.3,8,9.3,8.6z"/>
<path class="st1" d="M16.7,28v1.5c0,0.7-0.5,1.2-1.1,1.3l-6.7,1.9c-0.4,0.1-0.8,0-1.2-0.1c-0.4-0.1-0.5-0.7-0.5-1.1V16
	c0-0.7,0.5-1.2,1.1-1.3l1.2-0.3l0.5-0.1l1.2-0.4l2.8-0.7v12.9c0,0.7,0.3,1.2,0.8,1.5c0.4,0.1,0.8,0.4,1.2,0.4c0.1,0,0.4,0,0.5-0.1
	L16.7,28z"/>
<path class="st0" d="M24.5,8.6v4.1l-1.5,0.4c-0.8,0.1-1.5,1.1-1.5,1.9v10.7l-3.5,1.1h-0.9h-0.4h-0.1c-0.4,0-0.7,0-1.1-0.4
	c-0.4-0.1-0.5-0.7-0.5-1.1V10c0-0.7,0.5-1.2,1.1-1.3L22.7,7c0.1,0,0.1,0,0.4,0c0.4,0,0.7,0.1,0.8,0.4C24.4,7.8,24.5,8,24.5,8.6z"/>
<path class="st1" d="M32.5,28v1.7c0,0.7-0.5,1.2-1.1,1.3L24.8,33c-0.4,0.1-0.8,0-1.2-0.1c-0.4-0.1-0.5-0.7-0.5-1.1V16.2
	c0-0.7,0.5-1.2,1.1-1.3l0.4-0.1l0.5-0.1l0.8-0.1l3.2-0.8v12.7c0,0.7,0.4,1.2,0.8,1.5c0.4,0.1,0.8,0.4,1.2,0.4c0.1,0,0.4,0,0.7-0.1
	L32.5,28z"/>
<path class="st0" d="M40,8.6v15.1c0,0.7-0.5,1.2-1.1,1.3l-4.8,1.3l-1.2,0.4h-0.4h-0.1c-0.4,0.1-0.8,0-1.2-0.1
	c-0.4-0.1-0.5-0.7-0.5-1.1V10c0-0.7,0.5-1.2,1.1-1.3L38.3,7c0.1,0,0.1,0,0.4,0c0.4,0,0.7,0.1,1.1,0.4C39.9,7.8,40,8,40,8.6z"/>
</svg>
