<svg width="35" height="39" viewBox="0 0 35 39" fill="none" xmlns="http://www.w3.org/2000/svg">
<path d="M20.3205 0.803847L31.641 7.33975C33.4974 8.41154 34.641 10.3923 34.641 12.5359V25.6077C34.641 27.7513 33.4974 29.732 31.641 30.8038L20.3205 37.3397C18.4641 38.4115 16.1769 38.4115 14.3205 37.3397L3 30.8038C1.14359 29.732 0 27.7513 0 25.6077V12.5359C0 10.3923 1.14359 8.41154 3 7.33975L14.3205 0.803847C16.1769 -0.267949 18.4641 -0.267949 20.3205 0.803847Z" fill="#2D5FDC"/>
<path style="mix-blend-mode:overlay" d="M20.3205 0.803847L31.641 7.33975C33.4974 8.41154 34.641 10.3923 34.641 12.5359V25.6077C34.641 27.7513 33.4974 29.732 31.641 30.8038L20.3205 37.3397C18.4641 38.4115 16.1769 38.4115 14.3205 37.3397L3 30.8038C1.14359 29.732 0 27.7513 0 25.6077V12.5359C0 10.3923 1.14359 8.41154 3 7.33975L14.3205 0.803847C16.1769 -0.267949 18.4641 -0.267949 20.3205 0.803847Z" fill="url(#paint0_linear)"/>
<path fill-rule="evenodd" clip-rule="evenodd" d="M17.6193 14.6948L20.993 16.6699C21.1953 16.7883 21.3195 17.0051 21.3195 17.2394V21.2056C21.3195 21.44 21.1953 21.6568 20.993 21.7752L17.6193 23.7503C17.4133 23.8708 17.1583 23.8708 16.9524 23.7503L13.5787 21.7752C13.3764 21.6568 13.2521 21.44 13.2521 21.2056V17.2394C13.2521 17.0051 13.3764 16.7883 13.5787 16.6699L16.9524 14.6948C17.1583 14.5742 17.4133 14.5742 17.6193 14.6948ZM10.846 12.5588C10.9608 12.6135 11.0339 12.7294 11.0339 12.8567V25.44C11.0339 25.5722 10.955 25.6916 10.8335 25.7435L7.78 27.0463C7.73906 27.0638 7.69501 27.0728 7.6505 27.0728C7.46824 27.0728 7.3205 26.9251 7.3205 26.7428V11.4007C7.3205 11.3516 7.33147 11.3031 7.35262 11.2587C7.43106 11.0942 7.62801 11.0244 7.79252 11.1029L10.846 12.5588ZM23.795 12.5588L26.8485 11.1029C27.013 11.0244 27.2099 11.0942 27.2884 11.2587C27.3095 11.3031 27.3205 11.3516 27.3205 11.4007V26.7428C27.3205 26.9251 27.1727 27.0728 26.9905 27.0728C26.946 27.0728 26.9019 27.0638 26.861 27.0463L23.8075 25.7435C23.6859 25.6916 23.607 25.5722 23.607 25.44V12.8567C23.607 12.7294 23.6802 12.6135 23.795 12.5588Z" fill="white"/>
<defs>
<linearGradient id="paint0_linear" x1="9.6268" y1="4.5817" x2="27.9795" y2="31.8396" gradientUnits="userSpaceOnUse">
<stop stop-color="white" stop-opacity="0.5"/>
<stop offset="1" stop-color="white" stop-opacity="0"/>
</linearGradient>
</defs>
</svg>
