<?xml version="1.0" encoding="utf-8"?>
<!-- Generator: Adobe Illustrator 23.0.0, SVG Export Plug-In . SVG Version: 6.00 Build 0)  -->
<svg version="1.1" id="Layer_1" xmlns="http://www.w3.org/2000/svg" xmlns:xlink="http://www.w3.org/1999/xlink" x="0px" y="0px"
	 width="32px" height="32px" viewBox="0 0 32 32" style="enable-background:new 0 0 32 32;" xml:space="preserve">
<style type="text/css">
	.st0{fill:#0A9DCA;}
	.st1{fill:url(#SVGID_1_);}
	.st2{fill:#FFFFFF;}
</style>
<path class="st0" d="M20,32h-8C5.4,32,0,26.6,0,20v-8C0,5.4,5.4,0,12,0h8c6.6,0,12,5.4,12,12v8C32,26.6,26.6,32,20,32z"/>
<linearGradient id="SVGID_1_" gradientUnits="userSpaceOnUse" x1="7.2681" y1="0.8759" x2="24.7319" y2="31.1241">
	<stop  offset="0" style="stop-color:#FFFFFF;stop-opacity:0.5"/>
	<stop  offset="1" style="stop-color:#FFFFFF;stop-opacity:0"/>
</linearGradient>
<path class="st1" d="M20,32h-8C5.4,32,0,26.6,0,20v-8C0,5.4,5.4,0,12,0h8c6.6,0,12,5.4,12,12v8C32,26.6,26.6,32,20,32z"/>
<path class="st2" d="M7.4,21.4L4,23.1v2.1l3.4-1.7l2.9-1.5l14-7.1c0,0.4,0.1,0.7,0.1,1.1c0,4.6-3.7,8.3-8.3,8.3
	c-1.4,0-2.8-0.4-4.1-1.1l-0.1,0.1L10,24.2c4.5,3.3,10.9,2.3,14.2-2.3c1.3-1.7,1.9-3.8,1.9-6c0-0.3,0-0.5,0-0.8
	c-0.1-0.7,0.3-1.4,1-1.8L28,13v-2.1L9.1,20.6L7.4,21.4z"/>
<path class="st2" d="M21.7,10l-14,7.1c0-0.4-0.1-0.7-0.1-1.1c0-4.6,3.7-8.3,8.3-8.3c1.4,0,2.8,0.4,4,1.1l1.7-0.8L22,7.8
	C17.4,4.5,11.1,5.5,7.8,10c-1.3,1.7-1.9,3.8-1.9,6c0,0.3,0,0.5,0,0.8c0.1,0.7-0.3,1.4-1,1.8L4,19v2.1l2.6-1.3l0.8-0.4l0.8-0.4
	l14.7-7.5l1.7-0.8L28,8.8V6.8l-3.4,1.7L21.7,10z"/>
</svg>
