<?xml version="1.0" encoding="utf-8"?>
<!-- Generator: Adobe Illustrator 24.0.1, SVG Export Plug-In . SVG Version: 6.00 Build 0)  -->
<svg version="1.1" id="Layer_1" xmlns="http://www.w3.org/2000/svg" xmlns:xlink="http://www.w3.org/1999/xlink" x="0px" y="0px"
	 width="40px" height="40px" viewBox="0 0 40 40" style="enable-background:new 0 0 40 40;" xml:space="preserve">
<style type="text/css">
	.st0{fill:#0A9DCA;}
	.st1{fill:url(#SVGID_1_);}
	.st2{fill:#FFFFFF;}
</style>
<path class="st0" d="M25,40H15C6.8,40,0,33.3,0,25V15C0,6.8,6.8,0,15,0h10c8.3,0,15,6.8,15,15v10C40,33.3,33.3,40,25,40z"/>
<linearGradient id="SVGID_1_" gradientUnits="userSpaceOnUse" x1="9.0907" y1="40.8954" x2="30.9093" y2="3.1046" gradientTransform="matrix(1 0 0 -1 0 42)">
	<stop  offset="0" style="stop-color:#FFFFFF;stop-opacity:0.5"/>
	<stop  offset="1" style="stop-color:#FFFFFF;stop-opacity:0"/>
</linearGradient>
<path class="st1" d="M25,40H15C6.8,40,0,33.3,0,25V15C0,6.8,6.8,0,15,0h10c8.3,0,15,6.8,15,15v10C40,33.3,33.3,40,25,40z"/>
<path class="st2" d="M9.3,26.8L5,28.9v2.6l4.3-2.1l3.6-1.9l17.5-8.9c0,0.5,0.1,0.9,0.1,1.4c0,5.8-4.6,10.4-10.4,10.4
	c-1.8,0-3.5-0.5-5.1-1.4l-0.1,0.1l-2.4,1.1c5.6,4.1,13.6,2.9,17.8-2.9c1.6-2.1,2.4-4.7,2.4-7.5c0-0.4,0-0.6,0-1
	c-0.1-0.9,0.4-1.8,1.3-2.3l1.1-0.4v-2.6L11.4,25.8L9.3,26.8z"/>
<path class="st2" d="M27.1,12.5L9.6,21.4c0-0.5-0.1-0.9-0.1-1.4c0-5.8,4.6-10.4,10.4-10.4c1.8,0,3.5,0.5,5,1.4l2.1-1l0.5-0.3
	c-5.8-4.1-13.6-2.9-17.8,2.8c-1.6,2.1-2.4,4.8-2.4,7.5c0,0.4,0,0.6,0,1c0.1,0.9-0.4,1.7-1.3,2.2L5,23.8v2.6l3.3-1.6l1-0.5l1-0.5
	l18.4-9.4l2.1-1L35,11V8.5l-4.3,2.1L27.1,12.5z"/>
</svg>
