<?xml version="1.0" encoding="utf-8"?>
<!-- Generator: Adobe Illustrator 24.0.1, SVG Export Plug-In . SVG Version: 6.00 Build 0)  -->
<svg version="1.1" id="Layer_1" xmlns="http://www.w3.org/2000/svg" xmlns:xlink="http://www.w3.org/1999/xlink" x="0px" y="0px"
	 width="40px" height="40px" viewBox="0 0 40 40" style="enable-background:new 0 0 40 40;" xml:space="preserve">
<style type="text/css">
	.st0{fill:#A1A3AA;}
</style>
<path class="st0" d="M5.7,29.1L0,31.9v3.5l5.7-2.8l4.8-2.5l23.3-11.8c0,0.7,0.1,1.2,0.1,1.9c0,7.7-6.1,13.8-13.8,13.8
	c-2.4,0-4.7-0.7-6.8-1.9l-0.1,0.1L10,33.6c7.4,5.4,18.1,3.9,23.7-3.9c2.1-2.8,3.2-6.2,3.2-10c0-0.5,0-0.8,0-1.3
	c-0.1-1.2,0.5-2.4,1.7-3.1l1.5-0.5v-3.5L8.5,27.8L5.7,29.1z"/>
<path class="st0" d="M29.4,10.1L6.1,21.9c0-0.7-0.1-1.2-0.1-1.9c0-7.7,6.1-13.8,13.8-13.8c2.4,0,4.7,0.7,6.6,1.9l2.8-1.3l0.7-0.4
	c-7.7-5.4-18.1-3.9-23.7,3.7c-2.1,2.8-3.2,6.4-3.2,10c0,0.5,0,0.8,0,1.3c0.1,1.2-0.5,2.3-1.7,2.9L0,25.1v3.5l4.4-2.1l1.3-0.7L7,25.1
	l24.5-12.5l2.8-1.3l5.6-3.2V4.8l-5.7,2.8L29.4,10.1z"/>
</svg>
