<?xml version="1.0" encoding="utf-8"?>
<!-- Generator: Adobe Illustrator 24.0.1, SVG Export Plug-In . SVG Version: 6.00 Build 0)  -->
<svg version="1.1" id="Layer_1" xmlns="http://www.w3.org/2000/svg" xmlns:xlink="http://www.w3.org/1999/xlink" x="0px" y="0px"
	 width="40px" height="40px" viewBox="0 0 40 40" style="enable-background:new 0 0 40 40;" xml:space="preserve">
<style type="text/css">
	.st0{fill:#2E7FF7;}
	.st1{fill:url(#SVGID_1_);}
	.st2{fill:#FFFFFF;}
</style>
<path class="st0" d="M25,40H15C6.8,40,0,33.3,0,25V15C0,6.8,6.8,0,15,0h10c8.3,0,15,6.8,15,15v10C40,33.3,33.3,40,25,40z"/>
<linearGradient id="SVGID_1_" gradientUnits="userSpaceOnUse" x1="9.0907" y1="40.8954" x2="30.9093" y2="3.1046" gradientTransform="matrix(1 0 0 -1 0 42)">
	<stop  offset="0" style="stop-color:#FFFFFF;stop-opacity:0.5"/>
	<stop  offset="1" style="stop-color:#FFFFFF;stop-opacity:0"/>
</linearGradient>
<path class="st1" d="M25,40H15C6.8,40,0,33.3,0,25V15C0,6.8,6.8,0,15,0h10c8.3,0,15,6.8,15,15v10C40,33.3,33.3,40,25,40z"/>
<path class="st2" d="M23.3,35c-2.1,0-3.8-0.5-4.8-1.5S17,31.4,17,30.1c0-0.4,0.1-0.8,0.3-1.1c0.1-0.3,0.4-0.5,0.8-0.8
	s0.6-0.3,1.1-0.3s0.8,0.1,1.1,0.3c0.3,0.1,0.5,0.4,0.8,0.8c0.3,0.4,0.3,0.6,0.3,1.1s-0.1,1-0.4,1.3c-0.3,0.4-0.5,0.5-0.9,0.6
	c0.3,0.4,0.8,0.8,1.4,0.9c0.6,0.3,1.3,0.3,1.9,0.3c0.9,0,1.7-0.3,2.4-0.8c0.8-0.5,1.3-1.3,1.6-2.1c0.4-0.9,0.5-2,0.5-3.3
	s-0.3-2.4-0.5-3.3c-0.4-0.9-0.9-1.6-1.6-2c-0.8-0.5-1.5-0.6-2.4-0.6c-0.5,0-1.3,0.3-2,0.8l-1.6,0.6v-0.8l6.8-9H17v9.4
	c0,0.8,0.1,1.4,0.5,1.9c0.4,0.5,0.9,0.8,1.6,0.8c0.5,0,1.1-0.3,1.6-0.5c0.5-0.4,0.9-0.9,1.3-1.4c0-0.1,0.1-0.3,0.1-0.3
	c0.1,0,0.1-0.1,0.3-0.1s0.3,0,0.5,0.3c0.1,0.3,0.3,0.4,0.3,0.6c0,0.1,0,0.3-0.1,0.5c-0.4,0.9-0.9,1.5-1.6,2
	c-0.8,0.5-1.5,0.8-2.3,0.8c-2,0-3.5-0.4-4.3-1.3c-0.8-0.8-1.1-1.9-1.1-3.3v-9.4H8.9V11h4.9V7l-1.1-1.1V5h3.3l1.2,0.6V11h12.5
	l1.3,1.3l-7.6,7.6c0.5-0.3,0.9-0.3,1.5-0.4c0.9,0,1.7,0.3,2.8,0.7c1,0.5,1.9,1.3,2.4,2.1c0.5,0.9,0.9,1.8,1.1,2.6s0.3,1.5,0.3,2.3
	c0,1.5-0.4,2.9-0.9,4.1c-0.6,1.3-1.5,2.2-2.9,2.9C26,34.8,24.8,35,23.3,35z"/>
</svg>
