<?xml version="1.0" encoding="utf-8"?>
<!-- Generator: Adobe Illustrator 23.0.0, SVG Export Plug-In . SVG Version: 6.00 Build 0)  -->
<svg version="1.1" id="Layer_1" xmlns="http://www.w3.org/2000/svg" xmlns:xlink="http://www.w3.org/1999/xlink" x="0px" y="0px"
	 width="32px" height="32px" viewBox="0 0 32 32" style="enable-background:new 0 0 32 32;" xml:space="preserve">
<style type="text/css">
	.st0{fill:#2E7FF7;}
	.st1{fill:url(#SVGID_1_);}
	.st2{fill:#FFFFFF;}
</style>
<path class="st0" d="M20,32h-8C5.4,32,0,26.6,0,20v-8C0,5.4,5.4,0,12,0h8c6.6,0,12,5.4,12,12v8C32,26.6,26.6,32,20,32z"/>
<linearGradient id="SVGID_1_" gradientUnits="userSpaceOnUse" x1="7.2681" y1="0.8759" x2="24.7319" y2="31.1241">
	<stop  offset="0" style="stop-color:#FFFFFF;stop-opacity:0.5"/>
	<stop  offset="1" style="stop-color:#FFFFFF;stop-opacity:0"/>
</linearGradient>
<path class="st1" d="M20,32h-8C5.4,32,0,26.6,0,20v-8C0,5.4,5.4,0,12,0h8c6.6,0,12,5.4,12,12v8C32,26.6,26.6,32,20,32z"/>
<path class="st2" d="M18.6,28c-1.7,0-3-0.4-3.8-1.2c-0.8-0.8-1.2-1.7-1.2-2.7c0-0.3,0.1-0.6,0.2-0.9c0.1-0.2,0.3-0.4,0.6-0.6
	s0.5-0.2,0.9-0.2s0.6,0.1,0.9,0.2c0.2,0.1,0.4,0.3,0.6,0.6s0.2,0.5,0.2,0.9c0,0.4-0.1,0.8-0.3,1c-0.2,0.3-0.4,0.4-0.7,0.5
	c0.2,0.3,0.6,0.6,1.1,0.7c0.5,0.2,1,0.2,1.5,0.2c0.7,0,1.4-0.2,1.9-0.6c0.6-0.4,1-1,1.3-1.7c0.3-0.7,0.4-1.6,0.4-2.6
	c0-1-0.2-1.9-0.4-2.6c-0.3-0.7-0.7-1.3-1.3-1.6c-0.6-0.4-1.2-0.5-1.9-0.5c-0.4,0-1,0.2-1.6,0.6L15.7,18v-0.6l5.4-7.2h-7.5v7.5
	c0,0.6,0.1,1.1,0.4,1.5c0.3,0.4,0.7,0.6,1.3,0.6c0.4,0,0.9-0.2,1.3-0.4c0.4-0.3,0.7-0.7,1-1.1c0-0.1,0.1-0.2,0.1-0.2
	c0.1,0,0.1-0.1,0.2-0.1c0.1,0,0.2,0,0.4,0.2c0.1,0.2,0.2,0.3,0.2,0.5c0,0.1,0,0.2-0.1,0.4c-0.3,0.7-0.7,1.2-1.3,1.6
	c-0.6,0.4-1.2,0.6-1.8,0.6c-1.6,0-2.8-0.3-3.4-1c-0.6-0.6-0.9-1.5-0.9-2.6v-7.5H7.1V8.8H11V5.6l-0.9-0.9V4h2.6l1,0.5v4.3l10,0l1,1
	l-6.1,6.1c0.4-0.2,0.7-0.2,1.2-0.3c0.7,0,1.4,0.2,2.2,0.6c0.8,0.4,1.5,1,1.9,1.7c0.4,0.7,0.7,1.4,0.9,2.1s0.2,1.2,0.2,1.8
	c0,1.2-0.3,2.3-0.7,3.3c-0.5,1-1.2,1.8-2.3,2.3C20.8,27.8,19.8,28,18.6,28z"/>
</svg>
