<?xml version="1.0" encoding="utf-8"?>
<!-- Generator: Adobe Illustrator 24.0.1, SVG Export Plug-In . SVG Version: 6.00 Build 0)  -->
<svg version="1.1" id="Layer_1" xmlns="http://www.w3.org/2000/svg" xmlns:xlink="http://www.w3.org/1999/xlink" x="0px" y="0px"
	 width="40px" height="40px" viewBox="0 0 40 40" style="enable-background:new 0 0 40 40;" xml:space="preserve">
<style type="text/css">
	.st0{fill:#A1A3AA;}
</style>
<path class="st0" d="M24.1,40c-2.8,0-5.1-0.7-6.4-2c-1.3-1.3-2-2.8-2-4.5c0-0.5,0.1-1.1,0.4-1.5c0.1-0.4,0.5-0.7,1.1-1.1
	s0.8-0.4,1.5-0.4s1.1,0.1,1.5,0.4c0.4,0.1,0.7,0.5,1.1,1.1s0.4,0.8,0.4,1.5s-0.1,1.3-0.5,1.7c-0.4,0.5-0.7,0.7-1.2,0.8
	c0.4,0.5,1.1,1.1,1.9,1.2c0.8,0.4,1.7,0.4,2.5,0.4c1.2,0,2.3-0.4,3.2-1.1c1.1-0.7,1.7-1.7,2.1-2.8c0.5-1.2,0.7-2.7,0.7-4.4
	s-0.4-3.2-0.7-4.4c-0.5-1.2-1.2-2.1-2.1-2.7c-1.1-0.7-2-0.8-3.2-0.8c-0.7,0-1.7,0.4-2.7,1.1l-2.1,0.8v-1.1l9.1-12H15.7v12.5
	c0,1.1,0.1,1.9,0.7,2.5c0.5,0.7,1.2,1.1,2.1,1.1c0.7,0,1.5-0.4,2.1-0.7c0.7-0.5,1.2-1.2,1.7-1.9c0-0.1,0.1-0.4,0.1-0.4
	c0.1,0,0.1-0.1,0.4-0.1c0.3,0,0.4,0,0.7,0.4c0.1,0.4,0.4,0.5,0.4,0.8c0,0.1,0,0.4-0.1,0.7c-0.5,1.2-1.2,2-2.1,2.7
	c-1.1,0.7-2,1.1-3.1,1.1c-2.7,0-4.7-0.5-5.7-1.7c-1.1-1.1-1.5-2.5-1.5-4.4V10.3H4.9V8h6.5V2.7L10,1.2V0h4.4L16,0.8V8h16.7l1.7,1.7
	L24.3,19.9c0.7-0.4,1.2-0.4,2-0.5c1.2,0,2.3,0.4,3.7,0.9c1.3,0.7,2.5,1.7,3.2,2.8c0.7,1.2,1.2,2.4,1.5,3.5c0.3,1.1,0.4,2,0.4,3.1
	c0,2-0.5,3.9-1.2,5.5c-0.8,1.7-2,2.9-3.9,3.9C27.7,39.7,26.1,40,24.1,40z"/>
</svg>
