<svg width="35" height="39" viewBox="0 0 35 39" fill="none" xmlns="http://www.w3.org/2000/svg">
<path d="M20.3205 0.803847L31.641 7.33975C33.4974 8.41154 34.641 10.3923 34.641 12.5359V25.6077C34.641 27.7513 33.4974 29.732 31.641 30.8038L20.3205 37.3397C18.4641 38.4115 16.1769 38.4115 14.3205 37.3397L3 30.8038C1.14359 29.732 0 27.7513 0 25.6077V12.5359C0 10.3923 1.14359 8.41154 3 7.33975L14.3205 0.803847C16.1769 -0.267949 18.4641 -0.267949 20.3205 0.803847Z" fill="#037A8C"/>
<path style="mix-blend-mode:overlay" d="M20.3205 0.803847L31.641 7.33975C33.4974 8.41154 34.641 10.3923 34.641 12.5359V25.6077C34.641 27.7513 33.4974 29.732 31.641 30.8038L20.3205 37.3397C18.4641 38.4115 16.1769 38.4115 14.3205 37.3397L3 30.8038C1.14359 29.732 0 27.7513 0 25.6077V12.5359C0 10.3923 1.14359 8.41154 3 7.33975L14.3205 0.803847C16.1769 -0.267949 18.4641 -0.267949 20.3205 0.803847Z" fill="url(#paint0_linear)"/>
<path opacity="0.65732" fill-rule="evenodd" clip-rule="evenodd" d="M8.32051 7.83147L12.1358 6.0718L26.2211 12.8868V16.4876L12.8425 23.1529L22.5768 27.8262V20.2101L26.2211 18.5635V29.8247L22.5768 31.5262L8.32051 24.7014V20.9361L18.1454 16.0784L8.32051 11.554V7.83147Z" fill="white"/>
<path opacity="0.7" fill-rule="evenodd" clip-rule="evenodd" d="M22.5768 20.2101L26.2211 18.5635V29.8247L22.5768 31.5262V20.2101Z" fill="white"/>
<path opacity="0.7" fill-rule="evenodd" clip-rule="evenodd" d="M26.2211 12.9513V16.4876L22.5036 18.3306L22.5768 14.6462L26.2211 12.9513Z" fill="white"/>
<path fill-rule="evenodd" clip-rule="evenodd" d="M8.32051 7.83147L12.1358 6.0718L26.2211 12.9513L22.5768 14.6462L8.32051 7.83147Z" fill="white"/>
<defs>
<linearGradient id="paint0_linear" x1="9.6268" y1="4.5817" x2="27.9795" y2="31.8396" gradientUnits="userSpaceOnUse">
<stop stop-color="white" stop-opacity="0.5"/>
<stop offset="1" stop-color="white" stop-opacity="0"/>
</linearGradient>
</defs>
</svg>
