<?xml version="1.0" encoding="utf-8"?>
<!-- Generator: Adobe Illustrator 24.0.1, SVG Export Plug-In . SVG Version: 6.00 Build 0)  -->
<svg version="1.1" id="Layer_1" xmlns="http://www.w3.org/2000/svg" xmlns:xlink="http://www.w3.org/1999/xlink" x="0px" y="0px"
	 width="40px" height="40px" viewBox="0 0 40 40" style="enable-background:new 0 0 40 40;" xml:space="preserve">
<style type="text/css">
	.st0{fill:#A1A3AA;}
</style>
<path class="st0" d="M30.8,26.7c1.4,1.9,2.9,4,4.3,6c-2.9,3.5-6.6,5.7-11.1,6.8c-5,1.1-9.7,0.4-14.3-2.2c4-2.9,8-6.1,11.9-9
	c0.8,0.8,1.8,1.8,2.6,2.6s0.6,0.8,1.8,0.4c1.8-0.8,3.2-2.2,4.2-3.9C30.4,26.9,30.7,26.9,30.8,26.7C30.7,26.7,30.7,26.7,30.8,26.7
	L30.8,26.7z M13.1,30.8c-1.1,0.8-2.1,1.5-3.2,2.4c-0.7,0.6-1.5,1.1-2.2,1.8c-0.4,0.4-0.6,0.4-0.8,0c-3.5-3-5.5-6.8-6.4-11.2
	s-0.1-8.9,2.1-13c0-0.1,0.1-0.1,0.1-0.3c0,0,0,0,0.1-0.1c2.9,4,6.1,7.8,9,11.8c-0.1,0.1-0.1,0.1-0.1,0.4c-0.8,0.8-1.8,1.9-2.8,2.8
	c-0.3,0.4-0.3,0.6-0.1,0.8c0.8,1.8,2.2,3.3,3.9,4.6C12.7,30.4,12.8,30.6,13.1,30.8L13.1,30.8z M29.7,2.9c-1.4,1-2.9,2.1-4.3,3
	c-2.4,1.8-5,3.5-7.5,5.4c-0.4,0.1-0.6,0.4-0.8,0c-0.8-0.8-1.8-1.5-2.4-2.4c-0.1-0.1-0.6-0.4-0.7-0.1c-1.9,1.1-3.5,2.5-4.7,4.2
	c0-0.1-0.1,0-0.1,0c-0.7-0.8-1.4-1.8-2.1-2.8C6.4,9.4,5.8,8.5,5.1,7.6c-0.1-0.4-0.4-0.6,0-0.8c3.5-3.9,7.8-6.1,12.9-6.6
	c4-0.6,8,0.4,11.5,2.2c0.4,0,0.4,0.1,0.6,0.1C29.7,2.6,29.7,2.6,29.7,2.9z M37.2,29.7c-0.8-1.2-1.8-2.2-2.6-3.5
	c-1.9-2.6-4-5.3-6.1-7.8c-0.4-0.3-0.4-0.6,0-0.8c0.8-0.8,1.8-1.8,2.6-2.6c0.1-0.1,0.4-0.6,0.1-0.7c-1.1-1.9-2.2-3.5-4.2-4.7
	c-0.1-0.1-0.4-0.4-0.6-0.6c0.1-0.1,0.4-0.1,0.4-0.4c1.8-1.4,3.5-2.6,5.3-3.7c0.4-0.1,0.6-0.4,0.8,0c4.3,3.7,6.6,8.7,6.8,14.5
	c0.1,3.3-0.7,6.6-2.2,9.6C37.3,29.2,37.3,29.4,37.2,29.7z"/>
</svg>
