<?xml version="1.0" encoding="utf-8"?>
<!-- Generator: Adobe Illustrator 24.0.1, SVG Export Plug-In . SVG Version: 6.00 Build 0)  -->
<svg version="1.1" id="Layer_1" xmlns="http://www.w3.org/2000/svg" xmlns:xlink="http://www.w3.org/1999/xlink" x="0px" y="0px"
	 width="40px" height="40px" viewBox="0 0 40 40" style="enable-background:new 0 0 40 40;" xml:space="preserve">
<style type="text/css">
	.st0{fill:#1D2227;}
	.st1{fill:url(#SVGID_1_);}
	.st2{fill:#FFFFFF;}
</style>
<path class="st0" d="M25,40H15C6.8,40,0,33.3,0,25V15C0,6.8,6.8,0,15,0h10c8.3,0,15,6.8,15,15v10C40,33.3,33.3,40,25,40z"/>
<linearGradient id="SVGID_1_" gradientUnits="userSpaceOnUse" x1="9.0907" y1="40.8954" x2="30.9093" y2="3.1046" gradientTransform="matrix(1 0 0 -1 0 42)">
	<stop  offset="0" style="stop-color:#FFFFFF;stop-opacity:0.5"/>
	<stop  offset="1" style="stop-color:#FFFFFF;stop-opacity:0"/>
</linearGradient>
<path class="st1" d="M25,40H15C6.8,40,0,33.3,0,25V15C0,6.8,6.8,0,15,0h10c8.3,0,15,6.8,15,15v10C40,33.3,33.3,40,25,40z"/>
<path class="st2" d="M27.9,25c1,1.4,2.1,2.9,3.1,4.3c-2.1,2.5-4.8,4.1-8,4.9c-3.6,0.8-7,0.3-10.3-1.6c2.9-2.1,5.8-4.4,8.6-6.5
	c0.6,0.6,1.3,1.3,1.9,1.9s0.4,0.6,1.3,0.3c1.3-0.6,2.3-1.6,3-2.8C27.6,25.1,27.8,25.1,27.9,25C27.8,25,27.8,25,27.9,25L27.9,25z
	 M15.1,27.9c-0.8,0.6-1.5,1.1-2.3,1.7c-0.5,0.4-1.1,0.8-1.6,1.3c-0.3,0.3-0.4,0.3-0.6,0c-2.5-2.2-4-4.9-4.6-8.1s-0.1-6.4,1.5-9.4
	c0-0.1,0.1-0.1,0.1-0.2c0,0,0,0,0.1-0.1c2.1,2.9,4.4,5.6,6.5,8.5c-0.1,0.1-0.1,0.1-0.1,0.3c-0.6,0.6-1.3,1.4-2,2
	c-0.2,0.3-0.2,0.4-0.1,0.6c0.6,1.3,1.6,2.4,2.8,3.3C14.8,27.6,14.9,27.8,15.1,27.9L15.1,27.9z M27.1,7.8C26.1,8.5,25,9.3,24,10
	c-1.7,1.3-3.6,2.5-5.4,3.9c-0.3,0.1-0.4,0.3-0.6,0c-0.6-0.6-1.3-1.1-1.7-1.7c-0.1-0.1-0.4-0.3-0.5-0.1c-1.4,0.8-2.5,1.8-3.4,3
	c0-0.1-0.1,0-0.1,0c-0.5-0.6-1-1.3-1.5-2c-0.5-0.6-1-1.3-1.5-1.9c-0.1-0.3-0.3-0.4,0-0.6c2.5-2.8,5.6-4.4,9.3-4.8
	c2.9-0.4,5.8,0.3,8.3,1.6c0.3,0,0.3,0.1,0.4,0.1C27.1,7.6,27.1,7.6,27.1,7.8z M32.5,27.1c-0.6-0.9-1.3-1.6-1.9-2.5
	c-1.4-1.9-2.9-3.8-4.4-5.6c-0.3-0.2-0.3-0.4,0-0.6c0.6-0.6,1.3-1.3,1.9-1.9c0.1-0.1,0.3-0.4,0.1-0.5c-0.8-1.4-1.6-2.5-3-3.4
	c-0.1-0.1-0.3-0.3-0.4-0.4c0.1-0.1,0.3-0.1,0.3-0.3c1.3-1,2.5-1.9,3.8-2.7c0.3-0.1,0.4-0.3,0.6,0c3.1,2.7,4.8,6.3,4.9,10.5
	c0.1,2.4-0.5,4.8-1.6,6.9C32.6,26.8,32.6,26.9,32.5,27.1z"/>
</svg>
